<svg width="16" height="16" viewBox="0 0 16 16" fill="none" xmlns="http://www.w3.org/2000/svg">
<g clip-path="url(#clip0_8047_34349)">
<path d="M2.39999 2.4008H3.19999V0.800797H1.99999C1.68173 0.800797 1.3765 0.927225 1.15146 1.15227C0.926416 1.37731 0.799988 1.68254 0.799988 2.0008V3.2008H2.39999V2.4008ZM4.79999 2.4008H7.19999V0.800797H4.79999V2.4008ZM8.79999 2.4008H11.2V0.800797H8.79999V2.4008ZM7.19999 15.2008H4.79999V13.6008H7.19999V15.2008ZM8.79999 15.2008H11.2V13.6008H8.79999V15.2008ZM13.6 3.2008V2.4008H12.8V0.800797H14C14.3182 0.800797 14.6235 0.927225 14.8485 1.15227C15.0736 1.37731 15.2 1.68254 15.2 2.0008V3.2008H13.6ZM2.39999 13.6008V12.8008H0.799988V14.0008C0.799988 14.3191 0.926416 14.6243 1.15146 14.8493C1.3765 15.0744 1.68173 15.2008 1.99999 15.2008H3.19999V13.6008H2.39999ZM12.8 13.6008H13.6V12.8008H15.2V14.0008C15.2 14.3191 15.0736 14.6243 14.8485 14.8493C14.6235 15.0744 14.3182 15.2008 14 15.2008H12.8V13.6008ZM7.99999 4.8008C8.21216 4.8008 8.41564 4.88508 8.56567 5.03511C8.7157 5.18514 8.79999 5.38862 8.79999 5.6008V7.2008H10.4C10.6122 7.2008 10.8156 7.28508 10.9657 7.43511C11.1157 7.58514 11.2 7.78862 11.2 8.0008C11.2 8.21297 11.1157 8.41645 10.9657 8.56648C10.8156 8.71651 10.6122 8.8008 10.4 8.8008H8.79999V10.4008C8.79999 10.613 8.7157 10.8165 8.56567 10.9665C8.41564 11.1165 8.21216 11.2008 7.99999 11.2008C7.78781 11.2008 7.58433 11.1165 7.4343 10.9665C7.28427 10.8165 7.19999 10.613 7.19999 10.4008V8.8008H5.59999C5.38781 8.8008 5.18433 8.71651 5.0343 8.56648C4.88427 8.41645 4.79999 8.21297 4.79999 8.0008C4.79999 7.78862 4.88427 7.58514 5.0343 7.43511C5.18433 7.28508 5.38781 7.2008 5.59999 7.2008H7.19999V5.6008C7.19999 5.38862 7.28427 5.18514 7.4343 5.03511C7.58433 4.88508 7.78781 4.8008 7.99999 4.8008ZM0.799988 7.2008V4.8008H2.39999V7.2008H0.799988ZM0.799988 8.8008V11.2008H2.39999V8.8008H0.799988ZM13.6 7.2008V4.8008H15.2V7.2008H13.6ZM13.6 8.8008V11.2008H15.2V8.8008H13.6Z" fill="#6D7175"/>
</g>
<defs>
<clipPath id="clip0_8047_34349">
<rect width="16" height="16" fill="white" transform="translate(0 0.000793457)"/>
</clipPath>
</defs>
</svg>
