<svg width="16" height="16" viewBox="0 0 16 16" fill="none" xmlns="http://www.w3.org/2000/svg">
<path d="M15.707 7.29285L10.707 2.29285C10.6142 2.2 10.5039 2.12636 10.3826 2.07611C10.2613 2.02586 10.1313 2 10 2C9.73482 2 9.48051 2.10534 9.293 2.29285C9.20016 2.38569 9.12651 2.49592 9.07626 2.61722C9.02601 2.73853 9.00015 2.86855 9.00015 2.99985C9.00015 3.26503 9.10549 3.51934 9.293 3.70685L12.586 6.99985H1C0.734784 6.99985 0.48043 7.10521 0.292893 7.29274C0.105357 7.48028 0 7.73463 0 7.99985C0 8.26507 0.105357 8.51942 0.292893 8.70696C0.48043 8.89449 0.734784 8.99985 1 8.99985H12.586L9.293 12.2928C9.10549 12.4804 9.00015 12.7347 9.00015 12.9998C9.00015 13.265 9.10549 13.5193 9.293 13.7068C9.48051 13.8944 9.73482 13.9997 10 13.9997C10.2652 13.9997 10.5195 13.8944 10.707 13.7068L15.707 8.70685C15.7999 8.61406 15.8737 8.50386 15.924 8.38254C15.9743 8.26123 16.0002 8.13118 16.0002 7.99985C16.0002 7.86852 15.9743 7.73847 15.924 7.61716C15.8737 7.49584 15.7999 7.38564 15.707 7.29285Z" fill="#6D7175"/>
</svg>
