<svg width="16" height="16" viewBox="0 0 16 16" fill="none" xmlns="http://www.w3.org/2000/svg">
<path fill-rule="evenodd" clip-rule="evenodd" d="M15.0002 7.00104H3.41425L6.70725 3.70804C7.09825 3.31704 7.09825 2.68504 6.70725 2.29404C6.31625 1.90304 5.68425 1.90304 5.29325 2.29404L0.29325 7.29404C-0.09775 7.68504 -0.09775 8.31704 0.29325 8.70804L5.29325 13.708C5.48825 13.903 5.74425 14.001 6.00025 14.001C6.25625 14.001 6.51225 13.903 6.70725 13.708C7.09825 13.317 7.09825 12.685 6.70725 12.294L3.41425 9.00104H15.0002C15.5532 9.00104 16.0002 8.55304 16.0002 8.00104C16.0002 7.44904 15.5532 7.00104 15.0002 7.00104Z" fill="#6D7175"/>
</svg>
