<svg width="16" height="16" viewBox="0 0 16 16" fill="none" xmlns="http://www.w3.org/2000/svg">
<g clip-path="url(#clip0_11438_41080)">
<path d="M4.43229 15.5009C3.91598 15.5017 3.4046 15.4006 2.92748 15.2033C2.45037 15.006 2.01692 14.7164 1.65201 14.3511C1.28576 13.9867 0.995371 13.5533 0.797636 13.0759C0.599901 12.5986 0.498739 12.0868 0.499999 11.5701C0.499999 10.5186 0.909503 9.53084 1.65201 8.78908L8.78833 1.64977C9.24611 1.19343 9.80919 0.856818 10.4279 0.66963C11.0466 0.482442 11.7018 0.450441 12.3358 0.57645C12.9698 0.70246 13.563 0.982605 14.063 1.39216C14.5631 1.80171 14.9547 2.32807 15.2031 2.92478C15.4007 3.40221 15.5017 3.91409 15.5001 4.43079C15.5017 4.94745 15.4008 5.45928 15.2031 5.93665C15.0055 6.41402 14.7152 6.84744 14.3489 7.21182L11.1553 10.4068C10.8829 10.6788 10.5477 10.8795 10.1794 10.9911C9.81097 11.1027 9.42076 11.1218 9.04322 11.0468C8.66569 10.9718 8.31245 10.8049 8.01474 10.5609C7.71703 10.3169 7.48403 10.0033 7.33631 9.64784C7.21849 9.36351 7.15832 9.05861 7.15931 8.75083C7.15931 8.12458 7.40231 7.53657 7.84482 7.09482L11.2199 3.71904C11.289 3.6474 11.3718 3.59027 11.4633 3.55096C11.5548 3.51165 11.6532 3.49096 11.7528 3.4901C11.8524 3.48923 11.9511 3.50821 12.0433 3.54592C12.1355 3.58363 12.2192 3.63932 12.2897 3.70974C12.3601 3.78016 12.4158 3.8639 12.4535 3.95607C12.4912 4.04825 12.5102 4.14701 12.5093 4.24659C12.5084 4.34618 12.4877 4.44459 12.4484 4.5361C12.4091 4.6276 12.352 4.71036 12.2804 4.77955L8.90533 8.15533C8.82688 8.23332 8.76473 8.32613 8.7225 8.42837C8.68026 8.5306 8.65879 8.64022 8.65933 8.75083C8.65873 8.86137 8.68007 8.97094 8.72212 9.07317C8.76417 9.1754 8.82609 9.26828 8.90429 9.34641C8.98249 9.42454 9.07542 9.48637 9.17769 9.52833C9.27996 9.57029 9.38954 9.59154 9.50008 9.59084C9.72284 9.59084 9.93659 9.50234 10.0948 9.34559L13.2884 6.15056C13.5148 5.92516 13.6942 5.65711 13.8164 5.36193C13.9386 5.06674 14.001 4.75026 14.0001 4.43079C14.0001 3.78129 13.7474 3.17003 13.2884 2.71103C12.8318 2.25587 12.2133 2.00029 11.5686 2.00029C10.9239 2.00029 10.3055 2.25587 9.84884 2.71103L2.71252 9.84959C2.48584 10.0751 2.30615 10.3434 2.18385 10.6389C2.06155 10.9343 1.99906 11.2511 2.00001 11.5709C2.00001 12.2204 2.25352 12.8309 2.71252 13.2906C3.16914 13.7458 3.78757 14.0014 4.43229 14.0014C5.07701 14.0014 5.69544 13.7458 6.15205 13.2906L7.46982 11.9721C7.539 11.9005 7.62176 11.8433 7.71326 11.804C7.80477 11.7647 7.90318 11.744 8.00277 11.7432C8.10236 11.7423 8.20112 11.7613 8.29329 11.799C8.38546 11.8367 8.4692 11.8924 8.53962 11.9628C8.61004 12.0332 8.66573 12.117 8.70344 12.2092C8.74115 12.3013 8.76013 12.4001 8.75926 12.4997C8.7584 12.5993 8.73771 12.6977 8.6984 12.7892C8.6591 12.8807 8.60196 12.9634 8.53032 13.0326L7.21256 14.3511C6.84746 14.7161 6.41397 15.0055 5.9369 15.2028C5.45983 15.4001 4.94854 15.5014 4.43229 15.5009Z" fill="#6D7175"/>
<path fill-rule="evenodd" clip-rule="evenodd" d="M4.43229 15.5009C3.91598 15.5017 3.4046 15.4006 2.92748 15.2033C2.45037 15.006 2.01692 14.7164 1.65201 14.3511C1.28576 13.9867 0.995371 13.5533 0.797636 13.0759C0.599901 12.5986 0.498739 12.0868 0.499999 11.5701C0.499999 10.5186 0.909503 9.53084 1.65201 8.78908L8.78833 1.64977C9.24611 1.19343 9.80919 0.856818 10.4279 0.66963C11.0466 0.482442 11.7018 0.450441 12.3358 0.57645C12.9698 0.70246 13.563 0.982605 14.063 1.39216C14.5631 1.80171 14.9547 2.32807 15.2031 2.92478C15.4007 3.40221 15.5017 3.91409 15.5001 4.43079C15.5017 4.94745 15.4008 5.45928 15.2031 5.93665C15.0055 6.41402 14.7152 6.84744 14.3489 7.21182L11.1553 10.4068C10.8829 10.6788 10.5477 10.8795 10.1794 10.9911C9.81097 11.1027 9.42076 11.1218 9.04322 11.0468C8.66569 10.9718 8.31245 10.8049 8.01474 10.5609C7.71703 10.3169 7.48403 10.0033 7.33631 9.64784C7.21849 9.36351 7.15832 9.05861 7.15931 8.75083C7.15931 8.12458 7.40231 7.53657 7.84482 7.09482L11.2199 3.71904C11.289 3.6474 11.3718 3.59027 11.4633 3.55096C11.5548 3.51165 11.6532 3.49096 11.7528 3.4901C11.8524 3.48923 11.9511 3.50821 12.0433 3.54592C12.1355 3.58363 12.2192 3.63932 12.2897 3.70974C12.3601 3.78016 12.4158 3.8639 12.4535 3.95607C12.4912 4.04825 12.5102 4.14701 12.5093 4.24659C12.5084 4.34618 12.4877 4.44459 12.4484 4.5361C12.4091 4.6276 12.352 4.71036 12.2804 4.77955L8.90533 8.15533C8.82688 8.23332 8.76473 8.32613 8.7225 8.42837C8.68026 8.5306 8.65879 8.64022 8.65933 8.75083C8.65873 8.86137 8.68007 8.97094 8.72212 9.07317C8.76417 9.1754 8.82609 9.26828 8.90429 9.34641C8.98249 9.42454 9.07542 9.48637 9.17769 9.52833C9.27996 9.57029 9.38954 9.59154 9.50008 9.59084C9.72284 9.59084 9.93659 9.50234 10.0948 9.34559L13.2884 6.15056C13.5148 5.92516 13.6942 5.65711 13.8164 5.36193C13.9386 5.06674 14.001 4.75026 14.0001 4.43079C14.0001 3.78129 13.7474 3.17003 13.2884 2.71103C12.8318 2.25587 12.2133 2.00029 11.5686 2.00029C10.9239 2.00029 10.3055 2.25587 9.84884 2.71103L2.71252 9.84959C2.48584 10.0751 2.30615 10.3434 2.18385 10.6389C2.06155 10.9343 1.99906 11.2511 2.00001 11.5709C2.00001 12.2204 2.25352 12.8309 2.71252 13.2906C3.16914 13.7458 3.78757 14.0014 4.43229 14.0014C5.07701 14.0014 5.69544 13.7458 6.15205 13.2906L7.46982 11.9721C7.539 11.9005 7.62176 11.8433 7.71326 11.804C7.80477 11.7647 7.90318 11.744 8.00277 11.7432C8.10236 11.7423 8.20112 11.7613 8.29329 11.799C8.38546 11.8367 8.4692 11.8924 8.53962 11.9628C8.61004 12.0332 8.66573 12.117 8.70344 12.2092C8.74115 12.3013 8.76013 12.4001 8.75926 12.4997C8.7584 12.5993 8.73771 12.6977 8.6984 12.7892C8.6591 12.8807 8.60196 12.9634 8.53032 13.0326L7.21256 14.3511C6.84746 14.7161 6.41397 15.0055 5.9369 15.2028C5.45983 15.4001 4.94854 15.5014 4.43229 15.5009ZM6.01086 13.149L7.32721 11.8319C7.41459 11.7417 7.51897 11.6698 7.63433 11.6203C7.75023 11.5705 7.87489 11.5443 8.00103 11.5432C8.12717 11.5421 8.25227 11.5661 8.36902 11.6139C8.48577 11.6617 8.59184 11.7322 8.68104 11.8214C8.77024 11.9106 8.84078 12.0167 8.88855 12.1334C8.93632 12.2502 8.96035 12.3753 8.95926 12.5014C8.95816 12.6276 8.93195 12.7522 8.88217 12.8681C8.83262 12.9834 8.76072 13.0878 8.67062 13.1752L7.35402 14.4925C6.97032 14.8761 6.5147 15.1803 6.01333 15.3877C5.51204 15.595 4.97481 15.7014 4.43235 15.7009C3.8898 15.7017 3.35242 15.5954 2.85105 15.3881C2.3496 15.1807 1.89404 14.8764 1.51052 14.4925C1.12573 14.1095 0.820636 13.6541 0.612861 13.1525C0.405043 12.6508 0.298707 12.1129 0.299999 11.5699C0.300063 10.4654 0.730628 9.42684 1.51066 8.64759L8.64688 1.50838C9.12791 1.02886 9.71985 0.674896 10.37 0.4782C11.0201 0.281505 11.7086 0.247878 12.3748 0.380287C13.0409 0.512697 13.6643 0.807072 14.1898 1.23743C14.7152 1.66778 15.1267 2.22088 15.3878 2.8479C15.5954 3.34958 15.7017 3.88784 15.7001 4.43079C15.7017 4.97369 15.5956 5.51152 15.3879 6.01315C15.1803 6.51484 14.8751 6.97035 14.4902 7.35332L11.2968 10.5482C11.0011 10.8434 10.6372 11.0613 10.2373 11.1825C9.83752 11.3036 9.414 11.3244 9.00424 11.243C8.59447 11.1615 8.21109 10.9804 7.88797 10.7156C7.56485 10.4507 7.31195 10.1104 7.15163 9.72459C7.0237 9.41589 6.95828 9.08467 6.95931 8.75051C6.9594 8.07151 7.22334 7.43264 7.70352 6.95328L11.0772 3.5788C11.1646 3.48867 11.269 3.41675 11.3844 3.3672C11.5003 3.31741 11.6249 3.2912 11.7511 3.2901C11.8772 3.28901 12.0023 3.31305 12.1191 3.36081C12.2358 3.40858 12.3419 3.47912 12.4311 3.56832C12.5203 3.65752 12.5908 3.76359 12.6386 3.88034C12.6864 3.99709 12.7104 4.12219 12.7093 4.24833C12.7082 4.37447 12.682 4.49913 12.6322 4.61504C12.5827 4.73037 12.5107 4.83474 12.4206 4.92211L9.04677 8.29673C8.98713 8.35602 8.93945 8.42701 8.90735 8.50473C8.87524 8.58245 8.85892 8.66578 8.85932 8.74986L8.85933 8.75191C8.85887 8.836 8.8751 8.91933 8.90709 8.99709C8.93907 9.07485 8.98617 9.14549 9.04565 9.20492C9.10513 9.26435 9.17581 9.31139 9.2536 9.3433C9.3314 9.37521 9.41474 9.39138 9.49882 9.39085L9.50008 9.39084C9.66964 9.39084 9.83278 9.3235 9.95379 9.20379L13.1469 6.00917C13.3546 5.80242 13.5195 5.55621 13.6316 5.28544C13.7437 5.01468 13.8009 4.72439 13.8001 4.43135C13.8001 3.83482 13.5684 3.27394 13.147 2.85253C12.7279 2.43483 12.1603 2.20029 11.5686 2.20029C10.9769 2.20029 10.4092 2.43485 9.99012 2.85259L2.85396 9.99099C2.64604 10.1979 2.48083 10.4443 2.36864 10.7154C2.25646 10.9864 2.19914 11.2769 2.20001 11.5703C2.20001 12.1665 2.43225 12.7267 2.85379 13.1491C3.27291 13.5668 3.84053 13.8014 4.43229 13.8014C5.02406 13.8014 5.59173 13.5667 6.01086 13.149Z" fill="#6D7175"/>
</g>
<defs>
<clipPath id="clip0_11438_41080">
<rect width="16" height="16" fill="white" transform="translate(0 0.000915527)"/>
</clipPath>
</defs>
</svg>
