<svg width="16" height="16" viewBox="0 0 16 16" fill="none" xmlns="http://www.w3.org/2000/svg">
<g clip-path="url(#clip0_8325_32791)">
<path fill-rule="evenodd" clip-rule="evenodd" d="M12.8 1.60092C12.8 1.17657 12.9686 0.769603 13.2687 0.469545C13.5687 0.169487 13.9757 0.000915527 14.4 0.000915527C14.8244 0.000915527 15.2314 0.169487 15.5314 0.469545C15.8315 0.769603 16 1.17657 16 1.60092V2.40092H12.8V1.60092ZM6.70325 0.800916C7.0214 0.801196 7.32642 0.927808 7.55125 1.15292L10.8488 4.44892C10.9604 4.5605 11.0488 4.69297 11.109 4.83875C11.1693 4.98453 11.2002 5.14077 11.2 5.29852V14.0009C11.2 14.3192 11.0736 14.6244 10.8486 14.8494C10.6235 15.0745 10.3183 15.2009 10 15.2009H2.00005C1.68179 15.2009 1.37656 15.0745 1.15152 14.8494C0.926477 14.6244 0.800049 14.3192 0.800049 14.0009V2.00092C0.800049 1.68266 0.926477 1.37743 1.15152 1.15239C1.37656 0.927344 1.68179 0.800916 2.00005 0.800916H6.70325ZM3.20005 4.00092H6.40005V5.60092H3.20005V4.00092ZM8.80005 7.20092V8.80092H3.20005V7.20092H8.80005ZM3.20005 12.0009V10.4009H7.20005V12.0009H3.20005ZM12.8 4.00092H16V12.8009L14.4 16.0009L12.8 12.8009V4.00092Z" fill="#6D7175"/>
</g>
<defs>
<clipPath id="clip0_8325_32791">
<rect width="16" height="16" fill="white" transform="translate(0 0.000915527)"/>
</clipPath>
</defs>
</svg>
