<svg width="16" height="16" viewBox="0 0 16 16" fill="none" xmlns="http://www.w3.org/2000/svg">
<path d="M4.43808 13.985H8.80772C11.3606 13.985 12.9763 12.6372 12.9763 10.5697C12.9763 8.93752 11.8042 7.75716 10.0967 7.66501V7.59823C11.4859 7.40537 12.4324 6.3593 12.4324 5.02859C12.4324 3.1618 11.0092 2.01501 8.68236 2.01501H4.43772C3.54201 2.01501 3.02344 2.54252 3.02344 3.46323V12.5454C3.02344 13.4575 3.54237 13.9847 4.43772 13.9847L4.43808 13.985ZM5.78594 6.98716V3.98216H7.84487C9.01701 3.98216 9.71165 4.51787 9.71165 5.43859C9.71165 6.40966 8.94165 6.98716 7.63558 6.98716H5.78594ZM5.78594 12.0514V8.72823H7.88701C9.36022 8.72823 10.172 9.29751 10.172 10.3689C10.172 11.4654 9.38522 12.0511 7.94558 12.0511L5.78594 12.0514Z" fill="#6D7175"/>
</svg>
