<svg width="16" height="16" viewBox="0 0 16 16" fill="none" xmlns="http://www.w3.org/2000/svg">
<g clip-path="url(#clip0_16861_43743)">
<path d="M4 0C4.26522 0 4.51957 0.105357 4.70711 0.292893C4.89464 0.48043 5 0.734784 5 1V2H9V1C9 0.734784 9.10536 0.48043 9.29289 0.292893C9.48043 0.105357 9.73478 0 10 0C10.2652 0 10.5196 0.105357 10.7071 0.292893C10.8946 0.48043 11 0.734784 11 1V2H12C12.5304 2 13.0391 2.21071 13.4142 2.58579C13.7893 2.96086 14 3.46957 14 4V8.257C13.3594 8.0296 12.6755 7.95094 12 8.027V6H2V13H8.028C8.109 13.734 8.368 14.415 8.76 15H2C1.46957 15 0.960859 14.7893 0.585786 14.4142C0.210714 14.0391 0 13.5304 0 13V4C0 3.46957 0.210714 2.96086 0.585786 2.58579C0.960859 2.21071 1.46957 2 2 2H3V1C3 0.734784 3.10536 0.48043 3.29289 0.292893C3.48043 0.105357 3.73478 0 4 0Z" fill="#6D7175"/>
<path fill-rule="evenodd" clip-rule="evenodd" d="M12.5 16C10.57 16 9 14.43 9 12.5C9 10.57 10.57 9 12.5 9C14.43 9 16 10.57 16 12.5C16 14.43 14.43 16 12.5 16ZM12.5 10C12.3674 10 12.2402 10.0527 12.1464 10.1464C12.0527 10.2402 12 10.3674 12 10.5V12.82C12.0013 12.8992 12.0214 12.9769 12.0586 13.0468C12.0958 13.1167 12.149 13.1767 12.214 13.222L13.228 13.932C13.2817 13.972 13.3428 14.0008 13.4078 14.0168C13.4728 14.0327 13.5404 14.0354 13.6064 14.0248C13.6725 14.0141 13.7358 13.9903 13.7925 13.9548C13.8492 13.9192 13.8982 13.8726 13.9365 13.8178C13.9749 13.7629 14.0019 13.701 14.0159 13.6355C14.0298 13.57 14.0305 13.5024 14.0179 13.4367C14.0052 13.371 13.9795 13.3085 13.9423 13.2529C13.905 13.1973 13.857 13.1497 13.801 13.113L13 12.553V10.5C13 10.3674 12.9473 10.2402 12.8536 10.1464C12.7598 10.0527 12.6326 10 12.5 10Z" fill="#6D7175"/>
</g>
<defs>
<clipPath id="clip0_16861_43743">
<rect width="16" height="16" fill="white"/>
</clipPath>
</defs>
</svg>
