<svg width="16" height="16" viewBox="0 0 16 16" fill="none" xmlns="http://www.w3.org/2000/svg">
<path fill-rule="evenodd" clip-rule="evenodd" d="M9.41425 8.00104L13.7072 3.70804C14.0982 3.31704 14.0982 2.68504 13.7072 2.29404C13.3162 1.90304 12.6842 1.90304 12.2933 2.29404L8.00025 6.58704L3.70725 2.29404C3.31625 1.90304 2.68425 1.90304 2.29325 2.29404C1.90225 2.68504 1.90225 3.31704 2.29325 3.70804L6.58625 8.00104L2.29325 12.294C1.90225 12.685 1.90225 13.317 2.29325 13.708C2.48825 13.903 2.74425 14.001 3.00025 14.001C3.25625 14.001 3.51225 13.903 3.70725 13.708L8.00025 9.41504L12.2933 13.708C12.4882 13.903 12.7443 14.001 13.0002 14.001C13.2562 14.001 13.5122 13.903 13.7072 13.708C14.0982 13.317 14.0982 12.685 13.7072 12.294L9.41425 8.00104Z" fill="#6D7175"/>
</svg>
