<svg width="16" height="16" viewBox="0 0 16 16" fill="none" xmlns="http://www.w3.org/2000/svg">
<path fill-rule="evenodd" clip-rule="evenodd" d="M8 16.0009C3.5888 16.0009 0 12.4121 0 8.00092C0 3.58972 3.5888 0.000915527 8 0.000915527C12.4112 0.000915527 16 3.58972 16 8.00092C16 12.4121 12.4112 16.0009 8 16.0009ZM8.8 4.00092C8.8 3.55909 8.44183 3.20092 8 3.20092C7.55817 3.20092 7.2 3.55909 7.2 4.00092V4.1374C6.2677 4.46675 5.6 5.35562 5.6 6.40092C5.6 7.21167 5.88783 7.81679 6.42 8.21592C6.85221 8.54007 7.39179 8.67411 7.75309 8.76387L7.80597 8.77703C8.24608 8.88706 8.47385 8.9563 8.62 9.06592C8.68783 9.11679 8.8 9.21167 8.8 9.60092C8.8 10.0387 8.44921 10.3938 8.01309 10.4008C8.00626 10.4003 7.99355 10.399 7.97564 10.3965C7.93017 10.39 7.85249 10.3751 7.75298 10.342C7.55675 10.2766 7.26796 10.1375 6.96569 9.83523C6.65327 9.52281 6.14673 9.52281 5.83431 9.83523C5.5219 10.1476 5.5219 10.6542 5.83431 10.9666C6.31292 11.4452 6.80398 11.7049 7.2 11.8438V12.0009C7.2 12.4427 7.55817 12.8009 8 12.8009C8.44183 12.8009 8.8 12.4427 8.8 12.0009V11.8644C9.7323 11.5351 10.4 10.6462 10.4 9.60092C10.4 8.79016 10.1122 8.18504 9.58 7.78592C9.14779 7.46176 8.60822 7.32772 8.24692 7.23797L8.19403 7.2248C7.75392 7.11477 7.52615 7.04553 7.38 6.93592C7.31217 6.88504 7.2 6.79016 7.2 6.40092C7.2 5.96312 7.55079 5.608 7.98691 5.60102C7.99374 5.60158 8.00645 5.60282 8.02436 5.60537C8.06983 5.61187 8.14751 5.62669 8.24702 5.65986C8.44325 5.72527 8.73205 5.86433 9.03432 6.1666C9.34674 6.47902 9.85327 6.47902 10.1657 6.1666C10.4781 5.85418 10.4781 5.34765 10.1657 5.03523C9.68708 4.55663 9.19602 4.29696 8.8 4.15805V4.00092Z" fill="#6D7175"/>
</svg>
