<svg width="16" height="16" viewBox="0 0 16 16" fill="none" xmlns="http://www.w3.org/2000/svg">
<g clip-path="url(#clip0_9644_38406)">
<path fill-rule="evenodd" clip-rule="evenodd" d="M14 8.00079C14 11.3145 11.3137 14.0008 8 14.0008C4.68629 14.0008 2 11.3145 2 8.00079C2 4.68709 4.68629 2.00079 8 2.00079C11.3137 2.00079 14 4.68709 14 8.00079ZM15.5 8.00079C15.5 12.1429 12.1421 15.5008 8 15.5008C3.85786 15.5008 0.5 12.1429 0.5 8.00079C0.5 3.85866 3.85786 0.500793 8 0.500793C12.1421 0.500793 15.5 3.85866 15.5 8.00079ZM4.25 8.00079C4.25 7.58658 4.58579 7.25079 5 7.25079H7.25V5.00079C7.25 4.58658 7.58579 4.25079 8 4.25079C8.41421 4.25079 8.75 4.58658 8.75 5.00079V7.25079H11C11.4142 7.25079 11.75 7.58658 11.75 8.00079C11.75 8.41501 11.4142 8.75079 11 8.75079H8.75V11.0008C8.75 11.415 8.41421 11.7508 8 11.7508C7.58579 11.7508 7.25 11.415 7.25 11.0008V8.75079H5C4.58579 8.75079 4.25 8.41501 4.25 8.00079Z" fill="#6D7175"/>
</g>
<defs>
<clipPath id="clip0_9644_38406">
<rect width="16" height="16" fill="white" transform="translate(0 0.000793457)"/>
</clipPath>
</defs>
</svg>
