<svg width="16" height="16" viewBox="0 0 16 16" fill="none" xmlns="http://www.w3.org/2000/svg">
<g clip-path="url(#clip0_8325_32811)">
<path d="M2.16564 7.76639C2.24007 7.69223 2.2991 7.60408 2.33933 7.50701C2.37956 7.40994 2.40019 7.30587 2.40004 7.20079V4.00079C2.40004 3.78862 2.48432 3.58514 2.63435 3.43511C2.78438 3.28508 2.98787 3.20079 3.20004 3.20079C3.41221 3.20079 3.6157 3.11651 3.76572 2.96648C3.91575 2.81645 4.00004 2.61297 4.00004 2.40079C4.00004 2.18862 3.91575 1.98514 3.76572 1.83511C3.6157 1.68508 3.41221 1.60079 3.20004 1.60079C1.87684 1.60079 0.800039 2.67759 0.800039 4.00079V6.86959L0.234439 7.43519C0.160082 7.50942 0.101092 7.59759 0.0608435 7.69464C0.0205949 7.79169 -0.00012207 7.89573 -0.00012207 8.00079C-0.00012207 8.10586 0.0205949 8.2099 0.0608435 8.30695C0.101092 8.404 0.160082 8.49216 0.234439 8.56639L0.800039 9.13199V12.0008C0.800039 13.324 1.87684 14.4008 3.20004 14.4008C3.41221 14.4008 3.6157 14.3165 3.76572 14.1665C3.91575 14.0165 4.00004 13.813 4.00004 13.6008C4.00004 13.3886 3.91575 13.1851 3.76572 13.0351C3.6157 12.8851 3.41221 12.8008 3.20004 12.8008C2.98787 12.8008 2.78438 12.7165 2.63435 12.5665C2.48432 12.4165 2.40004 12.213 2.40004 12.0008V8.80079C2.40019 8.69572 2.37956 8.59165 2.33933 8.49458C2.2991 8.39751 2.24007 8.30936 2.16564 8.23519L1.93124 8.00079L2.16564 7.76639ZM15.9392 7.69439C15.8989 7.59745 15.8399 7.50938 15.7656 7.43519L15.2 6.86959V4.00079C15.2 2.67759 14.1232 1.60079 12.8 1.60079C12.5879 1.60079 12.3844 1.68508 12.2344 1.83511C12.0843 1.98514 12 2.18862 12 2.40079C12 2.61297 12.0843 2.81645 12.2344 2.96648C12.3844 3.11651 12.5879 3.20079 12.8 3.20079C13.0122 3.20079 13.2157 3.28508 13.3657 3.43511C13.5158 3.58514 13.6 3.78862 13.6 4.00079V7.20079C13.5999 7.30586 13.6206 7.40992 13.6608 7.50698C13.701 7.60404 13.76 7.6922 13.8344 7.76639L14.0688 8.00079L13.8344 8.23519C13.76 8.30936 13.701 8.39751 13.6607 8.49458C13.6205 8.59165 13.5999 8.69572 13.6 8.80079V12.0008C13.6 12.213 13.5158 12.4165 13.3657 12.5665C13.2157 12.7165 13.0122 12.8008 12.8 12.8008C12.5879 12.8008 12.3844 12.8851 12.2344 13.0351C12.0843 13.1851 12 13.3886 12 13.6008C12 13.813 12.0843 14.0165 12.2344 14.1665C12.3844 14.3165 12.5879 14.4008 12.8 14.4008C14.1232 14.4008 15.2 13.324 15.2 12.0008V9.13199L15.7656 8.56639C15.8775 8.45446 15.9537 8.3119 15.9846 8.1567C16.0155 8.0015 15.9997 7.84063 15.9392 7.69439ZM10.1576 4.22799C10.0632 4.13597 9.9476 4.06866 9.82097 4.032C9.69433 3.99535 9.56062 3.9905 9.43166 4.01787C9.3027 4.04525 9.18249 4.104 9.08166 4.18894C8.98084 4.27387 8.90252 4.38236 8.85364 4.50479L5.65684 10.9048C5.61788 11.0024 5.59857 11.1068 5.60001 11.2119C5.60145 11.317 5.62362 11.4208 5.66523 11.5173C5.70685 11.6139 5.7671 11.7012 5.84253 11.7745C5.91797 11.8477 6.0071 11.9053 6.10484 11.944C6.30214 12.022 6.52226 12.019 6.71733 11.9355C6.91239 11.8521 7.06661 11.695 7.14644 11.4984L10.3424 5.09839C10.4017 4.95144 10.4158 4.79018 10.3831 4.63516C10.3503 4.48014 10.2721 4.33839 10.1584 4.22799H10.1576Z" fill="#6D7175"/>
</g>
<defs>
<clipPath id="clip0_8325_32811">
<rect width="16" height="16" fill="white" transform="translate(0 0.000793457)"/>
</clipPath>
</defs>
</svg>
