<svg width="16" height="16" viewBox="0 0 16 16" fill="none" xmlns="http://www.w3.org/2000/svg">
<g clip-path="url(#clip0_8325_32781)">
<path d="M5.55846 0.00158691C5.87366 0.00158691 6.17606 0.128787 6.40006 0.352787L7.58166 1.69679L4.67126 4.99279C4.22263 5.5103 3.97503 6.17188 3.97366 6.85679V14.4008H1.98966C1.83321 14.4006 1.67835 14.3694 1.53403 14.3089C1.38971 14.2485 1.2588 14.1601 1.14886 14.0488C0.925444 13.8231 0.800101 13.5184 0.800061 13.2008V5.29679C0.798742 5.0021 0.906123 4.71726 1.10166 4.49679L3.88566 1.29679L4.71766 0.352787C4.82776 0.241522 4.95883 0.153192 5.10329 0.0929098C5.24775 0.0326272 5.40273 0.00158767 5.55926 0.00158691H5.55846ZM11.2321 1.95279L14.8961 6.05679C15.0937 6.27679 15.2025 6.56159 15.2009 6.85679V14.8008C15.2009 15.12 15.0737 15.4248 14.8481 15.6504C14.6216 15.8754 14.3153 16.0017 13.9961 16.0016H6.76486C6.45245 15.9913 6.15621 15.8602 5.93846 15.636C5.72122 15.4123 5.59982 15.1126 5.60006 14.8008V6.89679C5.59908 6.60143 5.70801 6.31627 5.90566 6.09679L8.72486 2.89599L9.52886 1.95199C9.75516 1.72726 10.0611 1.60115 10.3801 1.60115C10.699 1.60115 11.005 1.72726 11.2313 1.95199L11.2321 1.95279ZM9.71206 6.59839C9.94387 6.75266 10.2219 6.82211 10.499 6.795C10.7761 6.76788 11.0354 6.64586 11.2329 6.44959C11.373 6.31019 11.4765 6.13826 11.534 5.94915C11.5916 5.76004 11.6014 5.55963 11.5627 5.36578C11.524 5.17194 11.4379 4.9907 11.312 4.83824C11.1862 4.68577 11.0246 4.56681 10.8417 4.49199C10.6215 4.40133 10.3796 4.37764 10.146 4.42389C9.9125 4.47014 9.69781 4.58427 9.52886 4.75199C9.40313 4.87735 9.30683 5.02909 9.24692 5.19623C9.18701 5.36337 9.16498 5.54173 9.18244 5.71842C9.19989 5.89511 9.25639 6.06571 9.34785 6.2179C9.4393 6.37008 9.56343 6.50004 9.71126 6.59839H9.71206Z" fill="#6D7175"/>
</g>
<defs>
<clipPath id="clip0_8325_32781">
<rect width="16" height="16" fill="white" transform="translate(0 0.000793457)"/>
</clipPath>
</defs>
</svg>
