<svg width="16" height="16" viewBox="0 0 16 16" fill="none" xmlns="http://www.w3.org/2000/svg">
<path d="M7.58231 4.21174L6.71057 3.33901C6.52448 3.15305 6.27214 3.04863 6.00907 3.04873C5.74599 3.04882 5.49372 3.15342 5.30776 3.33951C5.1218 3.5256 5.01739 3.77794 5.01748 4.04101C5.01757 4.30409 5.12217 4.55636 5.30826 4.74232L6.17999 5.61405L0.930734 10.8633C0.641826 11.1366 0.410632 11.465 0.250819 11.8291C0.0910065 12.1933 0.00581744 12.5858 0.000287675 12.9834C-0.00524209 13.3811 0.0689996 13.7758 0.218625 14.1442C0.368249 14.5127 0.590221 14.8474 0.871419 15.1286C1.15262 15.4098 1.48733 15.6318 1.85578 15.7814C2.22424 15.931 2.61894 16.0052 3.01658 15.9997C3.41422 15.9942 3.80671 15.909 4.17086 15.7492C4.535 15.5894 4.86342 15.3582 5.13669 15.0693L10.3859 9.82001L11.2577 10.6927C11.4438 10.8787 11.6961 10.9831 11.9592 10.983C12.2223 10.9829 12.4745 10.8783 12.6605 10.6922C12.8465 10.5061 12.9509 10.2538 12.9508 9.99073C12.9507 9.72765 12.8461 9.47539 12.66 9.28943L11.7883 8.41769L15.0541 5.1519C15.3464 4.87953 15.5808 4.55106 15.7434 4.1861C15.906 3.82115 15.9935 3.42718 16.0005 3.02769C16.0076 2.62821 15.9341 2.2314 15.7845 1.86094C15.6348 1.49047 15.4121 1.15394 15.1296 0.871419C14.8471 0.588898 14.5105 0.366175 14.1401 0.216538C13.7696 0.0669008 13.3728 -0.00658538 12.9733 0.000463026C12.5738 0.00751143 12.1798 0.0949501 11.8149 0.257563C11.4499 0.420176 11.1215 0.654631 10.8491 0.946943L7.58231 4.21174ZM7.58231 7.01637L8.98462 8.41868L3.73536 13.6679C3.54832 13.8486 3.29781 13.9486 3.03778 13.9463C2.77775 13.944 2.52901 13.8397 2.34513 13.6559C2.16125 13.472 2.05695 13.2232 2.05469 12.9632C2.05243 12.7032 2.1524 12.4527 2.33305 12.2656L7.58231 7.01637Z" fill="#6D7175"/>
</svg>
