<svg width="16" height="16" viewBox="0 0 16 16" fill="none" xmlns="http://www.w3.org/2000/svg">
<g clip-path="url(#clip0_11815_43990)">
<path d="M9.90718 7.13692C9.81517 7.17604 9.71671 7.19774 9.61678 7.20092C9.45921 7.1997 9.30543 7.15242 9.17438 7.06492C9.03792 6.98041 8.93306 6.85334 8.87598 6.70332C8.80662 6.56145 8.78421 6.40118 8.81198 6.24572C8.84078 6.08732 8.91598 5.94172 9.02878 5.82812L9.83438 5.02492C9.91971 4.94314 10.0219 4.88107 10.1339 4.84309C10.2458 4.80511 10.3647 4.79215 10.4822 4.80511C10.5996 4.81808 10.7128 4.85667 10.8138 4.91814C10.9147 4.97962 11.0009 5.06249 11.0664 5.16092C11.1679 5.31391 11.2138 5.49715 11.1963 5.67993C11.1788 5.86272 11.0991 6.03394 10.9704 6.16492L10.1648 6.96892C10.0889 7.03888 10.0018 7.09567 9.90718 7.13692ZM6.42398 3.00652C6.37413 3.21174 6.40744 3.42834 6.51665 3.60909C6.62586 3.78984 6.80211 3.92008 7.00696 3.9714C7.21182 4.02272 7.42865 3.99096 7.61018 3.88304C7.79171 3.77512 7.9232 3.5998 7.97598 3.39532L6.42398 3.00652ZM8.37598 1.79532C8.40236 1.69313 8.40825 1.58673 8.39333 1.48226C8.37841 1.37778 8.34296 1.27729 8.28903 1.18657C8.2351 1.09585 8.16375 1.0167 8.07909 0.953678C7.99444 0.890656 7.89815 0.845006 7.79577 0.81936C7.6934 0.793713 7.58696 0.788577 7.48259 0.804246C7.37823 0.819915 7.27799 0.856081 7.18766 0.910659C7.09733 0.965237 7.01869 1.03715 6.95627 1.12225C6.89386 1.20735 6.8489 1.30397 6.82398 1.40652L8.37598 1.79532ZM7.97598 3.39532L8.37598 1.79532L6.82398 1.40652L6.42398 3.00652L7.97598 3.39532ZM12.58 8.03212C12.4763 8.05855 12.3789 8.10551 12.2937 8.17024C12.2084 8.23497 12.1371 8.31614 12.0838 8.40895C12.0305 8.50176 11.9963 8.60432 11.9834 8.71056C11.9704 8.8168 11.9789 8.92455 12.0084 9.02745C12.0378 9.13034 12.0876 9.22628 12.1548 9.30959C12.222 9.3929 12.3052 9.46187 12.3995 9.51244C12.4939 9.563 12.5974 9.59413 12.704 9.60397C12.8105 9.61381 12.918 9.60216 13.02 9.56972L12.58 8.03212ZM14.6056 9.11612C14.7093 9.0897 14.8066 9.04273 14.8919 8.978C14.9771 8.91328 15.0485 8.83211 15.1018 8.7393C15.1551 8.64649 15.1892 8.54393 15.2022 8.43769C15.2151 8.33145 15.2066 8.22369 15.1772 8.1208C15.1477 8.0179 15.0979 7.92196 15.0308 7.83865C14.9636 7.75535 14.8803 7.68637 14.786 7.63581C14.6917 7.58524 14.5882 7.55412 14.4816 7.54428C14.375 7.53444 14.2676 7.54608 14.1656 7.57852L14.6056 9.11612ZM13.02 9.56972L14.6056 9.11612L14.1656 7.57852L12.58 8.03212L13.02 9.56972ZM3.61198 6.01532L0.145581 13.5025C0.00383232 13.8317 -0.0358346 14.1959 0.0317145 14.548C0.0992636 14.9 0.270919 15.2236 0.524461 15.477C0.778004 15.7304 1.10176 15.9018 1.45383 15.9691C1.80589 16.0364 2.17005 15.9965 2.49918 15.8545L9.99278 12.3841C10.1496 12.3055 10.2732 12.1735 10.3414 12.0119C10.4096 11.8503 10.4179 11.6697 10.3648 11.5025C10.3289 11.3911 10.2669 11.2899 10.184 11.2073L4.78958 5.81692C4.70697 5.73415 4.60583 5.67225 4.49453 5.63636C4.38323 5.60046 4.26498 5.59161 4.14958 5.61052C4.03424 5.63039 3.9253 5.67748 3.83181 5.74788C3.73831 5.81828 3.66295 5.90996 3.61198 6.01532Z" fill="#6D7175"/>
<path d="M1.44078 3.18491C1.52798 3.20251 1.59838 3.27291 1.61598 3.36011C1.65271 3.54095 1.75082 3.70354 1.8937 3.82033C2.03658 3.93711 2.21545 4.00091 2.39998 4.00091C2.58452 4.00091 2.76338 3.93711 2.90626 3.82033C3.04915 3.70354 3.14726 3.54095 3.18398 3.36011C3.19306 3.31693 3.21455 3.27735 3.24582 3.24622C3.27709 3.2151 3.31677 3.19378 3.35998 3.18491C3.54083 3.14818 3.70342 3.05007 3.8202 2.90719C3.93699 2.7643 4.00079 2.58544 4.00079 2.40091C4.00079 2.21637 3.93699 2.03751 3.8202 1.89462C3.70342 1.75174 3.54083 1.65363 3.35998 1.61691C3.31691 1.60789 3.2774 1.58651 3.24629 1.5554C3.21517 1.52428 3.1938 1.48478 3.18478 1.44171C3.14806 1.26086 3.04995 1.09827 2.90706 0.981485C2.76418 0.8647 2.58532 0.800903 2.40078 0.800903C2.21625 0.800903 2.03738 0.8647 1.8945 0.981485C1.75162 1.09827 1.65351 1.26086 1.61678 1.44171C1.60777 1.48478 1.58639 1.52428 1.55528 1.5554C1.52416 1.58651 1.48465 1.60789 1.44158 1.61691C1.26074 1.65363 1.09815 1.75174 0.981363 1.89462C0.864578 2.03751 0.800781 2.21637 0.800781 2.40091C0.800781 2.58544 0.864578 2.7643 0.981363 2.90719C1.09815 3.05007 1.26074 3.14818 1.44158 3.18491H1.44078ZM12.6408 3.18491C12.728 3.20251 12.7984 3.27291 12.816 3.36011C12.8527 3.54095 12.9508 3.70354 13.0937 3.82033C13.2366 3.93711 13.4154 4.00091 13.6 4.00091C13.7845 4.00091 13.9634 3.93711 14.1063 3.82033C14.2491 3.70354 14.3473 3.54095 14.384 3.36011C14.393 3.31704 14.4144 3.27753 14.4455 3.24641C14.4766 3.2153 14.5161 3.19392 14.5592 3.18491C14.74 3.14818 14.9026 3.05007 15.0194 2.90719C15.1362 2.7643 15.2 2.58544 15.2 2.40091C15.2 2.21637 15.1362 2.03751 15.0194 1.89462C14.9026 1.75174 14.74 1.65363 14.5592 1.61691C14.5161 1.60789 14.4766 1.58651 14.4455 1.5554C14.4144 1.52428 14.393 1.48478 14.384 1.44171C14.3473 1.26086 14.2491 1.09827 14.1063 0.981485C13.9634 0.8647 13.7845 0.800903 13.6 0.800903C13.4154 0.800903 13.2366 0.8647 13.0937 0.981485C12.9508 1.09827 12.8527 1.26086 12.816 1.44171C12.807 1.48478 12.7856 1.52428 12.7545 1.5554C12.7234 1.58651 12.6839 1.60789 12.6408 1.61691C12.4599 1.65363 12.2973 1.75174 12.1806 1.89462C12.0638 2.03751 12 2.21637 12 2.40091C12 2.58544 12.0638 2.7643 12.1806 2.90719C12.2973 3.05007 12.4599 3.14818 12.6408 3.18491ZM12.6408 14.3849C12.728 14.4025 12.7984 14.4729 12.816 14.5601C12.8527 14.741 12.9508 14.9035 13.0937 15.0203C13.2366 15.1371 13.4154 15.2009 13.6 15.2009C13.7845 15.2009 13.9634 15.1371 14.1063 15.0203C14.2491 14.9035 14.3473 14.741 14.384 14.5601C14.393 14.517 14.4144 14.4775 14.4455 14.4464C14.4766 14.4153 14.5161 14.3939 14.5592 14.3849C14.74 14.3482 14.9026 14.2501 15.0194 14.1072C15.1362 13.9643 15.2 13.7854 15.2 13.6009C15.2 13.4164 15.1362 13.2375 15.0194 13.0946C14.9026 12.9517 14.74 12.8536 14.5592 12.8169C14.5161 12.8079 14.4766 12.7865 14.4455 12.7554C14.4144 12.7243 14.393 12.6848 14.384 12.6417C14.3473 12.4609 14.2491 12.2983 14.1063 12.1815C13.9634 12.0647 13.7845 12.0009 13.6 12.0009C13.4154 12.0009 13.2366 12.0647 13.0937 12.1815C12.9508 12.2983 12.8527 12.4609 12.816 12.6417C12.807 12.6848 12.7856 12.7243 12.7545 12.7554C12.7234 12.7865 12.6839 12.8079 12.6408 12.8169C12.4599 12.8536 12.2973 12.9517 12.1806 13.0946C12.0638 13.2375 12 13.4164 12 13.6009C12 13.7854 12.0638 13.9643 12.1806 14.1072C12.2973 14.2501 12.4599 14.3482 12.6408 14.3849Z" fill="#6D7175"/>
</g>
<defs>
<clipPath id="clip0_11815_43990">
<rect width="16" height="16" fill="white" transform="translate(0 0.000915527)"/>
</clipPath>
</defs>
</svg>
