<svg width="16" height="16" viewBox="0 0 16 16" fill="none" xmlns="http://www.w3.org/2000/svg">
<g clip-path="url(#clip0_16165_43638)">
<path d="M11.1224 6.40079C11.1704 6.90399 11.2 7.43439 11.2 8.00079C11.2 8.21297 11.1157 8.41645 10.9657 8.56648C10.8157 8.71651 10.6122 8.80079 10.4 8.80079C10.1878 8.80079 9.98434 8.71651 9.83432 8.56648C9.68429 8.41645 9.6 8.21297 9.6 8.00079C9.6 7.43039 9.5688 6.89839 9.516 6.40079H6.4736C6.3624 7.46479 6.3616 8.53679 6.4704 9.60079H8C8.21217 9.60079 8.41566 9.68508 8.56569 9.83511C8.71571 9.98514 8.8 10.1886 8.8 10.4008C8.8 10.613 8.71571 10.8165 8.56569 10.9665C8.41566 11.1165 8.21217 11.2008 8 11.2008H6.7328C7.108 12.8648 7.6944 13.9288 8.0008 14.4008C8.0008 14.4008 8.632 14.4112 8.7416 14.4024C8.95286 14.3887 9.16103 14.4586 9.32118 14.5971C9.48133 14.7355 9.58061 14.9314 9.5976 15.1424C9.61302 15.3539 9.54381 15.5629 9.4052 15.7234C9.26659 15.8839 9.06991 15.9828 8.8584 15.9984C8.7832 16.004 8 16.0008 8 16.0008C3.5888 16.0008 0 12.412 0 8.00079C0 3.58879 3.5888 0.000793457 8 0.000793457C12.4112 0.000793457 16 3.58879 16 8.00079C16 8.30399 15.9712 8.59999 15.9368 8.89359C15.905 9.09837 15.7951 9.28286 15.6301 9.40828C15.4652 9.5337 15.258 9.59029 15.0522 9.56616C14.8464 9.54202 14.6579 9.43904 14.5265 9.27886C14.395 9.11868 14.3307 8.91377 14.3472 8.70719C14.3752 8.47439 14.4 8.24079 14.4 8.00079C14.4 7.44719 14.3216 6.91279 14.1896 6.40079H11.1224ZM7.9904 1.62959C7.6816 2.11439 7.1104 3.17439 6.7392 4.80079H9.2488C8.876 3.17439 8.3008 2.11439 7.9904 1.62959ZM1.8104 9.60079H4.8656C4.81565 9.06998 4.79029 8.53715 4.7896 8.00399C4.7896 7.46799 4.816 6.93359 4.8664 6.40079H1.8104C1.67258 6.92302 1.60188 7.46069 1.6 8.00079C1.602 8.54089 1.6727 9.07854 1.8104 9.60079ZM2.4656 11.2008C3.2556 12.5638 4.51883 13.589 6.0152 14.0816C5.59835 13.1602 5.29014 12.1934 5.0968 11.2008H2.4656ZM5.0984 4.80079C5.29172 3.80743 5.60049 2.84007 6.0184 1.91839C4.52054 2.41065 3.25602 3.43656 2.4656 4.80079H5.0984ZM10.8896 4.80079H13.5336C12.7399 3.43014 11.4678 2.40105 9.9616 1.91119C10.3835 2.83453 10.695 3.80444 10.8896 4.80079Z" fill="#6D7175"/>
<path d="M12.1784 15.1568L10.1384 10.6688C10.1047 10.5947 10.0945 10.5121 10.109 10.432C10.1236 10.3519 10.1622 10.2781 10.2198 10.2206C10.2773 10.163 10.3511 10.1244 10.4312 10.1098C10.5113 10.0953 10.5939 10.1055 10.668 10.1392L15.156 12.1792C15.2249 12.2104 15.2836 12.2605 15.3252 12.3236C15.3668 12.3868 15.3896 12.4605 15.391 12.5361C15.3925 12.6117 15.3724 12.6862 15.3332 12.7509C15.294 12.8156 15.2373 12.8678 15.1696 12.9016L13.776 13.5976C13.6987 13.6365 13.6361 13.6993 13.5976 13.7768L12.9008 15.1704C12.867 15.2381 12.8148 15.2948 12.7501 15.334C12.6854 15.3732 12.6109 15.3933 12.5353 15.3918C12.4597 15.3904 12.386 15.3676 12.3228 15.326C12.2597 15.2844 12.2096 15.2257 12.1784 15.1568Z" fill="#6D7175"/>
</g>
<defs>
<clipPath id="clip0_16165_43638">
<rect width="16" height="16" fill="white" transform="translate(0 0.000793457)"/>
</clipPath>
</defs>
</svg>
