<svg width="16" height="16" viewBox="0 0 16 16" fill="none" xmlns="http://www.w3.org/2000/svg">
<path fill-rule="evenodd" clip-rule="evenodd" d="M5.6 1.60001C4.7168 1.60001 4 2.31681 4 3.20001C4 4.08321 4.7168 4.80001 5.6 4.80001C6.4832 4.80001 7.2 4.08321 7.2 3.20001C7.2 2.31681 6.4832 1.60001 5.6 1.60001ZM5.6 6.40001C4.7168 6.40001 4 7.11681 4 8.00001C4 8.88321 4.7168 9.60001 5.6 9.60001C6.4832 9.60001 7.2 8.88321 7.2 8.00001C7.2 7.11681 6.4832 6.40001 5.6 6.40001ZM5.6 11.2C4.7168 11.2 4 11.9168 4 12.8C4 13.6832 4.7168 14.4 5.6 14.4C6.4832 14.4 7.2 13.6832 7.2 12.8C7.2 11.9168 6.4832 11.2 5.6 11.2ZM10.4 4.80001C11.2832 4.80001 12 4.08321 12 3.20001C12 2.31681 11.2832 1.60001 10.4 1.60001C9.5168 1.60001 8.8 2.31681 8.8 3.20001C8.8 4.08321 9.5168 4.80001 10.4 4.80001ZM10.4 6.40001C9.5168 6.40001 8.8 7.11681 8.8 8.00001C8.8 8.88321 9.5168 9.60001 10.4 9.60001C11.2832 9.60001 12 8.88321 12 8.00001C12 7.11681 11.2832 6.40001 10.4 6.40001ZM10.4 11.2C9.5168 11.2 8.8 11.9168 8.8 12.8C8.8 13.6832 9.5168 14.4 10.4 14.4C11.2832 14.4 12 13.6832 12 12.8C12 11.9168 11.2832 11.2 10.4 11.2Z" fill="#6D7175"/>
</svg>
