<svg width="16" height="16" viewBox="0 0 16 16" fill="none" xmlns="http://www.w3.org/2000/svg">
<path d="M11.1016 2.49919L13.5024 4.90079L13.9024 4.50079C14.0642 4.34402 14.1932 4.15662 14.2819 3.94951C14.3705 3.7424 14.4171 3.51971 14.4189 3.29442C14.4207 3.06913 14.3776 2.84574 14.2922 2.63725C14.2068 2.42877 14.0808 2.23935 13.9215 2.08005C13.7622 1.92074 13.5728 1.79472 13.3643 1.70932C13.1558 1.62393 12.9324 1.58087 12.7071 1.58265C12.4818 1.58443 12.2592 1.63102 12.0521 1.7197C11.8449 1.80838 11.6575 1.93738 11.5008 2.09919L11.1008 2.49919H11.1016ZM12.4 6.00079L9.99837 3.59919L2.37918 11.2192L1.59998 14.4L4.78078 13.6208L12.4 6.00079Z" fill="#6D7175"/>
</svg>
