<svg width="16" height="16" viewBox="0 0 16 16" fill="none" xmlns="http://www.w3.org/2000/svg">
<path d="M6.16238 10.9664C6.23693 10.8923 6.29609 10.8041 6.33645 10.7071C6.37682 10.61 6.39761 10.5059 6.39761 10.4008C6.39761 10.2957 6.37682 10.1916 6.33645 10.0945C6.29609 9.99744 6.23693 9.90931 6.16238 9.83519L5.12718 8.80079H10.3984C10.6106 8.80079 10.814 8.71651 10.9641 8.56648C11.1141 8.41645 11.1984 8.21296 11.1984 8.00079C11.1984 7.78862 11.1141 7.58513 10.9641 7.43511C10.814 7.28508 10.6106 7.20079 10.3984 7.20079H5.12718L6.16238 6.16639C6.23665 6.09206 6.29556 6.00383 6.33574 5.90674C6.37592 5.80964 6.39658 5.70559 6.39654 5.60051C6.3965 5.49543 6.37577 5.39139 6.33552 5.29432C6.29528 5.19725 6.23631 5.10907 6.16198 5.03479C6.08765 4.96052 5.99942 4.90161 5.90233 4.86143C5.80523 4.82125 5.70117 4.80059 5.5961 4.80063C5.49102 4.80067 5.38697 4.8214 5.28991 4.86165C5.19284 4.90189 5.10465 4.96086 5.03038 5.03519L2.62958 7.43519C2.56279 7.50442 2.50912 7.5852 2.47118 7.67359C2.46078 7.69519 2.45438 7.71679 2.44718 7.73919C2.42238 7.80844 2.40782 7.88094 2.40398 7.95439L2.40318 7.97599C2.39643 8.08446 2.41336 8.19311 2.45278 8.29439L2.45518 8.30399V8.30719C2.49358 8.39679 2.54878 8.47359 2.61278 8.54239L2.62078 8.55439L2.62878 8.56639L5.03038 10.9664C5.10468 11.0408 5.19291 11.0998 5.29003 11.14C5.38714 11.1803 5.49125 11.201 5.59638 11.201C5.70151 11.201 5.80561 11.1803 5.90273 11.14C5.99985 11.0998 6.08808 11.0408 6.16238 10.9664Z" fill="#6D7175"/>
<path d="M1.59998 13.2008C1.59998 13.5191 1.7264 13.8243 1.95145 14.0493C2.17649 14.2744 2.48172 14.4008 2.79998 14.4008H13.2C13.5182 14.4008 13.8235 14.2744 14.0485 14.0493C14.2735 13.8243 14.4 13.5191 14.4 13.2008V2.80079C14.4 2.48253 14.2735 2.17731 14.0485 1.95226C13.8235 1.72722 13.5182 1.60079 13.2 1.60079H2.79998C2.48172 1.60079 2.17649 1.72722 1.95145 1.95226C1.7264 2.17731 1.59998 2.48253 1.59998 2.80079V4.00079C1.59998 4.21297 1.68426 4.41645 1.83429 4.56648C1.98432 4.71651 2.1878 4.80079 2.39998 4.80079C2.61215 4.80079 2.81563 4.71651 2.96566 4.56648C3.11569 4.41645 3.19998 4.21297 3.19998 4.00079V3.20079H12.8V12.8008H3.19998V12.0008C3.19998 11.7886 3.11569 11.5851 2.96566 11.4351C2.81563 11.2851 2.61215 11.2008 2.39998 11.2008C2.1878 11.2008 1.98432 11.2851 1.83429 11.4351C1.68426 11.5851 1.59998 11.7886 1.59998 12.0008V13.2008Z" fill="#6D7175"/>
</svg>
