<svg width="16" height="16" viewBox="0 0 16 16" fill="none" xmlns="http://www.w3.org/2000/svg">
<g clip-path="url(#clip0_5116_16417)">
<path d="M14.0415 1.5591C13.9521 1.52155 13.854 1.50079 13.751 1.50079H9.25104C8.83682 1.50079 8.50104 1.83658 8.50104 2.25079C8.50104 2.66501 8.83682 3.00079 9.25104 3.00079H11.9404L6.14966 8.79154C5.85677 9.08444 5.85677 9.55931 6.14966 9.8522C6.44256 10.1451 6.91743 10.1451 7.21032 9.8522L13.0011 4.06147V6.75081C13.0011 7.16503 13.3368 7.50081 13.7511 7.50081C14.1653 7.50081 14.5011 7.16503 14.5011 6.75081V2.25362C14.5011 2.24415 14.5009 2.23469 14.5006 2.22523C14.4976 2.13606 14.4791 2.05083 14.4476 1.97219C14.411 1.88055 14.3556 1.79467 14.2814 1.72048C14.2104 1.64947 14.1287 1.59568 14.0415 1.5591Z" fill="#6D7175"/>
<path d="M4.8 2.50079C5.1866 2.50079 5.5 2.81419 5.5 3.20079C5.5 3.58739 5.1866 3.90079 4.8 3.90079H2.9V13.1008H12.1V10.2008C12.1 9.81419 12.4134 9.50079 12.8 9.50079C13.1866 9.50079 13.5 9.81419 13.5 10.2008V13.6675C13.5 14.1277 13.1269 14.5008 12.6667 14.5008H2.3C1.85817 14.5008 1.5 14.1426 1.5 13.7008V3.16746C1.5 2.79927 1.79848 2.50079 2.16667 2.50079H4.8Z" fill="#6D7175"/>
</g>
<defs>
<clipPath id="clip0_5116_16417">
<rect width="16" height="16" fill="white" transform="translate(0 0.000793457)"/>
</clipPath>
</defs>
</svg>
