<svg width="16" height="16" viewBox="0 0 16 16" fill="none" xmlns="http://www.w3.org/2000/svg">
<g clip-path="url(#clip0_8325_32778)">
<path d="M0.799988 2.0008V7.2008H15.2V2.0008C15.2 1.68254 15.0736 1.37731 14.8485 1.15227C14.6235 0.927225 14.3182 0.800797 14 0.800797H1.99999C1.68173 0.800797 1.3765 0.927225 1.15146 1.15227C0.926416 1.37731 0.799988 1.68254 0.799988 2.0008ZM1.59999 15.2008C1.38781 15.2008 1.18433 15.1165 1.0343 14.9665C0.884273 14.8165 0.799988 14.613 0.799988 14.4008V12.8008H2.39999V13.6008H3.19999V15.2008H1.59999ZM15.2 14.4008C15.2 14.613 15.1157 14.8165 14.9657 14.9665C14.8156 15.1165 14.6122 15.2008 14.4 15.2008H12.8V13.6008H13.6V12.8008H15.2V14.4008ZM0.799988 11.2008V8.8008H2.39999V11.2008H0.799988ZM13.6 8.8008V11.2008H15.2V8.8008H13.6ZM4.79999 13.6008H7.19999V15.2008H4.79999V13.6008ZM11.2 13.6008H8.79999V15.2008H11.2V13.6008Z" fill="#6D7175"/>
</g>
<defs>
<clipPath id="clip0_8325_32778">
<rect width="16" height="16" fill="white" transform="translate(0 0.000793457)"/>
</clipPath>
</defs>
</svg>
