<svg width="16" height="16" viewBox="0 0 16 16" fill="none" xmlns="http://www.w3.org/2000/svg">
<path fill-rule="evenodd" clip-rule="evenodd" d="M10.9656 7.43419C11.2784 7.74699 11.2784 8.25259 10.9656 8.56539L8.56558 10.9654C8.25278 11.2782 7.74718 11.2782 7.43438 10.9654L5.03438 8.56539C4.72158 8.25259 4.72158 7.74699 5.03438 7.43419C5.34718 7.12139 5.85278 7.12139 6.16558 7.43419L7.19998 8.46859V2.39979C7.19998 1.95819 7.55758 1.59979 7.99998 1.59979C8.44238 1.59979 8.79998 1.95819 8.79998 2.39979V8.46859L9.83438 7.43419C9.99038 7.27819 10.1952 7.19979 10.4 7.19979C10.6048 7.19979 10.8096 7.27819 10.9656 7.43419ZM13.6 14.4H2.39998C1.95758 14.4 1.59998 14.0416 1.59998 13.6C1.59998 13.1584 1.95758 12.8 2.39998 12.8H13.6C14.0424 12.8 14.4 13.1584 14.4 13.6C14.4 14.0416 14.0424 14.4 13.6 14.4Z" fill="#6D7175"/>
</svg>
