<svg width="16" height="16" viewBox="0 0 16 16" fill="none" xmlns="http://www.w3.org/2000/svg">
<rect opacity="0.01" y="0.000793457" width="16" height="16" fill="#6D7175"/>
<path fill-rule="evenodd" clip-rule="evenodd" d="M8 15.5008C12.1355 15.5008 15.5 12.1363 15.5 8.00079C15.5 3.86529 12.1355 0.500793 8 0.500793C3.8645 0.500794 0.5 3.86529 0.5 8.00079C0.5 12.1363 3.8645 15.5008 8 15.5008ZM8.75 11.0008C8.75 11.415 8.41421 11.7508 8 11.7508C7.58579 11.7508 7.25 11.415 7.25 11.0008V8.00079C7.25 7.58658 7.58579 7.25079 8 7.25079C8.41421 7.25079 8.75 7.58658 8.75 8.00079V11.0008ZM8 4.25079C7.58579 4.25079 7.25 4.58658 7.25 5.00079C7.25 5.41501 7.58579 5.75079 8 5.75079C8.41421 5.75079 8.75 5.41501 8.75 5.00079C8.75 4.58658 8.41421 4.25079 8 4.25079Z" fill="#6D7175"/>
</svg>
