<svg width="16" height="16" viewBox="0 0 16 16" fill="none" xmlns="http://www.w3.org/2000/svg">
<path d="M7.99788 5.66665C6.71276 5.66665 5.66374 6.71567 5.66374 8.00079C5.66374 9.28592 6.71276 10.3349 7.99788 10.3349C9.28301 10.3349 10.332 9.28592 10.332 8.00079C10.332 6.71567 9.28301 5.66665 7.99788 5.66665Z" fill="#6D7175"/>
<path d="M14.9993 8.00079C14.9993 7.03446 15.0083 6.07609 14.9535 5.11175C14.8997 3.991 14.6437 2.99677 13.8238 2.17688C13.0029 1.35599 12.0097 1.10196 10.8889 1.04716C9.92259 0.993369 8.96422 1.00134 7.99988 1.00134C7.03354 1.00134 6.07518 0.992373 5.11083 1.04716C3.99008 1.10096 2.99586 1.35699 2.17596 2.17688C1.35508 2.99777 1.10104 3.991 1.04625 5.11175C0.992453 6.07808 1.00042 7.03645 1.00042 8.00079C1.00042 8.96514 0.991457 9.92549 1.04625 10.8898C1.10005 12.0106 1.35607 13.0048 2.17596 13.8247C2.99685 14.6456 3.99008 14.8996 5.11083 14.9544C6.07717 15.0082 7.03553 15.0002 7.99988 15.0002C8.96621 15.0002 9.92458 15.0092 10.8889 14.9544C12.0097 14.9006 13.0049 14.6446 13.8238 13.8247C14.6447 13.0038 14.8987 12.0106 14.9535 10.8898C15.0093 9.9245 14.9993 8.96713 14.9993 8.00079ZM7.99788 11.5922C6.01042 11.5922 4.40651 9.98826 4.40651 8.00079C4.40651 6.01333 6.01042 4.40941 7.99788 4.40941C9.98535 4.40941 11.5893 6.01333 11.5893 8.00079C11.5899 8.4726 11.4975 8.93991 11.3172 9.37593C11.137 9.81195 10.8725 10.2081 10.5388 10.5417C10.2052 10.8754 9.80904 11.1399 9.37302 11.3201C8.937 11.5004 8.4697 11.5928 7.99788 11.5922ZM11.7367 5.10079C11.5142 5.10079 11.3009 5.01242 11.1436 4.85511C10.9863 4.6978 10.8979 4.48444 10.8979 4.26197C10.8979 4.0395 10.9863 3.82615 11.1436 3.66884C11.3009 3.51153 11.5142 3.42315 11.7367 3.42315C11.9592 3.42315 12.1725 3.51153 12.3298 3.66884C12.4871 3.82615 12.5755 4.0395 12.5755 4.26197C12.5755 4.48444 12.4871 4.6978 12.3298 4.85511C12.1725 5.01242 11.9592 5.10079 11.7367 5.10079Z" fill="#6D7175"/>
</svg>
