<svg width="16" height="16" viewBox="0 0 16 16" fill="none" xmlns="http://www.w3.org/2000/svg">
<g clip-path="url(#clip0_15772_43000)">
<path d="M3.29352 1.28071C3.48212 1.09855 3.73472 0.997759 3.99692 1.00004C4.25912 1.00232 4.50993 1.10749 4.69534 1.29289C4.88075 1.4783 4.98591 1.72911 4.98819 1.99131C4.99047 2.25351 4.88968 2.50611 4.70752 2.69471L3.41452 3.98771H9.00052C9.26574 3.98771 9.52009 4.09307 9.70763 4.28061C9.89516 4.46814 10.0005 4.7225 10.0005 4.98771C10.0005 5.25293 9.89516 5.50728 9.70763 5.69482C9.52009 5.88235 9.26574 5.98771 9.00052 5.98771H3.41452L4.70752 7.28071C4.88968 7.46931 4.99047 7.72192 4.98819 7.98411C4.98591 8.24631 4.88075 8.49712 4.69534 8.68253C4.50993 8.86794 4.25912 8.97311 3.99692 8.97539C3.73472 8.97766 3.48212 8.87687 3.29352 8.69471L0.293519 5.69471C0.106048 5.50718 0.000732422 5.25288 0.000732422 4.98771C0.000732422 4.72255 0.106048 4.46824 0.293519 4.28071L3.29352 1.28071ZM12.7075 7.28071C12.6153 7.1852 12.5049 7.10902 12.3829 7.05661C12.2609 7.0042 12.1297 6.97661 11.9969 6.97546C11.8641 6.97431 11.7325 6.99961 11.6096 7.04989C11.4867 7.10017 11.375 7.17442 11.2811 7.26832C11.1872 7.36221 11.113 7.47386 11.0627 7.59676C11.0124 7.71965 10.9871 7.85133 10.9883 7.98411C10.9894 8.11689 11.017 8.24811 11.0694 8.37012C11.1218 8.49212 11.198 8.60246 11.2935 8.69471L12.5865 9.98771H7.00052C6.7353 9.98771 6.48095 10.0931 6.29341 10.2806C6.10588 10.4681 6.00052 10.7225 6.00052 10.9877C6.00052 11.2529 6.10588 11.5073 6.29341 11.6948C6.48095 11.8824 6.7353 11.9877 7.00052 11.9877H12.5865L11.2935 13.2807C11.1114 13.4693 11.0106 13.7219 11.0128 13.9841C11.0151 14.2463 11.1203 14.4971 11.3057 14.6825C11.4911 14.8679 11.7419 14.9731 12.0041 14.9754C12.2663 14.9777 12.5189 14.8769 12.7075 14.6947L15.7075 11.6947C15.895 11.5072 16.0003 11.2529 16.0003 10.9877C16.0003 10.7225 15.895 10.4682 15.7075 10.2807L12.7075 7.28071Z" fill="#6D7175"/>
</g>
<defs>
<clipPath id="clip0_15772_43000">
<rect width="16" height="16" fill="white" transform="translate(0.000732422)"/>
</clipPath>
</defs>
</svg>
