<svg width="16" height="16" viewBox="0 0 16 16" fill="none" xmlns="http://www.w3.org/2000/svg">
<path d="M4.53447 16.0008C3.93844 16.0024 3.348 15.8858 2.79735 15.6577C2.24669 15.4295 1.74675 15.0945 1.32647 14.6718C0.477054 13.8207 0 12.6673 0 11.4648C0 10.2623 0.477054 9.10896 1.32647 8.25781L3.29247 6.29381C3.47998 6.10631 3.7343 6.00097 3.99947 6.00097C4.26465 6.00097 4.51897 6.10631 4.70647 6.29381C4.89398 6.48132 4.99932 6.73564 4.99932 7.00081C4.99932 7.26599 4.89398 7.52031 4.70647 7.70781L2.74047 9.67181C2.26599 10.1479 1.99957 10.7927 1.99957 11.4648C1.99957 12.137 2.26599 12.7817 2.74047 13.2578C3.70147 14.2168 5.37147 14.2158 6.32747 13.2578L8.29347 11.2938C8.38632 11.2009 8.49655 11.1272 8.61789 11.0769C8.73922 11.0266 8.86927 11.0007 9.00062 11.0006C9.13197 11.0006 9.26204 11.0264 9.38341 11.0766C9.50478 11.1268 9.61506 11.2005 9.70797 11.2933C9.80088 11.3862 9.8746 11.4964 9.92491 11.6177C9.97521 11.7391 10.0011 11.8691 10.0012 12.0005C10.0012 12.1318 9.9754 12.2619 9.92518 12.3832C9.87495 12.5046 9.80132 12.6149 9.70847 12.7078L7.74247 14.6718C7.32233 15.0946 6.82242 15.4298 6.27173 15.658C5.72104 15.8861 5.13054 16.0026 4.53447 16.0008ZM12.0015 10.0008C11.8035 10.0013 11.6099 9.94286 11.4452 9.83306C11.2804 9.72326 11.1521 9.56699 11.0763 9.38409C11.0005 9.20119 10.9808 8.99991 11.0197 8.80579C11.0585 8.61168 11.1542 8.43348 11.2945 8.29381L13.2605 6.32981C13.735 5.85372 14.0014 5.20897 14.0014 4.53681C14.0014 3.86466 13.735 3.21991 13.2605 2.74381C12.2995 1.78481 10.6295 1.78681 9.67347 2.74381L7.70747 4.70781C7.51997 4.89545 7.2656 5.00092 7.00033 5.00102C6.73506 5.00111 6.48061 4.89582 6.29297 4.70831C6.10533 4.52081 5.99987 4.26644 5.99977 4.00117C5.99968 3.7359 6.10497 3.48146 6.29247 3.29381L8.25847 1.32981C8.67862 0.906993 9.17853 0.571793 9.72922 0.343657C10.2799 0.11552 10.8704 -0.00101307 11.4665 0.000814627C12.6775 0.000814627 13.8175 0.472815 14.6745 1.32981C15.5236 2.18109 16.0005 3.33441 16.0005 4.53681C16.0005 5.73922 15.5236 6.89254 14.6745 7.74381L12.7085 9.70781C12.6157 9.80081 12.5055 9.87457 12.3842 9.92485C12.2629 9.97514 12.1328 10.0009 12.0015 10.0008ZM5.99947 11.0008C5.80151 11.0013 5.60788 10.9429 5.44316 10.8331C5.27844 10.7233 5.15005 10.567 5.0743 10.3841C4.99855 10.2012 4.97884 9.99991 5.01769 9.80579C5.05653 9.61168 5.15217 9.43348 5.29247 9.29381L9.29347 5.29381C9.38632 5.2009 9.49655 5.12719 9.61789 5.07688C9.73922 5.02658 9.86927 5.00066 10.0006 5.00061C10.132 5.00057 10.262 5.02639 10.3834 5.07661C10.5048 5.12683 10.6151 5.20047 10.708 5.29331C10.8009 5.38616 10.8746 5.49639 10.9249 5.61773C10.9752 5.73906 11.0011 5.86911 11.0012 6.00046C11.0012 6.13181 10.9754 6.26188 10.9252 6.38325C10.875 6.50462 10.8013 6.6149 10.7085 6.70781L6.70747 10.7078C6.61452 10.8008 6.50414 10.8745 6.38265 10.9248C6.26116 10.9751 6.13095 11.0009 5.99947 11.0008Z" fill="#6D7175"/>
</svg>
