<svg width="16" height="16" viewBox="0 0 16 16" fill="none" xmlns="http://www.w3.org/2000/svg">
<g clip-path="url(#clip0_7124_14752)">
<path d="M5.78322 0.939193C4.56337 1.32272 3.46372 2.01581 2.59149 2.95087C1.71926 3.88593 1.10422 5.03105 0.806325 6.27459C0.508433 7.51813 0.537862 8.81764 0.891742 10.0464C1.24562 11.2752 1.91188 12.3913 2.82554 13.2859C3.73921 14.1805 4.86911 14.8231 6.10507 15.151C7.34103 15.479 8.64087 15.481 9.87785 15.157C11.1148 14.833 12.2468 14.1939 13.1632 13.3022C14.0797 12.4105 14.7495 11.2965 15.1072 10.0688C15.1471 9.9418 15.1612 9.80813 15.1487 9.67561C15.1363 9.5431 15.0975 9.4144 15.0346 9.29707C14.9718 9.17975 14.8861 9.07615 14.7827 8.99235C14.6793 8.90855 14.5602 8.84624 14.4324 8.80907C14.3046 8.7719 14.1706 8.76062 14.0384 8.77589C13.9062 8.79115 13.7783 8.83266 13.6624 8.89798C13.5464 8.9633 13.4446 9.05112 13.363 9.15628C13.2815 9.26144 13.2217 9.38183 13.1872 9.51039C12.9259 10.4061 12.4371 11.2188 11.7682 11.8693C11.0994 12.5198 10.2734 12.9859 9.37083 13.2222C8.46825 13.4584 7.51984 13.4568 6.61806 13.2175C5.71627 12.9782 4.89189 12.5093 4.22526 11.8565C3.55862 11.2037 3.07249 10.3894 2.81425 9.49285C2.55601 8.5963 2.53446 7.64813 2.75172 6.74078C2.96897 5.83342 3.41761 4.99783 4.05391 4.31547C4.6902 3.6331 5.49244 3.12724 6.38242 2.84719C6.5077 2.8078 6.624 2.74411 6.72466 2.65977C6.82533 2.57543 6.9084 2.47209 6.96913 2.35564C7.02986 2.2392 7.06706 2.11193 7.07861 1.98111C7.09015 1.85029 7.07582 1.71847 7.03642 1.59319C6.99702 1.46791 6.93334 1.35162 6.849 1.25095C6.76466 1.15028 6.66131 1.06721 6.54487 1.00648C6.42842 0.945752 6.30116 0.908552 6.17034 0.897007C6.03952 0.885462 5.9077 0.899797 5.78242 0.939193H5.78322Z" fill="#6D7175"/>
</g>
<defs>
<clipPath id="clip0_7124_14752">
<rect width="16" height="16" fill="white" transform="translate(0 0.000793457)"/>
</clipPath>
</defs>
</svg>
