<svg width="16" height="16" viewBox="0 0 16 16" fill="none" xmlns="http://www.w3.org/2000/svg">
<g clip-path="url(#clip0_8325_32779)">
<path d="M0.800049 1.6008C0.800049 1.38862 0.884334 1.18514 1.03436 1.03511C1.18439 0.885082 1.38788 0.800797 1.60005 0.800797H3.20005V2.4008H2.40005V3.2008H0.800049V1.6008ZM15.2 1.6008C15.2 1.38862 15.1158 1.18514 14.9657 1.03511C14.8157 0.885082 14.6122 0.800797 14.4 0.800797H12.8V2.4008H13.6V3.2008H15.2V1.6008ZM1.60005 15.2008C1.38788 15.2008 1.18439 15.1165 1.03436 14.9665C0.884334 14.8165 0.800049 14.613 0.800049 14.4008V12.8008H2.40005V13.6008H3.20005V15.2008H1.60005ZM14.4 15.2008C14.6122 15.2008 14.8157 15.1165 14.9657 14.9665C15.1158 14.8165 15.2 14.613 15.2 14.4008V12.8008H13.6V13.6008H12.8V15.2008H14.4ZM4.80005 13.6008H7.20005V15.2008H4.80005V13.6008ZM8.80005 13.6008H11.2V15.2008H8.80005V13.6008ZM11.2 0.800797V2.4008H8.80005V0.800797H11.2ZM7.20005 0.800797V2.4008H4.80005V0.800797H7.20005ZM7.67845 5.0664C6.92651 4.73554 6.07612 4.70655 5.30339 4.98542C4.53066 5.2643 3.89478 5.82968 3.52743 6.56448C3.16008 7.29928 3.0894 8.14722 3.33003 8.9327C3.57065 9.71818 4.10415 10.381 4.82005 10.784L7.67845 5.0664ZM6.40005 11.2008H12.8L9.60005 4.8008L6.40005 11.2008Z" fill="#6D7175"/>
</g>
<defs>
<clipPath id="clip0_8325_32779">
<rect width="16" height="16" fill="white" transform="translate(0 0.000793457)"/>
</clipPath>
</defs>
</svg>
