<svg width="16" height="16" viewBox="0 0 16 16" fill="none" xmlns="http://www.w3.org/2000/svg">
<path d="M1.95432 0.000793783H14.0452C14.1659 0.000667758 14.2837 0.0370976 14.3832 0.105281C14.4827 0.173465 14.5592 0.270201 14.6026 0.382739L15.7962 3.47529C16.5565 5.44231 15.0944 7.55971 12.9842 7.55971C12.0603 7.55971 11.232 7.14077 10.6829 6.48191L10.5898 6.36256L10.4967 6.48311C10.2381 6.79502 9.91842 7.05086 9.55741 7.23495C9.19641 7.41904 8.80163 7.52752 8.39725 7.55374L8.2015 7.55971H7.79688C6.87424 7.55971 6.04829 7.14077 5.50163 6.48311L5.40734 6.36375L5.31424 6.48311C5.05467 6.79492 4.73435 7.05063 4.3728 7.2347C4.01124 7.41876 3.61601 7.52731 3.21116 7.55374L3.01422 7.55971C0.905169 7.55971 -0.555769 5.44231 0.203346 3.47649L1.39812 0.382739C1.44147 0.270391 1.51779 0.173787 1.61706 0.105619C1.71633 0.0374508 1.8339 0.000908809 1.95432 0.000793783Z" fill="#6D7175"/>
<path fill-rule="evenodd" clip-rule="evenodd" d="M3.01422 9.06556C2.25735 9.06556 1.58395 8.79287 1.06667 8.35236V15.0008C1.06667 15.5531 1.51438 16.0008 2.06667 16.0008H13.9333C14.4856 16.0008 14.9333 15.5531 14.9333 15.0008V8.35192C14.4157 8.79271 13.7417 9.06556 12.9842 9.06556C12.0603 9.06556 11.232 8.64662 10.6829 7.98776L10.5898 7.86841L10.4967 7.98896C10.2381 8.30087 9.91842 8.55671 9.55741 8.7408C9.19641 8.9249 8.80163 9.03337 8.39725 9.0596L8.2015 9.06556H7.79688C6.87424 9.06556 6.04829 8.64662 5.50163 7.98896L5.40734 7.8696L5.31424 7.98896C5.05467 8.30077 4.73435 8.55649 4.3728 8.74055C4.01124 8.92461 3.61601 9.03316 3.21116 9.0596L3.01422 9.06556ZM9.54778 9.70081C9.96199 9.70081 10.2978 10.0366 10.2978 10.4508V11.0058L11.2478 11.003C11.662 11.0018 11.9987 11.3366 12 11.7508C12.0012 12.165 11.6664 12.5018 11.2522 12.503L10.2978 12.5058V12.9508C10.2978 13.365 9.96199 13.7008 9.54778 13.7008C9.13356 13.7008 8.79778 13.365 8.79778 12.9508V12.5102L4.75222 12.5222C4.338 12.5234 4.00123 12.1886 4 11.7744C3.99878 11.3602 4.33357 11.0234 4.74778 11.0222L8.79778 11.0102V10.4508C8.79778 10.0366 9.13356 9.70081 9.54778 9.70081Z" fill="#6D7175"/>
</svg>
