<svg width="16" height="16" viewBox="0 0 16 16" fill="none" xmlns="http://www.w3.org/2000/svg">
<path d="M1.59998 2.8808C1.59998 2.54132 1.73483 2.21575 1.97488 1.9757C2.21493 1.73566 2.5405 1.6008 2.87998 1.6008H5.59998C5.81215 1.6008 6.01563 1.68508 6.16566 1.83511C6.31569 1.98514 6.39998 2.18863 6.39998 2.4008C6.39998 2.61297 6.31569 2.81646 6.16566 2.96649C6.01563 3.11651 5.81215 3.2008 5.59998 3.2008H3.19998V5.6008C3.19998 5.81297 3.11569 6.01646 2.96566 6.16648C2.81563 6.31651 2.61215 6.4008 2.39998 6.4008C2.1878 6.4008 1.98432 6.31651 1.83429 6.16648C1.68426 6.01646 1.59998 5.81297 1.59998 5.6008V2.8808ZM13.12 1.6008C13.4595 1.6008 13.785 1.73566 14.0251 1.9757C14.2651 2.21575 14.4 2.54132 14.4 2.8808V5.6008C14.4 5.81297 14.3157 6.01646 14.1657 6.16648C14.0156 6.31651 13.8121 6.4008 13.6 6.4008C13.3878 6.4008 13.1843 6.31651 13.0343 6.16648C12.8843 6.01646 12.8 5.81297 12.8 5.6008V3.2008H10.4C10.1878 3.2008 9.98432 3.11651 9.83429 2.96649C9.68426 2.81646 9.59998 2.61297 9.59998 2.4008C9.59998 2.18863 9.68426 1.98514 9.83429 1.83511C9.98432 1.68508 10.1878 1.6008 10.4 1.6008H13.12ZM13.12 14.4008H10.4C10.1878 14.4008 9.98432 14.3165 9.83429 14.1665C9.68426 14.0165 9.59998 13.813 9.59998 13.6008C9.59998 13.3886 9.68426 13.1851 9.83429 13.0351C9.98432 12.8851 10.1878 12.8008 10.4 12.8008H12.8V10.4008C12.8 10.1886 12.8843 9.98514 13.0343 9.83511C13.1843 9.68509 13.3878 9.6008 13.6 9.6008C13.8121 9.6008 14.0156 9.68509 14.1657 9.83511C14.3157 9.98514 14.4 10.1886 14.4 10.4008V13.1208C14.4 13.4603 14.2651 13.7858 14.0251 14.0259C13.785 14.2659 13.4595 14.4008 13.12 14.4008ZM2.87998 14.4008C2.5405 14.4008 2.21493 14.2659 1.97488 14.0259C1.73483 13.7858 1.59998 13.4603 1.59998 13.1208V10.4008C1.59998 10.1886 1.68426 9.98514 1.83429 9.83511C1.98432 9.68509 2.1878 9.6008 2.39998 9.6008C2.61215 9.6008 2.81563 9.68509 2.96566 9.83511C3.11569 9.98514 3.19998 10.1886 3.19998 10.4008V12.8008H5.59998C5.81215 12.8008 6.01563 12.8851 6.16566 13.0351C6.31569 13.1851 6.39998 13.3886 6.39998 13.6008C6.39998 13.813 6.31569 14.0165 6.16566 14.1665C6.01563 14.3165 5.81215 14.4008 5.59998 14.4008H2.87998Z" fill="#6D7175"/>
</svg>
