<svg width="16" height="16" viewBox="0 0 16 16" fill="none" xmlns="http://www.w3.org/2000/svg">
<g clip-path="url(#clip0_8785_39620)">
<path d="M13.3 3.60092C14.2941 3.60092 15.1 2.79503 15.1 1.80092C15.1 0.806803 14.2941 0.000915527 13.3 0.000915527C12.3059 0.000915527 11.5 0.806803 11.5 1.80092C11.5 2.79503 12.3059 3.60092 13.3 3.60092Z" fill="#6D7175"/>
<path fill-rule="evenodd" clip-rule="evenodd" d="M13.3 5.00092C13.9674 5.00092 14.5872 4.79657 15.1 4.44702V10.8509C15.1 11.2731 14.9417 11.6398 14.625 11.9509C14.3084 12.262 13.9389 12.4176 13.5167 12.4176H3.58335L0.916687 15.0842V2.48424C0.916687 2.06202 1.06946 1.69258 1.37502 1.37591C1.68058 1.05924 2.05002 0.900909 2.48335 0.900909H10.2283C10.1448 1.18641 10.1 1.48843 10.1 1.80092C10.1 3.56823 11.5327 5.00092 13.3 5.00092ZM4.90002 7.43424C5.13335 7.43424 5.3278 7.35647 5.48335 7.20091C5.63891 7.04535 5.71669 6.85091 5.71669 6.61758C5.71669 6.38424 5.63891 6.1898 5.48335 6.03424C5.3278 5.87869 5.13335 5.80091 4.90002 5.80091C4.66669 5.80091 4.47224 5.87869 4.31669 6.03424C4.16113 6.1898 4.08335 6.38424 4.08335 6.61758C4.08335 6.85091 4.16113 7.04535 4.31669 7.20091C4.47224 7.35647 4.66669 7.43424 4.90002 7.43424ZM8.05002 7.43424C8.28335 7.43424 8.4778 7.35647 8.63335 7.20091C8.78891 7.04535 8.86669 6.85091 8.86669 6.61758C8.86669 6.38424 8.78891 6.1898 8.63335 6.03424C8.4778 5.87869 8.28335 5.80091 8.05002 5.80091C7.81669 5.80091 7.62224 5.87869 7.46669 6.03424C7.31113 6.1898 7.23335 6.38424 7.23335 6.61758C7.23335 6.85091 7.31113 7.04535 7.46669 7.20091C7.62224 7.35647 7.81669 7.43424 8.05002 7.43424ZM11.0834 7.43424C11.3167 7.43424 11.5111 7.35647 11.6667 7.20091C11.8222 7.04535 11.9 6.85091 11.9 6.61758C11.9 6.38424 11.8222 6.1898 11.6667 6.03424C11.5111 5.87869 11.3167 5.80091 11.0834 5.80091C10.85 5.80091 10.6556 5.87869 10.5 6.03424C10.3445 6.1898 10.2667 6.38424 10.2667 6.61758C10.2667 6.85091 10.3445 7.04535 10.5 7.20091C10.6556 7.35647 10.85 7.43424 11.0834 7.43424Z" fill="#6D7175"/>
</g>
<defs>
<clipPath id="clip0_8785_39620">
<rect width="16" height="16" fill="white" transform="translate(0 0.000915527)"/>
</clipPath>
</defs>
</svg>
