<svg width="16" height="16" viewBox="0 0 16 16" fill="none" xmlns="http://www.w3.org/2000/svg">
<path d="M7.17585 2.00081C7.68753 2.00081 8.18404 2.10922 8.66537 2.32603C9.14669 2.54285 9.57599 2.83771 9.95324 3.21064C10.3305 3.58356 10.6319 4.01502 10.8574 4.50502C11.0828 4.99502 11.1956 5.51321 11.1956 6.05958V6.56693C11.1956 6.7664 11.1978 6.98104 11.2021 7.21087C11.2064 7.44069 11.2086 7.66834 11.2086 7.89383V8.50525C11.2086 8.75675 11.2346 8.95622 11.2867 9.10366C11.3387 9.25109 11.4514 9.32047 11.6249 9.3118C11.755 9.3118 11.9046 9.31397 12.0737 9.3183C12.2428 9.32264 12.3967 9.32481 12.5355 9.32481C12.761 9.32481 12.9063 9.38552 12.9713 9.50693C13.0363 9.62835 12.9908 9.78879 12.8347 9.98826C12.6786 10.1964 12.4943 10.4349 12.2818 10.7037C12.0694 10.9726 11.8504 11.2501 11.6249 11.5363C11.3994 11.8225 11.1782 12.1044 10.9614 12.3819C10.7446 12.6594 10.5495 12.9066 10.376 13.1234C10.2199 13.3229 10.0725 13.4248 9.93373 13.4291C9.79497 13.4334 9.64754 13.3446 9.49143 13.1624C9.33532 12.9716 9.15103 12.7483 8.93855 12.4925C8.72607 12.2366 8.50709 11.9699 8.2816 11.6924C8.05612 11.4149 7.83496 11.1417 7.61815 10.8729C7.40134 10.604 7.2062 10.3655 7.03275 10.1574C6.84195 9.93189 6.76824 9.74326 6.8116 9.59149C6.85496 9.43972 6.99372 9.36383 7.22788 9.36383C7.29727 9.36383 7.38182 9.36167 7.48156 9.35733C7.58129 9.35299 7.68753 9.34866 7.80027 9.34432C7.91302 9.33999 8.02143 9.33565 8.1255 9.33131C8.22957 9.32698 8.32063 9.32481 8.39868 9.32481C8.56346 9.32481 8.66537 9.27494 8.70439 9.17521C8.74342 9.07547 8.76293 8.93888 8.76293 8.76543C8.75426 8.37516 8.74992 7.9372 8.74992 7.45153V6.09861C8.74992 5.89914 8.70439 5.69967 8.61333 5.5002C8.52227 5.30073 8.40085 5.1186 8.24908 4.95382C8.09731 4.78905 7.92169 4.65462 7.72222 4.55055C7.52275 4.44648 7.31027 4.39444 7.08479 4.39444H6.17417C5.82726 4.39444 5.4912 4.39661 5.16598 4.40095C4.84076 4.40528 4.55673 4.40745 4.3139 4.40745H3.85859C3.66779 4.40745 3.50951 4.34891 3.38376 4.23183C3.25801 4.11475 3.16261 3.96732 3.09757 3.78953C3.03252 3.61174 3 3.41878 3 3.21064C3 3.00249 3.03035 2.80953 3.09106 2.63174C3.15177 2.45395 3.24066 2.30652 3.35774 2.18944C3.47482 2.07236 3.62009 2.01382 3.79354 2.01382H4.14478H4.7562C4.98169 2.01382 5.22235 2.01165 5.47819 2.00731C5.73403 2.00298 5.97903 2.00081 6.21319 2.00081H6.8116H7.17585Z" fill="#6D7175"/>
</svg>
