<svg width="16" height="16" viewBox="0 0 16 16" fill="none" xmlns="http://www.w3.org/2000/svg">
<path d="M6.66663 1.66746H2.33329C2.15663 1.66793 1.98733 1.73832 1.86241 1.86324C1.73748 1.98816 1.6671 2.15746 1.66663 2.33413V6.66746C1.66663 7.03368 1.96618 7.33413 2.33329 7.33413H7.33329V2.33413C7.33282 2.15746 7.26243 1.98816 7.13751 1.86324C7.01259 1.73832 6.84329 1.66793 6.66663 1.66746ZM13.6666 1.66746H9.33329C9.15663 1.66793 8.98733 1.73832 8.86241 1.86324C8.73748 1.98816 8.6671 2.15746 8.66663 2.33413V7.33413H13.6666C14.0328 7.33413 14.3333 7.03368 14.3333 6.66746V2.33413C14.3328 2.15746 14.2624 1.98816 14.1375 1.86324C14.0126 1.73832 13.8433 1.66793 13.6666 1.66746ZM1.66663 9.33413V13.6675C1.66663 14.0337 1.96618 14.3341 2.33329 14.3341H6.66663C7.03285 14.3341 7.33329 14.0337 7.33329 13.6675V8.66746H2.33329C2.15663 8.66793 1.98733 8.73832 1.86241 8.86324C1.73748 8.98816 1.6671 9.15746 1.66663 9.33413ZM13.6666 8.66746H8.66663V13.6675C8.66663 14.0337 8.96707 14.3341 9.33329 14.3341H13.6666C14.0328 14.3341 14.3333 14.0337 14.3333 13.6675V9.33413C14.3328 9.15746 14.2624 8.98816 14.1375 8.86324C14.0126 8.73832 13.8433 8.66793 13.6666 8.66746Z" fill="#6D7175"/>
</svg>
