<svg width="16" height="16" viewBox="0 0 16 16" fill="none" xmlns="http://www.w3.org/2000/svg">
<path d="M15.2 4.00093H8.79999V1.60093H12.9816C13.2872 1.60013 13.5704 1.73053 13.724 1.94413L15.2 4.00093ZM3.01839 1.60093H7.19999V4.00093H0.799988L2.27599 1.94413C2.42959 1.73053 2.71279 1.60013 3.01839 1.60093ZM0.799988 5.60093V14.0009C0.799988 14.3192 0.926416 14.6244 1.15146 14.8495C1.3765 15.0745 1.68173 15.2009 1.99999 15.2009H14C14.3182 15.2009 14.6235 15.0745 14.8485 14.8495C15.0736 14.6244 15.2 14.3192 15.2 14.0009V5.60093H0.799988ZM2.39999 7.20093H7.19999V10.4009H2.39999V7.20093Z" fill="#6D7175"/>
</svg>
