<svg width="16" height="16" viewBox="0 0 16 16" fill="none" xmlns="http://www.w3.org/2000/svg">
<g clip-path="url(#clip0_8325_32786)">
<path fill-rule="evenodd" clip-rule="evenodd" d="M8 16.0008C12.4184 16.0008 16 12.4192 16 8.00079C16 3.58239 12.4184 0.000793457 8 0.000793457C3.5816 0.000793457 0 3.58239 0 8.00079C0 12.4192 3.5816 16.0008 8 16.0008ZM6.4 5.49039V10.5112C6.40002 10.5812 6.41844 10.6501 6.45341 10.7107C6.48838 10.7714 6.53867 10.8219 6.59926 10.857C6.65985 10.8922 6.7286 10.9108 6.79865 10.9111C6.8687 10.9113 6.93758 10.8931 6.9984 10.8584L11.392 8.34799C11.4532 8.31299 11.504 8.26245 11.5394 8.20148C11.5747 8.14051 11.5934 8.07128 11.5934 8.00079C11.5934 7.93031 11.5747 7.86108 11.5394 7.80011C11.504 7.73914 11.4532 7.68859 11.392 7.65359L6.9984 5.14239C6.93752 5.10762 6.86856 5.08945 6.79845 5.08973C6.72833 5.09 6.65952 5.10869 6.59891 5.14394C6.5383 5.17919 6.48802 5.22975 6.45311 5.29056C6.4182 5.35136 6.39988 5.42028 6.4 5.49039Z" fill="#6D7175"/>
</g>
<defs>
<clipPath id="clip0_8325_32786">
<rect width="16" height="16" fill="white" transform="translate(0 0.000793457)"/>
</clipPath>
</defs>
</svg>
