<svg width="16" height="16" viewBox="0 0 16 16" fill="none" xmlns="http://www.w3.org/2000/svg">
<g clip-path="url(#clip0_16165_43631)">
<path d="M5.59998 4H9.59998V5.6H5.59998V4ZM9.59998 7.2H5.59998V8.8H9.59998V7.2Z" fill="#6D7175"/>
<path fill-rule="evenodd" clip-rule="evenodd" d="M12.8 13.6C12.8 14.2365 12.5471 14.847 12.0971 15.2971C11.647 15.7471 11.0365 16 10.4 16H2.4C1.76348 16 1.15303 15.7471 0.702944 15.2971C0.252856 14.847 0 14.2365 0 13.6L0 12.4C0 12.0817 0.126428 11.7765 0.351472 11.5515C0.576515 11.3264 0.88174 11.2 1.2 11.2H2.4V3.2C2.4 2.56348 2.65286 1.95303 3.10294 1.50295C3.55303 1.05286 4.16348 0.800003 4.8 0.800003H13.6C13.9152 0.800003 14.2273 0.862081 14.5184 0.982692C14.8096 1.1033 15.0742 1.28009 15.2971 1.50295C15.5199 1.72581 15.6967 1.99038 15.8173 2.28156C15.9379 2.57274 16 2.88483 16 3.2C16 3.51518 15.9379 3.82726 15.8173 4.11844C15.6967 4.40962 15.5199 4.6742 15.2971 4.89706C15.0742 5.11992 14.8096 5.2967 14.5184 5.41731C14.2273 5.53793 13.9152 5.6 13.6 5.6H12.8V13.6ZM4 3.2C4 2.98783 4.08429 2.78435 4.23431 2.63432C4.38434 2.48429 4.58783 2.4 4.8 2.4H11.336C11.248 2.6504 11.2 2.92 11.2 3.2V13.6C11.2 13.8122 11.1157 14.0157 10.9657 14.1657C10.8157 14.3157 10.6122 14.4 10.4 14.4C10.1878 14.4 9.98434 14.3157 9.83432 14.1657C9.68429 14.0157 9.6 13.8122 9.6 13.6V11.2H4V3.2ZM13.6 2.4C13.3878 2.4 13.1843 2.48429 13.0343 2.63432C12.8843 2.78435 12.8 2.98783 12.8 3.2V4H13.6C13.8122 4 14.0157 3.91572 14.1657 3.76569C14.3157 3.61566 14.4 3.41218 14.4 3.2C14.4 2.98783 14.3157 2.78435 14.1657 2.63432C14.0157 2.48429 13.8122 2.4 13.6 2.4ZM8 13.6C8 13.88 8.048 14.1496 8.136 14.4H2.4C2.18783 14.4 1.98434 14.3157 1.83431 14.1657C1.68429 14.0157 1.6 13.8122 1.6 13.6V12.8H8V13.6Z" fill="#6D7175"/>
</g>
<defs>
<clipPath id="clip0_16165_43631">
<rect width="16" height="16" fill="white"/>
</clipPath>
</defs>
</svg>
