<svg width="16" height="16" viewBox="0 0 16 16" fill="none" xmlns="http://www.w3.org/2000/svg">
<rect opacity="0.01" y="0.000793457" width="16" height="16" fill="#6D7175"/>
<path fill-rule="evenodd" clip-rule="evenodd" d="M0 8.00079C0 3.58279 3.582 0.000793457 8 0.000793457C12.418 0.000793457 16 3.58279 16 8.00079C16 12.4188 12.418 16.0008 8 16.0008C3.582 16.0008 0 12.4188 0 8.00079ZM8.90001 9.60232H7.19116V9.48951C7.1999 7.91705 7.58449 7.68675 8.29032 7.26408C8.36492 7.21941 8.4431 7.17259 8.5248 7.12181C9.10918 6.75477 9.55832 6.29113 9.55832 5.615C9.55832 4.85676 8.96429 4.36414 8.22537 4.36414C7.5444 4.36414 6.89974 4.68244 6.85627 5.59039H5.04297C5.09126 3.75517 6.54469 2.80079 8.23503 2.80079C10.0799 2.80079 11.3501 3.95846 11.3501 5.59085C11.3501 6.69681 10.7947 7.42125 9.90605 7.9525C9.83839 7.99401 9.775 8.03217 9.71564 8.06791C9.08435 8.44798 8.90884 8.55365 8.90001 9.48951V9.60232ZM9.03662 12.012C9.03179 12.6012 8.54401 13.0745 7.97412 13.0745C7.38492 13.0745 6.90679 12.6012 6.91162 12.012C6.90679 11.4325 7.38492 10.9592 7.97412 10.9592C8.54401 10.9592 9.03179 11.4325 9.03662 12.012Z" fill="#6D7175"/>
</svg>
