<svg width="16" height="16" viewBox="0 0 16 16" fill="none" xmlns="http://www.w3.org/2000/svg">
<g clip-path="url(#clip0_9286_38375)">
<path d="M13.2096 4.00079C11.4904 2.45359 10.0176 1.60079 8 1.60079C6.30261 1.60079 4.67475 2.27508 3.47451 3.47531C2.27428 4.67554 1.6 6.30341 1.6 8.00079C1.6 9.69818 2.27428 11.326 3.47451 12.5263C4.67475 13.7265 6.30261 14.4008 8 14.4008C8.21217 14.4008 8.41565 14.4851 8.56568 14.6351C8.71571 14.7851 8.8 14.9886 8.8 15.2008C8.8 15.413 8.71571 15.6165 8.56568 15.7665C8.41565 15.9165 8.21217 16.0008 8 16.0008C3.5816 16.0008 -1.90735e-06 12.4192 -1.90735e-06 8.00079C-1.90735e-06 3.58239 3.5816 0.000793457 8 0.000793457C10.6376 0.000793457 12.5152 1.19759 14.4 2.91839V0.800793C14.4 0.58862 14.4843 0.385137 14.6343 0.235108C14.7843 0.0850789 14.9878 0.000793457 15.2 0.000793457C15.4122 0.000793457 15.6157 0.0850789 15.7657 0.235108C15.9157 0.385137 16 0.58862 16 0.800793L16 4.80079C16.0002 4.90591 15.9797 5.01003 15.9395 5.10719C15.8994 5.20435 15.8405 5.29262 15.7662 5.36695C15.6918 5.44128 15.6036 5.5002 15.5064 5.54033C15.4092 5.58046 15.3051 5.601 15.2 5.60079L11.2 5.60079C10.9878 5.60079 10.7843 5.51651 10.6343 5.36648C10.4843 5.21645 10.4 5.01297 10.4 4.80079C10.4 4.58862 10.4843 4.38514 10.6343 4.23511C10.7843 4.08508 10.9878 4.00079 11.2 4.00079H13.2096Z" fill="#6D7175"/>
</g>
<defs>
<clipPath id="clip0_9286_38375">
<rect width="16" height="16" fill="white" transform="translate(0 0.000793457)"/>
</clipPath>
</defs>
</svg>
