<svg width="16" height="16" viewBox="0 0 16 16" fill="none" xmlns="http://www.w3.org/2000/svg">
<g clip-path="url(#clip0_9698_38956)">
<path fill-rule="evenodd" clip-rule="evenodd" d="M1.88005 0.800797C1.28358 0.800797 0.800049 1.28433 0.800049 1.8808V14.1208C0.800049 14.7173 1.28358 15.2008 1.88005 15.2008H14.12C14.7165 15.2008 15.2 14.7173 15.2 14.1208V1.8808C15.2 1.28433 14.7165 0.800797 14.12 0.800797H1.88005ZM2.64972 5.21079H5.34972V3.95079H2.64972V5.21079ZM9.03326 9.71655C9.64534 9.71655 10.2128 9.52591 10.6795 9.20063L12.6369 11.1581L13.3504 10.4446L11.3943 8.48847C11.7232 8.02007 11.9162 7.44943 11.9162 6.83369C11.9162 5.24151 10.6255 3.95079 9.03326 3.95079C7.44112 3.95079 6.15041 5.24151 6.15041 6.83369C6.15041 8.42583 7.44112 9.71655 9.03326 9.71655ZM9.03326 8.70759C10.0682 8.70759 10.9072 7.86861 10.9072 6.83369C10.9072 5.79877 10.0682 4.95981 9.03326 4.95981C7.99838 4.95981 7.15942 5.79877 7.15942 6.83369C7.15942 7.86861 7.99838 8.70759 9.03326 8.70759ZM5.34972 8.63079H2.64972V7.37079H5.34972V8.63079ZM2.64972 12.0508H8.94974V10.7908H2.64972V12.0508Z" fill="#6D7175"/>
</g>
<defs>
<clipPath id="clip0_9698_38956">
<rect width="16" height="16" fill="white" transform="translate(0 0.000793457)"/>
</clipPath>
</defs>
</svg>
