<svg width="16" height="17" viewBox="0 0 16 17" fill="none" xmlns="http://www.w3.org/2000/svg">
<path d="M1.6 6.40079C1.6 3.75359 3.7528 1.60079 6.4 1.60079C9.0472 1.60079 11.2 3.75359 11.2 6.40079C11.2 9.04799 9.0472 11.2008 6.4 11.2008C3.7528 11.2008 1.6 9.04799 1.6 6.40079ZM15.7656 14.6352L11.4496 10.3184C12.3247 9.20002 12.8001 7.82084 12.8 6.40079C12.8 2.87199 9.9288 0.000793457 6.4 0.000793457C2.8712 0.000793457 0 2.87199 0 6.40079C0 9.92959 2.8712 12.8008 6.4 12.8008C7.81996 12.8004 9.19898 12.325 10.3176 11.4504L14.6344 15.7664C14.746 15.879 14.8886 15.9559 15.044 15.9872C15.1994 16.0185 15.3606 16.0028 15.5071 15.9421C15.6536 15.8815 15.7787 15.7786 15.8665 15.6465C15.9543 15.5145 16.0007 15.3593 16 15.2008C16 14.9886 15.9156 14.7852 15.7656 14.6352Z" fill="#6D7175"/>
</svg>
