<svg width="16" height="16" viewBox="0 0 16 16" fill="none" xmlns="http://www.w3.org/2000/svg">
<path fill-rule="evenodd" clip-rule="evenodd" d="M1.2 1.20079C0.537259 1.20079 0 1.73805 0 2.40079V11.2008C0 11.8635 0.537258 12.4008 1.2 12.4008H1.6C1.6 13.7263 2.67452 14.8008 4 14.8008C5.32548 14.8008 6.4 13.7263 6.4 12.4008H9.6C9.6 13.7263 10.6745 14.8008 12 14.8008C13.3255 14.8008 14.4 13.7263 14.4 12.4008H14.8C15.4627 12.4008 16 11.8635 16 11.2008V8.51158C16 8.29409 15.9409 8.08069 15.829 7.89419L13.6025 4.1834C13.3856 3.82195 12.995 3.60079 12.5735 3.60079H10.4V2.40079C10.4 1.73805 9.86274 1.20079 9.2 1.20079H1.2ZM12 13.2008C11.5582 13.2008 11.2 12.8426 11.2 12.4008C11.2 11.959 11.5582 11.6008 12 11.6008C12.4418 11.6008 12.8 11.959 12.8 12.4008C12.8 12.8426 12.4418 13.2008 12 13.2008ZM3.2 12.4008C3.2 12.8426 3.55817 13.2008 4 13.2008C4.44183 13.2008 4.8 12.8426 4.8 12.4008C4.8 11.959 4.44183 11.6008 4 11.6008C3.55817 11.6008 3.2 11.959 3.2 12.4008ZM13.787 7.60079H10.4V5.20079H12.347L13.787 7.60079Z" fill="#6D7175"/>
</svg>
