<svg width="16" height="16" viewBox="0 0 16 16" fill="none" xmlns="http://www.w3.org/2000/svg">
<path d="M15.9308 7.72415C14.4861 4.80387 11.4736 2.77505 8 2.77505C4.52642 2.77505 1.51393 4.80387 0.0691643 7.72415C-0.0230548 7.90858 -0.0230548 8.12376 0.0691643 8.27746C1.51393 11.1977 4.52642 13.2266 8 13.2266C11.4736 13.2266 14.4861 11.1977 15.9308 8.27746C16.0231 8.09302 16.0231 7.90858 15.9308 7.72415ZM8 11.3822C6.12488 11.3822 4.61864 9.87593 4.61864 8.0008C4.61864 6.12568 6.12488 4.61944 8 4.61944C9.87512 4.61944 11.3814 6.12568 11.3814 8.0008C11.3814 9.87593 9.87512 11.3822 8 11.3822ZM8 5.84902C6.80115 5.84902 5.84822 6.80196 5.84822 8.0008C5.84822 9.19965 6.80115 10.1526 8 10.1526C9.19885 10.1526 10.1518 9.19965 10.1518 8.0008C10.1518 6.80196 9.19885 5.84902 8 5.84902Z" fill="#6D7175"/>
</svg>
