<svg width="16" height="16" viewBox="0 0 16 16" fill="none" xmlns="http://www.w3.org/2000/svg">
<g clip-path="url(#clip0_8325_32783)">
<path fill-rule="evenodd" clip-rule="evenodd" d="M0.799988 2.0008C0.799988 1.68254 0.926416 1.37731 1.15146 1.15227C1.3765 0.927225 1.68173 0.800797 1.99999 0.800797H14C14.3182 0.800797 14.6235 0.927225 14.8485 1.15227C15.0736 1.37731 15.2 1.68254 15.2 2.0008V11.6008C15.2 11.9191 15.0736 12.2243 14.8485 12.4493C14.6235 12.6744 14.3182 12.8008 14 12.8008H1.99999C1.68173 12.8008 1.3765 12.6744 1.15146 12.4493C0.926416 12.2243 0.799988 11.9191 0.799988 11.6008V2.0008ZM7.19999 4.0008C7.19999 4.42514 7.03142 4.83211 6.73136 5.13217C6.4313 5.43223 6.02433 5.6008 5.59999 5.6008C5.17564 5.6008 4.76867 5.43223 4.46862 5.13217C4.16856 4.83211 3.99999 4.42514 3.99999 4.0008C3.99999 3.57645 4.16856 3.16948 4.46862 2.86943C4.76867 2.56937 5.17564 2.4008 5.59999 2.4008C6.02433 2.4008 6.4313 2.56937 6.73136 2.86943C7.03142 3.16948 7.19999 3.57645 7.19999 4.0008ZM12.456 11.2008H3.54159C3.26079 11.2008 3.10319 10.9064 3.26719 10.6952L5.70399 8.1032C5.76966 8.03897 5.8575 8.00241 5.94935 8.00107C6.0412 7.99973 6.13007 8.03371 6.19759 8.096L7.31439 9.2808L9.41279 6.2208C9.44691 6.17622 9.49107 6.14032 9.54168 6.11602C9.59229 6.09173 9.64791 6.07971 9.70404 6.08096C9.76016 6.08221 9.8152 6.09668 9.86468 6.1232C9.91416 6.14972 9.95668 6.18755 9.98879 6.2336L12.7584 10.7208C12.8816 10.9384 12.7168 11.2008 12.4568 11.2008H12.456Z" fill="#6D7175"/>
<path d="M4.8 16.0008C5.01217 16.0008 5.21566 15.9165 5.36569 15.7665C5.51571 15.6164 5.6 15.413 5.6 15.2008C5.6 14.9886 5.51571 14.7851 5.36569 14.6351C5.21566 14.4851 5.01217 14.4008 4.8 14.4008C4.58783 14.4008 4.38434 14.4851 4.23431 14.6351C4.08429 14.7851 4 14.9886 4 15.2008C4 15.413 4.08429 15.6164 4.23431 15.7665C4.38434 15.9165 4.58783 16.0008 4.8 16.0008ZM8.8 15.2008C8.8 15.413 8.71571 15.6164 8.56569 15.7665C8.41566 15.9165 8.21217 16.0008 8 16.0008C7.78783 16.0008 7.58434 15.9165 7.43431 15.7665C7.28429 15.6164 7.2 15.413 7.2 15.2008C7.2 14.9886 7.28429 14.7851 7.43431 14.6351C7.58434 14.4851 7.78783 14.4008 8 14.4008C8.21217 14.4008 8.41566 14.4851 8.56569 14.6351C8.71571 14.7851 8.8 14.9886 8.8 15.2008ZM11.2 16.0008C11.4122 16.0008 11.6157 15.9165 11.7657 15.7665C11.9157 15.6164 12 15.413 12 15.2008C12 14.9886 11.9157 14.7851 11.7657 14.6351C11.6157 14.4851 11.4122 14.4008 11.2 14.4008C10.9878 14.4008 10.7843 14.4851 10.6343 14.6351C10.4843 14.7851 10.4 14.9886 10.4 15.2008C10.4 15.413 10.4843 15.6164 10.6343 15.7665C10.7843 15.9165 10.9878 16.0008 11.2 16.0008Z" fill="#6D7175"/>
</g>
<defs>
<clipPath id="clip0_8325_32783">
<rect width="16" height="16" fill="white" transform="translate(0 0.000793457)"/>
</clipPath>
</defs>
</svg>
