<svg width="16" height="16" viewBox="0 0 16 16" fill="none" xmlns="http://www.w3.org/2000/svg">
<g clip-path="url(#clip0_8319_32320)">
<path d="M14 0.800797H9.60005V5.6008H15.2V2.0008C15.2 1.68254 15.0736 1.37731 14.8486 1.15227C14.6235 0.927225 14.3183 0.800797 14 0.800797ZM15.2 7.2008H11.2V15.2008H14C14.3183 15.2008 14.6235 15.0744 14.8486 14.8493C15.0736 14.6243 15.2 14.3191 15.2 14.0008V7.2008ZM0.800049 7.2008H9.60005V15.2008H2.00005C1.68179 15.2008 1.37656 15.0744 1.15152 14.8493C0.926477 14.6243 0.800049 14.3191 0.800049 14.0008V7.2008ZM2.00005 0.800797C1.68179 0.800797 1.37656 0.927225 1.15152 1.15227C0.926477 1.37731 0.800049 1.68254 0.800049 2.0008V5.6008H9.60005V0.800797H2.00005Z" fill="#6D7175"/>
</g>
<defs>
<clipPath id="clip0_8319_32320">
<rect width="16" height="16" fill="white" transform="translate(0 0.000793457)"/>
</clipPath>
</defs>
</svg>
