<svg width="16" height="16" viewBox="0 0 16 16" fill="none" xmlns="http://www.w3.org/2000/svg">
<g clip-path="url(#clip0_8601_37286)">
<path fill-rule="evenodd" clip-rule="evenodd" d="M6.68001 7.25079L7.29201 8.99829C7.35765 9.18606 7.4952 9.34007 7.67439 9.42643C7.85358 9.51279 8.05974 9.52443 8.24751 9.45879C8.43529 9.39315 8.58929 9.2556 8.67565 9.07641C8.76201 8.89722 8.77365 8.69106 8.70801 8.50329L6.20676 1.35729C6.11909 1.10719 5.95588 0.890511 5.73969 0.737212C5.52351 0.583914 5.26503 0.501572 5.00001 0.501572C4.73499 0.501572 4.47652 0.583914 4.26033 0.737212C4.04415 0.890511 3.88094 1.10719 3.79326 1.35729L1.29201 8.50329C1.22637 8.69106 1.23801 8.89722 1.32437 9.07641C1.41073 9.2556 1.56474 9.39315 1.75251 9.45879C1.94029 9.52443 2.14645 9.51279 2.32564 9.42643C2.50483 9.34007 2.64237 9.18606 2.70801 8.99829L3.31926 7.25079H6.68076H6.68001ZM6.15501 5.75079L5.00001 2.45004L3.84501 5.75079H6.15501ZM12.125 4.25079C12.581 4.25079 13.01 4.36704 13.385 4.57179C13.4761 4.44044 13.6067 4.34165 13.7579 4.28986C13.9091 4.23806 14.0729 4.23597 14.2254 4.28389C14.3779 4.33181 14.511 4.42723 14.6054 4.55621C14.6998 4.68519 14.7505 4.84097 14.75 5.00079V8.75079C14.75 8.91036 14.699 9.06576 14.6046 9.19439C14.5101 9.32301 14.3771 9.41817 14.2249 9.46601C14.0727 9.51386 13.9091 9.5119 13.7581 9.46042C13.607 9.40895 13.4763 9.31064 13.385 9.17979C13.034 9.37142 12.6439 9.48032 12.2444 9.49817C11.8448 9.51603 11.4465 9.44236 11.0798 9.28281C10.7131 9.12326 10.3877 8.88203 10.1285 8.57754C9.86924 8.27306 9.68298 7.91336 9.58394 7.52591C9.48489 7.13846 9.47568 6.73351 9.55701 6.34196C9.63834 5.95041 9.80805 5.58262 10.0532 5.26666C10.2983 4.9507 10.6124 4.69493 10.9715 4.51887C11.3306 4.34281 11.7251 4.25112 12.125 4.25079ZM12.125 8.00079C12.4234 8.00079 12.7095 7.88226 12.9205 7.67128C13.1315 7.46031 13.25 7.17416 13.25 6.87579C13.25 6.57742 13.1315 6.29127 12.9205 6.08029C12.7095 5.86932 12.4234 5.75079 12.125 5.75079C11.8266 5.75079 11.5405 5.86932 11.3295 6.08029C11.1185 6.29127 11 6.57742 11 6.87579C11 7.17416 11.1185 7.46031 11.3295 7.67128C11.5405 7.88226 11.8266 8.00079 12.125 8.00079Z" fill="#6D7175"/>
<path d="M2 11.0008C1.80109 11.0008 1.61032 11.0798 1.46967 11.2205C1.32902 11.3611 1.25 11.5519 1.25 11.7508C1.25 11.9497 1.32902 12.1405 1.46967 12.2811C1.61032 12.4218 1.80109 12.5008 2 12.5008H14C14.1989 12.5008 14.3897 12.4218 14.5303 12.2811C14.671 12.1405 14.75 11.9497 14.75 11.7508C14.75 11.5519 14.671 11.3611 14.5303 11.2205C14.3897 11.0798 14.1989 11.0008 14 11.0008H2ZM2 14.0008C1.80109 14.0008 1.61032 14.0798 1.46967 14.2205C1.32902 14.3611 1.25 14.5519 1.25 14.7508C1.25 14.9497 1.32902 15.1405 1.46967 15.2811C1.61032 15.4218 1.80109 15.5008 2 15.5008H11C11.1989 15.5008 11.3897 15.4218 11.5303 15.2811C11.671 15.1405 11.75 14.9497 11.75 14.7508C11.75 14.5519 11.671 14.3611 11.5303 14.2205C11.3897 14.0798 11.1989 14.0008 11 14.0008H2Z" fill="#6D7175"/>
</g>
<defs>
<clipPath id="clip0_8601_37286">
<rect width="16" height="16" fill="white" transform="translate(0 0.000793457)"/>
</clipPath>
</defs>
</svg>
