<svg width="16" height="16" viewBox="0 0 16 16" fill="none" xmlns="http://www.w3.org/2000/svg">
<g clip-path="url(#clip0_8325_32787)">
<path fill-rule="evenodd" clip-rule="evenodd" d="M1.99999 0.800797C1.68173 0.800797 1.3765 0.927225 1.15146 1.15227C0.926416 1.37731 0.799988 1.68254 0.799988 2.0008V14.0008C0.799988 14.3191 0.926416 14.6243 1.15146 14.8493C1.3765 15.0744 1.68173 15.2008 1.99999 15.2008H14C14.3182 15.2008 14.6235 15.0744 14.8485 14.8493C15.0736 14.6243 15.2 14.3191 15.2 14.0008V2.0008C15.2 1.68254 15.0736 1.37731 14.8485 1.15227C14.6235 0.927225 14.3182 0.800797 14 0.800797H1.99999ZM12.8 4.0008H3.19999V5.6008H12.8V4.0008ZM3.19999 7.2008H12.8V8.8008H3.19999V7.2008ZM7.99999 10.4008H3.19999V12.0008H7.99999V10.4008Z" fill="#6D7175"/>
</g>
<defs>
<clipPath id="clip0_8325_32787">
<rect width="16" height="16" fill="white" transform="translate(0 0.000793457)"/>
</clipPath>
</defs>
</svg>
