<svg width="16" height="16" viewBox="0 0 16 16" fill="none" xmlns="http://www.w3.org/2000/svg">
<g clip-path="url(#clip0_8765_42094)">
<path fill-rule="evenodd" clip-rule="evenodd" d="M1.2 0.000915527C0.88174 0.000915527 0.576515 0.127344 0.351472 0.352387C0.126428 0.577431 0 0.882656 0 1.20092L0 4.40092C0 4.71918 0.126428 5.0244 0.351472 5.24944C0.576515 5.47449 0.88174 5.60092 1.2 5.60092H2.4V14.8009C2.4 15.1192 2.52643 15.4244 2.75147 15.6494C2.97652 15.8745 3.28174 16.0009 3.6 16.0009H6.4C6.61217 16.0009 6.81566 15.9166 6.96569 15.7666C7.11571 15.6166 7.2 15.4131 7.2 15.2009C7.2 14.9887 7.11571 14.7853 6.96569 14.6352C6.81566 14.4852 6.61217 14.4009 6.4 14.4009H4V5.60092H5.2C5.51826 5.60092 5.82348 5.47449 6.04853 5.24944C6.27357 5.0244 6.4 4.71918 6.4 4.40092V4.00092H12C12 4.21309 12.0843 4.41657 12.2343 4.5666C12.3843 4.71663 12.5878 4.80092 12.8 4.80092C13.0122 4.80092 13.2157 4.71663 13.3657 4.5666C13.5157 4.41657 13.6 4.21309 13.6 4.00092V3.60092C13.6 3.28266 13.4736 2.97743 13.2485 2.75239C13.0235 2.52734 12.7183 2.40092 12.4 2.40092H6.4V1.20092C6.4 0.882656 6.27357 0.577431 6.04853 0.352387C5.82348 0.127344 5.51826 0.000915527 5.2 0.000915527L1.2 0.000915527ZM1.6 1.60092V4.00092H4.8V1.60092H1.6Z" fill="#6D7175"/>
<path fill-rule="evenodd" clip-rule="evenodd" d="M7.20002 6.40091C6.98785 6.40091 6.78437 6.4852 6.63434 6.63522C6.48431 6.78525 6.40002 6.98874 6.40002 7.20091V11.2009C6.40007 11.4131 6.48439 11.6165 6.63442 11.7665L10.6344 15.7665C10.7844 15.9165 10.9879 16.0007 11.2 16.0007C11.4122 16.0007 11.6156 15.9165 11.7656 15.7665L15.7656 11.7665C15.9156 11.6165 15.9999 11.413 15.9999 11.2009C15.9999 10.9888 15.9156 10.7853 15.7656 10.6353L11.7656 6.63531C11.6156 6.48527 11.4122 6.40095 11.2 6.40091H7.20002ZM10.4 9.60091C10.4 9.81308 10.3157 10.0166 10.1657 10.1666C10.0157 10.3166 9.8122 10.4009 9.60002 10.4009C9.38785 10.4009 9.18437 10.3166 9.03434 10.1666C8.88431 10.0166 8.80002 9.81308 8.80002 9.60091C8.80002 9.38874 8.88431 9.18525 9.03434 9.03522C9.18437 8.8852 9.38785 8.80091 9.60002 8.80091C9.8122 8.80091 10.0157 8.8852 10.1657 9.03522C10.3157 9.18525 10.4 9.38874 10.4 9.60091Z" fill="#6D7175"/>
</g>
<defs>
<clipPath id="clip0_8765_42094">
<rect width="16" height="16" fill="white" transform="translate(0 0.000915527)"/>
</clipPath>
</defs>
</svg>
