<svg width="16" height="16" viewBox="0 0 16 16" fill="none" xmlns="http://www.w3.org/2000/svg">
<g clip-path="url(#clip0_5116_16493)">
<path d="M15 6.56048C13.6242 6.56377 12.2821 6.13471 11.1634 5.33392V10.9189C11.163 11.9533 10.8469 12.963 10.2572 13.8128C9.6675 14.6627 8.83241 15.3123 7.86359 15.6747C6.89476 16.0372 5.83837 16.0952 4.83568 15.841C3.83298 15.5869 2.93177 15.0327 2.25255 14.2525C1.57333 13.4724 1.14848 12.5034 1.0348 11.4753C0.921122 10.4472 1.12404 9.40882 1.61641 8.49912C2.10879 7.58942 2.86716 6.85172 3.79011 6.38466C4.71307 5.9176 5.75661 5.74344 6.78122 5.88548V8.69454C6.31236 8.54706 5.80888 8.55151 5.3427 8.70724C4.87651 8.86297 4.47146 9.16202 4.18537 9.56169C3.89928 9.96136 3.7468 10.4412 3.7497 10.9327C3.75259 11.4242 3.91072 11.9022 4.20149 12.2985C4.49226 12.6948 4.90082 12.989 5.3688 13.1393C5.83679 13.2895 6.34028 13.288 6.80737 13.135C7.27446 12.982 7.68127 12.6853 7.96969 12.2874C8.25812 11.8894 8.41342 11.4104 8.4134 10.9189V0.000793457H11.1634C11.1615 0.233025 11.181 0.464939 11.2215 0.693606C11.3171 1.20407 11.5158 1.68967 11.8054 2.12071C12.0951 2.55175 12.4697 2.91916 12.9062 3.20048C13.5273 3.61113 14.2554 3.83001 15 3.82986V6.56048Z" fill="#6D7175"/>
</g>
<defs>
<clipPath id="clip0_5116_16493">
<rect width="16" height="16" fill="white" transform="translate(0 0.000793457)"/>
</clipPath>
</defs>
</svg>
