<svg width="16" height="16" viewBox="0 0 16 16" fill="none" xmlns="http://www.w3.org/2000/svg">
<g clip-path="url(#clip0_12490_44527)">
<path d="M14.7312 1.26972C15.0311 1.56977 15.1997 1.97666 15.1997 2.40092C15.1997 2.82518 15.0311 3.23208 14.7312 3.53212L12.3312 5.93212L11.4392 6.82412L9.17679 4.56172L10.1624 3.57532L10.1744 3.56332L12.4688 1.26972C12.7688 0.969768 13.1757 0.801263 13.6 0.801263C14.0243 0.801263 14.4311 0.969768 14.7312 1.26972ZM7.95519 10.3089L5.72479 8.07932C5.06654 8.30057 4.35965 8.33397 3.68347 8.17578C3.00729 8.01759 2.38859 7.67406 1.8968 7.18377C1.40501 6.69348 1.05961 6.07582 0.899356 5.40013C0.739107 4.72443 0.770355 4.01744 0.989594 3.35852L3.00799 5.37612C3.23303 5.60109 3.5382 5.72747 3.85639 5.72747C4.17459 5.72747 4.47976 5.60109 4.70479 5.37612L5.37679 4.70412C5.60151 4.47912 5.72774 4.17412 5.72774 3.85612C5.72774 3.53812 5.60151 3.23312 5.37679 3.00812L3.35759 0.989722C4.01647 0.770684 4.72335 0.739591 5.39891 0.89993C6.07448 1.06027 6.69199 1.4057 7.18217 1.89745C7.67234 2.3892 8.01578 3.00783 8.17395 3.6839C8.33211 4.35998 8.29875 5.06675 8.07759 5.72492L10.3072 7.95452L14.712 12.3593C15.0241 12.6714 15.1994 13.0947 15.1994 13.5361C15.1994 13.9775 15.0241 14.4008 14.712 14.7129C14.3999 15.025 13.9766 15.2004 13.5352 15.2004C13.0938 15.2004 12.6705 15.025 12.3584 14.7129L7.95359 10.3081L7.95519 10.3089ZM6.82319 11.4401L4.19359 14.0697L0.799994 15.2009L1.93119 11.8065L4.56079 9.17772L6.82319 11.4401Z" fill="#6D7175"/>
</g>
<defs>
<clipPath id="clip0_12490_44527">
<rect width="16" height="16" fill="white" transform="translate(0 0.000915527)"/>
</clipPath>
</defs>
</svg>
