<svg width="16" height="16" viewBox="0 0 16 16" fill="none" xmlns="http://www.w3.org/2000/svg">
<g clip-path="url(#clip0_15353_45449)">
<path fill-rule="evenodd" clip-rule="evenodd" d="M7.19996 0.000915527C6.71996 0.000915527 6.31996 0.320916 6.07996 0.800916L1.59996 13.8409C1.55129 13.9965 1.45626 14.1335 1.32759 14.2336C1.19891 14.3337 1.04273 14.392 0.879956 14.4009C0.667783 14.4009 0.4643 14.4852 0.314271 14.6352C0.164242 14.7853 0.0799561 14.9887 0.0799561 15.2009C0.0799561 15.4131 0.164242 15.6166 0.314271 15.7666C0.4643 15.9166 0.667783 16.0009 0.879956 16.0009H4.07996C4.29213 16.0009 4.49561 15.9166 4.64564 15.7666C4.79567 15.6166 4.87996 15.4131 4.87996 15.2009C4.87996 14.9887 4.79567 14.7853 4.64564 14.6352C4.49561 14.4852 4.29213 14.4009 4.07996 14.4009C3.96681 14.3919 3.85687 14.359 3.75745 14.3042C3.65802 14.2495 3.57138 14.1742 3.50328 14.0834C3.43518 13.9926 3.38718 13.8884 3.36247 13.7776C3.33776 13.6668 3.3369 13.552 3.35996 13.4409L3.99996 11.2009H9.59996L10.32 13.4409C10.343 13.552 10.3422 13.6668 10.3174 13.7776C10.2927 13.8884 10.2447 13.9926 10.1766 14.0834C10.1085 14.1742 10.0219 14.2495 9.92247 14.3042C9.82304 14.359 9.7131 14.3919 9.59996 14.4009C9.38778 14.4009 9.1843 14.4852 9.03427 14.6352C8.88424 14.7853 8.79996 14.9887 8.79996 15.2009C8.79996 15.4131 8.88424 15.6166 9.03427 15.7666C9.1843 15.9166 9.38778 16.0009 9.59996 16.0009H15.2C15.4121 16.0009 15.6156 15.9166 15.7656 15.7666C15.9157 15.6166 16 15.4131 16 15.2009C16 14.9887 15.9157 14.7853 15.7656 14.6352C15.6156 14.4852 15.4121 14.4009 15.2 14.4009C15.0235 14.409 14.8493 14.3584 14.7046 14.2571C14.5599 14.1558 14.4528 14.0095 14.4 13.8409L9.99996 0.800916C9.75996 0.320916 9.35996 0.000915527 8.79996 0.000915527H7.19996ZM6.79996 3.44092L4.63996 9.60092H8.95996L6.79996 3.44092Z" fill="#6D7175"/>
</g>
<defs>
<clipPath id="clip0_15353_45449">
<rect width="16" height="16" fill="white" transform="translate(0 0.000915527)"/>
</clipPath>
</defs>
</svg>
