<svg width="16" height="16" viewBox="0 0 16 16" fill="none" xmlns="http://www.w3.org/2000/svg">
<path fill-rule="evenodd" clip-rule="evenodd" d="M9.33055 1.05193C8.59571 0.317082 7.40429 0.317083 6.66944 1.05193L1.05113 6.67024C0.316288 7.40508 0.31629 8.5965 1.05113 9.33135L6.66945 14.9497C7.40429 15.6845 8.59571 15.6845 9.33055 14.9497L14.9489 9.33135C15.6837 8.5965 15.6837 7.40508 14.9489 6.67024L9.33055 1.05193ZM7.24728 4.99009C7.24728 4.5744 7.58426 4.23742 7.99995 4.23742C8.41564 4.23742 8.75263 4.5744 8.75263 4.99009V8.00079C8.75263 8.41648 8.41564 8.75347 7.99995 8.75347C7.58426 8.75347 7.24728 8.41648 7.24728 8.00079V4.99009ZM8.75263 11.0115C8.75263 11.4272 8.41564 11.7642 7.99995 11.7642C7.58426 11.7642 7.24728 11.4272 7.24728 11.0115C7.24728 10.5958 7.58426 10.2588 7.99995 10.2588C8.41564 10.2588 8.75263 10.5958 8.75263 11.0115Z" fill="#6D7175"/>
</svg>
