<svg width="16" height="16" viewBox="0 0 16 16" fill="none" xmlns="http://www.w3.org/2000/svg">
<path d="M4.13333 10.3176L2.81667 9.01759C3.59444 8.23981 4.40833 7.6537 5.25833 7.25925C6.10833 6.86481 7.02222 6.66759 8 6.66759C8.97778 6.66759 9.89167 6.86203 10.7417 7.25092C11.5917 7.63981 12.4056 8.22314 13.1833 9.00092L11.8667 10.3176C11.1889 9.66203 10.5389 9.2037 9.91667 8.94259C9.29445 8.68148 8.65556 8.55092 8 8.55092C7.34444 8.55092 6.70556 8.68148 6.08333 8.94259C5.46111 9.2037 4.81111 9.66203 4.13333 10.3176ZM1.31667 7.50092L0 6.18425C1.03333 5.1287 2.23611 4.2787 3.60833 3.63425C4.98056 2.98981 6.44444 2.66759 8 2.66759C9.55556 2.66759 11.0194 2.98981 12.3917 3.63425C13.7639 4.2787 14.9667 5.1287 16 6.18425L14.6833 7.50092C13.7056 6.60092 12.6722 5.88425 11.5833 5.35092C10.4944 4.81759 9.3 4.55092 8 4.55092C6.7 4.55092 5.50556 4.81759 4.41667 5.35092C3.32778 5.88425 2.29444 6.60092 1.31667 7.50092ZM8 14.1843L10.4667 11.7009C10.1444 11.3787 9.775 11.1259 9.35833 10.9426C8.94167 10.7593 8.48889 10.6676 8 10.6676C7.51111 10.6676 7.05833 10.7593 6.64167 10.9426C6.225 11.1259 5.85556 11.3787 5.53333 11.7009L8 14.1843Z" fill="#6D7175"/>
</svg>
