<svg width="16" height="16" viewBox="0 0 16 16" fill="none" xmlns="http://www.w3.org/2000/svg">
<path d="M14.6833 7.50092C13.7056 6.60092 12.6722 5.88425 11.5833 5.35092C10.4944 4.81758 9.3 4.55092 8 4.55092C7.7 4.55092 7.41111 4.57314 7.13333 4.61758C6.85556 4.66203 6.63333 4.71203 6.46667 4.76758L4.86667 3.16758C5.35556 2.98981 5.85 2.86203 6.35 2.78425C6.85 2.70647 7.4 2.66758 8 2.66758C9.55556 2.66758 11.0139 2.98981 12.375 3.63425C13.7361 4.2787 14.9444 5.13425 16 6.20092L14.6833 7.50092ZM12.2667 9.91758C11.9111 9.57314 11.5861 9.29258 11.2917 9.07592C10.9972 8.85925 10.6222 8.65647 10.1667 8.46758L8.43333 6.73425C9.44444 6.78981 10.3222 7.01758 11.0667 7.41758C11.8111 7.81758 12.5167 8.34536 13.1833 9.00092L12.2667 9.91758ZM13.3 14.9843L6.95 8.65092C6.35 8.80647 5.825 9.03425 5.375 9.33425C4.925 9.63425 4.51667 9.96203 4.15 10.3176L2.81667 9.00092C3.20556 8.61203 3.6 8.26758 4 7.96758C4.4 7.66758 4.89444 7.39536 5.48333 7.15092L3.91667 5.60092C3.40556 5.86758 2.93889 6.15925 2.51667 6.47592C2.09444 6.79258 1.69444 7.13425 1.31667 7.50092L0 6.18425C0.366667 5.80647 0.772222 5.44258 1.21667 5.09258C1.66111 4.74258 2.09444 4.45092 2.51667 4.21758L1.01667 2.71758L1.86667 1.86758L14.1333 14.1343L13.3 14.9843ZM8 14.1843L5.53333 11.7009C5.85556 11.3787 6.225 11.1259 6.64167 10.9426C7.05833 10.7593 7.51111 10.6676 8 10.6676C8.48889 10.6676 8.94167 10.7593 9.35833 10.9426C9.775 11.1259 10.1444 11.3787 10.4667 11.7009L8 14.1843Z" fill="#6D7175"/>
</svg>
