<svg width="16" height="16" viewBox="0 0 16 16" fill="none" xmlns="http://www.w3.org/2000/svg">
<g clip-path="url(#clip0_10703_42431)">
<path d="M8.8 0.800798H13.6C14.0243 0.800798 14.4313 0.969369 14.7314 1.26943C15.0314 1.56949 15.2 1.97645 15.2 2.4008V7.2008C15.2 7.472 15.2 8.0008 14 8.0008H12.8C11.527 8.0008 10.3061 8.50651 9.40589 9.40669C8.50571 10.3069 8 11.5278 8 12.8008V14.4008C8 15.3368 7.272 15.372 6.4 15.0648C6.06242 14.9455 5.75594 14.752 5.5032 14.4984L1.5032 10.4984C1.28029 10.2755 1.10347 10.0109 0.982838 9.71973C0.862201 9.42852 0.80011 9.1164 0.80011 8.8012C0.80011 8.48599 0.862201 8.17387 0.982838 7.88266C1.10347 7.59146 1.28029 7.32686 1.5032 7.104L7.1032 1.504C7.32577 1.2808 7.59025 1.10378 7.88144 0.983105C8.17263 0.862427 8.48479 0.800472 8.8 0.800798ZM11.2 6.4008C11.6243 6.4008 12.0313 6.23223 12.3314 5.93217C12.6314 5.63211 12.8 5.22514 12.8 4.8008C12.8 4.37645 12.6314 3.96949 12.3314 3.66943C12.0313 3.36937 11.6243 3.2008 11.2 3.2008C10.7757 3.2008 10.3687 3.36937 10.0686 3.66943C9.76857 3.96949 9.6 4.37645 9.6 4.8008C9.6 5.22514 9.76857 5.63211 10.0686 5.93217C10.3687 6.23223 10.7757 6.4008 11.2 6.4008ZM15.2 12.0008C15.4122 12.0008 15.6157 12.0851 15.7657 12.2351C15.9157 12.3851 16 12.5886 16 12.8008C16 13.013 15.9157 13.2165 15.7657 13.3665C15.6157 13.5165 15.4122 13.6008 15.2 13.6008H13.6V15.2008C13.6 15.413 13.5157 15.6165 13.3657 15.7665C13.2157 15.9165 13.0122 16.0008 12.8 16.0008C12.5878 16.0008 12.3843 15.9165 12.2343 15.7665C12.0843 15.6165 12 15.413 12 15.2008V13.6008H10.4C10.1878 13.6008 9.98434 13.5165 9.83431 13.3665C9.68428 13.2165 9.6 13.013 9.6 12.8008C9.6 12.5886 9.68428 12.3851 9.83431 12.2351C9.98434 12.0851 10.1878 12.0008 10.4 12.0008H12V10.4008C12 10.1886 12.0843 9.98514 12.2343 9.83511C12.3843 9.68508 12.5878 9.6008 12.8 9.6008C13.0122 9.6008 13.2157 9.68508 13.3657 9.83511C13.5157 9.98514 13.6 10.1886 13.6 10.4008V12.0008H15.2Z" fill="#6D7175"/>
</g>
<defs>
<clipPath id="clip0_10703_42431">
<rect width="16" height="16" fill="white" transform="translate(0 0.000793457)"/>
</clipPath>
</defs>
</svg>
