<svg width="16" height="16" viewBox="0 0 16 16" fill="none" xmlns="http://www.w3.org/2000/svg">
<path d="M12.4 2.00092C12.0817 2.00092 11.7765 2.12734 11.5514 2.35239C11.3264 2.57743 11.2 2.88266 11.2 3.20092V12.8009C11.2 13.1192 11.3264 13.4244 11.5514 13.6494C11.7765 13.8745 12.0817 14.0009 12.4 14.0009H13.2C13.5182 14.0009 13.8235 13.8745 14.0485 13.6494C14.2735 13.4244 14.4 13.1192 14.4 12.8009V3.20092C14.4 2.88266 14.2735 2.57743 14.0485 2.35239C13.8235 2.12734 13.5182 2.00092 13.2 2.00092H12.4ZM6.39998 6.40092C6.39998 6.08266 6.5264 5.77743 6.75145 5.55239C6.97649 5.32734 7.28172 5.20092 7.59998 5.20092H8.39998C8.71824 5.20092 9.02346 5.32734 9.2485 5.55239C9.47355 5.77743 9.59998 6.08266 9.59998 6.40092V12.8009C9.59998 13.1192 9.47355 13.4244 9.2485 13.6494C9.02346 13.8745 8.71824 14.0009 8.39998 14.0009H7.59998C7.28172 14.0009 6.97649 13.8745 6.75145 13.6494C6.5264 13.4244 6.39998 13.1192 6.39998 12.8009V6.40092ZM1.59998 9.60092C1.59998 9.28266 1.7264 8.97743 1.95145 8.75239C2.17649 8.52734 2.48172 8.40092 2.79998 8.40092H3.59998C3.91824 8.40092 4.22346 8.52734 4.4485 8.75239C4.67355 8.97743 4.79998 9.28266 4.79998 9.60092V12.8009C4.79998 13.1192 4.67355 13.4244 4.4485 13.6494C4.22346 13.8745 3.91824 14.0009 3.59998 14.0009H2.79998C2.48172 14.0009 2.17649 13.8745 1.95145 13.6494C1.7264 13.4244 1.59998 13.1192 1.59998 12.8009V9.60092Z" fill="#6D7175"/>
</svg>
