<svg width="16" height="16" viewBox="0 0 16 16" fill="none" xmlns="http://www.w3.org/2000/svg">
<path d="M5 9.00079C5 8.73558 5.10536 8.48122 5.29289 8.29369C5.48043 8.10615 5.73478 8.00079 6 8.00079C6.26522 8.00079 6.51957 8.10615 6.70711 8.29369C6.89464 8.48122 7 8.73558 7 9.00079V14.0008C7 14.266 6.89464 14.5204 6.70711 14.7079C6.51957 14.8954 6.26522 15.0008 6 15.0008C5.73478 15.0008 5.48043 14.8954 5.29289 14.7079C5.10536 14.5204 5 14.266 5 14.0008V9.00079ZM9 4.00079C9 3.73558 9.10536 3.48122 9.29289 3.29369C9.48043 3.10615 9.73478 3.00079 10 3.00079C10.2652 3.00079 10.5196 3.10615 10.7071 3.29369C10.8946 3.48122 11 3.73558 11 4.00079V14.0008C11 14.266 10.8946 14.5204 10.7071 14.7079C10.5196 14.8954 10.2652 15.0008 10 15.0008C9.73478 15.0008 9.48043 14.8954 9.29289 14.7079C9.10536 14.5204 9 14.266 9 14.0008V4.00079ZM13 2.00079C13 1.73558 13.1054 1.48122 13.2929 1.29369C13.4804 1.10615 13.7348 1.00079 14 1.00079C14.2652 1.00079 14.5196 1.10615 14.7071 1.29369C14.8946 1.48122 15 1.73558 15 2.00079V14.0008C15 14.266 14.8946 14.5204 14.7071 14.7079C14.5196 14.8954 14.2652 15.0008 14 15.0008C13.7348 15.0008 13.4804 14.8954 13.2929 14.7079C13.1054 14.5204 13 14.266 13 14.0008V2.00079ZM1 6.00079C1 5.73558 1.10536 5.48122 1.29289 5.29369C1.48043 5.10615 1.73478 5.00079 2 5.00079C2.26522 5.00079 2.51957 5.10615 2.70711 5.29369C2.89464 5.48122 3 5.73558 3 6.00079V14.0008C3 14.266 2.89464 14.5204 2.70711 14.7079C2.51957 14.8954 2.26522 15.0008 2 15.0008C1.73478 15.0008 1.48043 14.8954 1.29289 14.7079C1.10536 14.5204 1 14.266 1 14.0008V6.00079Z" fill="#6D7175"/>
</svg>
