<svg width="16" height="16" viewBox="0 0 16 16" fill="none" xmlns="http://www.w3.org/2000/svg">
<path d="M3 15.0009C2.46957 15.0009 1.96086 14.7902 1.58579 14.4151C1.21071 14.0401 1 13.5313 1 13.0009V9.00092H7V15.0009H3ZM9 15.0009V9.00092H15V13.0009C15 13.5313 14.7893 14.0401 14.4142 14.4151C14.0391 14.7902 13.5304 15.0009 13 15.0009H9ZM1 3.00092V7.00092H7V1.00092H3C2.46957 1.00092 1.96086 1.21163 1.58579 1.5867C1.21071 1.96177 1 2.47048 1 3.00092ZM9 4.00092C9 3.7357 9.10536 3.48135 9.29289 3.29381C9.48043 3.10627 9.73478 3.00092 10 3.00092H11V2.00092C11 1.7357 11.1054 1.48135 11.2929 1.29381C11.4804 1.10627 11.7348 1.00092 12 1.00092C12.2652 1.00092 12.5196 1.10627 12.7071 1.29381C12.8946 1.48135 13 1.7357 13 2.00092V3.00092H14C14.2652 3.00092 14.5196 3.10627 14.7071 3.29381C14.8946 3.48135 15 3.7357 15 4.00092C15 4.26613 14.8946 4.52049 14.7071 4.70802C14.5196 4.89556 14.2652 5.00092 14 5.00092H13V6.00092C13 6.26613 12.8946 6.52049 12.7071 6.70802C12.5196 6.89556 12.2652 7.00092 12 7.00092C11.7348 7.00092 11.4804 6.89556 11.2929 6.70802C11.1054 6.52049 11 6.26613 11 6.00092V5.00092H10C9.73478 5.00092 9.48043 4.89556 9.29289 4.70802C9.10536 4.52049 9 4.26613 9 4.00092Z" fill="#6D7175"/>
</svg>
