<svg width="16" height="16" viewBox="0 0 16 16" fill="none" xmlns="http://www.w3.org/2000/svg">
<path fill-rule="evenodd" clip-rule="evenodd" d="M4.592 2.02958C4.69492 1.83942 4.84731 1.68061 5.03305 1.56993C5.21879 1.45924 5.43098 1.4008 5.6472 1.40078H10.3312C10.5462 1.40067 10.7572 1.4583 10.9422 1.56765C11.1273 1.67699 11.2796 1.83404 11.3832 2.02238L11.8232 2.82238C11.8552 2.88158 11.8816 2.94078 11.9032 3.00078H14.8C15.1183 3.00078 15.4235 3.1272 15.6485 3.35225C15.8736 3.57729 16 3.88252 16 4.20078V13.4008C16 13.719 15.8736 14.0243 15.6485 14.2493C15.4235 14.4744 15.1183 14.6008 14.8 14.6008H1.2C0.88174 14.6008 0.576516 14.4744 0.351472 14.2493C0.126428 14.0243 0 13.719 0 13.4008V4.20078C0 3.88252 0.126428 3.57729 0.351472 3.35225C0.576516 3.1272 0.88174 3.00078 1.2 3.00078H4.0824C4.1024 2.94318 4.128 2.88558 4.1584 2.82958L4.592 2.02958ZM11.2 8.60077C11.2 9.44946 10.8629 10.2634 10.2627 10.8635C9.66263 11.4636 8.84869 11.8008 8 11.8008C7.15131 11.8008 6.33737 11.4636 5.73726 10.8635C5.13714 10.2634 4.8 9.44946 4.8 8.60077C4.8 7.75208 5.13714 6.93814 5.73726 6.33803C6.33737 5.73791 7.15131 5.40077 8 5.40077C8.84869 5.40077 9.66263 5.73791 10.2627 6.33803C10.8629 6.93814 11.2 7.75208 11.2 8.60077Z" fill="#6D7175"/>
</svg>
