<svg width="16" height="16" viewBox="0 0 16 16" fill="none" xmlns="http://www.w3.org/2000/svg">
<path d="M9.32546 8.00063L15.2251 2.10096C15.4009 1.92517 15.4997 1.68675 15.4997 1.43815C15.4997 1.18955 15.4009 0.951127 15.2251 0.775339C15.0493 0.59955 14.8109 0.500793 14.5623 0.500793C14.3137 0.500793 14.0753 0.59955 13.8995 0.775339L7.99984 6.67501L2.10017 0.775339C2.01312 0.688297 1.90979 0.619252 1.79607 0.572146C1.68234 0.525039 1.56045 0.500793 1.43736 0.500793C1.31426 0.500793 1.19237 0.525039 1.07865 0.572146C0.96492 0.619252 0.861587 0.688297 0.774545 0.775339C0.598757 0.951127 0.5 1.18955 0.5 1.43815C0.5 1.68675 0.598757 1.92517 0.774545 2.10096L6.67421 8.00063L0.774545 13.9003C0.598757 14.0761 0.5 14.3145 0.5 14.5631C0.5 14.8117 0.598757 15.0501 0.774545 15.2259C0.950333 15.4017 1.18875 15.5005 1.43736 15.5005C1.68596 15.5005 1.92438 15.4017 2.10017 15.2259L7.99984 9.32625L13.8995 15.2259C13.9864 15.3133 14.0896 15.3826 14.2034 15.4299C14.3171 15.4772 14.4391 15.5016 14.5623 15.5016C14.6855 15.5016 14.8075 15.4772 14.9212 15.4299C15.035 15.3826 15.1383 15.3133 15.2251 15.2259C15.3123 15.1389 15.3814 15.0356 15.4286 14.9219C15.4757 14.8081 15.5 14.6862 15.5 14.5631C15.5 14.44 15.4757 14.3181 15.4286 14.2043C15.3814 14.0906 15.3123 13.9873 15.2251 13.9003L9.32546 8.00063Z" fill="#6D7175"/>
</svg>
