<svg width="16" height="16" viewBox="0 0 16 16" fill="none" xmlns="http://www.w3.org/2000/svg">
<path fill-rule="evenodd" clip-rule="evenodd" d="M8 0.500916C3.8645 0.500916 0.5 3.86542 0.5 8.00092C0.5 9.29692 0.8375 10.5659 1.478 11.6939L0.57575 13.9747C0.23225 14.8814 1.12025 15.7694 2.027 15.4252L4.307 14.5222C5.43214 15.1635 6.7049 15.5008 8 15.5009C12.1355 15.5009 15.5 12.1364 15.5 8.00092C15.5 3.86542 12.1355 0.500916 8 0.500916ZM4.46975 7.47067C4.53924 7.40078 4.62186 7.34531 4.71286 7.30747C4.80386 7.26962 4.90144 7.25014 5 7.25014C5.09856 7.25014 5.19614 7.26962 5.28714 7.30747C5.37814 7.34531 5.46076 7.40078 5.53025 7.47067C5.60014 7.54016 5.6556 7.62278 5.69345 7.71378C5.73129 7.80478 5.75078 7.90236 5.75078 8.00092C5.75078 8.09947 5.73129 8.19705 5.69345 8.28805C5.6556 8.37906 5.60014 8.46168 5.53025 8.53117C5.46076 8.60105 5.37814 8.65652 5.28714 8.69436C5.19614 8.73221 5.09856 8.75169 5 8.75169C4.90144 8.75169 4.80386 8.73221 4.71286 8.69436C4.62186 8.65652 4.53924 8.60105 4.46975 8.53117C4.39986 8.46168 4.3444 8.37906 4.30655 8.28805C4.26871 8.19705 4.24922 8.09947 4.24922 8.00092C4.24922 7.90236 4.26871 7.80478 4.30655 7.71378C4.3444 7.62278 4.39986 7.54016 4.46975 7.47067ZM7.46975 7.47067C7.53924 7.40078 7.62186 7.34531 7.71286 7.30747C7.80386 7.26962 7.90144 7.25014 8 7.25014C8.09856 7.25014 8.19614 7.26962 8.28714 7.30747C8.37814 7.34531 8.46076 7.40078 8.53025 7.47067C8.60014 7.54016 8.6556 7.62278 8.69345 7.71378C8.73129 7.80478 8.75078 7.90236 8.75078 8.00092C8.75078 8.09947 8.73129 8.19705 8.69345 8.28805C8.6556 8.37906 8.60014 8.46168 8.53025 8.53117C8.38931 8.67122 8.19869 8.74983 8 8.74983C7.80131 8.74983 7.61069 8.67122 7.46975 8.53117C7.3297 8.39023 7.25109 8.19961 7.25109 8.00092C7.25109 7.80222 7.3297 7.6116 7.46975 7.47067ZM11 7.25092C10.9014 7.25062 10.8038 7.26981 10.7126 7.3074C10.6215 7.34499 10.5387 7.40022 10.469 7.46992C10.3993 7.53963 10.3441 7.62242 10.3065 7.71355C10.2689 7.80468 10.2497 7.90234 10.25 8.00092C10.2497 8.09949 10.2689 8.19715 10.3065 8.28828C10.3441 8.37941 10.3993 8.4622 10.469 8.53191C10.5387 8.60161 10.6215 8.65684 10.7126 8.69443C10.8038 8.73202 10.9014 8.75121 11 8.75092C11.0986 8.75121 11.1962 8.73202 11.2874 8.69443C11.3785 8.65684 11.4613 8.60161 11.531 8.53191C11.6007 8.4622 11.6559 8.37941 11.6935 8.28828C11.7311 8.19715 11.7503 8.09949 11.75 8.00092C11.7503 7.90234 11.7311 7.80468 11.6935 7.71355C11.6559 7.62242 11.6007 7.53963 11.531 7.46992C11.4613 7.40022 11.3785 7.34499 11.2874 7.3074C11.1962 7.26981 11.0986 7.25062 11 7.25092Z" fill="#6D7175"/>
</svg>
