<svg width="16" height="16" viewBox="0 0 16 16" fill="none" xmlns="http://www.w3.org/2000/svg">
<rect opacity="0.01" y="0.000793457" width="16" height="16" fill="#6D7175"/>
<path fill-rule="evenodd" clip-rule="evenodd" d="M0.5 8.00079C0.5 3.86529 3.8645 0.500793 8 0.500793C12.1355 0.500793 15.5 3.86529 15.5 8.00079C15.5 12.1363 12.1355 15.5008 8 15.5008C3.8645 15.5008 0.5 12.1363 0.5 8.00079ZM6.28033 5.22046C5.98744 4.92757 5.51256 4.92757 5.21967 5.22046C4.92678 5.51336 4.92678 5.98823 5.21967 6.28112L6.93934 8.00079L5.21967 9.72046C4.92678 10.0134 4.92678 10.4882 5.21967 10.7811C5.51256 11.074 5.98744 11.074 6.28033 10.7811L8 9.06145L9.71967 10.7811C10.0126 11.074 10.4874 11.074 10.7803 10.7811C11.0732 10.4882 11.0732 10.0134 10.7803 9.72046L9.06066 8.00079L10.7803 6.28112C11.0732 5.98823 11.0732 5.51336 10.7803 5.22046C10.4874 4.92757 10.0126 4.92757 9.71967 5.22046L8 6.94013L6.28033 5.22046Z" fill="#6D7175"/>
</svg>
