<svg width="16" height="16" viewBox="0 0 16 16" fill="none" xmlns="http://www.w3.org/2000/svg">
<path fill-rule="evenodd" clip-rule="evenodd" d="M12.5 12.5V13.5C12.5 14.6046 11.6046 15.5 10.5 15.5H2.5C1.39543 15.5 0.5 14.6046 0.5 13.5V5.5C0.5 4.39543 1.39543 3.5 2.5 3.5H3.5V2.5C3.5 1.39543 4.39543 0.5 5.5 0.5H13.5C14.6046 0.5 15.5 1.39543 15.5 2.5V10.5C15.5 11.6046 14.6046 12.5 13.5 12.5H12.5ZM13.5 1.9H5.5C5.16863 1.9 4.9 2.16863 4.9 2.5V3.5H10.5C11.6046 3.5 12.5 4.39543 12.5 5.5V11.1H13.5C13.8314 11.1 14.1 10.8314 14.1 10.5V2.5C14.1 2.16863 13.8314 1.9 13.5 1.9ZM2.5 4.9H10.5C10.8314 4.9 11.1 5.16863 11.1 5.5V13.5C11.1 13.8314 10.8314 14.1 10.5 14.1H2.5C2.16863 14.1 1.9 13.8314 1.9 13.5V5.5C1.9 5.16863 2.16863 4.9 2.5 4.9Z" fill="#6D7175"/>
</svg>
