<svg width="16" height="16" viewBox="0 0 16 16" fill="none" xmlns="http://www.w3.org/2000/svg">
<g clip-path="url(#clip0_11815_43989)">
<path fill-rule="evenodd" clip-rule="evenodd" d="M12.4 7.92123C10.412 7.92123 8.80005 9.53316 8.80005 11.5212C8.80005 13.5098 10.412 15.1212 12.4 15.1212C14.3881 15.1212 16 13.5098 16 11.5212C16 9.53316 14.3881 7.92123 12.4 7.92123ZM11.3682 9.85324C11.1925 9.67748 10.9076 9.67748 10.7319 9.85324C10.5561 10.0289 10.5561 10.3139 10.7319 10.4896L11.7636 11.5214L10.7319 12.5532C10.5561 12.7289 10.5561 13.0139 10.7319 13.1896C10.9076 13.3653 11.1925 13.3653 11.3682 13.1896L12.4 12.1578L13.4319 13.1896C13.6076 13.3653 13.8925 13.3653 14.0682 13.1896C14.244 13.0139 14.244 12.7289 14.0682 12.5532L13.0364 11.5214L14.0682 10.4896C14.244 10.3139 14.244 10.0289 14.0682 9.85324C13.8925 9.67748 13.6076 9.67748 13.4319 9.85324L12.4 10.885L11.3682 9.85324Z" fill="#6D7175"/>
<path d="M1.2 0.000915527C0.537258 0.000915527 0 0.538174 0 1.20092V2.40092H16V1.20092C16 0.538174 15.4627 0.000915527 14.8 0.000915527H1.2Z" fill="#6D7175"/>
<path fill-rule="evenodd" clip-rule="evenodd" d="M0 10.0009V4.00092H16V6.40092H11.2C8.99432 6.40092 7.2 8.1894 7.2 10.3905C7.2 10.8381 7.2 10.8009 7.2 11.2009H1.2C0.537258 11.2009 0 10.6636 0 10.0009ZM1.6 7.20092H5.6V5.60092H1.6V7.20092Z" fill="#6D7175"/>
</g>
<defs>
<clipPath id="clip0_11815_43989">
<rect width="16" height="16" fill="white" transform="translate(0 0.000915527)"/>
</clipPath>
</defs>
</svg>
