<svg width="16" height="16" viewBox="0 0 16 16" fill="none" xmlns="http://www.w3.org/2000/svg">
<path d="M14.25 1C13.8358 1 13.5 1.33579 13.5 1.75V14.25C13.5 14.6642 13.8358 15 14.25 15C14.6642 15 15 14.6642 15 14.25V1.75C15 1.33579 14.6642 1 14.25 1Z" fill="#6D7175"/>
<path d="M5.91667 4C5.50245 4 5.16667 4.33579 5.16667 4.75V14.25C5.16667 14.6642 5.50245 15 5.91667 15C6.33088 15 6.66667 14.6642 6.66667 14.25V4.75C6.66667 4.33579 6.33088 4 5.91667 4Z" fill="#6D7175"/>
<path d="M1.75 10C1.33579 10 1 10.3358 1 10.75V14.25C1 14.6642 1.33579 15 1.75 15C2.16421 15 2.5 14.6642 2.5 14.25V10.75C2.5 10.3358 2.16421 10 1.75 10Z" fill="#6D7175"/>
<path d="M9.33333 6.75C9.33333 6.33579 9.66912 6 10.0833 6C10.4975 6 10.8333 6.33579 10.8333 6.75V14.25C10.8333 14.6642 10.4975 15 10.0833 15C9.66912 15 9.33333 14.6642 9.33333 14.25V6.75Z" fill="#6D7175"/>
</svg>
