<svg width="16" height="16" viewBox="0 0 16 16" fill="none" xmlns="http://www.w3.org/2000/svg">
<g clip-path="url(#clip0_8325_32776)">
<path fill-rule="evenodd" clip-rule="evenodd" d="M11.2 3.20079H13.6C13.8121 3.20079 14.0156 3.28508 14.1657 3.43511C14.3157 3.58514 14.4 3.78862 14.4 4.00079V4.80079H1.59998V4.00079C1.59998 3.78862 1.68426 3.58514 1.83429 3.43511C1.98432 3.28508 2.1878 3.20079 2.39998 3.20079H4.79998V1.20079C4.79998 0.882534 4.9264 0.577309 5.15145 0.352265C5.37649 0.127222 5.68172 0.000793457 5.99998 0.000793457L9.99998 0.000793457C10.3182 0.000793457 10.6235 0.127222 10.8485 0.352265C11.0735 0.577309 11.2 0.882534 11.2 1.20079V3.20079ZM6.39998 1.60079V3.20079H9.59998V1.60079H6.39998ZM2.39998 6.40079H13.6V14.8008C13.6 15.1191 13.4735 15.4243 13.2485 15.6493C13.0235 15.8744 12.7182 16.0008 12.4 16.0008H3.59998C3.28172 16.0008 2.97649 15.8744 2.75145 15.6493C2.5264 15.4243 2.39998 15.1191 2.39998 14.8008V6.40079ZM5.59998 8.80079H3.99998V13.6008H5.59998V8.80079ZM8.79998 8.80079H7.19998V13.6008H8.79998V8.80079ZM10.4 8.80079H12V13.6008H10.4V8.80079Z" fill="#6D7175"/>
</g>
<defs>
<clipPath id="clip0_8325_32776">
<rect width="16" height="16" fill="white" transform="translate(0 0.000793457)"/>
</clipPath>
</defs>
</svg>
