<svg width="16" height="16" viewBox="0 0 16 16" fill="none" xmlns="http://www.w3.org/2000/svg">
<g clip-path="url(#clip0_5116_16438)">
<path fill-rule="evenodd" clip-rule="evenodd" d="M2.00005 0.800781C1.68179 0.800781 1.37656 0.927209 1.15152 1.15225C0.926477 1.3773 0.800049 1.68252 0.800049 2.00078V10.8008C0.800049 11.119 0.926477 11.4243 1.15152 11.6493C1.37656 11.8744 1.68179 12.0008 2.00005 12.0008H5.60005C5.60005 12.4208 5.58805 12.6352 5.48485 12.8432C5.38885 13.0344 5.15205 13.3312 4.44245 13.6856C4.28001 13.7669 4.15008 13.9011 4.07403 14.066C3.99797 14.231 3.98033 14.4169 4.02399 14.5933C4.06765 14.7696 4.17002 14.9258 4.31427 15.0362C4.45851 15.1466 4.63604 15.2047 4.81765 15.2008H11.1824C11.3655 15.2042 11.5441 15.145 11.6889 15.0329C11.8337 14.9209 11.9358 14.7628 11.9784 14.5848C12.0205 14.4066 12.0003 14.2194 11.9211 14.0543C11.8419 13.8892 11.7086 13.7563 11.5432 13.6776C10.8448 13.3264 10.6104 13.0328 10.5152 12.8432C10.4112 12.6352 10.4 12.4208 10.4 12.0008H14C14.3183 12.0008 14.6235 11.8744 14.8486 11.6493C15.0736 11.4243 15.2 11.119 15.2 10.8008V2.00078C15.2 1.68252 15.0736 1.3773 14.8486 1.15225C14.6235 0.927209 14.3183 0.800781 14 0.800781H2.00005ZM9.10645 13.6008C9.09909 13.5867 9.09189 13.5726 9.08485 13.5584C8.79925 12.9872 8.79925 12.4224 8.80005 12.0424V12.0008H7.20005V12.0424C7.20005 12.4224 7.20085 12.9872 6.91525 13.5584C6.90819 13.5726 6.90099 13.5867 6.89365 13.6008H9.10645ZM13.6 8.80078H2.40005V10.4008H13.6V8.80078Z" fill="#6D7175"/>
</g>
<defs>
<clipPath id="clip0_5116_16438">
<rect width="16" height="16" fill="white" transform="translate(0 0.000793457)"/>
</clipPath>
</defs>
</svg>
