<svg width="17" height="16" viewBox="0 0 17 16" fill="none" xmlns="http://www.w3.org/2000/svg">
<path fill-rule="evenodd" clip-rule="evenodd" d="M4.08543 13.954C4.5961 14.7357 5.49809 16.0008 6.97829 16.0008C7.26458 15.9983 7.54904 15.9547 7.82293 15.8713C8.17474 15.7497 8.50324 15.569 8.7943 15.337C8.97305 15.2026 9.16178 15.082 9.35886 14.9762C9.53001 15.0063 9.69191 15.0479 9.86143 15.0919C10.2034 15.1944 10.5575 15.2512 10.9145 15.2607L10.9741 15.2584C12.6188 15.2237 13.7681 13.9608 13.9994 11.951C14.0516 11.914 14.1039 11.877 14.1565 11.8377C15.0421 11.211 16.0459 10.4986 16.0024 8.96755C15.9807 8.20201 15.6645 7.71863 15.3583 7.25144C15.2352 7.06985 15.1224 6.88144 15.0206 6.68712C15.0507 6.5206 15.0912 6.3587 15.1337 6.18987C15.2413 5.82786 15.2984 5.45272 15.3032 5.07509C15.275 3.41681 13.9681 2.22803 11.9578 2.01294C11.3964 1.20577 10.4891 0.000793457 9.04871 0.000793457C8.75484 0.00265375 8.46298 0.049451 8.18326 0.139562C7.89426 0.256099 7.62303 0.41258 7.37748 0.604436C7.16337 0.778756 6.92084 0.91489 6.66051 1.00686C6.54842 0.992517 6.43866 0.963754 6.33394 0.921291C6.23479 0.882859 6.1329 0.851935 6.02911 0.828779C5.76574 0.774366 5.49758 0.746473 5.22865 0.745517C3.47415 0.745517 2.23888 2.04994 2.04715 4.08521C1.18216 4.64722 -0.485141 5.84295 0.135153 7.82502C0.266377 8.18225 0.452223 8.51696 0.686064 8.81721C0.812811 8.98768 0.927202 9.167 1.02836 9.35379C0.999218 9.52725 0.957125 9.68914 0.912719 9.85798C0.811156 10.1928 0.755373 10.5397 0.746891 10.8895C0.750591 12.5524 2.02518 13.7157 4.08543 13.954ZM7.19266 5.84794C7.19266 6.54235 6.62973 7.10527 5.93533 7.10527C5.24092 7.10527 4.67799 6.54235 4.67799 5.84794C4.67799 5.15353 5.24092 4.5906 5.93533 4.5906C6.62973 4.5906 7.19266 5.15353 7.19266 5.84794ZM5.39331 11.4884C5.26007 11.4886 5.12977 11.4492 5.01892 11.3753C4.90808 11.3013 4.82169 11.1961 4.77069 11.073C4.71969 10.9499 4.70638 10.8144 4.73245 10.6838C4.75851 10.5531 4.82278 10.4331 4.91711 10.339L10.3985 4.86225C10.5255 4.73915 10.6958 4.67093 10.8727 4.67231C11.0496 4.67369 11.2189 4.74456 11.344 4.86963C11.4691 4.9947 11.54 5.16393 11.5414 5.34082C11.5428 5.5177 11.4746 5.68806 11.3516 5.81512L5.87021 11.2918C5.80769 11.3546 5.73334 11.4042 5.65148 11.438C5.56961 11.4717 5.48186 11.4889 5.39331 11.4884ZM11.5246 10.3521C11.5246 11.0465 10.9617 11.6094 10.2673 11.6094C9.57285 11.6094 9.00992 11.0465 9.00992 10.3521C9.00992 9.65766 9.57285 9.09473 10.2673 9.09473C10.9617 9.09473 11.5246 9.65766 11.5246 10.3521Z" fill="#6D7175"/>
</svg>
