<svg width="16" height="16" viewBox="0 0 16 16" fill="none" xmlns="http://www.w3.org/2000/svg">
<path fill-rule="evenodd" clip-rule="evenodd" d="M2.5 2.00079C1.67163 2.00079 1 2.67236 1 3.50079V12.5008C1 13.3292 1.67163 14.0008 2.5 14.0008H13.5C14.3284 14.0008 15 13.3292 15 12.5008V3.50079C15 2.67236 14.3284 2.00079 13.5 2.00079H2.5ZM5.10303 7.09717C4.88293 6.87708 5.03882 6.50079 5.34998 6.50079H10.65C10.9612 6.50079 11.1171 6.87708 10.897 7.09717L8.24707 9.74713C8.16553 9.82861 8.05371 9.86145 7.94788 9.84558C7.87646 9.83484 7.80786 9.80206 7.75293 9.74713L5.10303 7.09717Z" fill="#6D7175"/>
</svg>
