<svg width="16" height="16" viewBox="0 0 16 16" fill="none" xmlns="http://www.w3.org/2000/svg">
<path d="M7.99998 6.40092C11.5346 6.40092 14.4 5.3264 14.4 4.00092C14.4 2.67544 11.5346 1.60092 7.99998 1.60092C4.46535 1.60092 1.59998 2.67544 1.59998 4.00092C1.59998 5.3264 4.46535 6.40092 7.99998 6.40092ZM13.5437 6.80092C12.4372 7.51828 10.3689 8.00092 7.99998 8.00092C5.63107 8.00092 3.56278 7.51828 2.45618 6.80092C1.91164 7.15393 1.59998 7.56378 1.59998 8.00092C1.59998 9.32644 4.46535 10.4009 7.99998 10.4009C11.5346 10.4009 14.4 9.32644 14.4 8.00092C14.4 7.56378 14.0883 7.15393 13.5437 6.80092ZM13.5437 10.8009C12.4372 11.5183 10.3689 12.0009 7.99998 12.0009C5.63107 12.0009 3.56278 11.5183 2.45618 10.8009C1.91164 11.154 1.59998 11.5638 1.59998 12.0009C1.59998 13.3264 4.46535 14.4009 7.99998 14.4009C11.5346 14.4009 14.4 13.3264 14.4 12.0009C14.4 11.5638 14.0883 11.154 13.5437 10.8009Z" fill="#6D7175"/>
</svg>
