<svg width="16" height="16" viewBox="0 0 16 16" fill="none" xmlns="http://www.w3.org/2000/svg">
<path fill-rule="evenodd" clip-rule="evenodd" d="M2.5 1.00079C1.67157 1.00079 1 1.67237 1 2.50079V13.5008C1 14.3292 1.67157 15.0008 2.5 15.0008H13.5C14.3284 15.0008 15 14.3292 15 13.5008V2.50079C15 1.67237 14.3284 1.00079 13.5 1.00079H2.5ZM11.6364 6.6372C11.9878 6.28572 11.9878 5.71588 11.6364 5.3644C11.2849 5.01293 10.7151 5.01293 10.3636 5.3644L6.99998 8.72801L5.63637 7.3644C5.2849 7.01293 4.71505 7.01293 4.36358 7.3644C4.01211 7.71588 4.01211 8.28572 4.36358 8.6372L6.36358 10.6372C6.71505 10.9887 7.2849 10.9887 7.63637 10.6372L11.6364 6.6372Z" fill="#6D7175"/>
</svg>
