<svg width="16" height="16" viewBox="0 0 16 16" fill="none" xmlns="http://www.w3.org/2000/svg">
<path d="M7.6311 7.43902C7.69123 7.46559 7.74794 7.49931 7.79999 7.53946C7.82666 7.56346 7.84266 7.59724 7.84266 7.64168C7.84266 7.67191 7.82488 7.70391 7.79199 7.73857C7.75881 7.76784 7.71624 7.78424 7.67199 7.78479C7.62403 7.78258 7.57694 7.77111 7.53333 7.75102C7.4684 7.71985 7.40493 7.68574 7.3431 7.64879C7.26245 7.59721 7.18273 7.54416 7.10399 7.48968C6.89558 7.56087 6.67614 7.59428 6.45599 7.58835C6.26585 7.59172 6.07668 7.56039 5.89777 7.49591C5.74086 7.44052 5.59839 7.35061 5.48088 7.23279C5.36753 7.1165 5.28132 6.97656 5.22844 6.82302C5.17023 6.65654 5.14165 6.48114 5.14399 6.30479C5.14399 6.11635 5.17155 5.94391 5.22844 5.78479C5.28622 5.62657 5.36888 5.49324 5.47733 5.38124C5.58755 5.27102 5.71999 5.18657 5.87644 5.12613C6.03466 5.06746 6.21155 5.03635 6.41066 5.03635C6.6791 5.03635 6.91199 5.09057 7.10666 5.19902C7.30133 5.30568 7.44799 5.45768 7.54755 5.65502C7.64799 5.85146 7.69777 6.08257 7.69777 6.34924C7.69777 6.75457 7.59555 7.07546 7.39644 7.31013C7.46666 7.35457 7.54666 7.39902 7.6311 7.43902ZM6.98755 7.03102C7.0686 6.94368 7.12824 6.83869 7.16177 6.72435C7.19999 6.60435 7.21955 6.46746 7.21955 6.30746C7.21955 6.10924 7.18399 5.93857 7.12088 5.79368C7.06082 5.65761 6.96103 5.54286 6.83461 5.4645C6.70818 5.38614 6.56103 5.34782 6.41244 5.35457C6.30443 5.35388 6.19739 5.37505 6.09777 5.41679C6.0025 5.45618 5.9174 5.51666 5.84888 5.59368C5.77334 5.68135 5.71729 5.78406 5.68444 5.89502C5.64208 6.0271 5.62167 6.16522 5.62399 6.30391C5.62399 6.61324 5.69866 6.85324 5.84888 7.02035C5.99733 7.18657 6.19022 7.26924 6.41866 7.26924C6.51466 7.26924 6.61155 7.25146 6.71022 7.21146C6.63934 7.16297 6.56474 7.12017 6.4871 7.08346C6.42248 7.05652 6.36057 7.02349 6.30222 6.9848C6.26755 6.96257 6.25244 6.93057 6.25244 6.88435C6.25244 6.85057 6.26666 6.81768 6.29866 6.78746C6.32701 6.76066 6.36454 6.74572 6.40355 6.74568C6.51822 6.74568 6.71288 6.83991 6.98755 7.02924V7.03102ZM10.0587 8.79191C10.0791 8.83902 10.1058 8.89946 10.136 8.97591L10.8089 10.5697C10.8613 10.6906 10.8889 10.7786 10.8889 10.8328C10.8884 10.8632 10.8814 10.8932 10.8686 10.9207C10.8557 10.9483 10.8372 10.9729 10.8142 10.9928C10.7906 11.0157 10.7626 11.0338 10.7319 11.0458C10.7013 11.0579 10.6685 11.0637 10.6355 11.063C10.5985 11.065 10.5614 11.0586 10.5271 11.0444C10.4999 11.0294 10.4756 11.0099 10.4551 10.9866C10.4302 10.9511 10.4087 10.9133 10.3911 10.8737C10.368 10.8303 10.3478 10.7855 10.3307 10.7395L10.208 10.4248H9.15999L9.03733 10.7439C8.98755 10.8684 8.94844 10.9528 8.91288 10.9981C8.87733 11.0444 8.8231 11.063 8.74488 11.063C8.68088 11.063 8.62044 11.0408 8.57066 10.9964C8.52088 10.9519 8.49599 10.8959 8.49599 10.8364C8.49599 10.8044 8.50044 10.7697 8.51377 10.7341C8.52355 10.6986 8.54399 10.6461 8.57155 10.5812L9.23199 8.97946L9.29866 8.81502C9.32068 8.75867 9.34901 8.70499 9.3831 8.65502C9.41318 8.61054 9.45379 8.5742 9.50133 8.54924C9.55789 8.52123 9.62045 8.5075 9.68355 8.50924C9.74663 8.50768 9.80915 8.5214 9.86577 8.54924C9.91377 8.5768 9.95199 8.61146 9.98222 8.65146C10.012 8.69329 10.037 8.73831 10.0569 8.78568L10.0595 8.79102L10.0587 8.79191ZM9.67822 8.98835L9.29688 10.1057H10.0658L9.67822 8.98835Z" fill="#6D7175"/>
<path d="M1 2.00079C1 1.73558 1.10536 1.48122 1.29289 1.29369C1.48043 1.10615 1.73478 1.00079 2 1.00079H14C14.1313 1.00079 14.2614 1.02666 14.3827 1.07691C14.504 1.12717 14.6142 1.20083 14.7071 1.29369C14.8 1.38655 14.8736 1.49678 14.9239 1.61811C14.9741 1.73944 15 1.86947 15 2.00079V14.0008C15 14.266 14.8946 14.5204 14.7071 14.7079C14.5196 14.8954 14.2652 15.0008 14 15.0008H2C1.73478 15.0008 1.48043 14.8954 1.29289 14.7079C1.10536 14.5204 1 14.266 1 14.0008V2.00079ZM4.39 4.83496V8.12579C4.39 8.37413 4.59083 8.57413 4.83833 8.57413H8.12917C8.18804 8.57413 8.24634 8.56253 8.30074 8.54C8.35513 8.51747 8.40456 8.48444 8.44619 8.44281C8.48782 8.40118 8.52084 8.35176 8.54337 8.29736C8.5659 8.24297 8.5775 8.18467 8.5775 8.12579V4.83496C8.5775 4.71606 8.53027 4.60202 8.44619 4.51794C8.36211 4.43386 8.24807 4.38663 8.12917 4.38663H4.83833C4.77946 4.38663 4.72116 4.39822 4.66676 4.42075C4.61237 4.44329 4.56295 4.47631 4.52131 4.51794C4.47968 4.55957 4.44666 4.609 4.42413 4.66339C4.4016 4.71779 4.39 4.77608 4.39 4.83496ZM11.1217 11.5666C11.37 11.5666 11.5708 11.3666 11.5708 11.1175V7.82663C11.5709 7.76761 11.5594 7.70915 11.5369 7.65461C11.5143 7.60006 11.4813 7.5505 11.4395 7.50877C11.3978 7.46704 11.3482 7.43396 11.2937 7.41143C11.2391 7.38889 11.1807 7.37735 11.1217 7.37746H8.8775V8.42496C8.8775 8.48391 8.86588 8.54227 8.84329 8.59672C8.82071 8.65117 8.78761 8.70063 8.74589 8.74228C8.70417 8.78392 8.65465 8.81693 8.60016 8.83941C8.54567 8.86189 8.48728 8.8734 8.42833 8.87329H7.38083V11.1175C7.38083 11.3658 7.58167 11.5666 7.83 11.5666H11.1208H11.1217Z" fill="#6D7175"/>
</svg>
