<svg width="16" height="16" viewBox="0 0 16 16" fill="none" xmlns="http://www.w3.org/2000/svg">
<g clip-path="url(#clip0_16199_42833)">
<path fill-rule="evenodd" clip-rule="evenodd" d="M4.00001 2.4C3.78784 2.4 3.58436 2.48429 3.43433 2.63432C3.2843 2.78435 3.20001 2.98783 3.20001 3.2V9.6C3.20001 9.81217 3.2843 10.0157 3.43433 10.1657C3.58436 10.3157 3.78784 10.4 4.00001 10.4H15.2C15.4122 10.4 15.6157 10.3157 15.7657 10.1657C15.9157 10.0157 16 9.81217 16 9.6V3.2C16 2.98783 15.9157 2.78435 15.7657 2.63432C15.6157 2.48429 15.4122 2.4 15.2 2.4H4.00001ZM9.60001 7.6C9.91827 7.6 10.2235 7.47357 10.4485 7.24853C10.6736 7.02349 10.8 6.71826 10.8 6.4C10.8 6.08174 10.6736 5.77652 10.4485 5.55147C10.2235 5.32643 9.91827 5.2 9.60001 5.2C9.28175 5.2 8.97653 5.32643 8.75148 5.55147C8.52644 5.77652 8.40001 6.08174 8.40001 6.4C8.40001 6.71826 8.52644 7.02349 8.75148 7.24853C8.97653 7.47357 9.28175 7.6 9.60001 7.6Z" fill="#6D7175"/>
<path fill-rule="evenodd" clip-rule="evenodd" d="M12.8 12V12.8C12.8 13.0122 12.7157 13.2157 12.5657 13.3657C12.4157 13.5157 12.2122 13.6 12 13.6H0.8C0.587827 13.6 0.384344 13.5157 0.234315 13.3657C0.0842855 13.2157 0 13.0122 0 12.8V6.4C0 6.18783 0.0842855 5.98434 0.234315 5.83431C0.384344 5.68428 0.587827 5.6 0.8 5.6H1.6V11.2C1.6 11.4122 1.68429 11.6157 1.83431 11.7657C1.98434 11.9157 2.18783 12 2.4 12H12.8Z" fill="#6D7175"/>
</g>
<defs>
<clipPath id="clip0_16199_42833">
<rect width="16" height="16" fill="white"/>
</clipPath>
</defs>
</svg>
