<svg width="16" height="16" viewBox="0 0 16 16" fill="none" xmlns="http://www.w3.org/2000/svg">
<path d="M6.18388 9.16592H3.50055C3.15022 9.16592 2.90855 8.81525 3.03322 8.48808L5.69955 1.48942C5.73562 1.39473 5.79961 1.31324 5.88304 1.25573C5.96647 1.19823 6.06539 1.16743 6.16672 1.16742H10.6661C11.0211 1.16742 11.2631 1.52708 11.1291 1.85592L9.57655 5.66658H12.4992C12.9291 5.66658 13.1584 6.17325 12.8749 6.49625L5.70922 14.6613C5.36088 15.0583 4.71505 14.7143 4.85022 14.2038L6.18388 9.16592ZM6.51122 2.16742L4.22588 8.16608H6.83322C6.90977 8.16609 6.9853 8.18368 7.05398 8.21748C7.12266 8.25129 7.18267 8.30042 7.22936 8.36108C7.27606 8.42173 7.30821 8.49231 7.32332 8.56735C7.33844 8.64239 7.33612 8.71991 7.31655 8.79392L6.36138 12.4026L11.3954 6.66642H8.83305C8.47805 6.66642 8.23605 6.30675 8.37005 5.97792L9.92255 2.16725H6.51122V2.16742Z" fill="#6D7175"/>
</svg>
