<svg width="16" height="16" viewBox="0 0 16 16" fill="none" xmlns="http://www.w3.org/2000/svg">
<g clip-path="url(#clip0_8325_32777)">
<path d="M0.799988 1.6008C0.799988 1.38862 0.884273 1.18514 1.0343 1.03511C1.18433 0.885082 1.38781 0.800797 1.59999 0.800797H3.19999V2.4008H2.39999V3.2008H0.799988V1.6008ZM14.4 0.800797C14.6122 0.800797 14.8156 0.885082 14.9657 1.03511C15.1157 1.18514 15.2 1.38862 15.2 1.6008V3.2008H13.6V2.4008H12.8V0.800797H14.4ZM15.2 14.0008V8.8008H0.799988V14.0008C0.799988 14.3191 0.926416 14.6243 1.15146 14.8493C1.3765 15.0744 1.68173 15.2008 1.99999 15.2008H14C14.3182 15.2008 14.6235 15.0744 14.8485 14.8493C15.0736 14.6243 15.2 14.3191 15.2 14.0008ZM15.2 4.8008V7.2008H13.6V4.8008H15.2ZM2.39999 7.2008V4.8008H0.799988V7.2008H2.39999ZM11.2 0.800797V2.4008H8.79999V0.800797H11.2ZM7.19999 2.4008V0.800797H4.79999V2.4008H7.19999Z" fill="#6D7175"/>
</g>
<defs>
<clipPath id="clip0_8325_32777">
<rect width="16" height="16" fill="white" transform="translate(0 0.000793457)"/>
</clipPath>
</defs>
</svg>
