<svg width="16" height="16" viewBox="0 0 16 16" fill="none" xmlns="http://www.w3.org/2000/svg">
<g clip-path="url(#clip0_5116_16492)">
<path d="M15.1285 6.84487L15.0528 6.52388H8.07394V9.47771H12.2432C11.8104 11.5335 9.80152 12.6155 8.1605 12.6155C6.9667 12.6155 5.70798 12.1142 4.87485 11.3063C4.02008 10.4768 3.47548 9.2541 3.47548 7.99538C3.47548 6.75109 4.0345 5.5068 4.8496 4.6881C5.6611 3.873 6.89096 3.41135 8.11361 3.41135C9.51298 3.41135 10.5156 4.15432 10.8907 4.49334L12.9898 2.4051C12.373 1.8641 10.6815 0.500793 8.04508 0.500793C6.01094 0.500793 4.05975 1.27983 2.63513 2.70084C1.22854 4.10022 0.5 6.12354 0.5 7.99899C0.5 9.87444 1.18887 11.8004 2.55218 13.2106C4.00926 14.7145 6.07225 15.5008 8.19656 15.5008C10.1297 15.5008 11.9619 14.7434 13.2675 13.3693C14.5515 12.0168 15.2151 10.1449 15.2151 8.18293C15.2151 7.35701 15.1321 6.86651 15.1285 6.84487Z" fill="#6D7175"/>
</g>
<defs>
<clipPath id="clip0_5116_16492">
<rect width="16" height="16" fill="white" transform="translate(0 0.000793457)"/>
</clipPath>
</defs>
</svg>
