<svg width="16" height="16" viewBox="0 0 16 16" fill="none" xmlns="http://www.w3.org/2000/svg">
<g clip-path="url(#clip0_15207_46646)">
<path fill-rule="evenodd" clip-rule="evenodd" d="M6.39359 1.70012C6.40932 1.59464 6.4038 1.48707 6.37735 1.38375C6.3509 1.28043 6.30406 1.18344 6.23959 1.09849C6.17511 1.01354 6.0943 0.942331 6.0019 0.889064C5.9095 0.835796 5.80739 0.801541 5.70156 0.788313C5.59574 0.775084 5.48833 0.78315 5.38567 0.812035C5.283 0.840919 5.18715 0.89004 5.10375 0.956509C5.02034 1.02298 4.95107 1.10545 4.9 1.19908C4.84894 1.29271 4.81711 1.39561 4.80639 1.50172L4.49439 4.00092H1.59999C1.38781 4.00092 1.18433 4.08521 1.0343 4.23524C0.884273 4.38526 0.799988 4.58875 0.799988 4.80092C0.799988 5.01309 0.884273 5.21658 1.0343 5.36661C1.18433 5.51663 1.38781 5.60092 1.59999 5.60092H4.29359L3.69359 10.4009H1.59999C1.38781 10.4009 1.18433 10.4852 1.0343 10.6352C0.884273 10.7853 0.799988 10.9887 0.799988 11.2009C0.799988 11.4131 0.884273 11.6166 1.0343 11.7666C1.18433 11.9166 1.38781 12.0009 1.59999 12.0009H3.49359L3.20559 14.3017C3.19256 14.406 3.2002 14.5118 3.22807 14.6131C3.25593 14.7144 3.30348 14.8093 3.368 14.8922C3.43252 14.9752 3.51274 15.0446 3.60409 15.0965C3.69544 15.1485 3.79612 15.1819 3.90039 15.1949C4.00466 15.2079 4.11047 15.2003 4.21179 15.1724C4.31311 15.1446 4.40794 15.097 4.49089 15.0325C4.57383 14.968 4.64325 14.8878 4.69519 14.7964C4.74712 14.7051 4.78056 14.6044 4.79359 14.5001L5.10559 12.0009H9.89359L9.60559 14.3017C9.57928 14.5123 9.6377 14.7247 9.768 14.8922C9.8983 15.0597 10.0898 15.1686 10.3004 15.1949C10.511 15.2212 10.7234 15.1628 10.8909 15.0325C11.0584 14.9022 11.1673 14.7107 11.1936 14.5001L11.5056 12.0009H14.4C14.6122 12.0009 14.8156 11.9166 14.9657 11.7666C15.1157 11.6166 15.2 11.4131 15.2 11.2009C15.2 10.9887 15.1157 10.7853 14.9657 10.6352C14.8156 10.4852 14.6122 10.4009 14.4 10.4009H11.7064L12.3064 5.60092H14.4C14.6122 5.60092 14.8156 5.51663 14.9657 5.36661C15.1157 5.21658 15.2 5.01309 15.2 4.80092C15.2 4.58875 15.1157 4.38526 14.9657 4.23524C14.8156 4.08521 14.6122 4.00092 14.4 4.00092H12.5064L12.7944 1.70012C12.8074 1.59585 12.7998 1.49004 12.7719 1.38872C12.744 1.2874 12.6965 1.19256 12.632 1.10962C12.5675 1.02668 12.4872 0.95726 12.3959 0.905322C12.3045 0.853384 12.2039 0.819947 12.0996 0.80692C11.9953 0.793893 11.8895 0.801531 11.7882 0.829398C11.6869 0.857265 11.592 0.904814 11.5091 0.969333C11.4261 1.03385 11.3567 1.11407 11.3048 1.20542C11.2529 1.29677 11.2194 1.39745 11.2064 1.50172L10.8944 4.00092H6.10559L6.39359 1.70012ZM10.0936 10.4009L10.6936 5.60092H5.90639L5.30639 10.4009H10.0936Z" fill="#6D7175"/>
</g>
<defs>
<clipPath id="clip0_15207_46646">
<rect width="16" height="16" fill="white" transform="translate(0 0.000915527)"/>
</clipPath>
</defs>
</svg>
