<svg width="17" height="16" viewBox="0 0 17 16" fill="none" xmlns="http://www.w3.org/2000/svg">
<path d="M8.00599 3.94879C5.95899 3.94879 4.35199 5.56879 4.35199 7.63179C4.35199 8.07479 4.42599 8.59079 4.64399 8.95879L2.52599 11.0948C1.42999 10.1378 0.553992 8.95879 0.0419922 7.63179C0.665644 6.00619 1.76749 4.60786 3.20215 3.62131C4.63681 2.63476 6.33686 2.10634 8.07799 2.10579C9.10199 2.10579 10.051 2.32679 11.001 2.62279L9.39299 4.24279C8.95499 4.02179 8.44399 3.94879 8.00599 3.94879ZM15.311 1.95879L13.631 3.65379L13.339 3.94879C14.581 4.90579 15.53 6.15879 16.042 7.63179C15.4183 9.2574 14.3165 10.6557 12.8818 11.6423C11.4472 12.6288 9.74712 13.1572 8.00599 13.1578C6.90999 13.1578 5.81399 12.9378 4.79099 12.5688L4.49799 12.8638L2.37999 15.0008L1.42999 14.0428L14.362 1.00079L15.311 1.95879ZM11.293 6.01079L10.197 7.11579V7.63179C10.197 8.88479 9.24699 9.84179 8.00599 9.84179C7.85899 9.84179 7.71299 9.84179 7.49399 9.76879L6.39799 10.8738C6.8836 11.1651 7.43969 11.318 8.00599 11.3158C10.051 11.3158 11.658 9.69579 11.658 7.63179C11.658 7.04279 11.513 6.52679 11.293 6.01179V6.01079ZM8.15099 5.42079L5.88699 7.70679V7.55779C5.88699 6.30579 6.83599 5.34779 8.07799 5.34779C8.07799 5.42179 8.07799 5.42179 8.15099 5.42179V5.42079Z" fill="#6D7175"/>
</svg>
