<svg width="16" height="16" viewBox="0 0 16 16" fill="none" xmlns="http://www.w3.org/2000/svg">
<g clip-path="url(#clip0_7367_17992)">
<path fill-rule="evenodd" clip-rule="evenodd" d="M1.99999 0.800797C1.33725 0.800797 0.799988 1.33805 0.799988 2.0008V14.0008C0.799988 14.6635 1.33725 15.2008 1.99999 15.2008H14C14.6627 15.2008 15.2 14.6635 15.2 14.0008V2.0008C15.2 1.33805 14.6627 0.800797 14 0.800797H1.99999ZM5.99999 3.6008C6.87999 3.6008 7.59999 4.3208 7.59999 5.2008C7.59999 6.0808 6.87999 6.8008 5.99999 6.8008C5.11999 6.8008 4.39999 6.0808 4.39999 5.2008C4.39999 4.3208 5.11999 3.6008 5.99999 3.6008ZM13.1992 13.6008H2.79759C2.46959 13.6008 2.28559 13.2328 2.47759 12.9688L5.31999 9.728C5.47199 9.56 5.73599 9.56 5.89599 9.72L7.19999 11.2008L9.64799 7.376C9.81599 7.136 10.168 7.144 10.32 7.392L13.5512 13.0008C13.6952 13.2728 13.5032 13.6008 13.1992 13.6008Z" fill="#6D7175"/>
</g>
<defs>
<clipPath id="clip0_7367_17992">
<rect width="16" height="16" fill="white" transform="translate(0 0.000793457)"/>
</clipPath>
</defs>
</svg>
