<svg width="16" height="16" viewBox="0 0 16 16" fill="none" xmlns="http://www.w3.org/2000/svg">
<g clip-path="url(#clip0_15207_46647)">
<path d="M7.19999 5.6009C10.7346 5.6009 13.6 4.52638 13.6 3.2009C13.6 1.87542 10.7346 0.800903 7.19999 0.800903C3.66536 0.800903 0.799988 1.87542 0.799988 3.2009C0.799988 4.52638 3.66536 5.6009 7.19999 5.6009ZM8.97903 7.10697C8.26135 7.77703 7.72009 8.63354 7.43236 9.59938C7.35524 9.60034 7.27777 9.6009 7.19999 9.6009C3.66536 9.6009 0.799988 8.52642 0.799988 7.2009C0.799988 6.76376 1.11165 6.35391 1.6562 6.0009C2.76279 6.71826 4.83108 7.2009 7.19999 7.2009C7.81731 7.2009 8.41423 7.16813 8.97903 7.10697ZM7.19999 11.2009C7.19999 12.0565 7.39188 12.8673 7.73497 13.5927C7.55858 13.5981 7.38016 13.6009 7.19999 13.6009C3.66536 13.6009 0.799988 12.5264 0.799988 11.2009C0.799988 10.7638 1.11165 10.3539 1.6562 10.0009C2.76279 10.7183 4.83108 11.2009 7.19999 11.2009ZM12.8 14.4009C12.3581 14.4009 12 14.0427 12 13.6009V12.0009H10.4C9.95815 12.0009 9.59999 11.6427 9.59999 11.2009C9.59999 10.7591 9.95815 10.4009 10.4 10.4009H12V8.8009C12 8.35906 12.3581 8.0009 12.8 8.0009C13.2418 8.0009 13.6 8.35906 13.6 8.8009V10.4009H15.2C15.6418 10.4009 16 10.7591 16 11.2009C16 11.6427 15.6418 12.0009 15.2 12.0009H13.6V13.6009C13.6 14.0427 13.2418 14.4009 12.8 14.4009Z" fill="#6D7175"/>
</g>
<defs>
<clipPath id="clip0_15207_46647">
<rect width="16" height="16" fill="white" transform="translate(0 0.000915527)"/>
</clipPath>
</defs>
</svg>
