<svg width="16" height="16" viewBox="0 0 16 16" fill="none" xmlns="http://www.w3.org/2000/svg">
<g clip-path="url(#clip0_8319_32321)">
<path fill-rule="evenodd" clip-rule="evenodd" d="M0.799988 2.0008C0.799988 1.68254 0.926416 1.37731 1.15146 1.15227C1.3765 0.927225 1.68173 0.800797 1.99999 0.800797H14C14.3182 0.800797 14.6235 0.927225 14.8485 1.15227C15.0736 1.37731 15.2 1.68254 15.2 2.0008V14.0008C15.2 14.3191 15.0736 14.6243 14.8485 14.8493C14.6235 15.0744 14.3182 15.2008 14 15.2008H1.99999C1.68173 15.2008 1.3765 15.0744 1.15146 14.8493C0.926416 14.6243 0.799988 14.3191 0.799988 14.0008V2.0008ZM6.39999 4.0008H12.8V5.6008H6.39999V4.0008ZM12.8 7.2008H6.39999V8.8008H12.8V7.2008ZM6.39999 10.4008H12.8V12.0008H6.39999V10.4008ZM3.99999 5.6008C4.21216 5.6008 4.41564 5.51651 4.56567 5.36648C4.7157 5.21645 4.79999 5.01297 4.79999 4.8008C4.79999 4.58862 4.7157 4.38514 4.56567 4.23511C4.41564 4.08508 4.21216 4.0008 3.99999 4.0008C3.78781 4.0008 3.58433 4.08508 3.4343 4.23511C3.28427 4.38514 3.19999 4.58862 3.19999 4.8008C3.19999 5.01297 3.28427 5.21645 3.4343 5.36648C3.58433 5.51651 3.78781 5.6008 3.99999 5.6008ZM4.79999 8.0008C4.79999 8.21297 4.7157 8.41645 4.56567 8.56648C4.41564 8.71651 4.21216 8.8008 3.99999 8.8008C3.78781 8.8008 3.58433 8.71651 3.4343 8.56648C3.28427 8.41645 3.19999 8.21297 3.19999 8.0008C3.19999 7.78862 3.28427 7.58514 3.4343 7.43511C3.58433 7.28508 3.78781 7.2008 3.99999 7.2008C4.21216 7.2008 4.41564 7.28508 4.56567 7.43511C4.7157 7.58514 4.79999 7.78862 4.79999 8.0008ZM3.99999 12.0008C4.21216 12.0008 4.41564 11.9165 4.56567 11.7665C4.7157 11.6165 4.79999 11.413 4.79999 11.2008C4.79999 10.9886 4.7157 10.7851 4.56567 10.6351C4.41564 10.4851 4.21216 10.4008 3.99999 10.4008C3.78781 10.4008 3.58433 10.4851 3.4343 10.6351C3.28427 10.7851 3.19999 10.9886 3.19999 11.2008C3.19999 11.413 3.28427 11.6165 3.4343 11.7665C3.58433 11.9165 3.78781 12.0008 3.99999 12.0008Z" fill="#6D7175"/>
</g>
<defs>
<clipPath id="clip0_8319_32321">
<rect width="16" height="16" fill="white" transform="translate(0 0.000793457)"/>
</clipPath>
</defs>
</svg>
