<svg width="16" height="16" viewBox="0 0 16 16" fill="none" xmlns="http://www.w3.org/2000/svg">
<path d="M14.08 12.3603C14.4096 12.4883 14.8 12.2963 14.8 12.0003V1.60034C14.8 1.30434 14.4096 1.11234 14.08 1.24034C13.5336 1.56834 13.0312 1.90434 12.5448 2.22994C10.8328 3.37394 9.32955 4.37954 6.87755 4.40034H3.59995C2.27195 4.40034 1.19995 5.47234 1.19995 6.80034C1.19995 8.12834 2.27195 9.20034 3.59995 9.20034H6.79995C9.29835 9.20034 10.816 10.2147 12.5456 11.3715C13.0312 11.6963 13.5344 12.0323 14.08 12.3603ZM7.59995 14.8003H6.96795C6.62395 14.8003 6.31995 14.5843 6.21595 14.2643L4.45595 10.8003H7.59995C7.81212 10.8003 8.01561 10.8846 8.16564 11.0347C8.31567 11.1847 8.39995 11.3882 8.39995 11.6003V14.0003C8.39995 14.4403 8.03995 14.8003 7.59995 14.8003Z" fill="#6D7175"/>
</svg>
