<svg width="16" height="16" viewBox="0 0 16 16" fill="none" xmlns="http://www.w3.org/2000/svg">
<g clip-path="url(#clip0_15772_43001)">
<path d="M4.00058 3.4142L4.29358 3.7072C4.38624 3.80039 4.4964 3.87434 4.61773 3.9248C4.73906 3.97526 4.86917 4.00124 5.00058 4.00124C5.13199 4.00124 5.2621 3.97526 5.38343 3.9248C5.50477 3.87434 5.61493 3.80039 5.70758 3.7072C5.80053 3.61441 5.87427 3.50421 5.92458 3.38289C5.97489 3.26158 6.00078 3.13153 6.00078 3.0002C6.00078 2.86887 5.97489 2.73882 5.92458 2.61751C5.87427 2.49619 5.80053 2.38599 5.70758 2.2932L3.70758 0.293201C3.61479 0.200255 3.50459 0.126518 3.38327 0.0762068C3.26196 0.0258961 3.13192 0 3.00058 0C2.86925 0 2.7392 0.0258961 2.61789 0.0762068C2.49657 0.126518 2.38637 0.200255 2.29358 0.293201L0.293581 2.2932C0.106073 2.48071 0.000732422 2.73502 0.000732422 3.0002C0.000732422 3.1315 0.0265945 3.26152 0.0768416 3.38283C0.127089 3.50413 0.200737 3.61436 0.293581 3.7072C0.386426 3.80005 0.496649 3.87369 0.617956 3.92394C0.739263 3.97419 0.869279 4.00005 1.00058 4.00005C1.26576 4.00005 1.52007 3.89471 1.70758 3.7072L2.00058 3.4142V10.0002C2.00058 10.2654 2.10594 10.5198 2.29347 10.7073C2.48101 10.8948 2.73536 11.0002 3.00058 11.0002C3.2658 11.0002 3.52015 10.8948 3.70769 10.7073C3.89522 10.5198 4.00058 10.2654 4.00058 10.0002V3.4142ZM13.7076 15.7072L15.7076 13.7072C15.8005 13.6144 15.8743 13.5042 15.9246 13.3829C15.9749 13.2616 16.0008 13.1315 16.0008 13.0002C16.0008 12.8689 15.9749 12.7388 15.9246 12.6175C15.8743 12.4962 15.8005 12.386 15.7076 12.2932L13.7076 10.2932C13.6147 10.2004 13.5045 10.1267 13.3832 10.0765C13.2619 10.0262 13.1319 10.0004 13.0006 10.0004C12.8693 10.0004 12.7393 10.0262 12.618 10.0765C12.4966 10.1267 12.3864 10.2004 12.2936 10.2932C12.2007 10.386 12.1271 10.4963 12.0768 10.6176C12.0266 10.7389 12.0007 10.8689 12.0007 11.0002C12.0007 11.1315 12.0266 11.2615 12.0768 11.3828C12.1271 11.5041 12.2007 11.6144 12.2936 11.7072L12.5866 12.0002H6.00058C5.73537 12.0002 5.48101 12.1056 5.29348 12.2931C5.10594 12.4806 5.00058 12.735 5.00058 13.0002C5.00058 13.2654 5.10594 13.5198 5.29348 13.7073C5.48101 13.8948 5.73537 14.0002 6.00058 14.0002H12.5866L12.2936 14.2932C12.2004 14.3859 12.1264 14.496 12.076 14.6173C12.0255 14.7387 11.9995 14.8688 11.9995 15.0002C11.9995 15.1316 12.0255 15.2617 12.076 15.3831C12.1264 15.5044 12.2004 15.6145 12.2936 15.7072C12.3864 15.8001 12.4966 15.8739 12.6179 15.9242C12.7392 15.9745 12.8692 16.0004 13.0006 16.0004C13.1319 16.0004 13.262 15.9745 13.3833 15.9242C13.5046 15.8739 13.6148 15.8001 13.7076 15.7072ZM8.00058 3.0002C7.73537 3.0002 7.48101 2.89484 7.29348 2.70731C7.10594 2.51977 7.00058 2.26542 7.00058 2.0002C7.00058 1.73498 7.10594 1.48063 7.29348 1.29309C7.48101 1.10556 7.73537 1.0002 8.00058 1.0002H9.00058C9.2658 1.0002 9.52015 1.10556 9.70769 1.29309C9.89522 1.48063 10.0006 1.73498 10.0006 2.0002C10.0006 2.26542 9.89522 2.51977 9.70769 2.70731C9.52015 2.89484 9.2658 3.0002 9.00058 3.0002H8.00058ZM14.0006 9.0002C14.2658 9.0002 14.5202 8.89484 14.7077 8.70731C14.8952 8.51977 15.0006 8.26542 15.0006 8.0002V7.0002C15.0006 6.73498 14.8952 6.48063 14.7077 6.29309C14.5202 6.10556 14.2658 6.0002 14.0006 6.0002C13.7354 6.0002 13.481 6.10556 13.2935 6.29309C13.1059 6.48063 13.0006 6.73498 13.0006 7.0002V8.0002C13.0006 8.26542 13.1059 8.51977 13.2935 8.70731C13.481 8.89484 13.7354 9.0002 14.0006 9.0002ZM15.0006 3.0002C15.0006 3.26542 14.8952 3.51977 14.7077 3.70731C14.5202 3.89484 14.2658 4.0002 14.0006 4.0002C13.7354 4.0002 13.481 3.89484 13.2935 3.70731C13.1059 3.51977 13.0006 3.26542 13.0006 3.0002C12.7354 3.0002 12.481 2.89484 12.2935 2.70731C12.1059 2.51977 12.0006 2.26542 12.0006 2.0002C12.0006 1.73498 12.1059 1.48063 12.2935 1.29309C12.481 1.10556 12.7354 1.0002 13.0006 1.0002H14.0006C14.2658 1.0002 14.5202 1.10556 14.7077 1.29309C14.8952 1.48063 15.0006 1.73498 15.0006 2.0002V3.0002Z" fill="#6D7175"/>
</g>
<defs>
<clipPath id="clip0_15772_43001">
<rect width="16" height="16" fill="white" transform="translate(0.000732422)"/>
</clipPath>
</defs>
</svg>
