<svg width="16" height="16" viewBox="0 0 16 16" fill="none" xmlns="http://www.w3.org/2000/svg">
<path d="M8.00002 4.80079C7.11762 4.80079 6.40002 4.08319 6.40002 3.20079C6.40002 2.31839 7.11762 1.60079 8.00002 1.60079C8.88242 1.60079 9.60002 2.31839 9.60002 3.20079C9.60002 4.08319 8.88242 4.80079 8.00002 4.80079ZM8.00002 6.40079C8.88242 6.40079 9.60002 7.11839 9.60002 8.00079C9.60002 8.88319 8.88242 9.60079 8.00002 9.60079C7.11762 9.60079 6.40002 8.88319 6.40002 8.00079C6.40002 7.11839 7.11762 6.40079 8.00002 6.40079ZM8.00002 11.2008C8.88242 11.2008 9.60002 11.9184 9.60002 12.8008C9.60002 13.6832 8.88242 14.4008 8.00002 14.4008C7.11762 14.4008 6.40002 13.6832 6.40002 12.8008C6.40002 11.9184 7.11762 11.2008 8.00002 11.2008Z" fill="#6D7175"/>
</svg>
