<svg width="16" height="16" viewBox="0 0 16 16" fill="none" xmlns="http://www.w3.org/2000/svg">
<g clip-path="url(#clip0_11075_41120)">
<path d="M8.62223 0.609985C8.45636 0.444111 8.23139 0.350925 7.99681 0.350925C7.76223 0.350925 7.53725 0.444111 7.37138 0.609985C7.2055 0.775859 7.11232 1.00083 7.11232 1.23541L7.11497 1.71764C7.11496 1.73003 7.11525 1.74242 7.11586 1.75479L7.11763 1.79017C5.88041 1.99901 4.75716 2.63932 3.94711 3.59752C3.13706 4.55571 2.69259 5.76985 2.69253 7.02457C2.69253 7.08114 2.69233 8.46374 2.69186 8.51891C2.66957 11.1319 2.12195 12.1999 1.27827 13.844L1.2482 13.9041C1.21395 13.971 1.19747 14.0456 1.20033 14.1207C1.2032 14.1958 1.22531 14.269 1.26456 14.3331C1.3038 14.3972 1.35886 14.4501 1.42446 14.4868C1.49005 14.5235 1.56398 14.5428 1.63914 14.5427H6.89386C6.89386 14.8359 7.01035 15.1172 7.21769 15.3245C7.42503 15.5318 7.70625 15.6483 7.99947 15.6483C8.2927 15.6483 8.57392 15.5318 8.78126 15.3245C8.9886 15.1172 9.10508 14.8359 9.10508 14.5427H14.3598C14.6889 14.5427 14.9012 14.196 14.7508 13.9041L14.7207 13.844C13.877 12.1999 13.3294 11.1319 13.3071 8.51891C13.3067 8.46374 13.3064 7.08114 13.3064 7.02457C13.3061 5.77001 12.8616 4.55608 12.0515 3.59806C11.2415 2.64005 10.1184 1.99987 8.88129 1.79105L8.88306 1.76452L8.88395 1.74595L8.88129 1.23541C8.88129 1.00083 8.78811 0.775859 8.62223 0.609985Z" fill="#6D7175"/>
</g>
<defs>
<clipPath id="clip0_11075_41120">
<rect width="16" height="16" fill="white" transform="translate(0 0.000915527)"/>
</clipPath>
</defs>
</svg>
