<svg width="16" height="16" viewBox="0 0 16 16" fill="none" xmlns="http://www.w3.org/2000/svg">
<path fill-rule="evenodd" clip-rule="evenodd" d="M3 1.00092C2.46957 1.00092 1.96086 1.21163 1.58579 1.5867C1.21071 1.96177 1 2.47048 1 3.00092V9.00092C1 9.53135 1.21071 10.0401 1.58579 10.4151C1.96086 10.7902 2.46957 11.0009 3 11.0009H5C5.26522 11.0009 5.51957 11.1063 5.70711 11.2938C5.89464 11.4813 6 11.7357 6 12.0009C6 12.2661 5.89464 12.5205 5.70711 12.708C5.51957 12.8956 5.26522 13.0009 5 13.0009H4C3.73478 13.0009 3.48043 13.1063 3.29289 13.2938C3.10536 13.4813 3 13.7357 3 14.0009C3 14.2661 3.10536 14.5205 3.29289 14.708C3.48043 14.8956 3.73478 15.0009 4 15.0009H12C12.2652 15.0009 12.5196 14.8956 12.7071 14.708C12.8946 14.5205 13 14.2661 13 14.0009C13 13.7357 12.8946 13.4813 12.7071 13.2938C12.5196 13.1063 12.2652 13.0009 12 13.0009H11C10.7348 13.0009 10.4804 12.8956 10.2929 12.708C10.1054 12.5205 10 12.2661 10 12.0009C10 11.7357 10.1054 11.4813 10.2929 11.2938C10.4804 11.1063 10.7348 11.0009 11 11.0009H13C13.5304 11.0009 14.0391 10.7902 14.4142 10.4151C14.7893 10.0401 15 9.53135 15 9.00092V3.00092C15 2.47048 14.7893 1.96177 14.4142 1.5867C14.0391 1.21163 13.5304 1.00092 13 1.00092H3ZM4.986 4.83692C4.93614 4.58124 4.78848 4.35511 4.57444 4.20664C4.3604 4.05817 4.09687 3.99908 3.83993 4.04195C3.58298 4.08482 3.35291 4.22625 3.19866 4.43617C3.04441 4.64608 2.97816 4.9079 3.014 5.16592C3.237 6.50492 4.579 9.00092 8 9.00092C11.42 9.00092 12.763 6.50492 12.986 5.16592C13.0112 5.03497 13.0099 4.9003 12.9822 4.76985C12.9546 4.6394 12.9011 4.5158 12.825 4.40632C12.7489 4.29683 12.6516 4.20368 12.539 4.13234C12.4263 4.061 12.3005 4.01291 12.169 3.9909C12.0375 3.96889 11.9029 3.97341 11.7732 4.00418C11.6434 4.03496 11.5211 4.09138 11.4135 4.17011C11.3059 4.24885 11.2151 4.34831 11.1465 4.46266C11.0779 4.577 11.0328 4.70391 11.014 4.83592C10.904 5.49792 10.179 7.00092 8 7.00092C5.82 7.00092 5.097 5.49692 4.986 4.83692Z" fill="#6D7175"/>
</svg>
