<svg width="16" height="16" viewBox="0 0 16 16" fill="none" xmlns="http://www.w3.org/2000/svg">
<path fill-rule="evenodd" clip-rule="evenodd" d="M1.73507 3.50772C1.97617 2.06115 3.22774 1.00092 4.69425 1.00092H11.3057C12.7723 1.00092 14.0238 2.06115 14.2649 3.50772L15 8.00092V13.0009C15 14.1055 14.1046 15.0009 13 15.0009H3C1.89543 15.0009 1 14.1055 1 13.0009V8.00092L1.73507 3.50772ZM4.69425 3.00092C4.20541 3.00092 3.78822 3.35433 3.70786 3.83652L3 8.00092V9.00092H4.39445C4.98672 9.00092 5.56575 9.17623 6.05855 9.50476L6.8906 10.0595C7.5624 10.5073 8.4376 10.5073 9.1094 10.0595L9.94145 9.50476C10.4343 9.17623 11.0133 9.00092 11.6056 9.00092H13V8.00092L12.2921 3.83652C12.2118 3.35433 11.7946 3.00092 11.3057 3.00092H4.69425Z" fill="#6D7175"/>
</svg>
