<svg width="16" height="16" viewBox="0 0 16 16" fill="none" xmlns="http://www.w3.org/2000/svg">
<path d="M6.92926 4.3923L6.46203 2.05613C6.40255 1.75857 6.2418 1.49081 6.00714 1.29842C5.77247 1.10603 5.47839 1.0009 5.17495 1.00092H2.34616C1.59369 1.00092 0.967207 1.63702 1.00133 2.38862C1.40469 11.2792 5.8128 14.6601 13.614 14.9996C14.3656 15.032 15 14.4081 15 13.6565V10.826C15 10.5225 14.8949 10.2284 14.7025 9.99378C14.5101 9.75911 14.2423 9.59836 13.9448 9.53889L11.6086 9.07165C11.3263 9.01515 11.0332 9.05306 10.7745 9.17955C10.5158 9.30604 10.3059 9.51409 10.1772 9.77163L9.75017 10.6247C8.00023 10.6247 5.37531 7.99981 5.37531 6.24987L6.22841 5.82288C6.75864 5.55864 7.04563 4.97241 6.92926 4.3923Z" fill="#6D7175"/>
</svg>
