<svg width="16" height="16" viewBox="0 0 16 16" fill="none" xmlns="http://www.w3.org/2000/svg">
<path d="M14.6554 5.91893L10.0678 1.33138C9.94682 1.21037 9.78856 1.15079 9.63031 1.15079C9.47205 1.15079 9.3138 1.21037 9.19278 1.33138L6.19337 4.33265C5.96623 4.30659 5.73722 4.29542 5.50822 4.29542C4.14536 4.29542 2.7825 4.74412 1.66354 5.64152C1.37682 5.87053 1.35261 6.30061 1.61327 6.56126L4.99621 9.94421L1.30021 13.6365C1.30021 13.6365 1.22016 13.7501 1.21457 13.8189L1.15127 14.5115C1.13451 14.6866 1.27415 14.8355 1.4473 14.8355C1.45661 14.8355 1.46592 14.8355 1.47523 14.8336L2.16783 14.7703C2.23672 14.7648 2.30188 14.7331 2.35029 14.6847L6.04629 10.9887L9.42923 14.3716C9.55025 14.4927 9.7085 14.5522 9.86676 14.5522C10.0474 14.5522 10.2261 14.474 10.349 14.3214C11.3972 13.0125 11.8329 11.3741 11.656 9.78968L14.6554 6.79027C14.8956 6.55196 14.8956 6.16097 14.6554 5.91893ZM10.2503 9.30188L10.321 9.94235C10.3899 10.5698 10.3397 11.1935 10.1684 11.7986C10.0678 12.1523 9.93006 12.4893 9.75505 12.8077L3.18093 6.22986C3.4211 6.09767 3.67059 5.98596 3.93125 5.89659C4.43766 5.72158 4.96829 5.63407 5.50822 5.63407C5.68695 5.63407 5.86755 5.64338 6.04629 5.66386L6.68675 5.73461L9.63217 2.7892L13.1976 6.3546L10.2503 9.30188Z" fill="#6D7175"/>
</svg>
