<svg width="16" height="16" viewBox="0 0 16 16" fill="none" xmlns="http://www.w3.org/2000/svg">
<g clip-path="url(#clip0_5116_16470)">
<path fill-rule="evenodd" clip-rule="evenodd" d="M9.70412 2.93279L8.27212 1.50079C8.19782 1.42641 8.11039 1.3674 8.01327 1.32714C7.91615 1.28689 7.81205 1.26616 7.70692 1.26616C7.60179 1.26616 7.49768 1.28689 7.40057 1.32714C7.30345 1.3674 7.21522 1.42641 7.14092 1.50079L4.32652 4.31519C2.55852 6.08319 2.55772 8.99039 4.24812 11.02C3.92836 11.3836 3.53374 11.6737 3.09132 11.8704C1.05612 12.7744 0.691318 15.0368 0.676918 15.132C0.638518 15.388 0.860918 15.6168 1.17452 15.644C1.20456 15.6468 1.23477 15.6476 1.26492 15.6464C1.54172 15.636 1.77852 15.4624 1.81452 15.232C1.82185 15.189 2.13516 13.3498 3.62892 12.6856C4.19932 12.4328 4.64332 12.1008 4.98732 11.7568C7.01612 13.4384 9.91612 13.4336 11.6801 11.6688L14.4945 8.85439C14.6445 8.70437 14.7287 8.50092 14.7287 8.28879C14.7287 8.07666 14.6445 7.87321 14.4945 7.72319L13.2065 6.43519L15.2561 4.38559C15.3762 4.2655 15.4437 4.10263 15.4437 3.93279C15.4437 3.76296 15.3762 3.60008 15.2561 3.47999C15.136 3.3599 14.9732 3.29244 14.8033 3.29244C14.6335 3.29244 14.4706 3.3599 14.3505 3.47999L12.3009 5.53039L10.6081 3.83759L12.5489 1.89839C12.669 1.7783 12.7365 1.61543 12.7365 1.44559C12.7365 1.27576 12.669 1.11288 12.5489 0.992793C12.4288 0.872703 12.266 0.805237 12.0961 0.805237C11.9263 0.805237 11.7634 0.872703 11.6433 0.992793L9.70412 2.93279ZM6.34731 5.57516C6.38592 5.60067 6.43127 5.61405 6.47754 5.61359C6.50814 5.61368 6.53845 5.60772 6.56673 5.59605C6.59502 5.58438 6.62071 5.56723 6.64234 5.54559L6.80634 5.38079C6.84634 5.33649 6.86779 5.27851 6.86627 5.21885C6.86474 5.15918 6.84036 5.10238 6.79816 5.06017C6.75595 5.01797 6.69915 4.99359 6.63948 4.99206C6.57982 4.99054 6.52184 5.01199 6.47754 5.05199L6.31274 5.21599C6.27971 5.24839 6.25712 5.28994 6.24788 5.33528C6.23864 5.38062 6.24318 5.42769 6.26089 5.47043C6.27861 5.51318 6.30871 5.54965 6.34731 5.57516ZM5.59318 8.51234C5.63405 8.54393 5.68429 8.56098 5.73594 8.56079C5.77141 8.56083 5.80641 8.55274 5.83826 8.53714C5.87011 8.52154 5.89796 8.49885 5.91967 8.4708C5.94138 8.44276 5.95637 8.41011 5.96349 8.37537C5.97061 8.34062 5.96967 8.30471 5.96074 8.27039C5.76766 7.51613 5.87886 6.71619 6.27034 6.04319C6.28579 6.01682 6.29588 5.98767 6.30006 5.95739C6.30424 5.92712 6.30241 5.89632 6.29468 5.86676C6.28696 5.83719 6.27348 5.80944 6.25503 5.78508C6.23658 5.76072 6.21351 5.74023 6.18714 5.72479C6.16077 5.70935 6.13162 5.69925 6.10135 5.69507C6.07107 5.69089 6.04028 5.69272 6.01071 5.70045C5.98114 5.70817 5.95339 5.72165 5.92903 5.7401C5.90467 5.75855 5.88419 5.78162 5.86874 5.80799C5.41539 6.58707 5.28666 7.5132 5.51034 8.38639C5.52317 8.43642 5.55232 8.48075 5.59318 8.51234Z" fill="#6D7175"/>
</g>
<defs>
<clipPath id="clip0_5116_16470">
<rect width="16" height="16" fill="white" transform="translate(0 0.000793457)"/>
</clipPath>
</defs>
</svg>
