<svg width="16" height="16" viewBox="0 0 16 16" fill="none" xmlns="http://www.w3.org/2000/svg">
<path fill-rule="evenodd" clip-rule="evenodd" d="M12.8 1.60079C13.2243 1.60079 13.6313 1.76936 13.9313 2.06942C14.2314 2.36948 14.4 2.77645 14.4 3.20079V12.8008C14.4 13.2251 14.2314 13.6321 13.9313 13.9322C13.6313 14.2322 13.2243 14.4008 12.8 14.4008H3.19998C2.77563 14.4008 2.36866 14.2322 2.0686 13.9322C1.76855 13.6321 1.59998 13.2251 1.59998 12.8008V3.20079C1.59998 2.77645 1.76855 2.36948 2.0686 2.06942C2.36866 1.76936 2.77563 1.60079 3.19998 1.60079H12.8ZM10.6664 4.20079H12.8V12.8008H10.6664V4.20079ZM9.06638 4.20079H3.19998V12.8008H9.06638V4.20079Z" fill="#6D7175"/>
</svg>
