<svg width="16" height="16" viewBox="0 0 16 16" fill="none" xmlns="http://www.w3.org/2000/svg">
<path fill-rule="evenodd" clip-rule="evenodd" d="M1 2.00092C1 1.44863 1.44772 1.00092 2 1.00092H14C14.5523 1.00092 15 1.44863 15 2.00092V6.00092C15 6.5532 14.5523 7.00092 14 7.00092H2C1.44772 7.00092 1 6.5532 1 6.00092V2.00092ZM5 4.00092C5 4.5532 4.55228 5.00092 4 5.00092C3.44772 5.00092 3 4.5532 3 4.00092C3 3.44863 3.44772 3.00092 4 3.00092C4.55228 3.00092 5 3.44863 5 4.00092ZM1 10.0009C1 9.44863 1.44772 9.00092 2 9.00092H14C14.5523 9.00092 15 9.44863 15 10.0009V14.0009C15 14.5532 14.5523 15.0009 14 15.0009H2C1.44772 15.0009 1 14.5532 1 14.0009V10.0009ZM5 12.0009C5 12.5532 4.55228 13.0009 4 13.0009C3.44772 13.0009 3 12.5532 3 12.0009C3 11.4486 3.44772 11.0009 4 11.0009C4.55228 11.0009 5 11.4486 5 12.0009Z" fill="#6D7175"/>
</svg>
