<svg width="16" height="16" viewBox="0 0 16 16" fill="none" xmlns="http://www.w3.org/2000/svg">
<g clip-path="url(#clip0_7367_16892)">
<path d="M5.65164 0.541518C4.06515 1.04154 2.6794 2.03439 1.69575 3.37582C0.712096 4.71724 0.18177 6.33736 0.181824 8.00079C0.181824 12.3186 3.68219 15.819 8.00001 15.819C11.5807 15.819 14.6778 13.3917 15.5669 9.97461C15.6034 9.83457 15.5827 9.68579 15.5095 9.561C15.4362 9.4362 15.3164 9.34561 15.1764 9.30915C15.0363 9.2727 14.8876 9.29337 14.7628 9.36661C14.638 9.43985 14.5474 9.55967 14.5109 9.6997C13.7466 12.639 11.0811 14.7281 8.00001 14.7281C4.28473 14.7281 1.27273 11.7161 1.27273 8.00079C1.27273 5.04188 3.20001 2.45643 5.97891 1.58261C6.11697 1.53921 6.23213 1.44275 6.29907 1.31444C6.366 1.18613 6.37922 1.03648 6.33582 0.898427C6.29242 0.76037 6.19596 0.645207 6.06765 0.578274C5.93934 0.511341 5.7897 0.498119 5.65164 0.541518Z" fill="#6D7175"/>
</g>
<defs>
<clipPath id="clip0_7367_16892">
<rect width="16" height="16" fill="white" transform="translate(0 0.000793457)"/>
</clipPath>
</defs>
</svg>
