<svg width="16" height="16" viewBox="0 0 16 16" fill="none" xmlns="http://www.w3.org/2000/svg">
<path d="M2.37685 1.2369C2.44388 1.10572 2.54583 0.99559 2.67146 0.918657C2.7971 0.841724 2.94153 0.800976 3.08885 0.800903H12.9104C13.0578 0.800976 13.2022 0.841724 13.3278 0.918657C13.4535 0.99559 13.5554 1.10572 13.6224 1.2369L14.9576 3.7393C14.9816 3.7889 15.008 3.8497 15.0328 3.9185C15.1048 4.1009 15.1552 4.2945 15.1808 4.4961C15.1928 4.5745 15.2 4.6473 15.2 4.7065V4.8009C15.2005 5.155 15.1224 5.50478 14.9713 5.82504C14.8202 6.14529 14.6 6.42804 14.3264 6.6529C13.8971 7.00786 13.3572 7.20169 12.8 7.2009C12.3064 7.2009 11.848 7.0521 11.4672 6.7969C11.1388 6.5778 10.8695 6.28097 10.6833 5.93276C10.4971 5.58455 10.3998 5.19576 10.4 4.8009V4.8169C10.3965 5.45084 10.1419 6.05756 9.69217 6.50432C9.2424 6.95109 8.634 7.20155 8.00005 7.2009C7.52194 7.20171 7.05458 7.05902 6.65845 6.7913C6.3345 6.57317 6.06875 6.2792 5.88429 5.93496C5.69983 5.59073 5.60226 5.20664 5.60005 4.8161C5.59666 5.45018 5.34224 6.0571 4.89245 6.50404C4.44266 6.95098 3.83414 7.20155 3.20005 7.2009C2.58565 7.2009 2.02405 6.9697 1.60005 6.5897C1.10885 6.1497 0.800049 5.5113 0.800049 4.8009V4.7065C0.800049 4.6561 0.805649 4.5969 0.815249 4.5321C0.854449 4.1777 0.970449 3.8473 1.14725 3.5569L2.37685 1.2369ZM14.4 14.0009V8.4681C13.8954 8.68834 13.3506 8.80165 12.8 8.8009C11.9344 8.80218 11.0918 8.52134 10.4 8.0009C9.73125 8.5033 8.90085 8.8009 8.00005 8.8009C7.13436 8.80218 6.29183 8.52134 5.60005 8.0009C4.93125 8.5033 4.10085 8.8009 3.20005 8.8009C2.64946 8.80165 2.10468 8.68834 1.60005 8.4681V14.0009C1.60005 14.3192 1.72648 14.6244 1.95152 14.8494C2.17656 15.0745 2.48179 15.2009 2.80005 15.2009H4.40005C4.71831 15.2009 5.02353 15.0745 5.24858 14.8494C5.47362 14.6244 5.60005 14.3192 5.60005 14.0009V11.6009C5.60005 11.2826 5.72648 10.9774 5.95152 10.7524C6.17656 10.5273 6.48179 10.4009 6.80005 10.4009H9.20005C9.51831 10.4009 9.82353 10.5273 10.0486 10.7524C10.2736 10.9774 10.4 11.2826 10.4 11.6009V14.0009C10.4 14.3192 10.5265 14.6244 10.7515 14.8494C10.9766 15.0745 11.2818 15.2009 11.6 15.2009H13.2C13.5183 15.2009 13.8235 15.0745 14.0486 14.8494C14.2736 14.6244 14.4 14.3192 14.4 14.0009Z" fill="#6D7175"/>
</svg>
