<svg width="16" height="16" viewBox="0 0 16 16" fill="none" xmlns="http://www.w3.org/2000/svg">
<path d="M2.74997 0.399994C2.33576 0.399994 1.99997 0.73578 1.99997 1.14999C1.99997 1.56421 2.33576 1.89999 2.74997 1.89999H13.25C13.6642 1.89999 14 1.56421 14 1.14999C14 0.73578 13.6642 0.399994 13.25 0.399994H2.74997Z" fill="#6D7175"/>
<path d="M7.23213 14.9092V10.5136V6.11806L3.32838 10.3043C3.03938 10.6142 2.55386 10.6312 2.24394 10.3422C1.93402 10.0532 1.91707 9.56768 2.20607 9.25776L7.40172 3.68611C7.54237 3.51162 7.75786 3.39999 7.99941 3.39999C8.23666 3.39999 8.44876 3.50767 8.58951 3.67682L11.1917 6.46729L13.7938 9.25776C14.0828 9.56768 14.0659 10.0532 13.7559 10.3422C13.446 10.6312 12.9605 10.6142 12.6715 10.3043L8.7667 6.11693V14.9092C8.7667 15.333 8.42317 15.6765 7.99941 15.6765C7.57566 15.6765 7.23213 15.333 7.23213 14.9092Z" fill="#6D7175"/>
</svg>
