<svg width="16" height="16" viewBox="0 0 16 16" fill="none" xmlns="http://www.w3.org/2000/svg">
<path d="M13.9734 1.6008H2.02678C1.20189 1.6008 0.533447 2.23724 0.533447 3.02302V12.9786C0.533447 13.7644 1.20189 14.4008 2.02678 14.4008H13.9734C14.7983 14.4008 15.4668 13.7644 15.4668 12.9786V3.02302C15.4668 2.23724 14.7983 1.6008 13.9734 1.6008ZM10.7628 8.49235C10.7072 8.57093 10.6368 8.63794 10.5557 8.68969L7.04811 10.9164C6.88279 11.0214 6.68365 11.0594 6.49126 11.0228C6.29886 10.9861 6.12767 10.8775 6.01256 10.719C5.93119 10.6035 5.88742 10.4657 5.88723 10.3244V5.87102C5.88723 5.47813 6.22145 5.15991 6.63389 5.15991C6.78145 5.15991 6.92545 5.20169 7.04811 5.27902L10.5557 7.50569C10.8988 7.72347 10.9912 8.16524 10.7628 8.49147V8.49235Z" fill="#6D7175"/>
</svg>
