<svg width="16" height="16" viewBox="0 0 16 16" fill="none" xmlns="http://www.w3.org/2000/svg">
<g clip-path="url(#clip0_8325_32785)">
<path d="M13.3656 5.0352L15.7656 7.4352C15.8401 7.50938 15.8991 7.59752 15.9394 7.69458C15.9798 7.79164 16.0005 7.8957 16.0005 8.0008C16.0005 8.1059 15.9798 8.20996 15.9394 8.30702C15.8991 8.40408 15.8401 8.49222 15.7656 8.5664L13.3656 10.9664C13.2729 11.06 13.1584 11.1292 13.0324 11.1678C12.9064 11.2063 12.7728 11.2131 12.6436 11.1874C12.5143 11.1617 12.3934 11.1044 12.2918 11.0206C12.1901 10.9368 12.1107 10.8291 12.0608 10.7072C12.0002 10.561 11.9844 10.4001 12.0153 10.2449C12.0462 10.0896 12.1225 9.94708 12.2344 9.8352L13.2688 8.8008H9.60001C9.38783 8.8008 9.18435 8.71651 9.03432 8.56649C8.88429 8.41646 8.8 8.21297 8.8 8.0008C8.8 7.78863 8.88429 7.58514 9.03432 7.43512C9.18435 7.28509 9.38783 7.2008 9.60001 7.2008H13.2688L12.2344 6.1664C12.158 6.0926 12.0971 6.00433 12.0551 5.90672C12.0132 5.80912 11.9911 5.70414 11.9902 5.59792C11.9893 5.4917 12.0095 5.38635 12.0497 5.28804C12.09 5.18972 12.1494 5.1004 12.2245 5.02528C12.2996 4.95017 12.3889 4.89077 12.4872 4.85054C12.5856 4.81032 12.6909 4.79008 12.7971 4.791C12.9033 4.79192 13.0083 4.81399 13.1059 4.85592C13.2035 4.89785 13.2918 4.95879 13.3656 5.0352ZM2.63441 5.0352C2.7082 4.95879 2.79648 4.89785 2.89408 4.85592C2.99168 4.81399 3.09666 4.79192 3.20288 4.791C3.30911 4.79008 3.41445 4.81032 3.51277 4.85054C3.61109 4.89077 3.70041 4.95017 3.77552 5.02528C3.85064 5.1004 3.91004 5.18972 3.95026 5.28804C3.99049 5.38635 4.01073 5.4917 4.00981 5.59792C4.00888 5.70414 3.98681 5.80912 3.94489 5.90672C3.90296 6.00433 3.84201 6.0926 3.76561 6.1664L2.73121 7.2008H6.4C6.61218 7.2008 6.81566 7.28509 6.96569 7.43512C7.11572 7.58514 7.20001 7.78863 7.20001 8.0008C7.20001 8.21297 7.11572 8.41646 6.96569 8.56649C6.81566 8.71651 6.61218 8.8008 6.4 8.8008H2.73121L3.76561 9.8352C3.915 9.98553 3.99885 10.1889 3.99885 10.4008C3.99885 10.6127 3.915 10.8161 3.76561 10.9664C3.61558 11.1164 3.41214 11.2006 3.20001 11.2006C2.98787 11.2006 2.78443 11.1164 2.63441 10.9664L0.234406 8.5664C0.159953 8.49222 0.100879 8.40408 0.0605699 8.30702C0.0202612 8.20996 -0.000488281 8.1059 -0.000488281 8.0008C-0.000488281 7.8957 0.0202612 7.79164 0.0605699 7.69458C0.100879 7.59752 0.159953 7.50938 0.234406 7.4352L2.63441 5.0352Z" fill="#6D7175"/>
<path d="M0.799988 1.20079C0.799988 0.882534 0.926416 0.577309 1.15146 0.352265C1.3765 0.127222 1.68173 0.000793457 1.99999 0.000793457L14 0.000793457C14.3182 0.000793457 14.6235 0.127222 14.8485 0.352265C15.0736 0.577309 15.2 0.882534 15.2 1.20079V4.80079L13.6 3.20079V1.60079H2.39999V3.20079L0.799988 4.80079V1.20079ZM13.6 14.4008V12.8008L15.2 11.2008V14.8008C15.2 15.1191 15.0736 15.4243 14.8485 15.6493C14.6235 15.8744 14.3182 16.0008 14 16.0008H1.99999C1.68173 16.0008 1.3765 15.8744 1.15146 15.6493C0.926416 15.4243 0.799988 15.1191 0.799988 14.8008V11.2008L2.39999 12.8008V14.4008H13.6Z" fill="#6D7175"/>
</g>
<defs>
<clipPath id="clip0_8325_32785">
<rect width="16" height="16" fill="white" transform="translate(0 0.000793457)"/>
</clipPath>
</defs>
</svg>
