<svg width="16" height="16" viewBox="0 0 16 16" fill="none" xmlns="http://www.w3.org/2000/svg">
<path d="M8.80733 4.12461L5.72724 12.8082H3.08009L0 4.12461H2.25131L4.40366 10.6806L6.56839 4.12461H8.80733Z" fill="#6D7175"/>
<path d="M12.8333 12.8948C12.1983 12.8948 11.6293 12.7917 11.1263 12.5856C10.6232 12.3794 10.2192 12.0743 9.91404 11.6702C9.61716 11.2661 9.46048 10.7796 9.44398 10.2106H11.6953C11.7283 10.5322 11.8396 10.7796 12.0293 10.9528C12.219 11.1177 12.4663 11.2002 12.7715 11.2002C13.0848 11.2002 13.3322 11.1301 13.5137 10.9899C13.6951 10.8414 13.7858 10.6394 13.7858 10.3838C13.7858 10.1693 13.7116 9.99204 13.5631 9.85185C13.4229 9.71166 13.2456 9.59621 13.0312 9.50549C12.8251 9.41478 12.5282 9.3117 12.1406 9.19625C11.5798 9.02307 11.1222 8.84989 10.7676 8.67671C10.413 8.50354 10.1078 8.24789 9.85219 7.90978C9.59655 7.57168 9.46873 7.13048 9.46873 6.58621C9.46873 5.77805 9.76148 5.14719 10.347 4.69363C10.9325 4.23182 11.6953 4.00092 12.6354 4.00092C13.592 4.00092 14.3631 4.23182 14.9486 4.69363C15.5341 5.14719 15.8474 5.78217 15.8887 6.59858H13.6003C13.5838 6.3182 13.4807 6.09967 13.291 5.94298C13.1013 5.77805 12.8581 5.69558 12.5612 5.69558C12.3055 5.69558 12.0994 5.76568 11.9427 5.90587C11.786 6.03782 11.7077 6.23161 11.7077 6.48725C11.7077 6.76764 11.8396 6.98617 12.1035 7.14285C12.3674 7.29954 12.7797 7.46859 13.3405 7.65002C13.9013 7.83969 14.3548 8.02111 14.7012 8.19429C15.0558 8.36747 15.3609 8.61899 15.6165 8.94885C15.8722 9.27871 16 9.70341 16 10.2229C16 10.7177 15.8722 11.1672 15.6165 11.5713C15.3691 11.9753 15.0063 12.297 14.528 12.5361C14.0497 12.7753 13.4848 12.8948 12.8333 12.8948Z" fill="#6D7175"/>
</svg>
