<svg width="16" height="16" viewBox="0 0 16 16" fill="none" xmlns="http://www.w3.org/2000/svg">
<path fill-rule="evenodd" clip-rule="evenodd" d="M8.00007 0.800797C4.00052 0.800797 0.800049 4.00108 0.800049 8.00073C0.800049 12.0004 4.0005 15.2007 8.00007 15.2007C8.6411 15.2007 9.20006 14.6393 9.20006 14.0006C9.20006 13.6795 9.12043 13.4393 8.88137 13.2004C8.7195 12.9601 8.56024 12.7198 8.56024 12.4011C8.56024 11.7601 9.12043 11.2011 9.76024 11.2011H11.2004C13.4411 11.2011 15.2 9.44093 15.2 7.20036C15.2001 3.68008 12.0008 0.800797 8.00007 0.800797ZM3.60086 8.00074C2.95998 8.00074 2.401 7.43942 2.401 6.80075C2.401 6.16093 2.95996 5.60083 3.60086 5.60083C4.24084 5.60083 4.80085 6.16093 4.80085 6.80075C4.80087 7.43942 4.24087 8.00074 3.60086 8.00074ZM4.8008 3.60034C4.8008 4.24016 5.35976 4.80035 6.00078 4.80035C6.64062 4.80035 7.20081 4.24016 7.20079 3.60034C7.20079 2.96054 6.6406 2.40035 6.00078 2.40035C5.35976 2.40035 4.8008 2.96054 4.8008 3.60034ZM10.0005 4.80035C9.36047 4.80035 8.80047 4.24016 8.80047 3.60034C8.80047 2.96054 9.36047 2.40035 10.0005 2.40035C10.6403 2.40035 11.2003 2.96054 11.2003 3.60034C11.2003 4.24016 10.6403 4.80035 10.0005 4.80035ZM11.2004 6.80075C11.2004 7.43942 11.7606 8.00074 12.4004 8.00074C13.0404 8.00074 13.6004 7.43942 13.6004 6.80075C13.6004 6.16093 13.0404 5.60083 12.4004 5.60083C11.7606 5.60083 11.2004 6.16093 11.2004 6.80075Z" fill="#6D7175"/>
</svg>
