<svg width="16" height="16" viewBox="0 0 16 16" fill="none" xmlns="http://www.w3.org/2000/svg">
<path fill-rule="evenodd" clip-rule="evenodd" d="M8.79995 13.201V4.73219L11.4344 7.36659C11.7472 7.67939 12.2528 7.67939 12.5656 7.36659C12.8784 7.05379 12.8784 6.54819 12.5656 6.23539L8.56555 2.23539C8.25275 1.92259 7.74715 1.92259 7.43435 2.23539L3.43435 6.23539C3.27835 6.39139 3.19995 6.59619 3.19995 6.80099C3.19995 7.00579 3.27835 7.21059 3.43435 7.36659C3.74715 7.67939 4.25275 7.67939 4.56555 7.36659L7.19995 4.73219V13.201C7.19995 13.6434 7.55755 14.001 7.99995 14.001C8.44235 14.001 8.79995 13.6434 8.79995 13.201Z" fill="#6D7175"/>
</svg>
