<svg width="16" height="16" viewBox="0 0 16 16" fill="none" xmlns="http://www.w3.org/2000/svg">
<path d="M4.23443 1.83519C4.30856 1.76064 4.39668 1.70148 4.49375 1.66111C4.59082 1.62074 4.69491 1.59996 4.80003 1.59996C4.90516 1.59996 5.00925 1.62074 5.10632 1.66111C5.20338 1.70148 5.29151 1.76064 5.36563 1.83519L7.76563 4.23519C7.91136 4.38607 7.99199 4.58815 7.99017 4.79791C7.98835 5.00767 7.90421 5.20832 7.75589 5.35664C7.60756 5.50497 7.40691 5.5891 7.19715 5.59093C6.9874 5.59275 6.78531 5.51211 6.63443 5.36639L5.60003 4.33199V10.4008C5.60003 10.613 5.51575 10.8164 5.36572 10.9665C5.21569 11.1165 5.01221 11.2008 4.80003 11.2008C4.58786 11.2008 4.38438 11.1165 4.23435 10.9665C4.08432 10.8164 4.00003 10.613 4.00003 10.4008V4.33199L2.96563 5.36639C2.81475 5.51211 2.61267 5.59275 2.40291 5.59093C2.19315 5.5891 1.9925 5.50497 1.84418 5.35664C1.69585 5.20832 1.61172 5.00767 1.60989 4.79791C1.60807 4.58815 1.68871 4.38607 1.83443 4.23519L4.23443 1.83519ZM10.4 5.60079C10.4 5.38861 10.4843 5.18513 10.6343 5.0351C10.7844 4.88507 10.9879 4.80079 11.2 4.80079C11.4122 4.80079 11.6157 4.88507 11.7657 5.0351C11.9157 5.18513 12 5.38861 12 5.60079V11.6688L13.0344 10.6352C13.1087 10.5609 13.1969 10.502 13.2939 10.4618C13.391 10.4216 13.495 10.4009 13.6 10.4009C13.7051 10.4009 13.8091 10.4216 13.9061 10.4618C14.0032 10.502 14.0914 10.5609 14.1656 10.6352C14.2399 10.7095 14.2988 10.7976 14.339 10.8947C14.3792 10.9917 14.3999 11.0957 14.3999 11.2008C14.3999 11.3058 14.3792 11.4098 14.339 11.5069C14.2988 11.6039 14.2399 11.6921 14.1656 11.7664L11.7656 14.1664C11.6915 14.2409 11.6034 14.3001 11.5063 14.3405C11.4092 14.3808 11.3052 14.4016 11.2 14.4016C11.0949 14.4016 10.9908 14.3808 10.8938 14.3405C10.7967 14.3001 10.7086 14.2409 10.6344 14.1664L8.23443 11.7664C8.15988 11.6923 8.10072 11.6041 8.06036 11.5071C8.01999 11.41 7.9992 11.3059 7.9992 11.2008C7.9992 11.0957 8.01999 10.9916 8.06036 10.8945C8.10072 10.7974 8.15988 10.7093 8.23443 10.6352C8.30866 10.5608 8.39683 10.5018 8.49388 10.4616C8.59093 10.4213 8.69497 10.4006 8.80003 10.4006C8.9051 10.4006 9.00914 10.4213 9.10619 10.4616C9.20324 10.5018 9.2914 10.5608 9.36563 10.6352L10.4 11.6688V5.60079Z" fill="#6D7175"/>
</svg>
