<svg width="16" height="16" viewBox="0 0 16 16" fill="none" xmlns="http://www.w3.org/2000/svg">
<g clip-path="url(#clip0_16657_44242)">
<path d="M1.2 0C0.88174 0 0.576515 0.126428 0.351472 0.351472C0.126428 0.576515 0 0.88174 0 1.2L0 5.2C0 5.51826 0.126428 5.82348 0.351472 6.04853C0.576515 6.27357 0.88174 6.4 1.2 6.4H5.2C5.51826 6.4 5.82348 6.27357 6.04853 6.04853C6.27357 5.82348 6.4 5.51826 6.4 5.2V1.2C6.4 0.88174 6.27357 0.576515 6.04853 0.351472C5.82348 0.126428 5.51826 0 5.2 0L1.2 0ZM10.6344 6.1656C10.7082 6.24201 10.7965 6.30295 10.8941 6.34488C10.9917 6.38681 11.0967 6.40888 11.2029 6.4098C11.3091 6.41072 11.4144 6.39048 11.5128 6.35026C11.6111 6.31003 11.7004 6.25063 11.7755 6.17552C11.8506 6.1004 11.91 6.01108 11.9503 5.91276C11.9905 5.81445 12.0107 5.7091 12.0098 5.60288C12.0089 5.49665 11.9868 5.39168 11.9449 5.29408C11.903 5.19647 11.842 5.1082 11.7656 5.0344L10.7312 4H14C14.1061 4 14.2078 4.04214 14.2828 4.11716C14.3579 4.19217 14.4 4.29391 14.4 4.4V7.2C14.4 7.41217 14.4843 7.61566 14.6343 7.76568C14.7843 7.91571 14.9878 8 15.2 8C15.4122 8 15.6157 7.91571 15.7657 7.76568C15.9157 7.61566 16 7.41217 16 7.2V4.4C16 3.86957 15.7893 3.36086 15.4142 2.98579C15.0391 2.61071 14.5304 2.4 14 2.4H10.7312L11.7656 1.3656C11.9113 1.21472 11.992 1.01264 11.9901 0.802879C11.9883 0.593122 11.9042 0.392472 11.7559 0.244145C11.6075 0.0958186 11.4069 0.0116835 11.1971 0.00986077C10.9874 0.00803803 10.7853 0.0886735 10.6344 0.2344L8.2344 2.6344C8.08442 2.78442 8.00017 2.98787 8.00017 3.2C8.00017 3.41213 8.08442 3.61558 8.2344 3.7656L10.6344 6.1656ZM5.3656 9.8344C5.21472 9.68867 5.01264 9.60804 4.80288 9.60986C4.59312 9.61168 4.39247 9.69582 4.24415 9.84414C4.09582 9.99247 4.01168 10.1931 4.00986 10.4029C4.00804 10.6126 4.08867 10.8147 4.2344 10.9656L5.2688 12H2C1.89391 12 1.79217 11.9579 1.71716 11.8828C1.64214 11.8078 1.6 11.7061 1.6 11.6V8.8C1.6 8.58783 1.51571 8.38434 1.36569 8.23431C1.21566 8.08428 1.01217 8 0.8 8C0.587827 8 0.384344 8.08428 0.234315 8.23431C0.0842855 8.38434 0 8.58783 0 8.8L0 11.6C0 11.8626 0.0517315 12.1227 0.152241 12.3654C0.25275 12.608 0.400069 12.8285 0.585786 13.0142C0.771504 13.1999 0.991982 13.3472 1.23463 13.4478C1.47728 13.5483 1.73736 13.6 2 13.6H5.2688L4.2344 14.6344C4.15799 14.7082 4.09705 14.7965 4.05512 14.8941C4.01319 14.9917 3.99112 15.0967 3.9902 15.2029C3.98928 15.3091 4.00952 15.4144 4.04974 15.5128C4.08997 15.6111 4.14937 15.7004 4.22448 15.7755C4.2996 15.8506 4.38892 15.91 4.48724 15.9503C4.58555 15.9905 4.6909 16.0107 4.79712 16.0098C4.90334 16.0089 5.00832 15.9868 5.10592 15.9449C5.20353 15.903 5.2918 15.842 5.3656 15.7656L7.7656 13.3656C7.91558 13.2156 7.99983 13.0121 7.99983 12.8C7.99983 12.5879 7.91558 12.3844 7.7656 12.2344L5.3656 9.8344ZM16 14.8C16 15.1183 15.8736 15.4235 15.6485 15.6485C15.4235 15.8736 15.1183 16 14.8 16H10.8C10.4817 16 10.1765 15.8736 9.95147 15.6485C9.72643 15.4235 9.6 15.1183 9.6 14.8V10.8C9.6 10.4817 9.72643 10.1765 9.95147 9.95147C10.1765 9.72643 10.4817 9.6 10.8 9.6H14.8C15.1183 9.6 15.4235 9.72643 15.6485 9.95147C15.8736 10.1765 16 10.4817 16 10.8V14.8Z" fill="#6D7175"/>
</g>
<defs>
<clipPath id="clip0_16657_44242">
<rect width="16" height="16" fill="white"/>
</clipPath>
</defs>
</svg>
