<svg width="16" height="16" viewBox="0 0 16 16" fill="none" xmlns="http://www.w3.org/2000/svg">
<g clip-path="url(#clip0_5116_16437)">
<path fill-rule="evenodd" clip-rule="evenodd" d="M2.40002 1.20079C2.40002 0.538052 2.93728 0.000793457 3.60002 0.000793457H12.4C13.0628 0.000793457 13.6 0.538052 13.6 1.20079V14.8008C13.6 15.4635 13.0628 16.0008 12.4 16.0008H3.60002C2.93728 16.0008 2.40002 15.4635 2.40002 14.8008V1.20079ZM4.00002 1.60079H12V12.8008H4.00002V1.60079ZM7.20002 13.6008C6.7582 13.6008 6.40002 13.959 6.40002 14.4008C6.40002 14.8426 6.7582 15.2008 7.20002 15.2008H8.80002C9.24185 15.2008 9.60002 14.8426 9.60002 14.4008C9.60002 13.959 9.24185 13.6008 8.80002 13.6008H7.20002Z" fill="#6D7175"/>
</g>
<defs>
<clipPath id="clip0_5116_16437">
<rect width="16" height="16" fill="white" transform="translate(0 0.000793457)"/>
</clipPath>
</defs>
</svg>
