<svg width="16" height="16" viewBox="0 0 16 16" fill="none" xmlns="http://www.w3.org/2000/svg">
<path d="M2.39998 2.40079H13.6C13.8121 2.40079 14.0156 2.48507 14.1657 2.6351C14.3157 2.78513 14.4 2.98861 14.4 3.20079C14.4 3.41296 14.3157 3.61644 14.1657 3.76647C14.0156 3.9165 13.8121 4.00079 13.6 4.00079H2.39998C2.1878 4.00079 1.98432 3.9165 1.83429 3.76647C1.68426 3.61644 1.59998 3.41296 1.59998 3.20079C1.59998 2.98861 1.68426 2.78513 1.83429 2.6351C1.98432 2.48507 2.1878 2.40079 2.39998 2.40079ZM2.39998 5.60079H10.4C10.6121 5.60079 10.8156 5.68507 10.9657 5.8351C11.1157 5.98513 11.2 6.18861 11.2 6.40079C11.2 6.61296 11.1157 6.81644 10.9657 6.96647C10.8156 7.1165 10.6121 7.20079 10.4 7.20079H2.39998C2.1878 7.20079 1.98432 7.1165 1.83429 6.96647C1.68426 6.81644 1.59998 6.61296 1.59998 6.40079C1.59998 6.18861 1.68426 5.98513 1.83429 5.8351C1.98432 5.68507 2.1878 5.60079 2.39998 5.60079ZM2.39998 8.80079H13.6C13.8121 8.80079 14.0156 8.88507 14.1657 9.0351C14.3157 9.18513 14.4 9.38861 14.4 9.60079C14.4 9.81296 14.3157 10.0164 14.1657 10.1665C14.0156 10.3165 13.8121 10.4008 13.6 10.4008H2.39998C2.1878 10.4008 1.98432 10.3165 1.83429 10.1665C1.68426 10.0164 1.59998 9.81296 1.59998 9.60079C1.59998 9.38861 1.68426 9.18513 1.83429 9.0351C1.98432 8.88507 2.1878 8.80079 2.39998 8.80079ZM2.39998 12.0008H10.4C10.6121 12.0008 10.8156 12.0851 10.9657 12.2351C11.1157 12.3851 11.2 12.5886 11.2 12.8008C11.2 13.013 11.1157 13.2164 10.9657 13.3665C10.8156 13.5165 10.6121 13.6008 10.4 13.6008H2.39998C2.1878 13.6008 1.98432 13.5165 1.83429 13.3665C1.68426 13.2164 1.59998 13.013 1.59998 12.8008C1.59998 12.5886 1.68426 12.3851 1.83429 12.2351C1.98432 12.0851 2.1878 12.0008 2.39998 12.0008Z" fill="#6D7175"/>
</svg>
