<svg width="16" height="16" viewBox="0 0 16 16" fill="none" xmlns="http://www.w3.org/2000/svg">
<g clip-path="url(#clip0_5116_16416)">
<path fill-rule="evenodd" clip-rule="evenodd" d="M0.5 8.00079C0.5 12.1363 3.8645 15.5008 8 15.5008C12.1355 15.5008 15.5 12.1363 15.5 8.00079C15.5 3.86529 12.1355 0.500793 8 0.500793C3.8645 0.500793 0.5 3.86529 0.5 8.00079ZM4.25 8.00079C4.25 7.58658 4.58579 7.25079 5 7.25079H7.25V5.00079C7.25 4.58658 7.58579 4.25079 8 4.25079C8.41421 4.25079 8.75 4.58658 8.75 5.00079V7.25079H11C11.4142 7.25079 11.75 7.58658 11.75 8.00079C11.75 8.41501 11.4142 8.75079 11 8.75079H8.75V11.0008C8.75 11.415 8.41421 11.7508 8 11.7508C7.58579 11.7508 7.25 11.415 7.25 11.0008V8.75079H5C4.58579 8.75079 4.25 8.41501 4.25 8.00079Z" fill="#6D7175"/>
</g>
<defs>
<clipPath id="clip0_5116_16416">
<rect width="16" height="16" fill="white" transform="translate(0 0.000793457)"/>
</clipPath>
</defs>
</svg>
