<svg width="16" height="16" viewBox="0 0 16 16" fill="none" xmlns="http://www.w3.org/2000/svg">
<path d="M8.56558 1.83461C8.25278 1.52181 7.74718 1.52181 7.43438 1.83461L5.03438 4.23461C4.72158 4.54741 4.72158 5.05301 5.03438 5.36581C5.19038 5.52181 5.39518 5.60021 5.59998 5.60021C5.80478 5.60021 6.00958 5.52181 6.16558 5.36581L7.19998 4.33141V10.4002C7.19998 10.8418 7.55758 11.2002 7.99998 11.2002C8.44238 11.2002 8.79998 10.8418 8.79998 10.4002V4.33141L9.83438 5.36581C10.1472 5.67861 10.6528 5.67861 10.9656 5.36581C11.2784 5.05301 11.2784 4.54741 10.9656 4.23461L8.56558 1.83461Z" fill="#6D7175"/>
<path d="M2.39998 12.8C1.95815 12.8 1.59998 13.1582 1.59998 13.6C1.59998 14.0418 1.95815 14.4 2.39998 14.4H13.6C14.0418 14.4 14.4 14.0418 14.4 13.6C14.4 13.1582 14.0418 12.8 13.6 12.8H2.39998Z" fill="#6D7175"/>
</svg>
