<svg width="16" height="16" viewBox="0 0 16 16" fill="none" xmlns="http://www.w3.org/2000/svg">
<g clip-path="url(#clip0_8325_32788)">
<path d="M2.7904 4.00079C4.5096 2.45359 5.9824 1.60079 8 1.60079C9.69739 1.60079 11.3253 2.27508 12.5255 3.47531C13.7257 4.67554 14.4 6.30341 14.4 8.00079C14.4 9.69818 13.7257 11.326 12.5255 12.5263C11.3253 13.7265 9.69739 14.4008 8 14.4008C7.78783 14.4008 7.58435 14.4851 7.43432 14.6351C7.28429 14.7851 7.2 14.9886 7.2 15.2008C7.2 15.413 7.28429 15.6165 7.43432 15.7665C7.58435 15.9165 7.78783 16.0008 8 16.0008C12.4184 16.0008 16 12.4192 16 8.00079C16 3.58239 12.4184 0.000793457 8 0.000793457C5.3624 0.000793457 3.4848 1.19759 1.6 2.91839V0.800793C1.6 0.58862 1.51572 0.385137 1.36569 0.235108C1.21566 0.0850789 1.01217 0.000793457 0.800002 0.000793457C0.587828 0.000793457 0.384345 0.0850789 0.234316 0.235108C0.0842871 0.385137 1.60657e-06 0.58862 1.60657e-06 0.800793V4.80079C-0.00020926 4.90591 0.0203394 5.01003 0.0604685 5.10719C0.100598 5.20435 0.159517 5.29262 0.233846 5.36695C0.308175 5.44128 0.39645 5.5002 0.493606 5.54033C0.590761 5.58046 0.694885 5.601 0.800002 5.60079H4.8C5.01217 5.60079 5.21566 5.51651 5.36569 5.36648C5.51572 5.21645 5.6 5.01297 5.6 4.80079C5.6 4.58862 5.51572 4.38514 5.36569 4.23511C5.21566 4.08508 5.01217 4.00079 4.8 4.00079H2.7904Z" fill="#6D7175"/>
</g>
<defs>
<clipPath id="clip0_8325_32788">
<rect width="16" height="16" fill="white" transform="translate(0 0.000793457)"/>
</clipPath>
</defs>
</svg>
