<svg width="16" height="16" viewBox="0 0 16 16" fill="none" xmlns="http://www.w3.org/2000/svg">
<g clip-path="url(#clip0_17107_43803)">
<path d="M16 14.4C16 13.768 15.1856 12.4096 14.7192 11.6824C14.6855 11.6282 14.6385 11.5834 14.5826 11.5524C14.5268 11.5214 14.4639 11.5051 14.4 11.5051C14.3362 11.5051 14.2733 11.5214 14.2175 11.5524C14.1616 11.5834 14.1146 11.6282 14.0808 11.6824C13.6144 12.4096 12.8 13.768 12.8 14.4C12.8 15.2856 13.5144 16 14.4 16C15.2856 16 16 15.2856 16 14.4Z" fill="#6D7175"/>
<path d="M8.79995 0L4.38555 4.4L11.6 11.6144L16 7.2L12 3.2L9.59995 4L10.4 1.6L8.79995 0ZM2.79035 5.9904L3.19035 5.592L10.408 12.8104L9.97755 13.2432C9.51755 13.7032 8.78315 13.6984 8.23915 13.3424C7.39675 12.7904 6.52235 12.4368 5.64075 12.612C5.53899 12.6324 5.4381 12.6569 5.33835 12.6856C4.93355 12.8016 4.59435 13.0672 4.29755 13.3656C3.99835 13.6648 3.77275 14.044 3.54795 14.4224C3.24155 14.9368 2.93755 15.4496 2.44955 15.756C2.14398 15.9482 1.7824 16.0313 1.42357 15.992C1.06475 15.9527 0.729753 15.7932 0.473026 15.5395C0.2163 15.2857 0.0529267 14.9526 0.00945179 14.5943C-0.0340231 14.2359 0.0449553 13.8734 0.233554 13.5656C0.539954 13.0664 1.06155 12.756 1.58555 12.444C1.96555 12.2176 2.34715 11.9904 2.64795 11.6896C2.96635 11.3704 3.25035 11.0056 3.35995 10.568L3.37595 10.504C3.59195 9.5896 3.26875 8.6232 2.68955 7.7312C2.33515 7.1864 2.32955 6.4512 2.79035 5.9904Z" fill="#6D7175"/>
</g>
<defs>
<clipPath id="clip0_17107_43803">
<rect width="16" height="16" fill="white"/>
</clipPath>
</defs>
</svg>
