<svg width="16" height="16" viewBox="0 0 16 16" fill="none" xmlns="http://www.w3.org/2000/svg">
<g clip-path="url(#clip0_9158_38390)">
<path d="M14 0.800919H11.2V5.60092H15.2V2.00092C15.2 1.68266 15.0736 1.37743 14.8486 1.15239C14.6235 0.927347 14.3183 0.800919 14 0.800919ZM15.2 7.20092H11.2V15.2009H14C14.3183 15.2009 14.6235 15.0745 14.8486 14.8494C15.0736 14.6244 15.2 14.3192 15.2 14.0009V7.20092ZM0.800049 11.2009H9.60005V15.2009H2.00005C1.68179 15.2009 1.37656 15.0745 1.15152 14.8494C0.926477 14.6244 0.800049 14.3192 0.800049 14.0009V11.2009ZM2.00005 0.800919C1.68179 0.800919 1.37656 0.927347 1.15152 1.15239C0.926477 1.37743 0.800049 1.68266 0.800049 2.00092V9.60092H9.60005V0.800919H2.00005Z" fill="#6D7175"/>
</g>
<defs>
<clipPath id="clip0_9158_38390">
<rect width="16" height="16" fill="white" transform="translate(0 0.000915527)"/>
</clipPath>
</defs>
</svg>
