<svg width="16" height="16" viewBox="0 0 16 16" fill="none" xmlns="http://www.w3.org/2000/svg">
<g clip-path="url(#clip0_8325_32789)">
<path fill-rule="evenodd" clip-rule="evenodd" d="M0.799988 0.800793C0.799988 0.359193 1.15999 0.000793457 1.60319 0.000793457H2.80719C3.47199 0.000793457 4.01119 0.538393 4.01119 1.20079V1.64879L14.0704 2.37519C14.772 2.41919 15.2864 3.04959 15.188 3.74319L14.4952 8.57039C14.4536 8.85665 14.3104 9.11835 14.0916 9.30758C13.8728 9.49682 13.5932 9.60091 13.304 9.60079H4.01119V11.2008H12.0456C12.3614 11.2002 12.6741 11.2617 12.9661 11.382C13.2581 11.5023 13.5235 11.6789 13.7472 11.9018C13.9708 12.1247 14.1484 12.3894 14.2698 12.6809C14.3911 12.9725 14.4539 13.285 14.4544 13.6008C14.4544 14.9264 13.376 16.0008 12.0464 16.0008C11.662 16.0014 11.283 15.9097 10.9413 15.7336C10.5996 15.5575 10.3051 15.302 10.0826 14.9885C9.86005 14.6751 9.71591 14.3128 9.66229 13.9322C9.60866 13.5515 9.6471 13.1635 9.77439 12.8008H5.47999C5.60728 13.1635 5.64572 13.5515 5.59209 13.9322C5.53846 14.3128 5.39433 14.6751 5.17178 14.9885C4.94923 15.302 4.65475 15.5575 4.31306 15.7336C3.97136 15.9097 3.59241 16.0014 3.20799 16.0008C2.89229 16.0013 2.57958 15.9397 2.28771 15.8193C1.99584 15.699 1.73053 15.5224 1.50693 15.2995C1.28333 15.0766 1.10581 14.8119 0.984511 14.5205C0.863214 14.229 0.800513 13.9165 0.799988 13.6008C0.799988 12.556 1.47039 11.6664 2.40559 11.3368V1.60079H1.60319C1.49792 1.601 1.39364 1.58048 1.29631 1.54039C1.19897 1.5003 1.11049 1.44143 1.0359 1.36714C0.961318 1.29286 0.902096 1.20461 0.861618 1.10743C0.82114 1.01026 0.800198 0.906061 0.799988 0.800793ZM11.2432 13.6008C11.2432 13.1592 11.6024 12.8008 12.0456 12.8008C12.4888 12.8008 12.8488 13.1592 12.8488 13.6008C12.8488 14.0424 12.4888 14.4008 12.0456 14.4008C11.8331 14.401 11.6293 14.3169 11.4788 14.1669C11.3284 14.0169 11.2436 13.8133 11.2432 13.6008ZM2.40559 13.6008C2.40559 13.1592 2.76559 12.8008 3.20879 12.8008C3.65199 12.8008 4.01119 13.1592 4.01119 13.6008C4.01119 14.0424 3.65199 14.4008 3.20879 14.4008C3.10352 14.401 2.99924 14.3805 2.90191 14.3404C2.80457 14.3003 2.71609 14.2414 2.6415 14.1671C2.56692 14.0929 2.5077 14.0046 2.46722 13.9074C2.42674 13.8103 2.4058 13.7061 2.40559 13.6008Z" fill="#6D7175"/>
</g>
<defs>
<clipPath id="clip0_8325_32789">
<rect width="16" height="16" fill="white" transform="translate(0 0.000793457)"/>
</clipPath>
</defs>
</svg>
