<svg width="16" height="16" viewBox="0 0 16 16" fill="none" xmlns="http://www.w3.org/2000/svg">
<path d="M2.56668 14C2.13334 14 1.7639 13.8472 1.45834 13.5417C1.15279 13.2361 1.00001 12.8667 1.00001 12.4333L0.99995 3.58335C0.99995 3.15002 1.15273 2.7778 1.45828 2.46668C1.76384 2.15557 2.13328 2.00002 2.56662 2.00002L13.4166 2.00001C13.85 2.00001 14.2222 2.15557 14.5333 2.46668C14.8444 2.77779 15 3.15001 15 3.58334L15 12.4333C15 12.8667 14.8445 13.2361 14.5333 13.5417C14.2222 13.8472 13.85 14 13.4167 14L2.56668 14ZM3.80002 11.3333H7.03335V10H3.80002V11.3333ZM9.70002 10L12.9 6.8L11.95 5.85L9.70002 8.11667L8.75002 7.16667L7.81668 8.11667L9.70002 10ZM3.80002 8.66667H7.03335V7.33333H3.80002V8.66667ZM3.80002 6H7.03335V4.66667H3.80002V6Z" fill="#6D7175"/>
</svg>
