<svg width="16" height="16" viewBox="0 0 16 16" fill="none" xmlns="http://www.w3.org/2000/svg">
<path d="M8 7.00092C9.65685 7.00092 11 5.65777 11 4.00092C11 2.34406 9.65685 1.00092 8 1.00092C6.34315 1.00092 5 2.34406 5 4.00092C5 5.65777 6.34315 7.00092 8 7.00092Z" fill="#6D7175"/>
<path d="M4.49999 15.0011C3.86019 15.0011 3.22039 14.757 2.73223 14.2689C1.75592 13.2926 1.75592 11.7096 2.73223 10.7333C3.32149 10.1559 5.2 9.00092 8 9.00092C10.8 9.00092 12.6785 10.1559 13.2678 10.7333C14.2441 11.7096 14.2441 13.2926 13.2678 14.2689C12.7796 14.757 12.1398 15.0011 11.5 15.0011H4.49999Z" fill="#6D7175"/>
</svg>
