<svg width="16" height="16" viewBox="0 0 16 16" fill="none" xmlns="http://www.w3.org/2000/svg">
<path fill-rule="evenodd" clip-rule="evenodd" d="M1.00098 2.5C0.73576 2.5 0.481406 2.60536 0.29387 2.79289C0.106333 2.98043 0.000976563 3.23478 0.000976562 3.5V12.5C0.000976563 12.7652 0.106333 13.0196 0.29387 13.2071C0.481406 13.3946 0.73576 13.5 1.00098 13.5H15.001C15.2662 13.5 15.5205 13.3946 15.7081 13.2071C15.8956 13.0196 16.001 12.7652 16.001 12.5V3.5C16.001 3.23478 15.8956 2.98043 15.7081 2.79289C15.5205 2.60536 15.2662 2.5 15.001 2.5H1.00098ZM8.00098 11C8.79663 11 9.55969 10.6839 10.1223 10.1213C10.6849 9.55871 11.001 8.79565 11.001 8C11.001 7.20435 10.6849 6.44129 10.1223 5.87868C9.55969 5.31607 8.79663 5 8.00098 5C7.20533 5 6.44227 5.31607 5.87966 5.87868C5.31705 6.44129 5.00098 7.20435 5.00098 8C5.00098 8.79565 5.31705 9.55871 5.87966 10.1213C6.44227 10.6839 7.20533 11 8.00098 11Z" fill="#6D7175"/>
</svg>
