<svg width="16" height="16" viewBox="0 0 16 16" fill="none" xmlns="http://www.w3.org/2000/svg">
<path fill-rule="evenodd" clip-rule="evenodd" d="M6.08141 0.715357C6.1645 0.299869 6.52932 0.000793457 6.95303 0.000793457H9.05116C9.47488 0.000793457 9.83969 0.299869 9.92279 0.715357L10.2165 2.18416C10.8426 2.42265 11.4202 2.7593 11.9306 3.17531L13.3513 2.6947C13.7527 2.55892 14.1941 2.72532 14.406 3.09227L15.455 4.9093C15.6669 5.27625 15.5903 5.74173 15.272 6.02144L14.146 7.01097C14.1975 7.33332 14.2243 7.66393 14.2243 8.00079C14.2243 8.33765 14.1975 8.66826 14.146 8.9906L15.272 9.98014C15.5903 10.2598 15.6669 10.7253 15.455 11.0923L14.406 12.9093C14.1941 13.2763 13.7527 13.4427 13.3513 13.3069L11.9306 12.8263C11.4202 13.2423 10.8426 13.5789 10.2165 13.8174L9.92279 15.2862C9.83969 15.7017 9.47488 16.0008 9.05116 16.0008H6.95303C6.52932 16.0008 6.1645 15.7017 6.08141 15.2862L5.78765 13.8174C5.16159 13.5789 4.58397 13.2423 4.07359 12.8263L2.65289 13.3069C2.25152 13.4427 1.8101 13.2763 1.59824 12.9093L0.54918 11.0923C0.337322 10.7253 0.413922 10.2599 0.732197 9.98015L1.85817 8.99061C1.80664 8.66827 1.77987 8.33766 1.77987 8.00079C1.77987 7.66394 1.80664 7.33333 1.85817 7.01099L0.732197 6.02145C0.413922 5.74174 0.337322 5.27626 0.54918 4.90932L1.59824 3.09229C1.8101 2.72534 2.25152 2.55894 2.65289 2.69472L4.07358 3.17532C4.58396 2.7593 5.16158 2.42265 5.78764 2.18416L6.08141 0.715357ZM8.0021 10.6675C9.47486 10.6675 10.6688 9.47355 10.6688 8.00079C10.6688 6.52803 9.47486 5.33413 8.0021 5.33413C6.52934 5.33413 5.33543 6.52803 5.33543 8.00079C5.33543 9.47355 6.52934 10.6675 8.0021 10.6675Z" fill="#6D7175"/>
</svg>
