<svg width="16" height="16" viewBox="0 0 16 16" fill="none" xmlns="http://www.w3.org/2000/svg">
<path d="M1.68758 16.0009C1.23186 16.0009 0.836671 15.8336 0.502003 15.4989C0.167334 15.1642 0 14.7691 0 14.3133V1.70986C0 1.2399 0.167334 0.837587 0.502003 0.502918C0.836671 0.16825 1.23186 0.000915527 1.68758 0.000915527H14.2911C14.761 0.000915527 15.1633 0.16825 15.498 0.502918C15.8327 0.837587 16 1.2399 16 1.70986V14.3133C16 14.7691 15.8327 15.1642 15.498 15.4989C15.1633 15.8336 14.761 16.0009 14.2911 16.0009H1.68758ZM7.98932 11.9422C8.57321 11.9422 9.10013 11.7784 9.57009 11.4508C10.0401 11.1233 10.4388 10.6961 10.7664 10.1691H14.2911V1.70986H1.68758V10.1691H5.21228C5.53983 10.6961 5.93858 11.1233 6.40854 11.4508C6.8785 11.7784 7.40543 11.9422 7.98932 11.9422Z" fill="#6D7175"/>
</svg>
