<svg width="16" height="16" viewBox="0 0 16 16" fill="none" xmlns="http://www.w3.org/2000/svg">
<g clip-path="url(#clip0_9644_38375)">
<path fill-rule="evenodd" clip-rule="evenodd" d="M3 0.250793C3.41421 0.250793 3.75 0.58658 3.75 1.00079V12.2508H15C15.4142 12.2508 15.75 12.5866 15.75 13.0008C15.75 13.415 15.4142 13.7508 15 13.7508H3C2.58579 13.7508 2.25 13.415 2.25 13.0008V1.00079C2.25 0.58658 2.58579 0.250793 3 0.250793Z" fill="#6D7175"/>
<path fill-rule="evenodd" clip-rule="evenodd" d="M13 8.75079C12.5858 8.75079 12.25 8.41501 12.25 8.00079V3.75079L8 3.75079C7.58579 3.75079 7.25 3.41501 7.25 3.00079C7.25 2.58658 7.58579 2.25079 8 2.25079L13 2.25079C13.4142 2.25079 13.75 2.58658 13.75 3.00079L13.75 8.00079C13.75 8.41501 13.4142 8.75079 13 8.75079Z" fill="#6D7175"/>
<path fill-rule="evenodd" clip-rule="evenodd" d="M13 12.2508C13.4142 12.2508 13.75 12.5866 13.75 13.0008V15.0008C13.75 15.415 13.4142 15.7508 13 15.7508C12.5858 15.7508 12.25 15.415 12.25 15.0008V13.0008C12.25 12.5866 12.5858 12.2508 13 12.2508Z" fill="#6D7175"/>
<path fill-rule="evenodd" clip-rule="evenodd" d="M3.75 3.00079C3.75 3.41501 3.41421 3.75079 3 3.75079L1 3.75079C0.585786 3.75079 0.25 3.41501 0.25 3.00079C0.25 2.58658 0.585786 2.25079 1 2.25079L3 2.25079C3.41421 2.25079 3.75 2.58658 3.75 3.00079Z" fill="#6D7175"/>
</g>
<defs>
<clipPath id="clip0_9644_38375">
<rect width="16" height="16" fill="white" transform="translate(0 0.000793457)"/>
</clipPath>
</defs>
</svg>
