<svg width="16" height="16" viewBox="0 0 16 16" fill="none" xmlns="http://www.w3.org/2000/svg">
<path fill-rule="evenodd" clip-rule="evenodd" d="M4.28638 1.48496C5.41806 0.83996 6.69822 0.500817 8.0008 0.500916C9.14417 0.501074 10.2724 0.762634 11.2992 1.2656C12.3259 1.76857 13.2241 2.49964 13.9251 3.40292C14.6261 4.3062 15.1113 5.35779 15.3436 6.47731C15.5759 7.59682 15.5491 8.75463 15.2654 9.86223C14.9817 10.9698 14.4485 11.9979 13.7066 12.8679C12.9647 13.7379 12.0337 14.4267 10.9848 14.8818C9.93594 15.3368 8.79688 15.546 7.65472 15.4934C6.51257 15.4408 5.39756 15.1278 4.39492 14.5783L2.23139 15.1913C2.03425 15.2485 1.82536 15.2517 1.62655 15.2006C1.42774 15.1495 1.24628 15.046 1.10113 14.9008C0.955984 14.7557 0.852459 14.5742 0.801368 14.3754C0.750276 14.1766 0.75349 13.9677 0.810675 13.7706L1.42368 11.607C0.797432 10.4649 0.479448 9.17929 0.50103 7.87688C0.522612 6.57448 0.883016 5.30014 1.54676 4.17935C2.2105 3.05856 3.15469 2.12995 4.28638 1.48496ZM7.2407 5.06133L7.47176 6.21663C7.52931 6.50351 7.38739 6.79341 7.12518 6.92409L6.7033 7.13524C6.7033 8.00063 8.00138 9.29872 8.86676 9.29872L9.07791 8.87684C9.14159 8.74948 9.24539 8.6466 9.37331 8.58404C9.50123 8.52149 9.64617 8.50274 9.7858 8.53069L10.9411 8.76175C11.0882 8.79116 11.2206 8.87065 11.3158 8.9867C11.4109 9.10275 11.4629 9.24818 11.4629 9.39824V10.798C11.4629 11.1697 11.1492 11.4782 10.7775 11.4622C6.91965 11.2943 4.73975 9.62238 4.54028 5.22576C4.5234 4.85407 4.83321 4.5395 5.20532 4.5395H6.60421C6.75428 4.53949 6.89971 4.59148 7.01575 4.68663C7.1318 4.78177 7.21129 4.91418 7.2407 5.06133Z" fill="#6D7175"/>
</svg>
