<svg width="16" height="16" viewBox="0 0 16 16" fill="none" xmlns="http://www.w3.org/2000/svg">
<path d="M8.82415 13.715C8.31247 13.715 7.81596 13.6066 7.33463 13.3898C6.85331 13.173 6.42401 12.8781 6.04676 12.5052C5.6695 12.1323 5.36813 11.7008 5.14264 11.2108C4.91715 10.7208 4.80441 10.2026 4.80441 9.65626V9.14891C4.80441 8.94944 4.80224 8.73479 4.7979 8.50497C4.79357 8.27515 4.7914 8.04749 4.7914 7.822V7.21059C4.7914 6.95908 4.76538 6.75961 4.71335 6.61218C4.66131 6.46474 4.54857 6.39536 4.37511 6.40404C4.24503 6.40404 4.09542 6.40187 3.92631 6.39753C3.75719 6.3932 3.60325 6.39103 3.46449 6.39103C3.23901 6.39103 3.09374 6.33032 3.0287 6.2089C2.96365 6.08749 3.00918 5.92704 3.16529 5.72757C3.3214 5.51943 3.50569 5.28094 3.71817 5.01209C3.93064 4.74324 4.14963 4.46571 4.37511 4.17952C4.6006 3.89332 4.82175 3.61146 5.03857 3.33394C5.25538 3.05642 5.45052 2.80925 5.62397 2.59244C5.78007 2.39297 5.92751 2.29106 6.06627 2.28673C6.20503 2.28239 6.35246 2.37128 6.50857 2.55341C6.66468 2.74421 6.84897 2.96752 7.06145 3.22337C7.27393 3.47921 7.49291 3.74589 7.7184 4.02341C7.94388 4.30093 8.16504 4.57412 8.38185 4.84297C8.59866 5.11182 8.7938 5.35032 8.96725 5.55846C9.15805 5.78395 9.23176 5.97258 9.1884 6.12435C9.14504 6.27612 9.00628 6.352 8.77212 6.352C8.70273 6.352 8.61818 6.35417 8.51844 6.3585C8.41871 6.36284 8.31247 6.36718 8.19973 6.37151C8.08698 6.37585 7.97857 6.38019 7.8745 6.38452C7.77043 6.38886 7.67937 6.39103 7.60132 6.39103C7.43654 6.39103 7.33463 6.44089 7.29561 6.54063C7.25658 6.64036 7.23707 6.77696 7.23707 6.95041C7.24574 7.34068 7.25008 7.77864 7.25008 8.26431V9.61723C7.25008 9.8167 7.29561 10.0162 7.38667 10.2156C7.47773 10.4151 7.59915 10.5972 7.75092 10.762C7.90269 10.9268 8.07831 11.0612 8.27778 11.1653C8.47725 11.2694 8.68973 11.3214 8.91521 11.3214H9.82583C10.1727 11.3214 10.5088 11.3192 10.834 11.3149C11.1592 11.3106 11.4433 11.3084 11.6861 11.3084H12.1414C12.3322 11.3084 12.4905 11.3669 12.6162 11.484C12.742 11.6011 12.8374 11.7485 12.9024 11.9263C12.9675 12.1041 13 12.2971 13 12.5052C13 12.7133 12.9696 12.9063 12.9089 13.0841C12.8482 13.2619 12.7593 13.4093 12.6423 13.5264C12.5252 13.6435 12.3799 13.702 12.2065 13.702H11.8552H11.2438C11.0183 13.702 10.7777 13.7042 10.5218 13.7085C10.266 13.7129 10.021 13.715 9.78681 13.715H9.1884H8.82415Z" fill="#6D7175"/>
</svg>
