<svg width="16" height="16" viewBox="0 0 16 16" fill="none" xmlns="http://www.w3.org/2000/svg">
<path fill-rule="evenodd" clip-rule="evenodd" d="M12 9.6C11.3544 9.6 10.7704 9.8592 10.3384 10.2752L6.37038 8.2904C6.38238 8.1944 6.39998 8.1 6.39998 8C6.39998 7.9 6.38238 7.8056 6.37038 7.7096L10.3384 5.7248C10.7704 6.1408 11.3544 6.4 12 6.4C13.3232 6.4 14.4 5.3232 14.4 4C14.4 2.6768 13.3232 1.6 12 1.6C10.6768 1.6 9.59998 2.6768 9.59998 4C9.59998 4.1 9.61757 4.1944 9.62957 4.2904L5.66158 6.2752C5.22958 5.8592 4.64558 5.6 3.99998 5.6C2.67678 5.6 1.59998 6.6768 1.59998 8C1.59998 9.3232 2.67678 10.4 3.99998 10.4C4.64558 10.4 5.22958 10.1408 5.66158 9.7248L9.62957 11.7096C9.61757 11.8056 9.59998 11.9 9.59998 12C9.59998 13.3232 10.6768 14.4 12 14.4C13.3232 14.4 14.4 13.3232 14.4 12C14.4 10.6768 13.3232 9.6 12 9.6Z" fill="#6D7175"/>
</svg>
