<svg width="16" height="16" viewBox="0 0 16 16" fill="none" xmlns="http://www.w3.org/2000/svg">
<path d="M16 8C16 3.58172 12.4183 0 8 0C3.58172 0 0 3.58172 0 8C0 12.4183 3.58172 16 8 16C8.41421 16 8.75 15.6642 8.75 15.25C8.75 14.8358 8.41421 14.5 8 14.5C4.41015 14.5 1.5 11.5899 1.5 8C1.5 4.41015 4.41015 1.5 8 1.5C11.5899 1.5 14.5 4.41015 14.5 8C14.5 8.41421 14.8358 8.75 15.25 8.75C15.6642 8.75 16 8.41421 16 8Z" fill="#6D7175"/>
<path d="M11.7396 8.98959C12.1538 8.98959 12.4896 8.65381 12.4896 8.23959C12.4896 7.82538 12.1538 7.48959 11.7396 7.48959L8.18741 7.49139L8.13523 7.4968L8.02298 7.52135L7.93336 7.55476L7.81509 7.62113C7.77784 7.64676 7.74239 7.67614 7.70926 7.70926L7.63085 7.80131L7.5674 7.90657L7.52384 8.01491L7.5031 8.09714C7.49424 8.14326 7.48959 8.19089 7.48959 8.23959V11.7396L7.49644 11.8414C7.5461 12.2074 7.8599 12.4896 8.23959 12.4896L8.35042 12.4815C8.71208 12.4279 8.98959 12.1161 8.98959 11.7396L8.98974 10.0492L13.7197 14.7803C14.0126 15.0732 14.4874 15.0732 14.7803 14.7803C15.0732 14.4874 15.0732 14.0126 14.7803 13.7197L10.0511 8.98921L11.7396 8.98959Z" fill="#6D7175"/>
</svg>
