<svg width="16" height="16" viewBox="0 0 16 16" fill="none" xmlns="http://www.w3.org/2000/svg">
<path fill-rule="evenodd" clip-rule="evenodd" d="M7.20015 2.80079V11.2696L4.56575 8.6352C4.25295 8.3224 3.74735 8.3224 3.43455 8.6352C3.12175 8.948 3.12175 9.4536 3.43455 9.7664L7.43455 13.7664C7.74735 14.0792 8.25295 14.0792 8.56575 13.7664L12.5658 9.7664C12.7218 9.6104 12.8002 9.4056 12.8002 9.2008C12.8002 8.996 12.7218 8.7912 12.5658 8.6352C12.253 8.3224 11.7474 8.3224 11.4346 8.6352L8.80015 11.2696V2.80079C8.80015 2.35839 8.44255 2.00079 8.00015 2.00079C7.55775 2.00079 7.20015 2.35839 7.20015 2.80079Z" fill="#6D7175"/>
</svg>
