<svg width="16" height="16" viewBox="0 0 16 16" fill="none" xmlns="http://www.w3.org/2000/svg">
<g clip-path="url(#clip0_5116_16466)">
<path d="M13.8875 4.51867C13.9656 4.59671 14.0436 4.6973 14.1225 4.81957H10.1727V0.869693C10.2958 0.947736 10.3955 1.02578 10.4736 1.10469L13.8884 4.51954L13.8875 4.51867ZM9.90297 5.8905H14.4564V14.7294C14.4564 14.9522 14.3783 15.1422 14.2214 15.2982C14.0644 15.4543 13.8754 15.5332 13.6525 15.5332H2.40297C2.18011 15.5332 1.99021 15.4552 1.83412 15.2982C1.67803 15.1413 1.59912 14.9522 1.59912 14.7294V1.33709C1.59912 1.11423 1.67716 0.924323 1.83412 0.768236C1.99107 0.612148 2.18011 0.533237 2.40297 0.533237H9.09912V5.08665C9.09912 5.30951 9.17716 5.49942 9.33412 5.65551C9.49107 5.81159 9.68011 5.8905 9.90297 5.8905ZM11.2419 12.0516V11.5157C11.2419 11.4377 11.2167 11.3735 11.1664 11.3232C11.1161 11.2729 11.0519 11.2478 10.9739 11.2478H5.0816C5.04606 11.2463 5.0106 11.2522 4.97747 11.2652C4.94434 11.2781 4.91426 11.2978 4.88915 11.323C4.86404 11.3482 4.84443 11.3784 4.83159 11.4115C4.81874 11.4447 4.81293 11.4802 4.81452 11.5157V12.0516C4.81452 12.1297 4.83967 12.1938 4.8891 12.2441C4.93852 12.2944 5.00356 12.3196 5.0816 12.3196H10.9739C11.0519 12.3196 11.1161 12.2944 11.1664 12.2441C11.2167 12.1938 11.2419 12.1297 11.2419 12.0516ZM11.2419 9.90889V9.37299C11.2419 9.29494 11.2167 9.23077 11.1664 9.18048C11.1161 9.13019 11.0519 9.10504 10.9739 9.10504H5.0816C5.04606 9.10356 5.0106 9.10949 4.97747 9.12244C4.94434 9.1354 4.91426 9.15509 4.88915 9.18029C4.86404 9.20548 4.84443 9.23562 4.83159 9.2688C4.81874 9.30197 4.81293 9.33745 4.81452 9.37299V9.90889C4.81452 9.98693 4.83967 10.0511 4.8891 10.1014C4.93852 10.1517 5.00356 10.1768 5.0816 10.1768H10.9739C11.0519 10.1768 11.1161 10.1517 11.1664 10.1014C11.2167 10.0511 11.2419 9.98693 11.2419 9.90889ZM11.2419 7.76615V7.23025C11.2433 7.19471 11.2374 7.15925 11.2245 7.12612C11.2115 7.09299 11.1918 7.06291 11.1666 7.0378C11.1414 7.01269 11.1113 6.99308 11.0781 6.98024C11.0449 6.96739 11.0094 6.96158 10.9739 6.96317H5.0816C5.0461 6.96157 5.01066 6.96738 4.97753 6.98024C4.9444 6.99309 4.91431 7.01271 4.88919 7.03784C4.86406 7.06296 4.84444 7.09305 4.83159 7.12618C4.81873 7.15931 4.81292 7.19475 4.81452 7.23025V7.76615C4.81292 7.80165 4.81873 7.8371 4.83159 7.87023C4.84444 7.90336 4.86406 7.93344 4.88919 7.95857C4.91431 7.9837 4.9444 8.00332 4.97753 8.01617C5.01066 8.02903 5.0461 8.03484 5.0816 8.03324H10.9739C11.0519 8.03324 11.1161 8.00809 11.1664 7.95866C11.2167 7.90923 11.2419 7.8442 11.2419 7.76615Z" fill="#6D7175"/>
</g>
<defs>
<clipPath id="clip0_5116_16466">
<rect width="16" height="16" fill="white" transform="translate(0 0.000793457)"/>
</clipPath>
</defs>
</svg>
