<svg width="16" height="16" viewBox="0 0 16 16" fill="none" xmlns="http://www.w3.org/2000/svg">
<g clip-path="url(#clip0_8785_39516)">
<g clip-path="url(#clip1_8785_39516)">
<path d="M4.90002 7.43424C5.13335 7.43424 5.3278 7.35646 5.48335 7.20091C5.63891 7.04535 5.71669 6.85091 5.71669 6.61758C5.71669 6.38424 5.63891 6.1898 5.48335 6.03424C5.3278 5.87869 5.13335 5.80091 4.90002 5.80091C4.66669 5.80091 4.47224 5.87869 4.31669 6.03424C4.16113 6.1898 4.08335 6.38424 4.08335 6.61758C4.08335 6.85091 4.16113 7.04535 4.31669 7.20091C4.47224 7.35646 4.66669 7.43424 4.90002 7.43424ZM8.05002 7.43424C8.28335 7.43424 8.4778 7.35646 8.63335 7.20091C8.78891 7.04535 8.86669 6.85091 8.86669 6.61758C8.86669 6.38424 8.78891 6.1898 8.63335 6.03424C8.4778 5.87869 8.28335 5.80091 8.05002 5.80091C7.81669 5.80091 7.62224 5.87869 7.46669 6.03424C7.31113 6.1898 7.23335 6.38424 7.23335 6.61758C7.23335 6.85091 7.31113 7.04535 7.46669 7.20091C7.62224 7.35646 7.81669 7.43424 8.05002 7.43424ZM11.0834 7.43424C11.3167 7.43424 11.5111 7.35646 11.6667 7.20091C11.8222 7.04535 11.9 6.85091 11.9 6.61758C11.9 6.38424 11.8222 6.1898 11.6667 6.03424C11.5111 5.87869 11.3167 5.80091 11.0834 5.80091C10.85 5.80091 10.6556 5.87869 10.5 6.03424C10.3445 6.1898 10.2667 6.38424 10.2667 6.61758C10.2667 6.85091 10.3445 7.04535 10.5 7.20091C10.6556 7.35646 10.85 7.43424 11.0834 7.43424ZM0.916687 15.0842V2.48424C0.916687 2.06202 1.06946 1.69258 1.37502 1.37591C1.68058 1.05924 2.05002 0.900909 2.48335 0.900909H13.5167C13.9389 0.900909 14.3084 1.05924 14.625 1.37591C14.9417 1.69258 15.1 2.06202 15.1 2.48424V10.8509C15.1 11.2731 14.9417 11.6398 14.625 11.9509C14.3084 12.262 13.9389 12.4176 13.5167 12.4176H3.58335L0.916687 15.0842Z" fill="#6D7175"/>
</g>
</g>
<defs>
<clipPath id="clip0_8785_39516">
<rect width="16" height="16" fill="white" transform="translate(0 0.000915527)"/>
</clipPath>
<clipPath id="clip1_8785_39516">
<rect width="16" height="16" fill="white" transform="translate(0 0.000915527)"/>
</clipPath>
</defs>
</svg>
