<svg width="16" height="16" viewBox="0 0 16 16" fill="none" xmlns="http://www.w3.org/2000/svg">
<path fill-rule="evenodd" clip-rule="evenodd" d="M13 6.00079V5.00079C13 2.24379 10.757 0.000793457 8 0.000793457C5.243 0.000793457 3 2.24379 3 5.00079V6.00079C2.73478 6.00079 2.48043 6.10615 2.29289 6.29369C2.10536 6.48122 2 6.73558 2 7.00079V14.5008C2 14.8986 2.15804 15.2801 2.43934 15.5615C2.72064 15.8428 3.10218 16.0008 3.5 16.0008H12.5C12.8978 16.0008 13.2794 15.8428 13.5607 15.5615C13.842 15.2801 14 14.8986 14 14.5008V7.00079C14 6.73558 13.8946 6.48122 13.7071 6.29369C13.5196 6.10615 13.2652 6.00079 13 6.00079ZM7 13.0008H9V9.00079H7V13.0008ZM11 6.00079H5V5.00079C5 3.34679 6.346 2.00079 8 2.00079C9.654 2.00079 11 3.34679 11 5.00079V6.00079Z" fill="#6D7175"/>
</svg>
