<svg width="16" height="16" viewBox="0 0 16 16" fill="none" xmlns="http://www.w3.org/2000/svg">
<g clip-path="url(#clip0_13073_43419)">
<path fill-rule="evenodd" clip-rule="evenodd" d="M13.248 3.64892L9.95202 0.352916C9.7272 0.127808 9.42218 0.00119561 9.10402 0.000915527L3.60002 0.000915527C3.28176 0.000915527 2.97654 0.127344 2.7515 0.352387C2.52645 0.577431 2.40002 0.882656 2.40002 1.20092V14.8009C2.40002 15.1192 2.52645 15.4244 2.7515 15.6494C2.97654 15.8745 3.28176 16.0009 3.60002 16.0009H12C12.4244 16.0009 12.8313 15.8323 13.1314 15.5323C13.4315 15.2322 13.6 14.8253 13.6 14.4009V4.49692C13.5997 4.17876 13.4731 3.87374 13.248 3.64892ZM6.72002 5.60092C5.92002 5.60092 5.20002 6.32092 5.20002 7.20092C5.20002 8.96092 6.24002 10.3209 8.00002 11.2009C9.76002 10.3209 10.8 8.96092 10.8 7.28092V7.12092C10.8 6.32092 10.08 5.60092 9.28003 5.60092C8.48002 5.60092 8.00002 6.53452 8.00002 6.53452C8.00002 6.53452 7.52002 5.60092 6.72002 5.60092Z" fill="#6D7175"/>
</g>
<defs>
<clipPath id="clip0_13073_43419">
<rect width="16" height="16" fill="white" transform="translate(0 0.000915527)"/>
</clipPath>
</defs>
</svg>
