<svg width="16" height="16" viewBox="0 0 16 16" fill="none" xmlns="http://www.w3.org/2000/svg">
<path fill-rule="evenodd" clip-rule="evenodd" d="M2.34078 1.692C2.12179 1.78327 1.93465 1.93721 1.80285 2.13448C1.67105 2.33174 1.60047 2.56355 1.59998 2.8008V3.6672H3.19998V3.2008H3.66878V1.9728L3.66638 1.9712V1.6008H2.79998C2.63758 1.6008 2.48238 1.6328 2.34078 1.692ZM5.39998 1.6008V3.2008H7.13358V1.6008H5.39998ZM8.86638 1.6008V3.2008H10.6V1.6008H8.86638ZM12.3336 1.6008V3.2008H12.8V3.6672L14.028 3.668H14.4V2.8008C14.4 2.48254 14.2735 2.17732 14.0485 1.95227C13.8235 1.72723 13.5182 1.6008 13.2 1.6008H12.3336ZM14.4 5.4008H12.8V7.1344H14.4V5.4008ZM7.13358 14.4008V12.8008H5.39998V14.4008H7.13358ZM3.66638 14.4008V14.0328L3.66718 14.032V12.8008H3.20158V12.332H1.97358L1.97118 12.3344H1.59998V13.2008C1.59998 13.3632 1.63198 13.5184 1.69118 13.66H1.69198C1.81358 13.9528 2.04798 14.188 2.34078 14.3088V14.3096C2.48637 14.3699 2.64241 14.4008 2.79998 14.4008H3.66638ZM1.59998 10.6008H3.19998V8.8672H1.59998V10.6008ZM1.59998 7.1344H3.19998V5.4008H1.59998V7.1344ZM9.31358 8.0648C9.24262 8.03233 9.16373 8.02132 9.0866 8.03312C9.00947 8.04493 8.93747 8.07904 8.87948 8.13124C8.82149 8.18345 8.78004 8.25148 8.76023 8.32695C8.74041 8.40242 8.74311 8.48204 8.76798 8.556L10.7424 14.4248C10.7635 14.4877 10.8 14.5444 10.8485 14.5897C10.897 14.635 10.956 14.6676 11.0202 14.6844C11.0844 14.7012 11.1518 14.7018 11.2162 14.6861C11.2807 14.6704 11.3403 14.6389 11.3896 14.5944L12.5336 13.564L14.4824 15.7288C14.6256 15.8816 14.823 15.9722 15.0322 15.9811C15.2415 15.99 15.4459 15.9165 15.6015 15.7764C15.7572 15.6362 15.8516 15.4406 15.8647 15.2316C15.8777 15.0226 15.8082 14.8168 15.6712 14.6584L13.7216 12.4936L15.0464 11.3008C15.0956 11.2564 15.133 11.2004 15.1553 11.138C15.1775 11.0755 15.1839 11.0085 15.1738 10.943C15.1637 10.8775 15.1375 10.8155 15.0975 10.7626C15.0576 10.7097 15.0051 10.6676 14.9448 10.64L9.31358 8.064V8.0648Z" fill="#6D7175"/>
</svg>
