<svg width="16" height="16" viewBox="0 0 16 16" fill="none" xmlns="http://www.w3.org/2000/svg">
<path fill-rule="evenodd" clip-rule="evenodd" d="M2.59595 2.26703C1.49138 2.26703 0.595947 3.16246 0.595947 4.26703V11.7344C0.595947 12.839 1.49138 13.7344 2.59595 13.7344H10.0634C11.1679 13.7344 12.0634 12.839 12.0634 11.7344V10.7136L13.9039 11.7763C14.5706 12.1612 15.4039 11.6801 15.4039 10.9103V5.09103C15.4039 4.32123 14.5706 3.84011 13.9039 4.22501L12.0634 5.28766V4.26703C12.0634 3.16246 11.1679 2.26703 10.0634 2.26703H2.59595ZM4.3245 5.2746C3.9368 5.2746 3.6225 5.5889 3.6225 5.9766C3.6225 6.36431 3.9368 6.67861 4.3245 6.67861H7.42049C7.8082 6.67861 8.1225 6.36431 8.1225 5.9766C8.1225 5.5889 7.8082 5.2746 7.42049 5.2746H4.3245Z" fill="#6D7175"/>
</svg>
