<svg width="16" height="16" viewBox="0 0 16 16" fill="none" xmlns="http://www.w3.org/2000/svg">
<path d="M1.95557 2.40001C1.95557 2.08175 2.07497 1.77653 2.28751 1.55148C2.50005 1.32644 2.78832 1.20001 3.0889 1.20001H6.11112C6.4117 1.20001 6.69997 1.32644 6.91251 1.55148C7.12505 1.77653 7.24446 2.08175 7.24446 2.40001V2.80001H8.75557V2.40001C8.75557 2.08175 8.87497 1.77653 9.08751 1.55148C9.30005 1.32644 9.58832 1.20001 9.8889 1.20001H12.9111C13.2117 1.20001 13.5 1.32644 13.7125 1.55148C13.9251 1.77653 14.0445 2.08175 14.0445 2.40001V3.01441C14.2742 3.15484 14.4649 3.35681 14.5976 3.60004C14.7302 3.84326 14.8 4.11916 14.8 4.40001V8.40001H1.20001V4.40001C1.20002 4.11916 1.26984 3.84326 1.40247 3.60004C1.5351 3.35681 1.72586 3.15484 1.95557 3.01441V2.40001ZM1.20001 10H14.8V13.2C14.8 13.6244 14.6408 14.0313 14.3574 14.3314C14.074 14.6314 13.6897 14.8 13.2889 14.8H2.71112C2.31035 14.8 1.92599 14.6314 1.64261 14.3314C1.35922 14.0313 1.20001 13.6244 1.20001 13.2V10Z" fill="#6D7175"/>
</svg>
