<svg width="16" height="16" viewBox="0 0 16 16" fill="none" xmlns="http://www.w3.org/2000/svg">
<rect opacity="0.01" y="0.000793457" width="16" height="16" fill="#6D7175"/>
<path fill-rule="evenodd" clip-rule="evenodd" d="M0.5 8.00079C0.5 12.1363 3.8645 15.5008 8 15.5008C12.1355 15.5008 15.5 12.1363 15.5 8.00079C15.5 3.86529 12.1355 0.500793 8 0.500793C3.8645 0.500793 0.5 3.86529 0.5 8.00079ZM11.9053 6.65612C12.1982 6.36323 12.1982 5.88836 11.9053 5.59546C11.6124 5.30257 11.1376 5.30257 10.8447 5.59546L7.25 9.19013L5.53033 7.47046C5.23744 7.17757 4.76256 7.17757 4.46967 7.47046C4.17678 7.76336 4.17678 8.23823 4.46967 8.53112L6.71967 10.7811C7.01256 11.074 7.48744 11.074 7.78033 10.7811L11.9053 6.65612Z" fill="#6D7175"/>
</svg>
