<svg width="16" height="16" viewBox="0 0 16 16" fill="none" xmlns="http://www.w3.org/2000/svg">
<g clip-path="url(#clip0_8325_32769)">
<path d="M8.80005 0.800781H13.6C14.4837 0.800781 15.2 1.51713 15.2 2.40078V7.20078C15.2001 7.81512 14.9658 8.4295 14.4971 8.89822L8.89709 14.4982C7.95984 15.4354 6.44025 15.4354 5.50299 14.4982L1.50299 10.4982C0.565734 9.56094 0.565734 8.04134 1.50299 7.10409L7.10299 1.50409C7.57162 1.03546 8.18581 0.800781 8.80005 0.800781ZM11.2 6.40078C12.0837 6.40078 12.8 5.68444 12.8 4.80078C12.8 3.91713 12.0837 3.20078 11.2 3.20078C10.3164 3.20078 9.60005 3.91713 9.60005 4.80078C9.60005 5.68444 10.3164 6.40078 11.2 6.40078Z" fill="#6D7175"/>
</g>
<defs>
<clipPath id="clip0_8325_32769">
<rect width="16" height="16" fill="white" transform="translate(0 0.000793457)"/>
</clipPath>
</defs>
</svg>
