<svg width="16" height="16" viewBox="0 0 16 16" fill="none" xmlns="http://www.w3.org/2000/svg">
<g clip-path="url(#clip0_6563_13001)">
<path d="M3.20181 4.00079L0.439376 5.40879C0.167923 5.54479 -0.00772265 5.82479 0.000261254 6.12879V14.4008C0.000261254 14.8088 0.30365 15.1448 0.702845 15.1928L7.1219 15.9928C7.15384 16.0008 7.18577 16.0008 7.21771 16.0008C7.56102 16.0008 7.8644 15.7848 7.97618 15.4568L9.38933 11.2008H12.008C13.046 11.2008 13.9322 10.5288 14.2595 9.60079H14.8024C15.4651 9.60079 16 9.06479 16 8.40079V4.00079H3.20181ZM4 8.00079H12.008C12.2236 8.00079 12.4152 8.08079 12.5749 8.24879C12.7266 8.39279 12.8064 8.58479 12.8064 8.80079C12.8064 9.24079 12.4472 9.60079 12.008 9.60079H8.81449C8.47118 9.60079 8.16779 9.82479 8.05602 10.1448L6.66682 14.3288L1.59704 13.6968L1.59704 6.61679L3.20181 5.81679L3.20161 7.20879C3.20959 7.64879 3.56089 8.00079 4 8.00079ZM14.8024 0.800793H4.39939C3.73673 0.800793 3.20181 1.33679 3.20181 2.00079V2.40079H16V2.00079C16 1.33679 15.4651 0.800793 14.8024 0.800793Z" fill="#6D7175"/>
</g>
<defs>
<clipPath id="clip0_6563_13001">
<rect width="16" height="16" fill="white" transform="translate(0 0.000793457)"/>
</clipPath>
</defs>
</svg>
