<svg width="16" height="16" viewBox="0 0 16 16" fill="none" xmlns="http://www.w3.org/2000/svg">
<g clip-path="url(#clip0_8596_39224)">
<path fill-rule="evenodd" clip-rule="evenodd" d="M16 8.00079C16 12.4192 12.4184 16.0008 8 16.0008C3.5816 16.0008 0 12.4192 0 8.00079C0 3.58239 3.5816 0.000793457 8 0.000793457C12.4184 0.000793457 16 3.58239 16 8.00079ZM4.2344 6.63519L7.4344 3.43519C7.58442 3.28522 7.78787 3.20096 8 3.20096C8.21213 3.20096 8.41558 3.28522 8.5656 3.43519L11.7656 6.63519C11.9113 6.78608 11.992 6.98816 11.9901 7.19791C11.9883 7.40767 11.9042 7.60832 11.7559 7.75665C11.6075 7.90497 11.4069 7.98911 11.1971 7.99093C10.9874 7.99276 10.7853 7.91212 10.6344 7.76639L8.8 5.93199V12.0008C8.8 12.213 8.71571 12.4164 8.56569 12.5665C8.41566 12.7165 8.21217 12.8008 8 12.8008C7.78783 12.8008 7.58434 12.7165 7.43431 12.5665C7.28429 12.4164 7.2 12.213 7.2 12.0008V5.93199L5.3656 7.76639C5.21472 7.91212 5.01264 7.99276 4.80288 7.99093C4.59312 7.98911 4.39247 7.90497 4.24415 7.75665C4.09582 7.60832 4.01168 7.40767 4.00986 7.19791C4.00804 6.98816 4.08867 6.78608 4.2344 6.63519Z" fill="#6D7175"/>
</g>
<defs>
<clipPath id="clip0_8596_39224">
<rect width="16" height="16" fill="white" transform="translate(0 0.000793457)"/>
</clipPath>
</defs>
</svg>
