<svg width="16" height="16" viewBox="0 0 16 16" fill="none" xmlns="http://www.w3.org/2000/svg">
<path d="M12.7146 1.80079C12.6389 1.70691 12.543 1.63126 12.434 1.57941C12.3251 1.52756 12.2059 1.50084 12.0853 1.50124H3.91462C3.79398 1.50084 3.6748 1.52756 3.56587 1.57941C3.45694 1.63126 3.36105 1.70691 3.28529 1.80079L1.49951 5.11102H14.5004L12.7146 1.80079ZM1.49951 13.751C1.49951 13.95 1.57855 14.1408 1.71925 14.2815C1.85994 14.4222 2.05076 14.5012 2.24973 14.5012H13.7511C13.95 14.5012 14.1409 14.4222 14.2816 14.2815C14.4222 14.1408 14.5013 13.95 14.5013 13.751V6.00079H1.5004V13.751H1.49951ZM4.5004 8.24968H8.5004V9.24968H4.5004V8.25057V8.24968ZM4.5004 10.2497H10.5004V11.2497H4.5004V10.2497Z" fill="#6D7175"/>
</svg>
