<svg width="16" height="16" viewBox="0 0 16 16" fill="none" xmlns="http://www.w3.org/2000/svg">
<path fill-rule="evenodd" clip-rule="evenodd" d="M5.5 2.5V4H11C11.5523 4 12 4.44772 12 5V10.5H13.5V2.5H5.5ZM12 12V14C12 14.5523 11.5523 15 11 15H2C1.44771 15 1 14.5523 1 14V5C1 4.44772 1.44772 4 2 4H4V2C4 1.44771 4.44772 1 5 1H14C14.5523 1 15 1.44772 15 2V11C15 11.5523 14.5523 12 14 12H12ZM2.5 5.5V13.5H10.5V5.5H2.5ZM3.5 9.5C3.5 9.08579 3.83579 8.75 4.25 8.75H8.75C9.16421 8.75 9.5 9.08579 9.5 9.5C9.5 9.91421 9.16421 10.25 8.75 10.25H4.25C3.83579 10.25 3.5 9.91421 3.5 9.5Z" fill="#6D7175"/>
</svg>
