<svg width="16" height="16" viewBox="0 0 16 16" fill="none" xmlns="http://www.w3.org/2000/svg">
<path fill-rule="evenodd" clip-rule="evenodd" d="M2.97141 0H13.0285C13.7856 0 14.4 0.541604 14.4 1.20961V15.7777C14.4001 15.8087 14.3899 15.839 14.3706 15.865C14.3514 15.8911 14.324 15.9116 14.2916 15.9242C14.2593 15.9369 14.2234 15.941 14.1885 15.9362C14.1535 15.9313 14.1209 15.9177 14.0946 15.8969L12.5732 14.6849C12.4895 14.6181 12.3803 14.581 12.2669 14.581C12.1536 14.581 12.0444 14.6181 11.9607 14.6849L10.4393 15.8961C10.3556 15.9629 10.2463 16 10.133 16C10.0197 16 9.91044 15.9629 9.82672 15.8961L8.30626 14.6849C8.22255 14.6181 8.11331 14.581 7.99998 14.581C7.88665 14.581 7.77741 14.6181 7.69369 14.6849L6.17324 15.8961C6.08952 15.9629 5.98028 16 5.86695 16C5.75362 16 5.64438 15.9629 5.56066 15.8961L4.03929 14.6849C3.95558 14.6181 3.84634 14.581 3.73301 14.581C3.61968 14.581 3.51044 14.6181 3.42672 14.6849L1.90535 15.9321C1.87901 15.9529 1.84631 15.9666 1.81126 15.9714C1.7762 15.9762 1.74029 15.972 1.70792 15.9593C1.67555 15.9466 1.6481 15.9259 1.62894 15.8997C1.60977 15.8736 1.59971 15.8432 1.59998 15.8121V1.20961C1.59998 0.541604 2.21438 0 2.97141 0ZM6.85838 6.84851C6.63334 7.07355 6.32811 7.20001 6.00981 7.20001C5.69157 7.20001 5.38633 7.07355 5.1613 6.84851C4.93626 6.62347 4.80986 6.31824 4.80986 6C4.80986 5.68176 4.93626 5.37653 5.1613 5.15149C5.38633 4.92645 5.69157 4.79999 6.00981 4.79999C6.32811 4.79999 6.63334 4.92645 6.85838 5.15149C7.08342 5.37653 7.20982 5.68176 7.20982 6C7.20982 6.31824 7.08342 6.62347 6.85838 6.84851ZM11.1185 10.4592C11.1788 10.3137 11.2098 10.1576 11.2098 10C11.2098 9.68176 11.0834 9.37653 10.8584 9.15149C10.6333 8.92645 10.3281 8.79999 10.0098 8.79999C9.69157 8.79999 9.38633 8.92645 9.1613 9.15149C8.93626 9.37653 8.80986 9.68176 8.80986 10C8.80986 10.1576 8.84086 10.3137 8.90117 10.4592C8.96147 10.6048 9.04991 10.7371 9.1613 10.8485C9.23686 10.9241 9.322 10.989 9.41435 11.0418C9.45823 11.0669 9.50377 11.0892 9.55064 11.1086C9.69621 11.1689 9.85228 11.2 10.0098 11.2C10.1674 11.2 10.3235 11.1689 10.469 11.1086C10.6147 11.0483 10.7469 10.96 10.8584 10.8485C10.9698 10.7371 11.0582 10.6048 11.1185 10.4592ZM10.9754 6.16559C11.1211 6.01471 11.2018 5.81262 11.2 5.60291C11.1982 5.39313 11.114 5.19244 10.9657 5.04413C10.8174 4.89581 10.6167 4.81171 10.407 4.80988C10.1972 4.80804 9.9951 4.88867 9.84422 5.03442L5.04423 9.83441C4.96782 9.9082 4.9069 9.99646 4.86497 10.0941C4.82304 10.1917 4.80095 10.2966 4.80003 10.4029C4.79911 10.5091 4.81938 10.6144 4.8596 10.7128C4.89982 10.8111 4.95921 10.9004 5.03434 10.9755C5.10942 11.0507 5.19877 11.11 5.2971 11.1503C5.39537 11.1905 5.50071 11.2108 5.60698 11.2098C5.71318 11.2089 5.81816 11.1868 5.91575 11.1449C6.01335 11.103 6.10167 11.042 6.17546 10.9656L10.9754 6.16559Z" fill="#6D7175"/>
</svg>
