<svg width="16" height="16" viewBox="0 0 16 16" fill="none" xmlns="http://www.w3.org/2000/svg">
<path d="M4.71151 13.1153L8.06852 11.4573L8.96053 11.9093L11.2875 13.0873L10.7275 9.17524L11.4355 8.46824L12.7255 7.17823L9.49053 6.60223L9.04553 5.68723L7.98652 3.51122L6.40152 6.68223L5.39651 6.85023L3.2985 7.20023L5.27351 9.17524L5.13251 10.1652L4.71051 13.1153H4.71151ZM3.2015 15.9993C3.0868 15.9993 2.97343 15.9747 2.86908 15.927C2.76474 15.8794 2.67186 15.8099 2.59674 15.7232C2.52162 15.6365 2.46603 15.5347 2.43372 15.4246C2.40141 15.3145 2.39315 15.1988 2.4095 15.0853L3.1525 9.88225L0.235487 6.96523C0.131495 6.86131 0.0581502 6.73075 0.0235061 6.58787C-0.0111381 6.44499 -0.00574171 6.29533 0.0391028 6.15532C0.0839472 6.01532 0.166505 5.89037 0.277712 5.79421C0.388918 5.69805 0.524472 5.63439 0.669489 5.61023L5.06751 4.87722L7.28552 0.442203C7.3523 0.308647 7.45513 0.196449 7.58238 0.118302C7.70962 0.0401553 7.85619 -0.000820012 8.00551 1.24359e-05C8.15483 0.000844884 8.30094 0.0434519 8.4273 0.123012C8.55366 0.202573 8.65524 0.315911 8.72053 0.450203L10.8435 4.81122L15.3416 5.61223C15.4854 5.63796 15.6195 5.70263 15.7292 5.79919C15.839 5.89576 15.9201 6.02054 15.9639 6.15998C16.0077 6.29943 16.0125 6.44821 15.9777 6.59017C15.9429 6.73213 15.8699 6.86185 15.7666 6.96523L12.8495 9.88225L13.5935 15.0853C13.6146 15.2303 13.5953 15.3783 13.538 15.5132C13.4806 15.6481 13.3873 15.7646 13.2682 15.85C13.1491 15.9354 13.0089 15.9865 12.8627 15.9977C12.7166 16.0088 12.5702 15.9796 12.4395 15.9133L8.05752 13.6933L3.5555 15.9163C3.44554 15.971 3.32434 15.9994 3.2015 15.9993Z" fill="#6D7175"/>
</svg>
