<svg width="16" height="16" viewBox="0 0 16 16" fill="none" xmlns="http://www.w3.org/2000/svg">
<g clip-path="url(#clip0_15681_42728)">
<path d="M14.1523 2.40559C14.1523 2.08065 13.8895 1.8174 13.5654 1.8174H10.768V0.403809H14.2738C15.0033 0.403809 15.5946 0.994291 15.5946 1.72279V5.47957H14.1523V2.40559ZM1.82161 2.40559V5.47957H0.405273V1.72279C0.405273 0.994291 0.99667 0.403809 1.72609 0.403809H5.31971V1.8174H2.40889C2.08486 1.8174 1.82161 2.08065 1.82161 2.40559ZM1.82161 13.5745C1.82161 13.899 2.08486 14.1622 2.40889 14.1622H5.31971V15.5804L1.72609 15.5731C0.99667 15.5731 0.405273 14.9826 0.405273 14.2541V10.9617H1.82161V13.5745ZM14.1523 13.5745V10.9617H15.5946V14.2541C15.5946 14.9826 15.0407 15.5978 14.3113 15.5978L10.768 15.5909V14.1622H13.5654C13.8895 14.1622 14.1523 13.899 14.1523 13.5745Z" fill="#6D7175"/>
<path d="M7.84917 4.50081C8.00185 4.50099 8.15225 4.53777 8.28779 4.60806C8.42332 4.67835 8.54003 4.7801 8.62814 4.90479C8.71625 5.02948 8.77319 5.17348 8.79419 5.32471C8.81519 5.47594 8.79964 5.63 8.74883 5.77398H10.0755C10.159 5.77398 10.2417 5.79043 10.3188 5.82238C10.3959 5.85433 10.466 5.90116 10.525 5.96019C10.5841 6.01923 10.6309 6.08932 10.6628 6.16645C10.6948 6.24358 10.7112 6.32626 10.7112 6.40975V7.73686C10.8554 7.68541 11.0098 7.66935 11.1615 7.69004C11.3131 7.71073 11.4576 7.76757 11.5827 7.85575C11.7078 7.94394 11.8099 8.0609 11.8803 8.19679C11.9508 8.33267 11.9876 8.4835 11.9876 8.63657C11.9876 8.78964 11.9508 8.94047 11.8803 9.07635C11.8099 9.21224 11.7078 9.3292 11.5827 9.41739C11.4576 9.50557 11.3131 9.56241 11.1615 9.5831C11.0098 9.60379 10.8554 9.58773 10.7112 9.53628V10.8634C10.7114 10.947 10.6952 11.0299 10.6633 11.1072C10.6315 11.1845 10.5847 11.2548 10.5256 11.314C10.4666 11.3732 10.3964 11.4202 10.3192 11.4523C10.2419 11.4843 10.1591 11.5008 10.0755 11.5008H8.75089C8.80201 11.3567 8.81779 11.2024 8.7969 11.0509C8.77602 10.8995 8.71907 10.7552 8.63086 10.6303C8.54264 10.5054 8.42574 10.4035 8.28996 10.3332C8.15419 10.2628 8.00352 10.2261 7.85061 10.2261C7.69771 10.2261 7.54703 10.2628 7.41126 10.3332C7.27549 10.4035 7.15858 10.5054 7.07037 10.6303C6.98215 10.7552 6.92521 10.8995 6.90432 11.0509C6.88343 11.2024 6.89921 11.3567 6.95033 11.5008H5.62328C5.53966 11.5008 5.45686 11.4843 5.37962 11.4523C5.30238 11.4202 5.23222 11.3732 5.17317 11.314C5.11412 11.2548 5.06732 11.1845 5.03547 11.1072C5.00362 11.0299 4.98733 10.947 4.98755 10.8634V9.54245C5.13124 9.59275 5.28489 9.6079 5.43564 9.58663C5.58639 9.56536 5.72984 9.50829 5.85401 9.4202C5.97818 9.33211 6.07944 9.21555 6.14932 9.08029C6.2192 8.94503 6.25566 8.795 6.25566 8.64275C6.25566 8.4905 6.2192 8.34047 6.14932 8.2052C6.07944 8.06994 5.97818 7.95339 5.85401 7.86529C5.72984 7.7772 5.58639 7.72013 5.43564 7.69886C5.28489 7.67759 5.13124 7.69274 4.98755 7.74304V6.41592C4.98755 6.24731 5.05453 6.0856 5.17375 5.96637C5.29298 5.84714 5.45468 5.78016 5.62328 5.78016H6.94992C6.89912 5.63617 6.88361 5.48209 6.90471 5.33087C6.9258 5.17965 6.98288 5.0357 7.07115 4.91111C7.15942 4.78653 7.2763 4.68495 7.41197 4.61491C7.54764 4.54488 7.69814 4.50843 7.85082 4.50863L7.84917 4.50081Z" fill="#6D7175"/>
</g>
<defs>
<clipPath id="clip0_15681_42728">
<rect width="16" height="16" fill="white" transform="translate(0 0.000793457)"/>
</clipPath>
</defs>
</svg>
