<svg width="16" height="16" viewBox="0 0 16 16" fill="none" xmlns="http://www.w3.org/2000/svg">
<path d="M0 4C0 3.78782 0.0842855 3.58434 0.234315 3.43431C0.384344 3.28428 0.587827 3.2 0.8 3.2H15.2C15.4122 3.2 15.6157 3.28428 15.7657 3.43431C15.9157 3.58434 16 3.78782 16 4C16 4.21217 15.9157 4.41565 15.7657 4.56568C15.6157 4.71571 15.4122 4.8 15.2 4.8H0.8C0.587827 4.8 0.384344 4.71571 0.234315 4.56568C0.0842855 4.41565 0 4.21217 0 4ZM2.4 8C2.4 7.78782 2.48429 7.58434 2.63431 7.43431C2.78434 7.28428 2.98783 7.2 3.2 7.2H12.8C13.0122 7.2 13.2157 7.28428 13.3657 7.43431C13.5157 7.58434 13.6 7.78782 13.6 8C13.6 8.21217 13.5157 8.41565 13.3657 8.56568C13.2157 8.71571 13.0122 8.8 12.8 8.8H3.2C2.98783 8.8 2.78434 8.71571 2.63431 8.56568C2.48429 8.41565 2.4 8.21217 2.4 8ZM6.4 11.2C6.18783 11.2 5.98434 11.2843 5.83431 11.4343C5.68429 11.5843 5.6 11.7878 5.6 12C5.6 12.2122 5.68429 12.4157 5.83431 12.5657C5.98434 12.7157 6.18783 12.8 6.4 12.8H9.6C9.81217 12.8 10.0157 12.7157 10.1657 12.5657C10.3157 12.4157 10.4 12.2122 10.4 12C10.4 11.7878 10.3157 11.5843 10.1657 11.4343C10.0157 11.2843 9.81217 11.2 9.6 11.2H6.4Z" fill="#6D7175"/>
</svg>
