<svg width="16" height="16" viewBox="0 0 16 16" fill="none" xmlns="http://www.w3.org/2000/svg">
<g clip-path="url(#clip0_8325_32780)">
<path d="M1.60005 0.800797C1.38788 0.800797 1.18439 0.885082 1.03436 1.03511C0.884334 1.18514 0.800049 1.38862 0.800049 1.6008V3.2008H2.40005V2.4008H3.20005V0.800797H1.60005ZM14.4 0.800797C14.6122 0.800797 14.8157 0.885082 14.9657 1.03511C15.1158 1.18514 15.2 1.38862 15.2 1.6008V3.2008H13.6V2.4008H12.8V0.800797H14.4ZM0.800049 4.8008V11.2008H15.2V4.8008H0.800049ZM1.60005 15.2008C1.38788 15.2008 1.18439 15.1165 1.03436 14.9665C0.884334 14.8165 0.800049 14.613 0.800049 14.4008V12.8008H2.40005V13.6008H3.20005V15.2008H1.60005ZM15.2 14.4008C15.2 14.613 15.1158 14.8165 14.9657 14.9665C14.8157 15.1165 14.6122 15.2008 14.4 15.2008H12.8V13.6008H13.6V12.8008H15.2V14.4008ZM4.80005 13.6008H7.20005V15.2008H4.80005V13.6008ZM11.2 13.6008H8.80005V15.2008H11.2V13.6008ZM11.2 0.800797V2.4008H8.80005V0.800797H11.2ZM7.20005 2.4008V0.800797H4.80005V2.4008H7.20005Z" fill="#6D7175"/>
</g>
<defs>
<clipPath id="clip0_8325_32780">
<rect width="16" height="16" fill="white" transform="translate(0 0.000793457)"/>
</clipPath>
</defs>
</svg>
