<svg width="16" height="16" viewBox="0 0 16 16" fill="none" xmlns="http://www.w3.org/2000/svg">
<path fill-rule="evenodd" clip-rule="evenodd" d="M4.03241 3.67278C4.27025 1.80369 5.86647 0.358704 7.80018 0.358704C9.73388 0.358704 11.3301 1.80369 11.5679 3.67278H13.0367C13.556 3.67278 13.9889 4.07025 14.0331 4.58765L14.8874 14.5877C14.9373 15.1714 14.4769 15.6728 13.8911 15.6728H1.7093C1.1234 15.6728 0.663016 15.1713 0.712938 14.5876L1.56809 4.58757C1.61234 4.0702 2.0452 3.67278 2.56446 3.67278H4.03241ZM7.80018 1.7587C8.95885 1.7587 9.92562 2.58035 10.1496 3.67278H5.45074C5.67474 2.58035 6.6415 1.7587 7.80018 1.7587ZM5.1502 8.31369C5.64726 8.31369 6.0502 7.91074 6.0502 7.41369C6.0502 6.91663 5.64726 6.51369 5.1502 6.51369C4.65315 6.51369 4.2502 6.91663 4.2502 7.41369C4.2502 7.91074 4.65315 8.31369 5.1502 8.31369ZM10.4502 8.31369C10.9472 8.31369 11.3502 7.91074 11.3502 7.41369C11.3502 6.91663 10.9472 6.51369 10.4502 6.51369C9.95313 6.51369 9.55019 6.91663 9.55019 7.41369C9.55019 7.91074 9.95313 8.31369 10.4502 8.31369Z" fill="#6D7175"/>
</svg>
