<svg width="16" height="16" viewBox="0 0 16 16" fill="none" xmlns="http://www.w3.org/2000/svg">
<g clip-path="url(#clip0_8325_32809)">
<path fill-rule="evenodd" clip-rule="evenodd" d="M16 8.00079C16 12.4163 12.4227 15.9963 8.00828 16.0008L7.99036 16.0008C3.57651 15.9956 0 12.4159 0 8.00079C0 3.58252 3.58172 0.000793457 8 0.000793457C12.4183 0.000793457 16 3.58252 16 8.00079ZM2.45621 4.80079C3.21312 3.49231 4.42 2.47667 5.86526 1.96546C5.82168 2.0277 5.77801 2.09155 5.73436 2.15703C5.26967 2.85407 4.8064 3.73592 4.47571 4.80079H2.45621ZM1.80163 6.40079C1.67 6.91219 1.6 7.44831 1.6 8.00079C1.6 8.55327 1.67 9.0894 1.80163 9.60079H4.11416C4.04102 9.09769 4 8.56432 4 8.00079C4 7.43727 4.04102 6.9039 4.11416 6.40079H1.80163ZM5.73412 6.40079C5.64894 6.8967 5.6 7.42996 5.6 8.00079C5.6 8.57162 5.64894 9.10489 5.73412 9.60079H10.2659C10.3511 9.10489 10.4 8.57162 10.4 8.00079C10.4 7.42996 10.3511 6.8967 10.2659 6.40079H5.73412ZM11.8858 6.40079C11.959 6.9039 12 7.43727 12 8.00079C12 8.56432 11.959 9.09769 11.8858 9.60079H14.1984C14.33 9.0894 14.4 8.55327 14.4 8.00079C14.4 7.44831 14.33 6.91219 14.1984 6.40079H11.8858ZM13.5438 4.80079H11.5243C11.1936 3.73592 10.7303 2.85407 10.2656 2.15703C10.222 2.09155 10.1783 2.0277 10.1347 1.96546C11.58 2.47667 12.7869 3.49231 13.5438 4.80079ZM9.83381 4.80079H6.16619C6.42563 4.10893 6.74611 3.52384 7.06564 3.04455C7.40283 2.53877 7.73881 2.15133 8 1.88305C8.26119 2.15133 8.59717 2.53877 8.93436 3.04455C9.25389 3.52384 9.57437 4.10893 9.83381 4.80079ZM8.93436 12.957C9.25389 12.4777 9.57437 11.8927 9.83381 11.2008H6.16619C6.42563 11.8927 6.74611 12.4777 7.06564 12.957C7.40283 13.4628 7.73881 13.8503 8 14.1185C8.26119 13.8503 8.59717 13.4628 8.93436 12.957ZM2.45621 11.2008H4.47571C4.8064 12.2657 5.26967 13.1475 5.73436 13.8446C5.77801 13.91 5.82168 13.9739 5.86526 14.0361C4.42 13.5249 3.21313 12.5093 2.45621 11.2008ZM10.2656 13.8446C10.222 13.91 10.1783 13.9739 10.1347 14.0361C11.58 13.5249 12.7869 12.5093 13.5438 11.2008H11.5243C11.1936 12.2657 10.7303 13.1475 10.2656 13.8446Z" fill="#6D7175"/>
</g>
<defs>
<clipPath id="clip0_8325_32809">
<rect width="16" height="16" fill="white" transform="translate(0 0.000793457)"/>
</clipPath>
</defs>
</svg>
