<svg width="16" height="16" viewBox="0 0 16 16" fill="none" xmlns="http://www.w3.org/2000/svg">
<g clip-path="url(#clip0_5116_16489)">
<path d="M15.7655 2.63443C15.8399 2.70866 15.8989 2.79683 15.9391 2.89388C15.9794 2.99093 16.0001 3.09497 16.0001 3.20003C16.0001 3.3051 15.9794 3.40913 15.9391 3.50619C15.8989 3.60324 15.8399 3.6914 15.7655 3.76563L13.3655 6.16563C13.2914 6.24018 13.2033 6.29934 13.1062 6.33971C13.0091 6.38008 12.905 6.40086 12.7999 6.40086C12.6948 6.40086 12.5907 6.38008 12.4936 6.33971C12.3966 6.29934 12.3084 6.24018 12.2343 6.16563C12.16 6.0914 12.101 6.00324 12.0607 5.90619C12.0205 5.80913 11.9998 5.7051 11.9998 5.60003C11.9998 5.49497 12.0205 5.39093 12.0607 5.29388C12.101 5.19683 12.16 5.10866 12.2343 5.03443L13.2687 4.00003H5.59992C3.83512 4.00003 2.39992 5.43523 2.39992 7.20003C2.39992 7.41221 2.31563 7.61569 2.1656 7.76572C2.01557 7.91575 1.81209 8.00003 1.59992 8.00003C1.38774 8.00003 1.18426 7.91575 1.03423 7.76572C0.884202 7.61569 0.799917 7.41221 0.799917 7.20003C0.799917 4.55283 2.95272 2.40003 5.59992 2.40003H13.2687L12.2343 1.36563C12.16 1.29136 12.1011 1.20318 12.0609 1.10613C12.0207 1.00909 12 0.905073 12 0.800032C12 0.69499 12.0207 0.590977 12.0609 0.493931C12.1011 0.396885 12.16 0.308707 12.2343 0.234432C12.3086 0.160156 12.3968 0.101237 12.4938 0.0610398C12.5909 0.0208421 12.6949 0.000152586 12.7999 0.000152588C12.905 0.00015259 13.009 0.0208421 13.106 0.0610398C13.2031 0.101237 13.2912 0.160156 13.3655 0.234432L15.7655 2.63443ZM13.5999 8.00003C13.8121 8.00003 14.0156 8.08432 14.1656 8.23435C14.3156 8.38438 14.3999 8.58786 14.3999 8.80003C14.3999 11.448 12.2479 13.6 9.59992 13.6H2.73112L3.76552 14.6344C3.91552 14.7844 3.9998 14.9879 3.9998 15.2C3.9998 15.4122 3.91552 15.6156 3.76552 15.7656C3.61551 15.9156 3.41206 15.9999 3.19992 15.9999C2.98778 15.9999 2.78432 15.9156 2.63432 15.7656L0.234317 13.3656C0.15996 13.2914 0.10097 13.2032 0.0607214 13.1062C0.0204728 13.0091 -0.000244141 12.9051 -0.000244141 12.8C-0.000244141 12.695 0.0204728 12.5909 0.0607214 12.4939C0.10097 12.3968 0.15996 12.3087 0.234317 12.2344L2.63432 9.83443C2.70859 9.76016 2.79677 9.70124 2.89382 9.66104C2.99086 9.62084 3.09488 9.60015 3.19992 9.60015C3.30496 9.60015 3.40897 9.62084 3.50602 9.66104C3.60306 9.70124 3.69124 9.76016 3.76552 9.83443C3.83979 9.90871 3.89871 9.99689 3.93891 10.0939C3.97911 10.191 3.9998 10.295 3.9998 10.4C3.9998 10.5051 3.97911 10.6091 3.93891 10.7061C3.89871 10.8032 3.83979 10.8914 3.76552 10.9656L2.73112 12H9.59992C11.3647 12 12.7999 10.5648 12.7999 8.80003C12.7999 8.58786 12.8842 8.38438 13.0342 8.23435C13.1843 8.08432 13.3877 8.00003 13.5999 8.00003Z" fill="#6D7175"/>
</g>
<defs>
<clipPath id="clip0_5116_16489">
<rect width="16" height="16" fill="white"/>
</clipPath>
</defs>
</svg>
