<svg width="16" height="16" viewBox="0 0 16 16" fill="none" xmlns="http://www.w3.org/2000/svg">
<path d="M3.72245 7.30719L4.78885 4.37199H4.81125L5.84325 7.30799H3.72325L3.72245 7.30719ZM3.89445 2.39999L0.800049 10.4H2.61125L3.25285 8.61839H6.31205L6.93205 10.4H8.80005L5.74005 2.39999H3.89445Z" fill="#6D7175"/>
<path d="M9.60005 3.44C9.60005 3.29148 9.65905 3.14905 9.76407 3.04402C9.86909 2.939 10.0115 2.88 10.16 2.88H13.84C13.9886 2.88 14.131 2.939 14.236 3.04402C14.341 3.14905 14.4 3.29148 14.4 3.44C14.4 3.58853 14.341 3.73096 14.236 3.83598C14.131 3.941 13.9886 4 13.84 4H10.16C10.0115 4 9.86909 3.941 9.76407 3.83598C9.65905 3.73096 9.60005 3.58853 9.60005 3.44ZM9.60005 6.64C9.60005 6.49148 9.65905 6.34905 9.76407 6.24402C9.86909 6.139 10.0115 6.08 10.16 6.08H13.84C13.9886 6.08 14.131 6.139 14.236 6.24402C14.341 6.34905 14.4 6.49148 14.4 6.64C14.4 6.78853 14.341 6.93096 14.236 7.03598C14.131 7.14101 13.9886 7.2 13.84 7.2H10.16C10.0115 7.2 9.86909 7.14101 9.76407 7.03598C9.65905 6.93096 9.60005 6.78853 9.60005 6.64ZM9.60005 9.84C9.60005 9.69148 9.65905 9.54905 9.76407 9.44403C9.86909 9.339 10.0115 9.28 10.16 9.28H13.84C13.9136 9.28 13.9864 9.29449 14.0544 9.32263C14.1223 9.35077 14.184 9.39202 14.236 9.44403C14.288 9.49603 14.3293 9.55776 14.3574 9.6257C14.3856 9.69364 14.4 9.76646 14.4 9.84C14.4 9.91355 14.3856 9.98637 14.3574 10.0543C14.3293 10.1223 14.288 10.184 14.236 10.236C14.184 10.288 14.1223 10.3292 14.0544 10.3574C13.9864 10.3855 13.9136 10.4 13.84 10.4H10.16C10.0115 10.4 9.86909 10.341 9.76407 10.236C9.65905 10.131 9.60005 9.98853 9.60005 9.84ZM0.800049 13.04C0.800049 12.8915 0.859049 12.749 0.964069 12.644C1.06909 12.539 1.21153 12.48 1.36005 12.48H14.64C14.7886 12.48 14.931 12.539 15.036 12.644C15.141 12.749 15.2 12.8915 15.2 13.04C15.2 13.1885 15.141 13.331 15.036 13.436C14.931 13.541 14.7886 13.6 14.64 13.6H1.36005C1.21153 13.6 1.06909 13.541 0.964069 13.436C0.859049 13.331 0.800049 13.1885 0.800049 13.04Z" fill="#6D7175"/>
</svg>
