<svg width="16" height="16" viewBox="0 0 16 16" fill="none" xmlns="http://www.w3.org/2000/svg">
<path d="M4.40739 1.50171C5.17875 1.50171 5.91851 1.80813 6.46394 2.35356C7.00937 2.89899 7.31579 3.63875 7.31579 4.41011V7.31759H4.40831C3.63699 7.31754 2.89728 7.01109 2.3519 6.46567C1.80651 5.92024 1.50012 5.18051 1.50012 4.40919C1.50012 3.63788 1.80651 2.89815 2.3519 2.35272C2.89728 1.8073 3.63699 1.50085 4.40831 1.50079L4.40739 1.50171ZM4.40739 8.68604H7.31488V11.5935C7.31458 12.1686 7.14388 12.7308 6.82434 13.209C6.5048 13.6871 6.05073 14.0599 5.51948 14.2802C4.98811 14.4993 4.40378 14.5561 3.84017 14.4435C3.27657 14.3309 2.75892 14.0539 2.35251 13.6475C1.94611 13.2411 1.66914 12.7234 1.55653 12.1598C1.44392 11.5962 1.50072 11.0119 1.71977 10.4805C1.94008 9.94928 2.31286 9.49521 2.79104 9.17567C3.26922 8.85612 3.83136 8.68543 4.40648 8.68513L4.40739 8.68604ZM11.5917 1.50171C12.363 1.50176 13.1028 1.80821 13.6481 2.35363C14.1935 2.89906 14.4999 3.63879 14.4999 4.41011C14.4999 5.18142 14.1935 5.92115 13.6481 6.46658C13.1028 7.012 12.363 7.31845 11.5917 7.31851H8.68424V4.41102C8.68424 3.63966 8.99066 2.8999 9.53609 2.35447C10.0815 1.80904 10.8213 1.50262 11.5926 1.50262L11.5917 1.50171ZM8.68333 8.68604H11.5908C12.1659 8.68634 12.7281 8.85704 13.2063 9.17658C13.6844 9.49612 14.0572 9.95019 14.2775 10.4814C14.4966 11.0128 14.5534 11.5971 14.4408 12.1607C14.3282 12.7244 14.0512 13.242 13.6448 13.6484C13.2384 14.0548 12.7207 14.3318 12.1571 14.4444C11.5935 14.557 11.0092 14.5002 10.4778 14.2812C9.94656 14.0608 9.4925 13.6881 9.17296 13.2099C8.85341 12.7317 8.68271 12.1696 8.68241 11.5944V8.68695L8.68333 8.68604Z" fill="#6D7175"/>
</svg>
