<svg width="16" height="16" viewBox="0 0 16 16" fill="none" xmlns="http://www.w3.org/2000/svg">
<path d="M6 2.49479C6 1.39379 6.895 0.500793 8 0.500793C9.105 0.500793 10 1.39379 10 2.49479H14C14.552 2.49479 15 2.94079 15 3.49179C14.9992 3.75649 14.8935 4.01007 14.706 4.19696C14.5186 4.38385 14.2647 4.48879 14 4.48879H2C1.448 4.48879 1 4.04179 1 3.49179C1 2.94179 1.448 2.49479 2 2.49479H6ZM3 13.0088V6.50079H5V13.0088C5.00053 13.1411 5.05344 13.2677 5.14715 13.3611C5.24086 13.4544 5.36774 13.5068 5.5 13.5068H7V6.50079H9V13.5068H10.5C10.6323 13.5068 10.7591 13.4544 10.8528 13.3611C10.9466 13.2677 10.9995 13.1411 11 13.0088V6.50079H13V13.0088C12.9995 13.3366 12.9344 13.661 12.8085 13.9637C12.6826 14.2663 12.4983 14.5412 12.2661 14.7726C12.034 15.004 11.7585 15.1874 11.4555 15.3123C11.1525 15.4373 10.8278 15.5013 10.5 15.5008H5.5C4.12 15.5008 3 14.3848 3 13.0088Z" fill="#6D7175"/>
</svg>
