<svg width="16" height="16" viewBox="0 0 16 16" fill="none" xmlns="http://www.w3.org/2000/svg">
<g clip-path="url(#clip0_10675_41161)">
<path fill-rule="evenodd" clip-rule="evenodd" d="M0.811249 4.66959L1.29925 1.80319C1.35001 1.52046 1.4991 1.26477 1.72015 1.08134C1.94121 0.897905 2.22 0.798533 2.50725 0.800788H13.4936C14.092 0.800788 14.6032 1.22479 14.7016 1.80319L15.1888 4.66959C15.272 5.15759 14.888 5.60079 14.3832 5.60079H13.6552C13.1912 5.60079 12.7672 5.34399 12.5592 4.93679L12.0816 4.00079L11.604 4.93679C11.396 5.34399 10.972 5.60079 10.508 5.60079H9.57285C9.10885 5.60079 8.68485 5.34399 8.47765 4.93679L8.00005 4.00079L7.52245 4.93679C7.31445 5.34399 6.89045 5.60079 6.42645 5.60079H5.49125C5.02725 5.60079 4.60325 5.34399 4.39605 4.93679L3.91845 4.00079L3.44005 4.93679C3.23285 5.34399 2.80885 5.60079 2.34485 5.60079H1.61685C1.11285 5.60079 0.728849 5.15679 0.811249 4.66959ZM6.23445 7.03519C6.08447 7.18521 6.00022 7.38866 6.00022 7.60079C6.00022 7.81292 6.08447 8.01637 6.23445 8.16639L6.86885 8.80079H1.60005C1.38788 8.80079 1.18439 8.88507 1.03436 9.0351C0.884334 9.18513 0.800049 9.38861 0.800049 9.60079C0.800049 9.81296 0.884334 10.0164 1.03436 10.1665C1.18439 10.3165 1.38788 10.4008 1.60005 10.4008H6.86885L6.23445 11.0352C6.08872 11.1861 6.00809 11.3882 6.00991 11.5979C6.01173 11.8077 6.09587 12.0083 6.24419 12.1566C6.39252 12.305 6.59317 12.3891 6.80293 12.3909C7.01269 12.3927 7.21477 12.3121 7.36565 12.1664L9.36565 10.1664C9.51525 10.0171 9.59954 9.81455 9.60005 9.60319V9.59839C9.59966 9.39053 9.51814 9.19104 9.37285 9.04239L9.36485 9.03439L7.36565 7.03439C7.21563 6.88441 7.01218 6.80016 6.80005 6.80016C6.58792 6.80016 6.38447 6.88441 6.23445 7.03439V7.03519ZM14.4 7.20079H12.8V13.6008H3.20005V12.0008H1.60005V14.0008C1.60005 14.319 1.72648 14.6243 1.95152 14.8493C2.17656 15.0744 2.48179 15.2008 2.80005 15.2008H13.2C13.5183 15.2008 13.8235 15.0744 14.0486 14.8493C14.2736 14.6243 14.4 14.319 14.4 14.0008V7.20079Z" fill="#6D7175"/>
</g>
<defs>
<clipPath id="clip0_10675_41161">
<rect width="16" height="16" fill="white" transform="translate(0 0.000793457)"/>
</clipPath>
</defs>
</svg>
