<svg width="16" height="16" viewBox="0 0 16 16" fill="none" xmlns="http://www.w3.org/2000/svg">
<g clip-path="url(#clip0_12670_43392)">
<path d="M8.79998 0.800915C8.79998 0.588742 8.7157 0.385259 8.56567 0.23523C8.41564 0.085201 8.21216 0.000915527 7.99998 0.000915527C7.78781 0.000915527 7.58433 0.085201 7.4343 0.23523C7.28427 0.385259 7.19998 0.588742 7.19998 0.800915V6.86972L6.16558 5.83532C6.0147 5.68959 5.81262 5.60895 5.60286 5.61078C5.39311 5.6126 5.19246 5.69673 5.04413 5.84506C4.8958 5.99339 4.81167 6.19404 4.80984 6.40379C4.80802 6.61355 4.88866 6.81563 5.03438 6.96652L7.43438 9.36652C7.58441 9.51649 7.78785 9.60074 7.99998 9.60074C8.21212 9.60074 8.41556 9.51649 8.56558 9.36652L10.9656 6.96652C11.1113 6.81563 11.1919 6.61355 11.1901 6.40379C11.1883 6.19404 11.1042 5.99339 10.9558 5.84506C10.8075 5.69673 10.6069 5.6126 10.3971 5.61078C10.1873 5.60895 9.98527 5.68959 9.83438 5.83532L8.79998 6.86972V0.800915Z" fill="#6D7175"/>
<path d="M2.39999 11.2009V2.4009H5.59999V0.800903H1.99999C1.68173 0.800903 1.3765 0.927332 1.15146 1.15238C0.926416 1.37742 0.799988 1.68264 0.799988 2.0009V14.0009C0.799988 14.3192 0.926416 14.6244 1.15146 14.8494C1.3765 15.0745 1.68173 15.2009 1.99999 15.2009H14C14.3182 15.2009 14.6235 15.0745 14.8485 14.8494C15.0736 14.6244 15.2 14.3192 15.2 14.0009V2.0009C15.2 1.68264 15.0736 1.37742 14.8485 1.15238C14.6235 0.927332 14.3182 0.800903 14 0.800903H10.4V2.4009H13.6V11.2009H10.8C10.18 11.2009 9.68959 11.7305 9.25919 12.1961L9.17119 12.2921C9.02154 12.453 8.84026 12.5813 8.63872 12.6688C8.43718 12.7564 8.21972 12.8013 7.99999 12.8009C7.78033 12.8011 7.56299 12.756 7.36159 12.6683C7.16019 12.5806 6.97907 12.4522 6.82959 12.2913L6.74079 12.1953C6.31039 11.7321 5.81999 11.2009 5.19999 11.2009H2.39999Z" fill="#6D7175"/>
</g>
<defs>
<clipPath id="clip0_12670_43392">
<rect width="16" height="16" fill="white" transform="translate(0 0.000915527)"/>
</clipPath>
</defs>
</svg>
