<svg width="16" height="16" viewBox="0 0 16 16" fill="none" xmlns="http://www.w3.org/2000/svg">
<g clip-path="url(#clip0_8775_42288)">
<path fill-rule="evenodd" clip-rule="evenodd" d="M16 8.00079C16 12.412 12.4112 16.0008 8 16.0008C3.5888 16.0008 0 12.412 0 8.00079C0 3.58959 3.5888 0.000793457 8 0.000793457C12.4112 0.000793457 16 3.58959 16 8.00079ZM9.2688 8.80082L8.2344 9.83522C8.16012 9.90949 8.10121 9.99767 8.06101 10.0947C8.02081 10.1918 8.00012 10.2958 8.00012 10.4008C8.00012 10.5059 8.02081 10.6099 8.06101 10.7069C8.10121 10.804 8.16012 10.8921 8.2344 10.9664C8.30868 11.0407 8.39685 11.0996 8.4939 11.1398C8.59095 11.18 8.69496 11.2007 8.8 11.2007C8.90504 11.2007 9.00906 11.18 9.1061 11.1398C9.20315 11.0996 9.29132 11.0407 9.3656 10.9664L11.7656 8.56642C11.8401 8.49229 11.8993 8.40417 11.9397 8.3071C11.98 8.21003 12.0008 8.10594 12.0008 8.00082C12.0008 7.89569 11.98 7.7916 11.9397 7.69453C11.8993 7.59747 11.8401 7.50934 11.7656 7.43522L9.3656 5.03522C9.29132 4.96094 9.20315 4.90202 9.1061 4.86182C9.00906 4.82163 8.90504 4.80094 8.8 4.80094C8.69496 4.80094 8.59095 4.82163 8.4939 4.86182C8.39685 4.90202 8.30868 4.96094 8.2344 5.03522C8.16012 5.10949 8.10121 5.19767 8.06101 5.29472C8.02081 5.39176 8.00012 5.49578 8.00012 5.60082C8.00012 5.70586 8.02081 5.80987 8.06101 5.90692C8.10121 6.00396 8.16012 6.09214 8.2344 6.16642L9.2688 7.20082H4.8C4.58783 7.20082 4.38434 7.2851 4.23431 7.43513C4.08429 7.58516 4 7.78864 4 8.00082C4 8.21299 4.08429 8.41647 4.23431 8.5665C4.38434 8.71653 4.58783 8.80082 4.8 8.80082H9.2688Z" fill="#6D7175"/>
</g>
<defs>
<clipPath id="clip0_8775_42288">
<rect width="16" height="16" fill="white" transform="translate(0 0.000793457)"/>
</clipPath>
</defs>
</svg>
