<svg width="16" height="16" viewBox="0 0 16 16" fill="none" xmlns="http://www.w3.org/2000/svg">
<g clip-path="url(#clip0_16204_42864)">
<path fill-rule="evenodd" clip-rule="evenodd" d="M3.20005 0.800903C2.80565 0.800903 2.23125 0.912903 1.73285 1.2713C1.19365 1.6601 0.800049 2.3001 0.800049 3.2009V14.0009C0.800049 14.3192 0.926477 14.6244 1.15152 14.8494C1.37656 15.0745 1.68179 15.2009 2.00005 15.2009H14C14.3183 15.2009 14.6235 15.0745 14.8486 14.8494C15.0736 14.6244 15.2 14.3192 15.2 14.0009V12.0009H12.8C12.4056 12.0009 11.8312 11.8889 11.3328 11.5305C10.792 11.1409 10.4 10.5017 10.4 9.6009C10.4 8.7001 10.7936 8.0601 11.3328 7.6713C11.7628 7.36909 12.2745 7.20501 12.8 7.2009H15.2V5.2009C15.2 4.5417 14.668 4.0009 14.0016 4.0009H13.6V2.0009C13.6 1.68264 13.4736 1.37742 13.2486 1.15238C13.0235 0.927332 12.7183 0.800903 12.4 0.800903H3.20005ZM12.8 8.8009H15.2V10.4009H12.8C12.6616 10.4009 12.4352 10.3529 12.2672 10.2321C12.14 10.1401 12 9.9801 12 9.6009C12 9.2217 12.14 9.0617 12.2672 8.9697C12.4352 8.8497 12.6616 8.8009 12.8 8.8009ZM3.20005 2.4009C2.98788 2.4009 2.78439 2.48519 2.63436 2.63522C2.48433 2.78525 2.40005 2.98873 2.40005 3.2009V4.0009H12V2.4009H3.20005Z" fill="#6D7175"/>
</g>
<defs>
<clipPath id="clip0_16204_42864">
<rect width="16" height="16" fill="white" transform="translate(0 0.000915527)"/>
</clipPath>
</defs>
</svg>
