<svg width="16" height="16" viewBox="0 0 16 16" fill="none" xmlns="http://www.w3.org/2000/svg">
<g clip-path="url(#clip0_16198_42829)">
<path d="M6.99998 2.00078C5.68973 2.00337 4.43286 2.52017 3.49976 3.44C2.56666 4.35983 2.0319 5.60918 2.01054 6.91925C1.98918 8.22933 2.48292 9.49545 3.38554 10.4452C4.28815 11.395 5.52751 11.9525 6.83698 11.9978L7.49898 13.9838C6.07563 14.0853 4.65524 13.7495 3.42812 13.0212C2.20099 12.2929 1.22576 11.207 0.633078 9.90892C0.0403995 8.61086 -0.14141 7.16266 0.112009 5.75838C0.365429 4.35409 1.04197 3.0608 2.05099 2.05178C3.06001 1.04277 4.3533 0.366222 5.75759 0.112803C7.16187 -0.140617 8.61006 0.041193 9.90813 0.633872C11.2062 1.22655 12.2921 2.20179 13.0204 3.42891C13.7487 4.65603 14.0845 6.07643 13.983 7.49978L11.997 6.83778C11.9547 5.54067 11.4097 4.31083 10.4772 3.40819C9.5447 2.50556 8.29778 2.00087 6.99998 2.00078Z" fill="#6D7175"/>
<path d="M7 6.00079C6.73478 6.00079 6.48043 6.10615 6.29289 6.29369C6.10536 6.48122 6 6.73558 6 7.00079C6 7.26601 6.10536 7.52036 6.29289 7.7079C6.48043 7.89544 6.73478 8.00079 7 8.00079V10.0008C6.40666 10.0008 5.82664 9.82485 5.33329 9.4952C4.83994 9.16556 4.45543 8.69702 4.22836 8.14884C4.0013 7.60067 3.94189 6.99747 4.05765 6.41552C4.1734 5.83358 4.45912 5.29903 4.87868 4.87947C5.29824 4.45992 5.83279 4.17419 6.41473 4.05844C6.99667 3.94268 7.59987 4.00209 8.14805 4.22916C8.69623 4.45622 9.16477 4.84074 9.49441 5.33408C9.82405 5.82743 10 6.40745 10 7.00079H8C8 6.73558 7.89464 6.48122 7.70711 6.29369C7.51957 6.10615 7.26522 6.00079 7 6.00079Z" fill="#6D7175"/>
<path d="M9.316 8.05179C9.1398 7.99303 8.95072 7.9845 8.76995 8.02716C8.58918 8.06982 8.42386 8.16199 8.29253 8.29332C8.16119 8.42466 8.06903 8.58997 8.02637 8.77074C7.98371 8.95151 7.99224 9.14059 8.05099 9.31679L10.051 15.3168C10.1172 15.5161 10.2445 15.6896 10.4149 15.8125C10.5852 15.9354 10.7899 16.0015 11 16.0015C11.21 16.0015 11.4148 15.9354 11.5851 15.8125C11.7555 15.6896 11.8828 15.5161 11.949 15.3168L12.791 12.7918L15.316 11.9498C15.5153 11.8836 15.6888 11.7562 15.8117 11.5859C15.9346 11.4156 16.0007 11.2108 16.0007 11.0008C16.0007 10.7907 15.9346 10.586 15.8117 10.4157C15.6888 10.2453 15.5153 10.118 15.316 10.0518L9.316 8.05179Z" fill="#6D7175"/>
</g>
<defs>
<clipPath id="clip0_16198_42829">
<rect width="16" height="16" fill="white" transform="translate(0 0.000793457)"/>
</clipPath>
</defs>
</svg>
