<svg width="16" height="16" viewBox="0 0 16 16" fill="none" xmlns="http://www.w3.org/2000/svg">
<path d="M11.3868 0.001002L4.89879 0.000793457C4.72764 0.000787573 4.57361 0.0705601 4.4617 0.182464C4.3498 0.294367 4.28003 0.448402 4.28003 0.619554L4.28148 4.86281C4.10244 5.00499 3.93261 5.15902 3.77068 5.32096C2.80699 6.28464 2.1606 7.56563 2.00398 8.99145C1.96318 9.35614 2.25151 9.67607 2.61883 9.6774L7.40319 9.67755L7.40056 15.1513C7.40056 15.2198 7.42426 15.2882 7.46903 15.3409L7.91404 15.8754C8.02595 16.0111 8.23002 16.0176 8.35245 15.8952C8.35903 15.8886 8.36562 15.882 8.37088 15.8741L8.81586 15.3396C8.86062 15.287 8.88432 15.2185 8.88432 15.1501V9.67365L13.6687 9.6738C13.8398 9.67381 13.9939 9.60404 14.1058 9.49213C14.2335 9.36443 14.3046 9.18275 14.2835 8.9879C14.0991 7.32113 13.2486 5.85446 12.0031 4.85911L12.0029 0.617169C12.0042 0.278815 11.7278 0.00232946 11.3868 0.001002Z" fill="#6D7175"/>
</svg>
