<svg width="16" height="16" viewBox="0 0 16 16" fill="none" xmlns="http://www.w3.org/2000/svg">
<g clip-path="url(#clip0_8325_32782)">
<path d="M9.95202 0.352794C9.84051 0.24114 9.70807 0.152578 9.56228 0.0921768C9.4165 0.0317757 9.26023 0.000722052 9.10242 0.00079358H3.60002C3.28176 0.00079358 2.97654 0.127222 2.7515 0.352265C2.52645 0.577309 2.40002 0.882534 2.40002 1.20079V14.8008C2.40002 15.1191 2.52645 15.4243 2.7515 15.6493C2.97654 15.8744 3.28176 16.0008 3.60002 16.0008H12.4C12.7183 16.0008 13.0235 15.8744 13.2486 15.6493C13.4736 15.4243 13.6 15.1191 13.6 14.8008V4.49759C13.5997 4.17944 13.4731 3.87442 13.248 3.64959L9.95202 0.351994V0.352794Z" fill="#6D7175"/>
</g>
<defs>
<clipPath id="clip0_8325_32782">
<rect width="16" height="16" fill="white" transform="translate(0 0.000793457)"/>
</clipPath>
</defs>
</svg>
