<svg width="16" height="16" viewBox="0 0 16 16" fill="none" xmlns="http://www.w3.org/2000/svg">
<path d="M2.12684 1.49768C1.8082 1.81621 1.62914 2.24827 1.62903 2.69881H1.62812V14.1511C1.62737 14.366 1.70841 14.5732 1.85479 14.7306C2.00117 14.888 2.20194 14.9839 2.41638 14.9987C2.5583 15.0086 2.70047 14.9832 2.83016 14.9247L7.64653 12.7362L7.93517 9.68635L5.88001 10.5221C5.85352 10.5331 5.82429 10.5367 5.79506 10.5331C5.76583 10.5294 5.73935 10.5185 5.7156 10.502C5.69224 10.485 5.67361 10.4623 5.66147 10.4361C5.64932 10.4099 5.64406 10.381 5.64618 10.3522L5.80694 8.14087C5.81033 8.09678 5.79622 8.05313 5.76766 8.01938L4.33727 6.32319C4.31889 6.30104 4.30641 6.27461 4.30098 6.24635C4.29555 6.21808 4.29735 6.1889 4.30622 6.16152C4.31521 6.13399 4.33109 6.10922 4.35236 6.08956C4.37362 6.06989 4.39955 6.05599 4.4277 6.04917L6.5815 5.51757C6.62387 5.50648 6.66044 5.47971 6.6838 5.44267L7.85479 3.55832C7.87032 3.53366 7.89132 3.51357 7.9169 3.49986C7.94219 3.48635 7.97043 3.47928 7.99911 3.47928C8.02778 3.47928 8.05602 3.48635 8.08131 3.49986C8.10656 3.51388 8.1279 3.53397 8.14342 3.55832L9.31532 5.44267C9.33907 5.48012 9.3756 5.50661 9.41853 5.51757L11.5714 6.04917C11.6134 6.0602 11.6498 6.08659 11.6733 6.12312C11.6968 6.15964 11.7058 6.20366 11.6984 6.24647C11.6929 6.27471 11.6803 6.30111 11.6619 6.32319L10.2315 8.01938C10.2033 8.05337 10.1893 8.09684 10.1922 8.14087L10.352 10.3531C10.3543 10.382 10.3491 10.4109 10.337 10.4371C10.3248 10.4634 10.3061 10.486 10.2826 10.5029C10.2593 10.5201 10.2319 10.5308 10.2031 10.534C10.1747 10.5377 10.1457 10.5339 10.1191 10.523L8.06396 9.68726C8.02292 9.6708 7.97712 9.6708 7.93608 9.68726L7.64927 12.7362C7.75961 12.6856 7.87956 12.6594 8.00093 12.6594C8.12231 12.6594 8.24225 12.6856 8.35259 12.7362L13.1708 14.9238C13.3003 14.982 13.4421 15.0071 13.5837 14.9969C13.7253 14.9867 13.8621 14.9415 13.9819 14.8653C14.1011 14.7883 14.1992 14.6827 14.2674 14.5581C14.3355 14.4335 14.3714 14.2939 14.3719 14.152V2.69972C14.3719 2.47662 14.328 2.25569 14.2426 2.04957C14.1572 1.84345 14.0321 1.65616 13.8743 1.4984C13.7166 1.34064 13.5293 1.2155 13.3231 1.13012C13.117 1.04474 12.8961 1.00079 12.673 1.00079H3.32979C2.87924 1.0009 2.44719 1.17996 2.12866 1.4986L2.12684 1.49768Z" fill="#6D7175"/>
</svg>
