<svg width="16" height="16" viewBox="0 0 16 16" fill="none" xmlns="http://www.w3.org/2000/svg">
<path d="M0 2.50079C0 2.10297 0.158035 1.72144 0.43934 1.44013C0.720644 1.15883 1.10218 1.00079 1.5 1.00079H14.5C14.8978 1.00079 15.2794 1.15883 15.5607 1.44013C15.842 1.72144 16 2.10297 16 2.50079V7.45079L11.986 4.86079C10.276 3.75679 8.033 5.05079 8.133 7.08479L8.278 10.0008H1.5C1.10218 10.0008 0.720644 9.84276 0.43934 9.56145C0.158035 9.28015 0 8.89862 0 8.50079V2.50079Z" fill="#6D7175"/>
<path d="M10.131 6.99979C10.1265 6.908 10.1473 6.81674 10.1913 6.73604C10.2353 6.65534 10.3006 6.58831 10.3802 6.54233C10.4598 6.49635 10.5505 6.47318 10.6423 6.47538C10.7342 6.47758 10.8237 6.50505 10.901 6.55479L15.77 9.69679C15.8419 9.74324 15.9008 9.8074 15.9408 9.88311C15.9808 9.95883 16.0008 10.0436 15.9987 10.1292C15.9966 10.2148 15.9725 10.2985 15.9288 10.3721C15.885 10.4458 15.8231 10.5069 15.749 10.5498L14.324 11.3728L15.553 13.5008C15.6197 13.6146 15.6632 13.7404 15.6811 13.8711C15.6989 14.0017 15.6908 14.1346 15.6571 14.2621C15.6234 14.3896 15.5648 14.5092 15.4847 14.614C15.4046 14.7187 15.3045 14.8066 15.1903 14.8726C15.0761 14.9385 14.95 14.9812 14.8192 14.9982C14.6884 15.0152 14.5556 15.0062 14.4283 14.9716C14.301 14.937 14.1818 14.8777 14.0776 14.7969C13.9734 14.7161 13.8862 14.6154 13.821 14.5008L12.591 12.3728L11.167 13.1948C11.0928 13.2378 11.0088 13.2609 10.9231 13.2621C10.8373 13.2632 10.7527 13.2423 10.6774 13.2013C10.6021 13.1604 10.5386 13.1007 10.493 13.0281C10.4474 12.9555 10.4212 12.8724 10.417 12.7868L10.131 6.99979Z" fill="#6D7175"/>
</svg>
