<svg width="16" height="16" viewBox="0 0 16 16" fill="none" xmlns="http://www.w3.org/2000/svg">
<g clip-path="url(#clip0_8325_32774)">
<path d="M0 1.20079C0 0.882534 0.126428 0.577309 0.351472 0.352265C0.576515 0.127222 0.88174 0.000793457 1.2 0.000793457L14.8 0.000793457C15.1183 0.000793457 15.4235 0.127222 15.6485 0.352265C15.8736 0.577309 16 0.882534 16 1.20079V6.00079C16 6.31905 15.8736 6.62428 15.6485 6.84932C15.4235 7.07437 15.1183 7.20079 14.8 7.20079H10.0888C9.77054 7.20079 9.46532 7.07437 9.24027 6.84932C9.01523 6.62428 8.8888 6.31905 8.8888 6.00079V4.08959C8.8888 3.97287 8.86581 3.8573 8.82114 3.74946C8.77648 3.64163 8.71101 3.54365 8.62848 3.46112C8.54594 3.37858 8.44796 3.31312 8.34013 3.26845C8.2323 3.22378 8.11672 3.20079 8 3.20079C7.88328 3.20079 7.76771 3.22378 7.65987 3.26845C7.55204 3.31312 7.45406 3.37858 7.37152 3.46112C7.28899 3.54365 7.22352 3.64163 7.17886 3.74946C7.13419 3.8573 7.1112 3.97287 7.1112 4.08959V6.00079C7.1112 6.31905 6.98477 6.62428 6.75973 6.84932C6.53468 7.07437 6.22946 7.20079 5.9112 7.20079H1.2C0.88174 7.20079 0.576515 7.07437 0.351472 6.84932C0.126428 6.62428 0 6.31905 0 6.00079L0 1.20079H0Z" fill="#6D7175"/>
<path d="M5.59996 4.0008C5.59996 3.36428 5.85282 2.75383 6.30291 2.30374C6.75299 1.85366 7.36344 1.6008 7.99996 1.6008C8.63648 1.6008 9.24693 1.85366 9.69702 2.30374C10.1471 2.75383 10.4 3.36428 10.4 4.0008V7.508C10.3999 7.594 10.4276 7.67772 10.4789 7.74675C10.5302 7.81578 10.6024 7.86643 10.6848 7.8912L12.8408 8.5376C13.2993 8.67526 13.6932 8.97281 13.951 9.37621C14.2087 9.77961 14.3133 10.2621 14.2456 10.736L13.7392 14.284C13.671 14.7605 13.4332 15.1965 13.0695 15.5119C12.7058 15.8272 12.2406 16.0008 11.7592 16.0008H5.56796C5.18593 16.0008 4.81189 15.8915 4.49006 15.6856C4.16824 15.4798 3.91211 15.186 3.75196 14.8392L2.10396 11.268C1.89587 10.8222 1.86554 10.3138 2.01916 9.8464C2.18716 9.3608 2.59436 8.9184 3.23196 8.828C4.05996 8.7096 4.84476 8.9808 5.60076 9.484V4.0008H5.59996ZM7.99996 3.2008C7.78779 3.2008 7.58431 3.28509 7.43428 3.43511C7.28425 3.58514 7.19996 3.78863 7.19996 4.0008V10.2352C7.19996 11.3472 5.91276 11.772 5.17836 11.1632C4.42076 10.536 3.90636 10.3736 3.52316 10.4048C3.51774 10.4709 3.52931 10.5372 3.55676 10.5976L5.20476 14.168C5.23672 14.2375 5.28792 14.2963 5.35229 14.3376C5.41666 14.3788 5.4915 14.4008 5.56796 14.4008H11.76C11.8562 14.4006 11.9491 14.3657 12.0217 14.3025C12.0943 14.2393 12.1417 14.1521 12.1552 14.0568L12.6616 10.5096C12.6752 10.4149 12.6545 10.3184 12.6031 10.2377C12.5518 10.157 12.4731 10.0973 12.3816 10.0696L10.2256 9.4232C9.8136 9.29968 9.45243 9.04666 9.19563 8.70166C8.93883 8.35666 8.80008 7.93808 8.79996 7.508V4.0008C8.79996 3.78863 8.71568 3.58514 8.56565 3.43511C8.41562 3.28509 8.21214 3.2008 7.99996 3.2008Z" fill="#6D7175"/>
</g>
<defs>
<clipPath id="clip0_8325_32774">
<rect width="16" height="16" fill="white" transform="translate(0 0.000793457)"/>
</clipPath>
</defs>
</svg>
