<svg width="16" height="16" viewBox="0 0 16 16" fill="none" xmlns="http://www.w3.org/2000/svg">
<path d="M12.8 6.40079C13.6824 6.40079 14.4 7.1184 14.4 8.0008C14.4 8.8832 13.6824 9.6008 12.8 9.6008C11.9176 9.6008 11.2 8.8832 11.2 8.0008C11.2 7.1184 11.9176 6.40079 12.8 6.40079ZM7.99998 6.40079C8.88238 6.40079 9.59998 7.1184 9.59998 8.0008C9.59998 8.8832 8.88238 9.6008 7.99998 9.6008C7.11758 9.6008 6.39998 8.8832 6.39998 8.0008C6.39998 7.1184 7.11758 6.40079 7.99998 6.40079ZM3.19998 6.40079C4.08238 6.40079 4.79998 7.1184 4.79998 8.0008C4.79998 8.8832 4.08238 9.6008 3.19998 9.6008C2.31758 9.6008 1.59998 8.8832 1.59998 8.0008C1.59998 7.1184 2.31758 6.40079 3.19998 6.40079Z" fill="#6D7175"/>
</svg>
