<svg width="16" height="16" viewBox="0 0 16 16" fill="none" xmlns="http://www.w3.org/2000/svg">
<g clip-path="url(#clip0_16565_43579)">
<path fill-rule="evenodd" clip-rule="evenodd" d="M6.39359 1.6992C6.40932 1.59372 6.4038 1.48616 6.37735 1.38284C6.3509 1.27952 6.30406 1.18253 6.23959 1.09757C6.17511 1.01262 6.0943 0.941416 6.0019 0.888148C5.9095 0.834881 5.80739 0.800626 5.70156 0.787397C5.59574 0.774169 5.48833 0.782234 5.38567 0.811119C5.283 0.840004 5.18715 0.889125 5.10375 0.955594C5.02034 1.02206 4.95107 1.10454 4.9 1.19817C4.84894 1.2918 4.81711 1.39469 4.80639 1.5008L4.49439 4.00001H1.59999C1.38781 4.00001 1.18433 4.08429 1.0343 4.23432C0.884273 4.38435 0.799988 4.58783 0.799988 4.8C0.799988 5.01218 0.884273 5.21566 1.0343 5.36569C1.18433 5.51572 1.38781 5.60001 1.59999 5.60001H4.29359L3.69359 10.4H1.59999C1.38781 10.4 1.18433 10.4843 1.0343 10.6343C0.884273 10.7843 0.799988 10.9878 0.799988 11.2C0.799988 11.4122 0.884273 11.6157 1.0343 11.7657C1.18433 11.9157 1.38781 12 1.59999 12H3.49359L3.20559 14.3008C3.19256 14.4051 3.2002 14.5109 3.22807 14.6122C3.25593 14.7135 3.30348 14.8084 3.368 14.8913C3.43252 14.9742 3.51274 15.0437 3.60409 15.0956C3.69544 15.1475 3.79612 15.181 3.90039 15.194C4.00466 15.207 4.11047 15.1994 4.21179 15.1715C4.31311 15.1437 4.40794 15.0961 4.49089 15.0316C4.57383 14.9671 4.64325 14.8869 4.69519 14.7955C4.74712 14.7042 4.78056 14.6035 4.79359 14.4992L5.10559 12H9.89359L9.60559 14.3008C9.57928 14.5114 9.6377 14.7238 9.768 14.8913C9.8983 15.0588 10.0898 15.1677 10.3004 15.194C10.511 15.2203 10.7234 15.1619 10.8909 15.0316C11.0584 14.9013 11.1673 14.7098 11.1936 14.4992L11.5056 12H14.4C14.6122 12 14.8156 11.9157 14.9657 11.7657C15.1157 11.6157 15.2 11.4122 15.2 11.2C15.2 10.9878 15.1157 10.7843 14.9657 10.6343C14.8156 10.4843 14.6122 10.4 14.4 10.4H11.7064L12.3064 5.60001H14.4C14.6122 5.60001 14.8156 5.51572 14.9657 5.36569C15.1157 5.21566 15.2 5.01218 15.2 4.8C15.2 4.58783 15.1157 4.38435 14.9657 4.23432C14.8156 4.08429 14.6122 4.00001 14.4 4.00001H12.5064L12.7944 1.6992C12.8074 1.59494 12.7998 1.48912 12.7719 1.3878C12.744 1.28649 12.6965 1.19165 12.632 1.10871C12.5675 1.02577 12.4872 0.956344 12.3959 0.904407C12.3045 0.852469 12.2039 0.819032 12.0996 0.806005C11.9953 0.792978 11.8895 0.800616 11.7882 0.828482C11.6869 0.856349 11.592 0.903899 11.5091 0.968417C11.4261 1.03294 11.3567 1.11316 11.3048 1.20451C11.2529 1.29585 11.2194 1.39654 11.2064 1.5008L10.8944 4.00001H6.10559L6.39359 1.6992ZM10.0936 10.4L10.6936 5.60001H5.90639L5.30639 10.4H10.0936Z" fill="#6D7175"/>
</g>
<defs>
<clipPath id="clip0_16565_43579">
<rect width="16" height="16" fill="white"/>
</clipPath>
</defs>
</svg>
