<svg width="16" height="16" viewBox="0 0 16 16" fill="none" xmlns="http://www.w3.org/2000/svg">
<path fill-rule="evenodd" clip-rule="evenodd" d="M1 2C1 1.44772 1.44772 1 2 1H14C14.5523 1 15 1.44772 15 2V6C15 6.55228 14.5523 7 14 7H2C1.44772 7 1 6.55228 1 6V2ZM5 4C5 4.55228 4.55228 5 4 5C3.44772 5 3 4.55228 3 4C3 3.44772 3.44772 3 4 3C4.55228 3 5 3.44772 5 4ZM1 10C1 9.44772 1.44772 9 2 9H14C14.5523 9 15 9.44772 15 10V14C15 14.5523 14.5523 15 14 15H2C1.44772 15 1 14.5523 1 14V10ZM5 12C5 12.5523 4.55228 13 4 13C3.44772 13 3 12.5523 3 12C3 11.4477 3.44772 11 4 11C4.55228 11 5 11.4477 5 12Z" fill="#6D7175"/>
</svg>
