<svg width="16" height="16" viewBox="0 0 16 16" fill="none" xmlns="http://www.w3.org/2000/svg">
<path fill-rule="evenodd" clip-rule="evenodd" d="M4.4 10.6V13.2795L8.15135 10.6H14C14.3314 10.6 14.6 10.3314 14.6 10V3C14.6 2.66863 14.3314 2.4 14 2.4H2C1.66863 2.4 1.4 2.66863 1.4 3V10C1.4 10.3314 1.66863 10.6 2 10.6H4.4ZM0 3C0 1.89543 0.895431 1 2 1H14C15.1046 1 16 1.89543 16 3V10C16 11.1046 15.1046 12 14 12H8.6L4.58124 14.8705C3.91937 15.3433 3 14.8702 3 14.0568V12H2C0.895431 12 0 11.1046 0 10V3Z" fill="#6D7175"/>
</svg>
