<svg width="16" height="16" viewBox="0 0 16 16" fill="none" xmlns="http://www.w3.org/2000/svg">
<g clip-path="url(#clip0_16565_43531)">
<path d="M13.2096 4C11.4904 2.4528 10.0176 1.6 8 1.6C6.30261 1.6 4.67475 2.27428 3.47451 3.47452C2.27428 4.67475 1.6 6.30261 1.6 8C1.6 9.69739 2.27428 11.3253 3.47451 12.5255C4.67475 13.7257 6.30261 14.4 8 14.4C8.21217 14.4 8.41565 14.4843 8.56568 14.6343C8.71571 14.7843 8.8 14.9878 8.8 15.2C8.8 15.4122 8.71571 15.6157 8.56568 15.7657C8.41565 15.9157 8.21217 16 8 16C3.5816 16 -1.90735e-06 12.4184 -1.90735e-06 8C-1.90735e-06 3.5816 3.5816 0 8 0C10.6376 0 12.5152 1.1968 14.4 2.9176V0.8C14.4 0.587827 14.4843 0.384344 14.6343 0.234315C14.7843 0.0842855 14.9878 0 15.2 0C15.4122 0 15.6157 0.0842855 15.7657 0.234315C15.9157 0.384344 16 0.587827 16 0.8L16 4.8C16.0002 4.90512 15.9797 5.00924 15.9395 5.1064C15.8994 5.20355 15.8405 5.29183 15.7662 5.36616C15.6918 5.44048 15.6036 5.4994 15.5064 5.53953C15.4092 5.57966 15.3051 5.60021 15.2 5.6L11.2 5.6C10.9878 5.6 10.7843 5.51571 10.6343 5.36569C10.4843 5.21566 10.4 5.01217 10.4 4.8C10.4 4.58783 10.4843 4.38434 10.6343 4.23431C10.7843 4.08429 10.9878 4 11.2 4H13.2096Z" fill="#6D7175"/>
</g>
<defs>
<clipPath id="clip0_16565_43531">
<rect width="16" height="16" fill="white"/>
</clipPath>
</defs>
</svg>
