<svg width="16" height="16" viewBox="0 0 16 16" fill="none" xmlns="http://www.w3.org/2000/svg">
<g clip-path="url(#clip0_16565_43592)">
<path d="M14.7368 0C15.0719 0 15.3931 0.133082 15.63 0.36997C15.8669 0.606858 16 0.928148 16 1.26316V11.3684C16 11.7034 15.8669 12.0247 15.63 12.2616C15.3931 12.4985 15.0719 12.6316 14.7368 12.6316H11.7895V14.7368C11.7895 15.0719 11.6564 15.3931 11.4195 15.63C11.1826 15.8669 10.8613 16 10.5263 16H1.26316C0.928148 16 0.606858 15.8669 0.36997 15.63C0.133082 15.3931 0 15.0719 0 14.7368L0 5.47368C0 5.13867 0.133082 4.81738 0.36997 4.5805C0.606858 4.34361 0.928148 4.21053 1.26316 4.21053H3.36842V1.26316C3.36842 0.928148 3.5015 0.606858 3.73839 0.36997C3.97528 0.133082 4.29657 0 4.63158 0H14.7368ZM9.26316 10.9474H14.3158V5.89474L9.26316 10.9474ZM1.68421 14.3158H10.1053V12.6088L4.63579 12.6274C4.46956 12.6279 4.30485 12.5957 4.15111 12.5324C3.99737 12.4692 3.85762 12.3762 3.73988 12.2589C3.62214 12.1415 3.52872 12.0021 3.46497 11.8486C3.40123 11.695 3.36842 11.5304 3.36842 11.3642V5.89474H1.68421V14.3158ZM10.1053 1.68421H5.05263V6.73684L10.1053 1.68421Z" fill="#6D7175"/>
</g>
<defs>
<clipPath id="clip0_16565_43592">
<rect width="16" height="16" fill="white"/>
</clipPath>
</defs>
</svg>
