<svg width="16" height="16" viewBox="0 0 16 16" fill="none" xmlns="http://www.w3.org/2000/svg">
<path d="M10.589 7.94143C10.7652 7.55755 10.5969 7.10347 10.213 6.92722C9.82916 6.75096 9.37508 6.91927 9.19883 7.30315L8.00425 9.90488L6.80027 7.30127C6.62297 6.91787 6.16844 6.75079 5.78504 6.92808C5.40164 7.10538 5.23456 7.55991 5.41186 7.94331L7.21299 11.8383C7.5262 12.5156 8.48937 12.5143 8.80074 11.8361L10.589 7.94143Z" fill="#6D7175"/>
<path fill-rule="evenodd" clip-rule="evenodd" d="M6.60291 1.12415C5.39972 0.563096 3.96953 1.08365 3.40848 2.28683L2.71374 3.7767C1.47501 3.87358 0.5 4.90946 0.5 6.17307V12.6979C0.5 14.0254 1.57621 15.1016 2.90377 15.1016H13.0962C14.4238 15.1016 15.5 14.0254 15.5 12.6979V6.17307C15.5 4.8455 14.4238 3.7693 13.0962 3.7693H12.2754L6.60291 1.12415ZM8.65593 3.7693H4.40499L4.79483 2.93329C4.99885 2.49577 5.51892 2.30648 5.95644 2.5105L8.65593 3.7693ZM2.90377 5.29897C2.42102 5.29897 2.02967 5.69031 2.02967 6.17307V12.6979C2.02967 13.1806 2.42102 13.572 2.90377 13.572H13.0962C13.579 13.572 13.9703 13.1806 13.9703 12.6979V6.17307C13.9703 5.69032 13.579 5.29897 13.0962 5.29897H2.90377Z" fill="#6D7175"/>
</svg>
