<svg width="16" height="16" viewBox="0 0 16 16" fill="none" xmlns="http://www.w3.org/2000/svg">
<g clip-path="url(#clip0_16565_43524)">
<path fill-rule="evenodd" clip-rule="evenodd" d="M0.800003 2C0.800003 1.68174 0.926431 1.37652 1.15147 1.15147C1.37652 0.926431 1.68174 0.800003 2 0.800003H14C14.3183 0.800003 14.6235 0.926431 14.8485 1.15147C15.0736 1.37652 15.2 1.68174 15.2 2V11.6C15.2 11.9183 15.0736 12.2235 14.8485 12.4485C14.6235 12.6736 14.3183 12.8 14 12.8H2C1.68174 12.8 1.37652 12.6736 1.15147 12.4485C0.926431 12.2235 0.800003 11.9183 0.800003 11.6V2ZM7.2 4C7.2 4.42435 7.03143 4.83132 6.73137 5.13137C6.43131 5.43143 6.02435 5.6 5.6 5.6C5.17566 5.6 4.76869 5.43143 4.46863 5.13137C4.16857 4.83132 4 4.42435 4 4C4 3.57566 4.16857 3.16869 4.46863 2.86863C4.76869 2.56857 5.17566 2.4 5.6 2.4C6.02435 2.4 6.43131 2.56857 6.73137 2.86863C7.03143 3.16869 7.2 3.57566 7.2 4ZM12.456 11.2H3.5416C3.2608 11.2 3.1032 10.9056 3.2672 10.6944L5.704 8.1024C5.76968 8.03817 5.85751 8.00161 5.94937 8.00027C6.04122 7.99893 6.13008 8.03292 6.1976 8.0952L7.3144 9.28L9.4128 6.22C9.44693 6.17543 9.49109 6.13953 9.54169 6.11523C9.5923 6.09093 9.64793 6.07892 9.70405 6.08017C9.76018 6.08141 9.81522 6.09589 9.86469 6.12241C9.91417 6.14893 9.95669 6.18675 9.9888 6.2328L12.7584 10.72C12.8816 10.9376 12.7168 11.2 12.4568 11.2H12.456Z" fill="#6D7175"/>
<path d="M4.8 16C5.01217 16 5.21566 15.9157 5.36569 15.7657C5.51571 15.6157 5.6 15.4122 5.6 15.2C5.6 14.9878 5.51571 14.7843 5.36569 14.6343C5.21566 14.4843 5.01217 14.4 4.8 14.4C4.58783 14.4 4.38434 14.4843 4.23431 14.6343C4.08429 14.7843 4 14.9878 4 15.2C4 15.4122 4.08429 15.6157 4.23431 15.7657C4.38434 15.9157 4.58783 16 4.8 16ZM8.8 15.2C8.8 15.4122 8.71571 15.6157 8.56569 15.7657C8.41566 15.9157 8.21217 16 8 16C7.78783 16 7.58434 15.9157 7.43431 15.7657C7.28429 15.6157 7.2 15.4122 7.2 15.2C7.2 14.9878 7.28429 14.7843 7.43431 14.6343C7.58434 14.4843 7.78783 14.4 8 14.4C8.21217 14.4 8.41566 14.4843 8.56569 14.6343C8.71571 14.7843 8.8 14.9878 8.8 15.2ZM11.2 16C11.4122 16 11.6157 15.9157 11.7657 15.7657C11.9157 15.6157 12 15.4122 12 15.2C12 14.9878 11.9157 14.7843 11.7657 14.6343C11.6157 14.4843 11.4122 14.4 11.2 14.4C10.9878 14.4 10.7843 14.4843 10.6343 14.6343C10.4843 14.7843 10.4 14.9878 10.4 15.2C10.4 15.4122 10.4843 15.6157 10.6343 15.7657C10.7843 15.9157 10.9878 16 11.2 16Z" fill="#6D7175"/>
</g>
<defs>
<clipPath id="clip0_16565_43524">
<rect width="16" height="16" fill="white"/>
</clipPath>
</defs>
</svg>
