<svg width="16" height="16" viewBox="0 0 16 16" fill="none" xmlns="http://www.w3.org/2000/svg">
<path d="M8.00001 6.40001C11.5346 6.40001 14.4 5.32549 14.4 4.00001C14.4 2.67453 11.5346 1.60001 8.00001 1.60001C4.46538 1.60001 1.60001 2.67453 1.60001 4.00001C1.60001 5.32549 4.46538 6.40001 8.00001 6.40001ZM13.5438 6.80001C12.4372 7.51737 10.3689 8.00001 8.00001 8.00001C5.6311 8.00001 3.56281 7.51737 2.45621 6.80001C1.91167 7.15301 1.60001 7.56286 1.60001 8.00001C1.60001 9.32553 4.46538 10.4 8.00001 10.4C11.5346 10.4 14.4 9.32553 14.4 8.00001C14.4 7.56286 14.0883 7.15301 13.5438 6.80001ZM13.5438 10.8C12.4372 11.5174 10.3689 12 8.00001 12C5.6311 12 3.56281 11.5174 2.45621 10.8C1.91167 11.153 1.60001 11.5629 1.60001 12C1.60001 13.3255 4.46538 14.4 8.00001 14.4C11.5346 14.4 14.4 13.3255 14.4 12C14.4 11.5629 14.0883 11.153 13.5438 10.8Z" fill="#6D7175"/>
</svg>
