<svg width="16" height="17" viewBox="0 0 16 17" fill="none" xmlns="http://www.w3.org/2000/svg">
<path d="M1.6 6.4C1.6 3.7528 3.7528 1.6 6.4 1.6C9.0472 1.6 11.2 3.7528 11.2 6.4C11.2 9.0472 9.0472 11.2 6.4 11.2C3.7528 11.2 1.6 9.0472 1.6 6.4ZM15.7656 14.6344L11.4496 10.3176C12.3247 9.19922 12.8001 7.82004 12.8 6.4C12.8 2.8712 9.9288 0 6.4 0C2.8712 0 0 2.8712 0 6.4C0 9.9288 2.8712 12.8 6.4 12.8C7.81996 12.7996 9.19898 12.3242 10.3176 11.4496L14.6344 15.7656C14.746 15.8782 14.8886 15.9551 15.044 15.9864C15.1994 16.0177 15.3606 16.002 15.5071 15.9413C15.6536 15.8807 15.7787 15.7778 15.8665 15.6457C15.9543 15.5137 16.0007 15.3585 16 15.2C16 14.9878 15.9156 14.7844 15.7656 14.6344Z" fill="#6D7175"/>
</svg>
