<svg width="16" height="16" viewBox="0 0 16 16" fill="none" xmlns="http://www.w3.org/2000/svg">
<path d="M14.4 5.80879V14C14.4 14.6728 13.8624 15.2 13.2 15.2H11.6C10.9376 15.2 10.4 14.6728 10.4 14V10.4H5.59998V13.9816C5.59998 14.6544 5.06238 15.2 4.39998 15.2H2.79998C2.13758 15.2 1.59998 14.6544 1.59998 13.9816V5.80879C1.60011 5.62013 1.64474 5.43415 1.73022 5.26596C1.81571 5.09777 1.93964 4.95211 2.09198 4.84079L7.36398 0.984794C7.55406 0.863857 7.77468 0.799622 7.99998 0.799622C8.22527 0.799622 8.44589 0.863857 8.63598 0.984794L13.908 4.84079C14.0602 4.95203 14.1841 5.09756 14.2695 5.2656C14.355 5.43365 14.3997 5.61946 14.4 5.80799V5.80879Z" fill="#6D7175"/>
</svg>
