<svg width="16" height="16" viewBox="0 0 16 16" fill="none" xmlns="http://www.w3.org/2000/svg">
<path fill-rule="evenodd" clip-rule="evenodd" d="M2.34078 1.69121C2.12179 1.78248 1.93465 1.93641 1.80285 2.13368C1.67105 2.33095 1.60047 2.56276 1.59998 2.80001V3.66641H3.19998V3.20001H3.66878V1.97201L3.66638 1.97041V1.60001H2.79998C2.63758 1.60001 2.48238 1.63201 2.34078 1.69121ZM5.39998 1.60001V3.20001H7.13358V1.60001H5.39998ZM8.86638 1.60001V3.20001H10.6V1.60001H8.86638ZM12.3336 1.60001V3.20001H12.8V3.66641L14.028 3.66721H14.4V2.80001C14.4 2.48175 14.2735 2.17652 14.0485 1.95148C13.8235 1.72643 13.5182 1.60001 13.2 1.60001H12.3336ZM14.4 5.40001H12.8V7.13361H14.4V5.40001ZM7.13358 14.4V12.8H5.39998V14.4H7.13358ZM3.66638 14.4V14.032L3.66718 14.0312V12.8H3.20158V12.3312H1.97358L1.97118 12.3336H1.59998V13.2C1.59998 13.3624 1.63198 13.5176 1.69118 13.6592H1.69198C1.81358 13.952 2.04798 14.1872 2.34078 14.308V14.3088C2.48637 14.3691 2.64241 14.4 2.79998 14.4H3.66638ZM1.59998 10.6H3.19998V8.86641H1.59998V10.6ZM1.59998 7.13361H3.19998V5.40001H1.59998V7.13361ZM9.31358 8.06401C9.24262 8.03154 9.16373 8.02052 9.0866 8.03233C9.00947 8.04414 8.93747 8.07824 8.87948 8.13045C8.82149 8.18266 8.78004 8.25069 8.76023 8.32616C8.74041 8.40163 8.74311 8.48125 8.76798 8.55521L10.7424 14.424C10.7635 14.4869 10.8 14.5436 10.8485 14.5889C10.897 14.6342 10.956 14.6668 11.0202 14.6836C11.0844 14.7004 11.1518 14.701 11.2162 14.6853C11.2807 14.6696 11.3403 14.6381 11.3896 14.5936L12.5336 13.5632L14.4824 15.728C14.6256 15.8809 14.823 15.9714 15.0322 15.9803C15.2415 15.9892 15.4459 15.9157 15.6015 15.7756C15.7572 15.6354 15.8516 15.4399 15.8647 15.2308C15.8777 15.0218 15.8082 14.816 15.6712 14.6576L13.7216 12.4928L15.0464 11.3C15.0956 11.2556 15.133 11.1997 15.1553 11.1372C15.1775 11.0747 15.1839 11.0077 15.1738 10.9422C15.1637 10.8767 15.1375 10.8147 15.0975 10.7618C15.0576 10.7089 15.0051 10.6668 14.9448 10.6392L9.31358 8.06321V8.06401Z" fill="#6D7175"/>
</svg>
