<svg width="16" height="16" viewBox="0 0 16 16" fill="none" xmlns="http://www.w3.org/2000/svg">
<path fill-rule="evenodd" clip-rule="evenodd" d="M7.20015 2.8V11.2688L4.56575 8.63441C4.25295 8.32161 3.74735 8.32161 3.43455 8.63441C3.12175 8.94721 3.12175 9.45281 3.43455 9.76561L7.43455 13.7656C7.74735 14.0784 8.25295 14.0784 8.56575 13.7656L12.5658 9.76561C12.7218 9.60961 12.8002 9.40481 12.8002 9.20001C12.8002 8.99521 12.7218 8.79041 12.5658 8.63441C12.253 8.32161 11.7474 8.32161 11.4346 8.63441L8.80015 11.2688V2.8C8.80015 2.3576 8.44255 2 8.00015 2C7.55775 2 7.20015 2.3576 7.20015 2.8Z" fill="#6D7175"/>
</svg>
