<svg width="16" height="16" viewBox="0 0 16 16" fill="none" xmlns="http://www.w3.org/2000/svg">
<g clip-path="url(#clip0_16565_43527)">
<path fill-rule="evenodd" clip-rule="evenodd" d="M8 16C12.4184 16 16 12.4184 16 8C16 3.5816 12.4184 0 8 0C3.5816 0 0 3.5816 0 8C0 12.4184 3.5816 16 8 16ZM6.4 5.4896V10.5104C6.40002 10.5804 6.41844 10.6493 6.45341 10.71C6.48838 10.7707 6.53867 10.8211 6.59926 10.8563C6.65985 10.8914 6.7286 10.91 6.79865 10.9103C6.8687 10.9105 6.93758 10.8923 6.9984 10.8576L11.392 8.3472C11.4532 8.3122 11.504 8.26166 11.5394 8.20069C11.5747 8.13972 11.5934 8.07048 11.5934 8C11.5934 7.92952 11.5747 7.86028 11.5394 7.79931C11.504 7.73834 11.4532 7.6878 11.392 7.6528L6.9984 5.1416C6.93752 5.10682 6.86856 5.08866 6.79845 5.08893C6.72833 5.0892 6.65952 5.1079 6.59891 5.14315C6.5383 5.1784 6.48802 5.22896 6.45311 5.28976C6.4182 5.35057 6.39988 5.41949 6.4 5.4896Z" fill="#6D7175"/>
</g>
<defs>
<clipPath id="clip0_16565_43527">
<rect width="16" height="16" fill="white"/>
</clipPath>
</defs>
</svg>
