<svg width="16" height="16" viewBox="0 0 16 16" fill="none" xmlns="http://www.w3.org/2000/svg">
<path d="M9.00001 11.5C8.72664 11.7734 8.28342 11.7734 8.01006 11.5C7.73669 11.2266 7.73669 10.7834 8.01006 10.5101L9.82012 8.7H4.20001C3.81341 8.7 3.50001 8.3866 3.50001 8C3.50001 7.6134 3.81341 7.3 4.20001 7.3H9.8201L8.01006 5.48996C7.73669 5.21659 7.73669 4.77337 8.01006 4.50001C8.28342 4.22664 8.72664 4.22664 9.00001 4.50001L11.9789 7.47892C12.2667 7.76671 12.2667 8.2333 11.9789 8.52109L9.00001 11.5Z" fill="#6D7175"/>
<path fill-rule="evenodd" clip-rule="evenodd" d="M0 8C0 3.58172 3.58172 0 8 0C12.4183 0 16 3.58172 16 8C16 12.4183 12.4183 16 8 16C3.58172 16 0 12.4183 0 8ZM1.4 8C1.4 4.35492 4.35492 1.4 8 1.4C11.6451 1.4 14.6 4.35492 14.6 8C14.6 11.6451 11.6451 14.6 8 14.6C4.35492 14.6 1.4 11.6451 1.4 8Z" fill="#6D7175"/>
</svg>
