<svg width="16" height="16" viewBox="0 0 16 16" fill="none" xmlns="http://www.w3.org/2000/svg">
<path d="M6 2.494C6 1.393 6.895 0.5 8 0.5C9.105 0.5 10 1.393 10 2.494H14C14.552 2.494 15 2.94 15 3.491C14.9992 3.7557 14.8935 4.00928 14.706 4.19617C14.5186 4.38306 14.2647 4.488 14 4.488H2C1.448 4.488 1 4.041 1 3.491C1 2.941 1.448 2.494 2 2.494H6ZM3 13.008V6.5H5V13.008C5.00053 13.1403 5.05344 13.2669 5.14715 13.3603C5.24086 13.4536 5.36774 13.506 5.5 13.506H7V6.5H9V13.506H10.5C10.6323 13.506 10.7591 13.4536 10.8528 13.3603C10.9466 13.2669 10.9995 13.1403 11 13.008V6.5H13V13.008C12.9995 13.3358 12.9344 13.6602 12.8085 13.9629C12.6826 14.2655 12.4983 14.5404 12.2661 14.7718C12.034 15.0032 11.7585 15.1866 11.4555 15.3115C11.1525 15.4365 10.8278 15.5005 10.5 15.5H5.5C4.12 15.5 3 14.384 3 13.008Z" fill="#6D7175"/>
</svg>
