<svg width="16" height="16" viewBox="0 0 16 16" fill="none" xmlns="http://www.w3.org/2000/svg">
<path fill-rule="evenodd" clip-rule="evenodd" d="M5.79956 7.46671C5.79956 8.19104 6.08796 8.88556 6.60105 9.39683C6.73518 9.53641 6.92039 9.61529 7.11397 9.61529C7.30754 9.61529 7.49275 9.53641 7.62688 9.39683C7.76519 9.26184 7.84318 9.07676 7.84318 8.88349C7.84318 8.69023 7.76519 8.50514 7.62688 8.37015C7.1309 7.87261 7.1309 7.0676 7.62688 6.57006L11.1693 3.02852C11.6731 2.57397 12.4446 2.59368 12.9245 3.07337C13.4044 3.55306 13.4245 4.32461 12.9702 4.82861L11.0231 6.77659C10.7593 7.06513 10.7693 7.51013 11.0457 7.78656C11.3222 8.06298 11.7672 8.07297 12.0557 7.80922L14.0011 5.86124C15.0671 4.79409 15.0662 3.06484 13.999 1.99886C12.9319 0.93288 11.2026 0.933831 10.1366 2.00098L6.60105 5.53658C6.08796 6.04785 5.79956 6.74237 5.79956 7.46671ZM1.99792 10.1405C0.933962 11.2073 0.933962 12.9339 1.99792 14.0008C3.06696 15.0633 4.79338 15.0633 5.86242 14.0008L9.39802 10.4592C9.91131 9.94805 10.1999 9.25349 10.1999 8.52908C10.1999 7.80468 9.91131 7.11012 9.39802 6.59896C9.11286 6.31568 8.65206 6.3172 8.36879 6.60236C8.08551 6.88751 8.08703 7.34831 8.37218 7.63159C8.86817 8.12912 8.86817 8.93414 8.37218 9.43168L4.82979 12.9673C4.32508 13.4145 3.55934 13.3914 3.08259 12.9144C2.60584 12.4374 2.58304 11.6717 3.03055 11.1672L4.97598 9.22515C5.24367 8.93765 5.23587 8.48986 4.95832 8.21185C4.68077 7.93384 4.23299 7.9253 3.94504 8.19252L1.99792 10.1405Z" fill="#6D7175"/>
</svg>
