<svg width="16" height="16" viewBox="0 0 16 16" fill="none" xmlns="http://www.w3.org/2000/svg">
<g clip-path="url(#clip0_16565_43599)">
<path d="M11.1224 6.4C11.1704 6.9032 11.2 7.4336 11.2 8C11.2 8.21217 11.1157 8.41566 10.9657 8.56569C10.8157 8.71571 10.6122 8.8 10.4 8.8C10.1878 8.8 9.98434 8.71571 9.83432 8.56569C9.68429 8.41566 9.6 8.21217 9.6 8C9.6 7.4296 9.5688 6.8976 9.516 6.4H6.4736C6.3624 7.464 6.3616 8.536 6.4704 9.6H8C8.21217 9.6 8.41566 9.68429 8.56569 9.83432C8.71571 9.98434 8.8 10.1878 8.8 10.4C8.8 10.6122 8.71571 10.8157 8.56569 10.9657C8.41566 11.1157 8.21217 11.2 8 11.2H6.7328C7.108 12.864 7.6944 13.928 8.0008 14.4C8.0008 14.4 8.632 14.4104 8.7416 14.4016C8.95286 14.3879 9.16103 14.4578 9.32118 14.5963C9.48133 14.7347 9.58061 14.9306 9.5976 15.1416C9.61302 15.3531 9.54381 15.5621 9.4052 15.7226C9.26659 15.8831 9.06991 15.982 8.8584 15.9976C8.7832 16.0032 8 16 8 16C3.5888 16 0 12.4112 0 8C0 3.588 3.5888 0 8 0C12.4112 0 16 3.588 16 8C16 8.3032 15.9712 8.5992 15.9368 8.8928C15.905 9.09758 15.7951 9.28206 15.6301 9.40749C15.4652 9.53291 15.258 9.5895 15.0522 9.56536C14.8464 9.54123 14.6579 9.43825 14.5265 9.27807C14.395 9.11788 14.3307 8.91297 14.3472 8.7064C14.3752 8.4736 14.4 8.24 14.4 8C14.4 7.4464 14.3216 6.912 14.1896 6.4H11.1224ZM7.9904 1.6288C7.6816 2.1136 7.1104 3.1736 6.7392 4.8H9.2488C8.876 3.1736 8.3008 2.1136 7.9904 1.6288ZM1.8104 9.6H4.8656C4.81565 9.06919 4.79029 8.53635 4.7896 8.0032C4.7896 7.4672 4.816 6.9328 4.8664 6.4H1.8104C1.67258 6.92223 1.60188 7.45989 1.6 8C1.602 8.5401 1.6727 9.07775 1.8104 9.6ZM2.4656 11.2C3.2556 12.563 4.51883 13.5882 6.0152 14.0808C5.59835 13.1594 5.29014 12.1926 5.0968 11.2H2.4656ZM5.0984 4.8C5.29172 3.80664 5.60049 2.83928 6.0184 1.9176C4.52054 2.40985 3.25602 3.43577 2.4656 4.8H5.0984ZM10.8896 4.8H13.5336C12.7399 3.42934 11.4678 2.40026 9.9616 1.9104C10.3835 2.83374 10.695 3.80365 10.8896 4.8Z" fill="#6D7175"/>
<path d="M12.1784 15.156L10.1384 10.668C10.1047 10.5939 10.0945 10.5113 10.109 10.4312C10.1236 10.3511 10.1622 10.2773 10.2198 10.2198C10.2773 10.1622 10.3511 10.1236 10.4312 10.109C10.5113 10.0945 10.5939 10.1047 10.668 10.1384L15.156 12.1784C15.2249 12.2096 15.2836 12.2597 15.3252 12.3228C15.3668 12.386 15.3896 12.4597 15.391 12.5353C15.3925 12.6109 15.3724 12.6854 15.3332 12.7501C15.294 12.8148 15.2373 12.867 15.1696 12.9008L13.776 13.5968C13.6987 13.6357 13.6361 13.6985 13.5976 13.776L12.9008 15.1696C12.867 15.2373 12.8148 15.294 12.7501 15.3332C12.6854 15.3724 12.6109 15.3925 12.5353 15.391C12.4597 15.3896 12.386 15.3668 12.3228 15.3252C12.2597 15.2836 12.2096 15.2249 12.1784 15.156Z" fill="#6D7175"/>
</g>
<defs>
<clipPath id="clip0_16565_43599">
<rect width="16" height="16" fill="white"/>
</clipPath>
</defs>
</svg>
