<svg width="16" height="16" viewBox="0 0 16 16" fill="none" xmlns="http://www.w3.org/2000/svg">
<g clip-path="url(#clip0_16565_43551)">
<path fill-rule="evenodd" clip-rule="evenodd" d="M1.2 0C0.88174 0 0.576515 0.126428 0.351472 0.351472C0.126428 0.576515 0 0.88174 0 1.2L0 4.4C0 4.71826 0.126428 5.02348 0.351472 5.24853C0.576515 5.47357 0.88174 5.6 1.2 5.6H2.4V14.8C2.4 15.1183 2.52643 15.4235 2.75147 15.6485C2.97652 15.8736 3.28174 16 3.6 16H6.4C6.61217 16 6.81566 15.9157 6.96569 15.7657C7.11571 15.6157 7.2 15.4122 7.2 15.2C7.2 14.9878 7.11571 14.7843 6.96569 14.6343C6.81566 14.4843 6.61217 14.4 6.4 14.4H4V5.6H5.2C5.51826 5.6 5.82348 5.47357 6.04853 5.24853C6.27357 5.02348 6.4 4.71826 6.4 4.4V4H12C12 4.21217 12.0843 4.41566 12.2343 4.56569C12.3843 4.71571 12.5878 4.8 12.8 4.8C13.0122 4.8 13.2157 4.71571 13.3657 4.56569C13.5157 4.41566 13.6 4.21217 13.6 4V3.6C13.6 3.28174 13.4736 2.97652 13.2485 2.75147C13.0235 2.52643 12.7183 2.4 12.4 2.4H6.4V1.2C6.4 0.88174 6.27357 0.576515 6.04853 0.351472C5.82348 0.126428 5.51826 0 5.2 0L1.2 0ZM1.6 1.6V4H4.8V1.6H1.6Z" fill="#6D7175"/>
<path fill-rule="evenodd" clip-rule="evenodd" d="M7.2 6.39999C6.98783 6.39999 6.78435 6.48428 6.63432 6.63431C6.48429 6.78434 6.4 6.98782 6.4 7.19999V11.2C6.40005 11.4121 6.48436 11.6156 6.6344 11.7656L10.6344 15.7656C10.7844 15.9156 10.9879 15.9998 11.2 15.9998C11.4121 15.9998 11.6156 15.9156 11.7656 15.7656L15.7656 11.7656C15.9156 11.6156 15.9998 11.4121 15.9998 11.2C15.9998 10.9879 15.9156 10.7844 15.7656 10.6344L11.7656 6.63439C11.6156 6.48435 11.4122 6.40004 11.2 6.39999H7.2ZM10.4 9.59999C10.4 9.81217 10.3157 10.0156 10.1657 10.1657C10.0157 10.3157 9.81217 10.4 9.6 10.4C9.38783 10.4 9.18435 10.3157 9.03432 10.1657C8.88429 10.0156 8.8 9.81217 8.8 9.59999C8.8 9.38782 8.88429 9.18434 9.03432 9.03431C9.18435 8.88428 9.38783 8.79999 9.6 8.79999C9.81217 8.79999 10.0157 8.88428 10.1657 9.03431C10.3157 9.18434 10.4 9.38782 10.4 9.59999Z" fill="#6D7175"/>
</g>
<defs>
<clipPath id="clip0_16565_43551">
<rect width="16" height="16" fill="white"/>
</clipPath>
</defs>
</svg>
