<svg width="16" height="16" viewBox="0 0 16 16" fill="none" xmlns="http://www.w3.org/2000/svg">
<path d="M5.99998 1.6C5.68172 1.6 5.37649 1.72643 5.15145 1.95147C4.9264 2.17651 4.79998 2.48174 4.79998 2.8V10.4C4.79998 10.6122 4.88426 10.8157 5.03429 10.9657C5.18432 11.1157 5.3878 11.2 5.59998 11.2H13.2C13.5182 11.2 13.8235 11.0736 14.0485 10.8485C14.2735 10.6235 14.4 10.3183 14.4 10V2.8C14.4 2.48174 14.2735 2.17651 14.0485 1.95147C13.8235 1.72643 13.5182 1.6 13.2 1.6H5.99998ZM2.79998 4.8H3.19998V12.8H11.2V13.2C11.2 13.5183 11.0735 13.8235 10.8485 14.0485C10.6235 14.2736 10.3182 14.4 9.99998 14.4H2.79998C2.48172 14.4 2.17649 14.2736 1.95145 14.0485C1.7264 13.8235 1.59998 13.5183 1.59998 13.2V6C1.59998 5.68174 1.7264 5.37651 1.95145 5.15147C2.17649 4.92643 2.48172 4.8 2.79998 4.8Z" fill="#6D7175"/>
</svg>
