<svg width="16" height="16" viewBox="0 0 16 16" fill="none" xmlns="http://www.w3.org/2000/svg">
<path d="M0 1C0 1 0 1.33579 0 1.75C0 2.16421 0 2.5 0 2.5H16C16 2.5 16 2.16421 16 1.75C16 1.33579 16 1 16 1H0Z" fill="#6D7175"/>
<path d="M10.8456 6H15.8211C15.9703 6 16.0537 6.19624 15.9613 6.33021L13.4735 9.92287C13.4015 10.0257 13.2644 10.0257 13.1932 9.92287L10.7054 6.33021C10.613 6.19624 10.6963 6 10.8456 6Z" fill="#6D7175"/>
<path d="M0 8C0 7.58579 0 7.25 0 7.25H10C10 7.25 10 7.58579 10 8C10 8.41421 10 8.75 10 8.75H0C0 8.75 0 8.41421 0 8Z" fill="#6D7175"/>
<path d="M0 13.5C0 13.5 0 13.8358 0 14.25C0 14.6642 0 15 0 15H16C16 15 16 14.6642 16 14.25C16 13.8358 16 13.5 16 13.5H0Z" fill="#6D7175"/>
</svg>
