<svg width="16" height="16" viewBox="0 0 16 16" fill="none" xmlns="http://www.w3.org/2000/svg">
<path d="M1.6 8C1.6 6.5232 2.108 5.1656 2.9504 4.0824L11.9176 13.0496C10.799 13.9242 9.41996 14.3996 8 14.4C4.4712 14.4 1.6 11.5288 1.6 8ZM13.0496 11.9176L4.0824 2.9504C5.20102 2.07577 6.58004 1.60041 8 1.6C11.5288 1.6 14.4 4.4712 14.4 8C14.3997 9.41998 13.9243 10.799 13.0496 11.9176ZM0 8C0 12.4112 3.5888 16 8 16C12.4112 16 16 12.4112 16 8C16 3.5888 12.4112 0 8 0C3.5888 0 0 3.5888 0 8Z" fill="#6D7175"/>
</svg>
