<svg width="16" height="16" viewBox="0 0 16 16" fill="none" xmlns="http://www.w3.org/2000/svg">
<path d="M10.2978 10.45C10.2978 10.0358 9.96199 9.70001 9.54778 9.70001C9.13356 9.70001 8.79778 10.0358 8.79778 10.45V11.0094L4.74778 11.0214C4.33357 11.0226 3.99878 11.3594 4 11.7736C4.00123 12.1878 4.338 12.5226 4.75222 12.5214L8.79778 12.5094V12.95C8.79778 13.3642 9.13356 13.7 9.54778 13.7C9.96199 13.7 10.2978 13.3642 10.2978 12.95V12.505L11.2522 12.5022C11.6664 12.501 12.0012 12.1642 12 11.75C11.9987 11.3358 11.662 11.001 11.2478 11.0022L10.2978 11.005V10.45Z" fill="#6D7175"/>
<path fill-rule="evenodd" clip-rule="evenodd" d="M14.0452 3.39482e-07H1.95432C1.8339 0.000123129 1.71633 0.0387975 1.61706 0.110943C1.51779 0.183089 1.44147 0.28533 1.39812 0.404234L0.203346 3.67851C-0.271488 4.9799 0.122302 6.34407 1 7.18329L1.00003 14.9983C1.00003 15.5515 1.45204 16 2.00964 16H13.9904C14.548 16 15 15.5515 15 14.9983L15 7.18285C15.8779 6.34349 16.2717 4.97924 15.7962 3.67725L14.6026 0.404234C14.5592 0.285129 14.4827 0.182748 14.3832 0.110586C14.2837 0.0384236 14.1659 -0.000131988 14.0452 3.39482e-07ZM2.41348 14.5977L2.41347 7.93752C2.60648 7.97842 2.80723 8 3.01422 8L3.21116 7.99369C3.6095 7.96616 3.99853 7.85449 4.35534 7.66535L4.3728 7.65602C4.73435 7.46122 5.05467 7.19058 5.31424 6.86057L5.40734 6.73425L5.50163 6.86057C5.66101 7.06351 5.84413 7.24496 6.04647 7.40021C6.07717 7.42377 6.10831 7.44672 6.13988 7.46906C6.24219 7.54143 6.34898 7.6073 6.45971 7.6661C6.862 7.87972 7.31632 8 7.79688 8H8.2015L8.39725 7.99369C8.79462 7.96642 9.18271 7.85508 9.5386 7.66636L9.55741 7.65629C9.64191 7.61069 9.72414 7.56093 9.80385 7.50722C9.87318 7.4605 9.9406 7.41081 10.006 7.35826C10.1865 7.2131 10.3513 7.04622 10.4967 6.86057L10.5898 6.73299L10.6829 6.85931C10.8241 7.03864 10.9838 7.20118 11.1589 7.34371C11.2415 7.411 11.3275 7.47382 11.4167 7.53185C11.49 7.57958 11.5654 7.62406 11.6428 7.6651C12.0466 7.87941 12.5024 8 12.9842 8C13.1917 8 13.393 7.97832 13.5865 7.93725L13.5865 14.5977H2.41348ZM11.7948 6.00814C12.0995 6.38665 12.5294 6.6 12.9842 6.6C14.0155 6.6 14.9453 5.42839 14.4812 4.15752L13.4756 1.4H2.52506L1.51854 4.15838C1.05772 5.42142 1.97383 6.58596 2.99572 6.59988L3.13606 6.59538C3.33249 6.57883 3.52697 6.52147 3.70875 6.42353C3.89232 6.32462 4.06097 6.18529 4.20219 6.0097L5.00022 4.92688C5.19929 4.65675 5.60267 4.65552 5.80339 4.92442L6.61176 6.00735C6.91445 6.38619 7.34281 6.6 7.79688 6.6H8.17892L8.3224 6.59537C8.51793 6.57903 8.71154 6.52193 8.89249 6.42427C9.07462 6.32597 9.24197 6.18753 9.38207 6.01307L10.1823 4.91638C10.3814 4.64348 10.7883 4.64251 10.9887 4.91446L11.7948 6.00814Z" fill="#6D7175"/>
</svg>
