<svg width="16" height="16" viewBox="0 0 16 16" fill="none" xmlns="http://www.w3.org/2000/svg">
<path d="M7.17585 2.00002C7.68753 2.00002 8.18404 2.10842 8.66537 2.32524C9.14669 2.54205 9.57599 2.83692 9.95324 3.20984C10.3305 3.58276 10.6319 4.01422 10.8574 4.50423C11.0828 4.99423 11.1956 5.51241 11.1956 6.05879V6.56613C11.1956 6.7656 11.1978 6.98025 11.2021 7.21007C11.2064 7.4399 11.2086 7.66755 11.2086 7.89304V8.50446C11.2086 8.75596 11.2346 8.95543 11.2867 9.10286C11.3387 9.2503 11.4514 9.31968 11.6249 9.31101C11.755 9.31101 11.9046 9.31317 12.0737 9.31751C12.2428 9.32185 12.3967 9.32402 12.5355 9.32402C12.761 9.32402 12.9063 9.38472 12.9713 9.50614C13.0363 9.62756 12.9908 9.788 12.8347 9.98747C12.6786 10.1956 12.4943 10.4341 12.2818 10.703C12.0694 10.9718 11.8504 11.2493 11.6249 11.5355C11.3994 11.8217 11.1782 12.1036 10.9614 12.3811C10.7446 12.6586 10.5495 12.9058 10.376 13.1226C10.2199 13.3221 10.0725 13.424 9.93373 13.4283C9.79497 13.4327 9.64754 13.3438 9.49143 13.1616C9.33532 12.9708 9.15103 12.7475 8.93855 12.4917C8.72607 12.2358 8.50709 11.9692 8.2816 11.6916C8.05612 11.4141 7.83496 11.1409 7.61815 10.8721C7.40134 10.6032 7.2062 10.3647 7.03275 10.1566C6.84195 9.9311 6.76824 9.74247 6.8116 9.5907C6.85496 9.43893 6.99372 9.36304 7.22788 9.36304C7.29727 9.36304 7.38182 9.36087 7.48156 9.35654C7.58129 9.3522 7.68753 9.34786 7.80027 9.34353C7.91302 9.33919 8.02143 9.33486 8.1255 9.33052C8.22957 9.32618 8.32063 9.32402 8.39868 9.32402C8.56346 9.32402 8.66537 9.27415 8.70439 9.17441C8.74342 9.07468 8.76293 8.93809 8.76293 8.76463C8.75426 8.37437 8.74992 7.9364 8.74992 7.45074V6.09781C8.74992 5.89834 8.70439 5.69887 8.61333 5.4994C8.52227 5.29994 8.40085 5.11781 8.24908 4.95303C8.09731 4.78825 7.92169 4.65383 7.72222 4.54976C7.52275 4.44569 7.31027 4.39365 7.08479 4.39365H6.17417C5.82726 4.39365 5.4912 4.39582 5.16598 4.40016C4.84076 4.40449 4.55673 4.40666 4.3139 4.40666H3.85859C3.66779 4.40666 3.50951 4.34812 3.38376 4.23104C3.25801 4.11396 3.16261 3.96653 3.09757 3.78874C3.03252 3.61095 3 3.41798 3 3.20984C3 3.0017 3.03035 2.80873 3.09106 2.63095C3.15177 2.45316 3.24066 2.30573 3.35774 2.18865C3.47482 2.07157 3.62009 2.01303 3.79354 2.01303H4.14478H4.7562C4.98169 2.01303 5.22235 2.01086 5.47819 2.00652C5.73403 2.00218 5.97903 2.00002 6.21319 2.00002H6.8116H7.17585Z" fill="#6D7175"/>
</svg>
