<svg width="16" height="16" viewBox="0 0 16 16" fill="none" xmlns="http://www.w3.org/2000/svg">
<g clip-path="url(#clip0_16565_43474)">
<path fill-rule="evenodd" clip-rule="evenodd" d="M3 0.25C3.41421 0.25 3.75 0.585786 3.75 1V12.25H15C15.4142 12.25 15.75 12.5858 15.75 13C15.75 13.4142 15.4142 13.75 15 13.75H3C2.58579 13.75 2.25 13.4142 2.25 13V1C2.25 0.585786 2.58579 0.25 3 0.25Z" fill="#6D7175"/>
<path fill-rule="evenodd" clip-rule="evenodd" d="M13 8.75C12.5858 8.75 12.25 8.41421 12.25 8V3.75L8 3.75C7.58579 3.75 7.25 3.41421 7.25 3C7.25 2.58579 7.58579 2.25 8 2.25L13 2.25C13.4142 2.25 13.75 2.58579 13.75 3L13.75 8C13.75 8.41421 13.4142 8.75 13 8.75Z" fill="#6D7175"/>
<path fill-rule="evenodd" clip-rule="evenodd" d="M13 12.25C13.4142 12.25 13.75 12.5858 13.75 13V15C13.75 15.4142 13.4142 15.75 13 15.75C12.5858 15.75 12.25 15.4142 12.25 15V13C12.25 12.5858 12.5858 12.25 13 12.25Z" fill="#6D7175"/>
<path fill-rule="evenodd" clip-rule="evenodd" d="M3.75 3C3.75 3.41421 3.41421 3.75 3 3.75L1 3.75C0.585786 3.75 0.25 3.41421 0.25 3C0.25 2.58579 0.585786 2.25 1 2.25L3 2.25C3.41421 2.25 3.75 2.58579 3.75 3Z" fill="#6D7175"/>
</g>
<defs>
<clipPath id="clip0_16565_43474">
<rect width="16" height="16" fill="white"/>
</clipPath>
</defs>
</svg>
