<svg width="16" height="16" viewBox="0 0 16 16" fill="none" xmlns="http://www.w3.org/2000/svg">
<g clip-path="url(#clip0_16565_43504)">
<path d="M2.4 2.4H3.2V0.799999H2C1.68174 0.799999 1.37652 0.926427 1.15147 1.15147C0.926431 1.37651 0.800003 1.68174 0.800003 2V3.2H2.4V2.4ZM4.8 2.4H7.2V0.799999H4.8V2.4ZM8.8 2.4H11.2V0.799999H8.8V2.4ZM7.2 15.2H4.8V13.6H7.2V15.2ZM8.8 15.2H11.2V13.6H8.8V15.2ZM13.6 3.2V2.4H12.8V0.799999H14C14.3183 0.799999 14.6235 0.926427 14.8485 1.15147C15.0736 1.37651 15.2 1.68174 15.2 2V3.2H13.6ZM2.4 13.6V12.8H0.800003V14C0.800003 14.3183 0.926431 14.6235 1.15147 14.8485C1.37652 15.0736 1.68174 15.2 2 15.2H3.2V13.6H2.4ZM12.8 13.6H13.6V12.8H15.2V14C15.2 14.3183 15.0736 14.6235 14.8485 14.8485C14.6235 15.0736 14.3183 15.2 14 15.2H12.8V13.6ZM8 4.8C8.21218 4.8 8.41566 4.88428 8.56569 5.03431C8.71572 5.18434 8.8 5.38783 8.8 5.6V7.2H10.4C10.6122 7.2 10.8157 7.28428 10.9657 7.43431C11.1157 7.58434 11.2 7.78783 11.2 8C11.2 8.21217 11.1157 8.41566 10.9657 8.56568C10.8157 8.71571 10.6122 8.8 10.4 8.8H8.8V10.4C8.8 10.6122 8.71572 10.8157 8.56569 10.9657C8.41566 11.1157 8.21218 11.2 8 11.2C7.78783 11.2 7.58435 11.1157 7.43432 10.9657C7.28429 10.8157 7.2 10.6122 7.2 10.4V8.8H5.6C5.38783 8.8 5.18435 8.71571 5.03432 8.56568C4.88429 8.41566 4.8 8.21217 4.8 8C4.8 7.78783 4.88429 7.58434 5.03432 7.43431C5.18435 7.28428 5.38783 7.2 5.6 7.2H7.2V5.6C7.2 5.38783 7.28429 5.18434 7.43432 5.03431C7.58435 4.88428 7.78783 4.8 8 4.8ZM0.800003 7.2V4.8H2.4V7.2H0.800003ZM0.800003 8.8V11.2H2.4V8.8H0.800003ZM13.6 7.2V4.8H15.2V7.2H13.6ZM13.6 8.8V11.2H15.2V8.8H13.6Z" fill="#6D7175"/>
</g>
<defs>
<clipPath id="clip0_16565_43504">
<rect width="16" height="16" fill="white"/>
</clipPath>
</defs>
</svg>
