<svg width="16" height="16" viewBox="0 0 16 16" fill="none" xmlns="http://www.w3.org/2000/svg">
<path fill-rule="evenodd" clip-rule="evenodd" d="M11.2 3.2H13.6C13.8122 3.2 14.0157 3.28429 14.1657 3.43431C14.3157 3.58434 14.4 3.78783 14.4 4V4.8H1.60001V4C1.60001 3.78783 1.68429 3.58434 1.83432 3.43431C1.98435 3.28429 2.18783 3.2 2.40001 3.2H4.80001V1.2C4.80001 0.88174 4.92643 0.576515 5.15148 0.351472C5.37652 0.126428 5.68175 0 6.00001 0L10 0C10.3183 0 10.6235 0.126428 10.8485 0.351472C11.0736 0.576515 11.2 0.88174 11.2 1.2V3.2ZM6.40001 1.6V3.2H9.60001V1.6H6.40001ZM2.40001 6.4H13.6V14.8C13.6 15.1183 13.4736 15.4235 13.2485 15.6485C13.0235 15.8736 12.7183 16 12.4 16H3.60001C3.28175 16 2.97652 15.8736 2.75148 15.6485C2.52643 15.4235 2.40001 15.1183 2.40001 14.8V6.4ZM5.60001 8.8H4.00001V13.6H5.60001V8.8ZM8.80001 8.8H7.20001V13.6H8.80001V8.8ZM10.4 8.8H12V13.6H10.4V8.8Z" fill="#6D7175"/>
</svg>
