<svg width="16" height="16" viewBox="0 0 16 16" fill="none" xmlns="http://www.w3.org/2000/svg">
<path fill-rule="evenodd" clip-rule="evenodd" d="M12.0698 1.1806L12.1204 1.22703L14.775 3.88597C15.0755 4.18698 15.0749 4.67354 14.7736 4.97377L14.4878 5.25808L14.493 5.26331L4.72111 15H1.77295C1.36545 15 1.0316 14.6858 1.00209 14.2873L0.999969 14.2298L0.99997 11.2922L10.488 1.77599L10.4807 1.76878L11.0259 1.2256C11.3118 0.940643 11.7661 0.925645 12.0698 1.1806ZM9.32274 5.11097L2.57105 11.9419L2.57105 11.9441L4.06677 13.4344L4.06911 13.4346L10.8699 6.65253L9.32274 5.11097ZM11.5543 2.84387L10.4057 4.01112L11.9628 5.56269L13.1181 4.41047L11.5543 2.84387Z" fill="#6D7175"/>
<path fill-rule="evenodd" clip-rule="evenodd" d="M11 10.75H16V12.25H11V10.75Z" fill="#6D7175"/>
<path fill-rule="evenodd" clip-rule="evenodd" d="M8 13.5H16V15H8V13.5Z" fill="#6D7175"/>
</svg>
