<svg width="16" height="16" viewBox="0 0 16 16" fill="none" xmlns="http://www.w3.org/2000/svg">
<path fill-rule="evenodd" clip-rule="evenodd" d="M7.4453 1.16795C7.7812 0.944017 8.21881 0.944017 8.55471 1.16795L14.5547 5.16795C14.804 5.33413 14.9656 5.60333 14.9951 5.90146C15.0246 6.1996 14.9189 6.49526 14.7071 6.70711L14 7.41421V12.0004C14.5845 12.2223 15 12.7876 15 13.45C15 14.306 14.306 15 13.45 15H2.55C1.69396 15 1 14.306 1 13.45C1 12.7876 1.41546 12.2223 2 12.0004V7.41421L1.2929 6.70711C1.08105 6.49526 0.975352 6.1996 1.00487 5.90146C1.03439 5.60333 1.19603 5.33413 1.4453 5.16795L7.4453 1.16795ZM10 7C10.5523 7 11 7.44772 11 8V11C11 11.5523 10.5523 12 10 12C9.44771 12 9.00001 11.5523 9.00001 11V8C9.00001 7.44772 9.44771 7 10 7ZM7 8C7 7.44772 6.55228 7 6 7C5.44771 7 5 7.44772 5 8V11C5 11.5523 5.44771 12 6 12C6.55228 12 7 11.5523 7 11V8Z" fill="#6D7175"/>
</svg>
