<svg width="16" height="16" viewBox="0 0 16 16" fill="none" xmlns="http://www.w3.org/2000/svg">
<path fill-rule="evenodd" clip-rule="evenodd" d="M1.29999 1.5C1.29999 0.947715 1.7477 0.5 2.29999 0.5H7.29999C7.85227 0.5 8.29999 0.947715 8.29999 1.5V6.5C8.29999 7.05228 7.85227 7.5 7.29999 7.5H2.29999C1.7477 7.5 1.29999 7.05228 1.29999 6.5V1.5ZM2.79999 6V2H6.79999V6H2.79999Z" fill="#6D7175"/>
<path d="M15.14 5.17084L13.015 7.17084L10.89 5.17084H12.2422C11.9965 4.41873 11.5584 3.76073 11.0579 3.21553C10.4213 2.52211 9.72042 2.05188 9.29997 1.84165L9.97079 0.500009C10.5503 0.789782 11.3995 1.36955 12.1629 2.20113C12.8579 2.95817 13.5119 3.95727 13.7992 5.17084H15.14Z" fill="#6D7175"/>
<path d="M0.799988 10.5L2.92499 8.5L5.04999 10.5H3.69315C3.93887 11.2521 4.37696 11.9101 4.87747 12.4553C5.51405 13.1487 6.21493 13.619 6.63539 13.8292L5.96457 15.1708C5.38502 14.8811 4.5359 14.3013 3.77249 13.4697C3.0775 12.7127 2.42349 11.7136 2.13611 10.5H0.799988Z" fill="#6D7175"/>
<path fill-rule="evenodd" clip-rule="evenodd" d="M8.29999 8.5C7.7477 8.5 7.29999 8.94771 7.29999 9.5V14.5C7.29999 15.0523 7.7477 15.5 8.29999 15.5H13.3C13.8523 15.5 14.3 15.0523 14.3 14.5V9.5C14.3 8.94772 13.8523 8.5 13.3 8.5H8.29999ZM8.79999 10V14H12.8V10H8.79999Z" fill="#6D7175"/>
</svg>
