<svg width="16" height="16" viewBox="0 0 16 16" fill="none" xmlns="http://www.w3.org/2000/svg">
<g clip-path="url(#clip0_16565_43380)">
<path d="M14.0415 1.55831C13.9521 1.52075 13.854 1.5 13.751 1.5H9.25104C8.83682 1.5 8.50104 1.83579 8.50104 2.25C8.50104 2.66421 8.83682 3 9.25104 3H11.9404L6.14966 8.79075C5.85677 9.08364 5.85677 9.55852 6.14966 9.85141C6.44256 10.1443 6.91743 10.1443 7.21032 9.85141L13.0011 4.06068V6.75002C13.0011 7.16423 13.3368 7.50002 13.7511 7.50002C14.1653 7.50002 14.5011 7.16423 14.5011 6.75002V2.25283C14.5011 2.24336 14.5009 2.23389 14.5006 2.22443C14.4976 2.13527 14.4791 2.05004 14.4476 1.97139C14.411 1.87976 14.3556 1.79388 14.2814 1.71968C14.2104 1.64868 14.1287 1.59488 14.0415 1.55831Z" fill="#6D7175"/>
<path d="M4.8 2.5C5.1866 2.5 5.5 2.8134 5.5 3.2C5.5 3.5866 5.1866 3.9 4.8 3.9H2.9V13.1H12.1V10.2C12.1 9.8134 12.4134 9.5 12.8 9.5C13.1866 9.5 13.5 9.8134 13.5 10.2V13.6667C13.5 14.1269 13.1269 14.5 12.6667 14.5H2.3C1.85817 14.5 1.5 14.1418 1.5 13.7V3.16667C1.5 2.79848 1.79848 2.5 2.16667 2.5H4.8Z" fill="#6D7175"/>
</g>
<defs>
<clipPath id="clip0_16565_43380">
<rect width="16" height="16" fill="white"/>
</clipPath>
</defs>
</svg>
