<svg width="16" height="16" viewBox="0 0 16 16" fill="none" xmlns="http://www.w3.org/2000/svg">
<path fill-rule="evenodd" clip-rule="evenodd" d="M9.66147 10.1571L12.8749 6.49552C13.1584 6.17252 12.9291 5.66585 12.4992 5.66585H9.57655L11.1291 1.85519C11.2631 1.52635 11.0211 1.16669 10.6661 1.16669H6.16672C6.06539 1.1667 5.96647 1.1975 5.88304 1.255C5.79961 1.31251 5.73562 1.394 5.69955 1.48869L5.285 2.57681L9.66147 10.1571ZM4.82596 3.78173L3.03322 8.48735C2.90855 8.81452 3.15022 9.16519 3.50055 9.16519H6.18388L4.85022 14.203C4.71505 14.7135 5.36088 15.0575 5.70922 14.6605L8.96497 10.9507L4.82596 3.78173Z" fill="#6D7175"/>
</svg>
