<svg width="16" height="16" viewBox="0 0 16 16" fill="none" xmlns="http://www.w3.org/2000/svg">
<g clip-path="url(#clip0_16565_43471)">
<path d="M14.5613 5.76992C14.6682 6.26983 14.6564 6.87688 14.5258 7.59108C14.0079 10.2336 12.3267 11.5548 9.48222 11.5548H9.08929C8.94065 11.5548 8.80968 11.604 8.69636 11.7023C8.58305 11.8006 8.51157 11.9271 8.4819 12.0817L8.44641 12.2512L7.9555 15.3401L7.93751 15.4741C7.90785 15.6287 7.83486 15.7552 7.71855 15.8535C7.60224 15.9518 7.46976 16.001 7.32112 16.001H5.08054C4.95557 16.001 4.85742 15.9563 4.7861 15.867C4.71478 15.7777 4.68795 15.6706 4.70561 15.5456C4.75927 15.2123 4.83809 14.7124 4.94207 14.0459C5.04605 13.3793 5.12487 12.8794 5.17852 12.5461C5.23218 12.2129 5.3125 11.7145 5.41948 11.0509C5.52646 10.3874 5.60678 9.88898 5.66043 9.55571C5.6901 9.33542 5.81807 9.22527 6.04436 9.22527H7.21364C8.00516 9.23727 8.70736 9.17478 9.32025 9.03781C10.3617 8.80585 11.2157 8.37743 11.8823 7.75255C12.4892 7.18732 12.9504 6.45529 13.266 5.55646C13.409 5.13987 13.5131 4.74411 13.5784 4.36918C13.5844 4.33352 13.5919 4.31119 13.6009 4.3022C13.6099 4.2932 13.6204 4.2902 13.6324 4.2932C13.6444 4.2962 13.6623 4.30669 13.6859 4.32469C14.1562 4.67596 14.4478 5.15803 14.5608 5.77092L14.5613 5.76992ZM13.0261 3.25239C13.0261 3.88927 12.8892 4.59147 12.6156 5.359C12.1394 6.74574 11.2407 7.68306 9.91963 8.17097C9.24709 8.40892 8.49724 8.5339 7.67006 8.5459C7.67006 8.5519 7.40227 8.5549 6.86671 8.5549L6.06336 8.5459C5.46814 8.5459 5.11704 8.83151 5.01006 9.40274C4.99806 9.45039 4.74511 11.0274 4.2512 14.1338C4.2452 14.1935 4.20954 14.2233 4.14422 14.2233H1.51071C1.37974 14.2233 1.27109 14.1742 1.18477 14.0759C1.09846 13.9775 1.0643 13.8629 1.08229 13.7319L3.1534 0.60039C3.18307 0.427756 3.26488 0.284949 3.39886 0.171971C3.53283 0.0589918 3.68614 0.00250244 3.85877 0.00250244H9.19727C9.39957 0.00250244 9.68968 0.0411619 10.0676 0.118481C10.4455 0.195799 10.7773 0.290948 11.0629 0.403927C11.6998 0.647881 12.1864 1.01381 12.5226 1.50172C12.8589 1.98963 13.0271 2.57285 13.0271 3.25139L13.0261 3.25239Z" fill="#6D7175"/>
</g>
<defs>
<clipPath id="clip0_16565_43471">
<rect width="16" height="16" fill="white"/>
</clipPath>
</defs>
</svg>
