<svg width="16" height="16" viewBox="0 0 16 16" fill="none" xmlns="http://www.w3.org/2000/svg">
<path d="M12.8 6.39999C13.6824 6.39999 14.4 7.11759 14.4 7.99999C14.4 8.88239 13.6824 9.59999 12.8 9.59999C11.9176 9.59999 11.2 8.88239 11.2 7.99999C11.2 7.11759 11.9176 6.39999 12.8 6.39999ZM8.00001 6.39999C8.88241 6.39999 9.60001 7.11759 9.60001 7.99999C9.60001 8.88239 8.88241 9.59999 8.00001 9.59999C7.11761 9.59999 6.40001 8.88239 6.40001 7.99999C6.40001 7.11759 7.11761 6.39999 8.00001 6.39999ZM3.20001 6.39999C4.08241 6.39999 4.80001 7.11759 4.80001 7.99999C4.80001 8.88239 4.08241 9.59999 3.20001 9.59999C2.31761 9.59999 1.60001 8.88239 1.60001 7.99999C1.60001 7.11759 2.31761 6.39999 3.20001 6.39999Z" fill="#6D7175"/>
</svg>
