<svg width="16" height="16" viewBox="0 0 16 16" fill="none" xmlns="http://www.w3.org/2000/svg">
<g clip-path="url(#clip0_16565_43443)">
<path d="M13.76 2.16C13.76 2.01148 13.701 1.86904 13.596 1.76402C13.491 1.659 13.3485 1.6 13.2 1.6C13.0515 1.6 12.9091 1.659 12.804 1.76402C12.699 1.86904 12.64 2.01148 12.64 2.16V3.84H10.96C10.8865 3.84 10.8137 3.85449 10.7457 3.88263C10.6778 3.91077 10.616 3.95202 10.564 4.00402C10.512 4.05602 10.4708 4.11776 10.4427 4.1857C10.4145 4.25364 10.4 4.32646 10.4 4.4C10.4 4.47354 10.4145 4.54636 10.4427 4.6143C10.4708 4.68225 10.512 4.74398 10.564 4.79598C10.616 4.84798 10.6778 4.88923 10.7457 4.91737C10.8137 4.94552 10.8865 4.96 10.96 4.96H12.64V6.64C12.64 6.78852 12.699 6.93096 12.804 7.03598C12.9091 7.141 13.0515 7.2 13.2 7.2C13.3485 7.2 13.491 7.141 13.596 7.03598C13.701 6.93096 13.76 6.78852 13.76 6.64V4.96H15.44C15.5136 4.96 15.5864 4.94552 15.6543 4.91737C15.7223 4.88923 15.784 4.84798 15.836 4.79598C15.888 4.74398 15.9293 4.68225 15.9574 4.6143C15.9855 4.54636 16 4.47354 16 4.4C16 4.32646 15.9855 4.25364 15.9574 4.1857C15.9293 4.11776 15.888 4.05602 15.836 4.00402C15.784 3.95202 15.7223 3.91077 15.6543 3.88263C15.5864 3.85449 15.5136 3.84 15.44 3.84H13.76V2.16Z" fill="#6D7175"/>
<path d="M9.6 2.72V2.7152H10.1384C10.2869 2.7152 10.4294 2.6562 10.5344 2.55118C10.6394 2.44616 10.6984 2.30372 10.6984 2.1552C10.6984 2.00668 10.6394 1.86424 10.5344 1.75922C10.4294 1.6542 10.2869 1.5952 10.1384 1.5952H8.8584C8.83432 1.59527 8.81027 1.59687 8.7864 1.6H1.6C1.17565 1.6 0.768687 1.76857 0.468629 2.06863C0.168571 2.36869 0 2.77565 0 3.2L0 12.8C0 13.2243 0.168571 13.6313 0.468629 13.9314C0.768687 14.2314 1.17565 14.4 1.6 14.4H14.4C14.8243 14.4 15.2313 14.2314 15.5314 13.9314C15.8314 13.6313 16 13.2243 16 12.8V8.6496V7.36C16 7.21148 15.941 7.06904 15.836 6.96402C15.731 6.859 15.5885 6.8 15.44 6.8C15.2915 6.8 15.149 6.859 15.044 6.96402C14.939 7.06904 14.88 7.21148 14.88 7.36V12.8C14.88 12.9273 14.8294 13.0494 14.7394 13.1394C14.6494 13.2294 14.5273 13.28 14.4 13.28H1.6C1.4727 13.28 1.35061 13.2294 1.26059 13.1394C1.17057 13.0494 1.12 12.9273 1.12 12.8V3.2C1.12 3.0727 1.17057 2.95061 1.26059 2.86059C1.35061 2.77057 1.4727 2.72 1.6 2.72H9.6Z" fill="#6D7175"/>
</g>
<defs>
<clipPath id="clip0_16565_43443">
<rect width="16" height="16" fill="white"/>
</clipPath>
</defs>
</svg>
