<svg width="16" height="16" viewBox="0 0 16 16" fill="none" xmlns="http://www.w3.org/2000/svg">
<g clip-path="url(#clip0_16565_43535)">
<path d="M2.16558 7.7656C2.24001 7.69143 2.29904 7.60328 2.33927 7.50621C2.3795 7.40914 2.40013 7.30507 2.39998 7.2V4C2.39998 3.78783 2.48426 3.58434 2.63429 3.43431C2.78432 3.28428 2.9878 3.2 3.19998 3.2C3.41215 3.2 3.61563 3.11571 3.76566 2.96568C3.91569 2.81565 3.99998 2.61217 3.99998 2.4C3.99998 2.18783 3.91569 1.98434 3.76566 1.83431C3.61563 1.68428 3.41215 1.6 3.19998 1.6C1.87678 1.6 0.799978 2.6768 0.799978 4V6.8688L0.234378 7.4344C0.160021 7.50863 0.101031 7.59679 0.0607825 7.69384C0.0205339 7.7909 -0.000183105 7.89493 -0.000183105 8C-0.000183105 8.10507 0.0205339 8.2091 0.0607825 8.30615C0.101031 8.40321 0.160021 8.49137 0.234378 8.5656L0.799978 9.1312V12C0.799978 13.3232 1.87678 14.4 3.19998 14.4C3.41215 14.4 3.61563 14.3157 3.76566 14.1657C3.91569 14.0157 3.99998 13.8122 3.99998 13.6C3.99998 13.3878 3.91569 13.1843 3.76566 13.0343C3.61563 12.8843 3.41215 12.8 3.19998 12.8C2.9878 12.8 2.78432 12.7157 2.63429 12.5657C2.48426 12.4157 2.39998 12.2122 2.39998 12V8.8C2.40013 8.69492 2.3795 8.59086 2.33927 8.49379C2.29904 8.39672 2.24001 8.30856 2.16558 8.2344L1.93118 8L2.16558 7.7656ZM15.9392 7.6936C15.8989 7.59665 15.8399 7.50858 15.7656 7.4344L15.2 6.8688V4C15.2 2.6768 14.1232 1.6 12.8 1.6C12.5878 1.6 12.3843 1.68428 12.2343 1.83431C12.0843 1.98434 12 2.18783 12 2.4C12 2.61217 12.0843 2.81565 12.2343 2.96568C12.3843 3.11571 12.5878 3.2 12.8 3.2C13.0122 3.2 13.2156 3.28428 13.3657 3.43431C13.5157 3.58434 13.6 3.78783 13.6 4V7.2C13.5999 7.30507 13.6205 7.40912 13.6607 7.50619C13.701 7.60325 13.76 7.69141 13.8344 7.7656L14.0688 8L13.8344 8.2344C13.7599 8.30856 13.7009 8.39672 13.6607 8.49379C13.6205 8.59086 13.5998 8.69492 13.6 8.8V12C13.6 12.2122 13.5157 12.4157 13.3657 12.5657C13.2156 12.7157 13.0122 12.8 12.8 12.8C12.5878 12.8 12.3843 12.8843 12.2343 13.0343C12.0843 13.1843 12 13.3878 12 13.6C12 13.8122 12.0843 14.0157 12.2343 14.1657C12.3843 14.3157 12.5878 14.4 12.8 14.4C14.1232 14.4 15.2 13.3232 15.2 12V9.1312L15.7656 8.5656C15.8774 8.45366 15.9536 8.3111 15.9845 8.1559C16.0154 8.00071 15.9996 7.83984 15.9392 7.6936ZM10.1576 4.2272C10.0632 4.13518 9.94754 4.06786 9.82091 4.03121C9.69427 3.99456 9.56055 3.9897 9.4316 4.01708C9.30264 4.04445 9.18243 4.10321 9.0816 4.18814C8.98078 4.27307 8.90246 4.38156 8.85358 4.504L5.65678 10.904C5.61782 11.0016 5.59851 11.106 5.59995 11.2111C5.60139 11.3162 5.62356 11.42 5.66517 11.5165C5.70679 11.6131 5.76704 11.7005 5.84247 11.7737C5.91791 11.8469 6.00704 11.9045 6.10478 11.9432C6.30208 12.0212 6.5222 12.0182 6.71726 11.9347C6.91233 11.8513 7.06655 11.6942 7.14638 11.4976L10.3424 5.0976C10.4016 4.95065 10.4158 4.78938 10.383 4.63436C10.3502 4.47934 10.272 4.3376 10.1584 4.2272H10.1576Z" fill="#6D7175"/>
</g>
<defs>
<clipPath id="clip0_16565_43535">
<rect width="16" height="16" fill="white"/>
</clipPath>
</defs>
</svg>
