<svg width="16" height="16" viewBox="0 0 16 16" fill="none" xmlns="http://www.w3.org/2000/svg">
<path d="M6.92926 4.39139L6.46203 2.05522C6.40255 1.75765 6.2418 1.48989 6.00714 1.2975C5.77247 1.10511 5.47839 0.999981 5.17495 1H2.34616C1.59369 1 0.967207 1.6361 1.00133 2.3877C1.40469 11.2783 5.8128 14.6592 13.614 14.9987C14.3656 15.031 15 14.4072 15 13.6556V10.8251C15 10.5216 14.8949 10.2275 14.7025 9.99286C14.5101 9.7582 14.2423 9.59745 13.9448 9.53797L11.6086 9.07074C11.3263 9.01423 11.0332 9.05214 10.7745 9.17863C10.5158 9.30512 10.3059 9.51317 10.1772 9.77071L9.75017 10.6238C8.00023 10.6238 5.37531 7.9989 5.37531 6.24895L6.22841 5.82197C6.75864 5.55773 7.04563 4.9715 6.92926 4.39139Z" fill="#6D7175"/>
</svg>
