<svg width="16" height="16" viewBox="0 0 16 16" fill="none" xmlns="http://www.w3.org/2000/svg">
<path d="M13.9734 1.60001H2.02678C1.20189 1.60001 0.533447 2.23645 0.533447 3.02223V12.9778C0.533447 13.7636 1.20189 14.4 2.02678 14.4H13.9734C14.7983 14.4 15.4668 13.7636 15.4668 12.9778V3.02223C15.4668 2.23645 14.7983 1.60001 13.9734 1.60001ZM10.7628 8.49156C10.7072 8.57013 10.6368 8.63715 10.5557 8.68889L7.04811 10.9156C6.88279 11.0206 6.68365 11.0586 6.49126 11.022C6.29886 10.9853 6.12767 10.8767 6.01256 10.7182C5.93119 10.6027 5.88742 10.4649 5.88723 10.3236V5.87023C5.88723 5.47734 6.22145 5.15912 6.63389 5.15912C6.78145 5.15912 6.92545 5.20089 7.04811 5.27823L10.5557 7.5049C10.8988 7.72267 10.9912 8.16445 10.7628 8.49067V8.49156Z" fill="#6D7175"/>
</svg>
