<svg width="16" height="16" viewBox="0 0 16 16" fill="none" xmlns="http://www.w3.org/2000/svg">
<path d="M3.7224 7.3072L4.7888 4.372H4.8112L5.8432 7.308H3.7232L3.7224 7.3072ZM3.8944 2.4L0.800003 10.4H2.6112L3.2528 8.6184H6.312L6.932 10.4H8.8L5.74 2.4H3.8944Z" fill="#6D7175"/>
<path d="M9.6 3.44C9.6 3.29148 9.659 3.14904 9.76402 3.04402C9.86904 2.939 10.0115 2.88 10.16 2.88H13.84C13.9885 2.88 14.131 2.939 14.236 3.04402C14.341 3.14904 14.4 3.29148 14.4 3.44C14.4 3.58852 14.341 3.73096 14.236 3.83598C14.131 3.941 13.9885 4 13.84 4H10.16C10.0115 4 9.86904 3.941 9.76402 3.83598C9.659 3.73096 9.6 3.58852 9.6 3.44ZM9.6 6.64C9.6 6.49148 9.659 6.34904 9.76402 6.24402C9.86904 6.139 10.0115 6.08 10.16 6.08H13.84C13.9885 6.08 14.131 6.139 14.236 6.24402C14.341 6.34904 14.4 6.49148 14.4 6.64C14.4 6.78852 14.341 6.93096 14.236 7.03598C14.131 7.141 13.9885 7.2 13.84 7.2H10.16C10.0115 7.2 9.86904 7.141 9.76402 7.03598C9.659 6.93096 9.6 6.78852 9.6 6.64ZM9.6 9.84C9.6 9.69148 9.659 9.54904 9.76402 9.44402C9.86904 9.339 10.0115 9.28 10.16 9.28H13.84C13.9135 9.28 13.9864 9.29449 14.0543 9.32263C14.1222 9.35077 14.184 9.39202 14.236 9.44402C14.288 9.49602 14.3292 9.55776 14.3574 9.6257C14.3855 9.69364 14.4 9.76646 14.4 9.84C14.4 9.91354 14.3855 9.98636 14.3574 10.0543C14.3292 10.1222 14.288 10.184 14.236 10.236C14.184 10.288 14.1222 10.3292 14.0543 10.3574C13.9864 10.3855 13.9135 10.4 13.84 10.4H10.16C10.0115 10.4 9.86904 10.341 9.76402 10.236C9.659 10.131 9.6 9.98852 9.6 9.84ZM0.800003 13.04C0.800003 12.8915 0.859003 12.749 0.964023 12.644C1.06904 12.539 1.21148 12.48 1.36 12.48H14.64C14.7885 12.48 14.931 12.539 15.036 12.644C15.141 12.749 15.2 12.8915 15.2 13.04C15.2 13.1885 15.141 13.331 15.036 13.436C14.931 13.541 14.7885 13.6 14.64 13.6H1.36C1.21148 13.6 1.06904 13.541 0.964023 13.436C0.859003 13.331 0.800003 13.1885 0.800003 13.04Z" fill="#6D7175"/>
</svg>
