<svg width="16" height="16" viewBox="0 0 16 16" fill="none" xmlns="http://www.w3.org/2000/svg">
<path d="M1.95432 3.25875e-07H14.0452C14.1659 -0.000125699 14.2837 0.0363042 14.3832 0.104488C14.4827 0.172671 14.5592 0.269408 14.6026 0.381945L15.7962 3.4745C16.5565 5.44151 15.0944 7.55892 12.9842 7.55892C12.0603 7.55892 11.232 7.13997 10.6829 6.48112L10.5898 6.36176L10.4967 6.48231C10.2381 6.79423 9.91842 7.05006 9.55741 7.23416C9.19641 7.41825 8.80163 7.52673 8.39725 7.55295L8.2015 7.55892H7.79688C6.87424 7.55892 6.04829 7.13997 5.50163 6.48231L5.40734 6.36296L5.31424 6.48231C5.05467 6.79412 4.73435 7.04984 4.3728 7.2339C4.01124 7.41796 3.61601 7.52652 3.21116 7.55295L3.01422 7.55892C0.905169 7.55892 -0.555769 5.44151 0.203346 3.47569L1.39812 0.381945C1.44147 0.269598 1.51779 0.172993 1.61706 0.104825C1.71633 0.0366574 1.8339 0.000115352 1.95432 3.25875e-07Z" fill="#6D7175"/>
<path fill-rule="evenodd" clip-rule="evenodd" d="M3.01422 9.06477C2.25735 9.06477 1.58395 8.79208 1.06667 8.35156V15C1.06667 15.5523 1.51438 16 2.06667 16H13.9333C14.4856 16 14.9333 15.5523 14.9333 15V8.35113C14.4157 8.79192 13.7417 9.06477 12.9842 9.06477C12.0603 9.06477 11.232 8.64582 10.6829 7.98697L10.5898 7.86761L10.4967 7.98816C10.2381 8.30008 9.91842 8.55591 9.55741 8.74001C9.19641 8.9241 8.80163 9.03258 8.39725 9.0588L8.2015 9.06477H7.79688C6.87424 9.06477 6.04829 8.64582 5.50163 7.98816L5.40734 7.86881L5.31424 7.98816C5.05467 8.29997 4.73435 8.55569 4.3728 8.73975C4.01124 8.92381 3.61601 9.03237 3.21116 9.0588L3.01422 9.06477ZM9.54778 9.70001C9.96199 9.70001 10.2978 10.0358 10.2978 10.45V11.005L11.2478 11.0022C11.662 11.001 11.9987 11.3358 12 11.75C12.0012 12.1642 11.6664 12.501 11.2522 12.5022L10.2978 12.505V12.95C10.2978 13.3642 9.96199 13.7 9.54778 13.7C9.13356 13.7 8.79778 13.3642 8.79778 12.95V12.5094L4.75222 12.5214C4.338 12.5226 4.00123 12.1878 4 11.7736C3.99878 11.3594 4.33357 11.0226 4.74778 11.0214L8.79778 11.0094V10.45C8.79778 10.0358 9.13356 9.70001 9.54778 9.70001Z" fill="#6D7175"/>
</svg>
