<svg width="16" height="16" viewBox="0 0 16 16" fill="none" xmlns="http://www.w3.org/2000/svg">
<path d="M1.70001 0.5C1.03726 0.5 0.5 1.03725 0.5 1.7V6.3C0.5 6.96274 1.03726 7.5 1.70001 7.5H6.29999C6.96274 7.5 7.5 6.96274 7.5 6.3V1.7C7.5 1.03726 6.96274 0.5 6.29999 0.5H1.70001Z" fill="#6D7175"/>
<path d="M1.70001 8.5C1.03726 8.5 0.5 9.03726 0.5 9.7V14.3C0.5 14.9627 1.03726 15.5 1.70001 15.5H6.29999C6.96274 15.5 7.5 14.9627 7.5 14.3V9.7C7.5 9.03726 6.96274 8.5 6.29999 8.5H1.70001Z" fill="#6D7175"/>
<path d="M8.5 9.7C8.5 9.03726 9.03726 8.5 9.70001 8.5H14.3C14.9627 8.5 15.5 9.03726 15.5 9.7V14.3C15.5 14.9627 14.9627 15.5 14.3 15.5H9.70001C9.03726 15.5 8.5 14.9627 8.5 14.3V9.7Z" fill="#6D7175"/>
<path d="M9.70001 0.67627C9.31342 0.67627 9 0.98967 9 1.37627C9 1.76287 9.31342 2.07627 9.70001 2.07627H14.8C15.1866 2.07627 15.5 1.76287 15.5 1.37627C15.5 0.98967 15.1866 0.67627 14.8 0.67627H9.70001Z" fill="#6D7175"/>
<path d="M9 3.97624C9 3.58965 9.31342 3.27625 9.70001 3.27625H14.8C15.1866 3.27625 15.5 3.58965 15.5 3.97624C15.5 4.36285 15.1866 4.67625 14.8 4.67625H9.70001C9.31342 4.67625 9 4.36285 9 3.97624Z" fill="#6D7175"/>
<path d="M9.70001 5.87625C9.31342 5.87625 9 6.18965 9 6.57625C9 6.96285 9.31342 7.27625 9.70001 7.27625H14.8C15.1866 7.27625 15.5 6.96285 15.5 6.57625C15.5 6.18965 15.1866 5.87625 14.8 5.87625H9.70001Z" fill="#6D7175"/>
</svg>
