<svg width="16" height="16" viewBox="0 0 16 16" fill="none" xmlns="http://www.w3.org/2000/svg">
<path d="M1.59998 13.2C1.59998 13.5183 1.7264 13.8235 1.95145 14.0485C2.17649 14.2736 2.48172 14.4 2.79998 14.4H13.2C13.5182 14.4 13.8235 14.2736 14.0485 14.0485C14.2735 13.8235 14.4 13.5183 14.4 13.2V2.80001C14.4 2.48175 14.2735 2.17652 14.0485 1.95148C13.8235 1.72643 13.5182 1.60001 13.2 1.60001H2.79998C2.48172 1.60001 2.17649 1.72643 1.95145 1.95148C1.7264 2.17652 1.59998 2.48175 1.59998 2.80001V4.00001C1.59998 4.21218 1.68426 4.41566 1.83429 4.56569C1.98432 4.71572 2.1878 4.80001 2.39998 4.80001C2.61215 4.80001 2.81563 4.71572 2.96566 4.56569C3.11569 4.41566 3.19998 4.21218 3.19998 4.00001V3.20001H12.8V12.8H3.19998V12C3.19998 11.7878 3.11569 11.5843 2.96566 11.4343C2.81563 11.2843 2.61215 11.2 2.39998 11.2C2.1878 11.2 1.98432 11.2843 1.83429 11.4343C1.68426 11.5843 1.59998 11.7878 1.59998 12V13.2Z" fill="#6D7175"/>
<path d="M7.43773 5.03447C7.36318 5.10859 7.30403 5.19672 7.26366 5.29378C7.22329 5.39085 7.2025 5.49494 7.2025 5.60007C7.2025 5.70519 7.22329 5.80928 7.26366 5.90635C7.30403 6.00341 7.36318 6.09154 7.43773 6.16567L8.47293 7.20007H3.20173C2.98956 7.20007 2.78608 7.28435 2.63605 7.43438C2.48602 7.58441 2.40173 7.78789 2.40173 8.00007C2.40173 8.21224 2.48602 8.41572 2.63605 8.56575C2.78608 8.71578 2.98956 8.80007 3.20173 8.80007H8.47293L7.43773 9.83447C7.36346 9.90879 7.30455 9.99702 7.26437 10.0941C7.22419 10.1912 7.20353 10.2953 7.20357 10.4003C7.20361 10.5054 7.22434 10.6095 7.26459 10.7065C7.30483 10.8036 7.3638 10.8918 7.43813 10.9661C7.51246 11.0403 7.60069 11.0992 7.69779 11.1394C7.79488 11.1796 7.89894 11.2003 8.00402 11.2002C8.10909 11.2002 8.21314 11.1795 8.3102 11.1392C8.40727 11.099 8.49546 11.04 8.56973 10.9657L10.9705 8.56567C11.0373 8.49643 11.091 8.41566 11.1289 8.32727C11.1393 8.30567 11.1457 8.28407 11.1529 8.26167C11.1777 8.19242 11.1923 8.11992 11.1961 8.04646L11.1969 8.02487C11.2037 7.91639 11.1868 7.80775 11.1473 7.70647L11.1449 7.69687V7.69367C11.1065 7.60406 11.0513 7.52727 10.9873 7.45847L10.9713 7.43447L8.56973 5.03447C8.49543 4.96008 8.4072 4.90108 8.31008 4.86082C8.21297 4.82056 8.10887 4.79984 8.00373 4.79984C7.8986 4.79984 7.7945 4.82056 7.69738 4.86082C7.60026 4.90108 7.51203 4.96008 7.43773 5.03447Z" fill="#6D7175"/>
</svg>
