<svg width="16" height="16" viewBox="0 0 16 16" fill="none" xmlns="http://www.w3.org/2000/svg">
<path fill-rule="evenodd" clip-rule="evenodd" d="M4.84793 8.11969H6.57418L6.87619 9.08295H7.93801L6.27852 4.39697H5.1722L3.5 9.08295H4.52367L4.84793 8.11969ZM5.71582 5.46833L6.30078 7.3122H5.1118L5.71582 5.46833Z" fill="#6D7175"/>
<path fill-rule="evenodd" clip-rule="evenodd" d="M8.53568 9.08295H10.5544C11.2623 9.08295 11.7858 8.79153 12.1249 8.2087C12.375 7.77634 12.5 7.24862 12.5 6.62551C12.5 6.37966 12.4703 6.1211 12.411 5.84982C12.3516 5.57853 12.2404 5.32633 12.0772 5.09319C11.8737 4.80496 11.6077 4.60679 11.2792 4.4987C11.0864 4.43512 10.8448 4.40121 10.5544 4.39697H8.53568V9.08295ZM10.3891 5.21082C10.8342 5.21082 11.1319 5.33798 11.2824 5.59231C11.4308 5.84876 11.5049 6.21541 11.5049 6.69227C11.5049 7.03774 11.4551 7.33551 11.3555 7.5856C11.1733 8.04127 10.8511 8.2691 10.3891 8.2691H9.48622V5.21082H10.3891Z" fill="#6D7175"/>
<path fill-rule="evenodd" clip-rule="evenodd" d="M0.5 2.30798C0.5 1.7557 0.947715 1.30798 1.5 1.30798H14.5C15.0523 1.30798 15.5 1.7557 15.5 2.30798V11.2919C15.5 11.8441 15.0523 12.2919 14.5 12.2919H1.5C0.947715 12.2919 0.5 11.8441 0.5 11.2919V2.30798ZM1.9 10.8919V2.70798H14.1V10.8919H1.9Z" fill="#6D7175"/>
<path d="M3.2 13.2919C2.8134 13.2919 2.5 13.6053 2.5 13.9919C2.5 14.3785 2.8134 14.6919 3.2 14.6919H12.8C13.1866 14.6919 13.5 14.3785 13.5 13.9919C13.5 13.6053 13.1866 13.2919 12.8 13.2919H3.2Z" fill="#6D7175"/>
</svg>
