<svg width="16" height="16" viewBox="0 0 16 16" fill="none" xmlns="http://www.w3.org/2000/svg">
<path d="M11.3868 0.000208543L4.89878 3.72219e-10C4.72763 -5.88438e-06 4.5736 0.0697667 4.46169 0.18167C4.34979 0.293574 4.28002 0.447608 4.28002 0.618761L4.28148 4.86202C4.10243 5.0042 3.9326 5.15823 3.77067 5.32016C2.80698 6.28385 2.16059 7.56484 2.00397 8.99066C1.96317 9.35534 2.2515 9.67528 2.61882 9.67661L7.40318 9.67676L7.40055 15.1505C7.40055 15.219 7.42425 15.2875 7.46902 15.3401L7.91403 15.8747C8.02594 16.0103 8.23001 16.0168 8.35244 15.8944C8.35903 15.8878 8.36561 15.8812 8.37087 15.8733L8.81585 15.3388C8.86061 15.2862 8.88431 15.2177 8.88431 15.1493V9.67286L13.6687 9.67301C13.8398 9.67302 13.9939 9.60324 14.1058 9.49134C14.2335 9.36364 14.3045 9.18196 14.2835 8.98711C14.0991 7.32034 13.2486 5.85367 12.0031 4.85832L12.0029 0.616376C12.0042 0.278021 11.7278 0.001536 11.3868 0.000208543Z" fill="#6D7175"/>
</svg>
