<svg width="16" height="16" viewBox="0 0 16 16" fill="none" xmlns="http://www.w3.org/2000/svg">
<path d="M14.0308 5.43154L9.24923 8.02692C8.80769 8.26385 8.53846 8.73769 8.53846 9.26539V14.2838C8.53846 14.8223 9.06615 15.1777 9.50769 14.93L14.2892 12.3346C14.72 12.0977 15 11.6238 15 11.0962V6.08846C15 5.53923 14.4723 5.19462 14.0308 5.43154ZM6.75077 8.01616L1.96923 5.43154C1.52769 5.19462 1 5.53923 1 6.07769V11.1177C1 11.6454 1.26923 12.1192 1.71077 12.3562L6.49231 14.9408C6.93385 15.1777 7.46154 14.8223 7.46154 14.2838V9.25462C7.46154 8.72692 7.19231 8.25308 6.75077 8.01616ZM13.5892 4.25769C13.8154 4.13923 13.9231 3.93462 13.9015 3.74077C13.9231 3.53616 13.8154 3.34231 13.5892 3.22385L8.72154 0.68231C8.50615 0.563848 8.24769 0.510002 7.98923 0.510002C7.73077 0.510002 7.47231 0.563848 7.25692 0.68231L2.38923 3.21308C2.16308 3.33154 2.06615 3.53616 2.07692 3.73C2.06615 3.93462 2.16308 4.13923 2.38923 4.25769L7.25692 6.78846C7.47231 6.90692 7.73077 6.96077 7.98923 6.96077C8.24769 6.96077 8.50615 6.90692 8.72154 6.78846L13.5892 4.25769Z" fill="#6D7175"/>
</svg>
