<svg width="16" height="16" viewBox="0 0 16 16" fill="none" xmlns="http://www.w3.org/2000/svg">
<path fill-rule="evenodd" clip-rule="evenodd" d="M8 0C12.4112 0 16 3.5888 16 8C16 12.4112 12.4112 16 8 16C3.5888 16 0 12.4112 0 8C0 3.5888 3.5888 0 8 0ZM12.992 12C12.3932 12.7488 11.6336 13.3533 10.7694 13.7687C9.90531 14.1841 8.9588 14.3998 8 14.3998C7.0412 14.3998 6.09469 14.1841 5.23056 13.7687C4.36643 13.3533 3.60683 12.7488 3.008 12C3.60683 11.2512 4.36643 10.6467 5.23056 10.2313C6.09469 9.81589 7.0412 9.60019 8 9.60019C8.9588 9.60019 9.90531 9.81589 10.7694 10.2313C11.6336 10.6467 12.3932 11.2512 12.992 12ZM8 8C8.31517 8 8.62726 7.93792 8.91844 7.81731C9.20962 7.6967 9.4742 7.51992 9.69706 7.29706C9.91992 7.0742 10.0967 6.80962 10.2173 6.51844C10.3379 6.22726 10.4 5.91517 10.4 5.6C10.4 5.28483 10.3379 4.97274 10.2173 4.68156C10.0967 4.39038 9.91992 4.1258 9.69706 3.90294C9.4742 3.68008 9.20962 3.5033 8.91844 3.38269C8.62726 3.26208 8.31517 3.2 8 3.2C7.36348 3.2 6.75303 3.45286 6.30294 3.90294C5.85286 4.35303 5.6 4.96348 5.6 5.6C5.6 6.23652 5.85286 6.84697 6.30294 7.29706C6.75303 7.74714 7.36348 8 8 8Z" fill="#6D7175"/>
</svg>
