<svg width="16" height="16" viewBox="0 0 16 16" fill="none" xmlns="http://www.w3.org/2000/svg">
<path fill-rule="evenodd" clip-rule="evenodd" d="M0 2.2C0 1.53726 0.537258 1 1.2 1H14.8C15.4627 1 16 1.53726 16 2.2V13.8C16 14.4627 15.4627 15 14.8 15H1.2C0.537258 15 0 14.4627 0 13.8V2.2ZM12.4 6.6C12.7314 6.6 13 6.33137 13 6C13 5.66863 12.7314 5.4 12.4 5.4H9.6C9.26863 5.4 9 5.66863 9 6C9 6.33137 9.26863 6.6 9.6 6.6H12.4ZM12.4 8.6C12.7314 8.6 13 8.33137 13 8C13 7.66863 12.7314 7.4 12.4 7.4H9.6C9.26863 7.4 9 7.66863 9 8C9 8.33137 9.26863 8.6 9.6 8.6H12.4ZM13 10C13 10.3314 12.7314 10.6 12.4 10.6H10.6C10.2686 10.6 10 10.3314 10 10C10 9.66863 10.2686 9.4 10.6 9.4H12.4C12.7314 9.4 13 9.66863 13 10ZM5.79215 7.56112C5.51292 7.84035 5.13471 7.99801 4.73982 7.99979C3.92197 7.99979 3.24923 7.30888 3.24923 6.49102C3.24856 6.29506 3.28665 6.10091 3.36132 5.91974C3.43599 5.73856 3.54575 5.57395 3.68429 5.43537C3.82284 5.29679 3.98742 5.18698 4.16857 5.11226C4.34973 5.03754 4.54387 4.99939 4.73982 5.00001C5.57629 5.00001 6.23082 5.69093 6.23082 6.50879C6.22904 6.90368 6.07138 7.28189 5.79215 7.56112ZM5.22655 8.27471C6.29869 8.27471 7.19423 8.81807 7.46713 9.83605C7.5399 10.1267 7.48532 10.4178 7.30381 10.6361C7.12188 10.8726 6.86717 11 6.57608 11H2.92219C2.63109 11 2.37638 10.8726 2.19445 10.6361C2.10705 10.5246 2.04681 10.3942 2.01846 10.2553C1.99012 10.1165 1.99446 9.97294 2.03114 9.83605C2.17 9.35731 2.35422 9.0778 2.76499 8.76233C3.17575 8.44686 3.83577 8.27549 4.3537 8.27471H5.22655Z" fill="#6D7175"/>
</svg>
