<svg width="16" height="16" viewBox="0 0 16 16" fill="none" xmlns="http://www.w3.org/2000/svg">
<path d="M8.79999 0.799988C8.37564 0.799988 7.96868 0.968559 7.66862 1.26862C7.36856 1.56868 7.19999 1.97564 7.19999 2.39999V4.79999H5.59999C5.17564 4.79999 4.76867 4.96856 4.46862 5.26862C4.16856 5.56868 3.99999 5.97564 3.99999 6.39999V8.79999H2.39999C1.97564 8.79999 1.56868 8.96856 1.26862 9.26862C0.968559 9.56868 0.799988 9.97564 0.799988 10.4V12.8C0.799988 13.68 1.51999 14.4 2.39999 14.4H13.6C14.0243 14.4 14.4313 14.2314 14.7314 13.9314C15.0314 13.6313 15.2 13.2243 15.2 12.8V2.39999C15.2 1.97564 15.0314 1.56868 14.7314 1.26862C14.4313 0.968559 14.0243 0.799988 13.6 0.799988H8.79999ZM8.79999 2.39999H12.8V4.79999H8.79999V2.39999ZM5.59999 6.39999H9.59999V8.79999H5.59999V6.39999ZM2.39999 10.4H6.39999V12.8H2.39999V10.4Z" fill="#6D7175"/>
</svg>
