<svg width="16" height="16" viewBox="0 0 16 16" fill="none" xmlns="http://www.w3.org/2000/svg">
<path d="M4.71053 13.1153L8.06755 11.4573L8.95955 11.9093L11.2866 13.0873L10.7266 9.17524L11.4346 8.46824L12.7246 7.17823L9.48955 6.60223L9.04455 5.68723L7.98555 3.51122L6.40054 6.68223L5.39553 6.85023L3.29752 7.20023L5.27253 9.17524L5.13153 10.1652L4.70953 13.1153H4.71053ZM3.20052 15.9993C3.08582 15.9993 2.97245 15.9747 2.8681 15.927C2.76376 15.8794 2.67088 15.8099 2.59576 15.7232C2.52065 15.6365 2.46505 15.5347 2.43274 15.4246C2.40044 15.3145 2.39217 15.1988 2.40852 15.0853L3.15152 9.88225L0.23451 6.96523C0.130518 6.86131 0.0571736 6.73075 0.0225295 6.58787C-0.0121147 6.44499 -0.00671827 6.29533 0.0381262 6.15532C0.0829707 6.01532 0.165529 5.89037 0.276735 5.79421C0.387942 5.69805 0.523496 5.63439 0.668512 5.61023L5.06653 4.87722L7.28454 0.442203C7.35133 0.308647 7.45416 0.196449 7.5814 0.118302C7.70864 0.0401553 7.85521 -0.000820012 8.00453 1.24359e-05C8.15385 0.000844884 8.29996 0.0434519 8.42632 0.123012C8.55268 0.202573 8.65426 0.315911 8.71955 0.450203L10.8426 4.81122L15.3406 5.61223C15.4845 5.63796 15.6185 5.70263 15.7283 5.79919C15.838 5.89576 15.9191 6.02054 15.9629 6.15998C16.0067 6.29943 16.0115 6.44821 15.9767 6.59017C15.9419 6.73213 15.8689 6.86185 15.7656 6.96523L12.8486 9.88225L13.5926 15.0853C13.6136 15.2303 13.5944 15.3783 13.537 15.5132C13.4796 15.6481 13.3863 15.7646 13.2672 15.85C13.1481 15.9354 13.0079 15.9865 12.8618 15.9977C12.7156 16.0088 12.5692 15.9796 12.4386 15.9133L8.05655 13.6933L3.55453 15.9163C3.44456 15.971 3.32336 15.9994 3.20052 15.9993Z" fill="#6D7175"/>
</svg>
