<svg width="16" height="16" viewBox="0 0 16 16" fill="none" xmlns="http://www.w3.org/2000/svg">
<g clip-path="url(#clip0_16565_43568)">
<path fill-rule="evenodd" clip-rule="evenodd" d="M6.16569 9.83432C6.47811 10.1467 6.47811 10.6533 6.16569 10.9657L1.36569 15.7657C1.05327 16.0781 0.546734 16.0781 0.234315 15.7657C-0.0781049 15.4533 -0.0781049 14.9467 0.234315 14.6343L5.03431 9.83432C5.34673 9.5219 5.85327 9.5219 6.16569 9.83432Z" fill="#6D7175"/>
<path fill-rule="evenodd" clip-rule="evenodd" d="M6.4 6.40001C6.4 5.95818 6.75817 5.60001 7.2 5.60001H12C12.4418 5.60001 12.8 5.95818 12.8 6.40001C12.8 6.84183 12.4418 7.20001 12 7.20001H7.2C6.75817 7.20001 6.4 6.84183 6.4 6.40001Z" fill="#6D7175"/>
<path fill-rule="evenodd" clip-rule="evenodd" d="M9.6 3.20001C10.0418 3.20001 10.4 3.55818 10.4 4.00001V8.80001C10.4 9.24184 10.0418 9.60001 9.6 9.60001C9.15817 9.60001 8.8 9.24184 8.8 8.80001V4.00001C8.8 3.55818 9.15817 3.20001 9.6 3.20001Z" fill="#6D7175"/>
<path fill-rule="evenodd" clip-rule="evenodd" d="M9.6 1.6C6.94903 1.6 4.8 3.74903 4.8 6.4C4.8 9.05097 6.94903 11.2 9.6 11.2C12.251 11.2 14.4 9.05097 14.4 6.4C14.4 3.74903 12.251 1.6 9.6 1.6ZM3.2 6.4C3.2 2.86538 6.06538 0 9.6 0C13.1346 0 16 2.86538 16 6.4C16 9.93462 13.1346 12.8 9.6 12.8C6.06538 12.8 3.2 9.93462 3.2 6.4Z" fill="#6D7175"/>
</g>
<defs>
<clipPath id="clip0_16565_43568">
<rect width="16" height="16" fill="white"/>
</clipPath>
</defs>
</svg>
