<svg width="16" height="16" viewBox="0 0 16 16" fill="none" xmlns="http://www.w3.org/2000/svg">
<path d="M1.70001 0.5C1.03726 0.5 0.5 1.03725 0.5 1.7V6.3C0.5 6.96274 1.03726 7.5 1.70001 7.5H6.29999C6.96274 7.5 7.5 6.96274 7.5 6.3V1.7C7.5 1.03726 6.96274 0.5 6.29999 0.5H1.70001Z" fill="#6D7175"/>
<path d="M1.70001 8.5C1.03726 8.5 0.5 9.03726 0.5 9.7V14.3C0.5 14.9627 1.03726 15.5 1.70001 15.5H6.29999C6.96274 15.5 7.5 14.9627 7.5 14.3V9.7C7.5 9.03726 6.96274 8.5 6.29999 8.5H1.70001Z" fill="#6D7175"/>
<path d="M8.5 9.7C8.5 9.03726 9.03726 8.5 9.70001 8.5H14.3C14.9627 8.5 15.5 9.03726 15.5 9.7V14.3C15.5 14.9627 14.9627 15.5 14.3 15.5H9.70001C9.03726 15.5 8.5 14.9627 8.5 14.3V9.7Z" fill="#6D7175"/>
<path fill-rule="evenodd" clip-rule="evenodd" d="M12.0026 7.49473C13.9342 7.49473 15.5 5.92891 15.5 3.99737C15.5 2.06582 13.9342 0.5 12.0026 0.5C10.0711 0.5 8.50525 2.06582 8.50525 3.99737C8.50525 5.92891 10.0711 7.49473 12.0026 7.49473ZM12.0026 6.09473C13.161 6.09473 14.1 5.15571 14.1 3.99737C14.1 2.83902 13.161 1.9 12.0026 1.9C10.8443 1.9 9.90525 2.83902 9.90525 3.99737C9.90525 5.15571 10.8443 6.09473 12.0026 6.09473Z" fill="#6D7175"/>
</svg>
