<svg width="16" height="16" viewBox="0 0 16 16" fill="none" xmlns="http://www.w3.org/2000/svg">
<path fill-rule="evenodd" clip-rule="evenodd" d="M8 15.5C3.8645 15.5 0.5 12.1355 0.5 8C0.5 3.8645 3.8645 0.5 8 0.5C12.1355 0.5 15.5 3.8645 15.5 8C15.5 12.1355 12.1355 15.5 8 15.5ZM8.75 4.25C8.75 3.83579 8.41421 3.5 8 3.5C7.58579 3.5 7.25 3.83579 7.25 4.25V8C7.25 8.19891 7.32902 8.38968 7.46967 8.53033L9.71967 10.7803C10.0126 11.0732 10.4874 11.0732 10.7803 10.7803C11.0732 10.4874 11.0732 10.0126 10.7803 9.71967L8.75 7.68934V4.25Z" fill="#6D7175"/>
</svg>
