<svg width="16" height="16" viewBox="0 0 16 16" fill="none" xmlns="http://www.w3.org/2000/svg">
<g clip-path="url(#clip0_16565_43562)">
<path d="M15.7656 2.6344C15.9156 2.78443 15.9998 2.98787 15.9998 3.2C15.9998 3.41214 15.9156 3.61558 15.7656 3.7656L13.3656 6.1656C13.2729 6.25921 13.1584 6.32839 13.0324 6.36696C12.9064 6.40552 12.7728 6.41226 12.6436 6.38659C12.5143 6.36092 12.3935 6.30362 12.2918 6.21983C12.1901 6.13603 12.1107 6.02835 12.0608 5.9064C12.0002 5.76018 11.9844 5.59929 12.0153 5.44407C12.0462 5.28885 12.1225 5.14628 12.2344 5.0344L13.2688 4H5.60001C3.83521 4 2.40001 5.4352 2.40001 7.2C2.40001 7.41218 2.31573 7.61566 2.1657 7.76569C2.01567 7.91572 1.81219 8 1.60001 8C1.38784 8 1.18436 7.91572 1.03433 7.76569C0.884298 7.61566 0.800012 7.41218 0.800012 7.2C0.800012 4.5528 2.95281 2.4 5.60001 2.4H13.2688L12.2344 1.3656C12.158 1.29181 12.0971 1.20353 12.0551 1.10593C12.0132 1.00832 11.9911 0.903348 11.9902 0.797125C11.9893 0.690901 12.0095 0.585558 12.0498 0.487241C12.09 0.388924 12.1494 0.299602 12.2245 0.224488C12.2996 0.149374 12.3889 0.0899713 12.4872 0.0497466C12.5856 0.00952186 12.6909 -0.0107195 12.7971 -0.00979645C12.9034 -0.0088734 13.0083 0.0131956 13.1059 0.0551228C13.2035 0.09705 13.2918 0.157996 13.3656 0.234404L15.7656 2.6344ZM13.6 8C13.8122 8 14.0157 8.08429 14.1657 8.23432C14.3157 8.38435 14.4 8.58783 14.4 8.8C14.4 11.448 12.248 13.6 9.60001 13.6H2.73121L3.76561 14.6344C3.84202 14.7082 3.90297 14.7965 3.94489 14.8941C3.98682 14.9917 4.00889 15.0967 4.00981 15.2029C4.01074 15.3091 3.99049 15.4145 3.95027 15.5128C3.91005 15.6111 3.85064 15.7004 3.77553 15.7755C3.70041 15.8506 3.61109 15.91 3.51278 15.9503C3.41446 15.9905 3.30911 16.0107 3.20289 16.0098C3.09667 16.0089 2.99169 15.9868 2.89409 15.9449C2.79649 15.903 2.70821 15.842 2.63441 15.7656L0.234412 13.3656C0.0844354 13.2156 0.000183105 13.0121 0.000183105 12.8C0.000183105 12.5879 0.0844354 12.3844 0.234412 12.2344L2.63441 9.8344C2.70821 9.758 2.79649 9.69705 2.89409 9.65512C2.99169 9.6132 3.09667 9.59113 3.20289 9.5902C3.30911 9.58928 3.41446 9.60952 3.51278 9.64975C3.61109 9.68997 3.70041 9.74937 3.77553 9.82449C3.85064 9.8996 3.91005 9.98892 3.95027 10.0872C3.99049 10.1856 4.01074 10.2909 4.00981 10.3971C4.00889 10.5033 3.98682 10.6083 3.94489 10.7059C3.90297 10.8035 3.84202 10.8918 3.76561 10.9656L2.73121 12H9.60001C11.3648 12 12.8 10.5648 12.8 8.8C12.8 8.58783 12.8843 8.38435 13.0343 8.23432C13.1844 8.08429 13.3878 8 13.6 8Z" fill="#6D7175"/>
</g>
<defs>
<clipPath id="clip0_16565_43562">
<rect width="16" height="16" fill="white"/>
</clipPath>
</defs>
</svg>
