<svg width="16" height="16" viewBox="0 0 16 16" fill="none" xmlns="http://www.w3.org/2000/svg">
<g clip-path="url(#clip0_16565_43368)">
<path d="M15.7656 2.63443C15.8399 2.70866 15.8989 2.79683 15.9392 2.89388C15.9794 2.99093 16.0001 3.09497 16.0001 3.20003C16.0001 3.3051 15.9794 3.40913 15.9392 3.50619C15.8989 3.60324 15.8399 3.6914 15.7656 3.76563L13.3656 6.16563C13.2915 6.24018 13.2033 6.29934 13.1063 6.33971C13.0092 6.38008 12.9051 6.40086 12.8 6.40086C12.6949 6.40086 12.5908 6.38008 12.4937 6.33971C12.3966 6.29934 12.3085 6.24018 12.2344 6.16563C12.16 6.0914 12.101 6.00324 12.0608 5.90619C12.0205 5.80913 11.9998 5.7051 11.9998 5.60003C11.9998 5.49497 12.0205 5.39093 12.0608 5.29388C12.101 5.19683 12.16 5.10866 12.2344 5.03443L13.2688 4.00003H5.59998C3.83518 4.00003 2.39998 5.43523 2.39998 7.20003C2.39998 7.41221 2.31569 7.61569 2.16566 7.76572C2.01563 7.91575 1.81215 8.00003 1.59998 8.00003C1.3878 8.00003 1.18432 7.91575 1.03429 7.76572C0.884263 7.61569 0.799978 7.41221 0.799978 7.20003C0.799978 4.55283 2.95278 2.40003 5.59998 2.40003H13.2688L12.2344 1.36563C12.1601 1.29136 12.1012 1.20318 12.061 1.10613C12.0208 1.00909 12.0001 0.905073 12.0001 0.800032C12.0001 0.69499 12.0208 0.590977 12.061 0.493931C12.1012 0.396885 12.1601 0.308707 12.2344 0.234432C12.3087 0.160156 12.3968 0.101237 12.4939 0.0610398C12.5909 0.0208421 12.6949 0.000152586 12.8 0.000152588C12.905 0.00015259 13.009 0.0208421 13.1061 0.0610398C13.2031 0.101237 13.2913 0.160156 13.3656 0.234432L15.7656 2.63443ZM13.6 8.00003C13.8122 8.00003 14.0156 8.08432 14.1657 8.23435C14.3157 8.38438 14.4 8.58786 14.4 8.80003C14.4 11.448 12.248 13.6 9.59998 13.6H2.73118L3.76558 14.6344C3.91558 14.7844 3.99986 14.9879 3.99986 15.2C3.99986 15.4122 3.91558 15.6156 3.76558 15.7656C3.61557 15.9156 3.41212 15.9999 3.19998 15.9999C2.98784 15.9999 2.78438 15.9156 2.63438 15.7656L0.234378 13.3656C0.160021 13.2914 0.101031 13.2032 0.0607825 13.1062C0.0205339 13.0091 -0.000183105 12.9051 -0.000183105 12.8C-0.000183105 12.695 0.0205339 12.5909 0.0607825 12.4939C0.101031 12.3968 0.160021 12.3087 0.234378 12.2344L2.63438 9.83443C2.70865 9.76016 2.79683 9.70124 2.89388 9.66104C2.99092 9.62084 3.09494 9.60015 3.19998 9.60015C3.30502 9.60015 3.40903 9.62084 3.50608 9.66104C3.60312 9.70124 3.6913 9.76016 3.76558 9.83443C3.83985 9.90871 3.89877 9.99689 3.93897 10.0939C3.97917 10.191 3.99986 10.295 3.99986 10.4C3.99986 10.5051 3.97917 10.6091 3.93897 10.7061C3.89877 10.8032 3.83985 10.8914 3.76558 10.9656L2.73118 12H9.59998C11.3648 12 12.8 10.5648 12.8 8.80003C12.8 8.58786 12.8843 8.38438 13.0343 8.23435C13.1843 8.08432 13.3878 8.00003 13.6 8.00003Z" fill="#6D7175"/>
</g>
<defs>
<clipPath id="clip0_16565_43368">
<rect width="16" height="16" fill="white"/>
</clipPath>
</defs>
</svg>
