<svg width="16" height="16" viewBox="0 0 16 16" fill="none" xmlns="http://www.w3.org/2000/svg">
<path d="M13.6 7.14003V1.4H1.4V13.6H7.14003C7.0804 13.8937 7.03917 14.1942 7.01758 14.5C7.02947 14.6684 7.0473 14.8351 7.07089 15H1.2C1.15858 15 1.11765 14.9979 1.07731 14.9938C0.4722 14.9324 0 14.4213 0 13.8V1.2C0 1.19741 8.19791e-06 1.19482 2.45692e-05 1.19224C0.00419925 0.533069 0.539847 0 1.2 0H13.8C14.4627 0 15 0.537258 15 1.2V7.07089C14.8351 7.0473 14.6684 7.02947 14.5 7.01758C14.1942 7.03917 13.8937 7.0804 13.6 7.14003Z" fill="#6D7175"/>
<path fill-rule="evenodd" clip-rule="evenodd" d="M13.1684 16H11.833C11.7314 16.0006 11.633 15.9649 11.5562 15.8996C11.4795 15.8343 11.4296 15.7438 11.416 15.645L11.3107 14.925C11.183 14.8652 11.0601 14.7956 10.9434 14.7169L10.2343 14.9938C10.1399 15.0271 10.0364 15.0266 9.9423 14.9923C9.84821 14.9579 9.76957 14.892 9.72033 14.8063L9.05649 13.6875C9.00598 13.6016 8.98863 13.5008 9.00759 13.4034C9.02655 13.306 9.08056 13.2186 9.15979 13.1569L9.75285 12.7057C9.74648 12.6313 9.74329 12.5638 9.74329 12.4994C9.74329 12.435 9.74329 12.3669 9.75285 12.2932L9.16107 11.8425C9.08135 11.7814 9.02685 11.6941 9.00763 11.5967C8.98842 11.4993 9.00577 11.3984 9.05649 11.3125L9.72352 10.1875C9.77339 10.1019 9.85302 10.0368 9.94785 10.004C10.0427 9.97114 10.1464 9.97285 10.2401 10.0088L10.9415 10.2838C11.0582 10.2054 11.1808 10.1358 11.3082 10.0756L11.416 9.35065C11.4303 9.2526 11.4805 9.163 11.5573 9.09851C11.634 9.03401 11.732 8.99901 11.833 9.00002H13.1684C13.2698 8.99973 13.3679 9.03557 13.4444 9.10088C13.5209 9.16618 13.5705 9.2565 13.5841 9.35502L13.6913 10.075C13.8191 10.1349 13.9419 10.2045 14.0586 10.2831L14.7671 10.0063C14.8615 9.97281 14.965 9.9733 15.0592 10.0076C15.1533 10.042 15.2319 10.1079 15.2811 10.1938L15.9436 11.3125C15.9941 11.3984 16.0115 11.4993 15.9925 11.5966C15.9736 11.694 15.9195 11.7815 15.8403 11.8432L15.2473 12.2944C15.253 12.3569 15.2568 12.4275 15.2568 12.5013C15.2568 12.575 15.253 12.6444 15.2473 12.7082L15.839 13.1588C15.9178 13.2195 15.9719 13.3059 15.9916 13.4022C16.0112 13.4986 15.9951 13.5987 15.9462 13.6844L15.2779 14.8125C15.228 14.8981 15.1484 14.9633 15.0535 14.9961C14.9587 15.0289 14.855 15.0272 14.7613 14.9913L14.0599 14.7163C13.9432 14.7946 13.8206 14.8642 13.6932 14.9244L13.5841 15.6494C13.5698 15.7473 13.5198 15.8367 13.4433 15.9011C13.3669 15.9656 13.2692 16.0007 13.1684 16ZM12.4925 13.8875C12.2184 13.8859 11.951 13.8032 11.7239 13.6498C11.4968 13.4963 11.3202 13.2791 11.2164 13.0254C11.1126 12.7717 11.0863 12.493 11.1408 12.2244C11.1952 11.9558 11.328 11.7093 11.5224 11.5161C11.7167 11.3228 11.964 11.1915 12.2329 11.1386C12.5018 11.0857 12.7804 11.1137 13.0334 11.2189C13.2865 11.3242 13.5027 11.502 13.6548 11.73C13.8069 11.958 13.8881 12.226 13.8881 12.5C13.8866 12.869 13.7388 13.2222 13.4772 13.4824C13.2156 13.7425 12.8614 13.8882 12.4925 13.8875Z" fill="#6D7175"/>
<path fill-rule="evenodd" clip-rule="evenodd" d="M10.4 5.59998C10.4 6.55559 9.95322 7.40685 9.25711 7.95624C9.49556 8.05168 9.72493 8.16496 9.9436 8.29442C9.53434 8.5859 9.15779 8.92032 8.82051 9.29109C8.38468 9.10374 7.90445 8.99998 7.39998 8.99998C5.61618 8.99998 4.1354 10.2973 3.84975 12H2.43561C2.65599 10.1572 3.87868 8.62235 5.5429 7.95621C4.84682 7.40682 4.40002 6.55558 4.40002 5.59998C4.40002 3.94312 5.74317 2.59998 7.40002 2.59998C9.05688 2.59998 10.4 3.94312 10.4 5.59998ZM9.00002 5.59998C9.00002 6.48363 8.28368 7.19998 7.40002 7.19998C6.51637 7.19998 5.80002 6.48363 5.80002 5.59998C5.80002 4.71632 6.51637 3.99998 7.40002 3.99998C8.28368 3.99998 9.00002 4.71632 9.00002 5.59998Z" fill="#6D7175"/>
</svg>
