<svg width="16" height="16" viewBox="0 0 16 16" fill="none" xmlns="http://www.w3.org/2000/svg">
<path d="M15 6.55969C13.6242 6.56298 12.2822 6.13392 11.1634 5.33312V10.9181C11.1631 11.9525 10.8469 12.9622 10.2572 13.812C9.66753 14.6619 8.83244 15.3115 7.86362 15.6739C6.89479 16.0364 5.8384 16.0944 4.83571 15.8402C3.83301 15.5861 2.9318 15.0319 2.25258 14.2517C1.57336 13.4716 1.14851 12.5026 1.03483 11.4745C0.921153 10.4464 1.12407 9.40803 1.61644 8.49833C2.10882 7.58863 2.86719 6.85093 3.79014 6.38387C4.7131 5.91681 5.75664 5.74265 6.78125 5.88469V8.69375C6.31239 8.54627 5.80891 8.55071 5.34273 8.70644C4.87654 8.86217 4.47149 9.16123 4.1854 9.56089C3.89932 9.96056 3.74683 10.4404 3.74973 10.9319C3.75262 11.4234 3.91075 11.9014 4.20152 12.2977C4.49229 12.694 4.90085 12.9882 5.36883 13.1385C5.83682 13.2887 6.34031 13.2872 6.8074 13.1342C7.27449 12.9812 7.6813 12.6845 7.96973 12.2866C8.25815 11.8886 8.41345 11.4096 8.41344 10.9181V0H11.1634C11.1615 0.232231 11.181 0.464146 11.2216 0.692812C11.3171 1.20328 11.5158 1.68888 11.8055 2.11992C12.0951 2.55096 12.4697 2.91837 12.9062 3.19969C13.5273 3.61034 14.2554 3.82922 15 3.82906V6.55969Z" fill="#6D7175"/>
</svg>
