<svg width="16" height="16" viewBox="0 0 16 16" fill="none" xmlns="http://www.w3.org/2000/svg">
<path fill-rule="evenodd" clip-rule="evenodd" d="M16 8C16 12.4183 12.4183 16 8 16C3.58172 16 0 12.4183 0 8C0 3.58172 3.58172 0 8 0C12.4183 0 16 3.58172 16 8ZM3.72606 10.7449C3.19907 9.94637 2.89203 8.99336 2.89203 7.96887C2.89203 5.17049 5.1807 2.89409 7.99417 2.89409C10.8076 2.89409 13.0963 5.17049 13.0963 7.96887C13.0963 8.99264 12.7885 9.94637 12.2623 10.7449H13.6908C14.1053 9.90666 14.339 8.96448 14.339 7.96887C14.339 4.48894 11.4929 1.65878 7.9949 1.65878C4.49693 1.65878 1.65079 4.48966 1.65079 7.96887C1.65079 8.96448 1.88452 9.90666 2.299 10.7449H3.72606ZM5.50079 5.86648C6.08149 5.40585 7.15069 4.9705 8.07981 4.9705C9.45388 4.9705 10.5086 5.58346 10.5078 7.09167V10.7442H9.00094V9.87273C8.65833 10.4626 8.02319 10.9095 7.21457 10.9095C6.006 10.9095 5.27142 10.2973 5.27142 9.2836C5.27142 8.0057 6.57218 7.48587 8.24603 7.33281C8.69172 7.29238 8.92835 7.12849 8.92835 6.83754C8.92835 6.40507 8.57267 6.19064 7.92737 6.19064C7.24869 6.19064 6.49596 6.55236 6.03068 6.97616L5.50079 5.86648ZM6.88357 9.18902C6.88357 9.53052 7.15142 9.73845 7.63993 9.73845C8.39556 9.73845 8.89714 9.0504 8.89714 8.30532C7.75825 8.30532 6.88357 8.47715 6.88357 9.18902Z" fill="#6D7175"/>
</svg>
