<svg width="16" height="16" viewBox="0 0 16 16" fill="none" xmlns="http://www.w3.org/2000/svg">
<path d="M8 7C9.65685 7 11 5.65685 11 4C11 2.34315 9.65685 1 8 1C6.34315 1 5 2.34315 5 4C5 5.65685 6.34315 7 8 7Z" fill="#6D7175"/>
<path d="M4.49999 15.0002C3.86019 15.0002 3.22039 14.7561 2.73223 14.268C1.75592 13.2916 1.75592 11.7087 2.73223 10.7324C3.32149 10.1549 5.2 9 8 9C10.8 9 12.6785 10.1549 13.2678 10.7324C14.2441 11.7087 14.2441 13.2916 13.2678 14.268C12.7796 14.7561 12.1398 15.0002 11.5 15.0002H4.49999Z" fill="#6D7175"/>
</svg>
