<svg width="16" height="16" viewBox="0 0 16 16" fill="none" xmlns="http://www.w3.org/2000/svg">
<path fill-rule="evenodd" clip-rule="evenodd" d="M2.5 2C1.67163 2 1 2.67157 1 3.5V12.5C1 13.3284 1.67163 14 2.5 14H13.5C14.3284 14 15 13.3284 15 12.5V3.5C15 2.67157 14.3284 2 13.5 2H2.5ZM5.10303 7.09637C4.88293 6.87628 5.03882 6.5 5.34998 6.5H10.65C10.9612 6.5 11.1171 6.87628 10.897 7.09637L8.24707 9.74634C8.16553 9.82782 8.05371 9.86066 7.94788 9.84479C7.87646 9.83405 7.80786 9.80127 7.75293 9.74634L5.10303 7.09637Z" fill="#6D7175"/>
</svg>
