<svg width="16" height="16" viewBox="0 0 16 16" fill="none" xmlns="http://www.w3.org/2000/svg">
<path d="M0 1C0 1 0 1.33579 0 1.75C0 2.16421 0 2.5 0 2.5H16C16 2.5 16 2.16421 16 1.75C16 1.33579 16 1 16 1H0Z" fill="#6D7175"/>
<path d="M0 8C0 7.58579 0 7.25 0 7.25H8C8 7.25 8 7.58579 8 8C8 8.41421 8 8.75 8 8.75H0C0 8.75 0 8.41421 0 8Z" fill="#6D7175"/>
<path d="M0 13.5C0 13.5 0 13.8358 0 14.25C0 14.6642 0 15 0 15H8C8 15 8 14.6642 8 14.25C8 13.8358 8 13.5 8 13.5H0Z" fill="#6D7175"/>
<path d="M11 13.7987V8.20125C11 8.03336 11.2453 7.93961 11.4128 8.04359L15.9036 10.8423C16.0321 10.9233 16.0321 11.0776 15.9036 11.1577L11.4128 13.9564C11.2453 14.0604 11 13.9666 11 13.7987Z" fill="#6D7175"/>
</svg>
