<svg width="16" height="16" viewBox="0 0 16 16" fill="none" xmlns="http://www.w3.org/2000/svg">
<path d="M8.96092 7.53906C9.00658 7.55217 9.0529 7.56547 9.10002 7.57956C9.10002 7.58184 9.10001 7.58421 9.09999 7.58667L9.09989 7.59538C9.09967 7.61377 9.0994 7.63561 9.10118 7.65678C9.10934 7.77434 9.20837 7.87 9.32953 7.87806C9.45419 7.88613 9.58234 7.8043 9.58467 7.68559C9.58584 7.56919 9.64176 7.54268 9.73612 7.51156C10.0122 7.41821 10.1788 7.19462 10.1835 6.93415C10.1882 6.65178 10.0507 6.45355 9.7571 6.34176C9.67084 6.30949 9.58143 6.28525 9.49194 6.26099C9.4376 6.24626 9.38323 6.23153 9.32953 6.21498C9.24798 6.19078 9.16643 6.16657 9.08953 6.13085C9.01497 6.09627 9.00682 6.01098 9.06856 5.95566C9.0942 5.93261 9.12915 5.90956 9.16293 5.9038L9.17431 5.90172L9.1895 5.89892C9.26399 5.88516 9.34068 5.87099 9.41458 5.87614C9.5072 5.88153 9.59982 5.89882 9.69188 5.91601C9.71794 5.92087 9.74395 5.92573 9.76991 5.93031C9.83748 5.94183 9.89806 5.93031 9.95282 5.89343C10.0379 5.83695 10.0763 5.75512 10.0623 5.65601C10.0472 5.55459 9.98777 5.48313 9.88641 5.45547C9.81564 5.43645 9.74281 5.42131 9.67006 5.40618C9.64585 5.40114 9.62163 5.39611 9.59749 5.39093C9.59657 5.37773 9.59601 5.36469 9.59546 5.35178C9.59461 5.332 9.59378 5.31248 9.59166 5.29296C9.57302 5.13622 9.41691 5.03826 9.26662 5.08782C9.16293 5.12124 9.09653 5.21344 9.10002 5.331C9.10235 5.38747 9.08954 5.41398 9.03012 5.43011C8.95789 5.44971 8.88799 5.48313 8.82507 5.52232C8.48023 5.73784 8.43013 6.20461 8.72139 6.47084C8.84022 6.57917 8.98818 6.63104 9.13963 6.67483C9.1696 6.68334 9.19964 6.69173 9.22959 6.70011C9.35793 6.73599 9.48585 6.77174 9.61147 6.81659C9.71166 6.85347 9.71865 6.96757 9.62545 7.02174C9.57535 7.05056 9.51593 7.07015 9.45768 7.07822C9.2573 7.10472 9.0639 7.07245 8.87517 7.00445C8.82624 6.98717 8.76915 6.97679 8.71789 6.98256C8.60372 6.99639 8.52566 7.08628 8.51168 7.20038C8.49887 7.30411 8.56061 7.41245 8.66896 7.44933C8.76411 7.48255 8.86097 7.51036 8.96092 7.53906Z" fill="#6D7175"/>
<path fill-rule="evenodd" clip-rule="evenodd" d="M8 16C12.4183 16 16 12.4183 16 8C16 3.58172 12.4183 0 8 0C3.58172 0 0 3.58172 0 8C0 12.4183 3.58172 16 8 16ZM8.49886 3.76427C7.34385 4.12493 6.50556 5.20296 6.50556 6.47679C6.50556 6.62762 6.51731 6.77571 6.53995 6.92018C5.64993 6.72961 4.98261 5.93854 4.98261 4.99162C4.98261 3.90236 5.86563 3.01934 6.9549 3.01934C7.58019 3.01934 8.13752 3.31032 8.49886 3.76427ZM3.27849 10.0634L3.47268 12.5459C3.81349 12.4206 4.59437 12.17 4.99132 12.17C5.19297 12.17 5.45622 12.3039 5.76875 12.4628C6.22524 12.695 6.78685 12.9807 7.41523 12.9807C7.88158 12.9807 8.19898 12.7878 8.46097 12.6286L8.4612 12.6285L8.46129 12.6284C8.50918 12.5993 8.55522 12.5714 8.59999 12.5459C8.88968 12.3811 12.4192 10.5611 12.4192 10.5611C12.5595 10.4759 12.8101 10.1973 12.6898 9.76423C12.5695 9.33119 12.0984 9.26302 11.8779 9.28307L9.37015 10.0116C9.39836 10.1207 9.40609 10.2354 9.39001 10.3491C9.33176 10.7548 9.0172 11.0752 8.61992 11.1351C8.44866 11.1616 8.28556 11.1282 8.12012 11.0867C7.57955 10.9518 7.03897 10.8181 6.49723 10.6845C6.34927 10.6476 6.26538 10.5185 6.29917 10.3813C6.33412 10.2442 6.4681 10.1704 6.61723 10.2073C7.19392 10.3491 7.77061 10.492 8.3473 10.6349C8.61992 10.7029 8.85876 10.5485 8.8972 10.2788C8.9205 10.1151 8.83312 9.92956 8.67351 9.86386C8.59422 9.83156 8.51515 9.79852 8.43607 9.76548L8.4358 9.76537C8.04087 9.60035 7.64539 9.43509 7.21838 9.36021C6.64169 9.25879 6.07199 9.28645 5.50928 9.44665C4.79977 9.64834 4.09143 9.84888 3.38192 10.0494C3.34602 10.0596 3.31126 10.0642 3.27849 10.0634ZM9.34675 8.70586C10.5778 8.70586 11.5758 7.70787 11.5758 6.4768C11.5758 5.24572 10.5778 4.24773 9.34675 4.24773C8.11567 4.24773 7.11768 5.24572 7.11768 6.4768C7.11768 7.70787 8.11567 8.70586 9.34675 8.70586Z" fill="#6D7175"/>
</svg>
