<svg width="16" height="16" viewBox="0 0 16 16" fill="none" xmlns="http://www.w3.org/2000/svg">
<path fill-rule="evenodd" clip-rule="evenodd" d="M8 0.5C3.8645 0.5 0.5 3.8645 0.5 8C0.5 9.296 0.8375 10.565 1.478 11.693L0.57575 13.9738C0.23225 14.8805 1.12025 15.7685 2.027 15.4242L4.307 14.5212C5.43214 15.1626 6.7049 15.4999 8 15.5C12.1355 15.5 15.5 12.1355 15.5 8C15.5 3.8645 12.1355 0.5 8 0.5ZM4.46975 7.46975C4.53924 7.39986 4.62186 7.3444 4.71286 7.30655C4.80386 7.26871 4.90144 7.24922 5 7.24922C5.09856 7.24922 5.19614 7.26871 5.28714 7.30655C5.37814 7.3444 5.46076 7.39986 5.53025 7.46975C5.60014 7.53924 5.6556 7.62186 5.69345 7.71286C5.73129 7.80386 5.75078 7.90144 5.75078 8C5.75078 8.09856 5.73129 8.19614 5.69345 8.28714C5.6556 8.37814 5.60014 8.46076 5.53025 8.53025C5.46076 8.60014 5.37814 8.6556 5.28714 8.69345C5.19614 8.73129 5.09856 8.75078 5 8.75078C4.90144 8.75078 4.80386 8.73129 4.71286 8.69345C4.62186 8.6556 4.53924 8.60014 4.46975 8.53025C4.39986 8.46076 4.3444 8.37814 4.30655 8.28714C4.26871 8.19614 4.24922 8.09856 4.24922 8C4.24922 7.90144 4.26871 7.80386 4.30655 7.71286C4.3444 7.62186 4.39986 7.53924 4.46975 7.46975ZM7.46975 7.46975C7.53924 7.39986 7.62186 7.3444 7.71286 7.30655C7.80386 7.26871 7.90144 7.24922 8 7.24922C8.09856 7.24922 8.19614 7.26871 8.28714 7.30655C8.37814 7.3444 8.46076 7.39986 8.53025 7.46975C8.60014 7.53924 8.6556 7.62186 8.69345 7.71286C8.73129 7.80386 8.75078 7.90144 8.75078 8C8.75078 8.09856 8.73129 8.19614 8.69345 8.28714C8.6556 8.37814 8.60014 8.46076 8.53025 8.53025C8.38931 8.6703 8.19869 8.74891 8 8.74891C7.80131 8.74891 7.61069 8.6703 7.46975 8.53025C7.3297 8.38931 7.25109 8.19869 7.25109 8C7.25109 7.80131 7.3297 7.61069 7.46975 7.46975ZM11 7.25C10.9014 7.2497 10.8038 7.2689 10.7126 7.30649C10.6215 7.34407 10.5387 7.3993 10.469 7.46901C10.3993 7.53871 10.3441 7.62151 10.3065 7.71264C10.2689 7.80376 10.2497 7.90143 10.25 8C10.2497 8.09857 10.2689 8.19624 10.3065 8.28736C10.3441 8.37849 10.3993 8.46129 10.469 8.53099C10.5387 8.6007 10.6215 8.65593 10.7126 8.69351C10.8038 8.7311 10.9014 8.7503 11 8.75C11.0986 8.7503 11.1962 8.7311 11.2874 8.69351C11.3785 8.65593 11.4613 8.6007 11.531 8.53099C11.6007 8.46129 11.6559 8.37849 11.6935 8.28736C11.7311 8.19624 11.7503 8.09857 11.75 8C11.7503 7.90143 11.7311 7.80376 11.6935 7.71264C11.6559 7.62151 11.6007 7.53871 11.531 7.46901C11.4613 7.3993 11.3785 7.34407 11.2874 7.30649C11.1962 7.2689 11.0986 7.2497 11 7.25Z" fill="#6D7175"/>
</svg>
