<svg width="16" height="16" viewBox="0 0 16 16" fill="none" xmlns="http://www.w3.org/2000/svg">
<path d="M9.32546 7.99984L15.2251 2.10017C15.4009 1.92438 15.4997 1.68596 15.4997 1.43736C15.4997 1.18875 15.4009 0.950333 15.2251 0.774545C15.0493 0.598757 14.8109 0.5 14.5623 0.5C14.3137 0.5 14.0753 0.598757 13.8995 0.774545L7.99984 6.67421L2.10017 0.774545C2.01312 0.687504 1.90979 0.618459 1.79607 0.571352C1.68234 0.524246 1.56045 0.5 1.43736 0.5C1.31426 0.5 1.19237 0.524246 1.07865 0.571352C0.96492 0.618459 0.861587 0.687504 0.774545 0.774545C0.598757 0.950333 0.5 1.18875 0.5 1.43736C0.5 1.68596 0.598757 1.92438 0.774545 2.10017L6.67421 7.99984L0.774545 13.8995C0.598757 14.0753 0.5 14.3137 0.5 14.5623C0.5 14.8109 0.598757 15.0493 0.774545 15.2251C0.950333 15.4009 1.18875 15.4997 1.43736 15.4997C1.68596 15.4997 1.92438 15.4009 2.10017 15.2251L7.99984 9.32546L13.8995 15.2251C13.9864 15.3125 14.0896 15.3818 14.2034 15.4291C14.3171 15.4764 14.4391 15.5008 14.5623 15.5008C14.6855 15.5008 14.8075 15.4764 14.9212 15.4291C15.035 15.3818 15.1383 15.3125 15.2251 15.2251C15.3123 15.1381 15.3814 15.0348 15.4286 14.9211C15.4757 14.8074 15.5 14.6854 15.5 14.5623C15.5 14.4392 15.4757 14.3173 15.4286 14.2035C15.3814 14.0898 15.3123 13.9865 15.2251 13.8995L9.32546 7.99984Z" fill="#6D7175"/>
</svg>
