<svg width="16" height="16" viewBox="0 0 16 16" fill="none" xmlns="http://www.w3.org/2000/svg">
<g clip-path="url(#clip0_16565_43534)">
<path fill-rule="evenodd" clip-rule="evenodd" d="M16 8C16 12.4155 12.4227 15.9955 8.00828 16L7.99036 16C3.57651 15.9948 0 12.4151 0 8C0 3.58172 3.58172 0 8 0C12.4183 0 16 3.58172 16 8ZM2.45621 4.8C3.21312 3.49151 4.42 2.47588 5.86526 1.96467C5.82168 2.0269 5.77801 2.09076 5.73436 2.15624C5.26967 2.85328 4.8064 3.73512 4.47571 4.8H2.45621ZM1.80163 6.4C1.67 6.91139 1.6 7.44752 1.6 8C1.6 8.55248 1.67 9.08861 1.80163 9.6H4.11416C4.04102 9.0969 4 8.56352 4 8C4 7.43648 4.04102 6.9031 4.11416 6.4H1.80163ZM5.73412 6.4C5.64894 6.8959 5.6 7.42917 5.6 8C5.6 8.57083 5.64894 9.1041 5.73412 9.6H10.2659C10.3511 9.1041 10.4 8.57083 10.4 8C10.4 7.42917 10.3511 6.8959 10.2659 6.4H5.73412ZM11.8858 6.4C11.959 6.9031 12 7.43648 12 8C12 8.56352 11.959 9.0969 11.8858 9.6H14.1984C14.33 9.08861 14.4 8.55248 14.4 8C14.4 7.44752 14.33 6.91139 14.1984 6.4H11.8858ZM13.5438 4.8H11.5243C11.1936 3.73512 10.7303 2.85328 10.2656 2.15624C10.222 2.09076 10.1783 2.0269 10.1347 1.96467C11.58 2.47588 12.7869 3.49151 13.5438 4.8ZM9.83381 4.8H6.16619C6.42563 4.10814 6.74611 3.52305 7.06564 3.04376C7.40283 2.53797 7.73881 2.15054 8 1.88226C8.26119 2.15054 8.59717 2.53797 8.93436 3.04376C9.25389 3.52305 9.57437 4.10814 9.83381 4.8ZM8.93436 12.9562C9.25389 12.4769 9.57437 11.8919 9.83381 11.2H6.16619C6.42563 11.8919 6.74611 12.4769 7.06564 12.9562C7.40283 13.462 7.73881 13.8495 8 14.1177C8.26119 13.8495 8.59717 13.462 8.93436 12.9562ZM2.45621 11.2H4.47571C4.8064 12.2649 5.26967 13.1467 5.73436 13.8438C5.77801 13.9092 5.82168 13.9731 5.86526 14.0353C4.42 13.5241 3.21313 12.5085 2.45621 11.2ZM10.2656 13.8438C10.222 13.9092 10.1783 13.9731 10.1347 14.0353C11.58 13.5241 12.7869 12.5085 13.5438 11.2H11.5243C11.1936 12.2649 10.7303 13.1467 10.2656 13.8438Z" fill="#6D7175"/>
</g>
<defs>
<clipPath id="clip0_16565_43534">
<rect width="16" height="16" fill="white"/>
</clipPath>
</defs>
</svg>
