<svg width="16" height="16" viewBox="0 0 16 16" fill="none" xmlns="http://www.w3.org/2000/svg">
<path d="M15.6502 1.4375C15.6502 0.919733 15.2221 0.5 14.694 0.5H1.30598C0.777844 0.5 0.349701 0.919733 0.349701 1.4375V14.5625C0.349701 15.0803 0.777844 15.5 1.30598 15.5H6.26623L6.26623 15.4983C6.28282 15.4994 6.29957 15.5 6.31645 15.5C6.71298 15.5 7.03442 15.1849 7.03442 14.7961C7.03442 14.4074 6.71298 14.0923 6.31645 14.0923C6.29946 14.0923 6.28261 14.0928 6.26591 14.094L1.78413 14.0938V1.90625H14.2158L14.215 6.372L14.2167 6.372C14.235 6.74434 14.5487 7.04071 14.933 7.04071C15.3172 7.04071 15.6308 6.74459 15.6494 6.37247L15.6502 6.33759V1.4375Z" fill="#6D7175"/>
<path d="M8.48248 9.31611C8.48248 8.92779 8.16137 8.61299 7.76526 8.61299H4.41543C4.01932 8.61299 3.69822 8.92779 3.69822 9.31611C3.69822 9.70444 4.01932 10.0192 4.41543 10.0192H7.76526C8.16137 10.0192 8.48248 9.70444 8.48248 9.31611Z" fill="#6D7175"/>
<path d="M11.3485 5.39453C11.3485 5.00621 11.0274 4.69141 10.6313 4.69141H4.41543C4.01932 4.69141 3.69822 5.00621 3.69822 5.39453C3.69822 5.78286 4.01932 6.09766 4.41543 6.09766H10.6313C11.0274 6.09766 11.3485 5.78286 11.3485 5.39453Z" fill="#6D7175"/>
<path d="M9.56756 13.038C9.45471 13.1534 9.38291 13.2265 9.35213 13.2572C9.28033 13.3291 9.22519 13.3945 9.18672 13.4534C9.14825 13.5124 9.11363 13.5778 9.08286 13.6496C9.05721 13.6958 9.02387 13.7804 8.98284 13.9035C8.94181 14.0266 8.89949 14.1613 8.85589 14.3074C8.8123 14.4536 8.77127 14.5947 8.7328 14.7306C8.69433 14.8665 8.66997 14.9704 8.65971 15.0422C8.63919 15.1755 8.65201 15.2704 8.69818 15.3268C8.74434 15.3833 8.83666 15.4038 8.97515 15.3884C9.04182 15.3781 9.14312 15.355 9.27904 15.3191C9.41496 15.2832 9.55858 15.2409 9.70989 15.1922C9.8612 15.1435 10.0061 15.0935 10.1446 15.0422C10.2831 14.9909 10.3882 14.9473 10.46 14.9114C10.5318 14.8806 10.6011 14.8396 10.6677 14.7883C10.7344 14.737 10.7934 14.6883 10.8447 14.6421C10.8652 14.6267 10.9293 14.5652 11.037 14.4575C11.1447 14.3497 11.2807 14.2125 11.4448 14.0458C11.6089 13.8792 11.7936 13.6958 11.9987 13.4958L12.6142 12.8726L14.9109 10.6372C15.3176 10.2413 15.322 9.58931 14.9207 9.188C14.5273 8.79465 13.8911 8.78994 13.4919 9.17741L11.1755 11.4262L9.9907 12.611C9.82144 12.7802 9.6804 12.9226 9.56756 13.038Z" fill="#6D7175"/>
</svg>
