<svg width="16" height="16" viewBox="0 0 16 16" fill="none" xmlns="http://www.w3.org/2000/svg">
<path d="M10.0433 6.34789C10.1409 6.23494 10.2685 6.15211 10.4412 6.10693V7.31928C10.2535 7.25151 10.1184 7.16867 10.0283 7.06325C9.93819 6.95783 9.89315 6.83735 9.89315 6.71687C9.89315 6.58133 9.9457 6.46084 10.0433 6.34789Z" fill="#6D7175"/>
<path d="M11.5974 9.57078C11.4622 9.6988 11.2895 9.78163 11.0718 9.81928H11.0643V8.45633C11.3271 8.5241 11.5148 8.60693 11.6274 8.71988C11.74 8.83283 11.8001 8.96084 11.8001 9.11898C11.8001 9.29217 11.7325 9.44277 11.5974 9.57078Z" fill="#6D7175"/>
<path fill-rule="evenodd" clip-rule="evenodd" d="M8 16C12.4183 16 16 12.4183 16 8C16 3.58172 12.4183 0 8 0C3.58172 0 0 3.58172 0 8C0 12.4183 3.58172 16 8 16ZM10.4412 8.30572V9.76657C10.291 9.70633 10.1484 9.60843 10.0208 9.48795C9.90066 9.35241 9.81057 9.19428 9.76552 9.00603L8.6469 9.11145C8.72949 9.56325 8.92468 9.91717 9.24 10.1657C9.55531 10.4142 9.95321 10.5648 10.4487 10.6099V11.25H11.0718V10.6024C11.6349 10.5271 12.0703 10.3464 12.3856 10.0602C12.701 9.7741 12.8586 9.42018 12.8586 8.99849C12.8586 8.62199 12.731 8.31325 12.4832 8.07229C12.2355 7.83133 11.7625 7.63554 11.0718 7.48494V6.12199C11.3496 6.21988 11.5223 6.40813 11.5898 6.67922L12.6784 6.55873C12.6034 6.21235 12.4307 5.93373 12.1604 5.72289C11.8901 5.51958 11.5223 5.39157 11.0643 5.34639V5H10.4412V5.34639C9.95321 5.38404 9.55531 5.53464 9.26252 5.79066C8.96973 6.05422 8.81958 6.37048 8.81958 6.75452C8.81958 7.13102 8.9472 7.45482 9.20997 7.71837C9.47273 7.98193 9.87813 8.17771 10.4412 8.30572ZM4.78654 8.69277H3.36012V9.18223H4.78654V10.5151H5.90516V9.18223H7.53429V8.69277H5.90516V8.27109H7.53429V7.78163H6.16042L7.6469 5.5H6.53579L5.33459 7.34488L4.11837 5.5H2.99976L4.50126 7.78163H3.36012V8.27109H4.78654V8.69277Z" fill="#6D7175"/>
</svg>
