<svg width="16" height="16" viewBox="0 0 16 16" fill="none" xmlns="http://www.w3.org/2000/svg">
<path d="M9.76519 6.4337L8.96961 5.63812L9.71547 4.89227L11.1077 6.28453L6.33425 11.058L4.94199 9.66575L5.63812 8.96961L6.4337 9.76519L6.78177 9.41713L5.98619 8.62155L6.6326 7.97514L7.42818 8.77072L7.77624 8.42265L6.98066 7.62707L7.62707 6.98066L8.42265 7.77624L8.77072 7.42818L7.97514 6.6326L8.62155 5.98619L9.41713 6.78177L9.76519 6.4337Z" fill="#6D7175"/>
<path fill-rule="evenodd" clip-rule="evenodd" d="M8 16C12.4183 16 16 12.4183 16 8C16 3.58172 12.4183 0 8 0C3.58172 0 0 3.58172 0 8C0 12.4183 3.58172 16 8 16ZM12.5 6.33425L9.66575 3.5L3.5 9.66575L6.33425 12.5L12.5 6.33425Z" fill="#6D7175"/>
</svg>
