<svg width="16" height="16" viewBox="0 0 16 16" fill="none" xmlns="http://www.w3.org/2000/svg">
<path d="M1.00143 14.3147C1.01255 14.4914 1.08777 14.658 1.21299 14.7833C1.34937 14.9196 1.53432 14.9962 1.72717 14.9962C1.92002 14.9962 2.10497 14.9196 2.24135 14.7833L6.1117 10.9144L6.11097 14.2518L6.11607 14.3362C6.13795 14.5202 6.22925 14.6889 6.37132 14.8079C6.51339 14.9269 6.69551 14.9871 6.88051 14.9763C7.0655 14.9656 7.23941 14.8846 7.36671 14.7499C7.49402 14.6153 7.56513 14.4371 7.56552 14.2518V9.158L7.56116 9.07291L7.53934 8.96382L7.51388 8.88745L7.47461 8.80454L7.42297 8.72454C7.40148 8.6957 7.37791 8.66848 7.35243 8.64309L7.28697 8.58491L7.21716 8.53618L7.14588 8.49836L7.06516 8.46636L6.98443 8.44454L6.89279 8.43218L6.83825 8.43H1.76406L1.6797 8.43509C1.50266 8.45577 1.33938 8.54074 1.22086 8.67387C1.10234 8.80701 1.03684 8.97903 1.03679 9.15727L1.04188 9.24236C1.06272 9.41927 1.14777 9.58238 1.28089 9.70075C1.414 9.81912 1.58593 9.88452 1.76406 9.88455L5.08188 9.88527L1.21299 13.7549L1.15263 13.8233C1.04408 13.9632 0.990321 14.1379 1.00143 14.3147Z" fill="#6D7175"/>
<path d="M14.2415 7.56467H9.16727L9.11273 7.56249L9.02109 7.55013L8.94036 7.52831L8.85964 7.49631L8.78836 7.45849L8.71854 7.40976L8.65309 7.35158C8.62691 7.32613 8.60364 7.29849 8.58254 7.27013L8.53091 7.19013L8.49164 7.10722L8.46618 7.03085L8.44436 6.92176L8.44 6.8374V1.74358C8.44039 1.55827 8.5115 1.38011 8.6388 1.24545C8.76611 1.1108 8.94002 1.02983 9.12501 1.01906C9.31001 1.00829 9.49213 1.06855 9.6342 1.18752C9.77627 1.30649 9.86757 1.47521 9.88945 1.65922L9.89454 1.74358V5.08176L13.7642 1.21214C13.895 1.08171 14.0707 1.00598 14.2554 1.00034C14.44 0.994699 14.62 1.05957 14.7585 1.18178C14.8971 1.30398 14.984 1.47436 15.0015 1.6583C15.0191 1.84225 14.9659 2.02597 14.8529 2.17214L14.7925 2.2405L10.9244 6.11013H14.2407C14.419 6.10997 14.5911 6.17529 14.7244 6.29368C14.8576 6.41206 14.9428 6.57527 14.9636 6.75231L14.9687 6.8374C14.9687 7.01564 14.9032 7.18767 14.7847 7.3208C14.6661 7.45393 14.5029 7.5389 14.3258 7.55958L14.2415 7.56467Z" fill="#6D7175"/>
</svg>
