<svg width="16" height="16" viewBox="0 0 16 16" fill="none" xmlns="http://www.w3.org/2000/svg">
<path fill-rule="evenodd" clip-rule="evenodd" d="M13.248 3.648L9.95199 0.352C9.72717 0.126892 9.42215 0.000280083 9.10399 0L3.59999 0C3.28173 0 2.97651 0.126428 2.75147 0.351472C2.52642 0.576515 2.39999 0.88174 2.39999 1.2V14.8C2.39999 15.1183 2.52642 15.4235 2.75147 15.6485C2.97651 15.8736 3.28173 16 3.59999 16H12C12.4243 16 12.8313 15.8314 13.1314 15.5314C13.4314 15.2313 13.6 14.8243 13.6 14.4V4.496C13.5997 4.17785 13.4731 3.87283 13.248 3.648ZM6.71999 5.6C5.91999 5.6 5.19999 6.32 5.19999 7.2C5.19999 8.96 6.23999 10.32 7.99999 11.2C9.75999 10.32 10.8 8.96 10.8 7.28V7.12C10.8 6.32 10.08 5.6 9.27999 5.6C8.47999 5.6 7.99999 6.5336 7.99999 6.5336C7.99999 6.5336 7.51999 5.6 6.71999 5.6Z" fill="#6D7175"/>
</svg>
