<svg width="16" height="16" viewBox="0 0 16 16" fill="none" xmlns="http://www.w3.org/2000/svg">
<g clip-path="url(#clip0_16565_43484)">
<path d="M2.73226 0.151008C2.99165 -0.0359494 3.33745 -0.0504994 3.61163 0.114007L15.6116 7.31401C15.8526 7.45859 16 7.71899 16 8C16 8.28101 15.8526 8.54142 15.6116 8.686L3.61163 15.886C3.33745 16.0505 2.99165 16.036 2.73226 15.849C2.47287 15.662 2.34972 15.3386 2.41908 15.0265L3.80274 8.8L7.99999 8.8C8.44182 8.8 8.79999 8.44183 8.79999 8C8.79999 7.55817 8.44182 7.2 7.99999 7.2L3.80274 7.2L2.41908 0.973546C2.34972 0.661417 2.47287 0.337965 2.73226 0.151008Z" fill="#6D7175"/>
</g>
<defs>
<clipPath id="clip0_16565_43484">
<rect width="16" height="16" fill="white"/>
</clipPath>
</defs>
</svg>
