<svg width="16" height="16" viewBox="0 0 16 16" fill="none" xmlns="http://www.w3.org/2000/svg">
<path fill-rule="evenodd" clip-rule="evenodd" d="M8.00007 0.800003C4.00052 0.800003 0.800049 4.00029 0.800049 7.99994C0.800049 11.9996 4.0005 15.1999 8.00007 15.1999C8.6411 15.1999 9.20006 14.6385 9.20006 13.9999C9.20006 13.6787 9.12043 13.4385 8.88137 13.1996C8.7195 12.9593 8.56024 12.719 8.56024 12.4003C8.56024 11.7593 9.12043 11.2003 9.76024 11.2003H11.2004C13.4411 11.2003 15.2 9.44013 15.2 7.19957C15.2001 3.67928 12.0008 0.800003 8.00007 0.800003ZM3.60086 7.99994C2.95998 7.99994 2.401 7.43863 2.401 6.79996C2.401 6.16014 2.95996 5.60003 3.60086 5.60003C4.24084 5.60003 4.80085 6.16014 4.80085 6.79996C4.80087 7.43863 4.24087 7.99994 3.60086 7.99994ZM4.8008 3.59955C4.8008 4.23937 5.35976 4.79955 6.00078 4.79955C6.64062 4.79955 7.20081 4.23937 7.20079 3.59955C7.20079 2.95975 6.6406 2.39956 6.00078 2.39956C5.35976 2.39956 4.8008 2.95975 4.8008 3.59955ZM10.0005 4.79955C9.36047 4.79955 8.80047 4.23937 8.80047 3.59955C8.80047 2.95975 9.36047 2.39956 10.0005 2.39956C10.6403 2.39956 11.2003 2.95975 11.2003 3.59955C11.2003 4.23937 10.6403 4.79955 10.0005 4.79955ZM11.2004 6.79996C11.2004 7.43863 11.7606 7.99994 12.4004 7.99994C13.0404 7.99994 13.6004 7.43863 13.6004 6.79996C13.6004 6.16014 13.0404 5.60003 12.4004 5.60003C11.7606 5.60003 11.2004 6.16014 11.2004 6.79996Z" fill="#6D7175"/>
</svg>
