<svg width="16" height="16" viewBox="0 0 16 16" fill="none" xmlns="http://www.w3.org/2000/svg">
<path d="M0 2.5C0 2.10218 0.158035 1.72064 0.43934 1.43934C0.720644 1.15804 1.10218 1 1.5 1H14.5C14.8978 1 15.2794 1.15804 15.5607 1.43934C15.842 1.72064 16 2.10218 16 2.5V7.45L11.986 4.86C10.276 3.756 8.033 5.05 8.133 7.084L8.278 10H1.5C1.10218 10 0.720644 9.84196 0.43934 9.56066C0.158035 9.27936 0 8.89782 0 8.5V2.5Z" fill="#6D7175"/>
<path d="M10.131 6.999C10.1265 6.90721 10.1473 6.81595 10.1913 6.73525C10.2353 6.65455 10.3006 6.58752 10.3802 6.54154C10.4598 6.49555 10.5505 6.47239 10.6423 6.47458C10.7342 6.47678 10.8237 6.50426 10.901 6.554L15.77 9.696C15.8419 9.74245 15.9008 9.80661 15.9408 9.88232C15.9808 9.95803 16.0008 10.0428 15.9987 10.1284C15.9966 10.214 15.9725 10.2977 15.9288 10.3713C15.885 10.445 15.8231 10.5061 15.749 10.549L14.324 11.372L15.553 13.5C15.6197 13.6138 15.6632 13.7396 15.6811 13.8703C15.6989 14.0009 15.6908 14.1338 15.6571 14.2613C15.6234 14.3888 15.5648 14.5084 15.4847 14.6132C15.4046 14.7179 15.3045 14.8058 15.1903 14.8718C15.0761 14.9377 14.95 14.9804 14.8192 14.9974C14.6884 15.0144 14.5556 15.0054 14.4283 14.9708C14.301 14.9363 14.1818 14.8769 14.0776 14.7961C13.9734 14.7153 13.8862 14.6146 13.821 14.5L12.591 12.372L11.167 13.194C11.0928 13.237 11.0088 13.2601 10.9231 13.2613C10.8373 13.2624 10.7527 13.2415 10.6774 13.2006C10.6021 13.1596 10.5386 13.0999 10.493 13.0273C10.4474 12.9547 10.4212 12.8716 10.417 12.786L10.131 6.999Z" fill="#6D7175"/>
</svg>
