<svg width="16" height="16" viewBox="0 0 16 16" fill="none" xmlns="http://www.w3.org/2000/svg">
<g clip-path="url(#clip0_16565_43557)">
<path fill-rule="evenodd" clip-rule="evenodd" d="M2.7 8.5V12.7998H5.56449V12.0707C5.56449 11.8559 5.74337 11.6622 5.95815 11.6622H14.9401C15.1885 11.6622 15.3956 11.8831 15.3956 12.1315V14.7933C15.3956 15.008 15.2156 15.1644 15.0009 15.1644H6.01893C5.77052 15.1644 5.56449 14.9809 5.56449 14.7325V14H2.7H2.15116H1.5V4.37332H1.06001C0.811621 4.37332 0.604492 4.18794 0.604492 3.93956V1.2778C0.604492 1.06299 0.784439 0.8711 0.999248 0.8711H3.66101C3.90942 0.8711 4.12449 1.09019 4.12447 1.33858V2H5.56449V1.2778C5.56449 1.06299 5.74337 0.8711 5.95815 0.8711L12.6893 0.871094C12.9377 0.871094 13.1332 1.09019 13.1332 1.33858V4.00034C13.1332 4.21515 12.9648 4.37332 12.75 4.37332H6.01893C5.77052 4.37332 5.56449 4.18794 5.56449 3.93956V3.2H4.12447V4.00034C4.12447 4.21515 3.93656 4.37332 3.72177 4.37332H2.7V7.29794H5.56449V6.62564C5.56449 6.41083 5.74337 6.20443 5.95815 6.20443H11.5369C11.7853 6.20443 12 6.43803 12.0001 6.68641V9.34819C12.0001 9.56296 11.8125 9.72443 11.5977 9.72443H6.01893C5.77052 9.72443 5.56449 9.53581 5.56449 9.2874V8.5H2.7Z" fill="#6D7175"/>
</g>
<defs>
<clipPath id="clip0_16565_43557">
<rect width="16" height="16" fill="white"/>
</clipPath>
</defs>
</svg>
