<svg width="16" height="16" viewBox="0 0 16 16" fill="none" xmlns="http://www.w3.org/2000/svg">
<g clip-path="url(#clip0_16565_43532)">
<path fill-rule="evenodd" clip-rule="evenodd" d="M0.799988 0.8C0.799988 0.3584 1.15999 0 1.60319 0H2.80719C3.47199 0 4.01119 0.5376 4.01119 1.2V1.648L14.0704 2.3744C14.772 2.4184 15.2864 3.0488 15.188 3.7424L14.4952 8.5696C14.4536 8.85585 14.3104 9.11756 14.0916 9.30679C13.8728 9.49602 13.5932 9.60011 13.304 9.6H4.01119V11.2H12.0456C12.3614 11.1994 12.6741 11.261 12.9661 11.3812C13.2581 11.5015 13.5235 11.6781 13.7472 11.901C13.9708 12.1239 14.1484 12.3886 14.2698 12.6801C14.3911 12.9717 14.4539 13.2842 14.4544 13.6C14.4544 14.9256 13.376 16 12.0464 16C11.662 16.0006 11.283 15.909 10.9413 15.7328C10.5996 15.5567 10.3051 15.3012 10.0826 14.9877C9.86005 14.6743 9.71591 14.312 9.66229 13.9314C9.60866 13.5507 9.6471 13.1627 9.77439 12.8H5.47999C5.60728 13.1627 5.64572 13.5507 5.59209 13.9314C5.53846 14.312 5.39433 14.6743 5.17178 14.9877C4.94923 15.3012 4.65475 15.5567 4.31306 15.7328C3.97136 15.909 3.59241 16.0006 3.20799 16C2.89229 16.0005 2.57958 15.9389 2.28771 15.8185C1.99584 15.6982 1.73053 15.5216 1.50693 15.2987C1.28333 15.0759 1.10581 14.8111 0.984511 14.5197C0.863214 14.2282 0.800513 13.9157 0.799988 13.6C0.799988 12.5552 1.47039 11.6656 2.40559 11.336V1.6H1.60319C1.49792 1.60021 1.39364 1.57968 1.29631 1.53959C1.19897 1.4995 1.11049 1.44064 1.0359 1.36635C0.961318 1.29206 0.902096 1.20381 0.861618 1.10664C0.82114 1.00946 0.800198 0.905268 0.799988 0.8ZM11.2432 13.6C11.2432 13.1584 11.6024 12.8 12.0456 12.8C12.4888 12.8 12.8488 13.1584 12.8488 13.6C12.8488 14.0416 12.4888 14.4 12.0456 14.4C11.8331 14.4002 11.6293 14.3161 11.4788 14.1661C11.3284 14.0161 11.2436 13.8125 11.2432 13.6ZM2.40559 13.6C2.40559 13.1584 2.76559 12.8 3.20879 12.8C3.65199 12.8 4.01119 13.1584 4.01119 13.6C4.01119 14.0416 3.65199 14.4 3.20879 14.4C3.10352 14.4002 2.99924 14.3797 2.90191 14.3396C2.80457 14.2995 2.71609 14.2406 2.6415 14.1663C2.56692 14.0921 2.5077 14.0038 2.46722 13.9066C2.42674 13.8095 2.4058 13.7053 2.40559 13.6Z" fill="#6D7175"/>
</g>
<defs>
<clipPath id="clip0_16565_43532">
<rect width="16" height="16" fill="white"/>
</clipPath>
</defs>
</svg>
