<svg width="16" height="16" viewBox="0 0 16 16" fill="none" xmlns="http://www.w3.org/2000/svg">
<g clip-path="url(#clip0_16565_43559)">
<path d="M8.8 0.800004H13.6C14.0243 0.800004 14.4313 0.968575 14.7314 1.26863C15.0314 1.56869 15.2 1.97566 15.2 2.4V7.2C15.2 7.4712 15.2 8 14 8H12.8C11.527 8 10.3061 8.50572 9.40589 9.40589C8.50571 10.3061 8 11.527 8 12.8V14.4C8 15.336 7.272 15.3712 6.4 15.064C6.06242 14.9447 5.75594 14.7512 5.5032 14.4976L1.5032 10.4976C1.28029 10.2747 1.10347 10.0101 0.982838 9.71894C0.862201 9.42773 0.80011 9.11561 0.80011 8.8004C0.80011 8.4852 0.862201 8.17308 0.982838 7.88187C1.10347 7.59066 1.28029 7.32607 1.5032 7.1032L7.1032 1.5032C7.32577 1.28001 7.59025 1.10299 7.88144 0.982311C8.17263 0.861634 8.48479 0.799679 8.8 0.800004ZM11.2 6.4C11.6243 6.4 12.0313 6.23143 12.3314 5.93138C12.6314 5.63132 12.8 5.22435 12.8 4.8C12.8 4.37566 12.6314 3.96869 12.3314 3.66863C12.0313 3.36858 11.6243 3.2 11.2 3.2C10.7757 3.2 10.3687 3.36858 10.0686 3.66863C9.76857 3.96869 9.6 4.37566 9.6 4.8C9.6 5.22435 9.76857 5.63132 10.0686 5.93138C10.3687 6.23143 10.7757 6.4 11.2 6.4ZM15.2 12C15.4122 12 15.6157 12.0843 15.7657 12.2343C15.9157 12.3843 16 12.5878 16 12.8C16 13.0122 15.9157 13.2157 15.7657 13.3657C15.6157 13.5157 15.4122 13.6 15.2 13.6H13.6V15.2C13.6 15.4122 13.5157 15.6157 13.3657 15.7657C13.2157 15.9157 13.0122 16 12.8 16C12.5878 16 12.3843 15.9157 12.2343 15.7657C12.0843 15.6157 12 15.4122 12 15.2V13.6H10.4C10.1878 13.6 9.98434 13.5157 9.83431 13.3657C9.68428 13.2157 9.6 13.0122 9.6 12.8C9.6 12.5878 9.68428 12.3843 9.83431 12.2343C9.98434 12.0843 10.1878 12 10.4 12H12V10.4C12 10.1878 12.0843 9.98435 12.2343 9.83432C12.3843 9.68429 12.5878 9.60001 12.8 9.60001C13.0122 9.60001 13.2157 9.68429 13.3657 9.83432C13.5157 9.98435 13.6 10.1878 13.6 10.4V12H15.2Z" fill="#6D7175"/>
</g>
<defs>
<clipPath id="clip0_16565_43559">
<rect width="16" height="16" fill="white"/>
</clipPath>
</defs>
</svg>
