<svg width="16" height="16" viewBox="0 0 16 16" fill="none" xmlns="http://www.w3.org/2000/svg">
<g clip-path="url(#clip0_16565_43573)">
<path fill-rule="evenodd" clip-rule="evenodd" d="M4 3.59999C4 3.01039 4.552 2.39999 5.416 2.39999C6.2544 2.39999 7.2 3.09599 7.2 4.26639V4.79999H6.5232C5.8792 4.79999 5.1984 4.79119 4.6784 4.59999C4.4368 4.51039 4.28 4.39759 4.1816 4.26959C4.0896 4.14959 4 3.95199 4 3.59999ZM9.4768 4.79999H8.8V4.26639C8.8 3.09599 9.7448 2.39999 10.584 2.39999C11.448 2.39999 12 3.01039 12 3.59999C12 3.95199 11.9104 4.14879 11.8184 4.26959C11.72 4.39759 11.5632 4.50959 11.3216 4.59919C10.8016 4.79119 10.1216 4.79999 9.4768 4.79999ZM13.6 3.59999C13.6 4.04639 13.5176 4.44799 13.3552 4.79999H14.8C15.1183 4.79999 15.4235 4.92642 15.6485 5.15146C15.8736 5.3765 16 5.68173 16 5.99999V7.99999H0V5.99999C0 5.68173 0.126428 5.3765 0.351472 5.15146C0.576515 4.92642 0.88174 4.79999 1.2 4.79999H2.6448C2.47682 4.42258 2.39328 4.01304 2.4 3.59999C2.4 1.97599 3.8264 0.799988 5.416 0.799988C6.348 0.799988 7.3344 1.23679 8 2.02319C8.6656 1.23679 9.652 0.799988 10.584 0.799988C12.1744 0.799988 13.6 1.97599 13.6 3.59999ZM7.2 16V9.59999H0.8V14.8C0.8 15.464 1.336 16 2 16H7.2ZM8.8 16V9.59999H15.2V14.8C15.2 15.464 14.664 16 14 16H8.8Z" fill="#6D7175"/>
</g>
<defs>
<clipPath id="clip0_16565_43573">
<rect width="16" height="16" fill="white"/>
</clipPath>
</defs>
</svg>
