<svg width="16" height="16" viewBox="0 0 16 16" fill="none" xmlns="http://www.w3.org/2000/svg">
<path fill-rule="evenodd" clip-rule="evenodd" d="M8.65018 8.08715L7.2648 9.12597L5.36242 7.60413C5.02004 7.33014 4.54399 7.30899 4.17899 7.55462L2.5 8.68358V2.49999H13V9.07451C13 9.48867 13.3358 9.82451 13.75 9.82451C14.1642 9.82451 14.5 9.48867 14.5 9.07451V2.20796C14.5 1.54161 13.9584 0.999995 13.292 0.999995H2.20797C1.54162 0.999995 1 1.54161 1 2.20796V12.6165C1 13.2829 1.54162 13.8245 2.20797 13.8245H9.75C10.1642 13.8245 10.5 13.4887 10.5 13.0745C10.5 12.6603 10.1642 12.3245 9.75 12.3245H2.5V10.4914L4.71155 9.00439L7.23539 11.0232L8.85526 9.80812L9.25002 9.51201L10.6997 10.5992C11.0324 10.8491 11.5022 10.78 11.7498 10.4492C11.9981 10.1179 11.9311 9.64782 11.5996 9.39932L9.84994 8.08712C9.49592 7.82176 9.0042 7.82179 8.65018 8.08715ZM14.75 11.8245H14V11.0745C14 10.6603 13.6642 10.3245 13.25 10.3245C12.8358 10.3245 12.5 10.6603 12.5 11.0745V11.8245H11.75C11.3358 11.8245 11 12.1603 11 12.5745C11 12.9887 11.3358 13.3245 11.75 13.3245H12.5V14.0745C12.5 14.4887 12.8358 14.8245 13.25 14.8245C13.6642 14.8245 14 14.4887 14 14.0745V13.3245H14.75C15.1642 13.3245 15.5 12.9887 15.5 12.5745C15.5 12.1603 15.1642 11.8245 14.75 11.8245ZM10.5242 6.07185C11.1044 6.07185 11.5748 5.60149 11.5748 5.02127C11.5748 4.44106 11.1044 3.9707 10.5242 3.9707C9.94399 3.9707 9.47363 4.44106 9.47363 5.02127C9.47363 5.60149 9.94399 6.07185 10.5242 6.07185Z" fill="#6D7175"/>
</svg>
