<svg width="16" height="16" viewBox="0 0 16 16" fill="none" xmlns="http://www.w3.org/2000/svg">
<path d="M4.40736 1.50091C5.17872 1.50091 5.91848 1.80733 6.46391 2.35276C7.00934 2.89819 7.31576 3.63796 7.31576 4.40931V7.3168H4.40828C3.63696 7.31674 2.89725 7.0103 2.35187 6.46487C1.80648 5.91945 1.50009 5.17972 1.50009 4.4084C1.50009 3.63708 1.80648 2.89735 2.35187 2.35193C2.89725 1.8065 3.63696 1.50006 4.40828 1.5L4.40736 1.50091ZM4.40736 8.68525H7.31485V11.5927C7.31455 12.1679 7.14385 12.73 6.82431 13.2082C6.50477 13.6864 6.0507 14.0591 5.51945 14.2794C4.98808 14.4985 4.40375 14.5553 3.84014 14.4427C3.27654 14.3301 2.75889 14.0531 2.35248 13.6467C1.94608 13.2403 1.66911 12.7226 1.5565 12.159C1.44389 11.5954 1.50069 11.0111 1.71974 10.4797C1.94005 9.94848 2.31283 9.49442 2.79101 9.17487C3.26919 8.85533 3.83133 8.68463 4.40645 8.68433L4.40736 8.68525ZM11.5917 1.50091C12.363 1.50097 13.1027 1.80741 13.6481 2.35284C14.1935 2.89826 14.4999 3.63799 14.4999 4.40931C14.4999 5.18063 14.1935 5.92036 13.6481 6.46579C13.1027 7.01121 12.363 7.31766 11.5917 7.31771H8.68421V4.41022C8.68421 3.63887 8.99063 2.89911 9.53606 2.35368C10.0815 1.80824 10.8213 1.50182 11.5926 1.50182L11.5917 1.50091ZM8.6833 8.68525H11.5908C12.1659 8.68554 12.728 8.85624 13.2062 9.17579C13.6844 9.49533 14.0572 9.94939 14.2775 10.4806C14.4965 11.012 14.5533 11.5963 14.4407 12.16C14.3281 12.7236 14.0512 13.2412 13.6448 13.6476C13.2383 14.054 12.7207 14.331 12.1571 14.4436C11.5935 14.5562 11.0092 14.4994 10.4778 14.2804C9.94653 14.06 9.49247 13.6873 9.17293 13.2091C8.85338 12.7309 8.68268 12.1688 8.68238 11.5936V8.68616L8.6833 8.68525Z" fill="#6D7175"/>
</svg>
