<svg width="16" height="16" viewBox="0 0 16 16" fill="none" xmlns="http://www.w3.org/2000/svg">
<path fill-rule="evenodd" clip-rule="evenodd" d="M1.1062 5.53912C1.1062 5.23189 1.10728 4.92458 1.10836 4.61723C1.11101 3.86056 1.11366 3.10368 1.10025 2.3473C1.09231 1.88322 1.27891 1.63923 1.72558 1.52868C2.68225 1.29251 3.63802 1.05205 4.59375 0.811604C5.64504 0.547113 6.69628 0.282635 7.7486 0.0238958C7.93124 -0.0209192 8.14663 0.00298209 8.33423 0.0487929C10.2697 0.522812 12.2034 1.00585 14.1368 1.48883C14.8118 1.65813 14.8982 1.77267 14.8982 2.47577L14.899 3.6234C14.9001 5.15267 14.9012 6.68156 14.8972 8.21109C14.8913 10.3493 14.0446 12.0731 12.3979 13.4345C11.171 14.4493 9.91046 15.3984 8.39577 15.9342C8.16152 16.0169 7.84488 16.0258 7.61758 15.9372C5.57285 15.1455 3.84475 13.8847 2.43131 12.2165C1.56974 11.1997 1.1737 9.96285 1.12109 8.63733C1.09295 7.92378 1.09993 7.20928 1.10692 6.49482C1.11004 6.17622 1.11315 5.85762 1.11315 5.53912H1.1062ZM11.9304 4L12.8794 4.9519L7.18739 10.6631L3.39239 6.85571L4.34138 5.90381L7.18739 8.75952L11.9304 4Z" fill="#6D7175"/>
</svg>
