<svg width="16" height="16" viewBox="0 0 16 16" fill="none" xmlns="http://www.w3.org/2000/svg">
<path d="M7.99812 8.88783L9.53186 7.01894C9.55324 6.99186 9.49445 6.99186 9.49445 6.99186H10.2426V7.33855C10.1456 7.32532 10.0493 7.36688 9.99145 7.44689C9.81397 7.6774 9.37314 8.19965 8.9378 8.7154C8.53421 9.19353 8.13533 9.66608 7.95537 9.89541C7.78355 9.67895 7.41106 9.23964 7.02586 8.78535C6.5724 8.25055 6.10133 7.69497 5.91929 7.45773V7.42522C5.86145 7.34521 5.7651 7.30365 5.66812 7.31688V7.01352H6.45904L7.99812 8.88783Z" fill="#6D7175"/>
<path fill-rule="evenodd" clip-rule="evenodd" d="M8 0C3.58172 0 0 3.58172 0 8C0 12.4183 3.58172 16 8 16C12.4183 16 16 12.4183 16 8C16 3.58172 12.4183 0 8 0ZM11.787 7.734C12.071 7.39297 12.071 6.8941 11.787 6.55307L11.5252 6.24972C11.4201 6.13439 11.2963 5.99744 11.1657 5.85294C10.8118 5.46123 10.4078 5.01413 10.1892 4.79252C10.0466 4.61628 9.83668 4.5099 9.61202 4.5H6.4056C6.17161 4.50119 5.95106 4.61098 5.80707 4.79794L5.08562 5.59425L4.21454 6.57474C3.92849 6.90882 3.92849 7.40533 4.21454 7.73941L6.10099 9.80874L7.41562 11.2443C7.55465 11.4322 7.77174 11.5442 8.00347 11.5476C8.23539 11.5451 8.45283 11.4329 8.59131 11.2443L9.9487 9.75998L11.787 7.734Z" fill="#6D7175"/>
</svg>
