<svg width="16" height="16" viewBox="0 0 16 16" fill="none" xmlns="http://www.w3.org/2000/svg">
<path d="M9.5753 4.27678L3.0945 4.27678L5.0401 2.32958C5.0973 2.27269 5.1426 2.20498 5.17337 2.1304C5.20413 2.05582 5.21975 1.97586 5.2193 1.89518C5.21841 1.73242 5.1538 1.57648 5.0393 1.46078C4.98241 1.40359 4.9147 1.35829 4.84012 1.32752C4.76554 1.29675 4.68558 1.28114 4.6049 1.28158C4.52417 1.28124 4.44418 1.29698 4.3696 1.32789C4.29502 1.35879 4.22733 1.40424 4.1705 1.46158L1.5577 4.07438C1.3289 4.30238 1.2025 4.60878 1.2017 4.93438C1.1995 5.09571 1.22991 5.25581 1.29108 5.4051C1.35225 5.55439 1.44294 5.68979 1.5577 5.80318L4.1705 8.41678C4.25609 8.50325 4.36557 8.56216 4.48488 8.58597C4.60419 8.60977 4.72789 8.59738 4.8401 8.55038C4.99027 8.48721 5.10973 8.36775 5.1729 8.21758C5.22023 8.10542 5.23279 7.98164 5.20897 7.86226C5.18516 7.74288 5.12605 7.63339 5.0393 7.54798L2.9897 5.50398L9.5737 5.50398C10.6332 5.50419 11.6493 5.92473 12.3991 6.67329C13.1488 7.42186 13.571 8.4373 13.5729 9.49678C13.571 10.5563 13.1488 11.5717 12.3991 12.3203C11.6493 13.0688 10.6332 13.4894 9.5737 13.4896H5.2865C5.12356 13.4896 4.96728 13.5543 4.85206 13.6695C4.73684 13.7848 4.6721 13.941 4.6721 14.104C4.6721 14.2669 4.73684 14.4232 4.85206 14.5384C4.96728 14.6537 5.12356 14.7184 5.2865 14.7184H9.5737C12.4561 14.7184 14.8009 12.376 14.8009 9.49678C14.8009 6.61758 12.4553 4.27518 9.5737 4.27518L9.5753 4.27678Z" fill="#6D7175"/>
</svg>
