<svg width="16" height="16" viewBox="0 0 16 16" fill="none" xmlns="http://www.w3.org/2000/svg">
<g clip-path="url(#clip0_16565_43512)">
<path d="M8.80005 0.799988H13.6C14.4837 0.799988 15.2 1.51633 15.2 2.39999V7.19999C15.2001 7.81432 14.9658 8.42871 14.4971 8.89743L8.89709 14.4974C7.95984 15.4346 6.44025 15.4346 5.50299 14.4974L1.50299 10.4974C0.565734 9.56015 0.565734 8.04055 1.50299 7.10329L7.10299 1.50329C7.57162 1.03467 8.18581 0.799988 8.80005 0.799988ZM11.2 6.39999C12.0837 6.39999 12.8 5.68364 12.8 4.79999C12.8 3.91633 12.0837 3.19999 11.2 3.19999C10.3164 3.19999 9.60005 3.91633 9.60005 4.79999C9.60005 5.68364 10.3164 6.39999 11.2 6.39999Z" fill="#6D7175"/>
</g>
<defs>
<clipPath id="clip0_16565_43512">
<rect width="16" height="16" fill="white"/>
</clipPath>
</defs>
</svg>
