<svg width="16" height="16" viewBox="0 0 16 16" fill="none" xmlns="http://www.w3.org/2000/svg">
<path d="M5.59017 14.7779C5.4851 14.778 5.38105 14.7574 5.28398 14.7171C5.18692 14.6769 5.09876 14.6179 5.02457 14.5435L0.224569 9.74351C0.078843 9.59263 -0.00179249 9.39055 3.02421e-05 9.18079C0.00185298 8.97103 0.0859881 8.77038 0.234315 8.62206C0.382641 8.47373 0.583291 8.3896 0.793049 8.38777C1.00281 8.38595 1.20489 8.46659 1.35577 8.61231L5.54457 12.8011L14.583 2.25711C14.7234 2.1051 14.9173 2.01344 15.1239 2.00136C15.3305 1.98929 15.5337 2.05775 15.6909 2.19237C15.8481 2.32699 15.947 2.51728 15.9669 2.72328C15.9867 2.92928 15.926 3.13496 15.7974 3.29711L6.19737 14.4971C6.1257 14.581 6.03747 14.6492 5.93822 14.6974C5.83896 14.7455 5.73082 14.7727 5.62057 14.7771H5.59017" fill="#6D7175"/>
</svg>
