<svg width="16" height="16" viewBox="0 0 16 16" fill="none" xmlns="http://www.w3.org/2000/svg">
<path fill-rule="evenodd" clip-rule="evenodd" d="M2.2 0C1.53726 0 1 0.537258 1 1.2V14.8C1 15.4627 1.53726 16 2.2 16H13.8C14.4627 16 15 15.4627 15 14.8V5.49706C15 5.1788 14.8736 4.87357 14.6485 4.64853L10.3515 0.351472C10.1264 0.126429 9.8212 0 9.50294 0H2.2ZM8.01008 10.0084L9.31675 8.70117H4V7.29882H9.31674L8.01008 5.99161L9.00127 5L11.6467 7.64652C11.8418 7.84177 11.8418 8.15823 11.6467 8.35348L9.00127 11L8.01008 10.0084Z" fill="#6D7175"/>
</svg>
