<svg width="16" height="16" viewBox="0 0 16 16" fill="none" xmlns="http://www.w3.org/2000/svg">
<path d="M14.6833 7.5C13.7056 6.6 12.6722 5.88334 11.5833 5.35C10.4944 4.81667 9.3 4.55 8 4.55C7.7 4.55 7.41111 4.57222 7.13333 4.61667C6.85556 4.66111 6.63333 4.71111 6.46667 4.76667L4.86667 3.16667C5.35556 2.98889 5.85 2.86111 6.35 2.78334C6.85 2.70556 7.4 2.66667 8 2.66667C9.55556 2.66667 11.0139 2.98889 12.375 3.63334C13.7361 4.27778 14.9444 5.13334 16 6.2L14.6833 7.5ZM12.2667 9.91667C11.9111 9.57222 11.5861 9.29167 11.2917 9.075C10.9972 8.85834 10.6222 8.65556 10.1667 8.46667L8.43333 6.73334C9.44444 6.78889 10.3222 7.01667 11.0667 7.41667C11.8111 7.81667 12.5167 8.34445 13.1833 9L12.2667 9.91667ZM13.3 14.9833L6.95 8.65C6.35 8.80556 5.825 9.03334 5.375 9.33334C4.925 9.63334 4.51667 9.96111 4.15 10.3167L2.81667 9C3.20556 8.61111 3.6 8.26667 4 7.96667C4.4 7.66667 4.89444 7.39445 5.48333 7.15L3.91667 5.6C3.40556 5.86667 2.93889 6.15834 2.51667 6.475C2.09444 6.79167 1.69444 7.13334 1.31667 7.5L0 6.18334C0.366667 5.80556 0.772222 5.44167 1.21667 5.09167C1.66111 4.74167 2.09444 4.45 2.51667 4.21667L1.01667 2.71667L1.86667 1.86667L14.1333 14.1333L13.3 14.9833ZM8 14.1833L5.53333 11.7C5.85556 11.3778 6.225 11.125 6.64167 10.9417C7.05833 10.7583 7.51111 10.6667 8 10.6667C8.48889 10.6667 8.94167 10.7583 9.35833 10.9417C9.775 11.125 10.1444 11.3778 10.4667 11.7L8 14.1833Z" fill="#6D7175"/>
</svg>
