<svg width="16" height="16" viewBox="0 0 16 16" fill="none" xmlns="http://www.w3.org/2000/svg">
<path fill-rule="evenodd" clip-rule="evenodd" d="M4.69348 10.1533C4.58045 10.0586 4.44855 9.98415 4.29884 9.92945C4.17342 9.88146 4.03929 9.84814 3.89672 9.82915L3.90556 9.5912H3.29896L3.3078 9.82528C3.04699 9.86075 2.83206 9.94954 2.66978 10.0974C2.48743 10.261 2.39908 10.4822 2.39908 10.7507C2.39908 10.9941 2.48142 11.1973 2.64889 11.3501C2.80097 11.4861 3.03061 11.5862 3.32779 11.6566V12.3846C3.21898 12.363 3.10773 12.327 2.99395 12.276C2.84909 12.2099 2.71023 12.1215 2.57737 12.0102L2.54262 11.9811L2.36239 12.0281L2.44326 12.5445L2.46739 12.5655C2.60098 12.682 2.74374 12.7726 2.89457 12.8359C3.02395 12.8891 3.1632 12.9254 3.31197 12.9451L3.29887 13.2835H3.90574L3.89268 12.9499C4.16057 12.9173 4.38171 12.8328 4.54947 12.6903C4.74075 12.5302 4.83518 12.3138 4.83518 12.0505C4.83518 11.805 4.75364 11.6044 4.58338 11.461C4.43055 11.3323 4.1913 11.2353 3.87679 11.1635V10.3904C3.97346 10.4107 4.06721 10.4425 4.15819 10.4858L4.16014 10.4867C4.28571 10.5427 4.37983 10.6065 4.4462 10.676L4.48125 10.7127L4.6505 10.6715L4.73203 10.1856L4.69348 10.1533ZM3.87679 11.7835C4.01108 11.8248 4.09503 11.8662 4.13806 11.9039L4.14077 11.9062C4.18988 11.9458 4.21832 12.0036 4.21832 12.0931C4.21832 12.1756 4.18673 12.2385 4.11833 12.2893C4.06333 12.3297 3.98424 12.3626 3.87679 12.3845V11.7835ZM3.32779 11.0338C3.21728 10.9953 3.14133 10.9535 3.09449 10.9112C3.04074 10.8578 3.01169 10.7877 3.01169 10.6927C3.01169 10.6017 3.04274 10.5363 3.10274 10.4868C3.152 10.4461 3.22529 10.4125 3.32779 10.3903V11.0338Z" fill="#6D7175"/>
<path fill-rule="evenodd" clip-rule="evenodd" d="M0 11.4374C0 9.78168 1.11633 8.38674 2.63736 7.96415V4.63706C2.63736 4.44292 2.74401 4.26447 2.915 4.17251L9.06884 0.86291C9.22484 0.779014 9.41253 0.779014 9.56852 0.86291L15.7224 4.17251C15.8934 4.26447 16 4.44292 16 4.63706V11.2563C16 11.4504 15.8934 11.6289 15.7224 11.7208L9.56852 15.0304C9.41253 15.1143 9.22484 15.1143 9.06884 15.0304L6.46525 13.6302C5.8064 14.4885 4.77001 15.0417 3.6044 15.0417C1.61374 15.0417 0 13.428 0 11.4374ZM8.79121 8.41358L8.7912 13.6833L6.97833 12.7083C7.12729 12.313 7.20879 11.8847 7.20879 11.4374C7.20879 9.47609 5.64234 7.88068 3.69231 7.83401V5.73864L8.79121 8.41358ZM4.07027 4.74903L9.31868 1.92638L14.5671 4.74903L9.31868 7.49865L4.07027 4.74903ZM9.84616 8.41358L14.9451 5.73864V10.941L9.84615 13.6833L9.84616 8.41358ZM6.15385 11.4374C6.15385 12.8454 5.01242 13.9868 3.6044 13.9868C2.19637 13.9868 1.05495 12.8454 1.05495 11.4374C1.05495 10.0293 2.19637 8.8879 3.6044 8.8879C5.01242 8.8879 6.15385 10.0293 6.15385 11.4374Z" fill="#6D7175"/>
</svg>
