<svg width="16" height="16" viewBox="0 0 16 16" fill="none" xmlns="http://www.w3.org/2000/svg">
<path d="M15.707 7.29206L10.707 2.29206C10.6142 2.19921 10.5039 2.12556 10.3826 2.07532C10.2613 2.02507 10.1313 1.99921 10 1.99921C9.73482 1.99921 9.48051 2.10455 9.293 2.29206C9.20016 2.3849 9.12651 2.49512 9.07626 2.61643C9.02601 2.73774 9.00015 2.86775 9.00015 2.99906C9.00015 3.26423 9.10549 3.51855 9.293 3.70606L12.586 6.99906H1C0.734784 6.99906 0.48043 7.10441 0.292893 7.29195C0.105357 7.47949 0 7.73384 0 7.99906C0 8.26427 0.105357 8.51863 0.292893 8.70616C0.48043 8.8937 0.734784 8.99906 1 8.99906H12.586L9.293 12.2921C9.10549 12.4796 9.00015 12.7339 9.00015 12.9991C9.00015 13.2642 9.10549 13.5185 9.293 13.7061C9.48051 13.8936 9.73482 13.9989 10 13.9989C10.2652 13.9989 10.5195 13.8936 10.707 13.7061L15.707 8.70606C15.7999 8.61327 15.8737 8.50306 15.924 8.38175C15.9743 8.26043 16.0002 8.13039 16.0002 7.99906C16.0002 7.86772 15.9743 7.73768 15.924 7.61636C15.8737 7.49505 15.7999 7.38484 15.707 7.29206Z" fill="#6D7175"/>
</svg>
