<svg width="16" height="16" viewBox="0 0 16 16" fill="none" xmlns="http://www.w3.org/2000/svg">
<path d="M1.20001 1.7576C1.20001 1.4496 1.45041 1.2 1.76001 1.2H6.24001C6.31575 1.19594 6.39152 1.20735 6.4627 1.23354C6.53388 1.25973 6.59898 1.30015 6.65403 1.35232C6.70908 1.4045 6.75292 1.46735 6.78288 1.53702C6.81284 1.6067 6.82829 1.68175 6.82829 1.7576C6.82829 1.83345 6.81284 1.9085 6.78288 1.97818C6.75292 2.04785 6.70908 2.1107 6.65403 2.16287C6.59898 2.21505 6.53388 2.25547 6.4627 2.28166C6.39152 2.30784 6.31575 2.31926 6.24001 2.3152H2.32001V6.2416C2.32001 6.5496 2.06961 6.7992 1.76001 6.7992C1.45041 6.7992 1.20001 6.5496 1.20001 6.2416V1.7576ZM14.8 14.2424C14.7999 14.3158 14.7853 14.3885 14.7571 14.4562C14.7289 14.524 14.6876 14.5855 14.6356 14.6373C14.5836 14.6891 14.5219 14.7301 14.454 14.758C14.3861 14.7859 14.3134 14.8002 14.24 14.8H9.76001C9.68496 14.8028 9.6101 14.7905 9.53992 14.7638C9.46974 14.737 9.40568 14.6963 9.35157 14.6442C9.29747 14.5922 9.25443 14.5297 9.22503 14.4606C9.19563 14.3914 9.18048 14.3171 9.18048 14.242C9.18048 14.1669 9.19563 14.0926 9.22503 14.0234C9.25443 13.9543 9.29747 13.8918 9.35157 13.8397C9.40568 13.7877 9.46974 13.747 9.53992 13.7202C9.6101 13.6935 9.68496 13.6812 9.76001 13.684H13.68V9.7576C13.68 9.4496 13.9304 9.2 14.24 9.2C14.5496 9.2 14.8 9.4496 14.8 9.7576V14.2416V14.2424ZM14.2424 1.2C14.5504 1.2 14.8 1.4504 14.8 1.76V6.24C14.8029 6.31505 14.7905 6.38991 14.7638 6.46009C14.737 6.53027 14.6964 6.59433 14.6443 6.64844C14.5922 6.70254 14.5297 6.74558 14.4606 6.77498C14.3915 6.80438 14.3171 6.81953 14.242 6.81953C14.1669 6.81953 14.0926 6.80438 14.0234 6.77498C13.9543 6.74558 13.8919 6.70254 13.8398 6.64844C13.7877 6.59433 13.747 6.53027 13.7203 6.46009C13.6935 6.38991 13.6812 6.31505 13.684 6.24V3.0816L10.384 6.3936C10.1664 6.612 9.81281 6.612 9.59441 6.3936C9.37601 6.1752 9.37681 5.82 9.59441 5.6016L12.864 2.32H9.75761C9.44961 2.32 9.20001 2.0696 9.20001 1.76C9.20001 1.4504 9.44961 1.2 9.75761 1.2H14.2416H14.2424ZM1.22001 14.24C1.22001 14.5496 1.46961 14.8 1.77761 14.8H6.26161C6.41013 14.8 6.55257 14.741 6.65759 14.636C6.76261 14.531 6.82161 14.3885 6.82161 14.24C6.82161 14.0915 6.76261 13.949 6.65759 13.844C6.55257 13.739 6.41013 13.68 6.26161 13.68H3.15521L6.42481 10.3984C6.64241 10.18 6.64241 9.8248 6.42481 9.6064C6.20721 9.388 5.85361 9.388 5.63601 9.6064L2.33601 12.9184V9.76C2.33885 9.68495 2.32653 9.61009 2.29976 9.53991C2.273 9.46973 2.23236 9.40567 2.18026 9.35156C2.12817 9.29746 2.06569 9.25442 1.99657 9.22502C1.92746 9.19562 1.85312 9.18047 1.77801 9.18047C1.7029 9.18047 1.62857 9.19562 1.55945 9.22502C1.49033 9.25442 1.42786 9.29746 1.37576 9.35156C1.32367 9.40567 1.28302 9.46973 1.25626 9.53991C1.2295 9.61009 1.21717 9.68495 1.22001 9.76V14.24Z" fill="#6D7175"/>
</svg>
