<svg width="16" height="16" viewBox="0 0 16 16" fill="none" xmlns="http://www.w3.org/2000/svg">
<path fill-rule="evenodd" clip-rule="evenodd" d="M15.0002 7.00025H3.41425L6.70725 3.70725C7.09825 3.31625 7.09825 2.68425 6.70725 2.29325C6.31625 1.90225 5.68425 1.90225 5.29325 2.29325L0.29325 7.29325C-0.09775 7.68425 -0.09775 8.31625 0.29325 8.70725L5.29325 13.7072C5.48825 13.9022 5.74425 14.0002 6.00025 14.0002C6.25625 14.0002 6.51225 13.9022 6.70725 13.7072C7.09825 13.3162 7.09825 12.6842 6.70725 12.2933L3.41425 9.00025H15.0002C15.5532 9.00025 16.0002 8.55225 16.0002 8.00025C16.0002 7.44825 15.5532 7.00025 15.0002 7.00025Z" fill="#6D7175"/>
</svg>
