<svg width="16" height="16" viewBox="0 0 16 16" fill="none" xmlns="http://www.w3.org/2000/svg">
<path d="M5.83836 10.9664L5.84036 7.49974L5.30953 7.50128L5.30703 10.9661L5.83836 10.9664Z" fill="#6D7175"/>
<path fill-rule="evenodd" clip-rule="evenodd" d="M8 16C12.4183 16 16 12.4183 16 8C16 3.58172 12.4183 0 8 0C3.58172 0 0 3.58172 0 8C0 12.4183 3.58172 16 8 16ZM11.9875 7.87218L11.2674 10.816C11.2573 10.8544 11.2407 10.8892 11.2195 10.9202C11.1424 11.0754 11.0252 11.2126 10.8693 11.3126C10.705 11.4178 10.5216 11.4669 10.3404 11.4666V11.4646L5.71541 11.4626C5.69924 11.465 5.68287 11.4667 5.66602 11.4667C5.64912 11.4667 5.63268 11.465 5.61641 11.4625L4.3862 11.462C4.36891 11.4648 4.35131 11.4667 4.33321 11.4667C4.14916 11.4667 4 11.3163 4 11.1309L4.00302 7.35842C4.00302 7.17293 4.15225 7.02261 4.33631 7.02261C4.35005 7.02261 4.36353 7.02368 4.37688 7.02538L5.48271 7.02278V7.01645C6.50018 6.94304 7.30641 6.10242 7.33517 5.06533C7.33261 5.03615 7.33078 5.00682 7.33078 4.97697C7.33078 4.43742 7.76474 4 8.30017 4C8.76025 4 9.14459 4.32333 9.24388 4.75656L9.24877 4.75591C9.30335 5.00325 9.33309 5.26 9.33309 5.52385C9.33309 5.93067 9.26417 6.32115 9.13808 6.68452L10.998 6.68654C11.0151 6.68654 11.0318 6.68827 11.0483 6.69081C11.3658 6.70338 11.6717 6.86818 11.8519 7.16084C11.9665 7.34695 12.0122 7.55608 11.9973 7.75889C12.0002 7.796 11.9975 7.83415 11.9875 7.87218Z" fill="#6D7175"/>
</svg>
