<svg width="16" height="16" viewBox="0 0 16 16" fill="none" xmlns="http://www.w3.org/2000/svg">
<path d="M5.71582 5.46845L6.30078 7.31232H5.1118L5.71582 5.46845Z" fill="#6D7175"/>
<path d="M10.3891 5.21094C10.8342 5.21094 11.1319 5.3381 11.2824 5.59243C11.4308 5.84888 11.5049 6.21553 11.5049 6.6924C11.5049 7.03786 11.4551 7.33563 11.3555 7.58572C11.1733 8.04139 10.8511 8.26922 10.3891 8.26922H9.48622V5.21094H10.3891Z" fill="#6D7175"/>
<path fill-rule="evenodd" clip-rule="evenodd" d="M0.5 2.3081C0.5 1.75582 0.947715 1.30811 1.5 1.30811H14.5C15.0523 1.30811 15.5 1.75582 15.5 2.30811V11.292C15.5 11.8443 15.0523 12.292 14.5 12.292H1.5C0.947715 12.292 0.5 11.8443 0.5 11.292V2.3081ZM6.57418 8.11981H4.84793L4.52367 9.08307H3.5L5.1722 4.39709H6.27852L7.93801 9.08307H6.87619L6.57418 8.11981ZM10.5544 9.08307H8.53568V4.39709H10.5544C10.8448 4.40133 11.0864 4.43524 11.2792 4.49883C11.6077 4.60691 11.8737 4.80508 12.0772 5.09332C12.2404 5.32645 12.3516 5.57866 12.411 5.84994C12.4703 6.12122 12.5 6.37979 12.5 6.62564C12.5 7.24874 12.375 7.77647 12.1249 8.20882C11.7858 8.79166 11.2623 9.08307 10.5544 9.08307Z" fill="#6D7175"/>
<path d="M3.2 13.292C2.8134 13.292 2.5 13.6054 2.5 13.992C2.5 14.3786 2.8134 14.692 3.2 14.692H12.8C13.1866 14.692 13.5 14.3786 13.5 13.992C13.5 13.6054 13.1866 13.292 12.8 13.292H3.2Z" fill="#6D7175"/>
</svg>
