<svg width="16" height="16" viewBox="0 0 16 16" fill="none" xmlns="http://www.w3.org/2000/svg">
<path d="M11.4379 2.72C10.1429 2.72 9.13065 3.69547 8.21439 4.9344C6.95465 3.3312 5.90185 2.72 4.64159 2.72C2.07199 2.72 0.103455 6.064 0.103455 9.6032C0.103455 11.8181 1.17492 13.2149 2.96959 13.2149C4.26132 13.2149 5.19039 12.6059 6.84212 9.71893C6.84212 9.71893 7.53065 8.50293 8.00425 7.6656C8.17012 7.93333 8.34452 8.22187 8.52852 8.53173L9.30292 9.83467C10.8117 12.3595 11.6523 13.2149 13.1755 13.2149C14.9237 13.2149 15.8971 11.7989 15.8971 9.53813C15.896 5.83253 13.8832 2.72 11.4379 2.72ZM5.58239 8.9376C4.24319 11.0368 3.78025 11.5072 3.03465 11.5072C2.26719 11.5072 1.81119 10.8336 1.81119 9.63253C1.81119 7.06293 3.09225 4.43573 4.61972 4.43573C5.44692 4.43573 6.13759 4.9136 7.19625 6.4288C6.19092 7.97013 5.58239 8.9376 5.58239 8.9376ZM10.6357 8.67307L9.70985 7.12853C9.45919 6.72107 9.21919 6.34667 8.98719 6.0032C9.82185 4.7152 10.5104 4.07307 11.3291 4.07307C13.0299 4.07307 14.3909 6.5776 14.3909 9.65333C14.3909 10.8261 14.0069 11.5061 13.2112 11.5061C12.4485 11.5067 12.0837 11.0032 10.6357 8.67307Z" fill="#6D7175"/>
</svg>
