<svg width="16" height="16" viewBox="0 0 16 16" fill="none" xmlns="http://www.w3.org/2000/svg">
<path fill-rule="evenodd" clip-rule="evenodd" d="M3 1C2.46957 1 1.96086 1.21071 1.58579 1.58579C1.21071 1.96086 1 2.46957 1 3V9C1 9.53043 1.21071 10.0391 1.58579 10.4142C1.96086 10.7893 2.46957 11 3 11H5C5.26522 11 5.51957 11.1054 5.70711 11.2929C5.89464 11.4804 6 11.7348 6 12C6 12.2652 5.89464 12.5196 5.70711 12.7071C5.51957 12.8946 5.26522 13 5 13H4C3.73478 13 3.48043 13.1054 3.29289 13.2929C3.10536 13.4804 3 13.7348 3 14C3 14.2652 3.10536 14.5196 3.29289 14.7071C3.48043 14.8946 3.73478 15 4 15H12C12.2652 15 12.5196 14.8946 12.7071 14.7071C12.8946 14.5196 13 14.2652 13 14C13 13.7348 12.8946 13.4804 12.7071 13.2929C12.5196 13.1054 12.2652 13 12 13H11C10.7348 13 10.4804 12.8946 10.2929 12.7071C10.1054 12.5196 10 12.2652 10 12C10 11.7348 10.1054 11.4804 10.2929 11.2929C10.4804 11.1054 10.7348 11 11 11H13C13.5304 11 14.0391 10.7893 14.4142 10.4142C14.7893 10.0391 15 9.53043 15 9V3C15 2.46957 14.7893 1.96086 14.4142 1.58579C14.0391 1.21071 13.5304 1 13 1H3ZM4.986 4.836C4.93614 4.58032 4.78848 4.35419 4.57444 4.20572C4.3604 4.05725 4.09687 3.99817 3.83993 4.04103C3.58298 4.0839 3.35291 4.22534 3.19866 4.43525C3.04441 4.64516 2.97816 4.90698 3.014 5.165C3.237 6.504 4.579 9 8 9C11.42 9 12.763 6.504 12.986 5.165C13.0112 5.03405 13.0099 4.89939 12.9822 4.76894C12.9546 4.63849 12.9011 4.51489 12.825 4.4054C12.7489 4.29592 12.6516 4.20277 12.539 4.13142C12.4263 4.06008 12.3005 4.01199 12.169 3.98998C12.0375 3.96797 11.9029 3.97249 11.7732 4.00327C11.6434 4.03405 11.5211 4.09046 11.4135 4.1692C11.3059 4.24793 11.2151 4.3474 11.1465 4.46174C11.0779 4.57608 11.0328 4.70299 11.014 4.835C10.904 5.497 10.179 7 8 7C5.82 7 5.097 5.496 4.986 4.836Z" fill="#6D7175"/>
</svg>
