<svg width="16" height="16" viewBox="0 0 16 16" fill="none" xmlns="http://www.w3.org/2000/svg">
<g clip-path="url(#clip0_16565_43528)">
<path fill-rule="evenodd" clip-rule="evenodd" d="M12.8 1.6C12.8 1.17565 12.9686 0.768687 13.2686 0.468629C13.5687 0.168571 13.9756 0 14.4 0C14.8243 0 15.2313 0.168571 15.5314 0.468629C15.8314 0.768687 16 1.17565 16 1.6V2.4H12.8V1.6ZM6.70319 0.8C7.02134 0.80028 7.32636 0.926892 7.55119 1.152L10.8488 4.448C10.9603 4.55958 11.0487 4.69205 11.109 4.83783C11.1692 4.98362 11.2002 5.13985 11.2 5.2976V14C11.2 14.3183 11.0736 14.6235 10.8485 14.8485C10.6235 15.0736 10.3182 15.2 9.99999 15.2H1.99999C1.68173 15.2 1.3765 15.0736 1.15146 14.8485C0.926416 14.6235 0.799988 14.3183 0.799988 14V2C0.799988 1.68174 0.926416 1.37652 1.15146 1.15147C1.3765 0.926428 1.68173 0.8 1.99999 0.8H6.70319ZM3.19999 4H6.39999V5.6H3.19999V4ZM8.79999 7.2V8.8H3.19999V7.2H8.79999ZM3.19999 12V10.4H7.19999V12H3.19999ZM12.8 4H16V12.8L14.4 16L12.8 12.8V4Z" fill="#6D7175"/>
</g>
<defs>
<clipPath id="clip0_16565_43528">
<rect width="16" height="16" fill="white"/>
</clipPath>
</defs>
</svg>
