<svg width="16" height="16" viewBox="0 0 16 16" fill="none" xmlns="http://www.w3.org/2000/svg">
<g clip-path="url(#clip0_16565_43526)">
<path d="M13.3656 5.03441L15.7656 7.43441C15.8401 7.50858 15.8991 7.59673 15.9394 7.69379C15.9798 7.79085 16.0005 7.89491 16.0005 8.00001C16.0005 8.1051 15.9798 8.20917 15.9394 8.30622C15.8991 8.40328 15.8401 8.49143 15.7656 8.56561L13.3656 10.9656C13.2729 11.0592 13.1584 11.1284 13.0324 11.167C12.9064 11.2055 12.7728 11.2123 12.6436 11.1866C12.5143 11.1609 12.3934 11.1036 12.2918 11.0198C12.1901 10.936 12.1107 10.8284 12.0608 10.7064C12.0002 10.5602 11.9844 10.3993 12.0153 10.2441C12.0462 10.0888 12.1225 9.94628 12.2344 9.83441L13.2688 8.80001H9.60001C9.38783 8.80001 9.18435 8.71572 9.03432 8.56569C8.88429 8.41566 8.8 8.21218 8.8 8.00001C8.8 7.78783 8.88429 7.58435 9.03432 7.43432C9.18435 7.28429 9.38783 7.20001 9.60001 7.20001H13.2688L12.2344 6.16561C12.158 6.09181 12.0971 6.00353 12.0551 5.90593C12.0132 5.80833 11.9911 5.70335 11.9902 5.59713C11.9893 5.4909 12.0095 5.38556 12.0497 5.28724C12.09 5.18893 12.1494 5.0996 12.2245 5.02449C12.2996 4.94938 12.3889 4.88997 12.4872 4.84975C12.5856 4.80952 12.6909 4.78928 12.7971 4.79021C12.9033 4.79113 13.0083 4.8132 13.1059 4.85513C13.2035 4.89705 13.2918 4.958 13.3656 5.03441ZM2.63441 5.03441C2.7082 4.958 2.79648 4.89705 2.89408 4.85513C2.99168 4.8132 3.09666 4.79113 3.20288 4.79021C3.30911 4.78928 3.41445 4.80952 3.51277 4.84975C3.61109 4.88997 3.70041 4.94938 3.77552 5.02449C3.85064 5.0996 3.91004 5.18893 3.95026 5.28724C3.99049 5.38556 4.01073 5.4909 4.00981 5.59713C4.00888 5.70335 3.98681 5.80833 3.94489 5.90593C3.90296 6.00353 3.84201 6.09181 3.76561 6.16561L2.73121 7.20001H6.4C6.61218 7.20001 6.81566 7.28429 6.96569 7.43432C7.11572 7.58435 7.20001 7.78783 7.20001 8.00001C7.20001 8.21218 7.11572 8.41566 6.96569 8.56569C6.81566 8.71572 6.61218 8.80001 6.4 8.80001H2.73121L3.76561 9.83441C3.915 9.98474 3.99885 10.1881 3.99885 10.4C3.99885 10.6119 3.915 10.8153 3.76561 10.9656C3.61558 11.1156 3.41214 11.1998 3.20001 11.1998C2.98787 11.1998 2.78443 11.1156 2.63441 10.9656L0.234406 8.56561C0.159953 8.49143 0.100879 8.40328 0.0605699 8.30622C0.0202612 8.20917 -0.000488281 8.1051 -0.000488281 8.00001C-0.000488281 7.89491 0.0202612 7.79085 0.0605699 7.69379C0.100879 7.59673 0.159953 7.50858 0.234406 7.43441L2.63441 5.03441Z" fill="#6D7175"/>
<path d="M0.799988 1.2C0.799988 0.88174 0.926416 0.576515 1.15146 0.351472C1.3765 0.126428 1.68173 0 1.99999 0L14 0C14.3182 0 14.6235 0.126428 14.8485 0.351472C15.0736 0.576515 15.2 0.88174 15.2 1.2V4.8L13.6 3.2V1.6H2.39999V3.2L0.799988 4.8V1.2ZM13.6 14.4V12.8L15.2 11.2V14.8C15.2 15.1183 15.0736 15.4235 14.8485 15.6485C14.6235 15.8736 14.3182 16 14 16H1.99999C1.68173 16 1.3765 15.8736 1.15146 15.6485C0.926416 15.4235 0.799988 15.1183 0.799988 14.8V11.2L2.39999 12.8V14.4H13.6Z" fill="#6D7175"/>
</g>
<defs>
<clipPath id="clip0_16565_43526">
<rect width="16" height="16" fill="white"/>
</clipPath>
</defs>
</svg>
