<svg width="16" height="16" viewBox="0 0 16 16" fill="none" xmlns="http://www.w3.org/2000/svg">
<g clip-path="url(#clip0_16565_43545)">
<path d="M8 0C12.4112 0 16 3.5888 16 8C16 12.4112 12.4112 16 8 16C3.5888 16 0 12.4112 0 8C0 3.5888 3.5888 0 8 0ZM8.8 6.7312L9.8344 7.7656C9.9082 7.84201 9.99647 7.90295 10.0941 7.94488C10.1917 7.98681 10.2967 8.00888 10.4029 8.0098C10.5091 8.01072 10.6144 7.99048 10.7128 7.95026C10.8111 7.91003 10.9004 7.85063 10.9755 7.77552C11.0506 7.7004 11.11 7.61108 11.1503 7.51276C11.1905 7.41445 11.2107 7.3091 11.2098 7.20288C11.2089 7.09666 11.1868 6.99168 11.1449 6.89408C11.103 6.79647 11.042 6.7082 10.9656 6.6344L8.5656 4.2344C8.49142 4.15995 8.40328 4.10087 8.30622 4.06056C8.20916 4.02026 8.1051 3.99951 8 3.99951C7.8949 3.99951 7.79084 4.02026 7.69378 4.06056C7.59672 4.10087 7.50858 4.15995 7.4344 4.2344L5.0344 6.6344C4.88867 6.78528 4.80804 6.98736 4.80986 7.19712C4.81168 7.40688 4.89582 7.60753 5.04415 7.75586C5.19247 7.90418 5.39312 7.98832 5.60288 7.99014C5.81264 7.99196 6.01472 7.91133 6.1656 7.7656L7.2 6.7312V11.2C7.2 11.4122 7.28429 11.6157 7.43431 11.7657C7.58434 11.9157 7.78783 12 8 12C8.21217 12 8.41566 11.9157 8.56569 11.7657C8.71571 11.6157 8.8 11.4122 8.8 11.2V6.7312Z" fill="#6D7175"/>
</g>
<defs>
<clipPath id="clip0_16565_43545">
<rect width="16" height="16" fill="white"/>
</clipPath>
</defs>
</svg>
