<svg width="16" height="16" viewBox="0 0 16 16" fill="none" xmlns="http://www.w3.org/2000/svg">
<g clip-path="url(#clip0_16565_43518)">
<path d="M0.800003 2V7.2H15.2V2C15.2 1.68174 15.0736 1.37652 14.8485 1.15147C14.6235 0.926431 14.3183 0.800003 14 0.800003H2C1.68174 0.800003 1.37652 0.926431 1.15147 1.15147C0.926431 1.37652 0.800003 1.68174 0.800003 2ZM1.6 15.2C1.38783 15.2 1.18435 15.1157 1.03432 14.9657C0.884288 14.8157 0.800003 14.6122 0.800003 14.4V12.8H2.4V13.6H3.2V15.2H1.6ZM15.2 14.4C15.2 14.6122 15.1157 14.8157 14.9657 14.9657C14.8157 15.1157 14.6122 15.2 14.4 15.2H12.8V13.6H13.6V12.8H15.2V14.4ZM0.800003 11.2V8.8H2.4V11.2H0.800003ZM13.6 8.8V11.2H15.2V8.8H13.6ZM4.8 13.6H7.2V15.2H4.8V13.6ZM11.2 13.6H8.8V15.2H11.2V13.6Z" fill="#6D7175"/>
</g>
<defs>
<clipPath id="clip0_16565_43518">
<rect width="16" height="16" fill="white"/>
</clipPath>
</defs>
</svg>
