<svg width="16" height="16" viewBox="0 0 16 16" fill="none" xmlns="http://www.w3.org/2000/svg">
<g clip-path="url(#clip0_16565_43371)">
<path fill-rule="evenodd" clip-rule="evenodd" d="M8 14C11.3137 14 14 11.3137 14 8C14 4.68629 11.3137 2 8 2C4.68629 2 2 4.68629 2 8C2 11.3137 4.68629 14 8 14ZM8 15.5C12.1421 15.5 15.5 12.1421 15.5 8C15.5 3.85786 12.1421 0.5 8 0.5C3.85786 0.5 0.5 3.85786 0.5 8C0.5 12.1421 3.85786 15.5 8 15.5Z" fill="#6D7175"/>
<path fill-rule="evenodd" clip-rule="evenodd" d="M8.50607 4.68182C8.6818 4.68182 8.82425 4.82427 8.82425 5V7.32545H11C11.1757 7.32545 11.3182 7.46791 11.3182 7.64364V8.46975C11.3182 8.64547 11.1757 8.78793 11 8.78793H7.63819C7.46246 8.78793 7.32001 8.64547 7.32001 8.46975V5C7.32001 4.82427 7.46246 4.68182 7.63819 4.68182H8.50607Z" fill="#6D7175"/>
</g>
<defs>
<clipPath id="clip0_16565_43371">
<rect width="16" height="16" fill="white"/>
</clipPath>
</defs>
</svg>
