<svg width="16" height="16" viewBox="0 0 16 16" fill="none" xmlns="http://www.w3.org/2000/svg">
<path d="M5.71582 5.17133L6.30078 7.0152H5.1118L5.71582 5.17133Z" fill="#6D7175"/>
<path d="M10.3891 4.91382C10.8342 4.91382 11.1319 5.04099 11.2824 5.29531C11.4308 5.55176 11.5049 5.91841 11.5049 6.39528C11.5049 6.74074 11.4551 7.03851 11.3555 7.2886C11.1733 7.74427 10.8511 7.97211 10.3891 7.97211H9.48622V4.91382H10.3891Z" fill="#6D7175"/>
<path fill-rule="evenodd" clip-rule="evenodd" d="M1.7 1C1.03726 1 0.5 1.53726 0.5 2.2V10.8C0.5 11.4627 1.03726 12 1.7 12H7.30005V12.5937L4.15271 14.3922L4.8473 15.6078L8.00001 13.8062L11.1527 15.6078L11.8473 14.3922L8.70005 12.5938V12H14.3C14.9627 12 15.5 11.4627 15.5 10.8V2.2C15.5 1.53726 14.9627 1 14.3 1H1.7ZM4.84793 7.82269H6.57418L6.87619 8.78595H7.93801L6.27852 4.09998H5.1722L3.5 8.78595H4.52367L4.84793 7.82269ZM8.53568 8.78595H10.5544C11.2623 8.78595 11.7858 8.49454 12.1249 7.9117C12.375 7.47935 12.5 6.95162 12.5 6.32852C12.5 6.08267 12.4703 5.8241 12.411 5.55282C12.3516 5.28154 12.2404 5.02933 12.0772 4.7962C11.8737 4.50796 11.6077 4.3098 11.2792 4.20171C11.0864 4.13812 10.8448 4.10421 10.5544 4.09998H8.53568V8.78595Z" fill="#6D7175"/>
</svg>
