<svg width="16" height="16" viewBox="0 0 16 16" fill="none" xmlns="http://www.w3.org/2000/svg">
<path d="M12.7838 8.23537C13.0721 7.95276 13.0721 7.49456 12.7838 7.21196C12.4955 6.92935 12.0281 6.92935 11.7399 7.21196L10 8.91765L8.26013 7.21196C7.97186 6.92935 7.50448 6.92935 7.21621 7.21196C6.92793 7.49456 6.92793 7.95276 7.21621 8.23537L8.95538 9.94039L7.21621 11.6468C6.92793 11.9294 6.92793 12.3876 7.21621 12.6702C7.50448 12.9528 7.97186 12.9528 8.26013 12.6702L10 10.9645L11.7399 12.6702C12.0281 12.9528 12.4955 12.9528 12.7838 12.6702C13.0721 12.3876 13.0721 11.9294 12.7838 11.6468L11.0439 9.94107L12.7838 8.23537Z" fill="#6D7175"/>
<path fill-rule="evenodd" clip-rule="evenodd" d="M11 0.0999756C11.5523 0.0999756 12 0.547691 12 1.09998V4H15C15.5523 4 16 4.44771 16 5V15C16 15.5523 15.5523 16 15 16H4.99999C4.44771 16 3.99999 15.5523 3.99999 15V12.1H1C0.447715 12.1 0 11.6523 0 11.1V1.09998C0 0.547691 0.447715 0.0999756 1 0.0999756H11ZM10.5 1.57051V4H4.99999C4.44771 4 3.99999 4.44771 3.99999 5V10.4942H1.49997V1.57051H10.5ZM5.49996 5.39195H14.5V14.4609H5.49996V5.39195Z" fill="#6D7175"/>
</svg>
