<svg width="16" height="16" viewBox="0 0 16 16" fill="none" xmlns="http://www.w3.org/2000/svg">
<path d="M1.68758 16C1.23186 16 0.836671 15.8327 0.502003 15.498C0.167334 15.1633 0 14.7681 0 14.3124V1.70895C0 1.23899 0.167334 0.836671 0.502003 0.502003C0.836671 0.167334 1.23186 0 1.68758 0H14.2911C14.761 0 15.1633 0.167334 15.498 0.502003C15.8327 0.836671 16 1.23899 16 1.70895V14.3124C16 14.7681 15.8327 15.1633 15.498 15.498C15.1633 15.8327 14.761 16 14.2911 16H1.68758ZM7.98932 11.9413C8.57321 11.9413 9.10013 11.7775 9.57009 11.4499C10.0401 11.1224 10.4388 10.6951 10.7664 10.1682H14.2911V1.70895H1.68758V10.1682H5.21228C5.53983 10.6951 5.93858 11.1224 6.40854 11.4499C6.8785 11.7775 7.40543 11.9413 7.98932 11.9413Z" fill="#6D7175"/>
</svg>
