<svg width="16" height="16" viewBox="0 0 16 16" fill="none" xmlns="http://www.w3.org/2000/svg">
<path d="M13.5969 7.28646L3.93021 1.45396C3.8038 1.37776 3.65941 1.3365 3.51183 1.3344C3.36424 1.33231 3.21875 1.36945 3.09023 1.44203C2.9617 1.51461 2.85476 1.62002 2.78034 1.74749C2.70592 1.87495 2.66669 2.0199 2.66666 2.1675V13.8325C2.66603 13.9804 2.70486 14.1258 2.77915 14.2537C2.85344 14.3815 2.9605 14.4873 3.08929 14.56C3.21807 14.6327 3.36393 14.6697 3.5118 14.6673C3.65967 14.6648 3.80421 14.623 3.93052 14.546L13.5972 8.71354C13.7201 8.63938 13.8218 8.53472 13.8924 8.4097C13.963 8.28469 14 8.14356 14 8C14 7.85643 13.963 7.7153 13.8924 7.59029C13.8218 7.46527 13.7201 7.36061 13.5972 7.28646H13.5969Z" fill="#6D7175"/>
</svg>
