<svg width="16" height="16" viewBox="0 0 16 16" fill="none" xmlns="http://www.w3.org/2000/svg">
<path fill-rule="evenodd" clip-rule="evenodd" d="M2.97144 0H13.0286C13.7856 0 14.4 0.541604 14.4 1.20961V15.7777C14.4001 15.8087 14.3899 15.839 14.3707 15.865C14.3514 15.8911 14.324 15.9116 14.2916 15.9242C14.2593 15.9369 14.2235 15.941 14.1885 15.9362C14.1535 15.9313 14.1209 15.9177 14.0946 15.8969L12.5733 14.6849C12.4895 14.6181 12.3803 14.581 12.267 14.581C12.1536 14.581 12.0444 14.6181 11.9607 14.6849L10.4393 15.8961C10.3556 15.9629 10.2464 16 10.133 16C10.0197 16 9.91047 15.9629 9.82675 15.8961L8.30629 14.6849C8.22258 14.6181 8.11334 14.581 8.00001 14.581C7.88668 14.581 7.77744 14.6181 7.69372 14.6849L6.17327 15.8961C6.08955 15.9629 5.98031 16 5.86698 16C5.75365 16 5.64441 15.9629 5.5607 15.8961L4.03932 14.6849C3.95561 14.6181 3.84637 14.581 3.73304 14.581C3.61971 14.581 3.51047 14.6181 3.42675 14.6849L1.90538 15.9321C1.87904 15.9529 1.84634 15.9666 1.81129 15.9714C1.77623 15.9762 1.74032 15.972 1.70795 15.9593C1.67558 15.9466 1.64813 15.9259 1.62897 15.8997C1.6098 15.8736 1.59974 15.8432 1.60001 15.8121V1.20961C1.60001 0.541604 2.21441 0 2.97144 0ZM6.85841 6.84851C6.63337 7.07355 6.32814 7.20001 6.00984 7.20001C5.6916 7.20001 5.38636 7.07355 5.16133 6.84851C4.93629 6.62347 4.80989 6.31824 4.80989 6C4.80989 5.68176 4.93629 5.37653 5.16133 5.15149C5.38636 4.92645 5.6916 4.79999 6.00984 4.79999C6.32814 4.79999 6.63337 4.92645 6.85841 5.15149C7.08345 5.37653 7.20985 5.68176 7.20985 6C7.20985 6.31824 7.08345 6.62347 6.85841 6.84851ZM11.1185 10.4592C11.1788 10.3137 11.2099 10.1576 11.2099 10C11.2099 9.68176 11.0834 9.37653 10.8584 9.15149C10.6334 8.92645 10.3281 8.79999 10.0098 8.79999C9.6916 8.79999 9.38636 8.92645 9.16133 9.15149C8.93629 9.37653 8.80989 9.68176 8.80989 10C8.80989 10.1576 8.84089 10.3137 8.9012 10.4592C8.9615 10.6048 9.04994 10.7371 9.16133 10.8485C9.23689 10.9241 9.32203 10.989 9.41438 11.0418C9.45826 11.0669 9.5038 11.0892 9.55067 11.1086C9.69624 11.1689 9.85231 11.2 10.0098 11.2C10.1674 11.2 10.3235 11.1689 10.4691 11.1086C10.6147 11.0483 10.747 10.96 10.8584 10.8485C10.9698 10.7371 11.0582 10.6048 11.1185 10.4592ZM10.9755 6.16559C11.1212 6.01471 11.2019 5.81262 11.2 5.60291C11.1982 5.39313 11.114 5.19244 10.9657 5.04413C10.8174 4.89581 10.6168 4.81171 10.407 4.80988C10.1972 4.80804 9.99513 4.88867 9.84425 5.03442L5.04426 9.83441C4.96785 9.9082 4.90693 9.99646 4.865 10.0941C4.82307 10.1917 4.80098 10.2966 4.80006 10.4029C4.79914 10.5091 4.81941 10.6144 4.85963 10.7128C4.89985 10.8111 4.95924 10.9004 5.03437 10.9755C5.10945 11.0507 5.1988 11.11 5.29713 11.1503C5.3954 11.1905 5.50074 11.2108 5.60701 11.2098C5.71321 11.2089 5.81819 11.1868 5.91578 11.1449C6.01338 11.103 6.1017 11.042 6.17549 10.9656L10.9755 6.16559Z" fill="#6D7175"/>
</svg>
