<svg width="16" height="16" viewBox="0 0 16 16" fill="none" xmlns="http://www.w3.org/2000/svg">
<path fill-rule="evenodd" clip-rule="evenodd" d="M12.0698 1.18059L12.1204 1.22702L14.775 3.88596C15.0755 4.18697 15.0749 4.67354 14.7736 4.97376L14.4878 5.25807L14.493 5.2633L4.72111 15H1.77295C1.36545 15 1.0316 14.6858 1.00209 14.2873L0.999969 14.2298L0.99997 11.2922L10.488 1.77598L10.4807 1.76877L11.0259 1.22559C11.3118 0.940635 11.7661 0.925637 12.0698 1.18059ZM9.32274 5.11096L2.57105 11.9419L2.57105 11.9441L4.06677 13.4344L4.06911 13.4345L10.8699 6.65252L9.32274 5.11096ZM11.5543 2.84387L10.4057 4.01111L11.9628 5.56269L13.1181 4.41046L11.5543 2.84387Z" fill="#6D7175"/>
</svg>
