<svg width="16" height="16" viewBox="0 0 16 16" fill="none" xmlns="http://www.w3.org/2000/svg">
<g clip-path="url(#clip0_16565_43451)">
<path fill-rule="evenodd" clip-rule="evenodd" d="M0 2C0 0.895431 0.895431 0 2 0H14C15.1046 0 16 0.895431 16 2V14C16 15.1046 15.1046 16 14 16H2C0.895431 16 0 15.1046 0 14V2ZM2 1.5H14C14.2761 1.5 14.5 1.72386 14.5 2V14C14.5 14.2761 14.2761 14.5 14 14.5H10.0946V9.60501H11.9542L12.2331 7.44685H10.0946V6.06827C10.0946 5.44246 10.268 5.0169 11.1638 5.0169H12.3064V3.08583C12.1079 3.05901 11.4303 3 10.64 3C8.99139 3 7.86313 4.00666 7.86313 5.85371V7.44506H6V9.60322H7.86492V14.5H2C1.72386 14.5 1.5 14.2761 1.5 14V2C1.5 1.72386 1.72386 1.5 2 1.5Z" fill="#6D7175"/>
</g>
<defs>
<clipPath id="clip0_16565_43451">
<rect width="16" height="16" fill="white"/>
</clipPath>
</defs>
</svg>
