<svg width="16" height="16" viewBox="0 0 16 16" fill="none" xmlns="http://www.w3.org/2000/svg">
<path fill-rule="evenodd" clip-rule="evenodd" d="M1.73507 3.5068C1.97617 2.06024 3.22774 1 4.69425 1H11.3057C12.7723 1 14.0238 2.06024 14.2649 3.5068L15 8V13C15 14.1046 14.1046 15 13 15H3C1.89543 15 1 14.1046 1 13V8L1.73507 3.5068ZM4.69425 3C4.20541 3 3.78822 3.35341 3.70786 3.8356L3 8V9H4.39445C4.98672 9 5.56575 9.17531 6.05855 9.50385L6.8906 10.0585C7.5624 10.5064 8.4376 10.5064 9.1094 10.0585L9.94145 9.50385C10.4343 9.17531 11.0133 9 11.6056 9H13V8L12.2921 3.8356C12.2118 3.35341 11.7946 3 11.3057 3H4.69425Z" fill="#6D7175"/>
</svg>
