<svg width="16" height="16" viewBox="0 0 16 16" fill="none" xmlns="http://www.w3.org/2000/svg">
<g clip-path="url(#clip0_16565_43565)">
<path d="M4.43229 15.5C3.91598 15.5008 3.4046 15.3997 2.92748 15.2024C2.45037 15.0051 2.01692 14.7155 1.65201 14.3502C1.28576 13.9858 0.995371 13.5524 0.797636 13.075C0.599901 12.5977 0.498739 12.0859 0.499999 11.5692C0.499999 10.5177 0.909503 9.52993 1.65201 8.78817L8.78833 1.64885C9.24611 1.19252 9.80919 0.855902 10.4279 0.668715C11.0466 0.481527 11.7018 0.449525 12.3358 0.575535C12.9698 0.701544 13.563 0.981689 14.063 1.39124C14.5631 1.80079 14.9547 2.32715 15.2031 2.92386C15.4007 3.40129 15.5017 3.91317 15.5001 4.42988C15.5017 4.94653 15.4008 5.45837 15.2031 5.93574C15.0055 6.41311 14.7152 6.84653 14.3489 7.2109L11.1553 10.4059C10.8829 10.6779 10.5477 10.8785 10.1794 10.9902C9.81097 11.1018 9.42076 11.1209 9.04322 11.0459C8.66569 10.9708 8.31245 10.804 8.01474 10.56C7.71703 10.316 7.48403 10.0024 7.33631 9.64693C7.21849 9.3626 7.15832 9.05769 7.15931 8.74992C7.15931 8.12366 7.40231 7.53566 7.84482 7.0939L11.2199 3.71812C11.289 3.64649 11.3718 3.58935 11.4633 3.55004C11.5548 3.51074 11.6532 3.49005 11.7528 3.48918C11.8524 3.48832 11.9511 3.50729 12.0433 3.545C12.1355 3.58271 12.2192 3.6384 12.2897 3.70882C12.3601 3.77925 12.4158 3.86299 12.4535 3.95516C12.4912 4.04733 12.5102 4.14609 12.5093 4.24568C12.5084 4.34526 12.4877 4.44368 12.4484 4.53518C12.4091 4.62669 12.352 4.70945 12.2804 4.77863L8.90533 8.15441C8.82688 8.2324 8.76473 8.32521 8.7225 8.42745C8.68026 8.52969 8.65879 8.6393 8.65933 8.74992C8.65873 8.86046 8.68007 8.97002 8.72212 9.07226C8.76417 9.17449 8.82609 9.26736 8.90429 9.34549C8.98249 9.42362 9.07542 9.48546 9.17769 9.52742C9.27996 9.56938 9.38954 9.59062 9.50008 9.58993C9.72284 9.58993 9.93659 9.50143 10.0948 9.34467L13.2884 6.14964C13.5148 5.92424 13.6942 5.6562 13.8164 5.36101C13.9386 5.06582 14.001 4.74935 14.0001 4.42988C14.0001 3.78037 13.7474 3.16912 13.2884 2.71011C12.8318 2.25496 12.2133 1.99937 11.5686 1.99937C10.9239 1.99937 10.3055 2.25496 9.84884 2.71011L2.71252 9.84868C2.48584 10.0742 2.30615 10.3425 2.18385 10.6379C2.06155 10.9334 1.99906 11.2502 2.00001 11.5699C2.00001 12.2195 2.25352 12.83 2.71252 13.2897C3.16914 13.7449 3.78757 14.0004 4.43229 14.0004C5.07701 14.0004 5.69544 13.7449 6.15205 13.2897L7.46982 11.9712C7.539 11.8996 7.62176 11.8424 7.71326 11.8031C7.80477 11.7638 7.90318 11.7431 8.00277 11.7423C8.10236 11.7414 8.20112 11.7604 8.29329 11.7981C8.38546 11.8358 8.4692 11.8915 8.53962 11.9619C8.61004 12.0323 8.66573 12.1161 8.70344 12.2082C8.74115 12.3004 8.76013 12.3992 8.75926 12.4988C8.7584 12.5983 8.73771 12.6968 8.6984 12.7883C8.6591 12.8798 8.60196 12.9625 8.53032 13.0317L7.21256 14.3502C6.84746 14.7152 6.41397 15.0046 5.9369 15.2019C5.45983 15.3992 4.94854 15.5005 4.43229 15.5Z" fill="#6D7175"/>
<path fill-rule="evenodd" clip-rule="evenodd" d="M4.43229 15.5C3.91598 15.5008 3.4046 15.3997 2.92748 15.2024C2.45037 15.0051 2.01692 14.7155 1.65201 14.3502C1.28576 13.9858 0.995371 13.5524 0.797636 13.075C0.599901 12.5977 0.498739 12.0859 0.499999 11.5692C0.499999 10.5177 0.909503 9.52993 1.65201 8.78817L8.78833 1.64885C9.24611 1.19252 9.80919 0.855902 10.4279 0.668715C11.0466 0.481527 11.7018 0.449525 12.3358 0.575535C12.9698 0.701544 13.563 0.981689 14.063 1.39124C14.5631 1.80079 14.9547 2.32715 15.2031 2.92386C15.4007 3.40129 15.5017 3.91317 15.5001 4.42988C15.5017 4.94653 15.4008 5.45837 15.2031 5.93574C15.0055 6.41311 14.7152 6.84653 14.3489 7.2109L11.1553 10.4059C10.8829 10.6779 10.5477 10.8785 10.1794 10.9902C9.81097 11.1018 9.42076 11.1209 9.04322 11.0459C8.66569 10.9708 8.31245 10.804 8.01474 10.56C7.71703 10.316 7.48403 10.0024 7.33631 9.64693C7.21849 9.3626 7.15832 9.05769 7.15931 8.74992C7.15931 8.12366 7.40231 7.53566 7.84482 7.0939L11.2199 3.71812C11.289 3.64649 11.3718 3.58935 11.4633 3.55004C11.5548 3.51074 11.6532 3.49005 11.7528 3.48918C11.8524 3.48832 11.9511 3.50729 12.0433 3.545C12.1355 3.58271 12.2192 3.6384 12.2897 3.70882C12.3601 3.77925 12.4158 3.86299 12.4535 3.95516C12.4912 4.04733 12.5102 4.14609 12.5093 4.24568C12.5084 4.34526 12.4877 4.44368 12.4484 4.53518C12.4091 4.62669 12.352 4.70945 12.2804 4.77863L8.90533 8.15441C8.82688 8.2324 8.76473 8.32521 8.7225 8.42745C8.68026 8.52969 8.65879 8.6393 8.65933 8.74992C8.65873 8.86046 8.68007 8.97002 8.72212 9.07226C8.76417 9.17449 8.82609 9.26736 8.90429 9.34549C8.98249 9.42362 9.07542 9.48546 9.17769 9.52742C9.27996 9.56938 9.38954 9.59062 9.50008 9.58993C9.72284 9.58993 9.93659 9.50143 10.0948 9.34467L13.2884 6.14964C13.5148 5.92424 13.6942 5.6562 13.8164 5.36101C13.9386 5.06582 14.001 4.74935 14.0001 4.42988C14.0001 3.78037 13.7474 3.16912 13.2884 2.71011C12.8318 2.25496 12.2133 1.99937 11.5686 1.99937C10.9239 1.99937 10.3055 2.25496 9.84884 2.71011L2.71252 9.84868C2.48584 10.0742 2.30615 10.3425 2.18385 10.6379C2.06155 10.9334 1.99906 11.2502 2.00001 11.5699C2.00001 12.2195 2.25352 12.83 2.71252 13.2897C3.16914 13.7449 3.78757 14.0004 4.43229 14.0004C5.07701 14.0004 5.69544 13.7449 6.15205 13.2897L7.46982 11.9712C7.539 11.8996 7.62176 11.8424 7.71326 11.8031C7.80477 11.7638 7.90318 11.7431 8.00277 11.7423C8.10236 11.7414 8.20112 11.7604 8.29329 11.7981C8.38546 11.8358 8.4692 11.8915 8.53962 11.9619C8.61004 12.0323 8.66573 12.1161 8.70344 12.2082C8.74115 12.3004 8.76013 12.3992 8.75926 12.4988C8.7584 12.5983 8.73771 12.6968 8.6984 12.7883C8.6591 12.8798 8.60196 12.9625 8.53032 13.0317L7.21256 14.3502C6.84746 14.7152 6.41397 15.0046 5.9369 15.2019C5.45983 15.3992 4.94854 15.5005 4.43229 15.5ZM6.01086 13.1481L7.32721 11.831C7.41459 11.7408 7.51897 11.6689 7.63433 11.6194C7.75023 11.5696 7.87489 11.5434 8.00103 11.5423C8.12717 11.5412 8.25227 11.5652 8.36902 11.613C8.48577 11.6607 8.59184 11.7313 8.68104 11.8205C8.77024 11.9097 8.84078 12.0157 8.88855 12.1325C8.93632 12.2493 8.96035 12.3744 8.95926 12.5005C8.95816 12.6266 8.93195 12.7513 8.88217 12.8672C8.83262 12.9825 8.76072 13.0869 8.67062 13.1743L7.35402 14.4916C6.97032 14.8752 6.5147 15.1794 6.01333 15.3867C5.51204 15.594 4.97481 15.7005 4.43235 15.7C3.8898 15.7008 3.35242 15.5945 2.85105 15.3872C2.3496 15.1798 1.89404 14.8755 1.51052 14.4916C1.12573 14.1086 0.820636 13.6531 0.612861 13.1516C0.405043 12.6499 0.298707 12.112 0.299999 11.569C0.300063 10.4645 0.730628 9.42592 1.51066 8.64668L8.64688 1.50746C9.12791 1.02795 9.71985 0.67398 10.37 0.477285C11.0201 0.280589 11.7086 0.246962 12.3748 0.379372C13.0409 0.511782 13.6643 0.806156 14.1898 1.23651C14.7152 1.66686 15.1267 2.21996 15.3878 2.84698C15.5954 3.34866 15.7017 3.88692 15.7001 4.42987C15.7017 4.97278 15.5956 5.5106 15.3879 6.01223C15.1803 6.51392 14.8751 6.96943 14.4902 7.35241L11.2968 10.5473C11.0011 10.8425 10.6372 11.0604 10.2373 11.1816C9.83752 11.3027 9.414 11.3235 9.00424 11.242C8.59447 11.1606 8.21109 10.9795 7.88797 10.7146C7.56485 10.4498 7.31195 10.1095 7.15163 9.72368C7.0237 9.41497 6.95828 9.08375 6.95931 8.7496C6.9594 8.07059 7.22334 7.43172 7.70352 6.95236L11.0772 3.57789C11.1646 3.48776 11.269 3.41583 11.3844 3.36628C11.5003 3.31649 11.6249 3.29028 11.7511 3.28919C11.8772 3.28809 12.0023 3.31213 12.1191 3.3599C12.2358 3.40766 12.3419 3.4782 12.4311 3.5674C12.5203 3.6566 12.5908 3.76267 12.6386 3.87943C12.6864 3.99618 12.7104 4.12127 12.7093 4.24741C12.7082 4.37356 12.682 4.49822 12.6322 4.61412C12.5827 4.72946 12.5107 4.83382 12.4206 4.92119L9.04677 8.29582C8.98713 8.3551 8.93945 8.42609 8.90735 8.50381C8.87524 8.58153 8.85892 8.66486 8.85932 8.74895L8.85933 8.751C8.85887 8.83508 8.8751 8.91842 8.90709 8.99618C8.93907 9.07394 8.98617 9.14458 9.04565 9.20401C9.10513 9.26344 9.17581 9.31047 9.2536 9.34238C9.3314 9.3743 9.41474 9.39046 9.49882 9.38993L9.50008 9.38992C9.66964 9.38993 9.83278 9.32259 9.95379 9.20288L13.1469 6.00826C13.3546 5.8015 13.5195 5.55529 13.6316 5.28453C13.7437 5.01376 13.8009 4.72347 13.8001 4.43044C13.8001 3.8339 13.5684 3.27302 13.147 2.85161C12.7279 2.43391 12.1603 2.19937 11.5686 2.19937C10.9769 2.19937 10.4092 2.43394 9.99012 2.85167L2.85396 9.99008C2.64604 10.197 2.48083 10.4434 2.36864 10.7144C2.25646 10.9855 2.19914 11.276 2.20001 11.5694C2.20001 12.1655 2.43225 12.7258 2.85379 13.1481C3.27291 13.5659 3.84053 13.8004 4.43229 13.8004C5.02406 13.8004 5.59173 13.5658 6.01086 13.1481Z" fill="#6D7175"/>
</g>
<defs>
<clipPath id="clip0_16565_43565">
<rect width="16" height="16" fill="white"/>
</clipPath>
</defs>
</svg>
