<svg width="16" height="16" viewBox="0 0 16 16" fill="none" xmlns="http://www.w3.org/2000/svg">
<path fill-rule="evenodd" clip-rule="evenodd" d="M6.08135 0.714564C6.16444 0.299076 6.52926 0 6.95297 0H9.0511C9.47482 0 9.83963 0.299075 9.92273 0.714563L10.2165 2.18337C10.8425 2.42185 11.4202 2.75851 11.9305 3.17452L13.3512 2.69391C13.7526 2.55813 14.194 2.72453 14.4059 3.09148L15.455 4.90851C15.6668 5.27546 15.5902 5.74093 15.2719 6.02064L14.146 7.01018C14.1975 7.33253 14.2243 7.66314 14.2243 8C14.2243 8.33686 14.1975 8.66746 14.146 8.98981L15.2719 9.97934C15.5902 10.2591 15.6668 10.7245 15.455 11.0915L14.4059 12.9085C14.194 13.2755 13.7526 13.4419 13.3512 13.3061L11.9306 12.8255C11.4202 13.2415 10.8425 13.5781 10.2165 13.8166L9.92273 15.2854C9.83963 15.7009 9.47482 16 9.0511 16H6.95297C6.52926 16 6.16444 15.7009 6.08135 15.2854L5.78758 13.8166C5.16153 13.5781 4.5839 13.2415 4.07353 12.8255L2.65283 13.3061C2.25145 13.4419 1.81004 13.2755 1.59818 12.9085L0.549119 11.0915C0.337261 10.7245 0.413861 10.2591 0.732136 9.97936L1.85811 8.98982C1.80658 8.66747 1.77981 8.33686 1.77981 8C1.77981 7.66314 1.80658 7.33254 1.85811 7.01019L0.732136 6.02066C0.413861 5.74095 0.337261 5.27547 0.549119 4.90852L1.59818 3.09149C1.81004 2.72454 2.25145 2.55814 2.65283 2.69392L4.07352 3.17452C4.5839 2.75851 5.16152 2.42186 5.78758 2.18337L6.08135 0.714564ZM8.00204 10.6667C9.4748 10.6667 10.6687 9.47276 10.6687 8C10.6687 6.52724 9.4748 5.33333 8.00204 5.33333C6.52928 5.33333 5.33537 6.52724 5.33537 8C5.33537 9.47276 6.52928 10.6667 8.00204 10.6667Z" fill="#6D7175"/>
</svg>
