<svg width="16" height="16" viewBox="0 0 16 16" fill="none" xmlns="http://www.w3.org/2000/svg">
<g clip-path="url(#clip0_16565_43594)">
<path d="M15.9425 11.7056C15.8316 11.3977 15.6191 11.2343 15.3784 11.0978C15.3331 11.0708 15.2909 11.0486 15.2566 11.0327C15.1847 10.9946 15.1112 10.9581 15.0378 10.9201C14.2862 10.5154 13.6987 10.0044 13.2924 9.39972C13.1549 9.195 13.0596 9.01091 12.9924 8.86015C12.958 8.75858 12.9596 8.70145 12.9846 8.64908C13.0033 8.6094 13.0533 8.56814 13.0814 8.54751C13.2111 8.46023 13.3439 8.37294 13.4346 8.31422C13.5955 8.20789 13.7237 8.12379 13.8049 8.06665C14.1143 7.84765 14.3299 7.61436 14.4643 7.3541C14.655 6.9875 14.6784 6.56854 14.5315 6.17497C14.3284 5.62904 13.819 5.28943 13.2033 5.28943C13.0752 5.28943 12.9455 5.30371 12.8174 5.33228C12.783 5.34021 12.7502 5.34815 12.7174 5.35608C12.7236 4.98473 12.7142 4.58798 12.6814 4.20075C12.5658 2.83595 12.0954 2.12021 11.6048 1.55049C11.4001 1.31244 11.0438 0.964888 10.5094 0.653838C9.76405 0.219004 8.92025 0 7.99989 0C7.08265 0 6.23885 0.219004 5.49349 0.652252C4.95596 0.963301 4.59969 1.31244 4.39655 1.5489C3.9059 2.11863 3.43556 2.83436 3.31993 4.19917C3.28711 4.58639 3.2793 4.98314 3.28399 5.35449C3.25117 5.34656 3.21679 5.33862 3.18398 5.33069C3.05585 5.30212 2.92459 5.28784 2.79802 5.28784C2.18236 5.28784 1.67295 5.62745 1.46982 6.17338C1.32293 6.56695 1.34637 6.98592 1.53701 7.35251C1.67139 7.61278 1.88859 7.84606 2.19642 8.06507C2.27924 8.12378 2.40581 8.2079 2.56676 8.31264C2.65426 8.36977 2.78083 8.45388 2.90584 8.53799C2.92459 8.55068 2.99178 8.60147 3.01522 8.64908C3.04178 8.70304 3.04178 8.76175 3.00272 8.86967C2.93709 9.01726 2.84177 9.19817 2.70739 9.39813C2.30893 9.99008 1.73858 10.4916 1.01198 10.8915C0.626018 11.0994 0.225994 11.2375 0.0572343 11.704C-0.0708982 12.0563 0.0134817 12.4578 0.336938 12.7959C0.443194 12.9117 0.577577 13.0149 0.746337 13.1101C1.14324 13.3323 1.48076 13.4418 1.7464 13.5164C1.79327 13.5306 1.90109 13.5656 1.94797 13.6084C2.06673 13.7132 2.04954 13.8719 2.20736 14.1036C2.30268 14.248 2.41206 14.3464 2.50269 14.4098C2.8324 14.6415 3.20429 14.6558 3.59807 14.6717C3.95277 14.686 4.35592 14.7018 4.81533 14.8558C5.00596 14.9193 5.20441 15.043 5.43255 15.1859C5.98258 15.5303 6.73731 16 7.99832 16C9.2609 16 10.0188 15.5271 10.5735 15.1827C10.8016 15.0415 10.9985 14.9177 11.1829 14.8558C11.6423 14.7018 12.0454 14.686 12.4001 14.6717C12.7939 14.6558 13.1643 14.6415 13.4955 14.4098C13.5987 14.3368 13.7299 14.2178 13.833 14.0369C13.9455 13.8417 13.944 13.7036 14.0502 13.61C14.094 13.5719 14.1893 13.5386 14.2409 13.5227C14.5081 13.4481 14.8503 13.3386 15.255 13.1117C15.4347 13.0117 15.5738 12.9022 15.6847 12.7768C15.6863 12.7752 15.6878 12.7737 15.6894 12.7721C15.991 12.4388 16.0675 12.05 15.9425 11.7056ZM14.8222 12.3166C14.1377 12.7007 13.683 12.6594 13.3299 12.8895C13.0299 13.0863 13.2064 13.51 12.9892 13.6624C12.7205 13.8512 11.9282 13.6497 10.9047 13.9925C10.0609 14.2765 9.52185 15.0907 8.00145 15.0907C6.47792 15.0907 5.95445 14.2797 5.09815 13.9925C4.07466 13.6497 3.28086 13.8512 3.01366 13.6624C2.79646 13.51 2.97303 13.0863 2.67301 12.8895C2.31987 12.6578 1.86515 12.6991 1.18074 12.3166C0.744774 12.0722 0.991664 11.9214 1.13698 11.85C3.61526 10.6328 4.00903 8.75064 4.02778 8.6094C4.04966 8.44118 4.07309 8.30788 3.89027 8.13489C3.7137 7.96826 2.92771 7.47471 2.71051 7.32077C2.34956 7.06527 2.19173 6.80976 2.30893 6.49554C2.39018 6.27812 2.5902 6.19718 2.80114 6.19718C2.86677 6.19718 2.93397 6.20512 2.99803 6.2194C3.39337 6.30669 3.77776 6.50823 3.99965 6.56219C4.0309 6.57012 4.05747 6.5733 4.08091 6.5733C4.19966 6.5733 4.24029 6.51299 4.23248 6.37493C4.20748 5.93533 4.14497 5.07836 4.21373 4.27693C4.30748 3.17556 4.6575 2.62964 5.07315 2.14561C5.27316 1.91391 6.21072 0.907756 8.00301 0.907756C9.79999 0.907756 10.7329 1.91391 10.9329 2.14561C11.3485 2.62805 11.6985 3.17397 11.7923 4.27693C11.8611 5.07836 11.8017 5.93533 11.7735 6.37493C11.7642 6.51934 11.8079 6.5733 11.9251 6.5733C11.9486 6.5733 11.9767 6.57012 12.0064 6.56219C12.2283 6.50823 12.6127 6.30669 13.008 6.2194C13.0721 6.20512 13.1392 6.19718 13.2049 6.19718C13.4158 6.19718 13.6158 6.27971 13.6971 6.49554C13.8143 6.80976 13.6549 7.06527 13.2955 7.32077C13.0783 7.47471 12.2923 7.96826 12.1158 8.13489C11.9329 8.30629 11.9564 8.4396 11.9782 8.6094C11.9954 8.75064 12.3908 10.6328 14.869 11.85C15.0097 11.9214 15.2581 12.0722 14.8222 12.3166Z" fill="#6D7175"/>
</g>
<defs>
<clipPath id="clip0_16565_43594">
<rect width="16" height="16" fill="white"/>
</clipPath>
</defs>
</svg>
