<svg width="16" height="16" viewBox="0 0 16 16" fill="none" xmlns="http://www.w3.org/2000/svg">
<g clip-path="url(#clip0_16565_43513)">
<path fill-rule="evenodd" clip-rule="evenodd" d="M0.811188 4.66879L1.29919 1.80239C1.34995 1.51966 1.49903 1.26398 1.72009 1.08055C1.94115 0.897112 2.21994 0.797739 2.50719 0.799995H13.4936C14.092 0.799995 14.6032 1.22399 14.7016 1.80239L15.1888 4.66879C15.272 5.15679 14.888 5.59999 14.3832 5.59999H13.6552C13.1912 5.59999 12.7672 5.34319 12.5592 4.93599L12.0816 3.99999L11.604 4.93599C11.396 5.34319 10.972 5.59999 10.508 5.59999H9.57279C9.10879 5.59999 8.68479 5.34319 8.47759 4.93599L7.99999 3.99999L7.52239 4.93599C7.31439 5.34319 6.89039 5.59999 6.42639 5.59999H5.49119C5.02719 5.59999 4.60319 5.34319 4.39599 4.93599L3.91839 3.99999L3.43999 4.93599C3.23279 5.34319 2.80879 5.59999 2.34479 5.59999H1.61679C1.11279 5.59999 0.728788 5.15599 0.811188 4.66879ZM6.23439 7.03439C6.08441 7.18442 6.00016 7.38786 6.00016 7.59999C6.00016 7.81213 6.08441 8.01557 6.23439 8.16559L6.86879 8.79999H1.59999C1.38781 8.79999 1.18433 8.88428 1.0343 9.03431C0.884273 9.18434 0.799988 9.38782 0.799988 9.59999C0.799988 9.81217 0.884273 10.0157 1.0343 10.1657C1.18433 10.3157 1.38781 10.4 1.59999 10.4H6.86879L6.23439 11.0344C6.08866 11.1853 6.00803 11.3874 6.00985 11.5971C6.01167 11.8069 6.09581 12.0075 6.24413 12.1558C6.39246 12.3042 6.59311 12.3883 6.80287 12.3901C7.01262 12.392 7.21471 12.3113 7.36559 12.1656L9.36559 10.1656C9.51519 10.0163 9.59948 9.81375 9.59999 9.60239V9.59759C9.5996 9.38974 9.51808 9.19024 9.37279 9.04159L9.36479 9.03359L7.36559 7.03359C7.21557 6.88362 7.01212 6.79937 6.79999 6.79937C6.58786 6.79937 6.38441 6.88362 6.23439 7.03359V7.03439ZM14.4 7.19999H12.8V13.6H3.19999V12H1.59999V14C1.59999 14.3183 1.72642 14.6235 1.95146 14.8485C2.1765 15.0736 2.48173 15.2 2.79999 15.2H13.2C13.5182 15.2 13.8235 15.0736 14.0485 14.8485C14.2736 14.6235 14.4 14.3183 14.4 14V7.19999Z" fill="#6D7175"/>
</g>
<defs>
<clipPath id="clip0_16565_43513">
<rect width="16" height="16" fill="white"/>
</clipPath>
</defs>
</svg>
