<svg width="16" height="16" viewBox="0 0 16 16" fill="none" xmlns="http://www.w3.org/2000/svg">
<path fill-rule="evenodd" clip-rule="evenodd" d="M4.03241 3.67186C4.27025 1.80277 5.86647 0.357788 7.80018 0.357788C9.73388 0.357788 11.3301 1.80277 11.5679 3.67186H13.0367C13.556 3.67186 13.9889 4.06933 14.0331 4.58673L14.8874 14.5867C14.9373 15.1705 14.4769 15.6719 13.8911 15.6719H1.7093C1.1234 15.6719 0.663016 15.1704 0.712938 14.5867L1.56809 4.58665C1.61234 4.06929 2.0452 3.67186 2.56446 3.67186H4.03241ZM7.80018 1.75779C8.95885 1.75779 9.92562 2.57943 10.1496 3.67186H5.45074C5.67474 2.57943 6.6415 1.75779 7.80018 1.75779ZM5.1502 8.31277C5.64726 8.31277 6.0502 7.90983 6.0502 7.41277C6.0502 6.91572 5.64726 6.51277 5.1502 6.51277C4.65315 6.51277 4.2502 6.91572 4.2502 7.41277C4.2502 7.90983 4.65315 8.31277 5.1502 8.31277ZM10.4502 8.31277C10.9472 8.31277 11.3502 7.90983 11.3502 7.41277C11.3502 6.91572 10.9472 6.51277 10.4502 6.51277C9.95313 6.51277 9.55019 6.91572 9.55019 7.41277C9.55019 7.90983 9.95313 8.31277 10.4502 8.31277Z" fill="#6D7175"/>
</svg>
