<svg width="16" height="16" viewBox="0 0 16 16" fill="none" xmlns="http://www.w3.org/2000/svg">
<path d="M12.4 6.60002C12.7314 6.60002 13 6.33139 13 6.00002C13 5.66865 12.7314 5.40002 12.4 5.40002H9.6C9.26863 5.40002 9 5.66865 9 6.00002C9 6.33139 9.26863 6.60002 9.6 6.60002H12.4Z" fill="#6D7175"/>
<path d="M12.4 8.60002C12.7314 8.60002 13 8.33139 13 8.00002C13 7.66865 12.7314 7.40002 12.4 7.40002H9.6C9.26863 7.40002 9 7.66865 9 8.00002C9 8.33139 9.26863 8.60002 9.6 8.60002H12.4Z" fill="#6D7175"/>
<path d="M10 10C10 10.3314 10.2686 10.6 10.6 10.6H12.4C12.7314 10.6 13 10.3314 13 10C13 9.66865 12.7314 9.40002 12.4 9.40002H10.6C10.2686 9.40002 10 9.66865 10 10Z" fill="#6D7175"/>
<path d="M6.79215 7.56111C6.51292 7.84035 6.13471 7.998 5.73982 7.99979C4.92197 7.99979 4.24923 7.30887 4.24923 6.49102C4.24856 6.29506 4.28665 6.10091 4.36132 5.91974C4.43599 5.73856 4.54575 5.57395 4.68429 5.43536C4.82284 5.29678 4.98742 5.18697 5.16857 5.11226C5.34973 5.03754 5.54387 4.99939 5.73982 5C6.57629 5 7.23082 5.69093 7.23082 6.50879C7.22904 6.90368 7.07138 7.28188 6.79215 7.56111Z" fill="#6D7175"/>
<path d="M6.22655 8.27471C7.29869 8.27471 8.19423 8.81806 8.46713 9.83605C8.5399 10.1267 8.48532 10.4178 8.30381 10.6361C8.12187 10.8726 7.86717 11 7.57608 11H3.92219C3.63109 11 3.37638 10.8726 3.19445 10.6361C3.10705 10.5246 3.04681 10.3942 3.01846 10.2553C2.99012 10.1165 2.99446 9.97294 3.03114 9.83605C3.17 9.35731 3.35422 9.0778 3.76499 8.76233C4.17575 8.44685 4.83577 8.27548 5.3537 8.27471H6.22655Z" fill="#6D7175"/>
<path fill-rule="evenodd" clip-rule="evenodd" d="M1.2 1C0.537258 1 0 1.53726 0 2.2V13.8C0 14.4627 0.537258 15 1.2 15H14.8C15.4627 15 16 14.4627 16 13.8L16 2.2C16 1.53726 15.4627 1 14.8 1H1.2ZM1.4 2.4V13.6H14.6V2.4H1.4Z" fill="#6D7175"/>
</svg>
