<svg width="17" height="16" viewBox="0 0 17 16" fill="none" xmlns="http://www.w3.org/2000/svg">
<path d="M8.00599 3.948C5.95899 3.948 4.35199 5.568 4.35199 7.631C4.35199 8.074 4.42599 8.59 4.64399 8.958L2.52599 11.094C1.42999 10.137 0.553992 8.958 0.0419922 7.631C0.665644 6.0054 1.76749 4.60707 3.20215 3.62051C4.63681 2.63396 6.33686 2.10555 8.07799 2.105C9.10199 2.105 10.051 2.326 11.001 2.622L9.39299 4.242C8.95499 4.021 8.44399 3.948 8.00599 3.948ZM15.311 1.958L13.631 3.653L13.339 3.948C14.581 4.905 15.53 6.158 16.042 7.631C15.4183 9.25661 14.3165 10.6549 12.8818 11.6415C11.4472 12.628 9.74712 13.1564 8.00599 13.157C6.90999 13.157 5.81399 12.937 4.79099 12.568L4.49799 12.863L2.37999 15L1.42999 14.042L14.362 1L15.311 1.958ZM11.293 6.01L10.197 7.115V7.631C10.197 8.884 9.24699 9.841 8.00599 9.841C7.85899 9.841 7.71299 9.841 7.49399 9.768L6.39799 10.873C6.8836 11.1643 7.43969 11.3172 8.00599 11.315C10.051 11.315 11.658 9.695 11.658 7.631C11.658 7.042 11.513 6.526 11.293 6.011V6.01ZM8.15099 5.42L5.88699 7.706V7.557C5.88699 6.305 6.83599 5.347 8.07799 5.347C8.07799 5.421 8.07799 5.421 8.15099 5.421V5.42Z" fill="#6D7175"/>
</svg>
