<svg width="16" height="16" viewBox="0 0 16 16" fill="none" xmlns="http://www.w3.org/2000/svg">
<path d="M9.09469 11.7971V1.00002H6.44563V6.04704C3.26424 4.47769 0 6.66976 0 10.2629C0 12.8191 1.45636 15.1066 4.21841 15.0513C4.79724 15.0585 5.36548 14.8959 5.85283 14.5835C6.34017 14.2711 6.72523 13.8226 6.96037 13.2937V13.5448C7.01813 15.1317 8.64523 15.1518 9.97352 14.8505L9.94339 13.1204C9.12482 13.1807 9.09469 12.686 9.09469 11.7971ZM6.52849 10.6245C6.52849 11.7394 5.7752 12.7036 4.63021 12.7036C3.21151 12.7036 2.62144 11.5711 2.62144 10.2629C2.62144 7.97797 4.63021 7.18199 6.51845 8.27928L6.52849 10.6245Z" fill="#6D7175"/>
<path d="M16.0001 8.26421H13.3686V10.8957H16.0001V8.26421Z" fill="#6D7175"/>
</svg>
