<svg width="16" height="16" viewBox="0 0 16 16" fill="none" xmlns="http://www.w3.org/2000/svg">
<path d="M7.15253 5.91893C7.15253 6.56061 6.63234 7.08079 5.99066 7.08079C5.34898 7.08079 4.82879 6.56061 4.82879 5.91893C4.82879 5.27725 5.34898 4.75706 5.99066 4.75706C6.63234 4.75706 7.15253 5.27725 7.15253 5.91893Z" fill="#6D7175"/>
<path d="M9.99367 11.2429C10.6354 11.2429 11.1555 10.7227 11.1555 10.0811C11.1555 9.43937 10.6354 8.91919 9.99367 8.91919C9.35199 8.91919 8.8318 9.43937 8.8318 10.0811C8.8318 10.7227 9.35199 11.2429 9.99367 11.2429Z" fill="#6D7175"/>
<path d="M5.01223 10.9878C4.72346 10.699 4.72346 10.2309 5.01223 9.9421L9.94201 5.01232C10.2308 4.72355 10.699 4.72355 10.9877 5.01232C11.2765 5.30108 11.2765 5.76926 10.9877 6.05803L6.05794 10.9878C5.76917 11.2766 5.30099 11.2766 5.01223 10.9878Z" fill="#6D7175"/>
<path fill-rule="evenodd" clip-rule="evenodd" d="M8.797 14.8627C8.51894 15.0842 8.20518 15.2566 7.8692 15.3727L7.86549 15.374C7.60272 15.454 7.32979 15.4958 7.05512 15.4982C6.33845 15.4982 5.7635 15.1912 5.31217 14.7973C4.87901 14.4193 4.55433 13.9573 4.31959 13.6002C3.37381 13.4829 2.59819 13.1552 2.05445 12.6568C1.49961 12.1483 1.19209 11.4672 1.19032 10.6696L1.19031 10.6668C1.19836 10.3348 1.25127 10.0053 1.34752 9.68743C1.38528 9.54385 1.42011 9.40961 1.44563 9.26856C1.35912 9.11223 1.26225 8.96185 1.15567 8.81841C0.933213 8.53258 0.756394 8.214 0.631505 7.87402L0.629728 7.86918C0.331279 6.91552 0.584853 6.14714 1.01387 5.55557C1.42478 4.98896 1.99756 4.58271 2.39735 4.32093C2.49467 3.38476 2.82909 2.60767 3.34936 2.06062C3.88014 1.50253 4.5988 1.19001 5.43741 1.19001C5.69297 1.19092 5.94818 1.21742 6.19846 1.26913L6.2001 1.26947C6.30117 1.29202 6.40039 1.32215 6.49695 1.35957L6.49847 1.36016C6.57911 1.39286 6.6633 1.41594 6.74929 1.42892C6.96935 1.34819 7.17452 1.23142 7.35638 1.08335L7.35802 1.08202C7.59271 0.898648 7.85195 0.749106 8.12817 0.637726L8.1352 0.63489C8.40393 0.548319 8.68441 0.503618 8.96674 0.501831C10.3352 0.501833 11.1971 1.62597 11.7149 2.36715C13.5812 2.58352 14.8256 3.70659 14.8526 5.29467L14.8527 5.29784C14.8481 5.65578 14.7941 6.01137 14.6923 6.35456C14.6562 6.49775 14.6226 6.63246 14.5964 6.76925C14.6842 6.93392 14.7806 7.09383 14.8853 7.24829L14.8863 7.24966L14.8878 7.25206C15.1708 7.68386 15.4777 8.15208 15.4987 8.89037C15.5405 10.3635 14.5681 11.0517 13.7544 11.6276L13.7495 11.6311C13.7131 11.6582 13.6771 11.6841 13.6416 11.7093C13.5275 12.6333 13.2044 13.3952 12.7122 13.9341C12.2105 14.4833 11.5379 14.7953 10.7498 14.8121L10.6887 14.8145C10.3502 14.8055 10.0144 14.7515 9.68999 14.6544C9.54597 14.6171 9.41145 14.5826 9.27171 14.5564C9.1064 14.6471 8.94776 14.7494 8.797 14.8627ZM3.84468 4.65803C3.83421 4.81511 3.78707 4.96756 3.70705 5.10314C3.62703 5.23872 3.51635 5.35366 3.38389 5.43874C2.76686 5.8345 2.3798 6.16806 2.17406 6.48719C1.97463 6.79654 1.94259 7.09678 2.05078 7.44626C2.13344 7.6393 2.24083 7.82079 2.37025 7.98619L2.37132 7.98756C2.56227 8.24006 2.7254 8.51245 2.85788 8.79998L2.85937 8.80321C2.93061 8.97262 2.95432 9.15826 2.92804 9.34015L2.92784 9.34154C2.89123 9.57319 2.84149 9.80258 2.77889 10.0286L2.77792 10.0321C2.71573 10.2298 2.67924 10.4347 2.66946 10.6417C2.67173 11.2175 2.97292 11.5742 3.37578 11.8014C3.78454 12.0319 4.29282 12.1247 4.68041 12.1606C4.83237 12.1736 4.97935 12.2212 5.11001 12.2999C5.24072 12.3786 5.35162 12.4863 5.43414 12.6146C5.66063 12.9638 5.90431 13.3158 6.17746 13.5805C6.45037 13.8449 6.74101 14.0108 7.06165 14.011C7.19563 14.0089 7.32864 13.9879 7.45671 13.9485C7.63801 13.8767 7.80693 13.7768 7.9573 13.6526L7.96062 13.6499C8.21792 13.4544 8.49552 13.2872 8.78854 13.151L8.79018 13.1503C8.91781 13.0936 9.05591 13.0643 9.19555 13.0642C9.24606 13.0634 9.29652 13.0675 9.34624 13.0763C9.57516 13.1115 9.80181 13.1601 10.025 13.2219L10.0275 13.2226C10.2334 13.2852 10.4461 13.3224 10.661 13.3333L10.6892 13.3313C11.2639 13.3194 11.619 13.0201 11.844 12.6257C12.0721 12.2259 12.1631 11.7323 12.1972 11.3565C12.2101 11.2141 12.2533 11.0761 12.3238 10.9517C12.3944 10.8273 12.4907 10.7194 12.6063 10.6352C12.6945 10.5707 12.7821 10.5084 12.8708 10.4463C13.3009 10.1405 13.589 9.91787 13.7694 9.69056C13.9439 9.47074 14.0188 9.24449 14.0096 8.92202C14.0007 8.59294 13.875 8.39632 13.6359 8.03107L13.6366 8.03207L13.7236 7.97221L13.6352 8.03007L13.6359 8.03107C13.4677 7.78652 13.3192 7.52903 13.1918 7.261L13.1911 7.25954C13.1102 7.08246 13.0828 6.88559 13.1123 6.69314C13.1485 6.46873 13.1962 6.24541 13.2548 6.02577L13.2558 6.02196C13.3234 5.80212 13.3619 5.57442 13.3705 5.34461C13.3611 4.84421 13.1106 4.48527 12.7377 4.23725C12.3605 3.98636 11.8599 3.85135 11.3702 3.81165C11.2214 3.80012 11.0774 3.75557 10.948 3.68119C10.8186 3.60681 10.7075 3.5045 10.6226 3.38171C10.36 3.00214 10.1023 2.65141 9.82649 2.39541C9.55165 2.14029 9.26949 1.98918 8.95767 1.98897C8.82547 1.99066 8.69424 2.01162 8.56812 2.05116C8.43773 2.1256 8.31157 2.20724 8.19024 2.29569L8.18833 2.29707L8.17866 2.30377C7.79096 2.5734 7.3764 2.86172 6.89662 2.90317C6.8553 2.90788 6.81374 2.91019 6.77215 2.9101L6.76855 2.91009C6.5181 2.901 6.27109 2.84878 6.03835 2.75585L6.00892 2.74538C5.97262 2.73239 5.94563 2.72292 5.93173 2.71956C5.77766 2.6879 5.62083 2.67154 5.46353 2.67073C4.77557 2.67082 4.38389 3.03893 4.15438 3.47382C3.9218 3.91452 3.86037 4.41849 3.84468 4.65803Z" fill="#6D7175"/>
</svg>
