<svg width="16" height="16" viewBox="0 0 16 16" fill="none" xmlns="http://www.w3.org/2000/svg">
<path d="M7.19999 5.59999C10.7346 5.59999 13.6 4.52547 13.6 3.19999C13.6 1.87451 10.7346 0.799988 7.19999 0.799988C3.66536 0.799988 0.799988 1.87451 0.799988 3.19999C0.799988 4.52547 3.66536 5.59999 7.19999 5.59999ZM8.97903 7.10605C8.26135 7.77612 7.72009 8.63263 7.43236 9.59847C7.35524 9.59943 7.27777 9.59999 7.19999 9.59999C3.66536 9.59999 0.799988 8.52551 0.799988 7.19999C0.799988 6.76284 1.11165 6.353 1.6562 5.99999C2.76279 6.71735 4.83108 7.19999 7.19999 7.19999C7.81731 7.19999 8.41423 7.16721 8.97903 7.10605ZM7.19999 11.2C7.19999 12.0556 7.39188 12.8664 7.73497 13.5917C7.55858 13.5972 7.38016 13.6 7.19999 13.6C3.66536 13.6 0.799988 12.5255 0.799988 11.2C0.799988 10.7629 1.11165 10.353 1.6562 9.99999C2.76279 10.7173 4.83108 11.2 7.19999 11.2ZM12.8 14.4C12.3581 14.4 12 14.0418 12 13.6V12H10.4C9.95815 12 9.59999 11.6418 9.59999 11.2C9.59999 10.7581 9.95815 10.4 10.4 10.4H12V8.79999C12 8.35815 12.3581 7.99999 12.8 7.99999C13.2418 7.99999 13.6 8.35815 13.6 8.79999V10.4H15.2C15.6418 10.4 16 10.7581 16 11.2C16 11.6418 15.6418 12 15.2 12H13.6V13.6C13.6 14.0418 13.2418 14.4 12.8 14.4Z" fill="#6D7175"/>
</svg>
