<svg width="16" height="16" viewBox="0 0 16 16" fill="none" xmlns="http://www.w3.org/2000/svg">
<path d="M3.62256 5.97587C3.62256 5.58816 3.93686 5.27386 4.32456 5.27386H7.42055C7.80826 5.27386 8.12256 5.58816 8.12256 5.97587C8.12256 6.36358 7.80826 6.67788 7.42055 6.67788H4.32456C3.93686 6.67788 3.62256 6.36358 3.62256 5.97587Z" fill="#6D7175"/>
<path fill-rule="evenodd" clip-rule="evenodd" d="M2.59601 2.2663C1.49144 2.2663 0.596008 3.16173 0.596008 4.2663V11.7337C0.596008 12.8383 1.49144 13.7337 2.59601 13.7337H10.0634C11.168 13.7337 12.0634 12.8383 12.0634 11.7337V10.7129L13.904 11.7756C14.5707 12.1605 15.404 11.6793 15.404 10.9095V5.0903C15.404 4.3205 14.5707 3.83937 13.904 4.22427L12.0634 5.28693V4.2663C12.0634 3.16173 11.168 2.2663 10.0634 2.2663H2.59601ZM10.0634 3.6663H2.59601C2.26464 3.6663 1.99601 3.93493 1.99601 4.2663V11.7337C1.99601 12.0651 2.26464 12.3337 2.59601 12.3337H10.0634C10.3948 12.3337 10.6634 12.0651 10.6634 11.7337V4.2663C10.6634 3.93493 10.3948 3.6663 10.0634 3.6663ZM12.0634 6.90351V9.09632L14.004 10.2167V5.78312L12.0634 6.90351Z" fill="#6D7175"/>
</svg>
