<svg width="16" height="16" viewBox="0 0 16 16" fill="none" xmlns="http://www.w3.org/2000/svg">
<path d="M13.8875 4.51788C13.9656 4.59592 14.0436 4.69651 14.1225 4.81878H10.1726V0.868899C10.2958 0.946943 10.3955 1.02499 10.4735 1.1039L13.8884 4.51874L13.8875 4.51788ZM9.90296 5.88971H14.4564V14.7286C14.4564 14.9515 14.3783 15.1414 14.2214 15.2974C14.0644 15.4535 13.8754 15.5324 13.6525 15.5324H2.40296C2.1801 15.5324 1.99019 15.4544 1.8341 15.2974C1.67802 15.1405 1.59911 14.9515 1.59911 14.7286V1.33629C1.59911 1.11344 1.67715 0.92353 1.8341 0.767442C1.99106 0.611355 2.1801 0.532444 2.40296 0.532444H9.09911V5.08586C9.09911 5.30872 9.17715 5.49862 9.3341 5.65471C9.49106 5.8108 9.6801 5.88971 9.90296 5.88971ZM11.2418 12.0508V11.5149C11.2418 11.4369 11.2167 11.3727 11.1664 11.3224C11.1161 11.2721 11.0519 11.247 10.9739 11.247H5.08159C5.04605 11.2455 5.01058 11.2514 4.97745 11.2644C4.94432 11.2773 4.91425 11.297 4.88913 11.3222C4.86402 11.3474 4.84442 11.3776 4.83157 11.4107C4.81872 11.4439 4.81291 11.4794 4.81451 11.5149V12.0508C4.81451 12.1289 4.83965 12.193 4.88908 12.2433C4.93851 12.2936 5.00355 12.3188 5.08159 12.3188H10.9739C11.0519 12.3188 11.1161 12.2936 11.1664 12.2433C11.2167 12.193 11.2418 12.1289 11.2418 12.0508ZM11.2418 9.90809V9.37219C11.2418 9.29415 11.2167 9.22998 11.1664 9.17969C11.1161 9.12939 11.0519 9.10424 10.9739 9.10424H5.08159C5.04605 9.10277 5.01058 9.10869 4.97745 9.12165C4.94432 9.1346 4.91425 9.1543 4.88913 9.1795C4.86402 9.20469 4.84442 9.23483 4.83157 9.268C4.81872 9.30118 4.81291 9.33666 4.81451 9.37219V9.90809C4.81451 9.98614 4.83965 10.0503 4.88908 10.1006C4.93851 10.1509 5.00355 10.176 5.08159 10.176H10.9739C11.0519 10.176 11.1161 10.1509 11.1664 10.1006C11.2167 10.0503 11.2418 9.98614 11.2418 9.90809ZM11.2418 7.76536V7.22946C11.2433 7.19392 11.2374 7.15846 11.2244 7.12533C11.2115 7.0922 11.1918 7.06212 11.1666 7.03701C11.1414 7.01189 11.1113 6.99229 11.0781 6.97944C11.0449 6.9666 11.0094 6.96078 10.9739 6.96238H5.08159C5.04609 6.96078 5.01065 6.96659 4.97752 6.97944C4.94439 6.9923 4.9143 7.01191 4.88917 7.03704C4.86404 7.06217 4.84443 7.09226 4.83157 7.12539C4.81872 7.15852 4.8129 7.19396 4.81451 7.22946V7.76536C4.8129 7.80086 4.81872 7.8363 4.83157 7.86943C4.84443 7.90256 4.86404 7.93265 4.88917 7.95778C4.9143 7.98291 4.94439 8.00252 4.97752 8.01538C5.01065 8.02823 5.04609 8.03405 5.08159 8.03244H10.9739C11.0519 8.03244 11.1161 8.0073 11.1664 7.95787C11.2167 7.90844 11.2418 7.8434 11.2418 7.76536Z" fill="#6D7175"/>
</svg>
