<svg width="16" height="16" viewBox="0 0 16 16" fill="none" xmlns="http://www.w3.org/2000/svg">
<g clip-path="url(#clip0_16565_43514)">
<path d="M0 1.2C0 0.88174 0.126428 0.576515 0.351472 0.351472C0.576515 0.126428 0.88174 0 1.2 0L14.8 0C15.1183 0 15.4235 0.126428 15.6485 0.351472C15.8736 0.576515 16 0.88174 16 1.2V6C16 6.31826 15.8736 6.62348 15.6485 6.84853C15.4235 7.07357 15.1183 7.2 14.8 7.2H10.0888C9.77054 7.2 9.46532 7.07357 9.24027 6.84853C9.01523 6.62348 8.8888 6.31826 8.8888 6V4.0888C8.8888 3.97208 8.86581 3.8565 8.82114 3.74867C8.77648 3.64084 8.71101 3.54286 8.62848 3.46032C8.54594 3.37779 8.44796 3.31232 8.34013 3.26766C8.2323 3.22299 8.11672 3.2 8 3.2C7.88328 3.2 7.76771 3.22299 7.65987 3.26766C7.55204 3.31232 7.45406 3.37779 7.37152 3.46032C7.28899 3.54286 7.22352 3.64084 7.17886 3.74867C7.13419 3.8565 7.1112 3.97208 7.1112 4.0888V6C7.1112 6.31826 6.98477 6.62348 6.75973 6.84853C6.53468 7.07357 6.22946 7.2 5.9112 7.2H1.2C0.88174 7.2 0.576515 7.07357 0.351472 6.84853C0.126428 6.62348 0 6.31826 0 6L0 1.2H0Z" fill="#6D7175"/>
<path d="M5.59999 4.00001C5.59999 3.36349 5.85285 2.75304 6.30294 2.30295C6.75302 1.85286 7.36347 1.60001 7.99999 1.60001C8.63651 1.60001 9.24696 1.85286 9.69705 2.30295C10.1471 2.75304 10.4 3.36349 10.4 4.00001V7.50721C10.4 7.59321 10.4276 7.67693 10.479 7.74596C10.5303 7.81498 10.6024 7.86564 10.6848 7.89041L12.8408 8.53681C13.2993 8.67446 13.6932 8.97202 13.951 9.37541C14.2088 9.77881 14.3133 10.2613 14.2456 10.7352L13.7392 14.2832C13.671 14.7597 13.4333 15.1957 13.0696 15.5111C12.7058 15.8264 12.2406 16 11.7592 16H5.56799C5.18597 16 4.81192 15.8907 4.49009 15.6848C4.16827 15.479 3.91214 15.1852 3.75199 14.8384L2.10399 11.2672C1.8959 10.8214 1.86557 10.313 2.01919 9.84561C2.18719 9.36001 2.59439 8.91761 3.23199 8.82721C4.05999 8.70881 4.84479 8.98001 5.60079 9.48321V4.00001H5.59999ZM7.99999 3.20001C7.78782 3.20001 7.58434 3.28429 7.43431 3.43432C7.28428 3.58435 7.19999 3.78783 7.19999 4.00001V10.2344C7.19999 11.3464 5.91279 11.7712 5.17839 11.1624C4.42079 10.5352 3.90639 10.3728 3.52319 10.404C3.51777 10.4701 3.52934 10.5365 3.55679 10.5968L5.20479 14.1672C5.23675 14.2367 5.28795 14.2955 5.35232 14.3368C5.41669 14.378 5.49154 14.4 5.56799 14.4H11.76C11.8562 14.3998 11.9492 14.3649 12.0218 14.3017C12.0943 14.2385 12.1417 14.1513 12.1552 14.056L12.6616 10.5088C12.6753 10.4141 12.6545 10.3176 12.6032 10.2369C12.5518 10.1562 12.4732 10.0965 12.3816 10.0688L10.2256 9.42241C9.81363 9.29889 9.45246 9.04586 9.19566 8.70087C8.93886 8.35587 8.80011 7.93729 8.79999 7.50721V4.00001C8.79999 3.78783 8.71571 3.58435 8.56568 3.43432C8.41565 3.28429 8.21217 3.20001 7.99999 3.20001Z" fill="#6D7175"/>
</g>
<defs>
<clipPath id="clip0_16565_43514">
<rect width="16" height="16" fill="white"/>
</clipPath>
</defs>
</svg>
