<svg width="16" height="16" viewBox="0 0 16 16" fill="none" xmlns="http://www.w3.org/2000/svg">
<g clip-path="url(#clip0_16565_43547)">
<g clip-path="url(#clip1_16565_43547)">
<path d="M4.90001 7.43333C5.13334 7.43333 5.32778 7.35555 5.48334 7.19999C5.63889 7.04444 5.71667 6.84999 5.71667 6.61666C5.71667 6.38333 5.63889 6.18888 5.48334 6.03333C5.32778 5.87777 5.13334 5.79999 4.90001 5.79999C4.66667 5.79999 4.47223 5.87777 4.31667 6.03333C4.16112 6.18888 4.08334 6.38333 4.08334 6.61666C4.08334 6.84999 4.16112 7.04444 4.31667 7.19999C4.47223 7.35555 4.66667 7.43333 4.90001 7.43333ZM8.05 7.43333C8.28334 7.43333 8.47778 7.35555 8.63334 7.19999C8.78889 7.04444 8.86667 6.84999 8.86667 6.61666C8.86667 6.38333 8.78889 6.18888 8.63334 6.03333C8.47778 5.87777 8.28334 5.79999 8.05 5.79999C7.81667 5.79999 7.62223 5.87777 7.46667 6.03333C7.31112 6.18888 7.23334 6.38333 7.23334 6.61666C7.23334 6.84999 7.31112 7.04444 7.46667 7.19999C7.62223 7.35555 7.81667 7.43333 8.05 7.43333ZM11.0833 7.43333C11.3167 7.43333 11.5111 7.35555 11.6667 7.19999C11.8222 7.04444 11.9 6.84999 11.9 6.61666C11.9 6.38333 11.8222 6.18888 11.6667 6.03333C11.5111 5.87777 11.3167 5.79999 11.0833 5.79999C10.85 5.79999 10.6556 5.87777 10.5 6.03333C10.3444 6.18888 10.2667 6.38333 10.2667 6.61666C10.2667 6.84999 10.3444 7.04444 10.5 7.19999C10.6556 7.35555 10.85 7.43333 11.0833 7.43333ZM0.916672 15.0833V2.48333C0.916672 2.06111 1.06945 1.69166 1.37501 1.37499C1.68056 1.05833 2.05001 0.899994 2.48334 0.899994H13.5167C13.9389 0.899994 14.3083 1.05833 14.625 1.37499C14.9417 1.69166 15.1 2.06111 15.1 2.48333V10.85C15.1 11.2722 14.9417 11.6389 14.625 11.95C14.3083 12.2611 13.9389 12.4167 13.5167 12.4167H3.58334L0.916672 15.0833Z" fill="#6D7175"/>
</g>
</g>
<defs>
<clipPath id="clip0_16565_43547">
<rect width="16" height="16" fill="white"/>
</clipPath>
<clipPath id="clip1_16565_43547">
<rect width="16" height="16" fill="white"/>
</clipPath>
</defs>
</svg>
