<svg width="16" height="16" viewBox="0 0 16 16" fill="none" xmlns="http://www.w3.org/2000/svg">
<g clip-path="url(#clip0_16565_43521)">
<path d="M1.6 0.800003C1.38783 0.800003 1.18434 0.884288 1.03431 1.03432C0.884285 1.18435 0.8 1.38783 0.8 1.6V3.2H2.4V2.4H3.2V0.800003H1.6ZM14.4 0.800003C14.6122 0.800003 14.8157 0.884288 14.9657 1.03432C15.1157 1.18435 15.2 1.38783 15.2 1.6V3.2H13.6V2.4H12.8V0.800003H14.4ZM0.8 4.8V11.2H15.2V4.8H0.8ZM1.6 15.2C1.38783 15.2 1.18434 15.1157 1.03431 14.9657C0.884285 14.8157 0.8 14.6122 0.8 14.4V12.8H2.4V13.6H3.2V15.2H1.6ZM15.2 14.4C15.2 14.6122 15.1157 14.8157 14.9657 14.9657C14.8157 15.1157 14.6122 15.2 14.4 15.2H12.8V13.6H13.6V12.8H15.2V14.4ZM4.8 13.6H7.2V15.2H4.8V13.6ZM11.2 13.6H8.8V15.2H11.2V13.6ZM11.2 0.800003V2.4H8.8V0.800003H11.2ZM7.2 2.4V0.800003H4.8V2.4H7.2Z" fill="#6D7175"/>
</g>
<defs>
<clipPath id="clip0_16565_43521">
<rect width="16" height="16" fill="white"/>
</clipPath>
</defs>
</svg>
