<svg width="16" height="16" viewBox="0 0 16 16" fill="none" xmlns="http://www.w3.org/2000/svg">
<path fill-rule="evenodd" clip-rule="evenodd" d="M3.5 7.82999H0V6.32999H3.5V7.82999Z" fill="#6D7175"/>
<path fill-rule="evenodd" clip-rule="evenodd" d="M4.5 4.82999H0V3.32999H4.5V4.82999Z" fill="#6D7175"/>
<path fill-rule="evenodd" clip-rule="evenodd" d="M4.5 10.83H0V9.32999H4.5V10.83Z" fill="#6D7175"/>
<path fill-rule="evenodd" clip-rule="evenodd" d="M9 13.83H0V12.33H9V13.83Z" fill="#6D7175"/>
<path fill-rule="evenodd" clip-rule="evenodd" d="M12.3167 10.5847C11.7503 10.8454 11.1198 10.9909 10.4554 10.9909C7.99477 10.9909 6 8.99611 6 6.53543C6 4.07476 7.99477 2.07999 10.4554 2.07999C12.9161 2.07999 14.9109 4.07476 14.9109 6.53543C14.9109 7.7968 14.3867 8.93575 13.5443 9.74633L16 13.0206L14.8119 13.9117L12.3167 10.5847ZM13.5248 6.53543C13.5248 8.23056 12.1506 9.60474 10.4554 9.60474C8.76031 9.60474 7.38614 8.23056 7.38614 6.53543C7.38614 4.8403 8.76031 3.46612 10.4554 3.46612C12.1506 3.46612 13.5248 4.8403 13.5248 6.53543Z" fill="#6D7175"/>
</svg>
