<svg width="16" height="16" viewBox="0 0 16 16" fill="none" xmlns="http://www.w3.org/2000/svg">
<path fill-rule="evenodd" clip-rule="evenodd" d="M7.20606 4.8915C7.637 4.80741 8.00381 4.75135 8.30847 4.72532C8.61313 4.69929 8.9178 4.67927 9.22246 4.66725V3.53398C9.22246 3.14554 9.15833 2.85722 9.02804 2.667C8.81959 2.35265 8.44878 2.19447 7.91361 2.19447C7.87552 2.19447 7.82542 2.19647 7.76128 2.20248C7.69714 2.21049 7.57286 2.24453 7.38846 2.3106C7.20606 2.37667 7.03369 2.46477 6.87334 2.5749C6.71499 2.68502 6.54061 2.86122 6.35621 3.10549C6.17381 3.34977 6.02549 3.63409 5.91525 3.96246L3.20533 3.72419C3.20533 3.36579 3.27348 3.01139 3.40777 2.66099C3.54207 2.3106 3.74852 1.97422 4.02512 1.65186C4.30172 1.3295 4.63445 1.04718 5.02129 0.802903C5.41014 0.558629 5.87516 0.36441 6.41834 0.218246C6.96353 0.0740834 7.54681 0 8.17418 0C8.78752 0 9.34473 0.0740833 9.84182 0.22225C10.3409 0.370417 10.7378 0.554624 11.0364 0.770867C11.3331 0.987111 11.5816 1.23539 11.7821 1.5117C11.9825 1.78801 12.1188 2.0443 12.197 2.27856C12.2731 2.51483 12.3112 2.73308 12.3112 2.9353V8.19722C12.3112 8.38143 12.3533 8.57164 12.4355 8.76787C12.5177 8.96409 12.6159 9.13828 12.7301 9.28645C12.8424 9.43462 12.9586 9.57277 13.0749 9.69691C13.1911 9.82305 13.2934 9.91716 13.3795 9.98323L13.4998 10.0813L11.4072 12.0816C11.1627 11.8613 10.9182 11.6371 10.6796 11.4068C10.4391 11.1766 10.2607 11.0024 10.1445 10.8842L9.9701 10.706C9.90195 10.642 9.82578 10.5439 9.73959 10.4117C9.50508 10.7621 9.20643 11.0685 8.84163 11.3267C8.47684 11.585 8.08398 11.7753 7.66707 11.8934C7.24816 12.0135 6.81721 12.0816 6.37625 12.0996C5.93529 12.1176 5.51036 12.0536 5.10949 11.9114C4.70861 11.7692 4.34582 11.575 4.02712 11.3267C3.70642 11.0785 3.45187 10.7441 3.26145 10.3176C3.06903 9.89113 2.97483 9.40859 2.97483 8.86598C2.97483 8.36541 3.06102 7.9069 3.23339 7.49043C3.40577 7.07196 3.62625 6.72557 3.89684 6.44926C4.16743 6.17295 4.49414 5.92467 4.87898 5.70842C5.26182 5.49218 5.63864 5.32199 6.00745 5.19985C6.37625 5.07771 6.77512 4.9736 7.20606 4.8915ZM14.0351 13.1768C14.1273 13.1428 14.2074 13.1328 14.2736 13.1508C14.3397 13.1668 14.3758 13.2189 14.3738 13.309C14.3738 13.3951 14.3277 13.4932 14.2355 13.6073C14.1573 13.7034 14.021 13.8316 13.8306 13.9957C13.6402 14.1579 13.3476 14.3622 12.9507 14.6024C12.5538 14.8427 12.1209 15.0649 11.6519 15.2632C11.1808 15.4634 10.6036 15.6356 9.91807 15.7818C9.23458 15.9259 8.52904 16 7.80345 16C7.07386 16 6.34226 15.9079 5.61067 15.7237C4.87907 15.5395 4.23767 15.3112 3.68446 15.0409C3.13326 14.7706 2.6021 14.4603 2.09499 14.1119C1.58788 13.7635 1.181 13.4511 0.874327 13.1748C0.567658 12.8985 0.309093 12.6382 0.100638 12.3939C0.0505289 12.3399 0.0204633 12.2898 0.00843705 12.2458C-0.00559357 12.1997 -0.00158482 12.1637 0.0164546 12.1377C0.0344939 12.1116 0.0585464 12.0916 0.0906164 12.0756C0.122686 12.0596 0.156761 12.0556 0.196848 12.0576C0.236936 12.0596 0.27101 12.0736 0.30308 12.0976C1.48366 12.7944 2.40567 13.2869 3.06912 13.5793C5.45833 14.6265 7.91369 14.8948 10.4332 14.3822C11.5997 14.1439 12.8004 13.7415 14.0351 13.1768ZM9.22451 7.76674C9.22451 8.09911 9.18042 8.40145 9.09423 8.66775C8.90982 9.25041 8.55906 9.61682 8.04393 9.76499C7.59495 9.89714 7.16802 9.83106 6.76314 9.56877C6.3322 9.28845 6.11773 8.892 6.11773 8.38143C6.11773 7.98298 6.21795 7.6426 6.41839 7.35828C6.61882 7.07596 6.88541 6.86372 7.22014 6.72357C7.55487 6.58341 7.88158 6.48329 8.20228 6.42523C8.52098 6.36516 8.86372 6.32912 9.22451 6.31711V7.76674ZM15.2436 11.9354C15.6245 11.9715 15.857 12.0415 15.9432 12.1497C16.0093 12.2458 16.0173 12.452 15.9692 12.7704C15.9171 13.0887 15.8289 13.3931 15.7067 13.6854C15.4962 14.18 15.2356 14.5484 14.9229 14.7926C14.8187 14.8747 14.7405 14.9028 14.6844 14.8727C14.6283 14.8427 14.6283 14.7726 14.6844 14.6585C14.8127 14.3902 14.949 14.0278 15.0933 13.5733C15.2376 13.1188 15.2577 12.8264 15.1535 12.6943C15.1234 12.6522 15.0753 12.6182 15.0111 12.5922C14.947 12.5641 14.8648 12.5461 14.7626 12.5381C14.7156 12.5344 14.6712 12.5307 14.6291 12.5273C14.5796 12.5232 14.5333 12.5193 14.49 12.5161C14.4098 12.5101 14.3016 12.5101 14.1673 12.5161C14.033 12.5221 13.9348 12.5281 13.8767 12.5341C13.8402 12.5379 13.7886 12.5424 13.7226 12.5483C13.6835 12.5517 13.6392 12.5557 13.59 12.5601C13.4577 12.5721 13.3896 12.5782 13.3836 12.5782C13.3455 12.5842 13.3054 12.5902 13.2633 12.5922C13.2308 12.5936 13.2038 12.5962 13.1822 12.5983C13.1744 12.599 13.1674 12.5996 13.1611 12.6002C13.1505 12.6011 13.1394 12.6023 13.128 12.6037C13.1136 12.6053 13.0986 12.6071 13.0829 12.6082C13.0754 12.6087 13.0685 12.6093 13.062 12.6098C13.0444 12.6111 13.0305 12.6122 13.0188 12.6122H12.9266L12.8985 12.6082L12.8805 12.5942L12.8665 12.5681C12.8304 12.474 12.9727 12.3539 13.2994 12.2117C13.6241 12.0676 13.9408 11.9795 14.2475 11.9434C14.5321 11.9014 14.8628 11.8994 15.2436 11.9354Z" fill="#6D7175"/>
</svg>
