<svg width="16" height="16" viewBox="0 0 16 16" fill="none" xmlns="http://www.w3.org/2000/svg">
<path d="M5 9C5 8.73478 5.10536 8.48043 5.29289 8.29289C5.48043 8.10536 5.73478 8 6 8C6.26522 8 6.51957 8.10536 6.70711 8.29289C6.89464 8.48043 7 8.73478 7 9V14C7 14.2652 6.89464 14.5196 6.70711 14.7071C6.51957 14.8946 6.26522 15 6 15C5.73478 15 5.48043 14.8946 5.29289 14.7071C5.10536 14.5196 5 14.2652 5 14V9ZM9 4C9 3.73478 9.10536 3.48043 9.29289 3.29289C9.48043 3.10536 9.73478 3 10 3C10.2652 3 10.5196 3.10536 10.7071 3.29289C10.8946 3.48043 11 3.73478 11 4V14C11 14.2652 10.8946 14.5196 10.7071 14.7071C10.5196 14.8946 10.2652 15 10 15C9.73478 15 9.48043 14.8946 9.29289 14.7071C9.10536 14.5196 9 14.2652 9 14V4ZM13 2C13 1.73478 13.1054 1.48043 13.2929 1.29289C13.4804 1.10536 13.7348 1 14 1C14.2652 1 14.5196 1.10536 14.7071 1.29289C14.8946 1.48043 15 1.73478 15 2V14C15 14.2652 14.8946 14.5196 14.7071 14.7071C14.5196 14.8946 14.2652 15 14 15C13.7348 15 13.4804 14.8946 13.2929 14.7071C13.1054 14.5196 13 14.2652 13 14V2ZM1 6C1 5.73478 1.10536 5.48043 1.29289 5.29289C1.48043 5.10536 1.73478 5 2 5C2.26522 5 2.51957 5.10536 2.70711 5.29289C2.89464 5.48043 3 5.73478 3 6V14C3 14.2652 2.89464 14.5196 2.70711 14.7071C2.51957 14.8946 2.26522 15 2 15C1.73478 15 1.48043 14.8946 1.29289 14.7071C1.10536 14.5196 1 14.2652 1 14V6Z" fill="#6D7175"/>
</svg>
