<svg width="16" height="16" viewBox="0 0 16 16" fill="none" xmlns="http://www.w3.org/2000/svg">
<path d="M12.4 2C12.0817 2 11.7765 2.12643 11.5515 2.35147C11.3264 2.57652 11.2 2.88174 11.2 3.2V12.8C11.2 13.1183 11.3264 13.4235 11.5515 13.6485C11.7765 13.8736 12.0817 14 12.4 14H13.2C13.5183 14 13.8235 13.8736 14.0485 13.6485C14.2736 13.4235 14.4 13.1183 14.4 12.8V3.2C14.4 2.88174 14.2736 2.57652 14.0485 2.35147C13.8235 2.12643 13.5183 2 13.2 2H12.4ZM6.40001 6.4C6.40001 6.08174 6.52643 5.77652 6.75148 5.55147C6.97652 5.32643 7.28175 5.2 7.60001 5.2H8.40001C8.71827 5.2 9.02349 5.32643 9.24853 5.55147C9.47358 5.77652 9.60001 6.08174 9.60001 6.4V12.8C9.60001 13.1183 9.47358 13.4235 9.24853 13.6485C9.02349 13.8736 8.71827 14 8.40001 14H7.60001C7.28175 14 6.97652 13.8736 6.75148 13.6485C6.52643 13.4235 6.40001 13.1183 6.40001 12.8V6.4ZM1.60001 9.6C1.60001 9.28174 1.72643 8.97652 1.95148 8.75147C2.17652 8.52643 2.48175 8.4 2.80001 8.4H3.60001C3.91827 8.4 4.22349 8.52643 4.44853 8.75147C4.67358 8.97652 4.80001 9.28174 4.80001 9.6V12.8C4.80001 13.1183 4.67358 13.4235 4.44853 13.6485C4.22349 13.8736 3.91827 14 3.60001 14H2.80001C2.48175 14 2.17652 13.8736 1.95148 13.6485C1.72643 13.4235 1.60001 13.1183 1.60001 12.8V9.6Z" fill="#6D7175"/>
</svg>
