<svg width="16" height="16" viewBox="0 0 16 16" fill="none" xmlns="http://www.w3.org/2000/svg">
<path fill-rule="evenodd" clip-rule="evenodd" d="M8.79995 13.2002V4.7314L11.4344 7.3658C11.7472 7.6786 12.2528 7.6786 12.5656 7.3658C12.8784 7.053 12.8784 6.5474 12.5656 6.2346L8.56555 2.2346C8.25275 1.9218 7.74715 1.9218 7.43435 2.2346L3.43435 6.2346C3.27835 6.3906 3.19995 6.5954 3.19995 6.8002C3.19995 7.005 3.27835 7.2098 3.43435 7.3658C3.74715 7.6786 4.25275 7.6786 4.56555 7.3658L7.19995 4.7314V13.2002C7.19995 13.6426 7.55755 14.0002 7.99995 14.0002C8.44235 14.0002 8.79995 13.6426 8.79995 13.2002Z" fill="#6D7175"/>
</svg>
