<svg width="16" height="16" viewBox="0 0 16 16" fill="none" xmlns="http://www.w3.org/2000/svg">
<g clip-path="url(#clip0_16565_43604)">
<path fill-rule="evenodd" clip-rule="evenodd" d="M3.19999 0.799988C2.80559 0.799988 2.23119 0.911988 1.73279 1.27039C1.19359 1.65919 0.799988 2.29919 0.799988 3.19999V14C0.799988 14.3182 0.926416 14.6235 1.15146 14.8485C1.3765 15.0736 1.68173 15.2 1.99999 15.2H14C14.3182 15.2 14.6235 15.0736 14.8485 14.8485C15.0736 14.6235 15.2 14.3182 15.2 14V12H12.8C12.4056 12 11.8312 11.888 11.3328 11.5296C10.792 11.14 10.4 10.5008 10.4 9.59999C10.4 8.69919 10.7936 8.05919 11.3328 7.67039C11.7627 7.36817 12.2745 7.20409 12.8 7.19999H15.2V5.19999C15.2 4.54079 14.668 3.99999 14.0016 3.99999H13.6V1.99999C13.6 1.68173 13.4736 1.3765 13.2485 1.15146C13.0235 0.926416 12.7182 0.799988 12.4 0.799988H3.19999ZM12.8 8.79999H15.2V10.4H12.8C12.6616 10.4 12.4352 10.352 12.2672 10.2312C12.14 10.1392 12 9.97919 12 9.59999C12 9.22079 12.14 9.06079 12.2672 8.96879C12.4352 8.84879 12.6616 8.79999 12.8 8.79999ZM3.19999 2.39999C2.98781 2.39999 2.78433 2.48427 2.6343 2.6343C2.48427 2.78433 2.39999 2.98781 2.39999 3.19999V3.99999H12V2.39999H3.19999Z" fill="#6D7175"/>
</g>
<defs>
<clipPath id="clip0_16565_43604">
<rect width="16" height="16" fill="white"/>
</clipPath>
</defs>
</svg>
