<svg width="16" height="16" viewBox="0 0 16 16" fill="none" xmlns="http://www.w3.org/2000/svg">
<path fill-rule="evenodd" clip-rule="evenodd" d="M7.5 6.3C7.5 6.66783 7.3345 6.997 7.07391 7.21712C6.86498 7.39361 6.59491 7.5 6.3 7.5H1.7C1.40509 7.5 1.13502 7.39361 0.926087 7.21712C0.665496 6.997 0.5 6.66783 0.5 6.3V1.7C0.5 1.03726 1.03726 0.5 1.7 0.5H6.3C6.96274 0.5 7.5 1.03726 7.5 1.7V6.3ZM1.9 6.1V1.9H6.1V6.1H1.9ZM6.3 8.5C6.59491 8.5 6.86498 8.60639 7.07391 8.78288C7.12557 8.82651 7.17349 8.87443 7.21712 8.92609C7.39361 9.13502 7.5 9.40509 7.5 9.7V14.3C7.5 14.5949 7.39361 14.865 7.21712 15.0739C6.997 15.3345 6.66783 15.5 6.3 15.5H1.7C1.03726 15.5 0.5 14.9627 0.5 14.3V9.7C0.5 9.33217 0.665496 9.003 0.926088 8.78288C1.13502 8.60639 1.40509 8.5 1.7 8.5H6.3ZM1.9 14.1V9.9H6.1V14.1H1.9ZM8.78288 15.0739C9.003 15.3345 9.33217 15.5 9.7 15.5H14.3C14.9627 15.5 15.5 14.9627 15.5 14.3V9.7C15.5 9.03726 14.9627 8.5 14.3 8.5H9.7C9.33217 8.5 9.003 8.6655 8.78288 8.92609C8.60639 9.13502 8.5 9.40509 8.5 9.7V14.3C8.5 14.5949 8.60639 14.865 8.78288 15.0739ZM9.9 9.9V14.1H14.1V9.9H9.9ZM9.7 0.682983C9.3134 0.682983 9 0.996384 9 1.38298C9 1.76958 9.3134 2.08298 9.7 2.08298H14.8C15.1866 2.08298 15.5 1.76958 15.5 1.38298C15.5 0.996384 15.1866 0.682983 14.8 0.682983H9.7ZM9 3.98296C9 3.59636 9.3134 3.28296 9.7 3.28296H14.8C15.1866 3.28296 15.5 3.59636 15.5 3.98296C15.5 4.36956 15.1866 4.68296 14.8 4.68296H9.7C9.3134 4.68296 9 4.36956 9 3.98296ZM9.7 5.88297C9.3134 5.88297 9 6.19637 9 6.58296C9 6.96956 9.3134 7.28297 9.7 7.28297H14.8C15.1866 7.28297 15.5 6.96956 15.5 6.58296C15.5 6.19637 15.1866 5.88297 14.8 5.88297H9.7Z" fill="#6D7175"/>
</svg>
