<svg width="16" height="16" viewBox="0 0 16 16" fill="none" xmlns="http://www.w3.org/2000/svg">
<path fill-rule="evenodd" clip-rule="evenodd" d="M8 16C12.4183 16 16 12.4183 16 8C16 3.58172 12.4183 0 8 0C3.58172 0 0 3.58172 0 8C0 12.4183 3.58172 16 8 16ZM11.764 9.07819L11.806 9.10569L11.1507 9.48475L11.1517 9.48575L7.9995 11.3106L4.19353 9.10769C4.1302 9.15395 4.07942 9.21529 4.0458 9.28617C4.01217 9.35704 3.99677 9.4352 4.00099 9.51354C4.00521 9.59188 4.02892 9.66792 4.06996 9.73477C4.111 9.80162 4.16808 9.85715 4.23602 9.89633L7.7636 11.9367C7.8353 11.9782 7.91667 12 7.9995 12C8.08233 12 8.1637 11.9782 8.2354 11.9367L11.764 9.89433C11.8356 9.85299 11.8951 9.79352 11.9364 9.72188C11.9778 9.65025 11.9996 9.56898 11.9996 9.48626C11.9996 9.40353 11.9778 9.32226 11.9364 9.25063C11.8951 9.17899 11.8356 9.11952 11.764 9.07819ZM11.806 7.64424C11.859 7.68286 11.9035 7.73225 11.9364 7.78938C11.9778 7.86101 11.9996 7.94228 11.9996 8.025C11.9996 8.10773 11.9778 8.189 11.9364 8.26063C11.8951 8.33227 11.8356 8.39174 11.764 8.43307L8.2354 10.4759C8.1637 10.5174 8.08233 10.5392 7.9995 10.5392C7.91667 10.5392 7.8353 10.5174 7.7636 10.4759L4.23602 8.43507C4.16808 8.3959 4.111 8.34037 4.06996 8.27352C4.02892 8.20667 4.00521 8.13063 4.00099 8.05229C3.99677 7.97395 4.01217 7.89579 4.0458 7.82492C4.07942 7.75404 4.1302 7.6927 4.19353 7.64644L4.84877 8.025V8.026L7.9995 9.84932L11.1517 8.024L11.1507 8.0235L11.806 7.64424L11.764 7.61693C11.7784 7.62526 11.7926 7.63449 11.806 7.64424ZM11.764 6.10367L8.23641 4.06332C8.1647 4.02184 8.08383 4 8.001 4C7.91817 4 7.8368 4.02184 7.76509 4.06332L4.23602 6.10568C4.16428 6.14697 4.10469 6.20646 4.06325 6.27815C4.02182 6.34984 4 6.43118 4 6.514C4 6.59681 4.02182 6.67815 4.06325 6.74984C4.10469 6.82153 4.16428 6.88102 4.23602 6.92232L7.7636 8.96267C7.8353 9.00415 7.91667 9.02599 7.9995 9.02599C8.08233 9.02599 8.1637 9.00415 8.2354 8.96267L11.764 6.92031C11.8357 6.87902 11.8953 6.81953 11.9367 6.74784C11.9782 6.67615 12 6.59481 12 6.51199C12 6.42918 11.9782 6.34784 11.9367 6.27615C11.8953 6.20446 11.8357 6.14497 11.764 6.10367Z" fill="#6D7175"/>
</svg>
