<svg width="16" height="16" viewBox="0 0 16 16" fill="none" xmlns="http://www.w3.org/2000/svg">
<path fill-rule="evenodd" clip-rule="evenodd" d="M6.00547 0.800003C6.21667 0.800003 6.38789 0.971414 6.38789 1.18286V1.94857H10.0187V1.18286C10.0187 0.971414 10.19 0.800003 10.4012 0.800003H11.166C11.3772 0.800003 11.5484 0.971414 11.5484 1.18286V1.94857H14.44C14.8624 1.94857 15.2 2.31044 15.2 2.75683V14.39C15.2 14.8364 14.8624 15.2 14.44 15.2H1.56483C1.14242 15.2 0.799988 14.8364 0.799988 14.39V2.75683C0.799988 2.31044 1.14242 1.94857 1.56483 1.94857H4.85782L4.85821 1.18286C4.85821 0.971414 5.02942 0.800003 5.24063 0.800003H6.00547ZM13.67 8.53H2.32967V13.67H13.67V8.53ZM4.85782 3.48H2.32967V7H13.67V3.48H11.5484V4.24572C11.5484 4.45716 11.3772 4.62857 11.166 4.62857H10.4012C10.19 4.62857 10.0187 4.45716 10.0187 4.24572V3.48H6.38789V4.24572C6.38789 4.45716 6.21667 4.62857 6.00547 4.62857H5.24063C5.02942 4.62857 4.85821 4.45716 4.85821 4.24572L4.85782 3.48Z" fill="#6D7175"/>
</svg>
