<svg width="16" height="16" viewBox="0 0 16 16" fill="none" xmlns="http://www.w3.org/2000/svg">
<path fill-rule="evenodd" clip-rule="evenodd" d="M4.592 2.02878C4.69492 1.83863 4.84731 1.67982 5.03305 1.56913C5.21879 1.45845 5.43098 1.40001 5.6472 1.39998H10.3312C10.5462 1.39988 10.7572 1.45751 10.9422 1.56685C11.1273 1.6762 11.2796 1.83325 11.3832 2.02158L11.8232 2.82158C11.8552 2.88078 11.8816 2.93998 11.9032 2.99998H14.8C15.1183 2.99998 15.4235 3.12641 15.6485 3.35145C15.8736 3.5765 16 3.88172 16 4.19998V13.4C16 13.7182 15.8736 14.0235 15.6485 14.2485C15.4235 14.4736 15.1183 14.6 14.8 14.6H1.2C0.88174 14.6 0.576516 14.4736 0.351472 14.2485C0.126428 14.0235 0 13.7182 0 13.4V4.19998C0 3.88172 0.126428 3.5765 0.351472 3.35145C0.576516 3.12641 0.88174 2.99998 1.2 2.99998H4.0824C4.1024 2.94238 4.128 2.88478 4.1584 2.82878L4.592 2.02878ZM11.2 8.59998C11.2 9.44867 10.8629 10.2626 10.2627 10.8627C9.66263 11.4628 8.84869 11.8 8 11.8C7.15131 11.8 6.33737 11.4628 5.73726 10.8627C5.13714 10.2626 4.8 9.44867 4.8 8.59998C4.8 7.75128 5.13714 6.93735 5.73726 6.33723C6.33737 5.73712 7.15131 5.39998 8 5.39998C8.84869 5.39998 9.66263 5.73712 10.2627 6.33723C10.8629 6.93735 11.2 7.75128 11.2 8.59998Z" fill="#6D7175"/>
</svg>
