<svg width="16" height="16" viewBox="0 0 16 16" fill="none" xmlns="http://www.w3.org/2000/svg">
<path d="M10.7838 4.13338C11.0721 4.41599 11.0721 4.87419 10.7838 5.1568L9.04392 6.8625L10.7838 8.56819C11.0721 8.8508 11.0721 9.309 10.7838 9.59161C10.4955 9.87422 10.0281 9.87422 9.73987 9.59161L8 7.88592L6.26013 9.59161C5.97186 9.87422 5.50447 9.87422 5.2162 9.59161C4.92793 9.309 4.92793 8.8508 5.2162 8.56819L6.95608 6.8625L5.2162 5.1568C4.92793 4.87419 4.92793 4.41599 5.2162 4.13338C5.50447 3.85078 5.97186 3.85078 6.26013 4.13338L8 5.83908L9.73987 4.13338C10.0281 3.85078 10.4955 3.85078 10.7838 4.13338Z" fill="#6D7175"/>
<path fill-rule="evenodd" clip-rule="evenodd" d="M14.9899 0.84996C14.9966 0.896326 15 0.943104 15 0.989941V6.28247C15 10.1856 12.65 13.7132 9.02556 15.2507L8 15.6857L6.97444 15.2507C3.35 13.7132 1 10.1856 1 6.28247V0.989941C1 0.443281 1.44772 0.000126065 2 0.000126065C2.04732 0.000126065 2.09458 0.00345046 2.14142 0.0100742L7.85858 0.818492C7.95238 0.831756 8.04762 0.831756 8.14142 0.818492L13.8586 0.0100742C14.4053 -0.0672351 14.9118 0.308794 14.9899 0.84996ZM13.5 1.55907L8.35355 2.28829C8.17767 2.31316 7.99978 2.31938 7.82289 2.30694L7.64645 2.28829L2.5 1.56006V6.28247C2.5 9.49711 4.38018 12.4113 7.3046 13.7702L7.56532 13.886L8 14.0703L8.43468 13.886C11.4198 12.6197 13.3853 9.76118 13.4951 6.5653L13.5 6.28247V1.55907Z" fill="#6D7175"/>
</svg>
