<svg width="16" height="16" viewBox="0 0 16 16" fill="none" xmlns="http://www.w3.org/2000/svg">
<path d="M2.28571 9.6143H5.71429V8.70001H2.28571V9.6143Z" fill="#6D7175"/>
<path fill-rule="evenodd" clip-rule="evenodd" d="M2.28571 2.3C1.02335 2.3 0 3.32335 0 4.58572V11.4429C0 12.7052 1.02335 13.7286 2.28571 13.7286H13.7143C14.9767 13.7286 16 12.7052 16 11.4429V4.58572C16 3.32335 14.9767 2.3 13.7143 2.3H2.28571ZM13.7143 3.21429H2.28571C1.5283 3.21429 0.914286 3.8283 0.914286 4.58572V4.98572H15.0857V4.58572C15.0857 3.8283 14.4717 3.21429 13.7143 3.21429ZM0.914286 11.4429V5.90001H15.0857V11.4429C15.0857 12.2003 14.4717 12.8143 13.7143 12.8143H2.28571C1.5283 12.8143 0.914286 12.2003 0.914286 11.4429Z" fill="#6D7175"/>
</svg>
