<svg width="16" height="16" viewBox="0 0 16 16" fill="none" xmlns="http://www.w3.org/2000/svg">
<g clip-path="url(#clip0_16565_43375)">
<path fill-rule="evenodd" clip-rule="evenodd" d="M0.5 8C0.5 12.1355 3.8645 15.5 8 15.5C12.1355 15.5 15.5 12.1355 15.5 8C15.5 3.8645 12.1355 0.5 8 0.5C3.8645 0.5 0.5 3.8645 0.5 8ZM4.25 8C4.25 7.58579 4.58579 7.25 5 7.25H7.25V5C7.25 4.58579 7.58579 4.25 8 4.25C8.41421 4.25 8.75 4.58579 8.75 5V7.25H11C11.4142 7.25 11.75 7.58579 11.75 8C11.75 8.41421 11.4142 8.75 11 8.75H8.75V11C8.75 11.4142 8.41421 11.75 8 11.75C7.58579 11.75 7.25 11.4142 7.25 11V8.75H5C4.58579 8.75 4.25 8.41421 4.25 8Z" fill="#6D7175"/>
</g>
<defs>
<clipPath id="clip0_16565_43375">
<rect width="16" height="16" fill="white"/>
</clipPath>
</defs>
</svg>
