<svg width="16" height="16" viewBox="0 0 16 16" fill="none" xmlns="http://www.w3.org/2000/svg">
<rect opacity="0.01" width="16" height="16" fill="#6D7175"/>
<path fill-rule="evenodd" clip-rule="evenodd" d="M0.5 8C0.5 12.1355 3.8645 15.5 8 15.5C12.1355 15.5 15.5 12.1355 15.5 8C15.5 3.8645 12.1355 0.5 8 0.5C3.8645 0.5 0.5 3.8645 0.5 8ZM11.9053 6.65533C12.1982 6.36244 12.1982 5.88756 11.9053 5.59467C11.6124 5.30178 11.1376 5.30178 10.8447 5.59467L7.25 9.18934L5.53033 7.46967C5.23744 7.17678 4.76256 7.17678 4.46967 7.46967C4.17678 7.76256 4.17678 8.23744 4.46967 8.53033L6.71967 10.7803C7.01256 11.0732 7.48744 11.0732 7.78033 10.7803L11.9053 6.65533Z" fill="#6D7175"/>
</svg>
