<svg width="16" height="16" viewBox="0 0 16 16" fill="none" xmlns="http://www.w3.org/2000/svg">
<path fill-rule="evenodd" clip-rule="evenodd" d="M8 15C11.866 15 15 11.866 15 8C15 4.13401 11.866 1 8 1C4.13401 1 1 4.13401 1 8C1 11.866 4.13401 15 8 15ZM11.6364 6.63641C11.9879 6.28494 11.9879 5.71509 11.6364 5.36362C11.2849 5.01215 10.7151 5.01215 10.3636 5.36362L6.99999 8.72722L5.63639 7.36362C5.28492 7.01215 4.71507 7.01215 4.36359 7.36362C4.01212 7.71509 4.01212 8.28494 4.36359 8.63641L6.3636 10.6364C6.71507 10.9879 7.28492 10.9879 7.63639 10.6364L11.6364 6.63641Z" fill="#6D7175"/>
</svg>
