<svg width="16" height="16" viewBox="0 0 16 16" fill="none" xmlns="http://www.w3.org/2000/svg">
<g clip-path="url(#clip0_16565_43553)">
<path fill-rule="evenodd" clip-rule="evenodd" d="M16 8C16 12.4112 12.4112 16 8 16C3.5888 16 0 12.4112 0 8C0 3.5888 3.5888 0 8 0C12.4112 0 16 3.5888 16 8ZM9.2688 8.80002L8.2344 9.83442C8.16012 9.9087 8.10121 9.99688 8.06101 10.0939C8.02081 10.191 8.00012 10.295 8.00012 10.4C8.00012 10.5051 8.02081 10.6091 8.06101 10.7061C8.10121 10.8032 8.16012 10.8913 8.2344 10.9656C8.30868 11.0399 8.39685 11.0988 8.4939 11.139C8.59095 11.1792 8.69496 11.1999 8.8 11.1999C8.90504 11.1999 9.00906 11.1792 9.1061 11.139C9.20315 11.0988 9.29132 11.0399 9.3656 10.9656L11.7656 8.56562C11.8401 8.4915 11.8993 8.40337 11.9397 8.3063C11.98 8.20924 12.0008 8.10515 12.0008 8.00002C12.0008 7.8949 11.98 7.79081 11.9397 7.69374C11.8993 7.59667 11.8401 7.50855 11.7656 7.43442L9.3656 5.03442C9.29132 4.96015 9.20315 4.90123 9.1061 4.86103C9.00906 4.82083 8.90504 4.80014 8.8 4.80014C8.69496 4.80014 8.59095 4.82083 8.4939 4.86103C8.39685 4.90123 8.30868 4.96015 8.2344 5.03442C8.16012 5.1087 8.10121 5.19688 8.06101 5.29392C8.02081 5.39097 8.00012 5.49498 8.00012 5.60002C8.00012 5.70506 8.02081 5.80908 8.06101 5.90612C8.10121 6.00317 8.16012 6.09135 8.2344 6.16562L9.2688 7.20002H4.8C4.58783 7.20002 4.38434 7.28431 4.23431 7.43434C4.08429 7.58437 4 7.78785 4 8.00002C4 8.2122 4.08429 8.41568 4.23431 8.56571C4.38434 8.71574 4.58783 8.80002 4.8 8.80002H9.2688Z" fill="#6D7175"/>
</g>
<defs>
<clipPath id="clip0_16565_43553">
<rect width="16" height="16" fill="white"/>
</clipPath>
</defs>
</svg>
