<svg width="16" height="16" viewBox="0 0 16 16" fill="none" xmlns="http://www.w3.org/2000/svg">
<g clip-path="url(#clip0_16565_43522)">
<path d="M5.5584 0.000793457C5.8736 0.000793457 6.176 0.127993 6.4 0.351993L7.5816 1.69599L4.6712 4.99199C4.22257 5.50951 3.97497 6.17109 3.9736 6.85599V14.4H1.9896C1.83315 14.3998 1.67829 14.3686 1.53397 14.3081C1.38965 14.2477 1.25874 14.1593 1.1488 14.048C0.925383 13.8223 0.80004 13.5176 0.8 13.2V5.29599C0.798681 5.0013 0.906062 4.71647 1.1016 4.49599L3.8856 1.29599L4.7176 0.351993C4.8277 0.240728 4.95877 0.152399 5.10323 0.0921164C5.24769 0.0318338 5.40267 0.000794211 5.5592 0.000793457H5.5584ZM11.232 1.95199L14.896 6.05599C15.0936 6.27599 15.2024 6.56079 15.2008 6.85599V14.8C15.2008 15.1192 15.0736 15.424 14.848 15.6496C14.6216 15.8746 14.3153 16.0009 13.996 16.0008H6.7648C6.45239 15.9905 6.15615 15.8595 5.9384 15.6352C5.72116 15.4115 5.59976 15.1118 5.6 14.8V6.89599C5.59902 6.60064 5.70795 6.31548 5.9056 6.09599L8.7248 2.89519L9.5288 1.95119C9.7551 1.72647 10.0611 1.60035 10.38 1.60035C10.6989 1.60035 11.0049 1.72647 11.2312 1.95119L11.232 1.95199ZM9.712 6.59759C9.94381 6.75187 10.2218 6.82132 10.4989 6.79421C10.776 6.76709 11.0353 6.64507 11.2328 6.44879C11.373 6.30939 11.4764 6.13747 11.534 5.94836C11.5915 5.75925 11.6014 5.55883 11.5626 5.36499C11.5239 5.17115 11.4378 4.98991 11.312 4.83744C11.1862 4.68497 11.0246 4.56602 10.8416 4.49119C10.6215 4.40054 10.3795 4.37685 10.146 4.4231C9.91244 4.46935 9.69775 4.58348 9.5288 4.75119C9.40307 4.87656 9.30677 5.0283 9.24686 5.19543C9.18695 5.36257 9.16492 5.54093 9.18238 5.71762C9.19983 5.89432 9.25633 6.06492 9.34779 6.21711C9.43924 6.36929 9.56337 6.49925 9.7112 6.59759H9.712Z" fill="#6D7175"/>
</g>
<defs>
<clipPath id="clip0_16565_43522">
<rect width="16" height="16" fill="white"/>
</clipPath>
</defs>
</svg>
