<svg width="16" height="16" viewBox="0 0 16 16" fill="none" xmlns="http://www.w3.org/2000/svg">
<g clip-path="url(#clip0_16565_43570)">
<path d="M9.9072 7.13601C9.81519 7.17512 9.71672 7.19682 9.6168 7.20001C9.45922 7.19878 9.30545 7.15151 9.1744 7.06401C9.03794 6.97949 8.93308 6.85242 8.876 6.70241C8.80664 6.56053 8.78422 6.40027 8.812 6.24481C8.8408 6.08641 8.916 5.94081 9.0288 5.82721L9.8344 5.02401C9.91972 4.94222 10.0219 4.88015 10.1339 4.84217C10.2458 4.80419 10.3647 4.79123 10.4822 4.8042C10.5996 4.81717 10.7128 4.85575 10.8138 4.91723C10.9147 4.9787 11.001 5.06158 11.0664 5.16001C11.1679 5.313 11.2138 5.49624 11.1963 5.67902C11.1788 5.8618 11.0991 6.03302 10.9704 6.16401L10.1648 6.96801C10.0889 7.03797 10.0018 7.09475 9.9072 7.13601ZM6.424 3.00561C6.37414 3.21082 6.40745 3.42742 6.51666 3.60818C6.62587 3.78893 6.80213 3.91917 7.00698 3.97048C7.21183 4.0218 7.42867 3.99004 7.6102 3.88212C7.79172 3.7742 7.92322 3.59889 7.976 3.39441L6.424 3.00561ZM8.376 1.79441C8.40237 1.69222 8.40827 1.58582 8.39335 1.48134C8.37842 1.37686 8.34297 1.27637 8.28904 1.18565C8.23511 1.09494 8.16376 1.01579 8.07911 0.952763C7.99445 0.88974 7.89816 0.844091 7.79579 0.818444C7.69341 0.792798 7.58698 0.787661 7.48261 0.803331C7.37824 0.819 7.278 0.855165 7.18767 0.909743C7.09734 0.964321 7.0187 1.03623 6.95629 1.12134C6.89387 1.20644 6.84891 1.30305 6.824 1.40561L8.376 1.79441ZM7.976 3.39441L8.376 1.79441L6.824 1.40561L6.424 3.00561L7.976 3.39441ZM12.58 8.03121C12.4763 8.05763 12.3789 8.1046 12.2937 8.16932C12.2085 8.23405 12.1371 8.31522 12.0838 8.40803C12.0305 8.50084 11.9963 8.6034 11.9834 8.70964C11.9704 8.81588 11.9789 8.92364 12.0084 9.02653C12.0378 9.12943 12.0876 9.22537 12.1548 9.30867C12.222 9.39198 12.3052 9.46096 12.3996 9.51152C12.4939 9.56209 12.5974 9.59321 12.704 9.60305C12.8105 9.61289 12.918 9.60125 13.02 9.56881L12.58 8.03121ZM14.6056 9.11521C14.7093 9.08878 14.8067 9.04181 14.8919 8.97709C14.9771 8.91236 15.0485 8.83119 15.1018 8.73838C15.1551 8.64557 15.1892 8.54301 15.2022 8.43677C15.2151 8.33053 15.2066 8.22278 15.1772 8.11988C15.1478 8.01698 15.098 7.92104 15.0308 7.83774C14.9636 7.75443 14.8804 7.68545 14.786 7.63489C14.6917 7.58433 14.5882 7.5532 14.4816 7.54336C14.375 7.53352 14.2676 7.54517 14.1656 7.57761L14.6056 9.11521ZM13.02 9.56881L14.6056 9.11521L14.1656 7.57761L12.58 8.03121L13.02 9.56881ZM3.612 6.01441L0.145596 13.5016C0.00384758 13.8308 -0.0358193 14.195 0.0317298 14.547C0.0992789 14.8991 0.270934 15.2227 0.524477 15.4761C0.778019 15.7294 1.10178 15.9009 1.45384 15.9682C1.80591 16.0355 2.17007 15.9956 2.4992 15.8536L9.9928 12.3832C10.1496 12.3046 10.2732 12.1726 10.3414 12.011C10.4096 11.8494 10.4179 11.6688 10.3648 11.5016C10.3289 11.3902 10.2669 11.289 10.184 11.2064L4.7896 5.81601C4.70699 5.73323 4.60584 5.67133 4.49455 5.63544C4.38325 5.59955 4.265 5.59069 4.1496 5.60961C4.03426 5.62947 3.92532 5.67656 3.83182 5.74696C3.73832 5.81737 3.66296 5.90905 3.612 6.01441Z" fill="#6D7175"/>
<path d="M1.4408 3.18399C1.528 3.20159 1.5984 3.27199 1.616 3.35919C1.65272 3.54004 1.75084 3.70263 1.89372 3.81941C2.0366 3.93619 2.21546 3.99999 2.4 3.99999C2.58454 3.99999 2.7634 3.93619 2.90628 3.81941C3.04916 3.70263 3.14728 3.54004 3.184 3.35919C3.19307 3.31601 3.21457 3.27643 3.24583 3.24531C3.2771 3.21418 3.31678 3.19287 3.36 3.18399C3.54084 3.14727 3.70343 3.04915 3.82022 2.90627C3.937 2.76339 4.0008 2.58453 4.0008 2.39999C4.0008 2.21545 3.937 2.03659 3.82022 1.89371C3.70343 1.75083 3.54084 1.65271 3.36 1.61599C3.31693 1.60697 3.27742 1.5856 3.2463 1.55448C3.21519 1.52337 3.19382 1.48386 3.1848 1.44079C3.14808 1.25994 3.04996 1.09735 2.90708 0.980569C2.7642 0.863785 2.58534 0.799988 2.4008 0.799988C2.21626 0.799988 2.0374 0.863785 1.89452 0.980569C1.75164 1.09735 1.65352 1.25994 1.6168 1.44079C1.60778 1.48386 1.58641 1.52337 1.55529 1.55448C1.52418 1.5856 1.48467 1.60697 1.4416 1.61599C1.26075 1.65271 1.09816 1.75083 0.981378 1.89371C0.864593 2.03659 0.800797 2.21545 0.800797 2.39999C0.800797 2.58453 0.864593 2.76339 0.981378 2.90627C1.09816 3.04915 1.26075 3.14727 1.4416 3.18399H1.4408ZM12.6408 3.18399C12.728 3.20159 12.7984 3.27199 12.816 3.35919C12.8527 3.54004 12.9508 3.70263 13.0937 3.81941C13.2366 3.93619 13.4155 3.99999 13.6 3.99999C13.7845 3.99999 13.9634 3.93619 14.1063 3.81941C14.2492 3.70263 14.3473 3.54004 14.384 3.35919C14.393 3.31612 14.4144 3.27661 14.4455 3.2455C14.4766 3.21438 14.5161 3.19301 14.5592 3.18399C14.74 3.14727 14.9026 3.04915 15.0194 2.90627C15.1362 2.76339 15.2 2.58453 15.2 2.39999C15.2 2.21545 15.1362 2.03659 15.0194 1.89371C14.9026 1.75083 14.74 1.65271 14.5592 1.61599C14.5161 1.60697 14.4766 1.5856 14.4455 1.55448C14.4144 1.52337 14.393 1.48386 14.384 1.44079C14.3473 1.25994 14.2492 1.09735 14.1063 0.980569C13.9634 0.863785 13.7845 0.799988 13.6 0.799988C13.4155 0.799988 13.2366 0.863785 13.0937 0.980569C12.9508 1.09735 12.8527 1.25994 12.816 1.44079C12.807 1.48386 12.7856 1.52337 12.7545 1.55448C12.7234 1.5856 12.6839 1.60697 12.6408 1.61599C12.46 1.65271 12.2974 1.75083 12.1806 1.89371C12.0638 2.03659 12 2.21545 12 2.39999C12 2.58453 12.0638 2.76339 12.1806 2.90627C12.2974 3.04915 12.46 3.14727 12.6408 3.18399ZM12.6408 14.384C12.728 14.4016 12.7984 14.472 12.816 14.5592C12.8527 14.74 12.9508 14.9026 13.0937 15.0194C13.2366 15.1362 13.4155 15.2 13.6 15.2C13.7845 15.2 13.9634 15.1362 14.1063 15.0194C14.2492 14.9026 14.3473 14.74 14.384 14.5592C14.393 14.5161 14.4144 14.4766 14.4455 14.4455C14.4766 14.4144 14.5161 14.393 14.5592 14.384C14.74 14.3473 14.9026 14.2492 15.0194 14.1063C15.1362 13.9634 15.2 13.7845 15.2 13.6C15.2 13.4155 15.1362 13.2366 15.0194 13.0937C14.9026 12.9508 14.74 12.8527 14.5592 12.816C14.5161 12.807 14.4766 12.7856 14.4455 12.7545C14.4144 12.7234 14.393 12.6839 14.384 12.6408C14.3473 12.4599 14.2492 12.2974 14.1063 12.1806C13.9634 12.0638 13.7845 12 13.6 12C13.4155 12 13.2366 12.0638 13.0937 12.1806C12.9508 12.2974 12.8527 12.4599 12.816 12.6408C12.807 12.6839 12.7856 12.7234 12.7545 12.7545C12.7234 12.7856 12.6839 12.807 12.6408 12.816C12.46 12.8527 12.2974 12.9508 12.1806 13.0937C12.0638 13.2366 12 13.4155 12 13.6C12 13.7845 12.0638 13.9634 12.1806 14.1063C12.2974 14.2492 12.46 14.3473 12.6408 14.384Z" fill="#6D7175"/>
</g>
<defs>
<clipPath id="clip0_16565_43570">
<rect width="16" height="16" fill="white"/>
</clipPath>
</defs>
</svg>
