<svg width="16" height="16" viewBox="0 0 16 16" fill="none" xmlns="http://www.w3.org/2000/svg">
<path d="M3.20005 2.39999H2.40005V3.19999H0.800049V1.99999C0.800049 1.68173 0.926477 1.3765 1.15152 1.15146C1.37656 0.926416 1.68179 0.799988 2.00005 0.799988H3.20005V2.39999ZM7.20005 2.39999H4.80005V0.799988H7.20005V2.39999ZM11.2 2.39999H8.80005V0.799988H11.2V2.39999ZM0.800049 7.19999V4.79999H2.40005V7.19999H0.800049ZM0.800049 8.79999V11.2H2.40005V8.79999H0.800049ZM13.6 4.79999H15.2V7.19999H13.6V4.79999ZM15.2 8.79999H13.6V11.2H15.2V8.79999ZM7.20005 15.2V13.6H4.80005V15.2H7.20005ZM11.2 13.6V15.2H8.80005V13.6H11.2ZM7.20005 5.99999C7.20005 6.31825 7.07362 6.62347 6.84858 6.84852C6.62353 7.07356 6.31831 7.19999 6.00005 7.19999C5.68179 7.19999 5.37656 7.07356 5.15152 6.84852C4.92648 6.62347 4.80005 6.31825 4.80005 5.99999C4.80005 5.68173 4.92648 5.3765 5.15152 5.15146C5.37656 4.92642 5.68179 4.79999 6.00005 4.79999C6.31831 4.79999 6.62353 4.92642 6.84858 5.15146C7.07362 5.3765 7.20005 5.68173 7.20005 5.99999ZM10 11.2C10.1576 11.2 10.3137 11.1689 10.4593 11.1086C10.6049 11.0483 10.7371 10.9599 10.8486 10.8485C10.96 10.7371 11.0484 10.6048 11.1087 10.4592C11.169 10.3136 11.2 10.1576 11.2 9.99999C11.2 9.8424 11.169 9.68636 11.1087 9.54077C11.0484 9.39518 10.96 9.26289 10.8486 9.15146C10.7371 9.04003 10.6049 8.95164 10.4593 8.89133C10.3137 8.83103 10.1576 8.79999 10 8.79999C9.68179 8.79999 9.37656 8.92642 9.15152 9.15146C8.92648 9.3765 8.80005 9.68173 8.80005 9.99999C8.80005 10.3182 8.92648 10.6235 9.15152 10.8485C9.37656 11.0736 9.68179 11.2 10 11.2ZM10.9656 5.03439C11.1156 5.18441 11.1999 5.38786 11.1999 5.59999C11.1999 5.81212 11.1156 6.01556 10.9656 6.16559L6.16565 10.9656C6.01477 11.1113 5.81269 11.1919 5.60293 11.1901C5.39317 11.1883 5.19252 11.1042 5.04419 10.9558C4.89587 10.8075 4.81173 10.6069 4.80991 10.3971C4.80809 10.1874 4.88872 9.98527 5.03445 9.83439L9.83445 5.03439C9.98447 4.88441 10.1879 4.80016 10.4 4.80016C10.6122 4.80016 10.8156 4.88441 10.9656 5.03439ZM14.4 15.2C14.6122 15.2 14.8157 15.1157 14.9657 14.9657C15.1158 14.8156 15.2 14.6122 15.2 14.4V12.8H13.6V13.6H12.8V15.2H14.4ZM1.60005 15.2C1.38788 15.2 1.18439 15.1157 1.03436 14.9657C0.884334 14.8156 0.800049 14.6122 0.800049 14.4V12.8H2.40005V13.6H3.20005V15.2H1.60005ZM13.6 3.19999V2.39999H12.8V0.799988H14C14.3183 0.799988 14.6235 0.926416 14.8486 1.15146C15.0736 1.3765 15.2 1.68173 15.2 1.99999V3.19999H13.6Z" fill="#6D7175"/>
</svg>
