<svg width="16" height="16" viewBox="0 0 16 16" fill="none" xmlns="http://www.w3.org/2000/svg">
<g clip-path="url(#clip0_16565_43571)">
<path fill-rule="evenodd" clip-rule="evenodd" d="M12.4 7.92032C10.4119 7.92032 8.8 9.53225 8.8 11.5203C8.8 13.5089 10.4119 15.1203 12.4 15.1203C14.3881 15.1203 16 13.5089 16 11.5203C16 9.53225 14.3881 7.92032 12.4 7.92032ZM11.3682 9.85233C11.1925 9.67657 10.9075 9.67657 10.7318 9.85233C10.5561 10.028 10.5561 10.313 10.7318 10.4887L11.7636 11.5205L10.7318 12.5523C10.5561 12.728 10.5561 13.013 10.7318 13.1887C10.9075 13.3644 11.1925 13.3644 11.3682 13.1887L12.4 12.1569L13.4318 13.1887C13.6075 13.3644 13.8925 13.3644 14.0682 13.1887C14.2439 13.013 14.2439 12.728 14.0682 12.5523L13.0364 11.5205L14.0682 10.4887C14.2439 10.313 14.2439 10.028 14.0682 9.85233C13.8925 9.67657 13.6075 9.67657 13.4318 9.85233L12.4 10.8841L11.3682 9.85233Z" fill="#6D7175"/>
<path d="M1.2 0C0.537258 0 0 0.537258 0 1.2V2.4H16V1.2C16 0.537258 15.4627 0 14.8 0H1.2Z" fill="#6D7175"/>
<path fill-rule="evenodd" clip-rule="evenodd" d="M0 10V4H16V6.4H11.2C8.99432 6.4 7.2 8.18848 7.2 10.3896C7.2 10.8372 7.2 10.8 7.2 11.2H1.2C0.537258 11.2 0 10.6627 0 10ZM1.6 7.2H5.6V5.6H1.6V7.2Z" fill="#6D7175"/>
</g>
<defs>
<clipPath id="clip0_16565_43571">
<rect width="16" height="16" fill="white"/>
</clipPath>
</defs>
</svg>
