<svg width="16" height="16" viewBox="0 0 16 16" fill="none" xmlns="http://www.w3.org/2000/svg">
<g clip-path="url(#clip0_16565_43429)">
<path fill-rule="evenodd" clip-rule="evenodd" d="M2.00005 0.799988C1.68179 0.799988 1.37656 0.926416 1.15152 1.15146C0.926477 1.3765 0.800049 1.68173 0.800049 1.99999V10.8C0.800049 11.1182 0.926477 11.4235 1.15152 11.6485C1.37656 11.8736 1.68179 12 2.00005 12H5.60005C5.60005 12.42 5.58805 12.6344 5.48485 12.8424C5.38885 13.0336 5.15205 13.3304 4.44245 13.6848C4.28001 13.7661 4.15008 13.9003 4.07403 14.0652C3.99797 14.2302 3.98033 14.4161 4.02399 14.5925C4.06765 14.7688 4.17002 14.925 4.31427 15.0354C4.45851 15.1458 4.63604 15.2039 4.81765 15.2H11.1824C11.3655 15.2034 11.5441 15.1442 11.6889 15.0321C11.8337 14.9201 11.9358 14.762 11.9784 14.584C12.0205 14.4058 12.0003 14.2186 11.9211 14.0535C11.8419 13.8884 11.7086 13.7555 11.5432 13.6768C10.8448 13.3256 10.6104 13.032 10.5152 12.8424C10.4112 12.6344 10.4 12.42 10.4 12H14C14.3183 12 14.6235 11.8736 14.8486 11.6485C15.0736 11.4235 15.2 11.1182 15.2 10.8V1.99999C15.2 1.68173 15.0736 1.3765 14.8486 1.15146C14.6235 0.926416 14.3183 0.799988 14 0.799988H2.00005ZM9.10645 13.6C9.09909 13.5859 9.09189 13.5718 9.08485 13.5576C8.79925 12.9864 8.79925 12.4216 8.80005 12.0416V12H7.20005V12.0416C7.20005 12.4216 7.20085 12.9864 6.91525 13.5576C6.90819 13.5718 6.90099 13.5859 6.89365 13.6H9.10645ZM13.6 8.79999H2.40005V10.4H13.6V8.79999Z" fill="#6D7175"/>
</g>
<defs>
<clipPath id="clip0_16565_43429">
<rect width="16" height="16" fill="white"/>
</clipPath>
</defs>
</svg>
