<svg width="17" height="16" viewBox="0 0 17 16" fill="none" xmlns="http://www.w3.org/2000/svg">
<path fill-rule="evenodd" clip-rule="evenodd" d="M4.08546 13.9532C4.59613 14.7349 5.49812 16 6.97832 16C7.26461 15.9975 7.54907 15.9539 7.82296 15.8705C8.17477 15.7489 8.50327 15.5682 8.79434 15.3362C8.97308 15.2018 9.16181 15.0812 9.35889 14.9754C9.53004 15.0055 9.69194 15.0471 9.86146 15.0911C10.2035 15.1936 10.5576 15.2504 10.9145 15.2599L10.9742 15.2576C12.6188 15.2229 13.7682 13.96 13.9995 11.9502C14.0517 11.9132 14.1039 11.8762 14.1566 11.8369C15.0422 11.2102 16.0459 10.4978 16.0024 8.96675C15.9807 8.20121 15.6645 7.71784 15.3583 7.25065C15.2352 7.06906 15.1225 6.88065 15.0206 6.68633C15.0507 6.5198 15.0912 6.35791 15.1337 6.18907C15.2413 5.82707 15.2984 5.45193 15.3033 5.0743C15.2751 3.41602 13.9681 2.22723 11.9578 2.01214C11.3965 1.20497 10.4892 0 9.04874 0C8.75487 0.00186029 8.46301 0.0486575 8.18329 0.138768C7.89429 0.255305 7.62306 0.411786 7.37751 0.603643C7.1634 0.777963 6.92087 0.914096 6.66054 1.00607C6.54845 0.991723 6.43869 0.962961 6.33397 0.920497C6.23482 0.882066 6.13293 0.851141 6.02914 0.827985C5.76577 0.773573 5.49761 0.74568 5.22868 0.744724C3.47418 0.744724 2.23891 2.04915 2.04718 4.08442C1.18219 4.64643 -0.485111 5.84215 0.135184 7.82423C0.266407 8.18146 0.452254 8.51617 0.686095 8.81642C0.812842 8.98689 0.927232 9.1662 1.02839 9.35299C0.999249 9.52645 0.957156 9.68835 0.91275 9.85719C0.811186 10.192 0.755404 10.539 0.746921 10.8887C0.750622 12.5516 2.02521 13.7149 4.08546 13.9532ZM7.19269 5.84714C7.19269 6.54155 6.62977 7.10448 5.93536 7.10448C5.24095 7.10448 4.67802 6.54155 4.67802 5.84714C4.67802 5.15274 5.24095 4.58981 5.93536 4.58981C6.62977 4.58981 7.19269 5.15274 7.19269 5.84714ZM5.39334 11.4876C5.2601 11.4878 5.1298 11.4484 5.01896 11.3745C4.90811 11.3005 4.82172 11.1953 4.77072 11.0722C4.71972 10.9491 4.70641 10.8136 4.73248 10.683C4.75854 10.5523 4.82281 10.4323 4.91714 10.3382L10.3985 4.86145C10.5255 4.73835 10.6959 4.67014 10.8727 4.67152C11.0496 4.6729 11.2189 4.74377 11.344 4.86884C11.4691 4.9939 11.54 5.16314 11.5414 5.34002C11.5428 5.51691 11.4747 5.68726 11.3516 5.81433L5.87025 11.2911C5.80772 11.3538 5.73337 11.4034 5.65151 11.4372C5.56964 11.4709 5.48189 11.4881 5.39334 11.4876ZM11.5246 10.3513C11.5246 11.0457 10.9617 11.6086 10.2673 11.6086C9.57288 11.6086 9.00996 11.0457 9.00996 10.3513C9.00996 9.65687 9.57288 9.09394 10.2673 9.09394C10.9617 9.09394 11.5246 9.65687 11.5246 10.3513Z" fill="#6D7175"/>
</svg>
