<svg width="16" height="16" viewBox="0 0 16 16" fill="none" xmlns="http://www.w3.org/2000/svg">
<path d="M11.1016 2.4984L13.5024 4.9L13.9024 4.5C14.0642 4.34323 14.1932 4.15583 14.2819 3.94872C14.3706 3.74161 14.4172 3.51893 14.4189 3.29364C14.4207 3.06835 14.3777 2.84496 14.2923 2.63647C14.2069 2.42798 14.0809 2.23857 13.9215 2.07926C13.7622 1.91995 13.5728 1.79393 13.3643 1.70854C13.1558 1.62314 12.9325 1.58008 12.7072 1.58186C12.4819 1.58364 12.2592 1.63023 12.0521 1.71891C11.845 1.80759 11.6576 1.93659 11.5008 2.0984L11.1008 2.4984H11.1016ZM12.4 6L9.99841 3.5984L2.37921 11.2184L1.60001 14.3992L4.78081 13.62L12.4 6Z" fill="#6D7175"/>
</svg>
