<svg width="16" height="16" viewBox="0 0 16 16" fill="none" xmlns="http://www.w3.org/2000/svg">
<path d="M16 1.85651H0C0 1.85651 0 2.20032 0 2.62445C0 3.04857 0 3.39239 0 3.39239H16C16 3.39239 16 3.04857 16 2.62445C16 2.20032 16 1.85651 16 1.85651Z" fill="#6D7175"/>
<path d="M0 7.23209H6.91146C6.91146 7.23209 6.91146 7.5759 6.91146 8.00003C6.91146 8.42415 6.91146 8.76797 6.91146 8.76797H0C0 8.76797 0 8.42415 0 8.00003C0 7.5759 0 7.23209 0 7.23209Z" fill="#6D7175"/>
<path d="M6.37558 12.6077H0C0 12.6077 0 12.9515 0 13.3756C0 13.7997 0 14.1435 0 14.1435H6.37558C6.37558 14.1435 6.37558 13.7997 6.37558 13.3756C6.37558 12.9515 6.37558 12.6077 6.37558 12.6077Z" fill="#6D7175"/>
<path fill-rule="evenodd" clip-rule="evenodd" d="M13.1684 14H11.833C11.7314 14.0006 11.633 13.9649 11.5562 13.8996C11.4795 13.8343 11.4296 13.7438 11.416 13.645L11.3107 12.925C11.183 12.8652 11.0601 12.7956 10.9434 12.7169L10.2343 12.9938C10.1399 13.0271 10.0364 13.0266 9.9423 12.9923C9.84821 12.9579 9.76957 12.892 9.72033 12.8063L9.05649 11.6875C9.00598 11.6016 8.98863 11.5008 9.00759 11.4034C9.02655 11.306 9.08056 11.2186 9.15979 11.1569L9.75285 10.7057C9.74648 10.6313 9.74329 10.5638 9.74329 10.4994C9.74329 10.435 9.74329 10.3669 9.75285 10.2932L9.16107 9.84253C9.08135 9.78141 9.02685 9.6941 9.00763 9.5967C8.98842 9.4993 9.00577 9.39838 9.05649 9.31253L9.72352 8.18752C9.77339 8.10193 9.85302 8.03677 9.94785 8.00395C10.0427 7.97114 10.1464 7.97285 10.2401 8.00877L10.9415 8.28378C11.0582 8.20542 11.1808 8.13585 11.3082 8.07565L11.416 7.35065C11.4303 7.2526 11.4805 7.163 11.5573 7.09851C11.634 7.03401 11.732 6.99901 11.833 7.00002H13.1684C13.2698 6.99973 13.3679 7.03557 13.4444 7.10088C13.5209 7.16618 13.5705 7.2565 13.5841 7.35502L13.6913 8.07502C13.8191 8.13488 13.9419 8.20447 14.0586 8.28315L14.7671 8.00627C14.8615 7.97281 14.965 7.9733 15.0592 8.00763C15.1533 8.04197 15.2319 8.10793 15.2811 8.19378L15.9436 9.31253C15.9941 9.39843 16.0115 9.49926 15.9925 9.59665C15.9736 9.69403 15.9195 9.78151 15.8403 9.84315L15.2473 10.2944C15.253 10.3569 15.2568 10.4275 15.2568 10.5013C15.2568 10.575 15.253 10.6444 15.2473 10.7082L15.839 11.1588C15.9178 11.2195 15.9719 11.3059 15.9916 11.4022C16.0112 11.4986 15.9951 11.5987 15.9462 11.6844L15.2779 12.8125C15.228 12.8981 15.1484 12.9633 15.0535 12.9961C14.9587 13.0289 14.855 13.0272 14.7613 12.9913L14.0599 12.7163C13.9432 12.7946 13.8206 12.8642 13.6932 12.9244L13.5841 13.6494C13.5698 13.7473 13.5198 13.8367 13.4433 13.9011C13.3669 13.9656 13.2692 14.0007 13.1684 14ZM12.4925 11.8875C12.2184 11.8859 11.951 11.8032 11.7239 11.6498C11.4968 11.4963 11.3202 11.2791 11.2164 11.0254C11.1126 10.7717 11.0863 10.493 11.1408 10.2244C11.1952 9.95578 11.328 9.70931 11.5224 9.51608C11.7167 9.32284 11.964 9.1915 12.2329 9.13862C12.5018 9.08574 12.7804 9.11368 13.0334 9.21894C13.2865 9.32419 13.5027 9.50203 13.6548 9.73002C13.8069 9.95802 13.8881 10.226 13.8881 10.5C13.8866 10.869 13.7388 11.2222 13.4772 11.4824C13.2156 11.7425 12.8614 11.8882 12.4925 11.8875Z" fill="#6D7175"/>
</svg>
