<svg width="16" height="16" viewBox="0 0 16 16" fill="none" xmlns="http://www.w3.org/2000/svg">
<path fill-rule="evenodd" clip-rule="evenodd" d="M0.506937 3.609L0.5 3.60519V5.17996L0.5069 5.18366L0.5 12.4222C0.5 13.2321 1.17464 13.8946 2.00017 13.8946H13.9998C14.8254 13.8946 15.5 13.2321 15.5 12.4222V3.56508C15.4896 2.76383 14.8184 2.11 13.9998 2.11H2.00017C1.17985 2.11 0.513874 2.76557 0.506937 3.57029V3.609ZM1.90619 5.93358L1.9 12.4222C1.90003 12.4294 1.90168 12.4438 1.92126 12.463C1.94138 12.4828 1.96805 12.4946 2.00017 12.4946H13.9998C14.032 12.4946 14.0586 12.4828 14.0787 12.463C14.0985 12.4436 14.1 12.4294 14.1 12.4222V5.92301L8.17255 9.09952C8.05981 9.16019 7.92456 9.16019 7.81354 9.09952L1.90619 5.93358ZM14.1 4.36468L7.99567 7.71548L1.90694 4.3767V3.58034C1.90742 3.56928 1.91137 3.55499 1.92839 3.53831C1.94636 3.5207 1.96983 3.51 2.00017 3.51H13.9998C14.0303 3.51 14.0568 3.52116 14.0776 3.54136C14.096 3.55921 14.0994 3.5732 14.1 3.5807V4.36468Z" fill="#6D7175"/>
</svg>
