<svg width="16" height="16" viewBox="0 0 16 16" fill="none" xmlns="http://www.w3.org/2000/svg">
<path fill-rule="evenodd" clip-rule="evenodd" d="M2.5 1C1.67157 1 1 1.67157 1 2.5V13.5C1 14.3284 1.67157 15 2.5 15H13.5C14.3284 15 15 14.3284 15 13.5V2.5C15 1.67157 14.3284 1 13.5 1H2.5ZM11.6364 6.6364C11.9878 6.28493 11.9878 5.71508 11.6364 5.36361C11.2849 5.01214 10.7151 5.01214 10.3636 5.36361L6.99998 8.72721L5.63637 7.36361C5.2849 7.01214 4.71505 7.01214 4.36358 7.36361C4.01211 7.71508 4.01211 8.28493 4.36358 8.6364L6.36358 10.6364C6.71505 10.9879 7.2849 10.9879 7.63637 10.6364L11.6364 6.6364Z" fill="#6D7175"/>
</svg>
