<svg width="16" height="16" viewBox="0 0 16 16" fill="none" xmlns="http://www.w3.org/2000/svg">
<path d="M6.16241 10.9656C6.23696 10.8915 6.29612 10.8033 6.33649 10.7063C6.37685 10.6092 6.39764 10.5051 6.39764 10.4C6.39764 10.2949 6.37685 10.1908 6.33649 10.0937C6.29612 9.99665 6.23696 9.90852 6.16241 9.8344L5.12721 8.8H10.3984C10.6106 8.8 10.8141 8.71571 10.9641 8.56568C11.1141 8.41565 11.1984 8.21217 11.1984 8C11.1984 7.78782 11.1141 7.58434 10.9641 7.43431C10.8141 7.28428 10.6106 7.2 10.3984 7.2H5.12721L6.16241 6.1656C6.23668 6.09127 6.29559 6.00304 6.33577 5.90594C6.37595 5.80885 6.39661 5.70479 6.39657 5.59971C6.39653 5.49464 6.3758 5.39059 6.33555 5.29353C6.29531 5.19646 6.23634 5.10827 6.16201 5.034C6.08768 4.95972 5.99945 4.90081 5.90236 4.86064C5.80526 4.82046 5.7012 4.7998 5.59613 4.79984C5.49105 4.79987 5.387 4.82061 5.28994 4.86085C5.19287 4.9011 5.10468 4.96007 5.03041 5.0344L2.62961 7.4344C2.56282 7.50363 2.50915 7.5844 2.47121 7.6728C2.46081 7.6944 2.45441 7.716 2.44721 7.7384C2.42241 7.80764 2.40785 7.88014 2.40401 7.9536L2.40321 7.9752C2.39646 8.08367 2.41339 8.19231 2.45281 8.2936L2.45521 8.3032V8.3064C2.49361 8.396 2.54881 8.4728 2.61281 8.5416L2.62081 8.5536L2.62881 8.5656L5.03041 10.9656C5.10471 11.04 5.19294 11.099 5.29006 11.1392C5.38717 11.1795 5.49128 11.2002 5.59641 11.2002C5.70154 11.2002 5.80564 11.1795 5.90276 11.1392C5.99988 11.099 6.08811 11.04 6.16241 10.9656Z" fill="#6D7175"/>
<path d="M1.60001 13.2C1.60001 13.5183 1.72643 13.8235 1.95148 14.0485C2.17652 14.2736 2.48175 14.4 2.80001 14.4H13.2C13.5183 14.4 13.8235 14.2736 14.0485 14.0485C14.2736 13.8235 14.4 13.5183 14.4 13.2V2.80001C14.4 2.48175 14.2736 2.17652 14.0485 1.95148C13.8235 1.72643 13.5183 1.60001 13.2 1.60001H2.80001C2.48175 1.60001 2.17652 1.72643 1.95148 1.95148C1.72643 2.17652 1.60001 2.48175 1.60001 2.80001V4.00001C1.60001 4.21218 1.68429 4.41566 1.83432 4.56569C1.98435 4.71572 2.18783 4.80001 2.40001 4.80001C2.61218 4.80001 2.81566 4.71572 2.96569 4.56569C3.11572 4.41566 3.20001 4.21218 3.20001 4.00001V3.20001H12.8V12.8H3.20001V12C3.20001 11.7878 3.11572 11.5843 2.96569 11.4343C2.81566 11.2843 2.61218 11.2 2.40001 11.2C2.18783 11.2 1.98435 11.2843 1.83432 11.4343C1.68429 11.5843 1.60001 11.7878 1.60001 12V13.2Z" fill="#6D7175"/>
</svg>
