<svg width="16" height="16" viewBox="0 0 16 16" fill="none" xmlns="http://www.w3.org/2000/svg">
<path fill-rule="evenodd" clip-rule="evenodd" d="M8.00001 0C12.4183 0 16 3.58172 16 8.00001C16 11.993 13.0745 15.3027 9.25 15.9028V10.3125H11.1141L11.4688 8.00001L11.4688 8L9.25001 8.00001V6.49934C9.25001 5.94576 9.48729 5.40442 10.2124 5.27774C10.316 5.25964 10.4295 5.25 10.5537 5.25C10.5537 5.25 10.5537 5.25 10.5537 5.25H11.5625V3.28125C11.5625 3.28125 11.5053 3.27149 11.4058 3.25684C11.1073 3.21289 10.4282 3.12501 9.77172 3.12501C9.5433 3.12501 9.32477 3.14231 9.11722 3.17651C8.77063 3.23362 8.45467 3.33785 8.17447 3.48729C7.28015 3.96423 6.75 4.90166 6.75 6.2375V8H4.71875L4.71876 10.3125H6.75V15.9028C2.92548 15.3027 0 11.993 0 8.00001C0 3.58172 3.58172 0 8.00001 0Z" fill="#6D7175"/>
</svg>
