<svg width="16" height="16" viewBox="0 0 16 16" fill="none" xmlns="http://www.w3.org/2000/svg">
<path d="M2.56665 14C2.13331 14 1.76387 13.8472 1.45831 13.5417C1.15276 13.2361 0.999979 12.8667 0.999979 12.4333L0.99992 3.58336C0.99992 3.15002 1.1527 2.7778 1.45825 2.46669C1.76381 2.15558 2.13325 2.00002 2.56659 2.00002L13.4166 2.00002C13.8499 2.00002 14.2221 2.15557 14.5333 2.46668C14.8444 2.77779 14.9999 3.15002 14.9999 3.58335L15 12.4333C15 12.8667 14.8444 13.2361 14.5333 13.5417C14.2222 13.8472 13.85 14 13.4167 14L2.56665 14ZM3.79999 11.3333H7.03332V10H3.79999V11.3333ZM9.69999 10L12.9 6.8L11.95 5.85L9.69999 8.11667L8.74999 7.16667L7.81665 8.11667L9.69999 10ZM3.79999 8.66667H7.03332V7.33334H3.79999V8.66667ZM3.79999 6H7.03332V4.66667H3.79999V6Z" fill="#6D7175"/>
</svg>
