<svg width="16" height="16" viewBox="0 0 16 16" fill="none" xmlns="http://www.w3.org/2000/svg">
<path d="M7.6311 7.43822C7.69123 7.4648 7.74794 7.49852 7.79999 7.53867C7.82666 7.56267 7.84266 7.59645 7.84266 7.64089C7.84266 7.67111 7.82488 7.70311 7.79199 7.73778C7.75881 7.76705 7.71624 7.78345 7.67199 7.784C7.62403 7.78179 7.57694 7.77032 7.53333 7.75022C7.4684 7.71906 7.40493 7.68495 7.3431 7.648C7.26245 7.59641 7.18273 7.54337 7.10399 7.48889C6.89558 7.56007 6.67614 7.59349 6.45599 7.58756C6.26585 7.59093 6.07668 7.5596 5.89777 7.49511C5.74086 7.43973 5.59839 7.34981 5.48088 7.232C5.36753 7.11571 5.28132 6.97577 5.22844 6.82222C5.17023 6.65574 5.14165 6.48035 5.14399 6.304C5.14399 6.11556 5.17155 5.94311 5.22844 5.784C5.28622 5.62578 5.36888 5.49245 5.47733 5.38045C5.58755 5.27022 5.71999 5.18578 5.87644 5.12533C6.03466 5.06667 6.21155 5.03556 6.41066 5.03556C6.6791 5.03556 6.91199 5.08978 7.10666 5.19822C7.30133 5.30489 7.44799 5.45689 7.54755 5.65422C7.64799 5.85067 7.69777 6.08178 7.69777 6.34845C7.69777 6.75378 7.59555 7.07467 7.39644 7.30933C7.46666 7.35378 7.54666 7.39822 7.6311 7.43822ZM6.98755 7.03022C7.0686 6.94288 7.12824 6.8379 7.16177 6.72356C7.19999 6.60356 7.21955 6.46667 7.21955 6.30667C7.21955 6.10845 7.18399 5.93778 7.12088 5.79289C7.06082 5.65681 6.96103 5.54207 6.83461 5.46371C6.70818 5.38535 6.56103 5.34703 6.41244 5.35378C6.30443 5.35309 6.19739 5.37425 6.09777 5.416C6.0025 5.45539 5.9174 5.51587 5.84888 5.59289C5.77334 5.68055 5.71729 5.78327 5.68444 5.89422C5.64208 6.0263 5.62167 6.16443 5.62399 6.30311C5.62399 6.61245 5.69866 6.85245 5.84888 7.01956C5.99733 7.18578 6.19022 7.26845 6.41866 7.26845C6.51466 7.26845 6.61155 7.25067 6.71022 7.21067C6.63934 7.16218 6.56474 7.11938 6.4871 7.08267C6.42248 7.05573 6.36057 7.02269 6.30222 6.984C6.26755 6.96178 6.25244 6.92978 6.25244 6.88356C6.25244 6.84978 6.26666 6.81689 6.29866 6.78667C6.32701 6.75987 6.36454 6.74492 6.40355 6.74489C6.51822 6.74489 6.71288 6.83911 6.98755 7.02845V7.03022ZM10.0587 8.79111C10.0791 8.83822 10.1058 8.89867 10.136 8.97511L10.8089 10.5689C10.8613 10.6898 10.8889 10.7778 10.8889 10.832C10.8884 10.8624 10.8814 10.8924 10.8686 10.9199C10.8557 10.9475 10.8372 10.9721 10.8142 10.992C10.7906 11.015 10.7626 11.033 10.7319 11.045C10.7013 11.0571 10.6685 11.0629 10.6355 11.0622C10.5985 11.0642 10.5614 11.0578 10.5271 11.0436C10.4999 11.0286 10.4756 11.0091 10.4551 10.9858C10.4302 10.9503 10.4087 10.9125 10.3911 10.8729C10.368 10.8295 10.3478 10.7847 10.3307 10.7387L10.208 10.424H9.15999L9.03733 10.7431C8.98755 10.8676 8.94844 10.952 8.91288 10.9973C8.87733 11.0436 8.8231 11.0622 8.74488 11.0622C8.68088 11.0622 8.62044 11.04 8.57066 10.9956C8.52088 10.9511 8.49599 10.8951 8.49599 10.8356C8.49599 10.8036 8.50044 10.7689 8.51377 10.7333C8.52355 10.6978 8.54399 10.6453 8.57155 10.5804L9.23199 8.97867L9.29866 8.81422C9.32068 8.75788 9.34901 8.7042 9.3831 8.65422C9.41318 8.60975 9.45379 8.57341 9.50133 8.54845C9.55789 8.52044 9.62045 8.50671 9.68355 8.50845C9.74663 8.50689 9.80915 8.52061 9.86577 8.54845C9.91377 8.576 9.95199 8.61067 9.98222 8.65067C10.012 8.6925 10.037 8.73752 10.0569 8.78489L10.0595 8.79022L10.0587 8.79111ZM9.67822 8.98756L9.29688 10.1049H10.0658L9.67822 8.98756Z" fill="#6D7175"/>
<path d="M1 2C1 1.73478 1.10536 1.48043 1.29289 1.29289C1.48043 1.10536 1.73478 1 2 1H14C14.1313 1 14.2614 1.02587 14.3827 1.07612C14.504 1.12638 14.6142 1.20003 14.7071 1.29289C14.8 1.38575 14.8736 1.49599 14.9239 1.61732C14.9741 1.73864 15 1.86868 15 2V14C15 14.2652 14.8946 14.5196 14.7071 14.7071C14.5196 14.8946 14.2652 15 14 15H2C1.73478 15 1.48043 14.8946 1.29289 14.7071C1.10536 14.5196 1 14.2652 1 14V2ZM4.39 4.83417V8.125C4.39 8.37333 4.59083 8.57333 4.83833 8.57333H8.12917C8.18804 8.57333 8.24634 8.56174 8.30074 8.53921C8.35513 8.51668 8.40456 8.48365 8.44619 8.44202C8.48782 8.40039 8.52084 8.35097 8.54337 8.29657C8.5659 8.24218 8.5775 8.18388 8.5775 8.125V4.83417C8.5775 4.71526 8.53027 4.60123 8.44619 4.51715C8.36211 4.43307 8.24807 4.38583 8.12917 4.38583H4.83833C4.77946 4.38583 4.72116 4.39743 4.66676 4.41996C4.61237 4.44249 4.56295 4.47552 4.52131 4.51715C4.47968 4.55878 4.44666 4.6082 4.42413 4.6626C4.4016 4.71699 4.39 4.77529 4.39 4.83417ZM11.1217 11.5658C11.37 11.5658 11.5708 11.3658 11.5708 11.1167V7.82583C11.5709 7.76682 11.5594 7.70836 11.5369 7.65382C11.5143 7.59927 11.4813 7.54971 11.4395 7.50798C11.3978 7.46625 11.3482 7.43317 11.2937 7.41063C11.2391 7.3881 11.1807 7.37656 11.1217 7.37667H8.8775V8.42417C8.8775 8.48311 8.86588 8.54148 8.84329 8.59593C8.82071 8.65038 8.78761 8.69984 8.74589 8.74148C8.70417 8.78312 8.65465 8.81613 8.60016 8.83861C8.54567 8.86109 8.48728 8.87261 8.42833 8.8725H7.38083V11.1167C7.38083 11.365 7.58167 11.5658 7.83 11.5658H11.1208H11.1217Z" fill="#6D7175"/>
</svg>
