<svg width="16" height="16" viewBox="0 0 16 16" fill="none" xmlns="http://www.w3.org/2000/svg">
<path d="M2.12681 1.49689C1.80817 1.81542 1.62911 2.24747 1.629 2.69802H1.62809V14.1503C1.62734 14.3652 1.70838 14.5724 1.85476 14.7298C2.00114 14.8872 2.20191 14.9831 2.41635 14.9979C2.55827 15.0078 2.70044 14.9824 2.83013 14.9239L7.6465 12.7354L7.93514 9.68555L5.87998 10.5213C5.85349 10.5323 5.82426 10.5359 5.79503 10.5323C5.7658 10.5286 5.73932 10.5177 5.71557 10.5012C5.69221 10.4842 5.67358 10.4615 5.66144 10.4353C5.64929 10.4091 5.64403 10.3802 5.64615 10.3514L5.80691 8.14007C5.8103 8.09599 5.79619 8.05234 5.76763 8.01859L4.33724 6.3224C4.31886 6.30025 4.30638 6.27382 4.30095 6.24555C4.29552 6.21729 4.29732 6.18811 4.30619 6.16073C4.31518 6.1332 4.33106 6.10843 4.35232 6.08876C4.37359 6.0691 4.39952 6.0552 4.42767 6.04838L6.58147 5.51678C6.62384 5.50569 6.66041 5.47892 6.68377 5.44188L7.85476 3.55753C7.87028 3.53287 7.89129 3.51277 7.91687 3.49907C7.94216 3.48556 7.9704 3.47849 7.99907 3.47849C8.02775 3.47849 8.05599 3.48556 8.08128 3.49907C8.10653 3.51309 8.12787 3.53318 8.14339 3.55753L9.31529 5.44188C9.33904 5.47933 9.37557 5.50582 9.4185 5.51678L11.5714 6.04838C11.6134 6.05941 11.6498 6.08579 11.6733 6.12232C11.6968 6.15885 11.7057 6.20287 11.6984 6.24567C11.6928 6.27392 11.6803 6.30031 11.6618 6.3224L10.2314 8.01859C10.2033 8.05258 10.1892 8.09605 10.1922 8.14007L10.352 10.3523C10.3543 10.3812 10.3491 10.4101 10.337 10.4363C10.3248 10.4626 10.3061 10.4852 10.2826 10.5021C10.2593 10.5193 10.2319 10.53 10.2031 10.5332C10.1746 10.5369 10.1457 10.5331 10.1191 10.5222L8.06393 9.68647C8.02289 9.67 7.97709 9.67 7.93605 9.68647L7.64924 12.7354C7.75958 12.6848 7.87953 12.6587 8.0009 12.6587C8.12228 12.6587 8.24222 12.6848 8.35256 12.7354L13.1708 14.923C13.3002 14.9812 13.4421 15.0063 13.5837 14.9961C13.7253 14.9859 13.8621 14.9407 13.9819 14.8645C14.1011 14.7875 14.1992 14.6819 14.2673 14.5573C14.3354 14.4327 14.3714 14.2931 14.3719 14.1512V2.69893C14.3719 2.47582 14.3279 2.2549 14.2426 2.04878C14.1572 1.84265 14.032 1.65537 13.8743 1.4976C13.7165 1.33984 13.5292 1.2147 13.3231 1.12932C13.117 1.04394 12.8961 1 12.673 1H3.32976C2.87921 1.00011 2.44716 1.17917 2.12863 1.4978L2.12681 1.49689Z" fill="#6D7175"/>
</svg>
