<svg width="16" height="16" viewBox="0 0 16 16" fill="none" xmlns="http://www.w3.org/2000/svg">
<path fill-rule="evenodd" clip-rule="evenodd" d="M1.7815 2.85666C1.20348 2.25237 1.63179 1.25 2.46801 1.25H13.561C14.3758 1.25 14.8125 2.2085 14.2779 2.82337L11.2205 6.3393V11.0647C11.2205 11.3946 11.0494 11.7009 10.7684 11.8738L6.58018 14.4512C5.94723 14.8407 5.13229 14.3853 5.13229 13.6421V6.35977L1.7815 2.85666ZM3.75519 2.75L6.3688 5.48241C6.53791 5.65921 6.63229 5.89443 6.63229 6.13908V12.6578L9.72053 10.7574V6.13362C9.72053 5.90452 9.80332 5.68313 9.95365 5.51025L12.3539 2.75H3.75519Z" fill="#6D7175"/>
</svg>
