<svg width="16" height="16" viewBox="0 0 16 16" fill="none" xmlns="http://www.w3.org/2000/svg">
<g clip-path="url(#clip0_16565_43603)">
<path fill-rule="evenodd" clip-rule="evenodd" d="M4.00001 2.39999C3.78784 2.39999 3.58436 2.48428 3.43433 2.63431C3.2843 2.78434 3.20001 2.98782 3.20001 3.19999V9.59999C3.20001 9.81217 3.2843 10.0157 3.43433 10.1657C3.58436 10.3157 3.78784 10.4 4.00001 10.4H15.2C15.4122 10.4 15.6157 10.3157 15.7657 10.1657C15.9157 10.0157 16 9.81217 16 9.59999V3.19999C16 2.98782 15.9157 2.78434 15.7657 2.63431C15.6157 2.48428 15.4122 2.39999 15.2 2.39999H4.00001ZM9.60001 7.59999C9.91827 7.59999 10.2235 7.47357 10.4485 7.24852C10.6736 7.02348 10.8 6.71825 10.8 6.39999C10.8 6.08173 10.6736 5.77651 10.4485 5.55147C10.2235 5.32642 9.91827 5.19999 9.60001 5.19999C9.28175 5.19999 8.97653 5.32642 8.75148 5.55147C8.52644 5.77651 8.40001 6.08173 8.40001 6.39999C8.40001 6.71825 8.52644 7.02348 8.75148 7.24852C8.97653 7.47357 9.28175 7.59999 9.60001 7.59999Z" fill="#6D7175"/>
<path fill-rule="evenodd" clip-rule="evenodd" d="M12.8 12V12.8C12.8 13.0122 12.7157 13.2157 12.5657 13.3657C12.4157 13.5157 12.2122 13.6 12 13.6H0.8C0.587827 13.6 0.384344 13.5157 0.234315 13.3657C0.0842855 13.2157 0 13.0122 0 12.8V6.40001C0 6.18783 0.0842855 5.98435 0.234315 5.83432C0.384344 5.68429 0.587827 5.60001 0.8 5.60001H1.6V11.2C1.6 11.4122 1.68429 11.6157 1.83431 11.7657C1.98434 11.9157 2.18783 12 2.4 12H12.8Z" fill="#6D7175"/>
</g>
<defs>
<clipPath id="clip0_16565_43603">
<rect width="16" height="16" fill="white"/>
</clipPath>
</defs>
</svg>
