<svg width="16" height="16" viewBox="0 0 16 16" fill="none" xmlns="http://www.w3.org/2000/svg">
<path d="M6.18388 9.16513H3.50055C3.15022 9.16513 2.90855 8.81446 3.03322 8.48729L5.69955 1.48863C5.73562 1.39394 5.79961 1.31245 5.88304 1.25494C5.96647 1.19744 6.06539 1.16664 6.16672 1.16663H10.6661C11.0211 1.16663 11.2631 1.52629 11.1291 1.85513L9.57655 5.66579H12.4992C12.9291 5.66579 13.1584 6.17246 12.8749 6.49546L5.70922 14.6605C5.36088 15.0575 4.71505 14.7135 4.85022 14.203L6.18388 9.16513ZM6.51122 2.16663L4.22588 8.16529H6.83322C6.90977 8.1653 6.9853 8.18289 7.05398 8.21669C7.12266 8.2505 7.18267 8.29963 7.22936 8.36029C7.27606 8.42094 7.30821 8.49152 7.32332 8.56656C7.33844 8.6416 7.33612 8.71912 7.31655 8.79313L6.36138 12.4018L11.3954 6.66563H8.83305C8.47805 6.66563 8.23605 6.30596 8.37005 5.97713L9.92255 2.16646H6.51122V2.16663Z" fill="#6D7175"/>
</svg>
