<svg width="16" height="16" viewBox="0 0 16 16" fill="none" xmlns="http://www.w3.org/2000/svg">
<path fill-rule="evenodd" clip-rule="evenodd" d="M7.8774 3.54545C7.54811 3.54545 7.23992 3.38334 7.05336 3.11198L5.89938 1.43347C5.71283 1.16212 5.40464 1 5.07534 1H1.5C0.947715 1 0.5 1.44772 0.5 2V14C0.5 14.5523 0.947715 15 1.5 15H14.5C15.0523 15 15.5 14.5523 15.5 14V4.54545C15.5 3.99317 15.0523 3.54545 14.5 3.54545H7.8774ZM14 13.5H2V7.75H14V13.5ZM14 6.25V5.04545H7.8774C7.05416 5.04545 6.28369 4.64016 5.8173 3.96178L4.81233 2.5H2V6.25H14Z" fill="#6D7175"/>
</svg>
