<svg width="16" height="16" viewBox="0 0 16 16" fill="none" xmlns="http://www.w3.org/2000/svg">
<g clip-path="url(#clip0_16565_43517)">
<path d="M0.800003 1.6C0.800003 1.38783 0.884288 1.18435 1.03432 1.03432C1.18435 0.884288 1.38783 0.800003 1.6 0.800003H3.2V2.4H2.4V3.2H0.800003V1.6ZM14.4 0.800003C14.6122 0.800003 14.8157 0.884288 14.9657 1.03432C15.1157 1.18435 15.2 1.38783 15.2 1.6V3.2H13.6V2.4H12.8V0.800003H14.4ZM15.2 14V8.8H0.800003V14C0.800003 14.3183 0.926431 14.6235 1.15147 14.8485C1.37652 15.0736 1.68174 15.2 2 15.2H14C14.3183 15.2 14.6235 15.0736 14.8485 14.8485C15.0736 14.6235 15.2 14.3183 15.2 14ZM15.2 4.8V7.2H13.6V4.8H15.2ZM2.4 7.2V4.8H0.800003V7.2H2.4ZM11.2 0.800003V2.4H8.8V0.800003H11.2ZM7.2 2.4V0.800003H4.8V2.4H7.2Z" fill="#6D7175"/>
</g>
<defs>
<clipPath id="clip0_16565_43517">
<rect width="16" height="16" fill="white"/>
</clipPath>
</defs>
</svg>
