<svg width="16" height="16" viewBox="0 0 16 16" fill="none" xmlns="http://www.w3.org/2000/svg">
<path d="M7.56409 9.11153C7.55297 8.93478 7.47775 8.76817 7.35253 8.64293C7.21615 8.50659 7.0312 8.43 6.83835 8.43C6.6455 8.43 6.46055 8.50659 6.32417 8.64293L2.45382 12.5118L2.45455 9.17437L2.44945 9.09001C2.42757 8.906 2.33627 8.73729 2.1942 8.61831C2.05213 8.49934 1.87001 8.43909 1.68501 8.44986C1.50002 8.46062 1.32611 8.5416 1.19881 8.67625C1.0715 8.8109 1.00039 8.98907 1 9.17437V14.2682L1.00436 14.3533L1.02618 14.4624L1.05164 14.5387L1.09091 14.6216L1.14255 14.7016C1.16403 14.7305 1.18761 14.7577 1.21309 14.7831L1.27855 14.8413L1.34836 14.89L1.41964 14.9278L1.50036 14.9598L1.58109 14.9816L1.67273 14.994L1.72727 14.9962H6.80146L6.88582 14.9911C7.06286 14.9704 7.22614 14.8855 7.34466 14.7523C7.46318 14.6192 7.52868 14.4472 7.52873 14.2689L7.52364 14.1838C7.5028 14.0069 7.41775 13.8438 7.28463 13.7254C7.15152 13.6071 6.97959 13.5417 6.80146 13.5416L3.48364 13.5409L7.35253 9.6713L7.41289 9.60294C7.52144 9.46301 7.5752 9.28828 7.56409 9.11153Z" fill="#6D7175"/>
<path d="M9.20337 1H14.2776L14.3321 1.00218L14.4237 1.01455L14.5045 1.03636L14.5852 1.06836L14.6565 1.10618L14.7263 1.15491L14.7917 1.21309C14.8179 1.23855 14.8412 1.26618 14.8623 1.29455L14.9139 1.37455L14.9532 1.45745L14.9786 1.53382L15.0005 1.64291L15.0048 1.72727V6.82109C15.0044 7.0064 14.9333 7.18457 14.806 7.31922C14.6787 7.45387 14.5048 7.53484 14.3198 7.54561C14.1348 7.55638 13.9527 7.49612 13.8106 7.37715C13.6686 7.25818 13.5773 7.08946 13.5554 6.90545L13.5503 6.82109V3.48291L9.68066 7.35253C9.54978 7.48296 9.37416 7.55869 9.18947 7.56433C9.00478 7.56997 8.82487 7.5051 8.68628 7.38289C8.54768 7.26069 8.4608 7.09031 8.44328 6.90637C8.42576 6.72242 8.4789 6.53871 8.59193 6.39253L8.65229 6.32417L12.5205 2.45455H9.2041C9.02584 2.4547 8.85373 2.38938 8.72046 2.27099C8.58719 2.15261 8.50205 1.9894 8.48119 1.81236L8.4761 1.72727C8.47614 1.54903 8.54164 1.37701 8.66016 1.24387C8.77868 1.11074 8.94196 1.02577 9.11901 1.00509L9.20337 1Z" fill="#6D7175"/>
</svg>
