<svg width="16" height="16" viewBox="0 0 16 16" fill="none" xmlns="http://www.w3.org/2000/svg">
<path d="M1.72557 0.499989C1.06283 0.499989 0.525574 1.03725 0.525574 1.69999V6.29999C0.525574 6.96273 1.06283 7.49999 1.72557 7.49999H6.32557C6.98832 7.49999 7.52557 6.96273 7.52557 6.29999V1.69999C7.52557 1.03725 6.98832 0.499989 6.32557 0.499989H1.72557Z" fill="#6D7175"/>
<path d="M1.72557 8.49999C1.06283 8.49999 0.525574 9.03725 0.525574 9.69999V14.3C0.525574 14.9627 1.06283 15.5 1.72557 15.5H6.32557C6.98832 15.5 7.52557 14.9627 7.52557 14.3V9.69999C7.52557 9.03725 6.98832 8.49999 6.32557 8.49999H1.72557Z" fill="#6D7175"/>
<path d="M9.72557 8.49999C9.06283 8.49999 8.52557 9.03725 8.52557 9.69999V14.3C8.52557 14.9627 9.06283 15.5 9.72557 15.5H14.3256C14.9883 15.5 15.5256 14.9627 15.5256 14.3V9.69999C15.5256 9.03725 14.9883 8.49999 14.3256 8.49999H9.72557Z" fill="#6D7175"/>
<path d="M9.72557 0.493305C9.06283 0.493305 8.52557 1.03056 8.52557 1.69331V6.29331C8.52557 6.95605 9.06283 7.49331 9.72557 7.49331H14.3256C14.9883 7.49331 15.5256 6.95605 15.5256 6.29331V1.69331C15.5256 1.03056 14.9883 0.493305 14.3256 0.493305H9.72557Z" fill="#6D7175"/>
</svg>
