<svg width="16" height="16" viewBox="0 0 16 16" fill="none" xmlns="http://www.w3.org/2000/svg">
<path fill-rule="evenodd" clip-rule="evenodd" d="M7.5 6.30461C7.5 6.67244 7.3345 7.00161 7.07391 7.22173C6.86498 7.39822 6.59491 7.50461 6.3 7.50461H1.7C1.40509 7.50461 1.13502 7.39822 0.926087 7.22173C0.665496 7.00161 0.5 6.67244 0.5 6.30461V1.70461C0.5 1.04187 1.03726 0.504608 1.7 0.504608H6.3C6.96274 0.504608 7.5 1.04187 7.5 1.70461V6.30461ZM1.9 6.10461V1.90461H6.1V6.10461H1.9Z" fill="#6D7175"/>
<path fill-rule="evenodd" clip-rule="evenodd" d="M6.3 8.50461C6.59491 8.50461 6.86498 8.611 7.07391 8.78748C7.12557 8.83112 7.17349 8.87904 7.21712 8.9307C7.39361 9.13963 7.5 9.40969 7.5 9.70461V14.3046C7.5 14.5995 7.39361 14.8696 7.21712 15.0785C6.997 15.3391 6.66783 15.5046 6.3 15.5046H1.7C1.03726 15.5046 0.5 14.9674 0.5 14.3046V9.70461C0.5 9.33678 0.665496 9.00761 0.926088 8.78748C1.13502 8.611 1.40509 8.50461 1.7 8.50461H6.3ZM1.9 14.1046V9.90461H6.1V14.1046H1.9Z" fill="#6D7175"/>
<path fill-rule="evenodd" clip-rule="evenodd" d="M9.7 15.5046C9.33217 15.5046 9.003 15.3391 8.78288 15.0785C8.60639 14.8696 8.5 14.5995 8.5 14.3046V9.70461C8.5 9.40969 8.60639 9.13963 8.78288 8.9307C9.003 8.6701 9.33217 8.50461 9.7 8.50461H14.3C14.9627 8.50461 15.5 9.04187 15.5 9.70461V14.3046C15.5 14.9674 14.9627 15.5046 14.3 15.5046H9.7ZM9.9 14.1046V9.90461H14.1V14.1046H9.9Z" fill="#6D7175"/>
<path fill-rule="evenodd" clip-rule="evenodd" d="M15.4601 6.30461C15.4601 6.67244 15.2946 7.00161 15.034 7.22173C14.825 7.39822 14.555 7.50461 14.2601 7.50461H9.66006C9.36515 7.50461 9.09509 7.39822 8.88615 7.22173C8.62556 7.00161 8.46006 6.67244 8.46006 6.30461V1.70461C8.46006 1.04187 8.99732 0.504608 9.66006 0.504608H14.2601C14.9228 0.504608 15.4601 1.04187 15.4601 1.70461V6.30461ZM9.86006 6.10461V1.90461H14.0601V6.10461H9.86006Z" fill="#6D7175"/>
</svg>
