<svg width="16" height="16" viewBox="0 0 16 16" fill="none" xmlns="http://www.w3.org/2000/svg">
<g clip-path="url(#clip0_16565_43463)">
<path d="M15.1285 6.84407L15.0528 6.52308H8.07394V9.47692H12.2432C11.8104 11.5327 9.80152 12.6147 8.1605 12.6147C6.9667 12.6147 5.70798 12.1134 4.87485 11.3055C4.02008 10.476 3.47548 9.25331 3.47548 7.99459C3.47548 6.7503 4.0345 5.50601 4.8496 4.6873C5.6611 3.87221 6.89096 3.41056 8.11361 3.41056C9.51298 3.41056 10.5156 4.15352 10.8907 4.49255L12.9898 2.4043C12.373 1.86331 10.6815 0.5 8.04508 0.5C6.01094 0.5 4.05975 1.27903 2.63513 2.70005C1.22854 4.09942 0.5 6.12275 0.5 7.9982C0.5 9.87365 1.18887 11.7996 2.55218 13.2098C4.00926 14.7138 6.07225 15.5 8.19656 15.5C10.1297 15.5 11.9619 14.7426 13.2675 13.3685C14.5515 12.016 15.2151 10.1441 15.2151 8.18214C15.2151 7.35622 15.1321 6.86571 15.1285 6.84407Z" fill="#6D7175"/>
</g>
<defs>
<clipPath id="clip0_16565_43463">
<rect width="16" height="16" fill="white"/>
</clipPath>
</defs>
</svg>
