<svg width="16" height="16" viewBox="0 0 16 16" fill="none" xmlns="http://www.w3.org/2000/svg">
<g clip-path="url(#clip0_16565_43497)">
<path fill-rule="evenodd" clip-rule="evenodd" d="M2 0.800003C1.33726 0.800003 0.800003 1.33726 0.800003 2V14C0.800003 14.6627 1.33726 15.2 2 15.2H14C14.6627 15.2 15.2 14.6627 15.2 14V2C15.2 1.33726 14.6627 0.800003 14 0.800003H2ZM6 3.6C6.88 3.6 7.6 4.32 7.6 5.2C7.6 6.08 6.88 6.8 6 6.8C5.12 6.8 4.4 6.08 4.4 5.2C4.4 4.32 5.12 3.6 6 3.6ZM13.1992 13.6H2.7976C2.4696 13.6 2.2856 13.232 2.4776 12.968L5.32 9.7272C5.472 9.5592 5.736 9.5592 5.896 9.7192L7.2 11.2L9.648 7.3752C9.816 7.1352 10.168 7.1432 10.32 7.3912L13.5512 13C13.6952 13.272 13.5032 13.6 13.1992 13.6Z" fill="#6D7175"/>
</g>
<defs>
<clipPath id="clip0_16565_43497">
<rect width="16" height="16" fill="white"/>
</clipPath>
</defs>
</svg>
