<svg width="16" height="16" viewBox="0 0 16 16" fill="none" xmlns="http://www.w3.org/2000/svg">
<path fill-rule="evenodd" clip-rule="evenodd" d="M4.7 0.5H11.3C12.4139 0.5 13.4822 0.942499 14.2698 1.73015C15.0575 2.5178 15.5 3.58609 15.5 4.7V11.3C15.5 12.4139 15.0575 13.4822 14.2698 14.2698C13.4822 15.0575 12.4139 15.5 11.3 15.5H4.7C3.58609 15.5 2.5178 15.0575 1.73015 14.2698C0.942499 13.4822 0.5 12.4139 0.5 11.3V4.7C0.5 3.58609 0.942499 2.5178 1.73015 1.73015C2.5178 0.942499 3.58609 0.5 4.7 0.5ZM5.99995 10.9933C6.59196 11.3889 7.28799 11.6 8 11.6C8.95478 11.6 9.87045 11.2207 10.5456 10.5456C11.2207 9.87045 11.6 8.95478 11.6 8C11.6 7.28799 11.3889 6.59196 10.9933 5.99995C10.5977 5.40793 10.0355 4.94651 9.37766 4.67403C8.71985 4.40156 7.99601 4.33027 7.29768 4.46917C6.59934 4.60808 5.95788 4.95095 5.45442 5.45442C4.95095 5.95788 4.60808 6.59934 4.46917 7.29768C4.33027 7.99601 4.40156 8.71985 4.67403 9.37766C4.94651 10.0355 5.40793 10.5977 5.99995 10.9933ZM11.4 4.84832C11.548 4.94722 11.722 5 11.9 5C12.1387 5 12.3676 4.90518 12.5364 4.7364C12.7052 4.56761 12.8 4.3387 12.8 4.1C12.8 3.922 12.7472 3.74799 12.6483 3.59999C12.5494 3.45198 12.4089 3.33663 12.2444 3.26851C12.08 3.20039 11.899 3.18257 11.7244 3.21729C11.5498 3.25202 11.3895 3.33774 11.2636 3.4636C11.1377 3.58947 11.052 3.74984 11.0173 3.92442C10.9826 4.099 11.0004 4.27996 11.0685 4.44442C11.1366 4.60887 11.252 4.74943 11.4 4.84832ZM10.4 8.00001C10.4 9.32549 9.32549 10.4 8.00001 10.4C6.67453 10.4 5.60001 9.32549 5.60001 8.00001C5.60001 6.67453 6.67453 5.60001 8.00001 5.60001C9.32549 5.60001 10.4 6.67453 10.4 8.00001Z" fill="#6D7175"/>
</svg>
