<svg width="16" height="16" viewBox="0 0 16 16" fill="none" xmlns="http://www.w3.org/2000/svg">
<path d="M3.29279 1.28071C3.48139 1.09855 3.73399 0.997759 3.99619 1.00004C4.25838 1.00232 4.5092 1.10749 4.6946 1.29289C4.88001 1.4783 4.98518 1.72911 4.98746 1.99131C4.98974 2.25351 4.88894 2.50611 4.70679 2.69471L3.41379 3.98771H8.99979C9.265 3.98771 9.51936 4.09307 9.70689 4.28061C9.89443 4.46814 9.99979 4.7225 9.99979 4.98771C9.99979 5.25293 9.89443 5.50728 9.70689 5.69482C9.51936 5.88235 9.265 5.98771 8.99979 5.98771H3.41379L4.70679 7.28071C4.88894 7.46931 4.98974 7.72192 4.98746 7.98411C4.98518 8.24631 4.88001 8.49712 4.6946 8.68253C4.5092 8.86794 4.25838 8.97311 3.99619 8.97539C3.73399 8.97766 3.48139 8.87687 3.29279 8.69471L0.292786 5.69471C0.105315 5.50718 0 5.25288 0 4.98771C0 4.72255 0.105315 4.46824 0.292786 4.28071L3.29279 1.28071ZM12.7068 7.28071C12.6145 7.1852 12.5042 7.10902 12.3822 7.05661C12.2602 7.0042 12.129 6.97661 11.9962 6.97546C11.8634 6.97431 11.7317 6.99961 11.6088 7.04989C11.4859 7.10017 11.3743 7.17442 11.2804 7.26832C11.1865 7.36221 11.1122 7.47386 11.062 7.59676C11.0117 7.71965 10.9864 7.85133 10.9875 7.98411C10.9887 8.11689 11.0163 8.24811 11.0687 8.37012C11.1211 8.49212 11.1973 8.60246 11.2928 8.69471L12.5858 9.98771H6.99979C6.73457 9.98771 6.48022 10.0931 6.29268 10.2806C6.10514 10.4681 5.99979 10.7225 5.99979 10.9877C5.99979 11.2529 6.10514 11.5073 6.29268 11.6948C6.48022 11.8824 6.73457 11.9877 6.99979 11.9877H12.5858L11.2928 13.2807C11.1106 13.4693 11.0098 13.7219 11.0121 13.9841C11.0144 14.2463 11.1196 14.4971 11.305 14.6825C11.4904 14.8679 11.7412 14.9731 12.0034 14.9754C12.2656 14.9777 12.5182 14.8769 12.7068 14.6947L15.7068 11.6947C15.8943 11.5072 15.9996 11.2529 15.9996 10.9877C15.9996 10.7225 15.8943 10.4682 15.7068 10.2807L12.7068 7.28071Z" fill="#6D7175"/>
</svg>
