<svg width="16" height="16" viewBox="0 0 16 16" fill="none" xmlns="http://www.w3.org/2000/svg">
<path d="M8.49684 12.2857H7.72166L9.14364 3.71429H10.0763C10.1613 3.71429 10.2437 3.67972 10.3093 3.6165C10.3749 3.55328 10.4197 3.46535 10.4359 3.36776L10.5789 2.51062C10.623 2.246 10.4498 2 10.2192 2H6.56117C6.47616 2 6.3938 2.03457 6.32819 2.09779C6.26258 2.16101 6.2178 2.24894 6.20153 2.34653L6.05858 3.20367C6.01445 3.46829 6.18769 3.71429 6.41822 3.71429H7.19333L5.7714 12.2857H4.86746C4.78246 12.2857 4.70011 12.3203 4.6345 12.3835C4.56889 12.4467 4.52411 12.5346 4.50782 12.6322L4.36481 13.4893C4.32068 13.754 4.49392 14 4.72447 14H8.35383C8.43883 14 8.52118 13.9654 8.58679 13.9022C8.6524 13.839 8.69718 13.7511 8.71347 13.6535L8.85648 12.7964C8.90061 12.5317 8.72737 12.2857 8.49684 12.2857Z" fill="#6D7175"/>
</svg>
