<svg width="16" height="16" viewBox="0 0 16 16" fill="none" xmlns="http://www.w3.org/2000/svg">
<path d="M4.53447 16C3.93844 16.0016 3.348 15.885 2.79735 15.6569C2.24669 15.4287 1.74675 15.0937 1.32647 14.671C0.477054 13.8199 0 12.6665 0 11.464C0 10.2615 0.477054 9.10817 1.32647 8.25702L3.29247 6.29302C3.47998 6.10551 3.7343 6.00017 3.99947 6.00017C4.26465 6.00017 4.51897 6.10551 4.70647 6.29302C4.89398 6.48053 4.99932 6.73484 4.99932 7.00002C4.99932 7.2652 4.89398 7.51951 4.70647 7.70702L2.74047 9.67102C2.26599 10.1471 1.99957 10.7919 1.99957 11.464C1.99957 12.1362 2.26599 12.7809 2.74047 13.257C3.70147 14.216 5.37147 14.215 6.32747 13.257L8.29347 11.293C8.38632 11.2001 8.49655 11.1264 8.61789 11.0761C8.73922 11.0258 8.86927 10.9999 9.00062 10.9998C9.13197 10.9998 9.26204 11.0256 9.38341 11.0758C9.50478 11.126 9.61506 11.1997 9.70797 11.2925C9.80088 11.3854 9.8746 11.4956 9.92491 11.6169C9.97521 11.7383 10.0011 11.8683 10.0012 11.9997C10.0012 12.131 9.9754 12.2611 9.92518 12.3825C9.87495 12.5038 9.80132 12.6141 9.70847 12.707L7.74247 14.671C7.32233 15.0938 6.82242 15.429 6.27173 15.6572C5.72104 15.8853 5.13054 16.0018 4.53447 16ZM12.0015 10C11.8035 10.0005 11.6099 9.94207 11.4452 9.83227C11.2804 9.72246 11.1521 9.56619 11.0763 9.3833C11.0005 9.2004 10.9808 8.99912 11.0197 8.805C11.0585 8.61088 11.1542 8.43268 11.2945 8.29302L13.2605 6.32902C13.735 5.85293 14.0014 5.20818 14.0014 4.53602C14.0014 3.86386 13.735 3.21911 13.2605 2.74302C12.2995 1.78402 10.6295 1.78602 9.67347 2.74302L7.70747 4.70702C7.51997 4.89466 7.2656 5.00013 7.00033 5.00022C6.73506 5.00032 6.48061 4.89503 6.29297 4.70752C6.10533 4.52001 5.99987 4.26564 5.99977 4.00037C5.99968 3.7351 6.10497 3.48066 6.29247 3.29302L8.25847 1.32902C8.67862 0.906199 9.17853 0.571 9.72922 0.342864C10.2799 0.114727 10.8704 -0.00180652 11.4665 2.11701e-05C12.6775 2.11701e-05 13.8175 0.472021 14.6745 1.32902C15.5236 2.1803 16.0005 3.33362 16.0005 4.53602C16.0005 5.73842 15.5236 6.89174 14.6745 7.74302L12.7085 9.70702C12.6157 9.80002 12.5055 9.87378 12.3842 9.92406C12.2629 9.97434 12.1328 10.0002 12.0015 10ZM5.99947 11C5.80151 11.0005 5.60788 10.9421 5.44316 10.8323C5.27844 10.7225 5.15005 10.5662 5.0743 10.3833C4.99855 10.2004 4.97884 9.99912 5.01769 9.805C5.05653 9.61088 5.15217 9.43268 5.29247 9.29302L9.29347 5.29302C9.38632 5.20011 9.49655 5.1264 9.61789 5.07609C9.73922 5.02578 9.86927 4.99986 10.0006 4.99982C10.132 4.99977 10.262 5.0256 10.3834 5.07582C10.5048 5.12604 10.6151 5.19968 10.708 5.29252C10.8009 5.38537 10.8746 5.4956 10.9249 5.61693C10.9752 5.73827 11.0011 5.86832 11.0012 5.99967C11.0012 6.13102 10.9754 6.26109 10.9252 6.38245C10.875 6.50382 10.8013 6.61411 10.7085 6.70702L6.70747 10.707C6.61452 10.8 6.50414 10.8737 6.38265 10.924C6.26116 10.9743 6.13095 11.0001 5.99947 11Z" fill="#6D7175"/>
</svg>
