<svg width="16" height="16" viewBox="0 0 16 16" fill="none" xmlns="http://www.w3.org/2000/svg">
<g clip-path="url(#clip0_16565_43507)">
<path fill-rule="evenodd" clip-rule="evenodd" d="M0.800003 2C0.800003 1.68174 0.926431 1.37652 1.15147 1.15147C1.37652 0.926431 1.68174 0.800003 2 0.800003H14C14.3183 0.800003 14.6235 0.926431 14.8485 1.15147C15.0736 1.37652 15.2 1.68174 15.2 2V14C15.2 14.3183 15.0736 14.6235 14.8485 14.8485C14.6235 15.0736 14.3183 15.2 14 15.2H2C1.68174 15.2 1.37652 15.0736 1.15147 14.8485C0.926431 14.6235 0.800003 14.3183 0.800003 14V2ZM6.4 4H12.8V5.6H6.4V4ZM12.8 7.2H6.4V8.8H12.8V7.2ZM6.4 10.4H12.8V12H6.4V10.4ZM4 5.6C4.21218 5.6 4.41566 5.51572 4.56569 5.36569C4.71572 5.21566 4.8 5.01218 4.8 4.8C4.8 4.58783 4.71572 4.38435 4.56569 4.23432C4.41566 4.08429 4.21218 4 4 4C3.78783 4 3.58435 4.08429 3.43432 4.23432C3.28429 4.38435 3.2 4.58783 3.2 4.8C3.2 5.01218 3.28429 5.21566 3.43432 5.36569C3.58435 5.51572 3.78783 5.6 4 5.6ZM4.8 8C4.8 8.21218 4.71572 8.41566 4.56569 8.56569C4.41566 8.71572 4.21218 8.8 4 8.8C3.78783 8.8 3.58435 8.71572 3.43432 8.56569C3.28429 8.41566 3.2 8.21218 3.2 8C3.2 7.78783 3.28429 7.58435 3.43432 7.43432C3.58435 7.28429 3.78783 7.2 4 7.2C4.21218 7.2 4.41566 7.28429 4.56569 7.43432C4.71572 7.58435 4.8 7.78783 4.8 8ZM4 12C4.21218 12 4.41566 11.9157 4.56569 11.7657C4.71572 11.6157 4.8 11.4122 4.8 11.2C4.8 10.9878 4.71572 10.7843 4.56569 10.6343C4.41566 10.4843 4.21218 10.4 4 10.4C3.78783 10.4 3.58435 10.4843 3.43432 10.6343C3.28429 10.7843 3.2 10.9878 3.2 11.2C3.2 11.4122 3.28429 11.6157 3.43432 11.7657C3.58435 11.9157 3.78783 12 4 12Z" fill="#6D7175"/>
</g>
<defs>
<clipPath id="clip0_16565_43507">
<rect width="16" height="16" fill="white"/>
</clipPath>
</defs>
</svg>
