<svg width="16" height="16" viewBox="0 0 16 16" fill="none" xmlns="http://www.w3.org/2000/svg">
<path d="M6.22215 9.78002C7.20399 9.78002 7.99993 8.98408 7.99993 8.00224C7.99993 7.02039 7.20399 6.22445 6.22215 6.22445C5.2403 6.22445 4.44436 7.02039 4.44436 8.00224C4.44436 8.98408 5.2403 9.78002 6.22215 9.78002Z" fill="#6D7175"/>
<path fill-rule="evenodd" clip-rule="evenodd" d="M1.60001 1.78C0.716348 1.78 0 2.49635 0 3.38001V12.6245C0 13.5082 0.716349 14.2245 1.60001 14.2245H10.8445C11.7282 14.2245 12.4445 13.5082 12.4445 12.6245V3.38001C12.4445 2.49635 11.7282 1.78 10.8445 1.78H1.60001ZM6.22203 10.669C8.60112 10.669 10.5297 9.47504 10.5297 8.00227C10.5297 6.5295 8.60112 5.33559 6.22203 5.33559C3.84295 5.33559 1.91432 6.5295 1.91432 8.00227C1.91432 9.47504 3.84295 10.669 6.22203 10.669Z" fill="#6D7175"/>
<path d="M13.3333 4.87486C13.3333 4.60737 13.467 4.35759 13.6896 4.20921L15.3781 3.08351C15.6439 2.90629 16 3.09685 16 3.41633V12.5882C16 12.9077 15.6439 13.0983 15.3781 12.9211L13.6896 11.7953C13.467 11.647 13.3333 11.3972 13.3333 11.1297V4.87486Z" fill="#6D7175"/>
</svg>
