<svg width="16" height="16" viewBox="0 0 16 16" fill="none" xmlns="http://www.w3.org/2000/svg">
<g clip-path="url(#clip0_16565_43493)">
<path d="M5.7832 0.9384C4.56336 1.32193 3.46371 2.01501 2.59148 2.95007C1.71925 3.88514 1.1042 5.03026 0.806309 6.2738C0.508418 7.51734 0.537847 8.81685 0.891727 10.0456C1.24561 11.2744 1.91186 12.3905 2.82553 13.2851C3.73919 14.1797 4.86909 14.8223 6.10505 15.1503C7.34101 15.4782 8.64085 15.4802 9.87784 15.1562C11.1148 14.8322 12.2467 14.1931 13.1632 13.3014C14.0797 12.4097 14.7495 11.2957 15.1072 10.068C15.1471 9.94101 15.1612 9.80734 15.1487 9.67482C15.1362 9.5423 15.0975 9.41361 15.0346 9.29628C14.9717 9.17895 14.8861 9.07535 14.7827 8.99156C14.6793 8.90776 14.5602 8.84545 14.4324 8.80828C14.3046 8.77111 14.1706 8.75982 14.0384 8.77509C13.9062 8.79036 13.7783 8.83187 13.6624 8.89719C13.5464 8.96251 13.4446 9.05032 13.363 9.15548C13.2814 9.26064 13.2217 9.38104 13.1872 9.5096C12.9259 10.4053 12.437 11.218 11.7682 11.8685C11.0994 12.519 10.2734 12.9851 9.37082 13.2214C8.46823 13.4576 7.51982 13.456 6.61804 13.2167C5.71626 12.9774 4.89187 12.5085 4.22524 11.8557C3.55861 11.203 3.07248 10.3886 2.81423 9.49205C2.55599 8.5955 2.53445 7.64734 2.7517 6.73998C2.96896 5.83263 3.4176 4.99704 4.05389 4.31468C4.69019 3.63231 5.49242 3.12645 6.3824 2.8464C6.50769 2.807 6.62398 2.74332 6.72465 2.65898C6.82532 2.57463 6.90839 2.47129 6.96912 2.35485C7.02985 2.2384 7.06705 2.11114 7.07859 1.98032C7.09014 1.84949 7.0758 1.71768 7.0364 1.5924C6.99701 1.46712 6.93332 1.35082 6.84898 1.25016C6.76464 1.14949 6.6613 1.06642 6.54485 1.00569C6.42841 0.944958 6.30114 0.907759 6.17032 0.896214C6.0395 0.884668 5.90769 0.899003 5.7824 0.9384H5.7832Z" fill="#6D7175"/>
</g>
<defs>
<clipPath id="clip0_16565_43493">
<rect width="16" height="16" fill="white"/>
</clipPath>
</defs>
</svg>
