<svg width="16" height="16" viewBox="0 0 16 16" fill="none" xmlns="http://www.w3.org/2000/svg">
<g clip-path="url(#clip0_16565_43520)">
<path d="M0.799999 1.6C0.799999 1.38783 0.884285 1.18435 1.03431 1.03432C1.18434 0.884288 1.38783 0.800003 1.6 0.800003H3.2V2.4H2.4V3.2H0.799999V1.6ZM15.2 1.6C15.2 1.38783 15.1157 1.18435 14.9657 1.03432C14.8157 0.884288 14.6122 0.800003 14.4 0.800003H12.8V2.4H13.6V3.2H15.2V1.6ZM1.6 15.2C1.38783 15.2 1.18434 15.1157 1.03431 14.9657C0.884285 14.8157 0.799999 14.6122 0.799999 14.4V12.8H2.4V13.6H3.2V15.2H1.6ZM14.4 15.2C14.6122 15.2 14.8157 15.1157 14.9657 14.9657C15.1157 14.8157 15.2 14.6122 15.2 14.4V12.8H13.6V13.6H12.8V15.2H14.4ZM4.8 13.6H7.2V15.2H4.8V13.6ZM8.8 13.6H11.2V15.2H8.8V13.6ZM11.2 0.800003V2.4H8.8V0.800003H11.2ZM7.2 0.800003V2.4H4.8V0.800003H7.2ZM7.6784 5.0656C6.92646 4.73475 6.07607 4.70575 5.30334 4.98463C4.53061 5.2635 3.89473 5.82888 3.52738 6.56369C3.16003 7.29849 3.08935 8.14643 3.32998 8.93191C3.5706 9.71739 4.1041 10.3802 4.82 10.7832L7.6784 5.0656ZM6.4 11.2H12.8L9.6 4.8L6.4 11.2Z" fill="#6D7175"/>
</g>
<defs>
<clipPath id="clip0_16565_43520">
<rect width="16" height="16" fill="white"/>
</clipPath>
</defs>
</svg>
