<svg width="16" height="16" viewBox="0 0 16 16" fill="none" xmlns="http://www.w3.org/2000/svg">
<g clip-path="url(#clip0_16565_43602)">
<path d="M6.99998 1.99998C5.68973 2.00258 4.43286 2.51938 3.49976 3.43921C2.56666 4.35904 2.0319 5.60838 2.01054 6.91846C1.98918 8.22854 2.48292 9.49465 3.38554 10.4444C4.28815 11.3942 5.52751 11.9517 6.83698 11.997L7.49898 13.983C6.07563 14.0845 4.65524 13.7487 3.42812 13.0204C2.20099 12.2921 1.22576 11.2062 0.633078 9.90813C0.0403995 8.61006 -0.14141 7.16187 0.112009 5.75759C0.365429 4.3533 1.04197 3.06001 2.05099 2.05099C3.06001 1.04197 4.3533 0.365429 5.75759 0.112009C7.16187 -0.14141 8.61006 0.0403995 9.90813 0.633078C11.2062 1.22576 12.2921 2.20099 13.0204 3.42812C13.7487 4.65524 14.0845 6.07563 13.983 7.49898L11.997 6.83698C11.9547 5.53987 11.4097 4.31003 10.4772 3.4074C9.5447 2.50477 8.29778 2.00007 6.99998 1.99998Z" fill="#6D7175"/>
<path d="M7 6C6.73478 6 6.48043 6.10536 6.29289 6.29289C6.10536 6.48043 6 6.73478 6 7C6 7.26522 6.10536 7.51957 6.29289 7.70711C6.48043 7.89464 6.73478 8 7 8V10C6.40666 10 5.82664 9.82405 5.33329 9.49441C4.83994 9.16477 4.45543 8.69623 4.22836 8.14805C4.0013 7.59987 3.94189 6.99667 4.05765 6.41473C4.1734 5.83279 4.45912 5.29824 4.87868 4.87868C5.29824 4.45912 5.83279 4.1734 6.41473 4.05765C6.99667 3.94189 7.59987 4.0013 8.14805 4.22836C8.69623 4.45543 9.16477 4.83994 9.49441 5.33329C9.82405 5.82664 10 6.40666 10 7H8C8 6.73478 7.89464 6.48043 7.70711 6.29289C7.51957 6.10536 7.26522 6 7 6Z" fill="#6D7175"/>
<path d="M9.316 8.05099C9.1398 7.99224 8.95072 7.98371 8.76995 8.02637C8.58918 8.06903 8.42386 8.16119 8.29253 8.29253C8.16119 8.42386 8.06903 8.58918 8.02637 8.76995C7.98371 8.95072 7.99224 9.1398 8.05099 9.316L10.051 15.316C10.1172 15.5153 10.2445 15.6888 10.4149 15.8117C10.5852 15.9346 10.7899 16.0007 11 16.0007C11.21 16.0007 11.4148 15.9346 11.5851 15.8117C11.7555 15.6888 11.8828 15.5153 11.949 15.316L12.791 12.791L15.316 11.949C15.5153 11.8828 15.6888 11.7555 15.8117 11.5851C15.9346 11.4148 16.0007 11.21 16.0007 11C16.0007 10.7899 15.9346 10.5852 15.8117 10.4149C15.6888 10.2445 15.5153 10.1172 15.316 10.051L9.316 8.05099Z" fill="#6D7175"/>
</g>
<defs>
<clipPath id="clip0_16565_43602">
<rect width="16" height="16" fill="white"/>
</clipPath>
</defs>
</svg>
