<svg width="16" height="16" viewBox="0 0 16 16" fill="none" xmlns="http://www.w3.org/2000/svg">
<path d="M1.60001 2.88001C1.60001 2.54053 1.73486 2.21496 1.97491 1.97491C2.21496 1.73486 2.54053 1.60001 2.88001 1.60001H5.60001C5.81218 1.60001 6.01566 1.68429 6.16569 1.83432C6.31572 1.98435 6.40001 2.18783 6.40001 2.40001C6.40001 2.61218 6.31572 2.81566 6.16569 2.96569C6.01566 3.11572 5.81218 3.20001 5.60001 3.20001H3.20001V5.60001C3.20001 5.81218 3.11572 6.01566 2.96569 6.16569C2.81566 6.31572 2.61218 6.40001 2.40001 6.40001C2.18783 6.40001 1.98435 6.31572 1.83432 6.16569C1.68429 6.01566 1.60001 5.81218 1.60001 5.60001V2.88001ZM13.12 1.60001C13.4595 1.60001 13.7851 1.73486 14.0251 1.97491C14.2651 2.21496 14.4 2.54053 14.4 2.88001V5.60001C14.4 5.81218 14.3157 6.01566 14.1657 6.16569C14.0157 6.31572 13.8122 6.40001 13.6 6.40001C13.3878 6.40001 13.1843 6.31572 13.0343 6.16569C12.8843 6.01566 12.8 5.81218 12.8 5.60001V3.20001H10.4C10.1878 3.20001 9.98435 3.11572 9.83432 2.96569C9.68429 2.81566 9.60001 2.61218 9.60001 2.40001C9.60001 2.18783 9.68429 1.98435 9.83432 1.83432C9.98435 1.68429 10.1878 1.60001 10.4 1.60001H13.12ZM13.12 14.4H10.4C10.1878 14.4 9.98435 14.3157 9.83432 14.1657C9.68429 14.0157 9.60001 13.8122 9.60001 13.6C9.60001 13.3878 9.68429 13.1843 9.83432 13.0343C9.98435 12.8843 10.1878 12.8 10.4 12.8H12.8V10.4C12.8 10.1878 12.8843 9.98435 13.0343 9.83432C13.1843 9.68429 13.3878 9.60001 13.6 9.60001C13.8122 9.60001 14.0157 9.68429 14.1657 9.83432C14.3157 9.98435 14.4 10.1878 14.4 10.4V13.12C14.4 13.4595 14.2651 13.7851 14.0251 14.0251C13.7851 14.2651 13.4595 14.4 13.12 14.4ZM2.88001 14.4C2.54053 14.4 2.21496 14.2651 1.97491 14.0251C1.73486 13.7851 1.60001 13.4595 1.60001 13.12V10.4C1.60001 10.1878 1.68429 9.98435 1.83432 9.83432C1.98435 9.68429 2.18783 9.60001 2.40001 9.60001C2.61218 9.60001 2.81566 9.68429 2.96569 9.83432C3.11572 9.98435 3.20001 10.1878 3.20001 10.4V12.8H5.60001C5.81218 12.8 6.01566 12.8843 6.16569 13.0343C6.31572 13.1843 6.40001 13.3878 6.40001 13.6C6.40001 13.8122 6.31572 14.0157 6.16569 14.1657C6.01566 14.3157 5.81218 14.4 5.60001 14.4H2.88001Z" fill="#6D7175"/>
</svg>
