<svg width="16" height="16" viewBox="0 0 16 16" fill="none" xmlns="http://www.w3.org/2000/svg">
<g clip-path="url(#clip0_16565_43590)">
<path d="M3.99985 3.4142L4.29285 3.7072C4.3855 3.80039 4.49566 3.87434 4.617 3.9248C4.73833 3.97526 4.86844 4.00124 4.99985 4.00124C5.13126 4.00124 5.26137 3.97526 5.3827 3.9248C5.50403 3.87434 5.6142 3.80039 5.70685 3.7072C5.79979 3.61441 5.87353 3.50421 5.92384 3.38289C5.97415 3.26158 6.00005 3.13153 6.00005 3.0002C6.00005 2.86887 5.97415 2.73882 5.92384 2.61751C5.87353 2.49619 5.79979 2.38599 5.70685 2.2932L3.70685 0.293201C3.61406 0.200255 3.50386 0.126518 3.38254 0.0762068C3.26123 0.0258961 3.13118 0 2.99985 0C2.86852 0 2.73847 0.0258961 2.61716 0.0762068C2.49584 0.126518 2.38564 0.200255 2.29285 0.293201L0.292849 2.2932C0.105341 2.48071 0 2.73502 0 3.0002C0 3.1315 0.0258621 3.26152 0.0761092 3.38283C0.126356 3.50413 0.200005 3.61436 0.292849 3.7072C0.385694 3.80005 0.495916 3.87369 0.617224 3.92394C0.738531 3.97419 0.868547 4.00005 0.999849 4.00005C1.26503 4.00005 1.51934 3.89471 1.70685 3.7072L1.99985 3.4142V10.0002C1.99985 10.2654 2.10521 10.5198 2.29274 10.7073C2.48028 10.8948 2.73463 11.0002 2.99985 11.0002C3.26507 11.0002 3.51942 10.8948 3.70696 10.7073C3.89449 10.5198 3.99985 10.2654 3.99985 10.0002V3.4142ZM13.7068 15.7072L15.7069 13.7072C15.7998 13.6144 15.8735 13.5042 15.9238 13.3829C15.9742 13.2616 16 13.1315 16 13.0002C16 12.8689 15.9742 12.7388 15.9238 12.6175C15.8735 12.4962 15.7998 12.386 15.7069 12.2932L13.7068 10.2932C13.614 10.2004 13.5038 10.1267 13.3825 10.0765C13.2612 10.0262 13.1312 10.0004 12.9998 10.0004C12.8685 10.0004 12.7385 10.0262 12.6172 10.0765C12.4959 10.1267 12.3857 10.2004 12.2928 10.2932C12.2 10.386 12.1264 10.4963 12.0761 10.6176C12.0259 10.7389 12 10.8689 12 11.0002C12 11.1315 12.0259 11.2615 12.0761 11.3828C12.1264 11.5041 12.2 11.6144 12.2928 11.7072L12.5858 12.0002H5.99985C5.73463 12.0002 5.48028 12.1056 5.29274 12.2931C5.10521 12.4806 4.99985 12.735 4.99985 13.0002C4.99985 13.2654 5.10521 13.5198 5.29274 13.7073C5.48028 13.8948 5.73463 14.0002 5.99985 14.0002H12.5858L12.2928 14.2932C12.1997 14.3859 12.1257 14.496 12.0753 14.6173C12.0248 14.7387 11.9988 14.8688 11.9988 15.0002C11.9988 15.1316 12.0248 15.2617 12.0753 15.3831C12.1257 15.5044 12.1997 15.6145 12.2928 15.7072C12.3856 15.8001 12.4958 15.8739 12.6172 15.9242C12.7385 15.9745 12.8685 16.0004 12.9998 16.0004C13.1312 16.0004 13.2612 15.9745 13.3825 15.9242C13.5039 15.8739 13.6141 15.8001 13.7068 15.7072ZM7.99985 3.0002C7.73463 3.0002 7.48028 2.89484 7.29274 2.70731C7.10521 2.51977 6.99985 2.26542 6.99985 2.0002C6.99985 1.73498 7.10521 1.48063 7.29274 1.29309C7.48028 1.10556 7.73463 1.0002 7.99985 1.0002H8.99985C9.26507 1.0002 9.51942 1.10556 9.70696 1.29309C9.89449 1.48063 9.99985 1.73498 9.99985 2.0002C9.99985 2.26542 9.89449 2.51977 9.70696 2.70731C9.51942 2.89484 9.26507 3.0002 8.99985 3.0002H7.99985ZM13.9998 9.0002C14.2651 9.0002 14.5194 8.89484 14.707 8.70731C14.8945 8.51977 14.9998 8.26542 14.9998 8.0002V7.0002C14.9998 6.73498 14.8945 6.48063 14.707 6.29309C14.5194 6.10556 14.2651 6.0002 13.9998 6.0002C13.7346 6.0002 13.4803 6.10556 13.2927 6.29309C13.1052 6.48063 12.9998 6.73498 12.9998 7.0002V8.0002C12.9998 8.26542 13.1052 8.51977 13.2927 8.70731C13.4803 8.89484 13.7346 9.0002 13.9998 9.0002ZM14.9998 3.0002C14.9998 3.26542 14.8945 3.51977 14.707 3.70731C14.5194 3.89484 14.2651 4.0002 13.9998 4.0002C13.7346 4.0002 13.4803 3.89484 13.2927 3.70731C13.1052 3.51977 12.9998 3.26542 12.9998 3.0002C12.7346 3.0002 12.4803 2.89484 12.2927 2.70731C12.1052 2.51977 11.9998 2.26542 11.9998 2.0002C11.9998 1.73498 12.1052 1.48063 12.2927 1.29309C12.4803 1.10556 12.7346 1.0002 12.9998 1.0002H13.9998C14.2651 1.0002 14.5194 1.10556 14.707 1.29309C14.8945 1.48063 14.9998 1.73498 14.9998 2.0002V3.0002Z" fill="#6D7175"/>
</g>
<defs>
<clipPath id="clip0_16565_43590">
<rect width="16" height="16" fill="white"/>
</clipPath>
</defs>
</svg>
