<svg width="16" height="16" viewBox="0 0 16 16" fill="none" xmlns="http://www.w3.org/2000/svg">
<path fill-rule="evenodd" clip-rule="evenodd" d="M2.59595 2.26624C1.49138 2.26624 0.595947 3.16167 0.595947 4.26624V11.7336C0.595947 12.8382 1.49138 13.7336 2.59595 13.7336H10.0634C11.1679 13.7336 12.0634 12.8382 12.0634 11.7336V10.7128L13.9039 11.7755C14.5706 12.1604 15.4039 11.6793 15.4039 10.9095V5.09024C15.4039 4.32044 14.5706 3.83931 13.9039 4.22421L12.0634 5.28686V4.26624C12.0634 3.16167 11.1679 2.26624 10.0634 2.26624H2.59595ZM4.3245 5.2738C3.9368 5.2738 3.6225 5.5881 3.6225 5.97581C3.6225 6.36352 3.9368 6.67782 4.3245 6.67782H7.42049C7.8082 6.67782 8.1225 6.36352 8.1225 5.97581C8.1225 5.5881 7.8082 5.2738 7.42049 5.2738H4.3245Z" fill="#6D7175"/>
</svg>
