<svg width="16" height="16" viewBox="0 0 16 16" fill="none" xmlns="http://www.w3.org/2000/svg">
<path fill-rule="evenodd" clip-rule="evenodd" d="M3.40848 2.28683C3.96953 1.08365 5.39972 0.563096 6.60291 1.12415L12.2754 3.7693H13.0962C14.4238 3.7693 15.5 4.8455 15.5 6.17307V12.6979C15.5 14.0254 14.4238 15.1016 13.0962 15.1016H2.90377C1.57621 15.1016 0.5 14.0254 0.5 12.6979V6.17307C0.5 4.90946 1.47501 3.87358 2.71374 3.7767L3.40848 2.28683ZM4.40499 3.7693H8.65593L5.95644 2.5105C5.51892 2.30648 4.99885 2.49577 4.79483 2.93329L4.40499 3.7693ZM10.213 6.92722C10.5969 7.10347 10.7652 7.55755 10.589 7.94143L8.80074 11.8361C8.48937 12.5143 7.5262 12.5156 7.21299 11.8383L5.41186 7.94331C5.23456 7.55991 5.40164 7.10538 5.78504 6.92808C6.16844 6.75079 6.62297 6.91787 6.80027 7.30127L8.00425 9.90488L9.19883 7.30315C9.37508 6.91927 9.82916 6.75096 10.213 6.92722Z" fill="#6D7175"/>
</svg>
