<svg width="16" height="16" viewBox="0 0 16 16" fill="none" xmlns="http://www.w3.org/2000/svg">
<path d="M0 1.75C0 1.33579 0 1 0 1H16C16 1 16 1.33579 16 1.75C16 2.16421 16 2.5 16 2.5H0C0 2.5 0 2.16421 0 1.75Z" fill="#6D7175"/>
<path d="M0 8C0 7.58579 0 7.25 0 7.25H16C16 7.25 16 7.58579 16 8C16 8.41421 16 8.75 16 8.75H0C0 8.75 0 8.41421 0 8Z" fill="#6D7175"/>
<path d="M0 13.5C0 13.5 0 13.8358 0 14.25C0 14.6642 0 15 0 15H16C16 15 16 14.6642 16 14.25C16 13.8358 16 13.5 16 13.5H0Z" fill="#6D7175"/>
</svg>
