<svg width="16" height="16" viewBox="0 0 16 16" fill="none" xmlns="http://www.w3.org/2000/svg">
<path d="M8.0008 0.5C6.69822 0.499901 5.41806 0.839045 4.28638 1.48404C3.15469 2.12904 2.2105 3.05764 1.54676 4.17843C0.883016 5.29923 0.522612 6.57356 0.50103 7.87597C0.479448 9.17837 0.797432 10.4639 1.42368 11.6061L0.810675 13.7696C0.75349 13.9668 0.750276 14.1757 0.801368 14.3745C0.852459 14.5733 0.955984 14.7548 1.10113 14.8999C1.24628 15.0451 1.42774 15.1486 1.62655 15.1997C1.82536 15.2508 2.03425 15.2475 2.23139 15.1904L4.39492 14.5774C5.39756 15.1269 6.51257 15.4399 7.65472 15.4925C8.79688 15.5451 9.93594 15.3359 10.9848 14.8808C12.0337 14.4258 12.9647 13.737 13.7066 12.867C14.4485 11.997 14.9817 10.9689 15.2654 9.86132C15.5491 8.75371 15.5759 7.59591 15.3436 6.47639C15.1113 5.35687 14.6261 4.30529 13.9251 3.40201C13.2241 2.49872 12.3259 1.76766 11.2992 1.26469C10.2724 0.761718 9.14417 0.500158 8.0008 0.5ZM11.8735 7.25742L9.56576 9.56519C9.45548 9.67182 9.30808 9.73142 9.15469 9.73142C9.00129 9.73142 8.85389 9.67182 8.74362 9.56519L6.84692 7.66128L4.95023 9.56519C4.83813 9.65719 4.69582 9.7042 4.55098 9.69709C4.40614 9.68998 4.26912 9.62924 4.16658 9.5267C4.06403 9.42416 4.0033 9.28714 3.99618 9.1423C3.98907 8.99745 4.03609 8.85514 4.12809 8.74305L6.43585 6.43528C6.54524 6.32694 6.69297 6.26617 6.84692 6.26617C7.00088 6.26617 7.14861 6.32694 7.25799 6.43528L9.15469 8.33919L11.0514 6.43528C11.1635 6.34328 11.3058 6.29627 11.4506 6.30338C11.5955 6.31049 11.7325 6.37123 11.835 6.47377C11.9376 6.57631 11.9983 6.71333 12.0054 6.85817C12.0125 7.00302 11.9655 7.14533 11.8735 7.25742Z" fill="#6D7175"/>
</svg>
