<svg width="16" height="16" viewBox="0 0 16 16" fill="none" xmlns="http://www.w3.org/2000/svg">
<g clip-path="url(#clip0_16565_43548)">
<path d="M13.3 3.6C14.2941 3.6 15.1 2.79411 15.1 1.8C15.1 0.805887 14.2941 0 13.3 0C12.3059 0 11.5 0.805887 11.5 1.8C11.5 2.79411 12.3059 3.6 13.3 3.6Z" fill="#6D7175"/>
<path fill-rule="evenodd" clip-rule="evenodd" d="M13.3 5.00001C13.9674 5.00001 14.5872 4.79565 15.1 4.4461V10.85C15.1 11.2722 14.9417 11.6389 14.625 11.95C14.3084 12.2611 13.9389 12.4167 13.5167 12.4167H3.58335L0.916687 15.0833V2.48333C0.916687 2.06111 1.06946 1.69166 1.37502 1.37499C1.68058 1.05833 2.05002 0.899994 2.48335 0.899994H10.2283C10.1448 1.18549 10.1 1.48752 10.1 1.80001C10.1 3.56732 11.5327 5.00001 13.3 5.00001ZM4.90002 7.43333C5.13335 7.43333 5.3278 7.35555 5.48335 7.19999C5.63891 7.04444 5.71669 6.84999 5.71669 6.61666C5.71669 6.38333 5.63891 6.18888 5.48335 6.03333C5.3278 5.87777 5.13335 5.79999 4.90002 5.79999C4.66669 5.79999 4.47224 5.87777 4.31669 6.03333C4.16113 6.18888 4.08335 6.38333 4.08335 6.61666C4.08335 6.84999 4.16113 7.04444 4.31669 7.19999C4.47224 7.35555 4.66669 7.43333 4.90002 7.43333ZM8.05002 7.43333C8.28335 7.43333 8.4778 7.35555 8.63335 7.19999C8.78891 7.04444 8.86669 6.84999 8.86669 6.61666C8.86669 6.38333 8.78891 6.18888 8.63335 6.03333C8.4778 5.87777 8.28335 5.79999 8.05002 5.79999C7.81669 5.79999 7.62224 5.87777 7.46669 6.03333C7.31113 6.18888 7.23335 6.38333 7.23335 6.61666C7.23335 6.84999 7.31113 7.04444 7.46669 7.19999C7.62224 7.35555 7.81669 7.43333 8.05002 7.43333ZM11.0834 7.43333C11.3167 7.43333 11.5111 7.35555 11.6667 7.19999C11.8222 7.04444 11.9 6.84999 11.9 6.61666C11.9 6.38333 11.8222 6.18888 11.6667 6.03333C11.5111 5.87777 11.3167 5.79999 11.0834 5.79999C10.85 5.79999 10.6556 5.87777 10.5 6.03333C10.3445 6.18888 10.2667 6.38333 10.2667 6.61666C10.2667 6.84999 10.3445 7.04444 10.5 7.19999C10.6556 7.35555 10.85 7.43333 11.0834 7.43333Z" fill="#6D7175"/>
</g>
<defs>
<clipPath id="clip0_16565_43548">
<rect width="16" height="16" fill="white"/>
</clipPath>
</defs>
</svg>
