<svg width="16" height="16" viewBox="0 0 16 16" fill="none" xmlns="http://www.w3.org/2000/svg">
<path d="M1.95557 2.39922C1.95557 2.08096 2.07497 1.77573 2.28751 1.55069C2.50005 1.32565 2.78832 1.19922 3.0889 1.19922H6.11112C6.4117 1.19922 6.69997 1.32565 6.91251 1.55069C7.12505 1.77573 7.24446 2.08096 7.24446 2.39922V2.79922H8.75557V2.39922C8.75557 2.08096 8.87497 1.77573 9.08751 1.55069C9.30005 1.32565 9.58832 1.19922 9.8889 1.19922H12.9111C13.2117 1.19922 13.5 1.32565 13.7125 1.55069C13.9251 1.77573 14.0445 2.08096 14.0445 2.39922V3.01362C14.2742 3.15404 14.4649 3.35602 14.5976 3.59924C14.7302 3.84246 14.8 4.11837 14.8 4.39922V8.39922H1.20001V4.39922C1.20002 4.11837 1.26984 3.84246 1.40247 3.59924C1.5351 3.35602 1.72586 3.15404 1.95557 3.01362V2.39922ZM1.20001 9.99922H14.8V13.1992C14.8 13.6236 14.6408 14.0305 14.3574 14.3306C14.074 14.6306 13.6897 14.7992 13.2889 14.7992H2.71112C2.31035 14.7992 1.92599 14.6306 1.64261 14.3306C1.35922 14.0305 1.20001 13.6236 1.20001 13.1992V9.99922Z" fill="#6D7175"/>
</svg>
