<svg width="16" height="16" viewBox="0 0 16 16" fill="none" xmlns="http://www.w3.org/2000/svg">
<path fill-rule="evenodd" clip-rule="evenodd" d="M2.40002 1.2C2.40002 0.537258 2.93728 0 3.60002 0H12.4C13.0628 0 13.6 0.537258 13.6 1.2V14.8C13.6 15.4627 13.0628 16 12.4 16H3.60002C2.93728 16 2.40002 15.4627 2.40002 14.8V1.2ZM4.00002 1.6H12V12.8H4.00002V1.6ZM7.20002 13.6C6.7582 13.6 6.40002 13.9582 6.40002 14.4C6.40002 14.8418 6.7582 15.2 7.20002 15.2H8.80002C9.24185 15.2 9.60002 14.8418 9.60002 14.4C9.60002 13.9582 9.24185 13.6 8.80002 13.6H7.20002Z" fill="#6D7175"/>
</svg>
