<svg width="16" height="16" viewBox="0 0 16 16" fill="none" xmlns="http://www.w3.org/2000/svg">
<path d="M7.99999 4.80001C7.11759 4.80001 6.39999 4.08241 6.39999 3.20001C6.39999 2.31761 7.11759 1.60001 7.99999 1.60001C8.88239 1.60001 9.59999 2.31761 9.59999 3.20001C9.59999 4.08241 8.88239 4.80001 7.99999 4.80001ZM7.99999 6.40001C8.88239 6.40001 9.59999 7.11761 9.59999 8.00001C9.59999 8.88241 8.88239 9.60001 7.99999 9.60001C7.11759 9.60001 6.39999 8.88241 6.39999 8.00001C6.39999 7.11761 7.11759 6.40001 7.99999 6.40001ZM7.99999 11.2C8.88239 11.2 9.59999 11.9176 9.59999 12.8C9.59999 13.6824 8.88239 14.4 7.99999 14.4C7.11759 14.4 6.39999 13.6824 6.39999 12.8C6.39999 11.9176 7.11759 11.2 7.99999 11.2Z" fill="#6D7175"/>
</svg>
