<svg width="16" height="16" viewBox="0 0 16 16" fill="none" xmlns="http://www.w3.org/2000/svg">
<path fill-rule="evenodd" clip-rule="evenodd" d="M1 2.5C0.734784 2.5 0.48043 2.60536 0.292893 2.79289C0.105357 2.98043 0 3.23478 0 3.5V12.5C0 12.7652 0.105357 13.0196 0.292893 13.2071C0.48043 13.3946 0.734784 13.5 1 13.5H15C15.2652 13.5 15.5196 13.3946 15.7071 13.2071C15.8946 13.0196 16 12.7652 16 12.5V3.5C16 3.23478 15.8946 2.98043 15.7071 2.79289C15.5196 2.60536 15.2652 2.5 15 2.5H1ZM8 11C8.79565 11 9.55871 10.6839 10.1213 10.1213C10.6839 9.55871 11 8.79565 11 8C11 7.20435 10.6839 6.44129 10.1213 5.87868C9.55871 5.31607 8.79565 5 8 5C7.20435 5 6.44129 5.31607 5.87868 5.87868C5.31607 6.44129 5 7.20435 5 8C5 8.79565 5.31607 9.55871 5.87868 10.1213C6.44129 10.6839 7.20435 11 8 11Z" fill="#6D7175"/>
</svg>
