<svg width="16" height="16" viewBox="0 0 16 16" fill="none" xmlns="http://www.w3.org/2000/svg">
<path d="M8.82415 13.7142C8.31247 13.7142 7.81596 13.6058 7.33463 13.389C6.85331 13.1722 6.42401 12.8773 6.04676 12.5044C5.6695 12.1315 5.36813 11.7 5.14264 11.21C4.91715 10.72 4.80441 10.2018 4.80441 9.65546V9.14812C4.80441 8.94865 4.80224 8.734 4.7979 8.50418C4.79357 8.27435 4.7914 8.0467 4.7914 7.82121V7.20979C4.7914 6.95829 4.76538 6.75882 4.71335 6.61138C4.66131 6.46395 4.54857 6.39457 4.37511 6.40324C4.24503 6.40324 4.09542 6.40107 3.92631 6.39674C3.75719 6.3924 3.60325 6.39023 3.46449 6.39023C3.23901 6.39023 3.09374 6.32953 3.0287 6.20811C2.96365 6.08669 3.00918 5.92625 3.16529 5.72678C3.3214 5.51864 3.50569 5.28014 3.71817 5.01129C3.93064 4.74244 4.14963 4.46492 4.37511 4.17872C4.6006 3.89253 4.82175 3.61067 5.03857 3.33315C5.25538 3.05563 5.45052 2.80846 5.62397 2.59164C5.78007 2.39217 5.92751 2.29027 6.06627 2.28593C6.20503 2.2816 6.35246 2.37049 6.50857 2.55262C6.66468 2.74341 6.84897 2.96673 7.06145 3.22257C7.27393 3.47841 7.49291 3.7451 7.7184 4.02262C7.94388 4.30014 8.16504 4.57333 8.38185 4.84218C8.59866 5.11103 8.7938 5.34952 8.96725 5.55767C9.15805 5.78315 9.23176 5.97178 9.1884 6.12355C9.14504 6.27532 9.00628 6.35121 8.77212 6.35121C8.70273 6.35121 8.61818 6.35337 8.51844 6.35771C8.41871 6.36205 8.31247 6.36638 8.19973 6.37072C8.08698 6.37506 7.97857 6.37939 7.8745 6.38373C7.77043 6.38807 7.67937 6.39023 7.60132 6.39023C7.43654 6.39023 7.33463 6.4401 7.29561 6.53984C7.25658 6.63957 7.23707 6.77616 7.23707 6.94962C7.24574 7.33988 7.25008 7.77785 7.25008 8.26351V9.61644C7.25008 9.81591 7.29561 10.0154 7.38667 10.2148C7.47773 10.4143 7.59915 10.5964 7.75092 10.7612C7.90269 10.926 8.07831 11.0604 8.27778 11.1645C8.47725 11.2686 8.68973 11.3206 8.91521 11.3206H9.82583C10.1727 11.3206 10.5088 11.3184 10.834 11.3141C11.1592 11.3098 11.4433 11.3076 11.6861 11.3076H12.1414C12.3322 11.3076 12.4905 11.3661 12.6162 11.4832C12.742 11.6003 12.8374 11.7477 12.9024 11.9255C12.9675 12.1033 13 12.2963 13 12.5044C13 12.7125 12.9696 12.9055 12.9089 13.0833C12.8482 13.2611 12.7593 13.4085 12.6423 13.5256C12.5252 13.6427 12.3799 13.7012 12.2065 13.7012H11.8552H11.2438C11.0183 13.7012 10.7777 13.7034 10.5218 13.7077C10.266 13.7121 10.021 13.7142 9.78681 13.7142H9.1884H8.82415Z" fill="#6D7175"/>
</svg>
