<svg width="16" height="16" viewBox="0 0 16 16" fill="none" xmlns="http://www.w3.org/2000/svg">
<path fill-rule="evenodd" clip-rule="evenodd" d="M2 13.5H14V5.04545H7.8774C7.05416 5.04545 6.28369 4.64016 5.8173 3.96178L7.05336 3.11198C7.23992 3.38334 7.54811 3.54545 7.8774 3.54545H14.5C15.0523 3.54545 15.5 3.99317 15.5 4.54545V14C15.5 14.5523 15.0523 15 14.5 15H1.5C0.947715 15 0.5 14.5523 0.5 14V2C0.5 1.44772 0.947715 1 1.5 1H5.07534C5.40464 1 5.71283 1.16212 5.89938 1.43347L7.05336 3.11198L5.8173 3.96178L4.81233 2.5H2V13.5Z" fill="#6D7175"/>
<path d="M4.43921 8.37567H9.43921V9.87568H4.43921V8.37567Z" fill="#6D7175"/>
<path d="M9.43921 7.00435L11.5605 9.12568L9.43921 11.247V7.00435Z" fill="#6D7175"/>
</svg>
