<svg width="16" height="16" viewBox="0 0 16 16" fill="none" xmlns="http://www.w3.org/2000/svg">
<path d="M15.3269 1H0.673064C0.301718 1 0 1.30172 0 1.67306V12.5385C0 12.9098 0.301718 13.2116 0.673064 13.2116H6.24146L7.45548 14.9094C7.72149 15.2825 8.27672 15.2825 8.54452 14.9094L9.75854 13.2116H15.3269C15.6983 13.2116 16 12.9098 16 12.5385V1.67128C16 1.29993 15.6983 1 15.3269 1ZM7.00558 9.23388H3.9277V4.65276H6.97344V5.32046H4.70252V6.53983H6.8449V7.2129H4.70252V8.56617H7.09485L7.00558 9.23388ZM12.0527 9.23209H11.335L9.22473 5.9364V9.23209H8.47489V4.65276H9.19259L11.2957 7.96273V4.65276H12.0527V9.23209Z" fill="#6D7175"/>
</svg>
