<svg width="16" height="16" viewBox="0 0 16 16" fill="none" xmlns="http://www.w3.org/2000/svg">
<path fill-rule="evenodd" clip-rule="evenodd" d="M2.5 7.00001C2.5 4.19958 4.59296 1.888 7.29999 1.54413V1.2C7.29999 0.813405 7.61339 0.500004 7.99999 0.500004C8.38659 0.500004 8.69999 0.813405 8.69999 1.2V1.54413C11.407 1.88798 13.5 4.19957 13.5 7.00001V11.622H14.3C14.6866 11.622 15 11.9354 15 12.322C15 12.7086 14.6866 13.022 14.3 13.022H11.0424C10.751 14.4354 9.49961 15.498 7.99999 15.498C6.50037 15.498 5.24893 14.4354 4.95757 13.022H1.7C1.3134 13.022 1 12.7086 1 12.322C1 11.9354 1.3134 11.622 1.7 11.622H2.5V7.00001ZM6.4138 13.022C6.66458 13.6524 7.28025 14.098 7.99999 14.098C8.71973 14.098 9.3354 13.6524 9.58617 13.022H6.4138ZM12.1 7.00001V11.622H3.9V7.00001C3.9 4.73564 5.73563 2.90001 8 2.90001C10.2644 2.90001 12.1 4.73564 12.1 7.00001Z" fill="#6D7175"/>
</svg>
