<svg width="16" height="16" viewBox="0 0 16 16" fill="none" xmlns="http://www.w3.org/2000/svg">
<path d="M14.2 3.6C15.1941 3.6 16 2.79411 16 1.8C16 0.805887 15.1941 0 14.2 0C13.2059 0 12.4 0.805887 12.4 1.8C12.4 2.79411 13.2059 3.6 14.2 3.6Z" fill="#6D7175"/>
<path d="M8.62223 0.60907C8.45636 0.443196 8.23139 0.350009 7.99681 0.350009C7.76223 0.350009 7.53725 0.443196 7.37138 0.60907C7.2055 0.774943 7.11232 0.999916 7.11232 1.2345L7.11497 1.71673C7.11496 1.72911 7.11525 1.7415 7.11586 1.75388L7.11763 1.78925C5.88041 1.9981 4.75716 2.6384 3.94711 3.5966C3.13706 4.5548 2.69259 5.76894 2.69253 7.02366C2.69253 7.08023 2.69233 8.46282 2.69186 8.51799C2.66957 11.131 2.12195 12.199 1.27827 13.8431L1.2482 13.9032C1.21395 13.9701 1.19747 14.0447 1.20033 14.1198C1.2032 14.1949 1.22531 14.268 1.26456 14.3322C1.3038 14.3963 1.35886 14.4492 1.42446 14.4859C1.49005 14.5226 1.56398 14.5419 1.63914 14.5418H6.89386C6.89386 14.835 7.01035 15.1162 7.21769 15.3236C7.42503 15.5309 7.70625 15.6474 7.99947 15.6474C8.2927 15.6474 8.57392 15.5309 8.78126 15.3236C8.9886 15.1162 9.10508 14.835 9.10508 14.5418H14.3598C14.6889 14.5418 14.9012 14.1951 14.7508 13.9032L14.7207 13.8431C13.877 12.199 13.3294 11.131 13.3071 8.51799C13.3067 8.46282 13.3064 7.08023 13.3064 7.02366C13.3061 5.76909 12.8616 4.55516 12.0515 3.59715C11.2415 2.63914 10.1184 1.99895 8.88129 1.79014L8.88306 1.7636L8.88395 1.74503L8.88129 1.2345C8.88129 0.999916 8.78811 0.774943 8.62223 0.60907Z" fill="#6D7175"/>
</svg>
