<svg width="16" height="16" viewBox="0 0 16 16" fill="none" xmlns="http://www.w3.org/2000/svg">
<g clip-path="url(#clip0_16565_43577)">
<path d="M8.79998 0.8C8.79998 0.587827 8.7157 0.384344 8.56567 0.234315C8.41564 0.0842855 8.21216 0 7.99998 0C7.78781 0 7.58433 0.0842855 7.4343 0.234315C7.28427 0.384344 7.19998 0.587827 7.19998 0.8V6.8688L6.16558 5.8344C6.0147 5.68867 5.81262 5.60804 5.60286 5.60986C5.39311 5.61168 5.19246 5.69582 5.04413 5.84414C4.8958 5.99247 4.81167 6.19312 4.80984 6.40288C4.80802 6.61264 4.88866 6.81472 5.03438 6.9656L7.43438 9.3656C7.58441 9.51558 7.78785 9.59983 7.99998 9.59983C8.21212 9.59983 8.41556 9.51558 8.56558 9.3656L10.9656 6.9656C11.1113 6.81472 11.1919 6.61264 11.1901 6.40288C11.1883 6.19312 11.1042 5.99247 10.9558 5.84414C10.8075 5.69582 10.6069 5.61168 10.3971 5.60986C10.1873 5.60804 9.98527 5.68867 9.83438 5.8344L8.79998 6.8688V0.8Z" fill="#6D7175"/>
<path d="M2.39999 11.2V2.39999H5.59999V0.799988H1.99999C1.68173 0.799988 1.3765 0.926416 1.15146 1.15146C0.926416 1.3765 0.799988 1.68173 0.799988 1.99999V14C0.799988 14.3182 0.926416 14.6235 1.15146 14.8485C1.3765 15.0736 1.68173 15.2 1.99999 15.2H14C14.3182 15.2 14.6235 15.0736 14.8485 14.8485C15.0736 14.6235 15.2 14.3182 15.2 14V1.99999C15.2 1.68173 15.0736 1.3765 14.8485 1.15146C14.6235 0.926416 14.3182 0.799988 14 0.799988H10.4V2.39999H13.6V11.2H10.8C10.18 11.2 9.68959 11.7296 9.25919 12.1952L9.17119 12.2912C9.02154 12.4521 8.84026 12.5803 8.63872 12.6679C8.43718 12.7554 8.21972 12.8004 7.99999 12.8C7.78033 12.8002 7.56299 12.7551 7.36159 12.6674C7.16019 12.5797 6.97907 12.4513 6.82959 12.2904L6.74079 12.1944C6.31039 11.7312 5.81999 11.2 5.19999 11.2H2.39999Z" fill="#6D7175"/>
</g>
<defs>
<clipPath id="clip0_16565_43577">
<rect width="16" height="16" fill="white"/>
</clipPath>
</defs>
</svg>
