<svg width="16" height="16" viewBox="0 0 16 16" fill="none" xmlns="http://www.w3.org/2000/svg">
<path d="M6.66666 1.66667H2.33333C2.15666 1.66714 1.98737 1.73753 1.86244 1.86245C1.73752 1.98737 1.66713 2.15667 1.66666 2.33333V6.66667C1.66666 7.03289 1.96622 7.33333 2.33333 7.33333H7.33333V2.33333C7.33286 2.15667 7.26247 1.98737 7.13755 1.86245C7.01263 1.73753 6.84333 1.66714 6.66666 1.66667ZM13.6667 1.66667H9.33333C9.15666 1.66714 8.98737 1.73753 8.86244 1.86245C8.73752 1.98737 8.66713 2.15667 8.66666 2.33333V7.33333H13.6667C14.0329 7.33333 14.3333 7.03289 14.3333 6.66667V2.33333C14.3329 2.15667 14.2625 1.98737 14.1376 1.86245C14.0126 1.73753 13.8433 1.66714 13.6667 1.66667ZM1.66666 9.33333V13.6667C1.66666 14.0329 1.96622 14.3333 2.33333 14.3333H6.66666C7.03289 14.3333 7.33333 14.0329 7.33333 13.6667V8.66667H2.33333C2.15666 8.66714 1.98737 8.73753 1.86244 8.86245C1.73752 8.98737 1.66713 9.15667 1.66666 9.33333ZM13.6667 8.66667H8.66666V13.6667C8.66666 14.0329 8.96711 14.3333 9.33333 14.3333H13.6667C14.0329 14.3333 14.3333 14.0329 14.3333 13.6667V9.33333C14.3329 9.15667 14.2625 8.98737 14.1376 8.86245C14.0126 8.73753 13.8433 8.66714 13.6667 8.66667Z" fill="#6D7175"/>
</svg>
