<svg width="16" height="16" viewBox="0 0 16 16" fill="none" xmlns="http://www.w3.org/2000/svg">
<path d="M15.2 4.00001H8.79999V1.60001H12.9816C13.2872 1.59921 13.5704 1.72961 13.724 1.94321L15.2 4.00001ZM3.01839 1.60001H7.19999V4.00001H0.799988L2.27599 1.94321C2.42959 1.72961 2.71279 1.59921 3.01839 1.60001ZM0.799988 5.60001V14C0.799988 14.3183 0.926416 14.6235 1.15146 14.8485C1.3765 15.0736 1.68173 15.2 1.99999 15.2H14C14.3182 15.2 14.6235 15.0736 14.8485 14.8485C15.0736 14.6235 15.2 14.3183 15.2 14V5.60001H0.799988ZM2.39999 7.20001H7.19999V10.4H2.39999V7.20001Z" fill="#6D7175"/>
</svg>
