<svg width="16" height="16" viewBox="0 0 16 16" fill="none" xmlns="http://www.w3.org/2000/svg">
<g clip-path="url(#clip0_16565_43523)">
<path d="M9.952 0.352C9.84049 0.240347 9.70805 0.151784 9.56226 0.0913834C9.41647 0.0309823 9.26021 -7.14051e-05 9.1024 1.23287e-07H3.6C3.28174 1.23287e-07 2.97652 0.126428 2.75147 0.351472C2.52643 0.576516 2.4 0.88174 2.4 1.2V14.8C2.4 15.1183 2.52643 15.4235 2.75147 15.6485C2.97652 15.8736 3.28174 16 3.6 16H12.4C12.7183 16 13.0235 15.8736 13.2485 15.6485C13.4736 15.4235 13.6 15.1183 13.6 14.8V4.4968C13.5997 4.17865 13.4731 3.87363 13.248 3.6488L9.952 0.3512V0.352Z" fill="#6D7175"/>
</g>
<defs>
<clipPath id="clip0_16565_43523">
<rect width="16" height="16" fill="white"/>
</clipPath>
</defs>
</svg>
