<svg width="16" height="16" viewBox="0 0 16 16" fill="none" xmlns="http://www.w3.org/2000/svg">
<g clip-path="url(#clip0_16565_43486)">
<path d="M3.20181 4L0.439376 5.408C0.167923 5.544 -0.00772265 5.824 0.000261254 6.128V14.4C0.000261254 14.808 0.30365 15.144 0.702845 15.192L7.1219 15.992C7.15384 16 7.18577 16 7.21771 16C7.56102 16 7.8644 15.784 7.97618 15.456L9.38933 11.2H12.008C13.046 11.2 13.9322 10.528 14.2595 9.6H14.8024C15.4651 9.6 16 9.064 16 8.4V4H3.20181ZM4 8H12.008C12.2236 8 12.4152 8.08 12.5749 8.248C12.7266 8.392 12.8064 8.584 12.8064 8.8C12.8064 9.24 12.4472 9.6 12.008 9.6H8.81449C8.47118 9.6 8.16779 9.824 8.05602 10.144L6.66682 14.328L1.59704 13.696L1.59704 6.616L3.20181 5.816L3.20161 7.208C3.20959 7.648 3.56089 8 4 8ZM14.8024 0.799999H4.39939C3.73673 0.799999 3.20181 1.336 3.20181 2V2.4H16V2C16 1.336 15.4651 0.799999 14.8024 0.799999Z" fill="#6D7175"/>
</g>
<defs>
<clipPath id="clip0_16565_43486">
<rect width="16" height="16" fill="white"/>
</clipPath>
</defs>
</svg>
