<svg width="16" height="16" viewBox="0 0 16 16" fill="none" xmlns="http://www.w3.org/2000/svg">
<path d="M8.71967 6.17667C8.83854 6.10245 8.95014 6.01718 9.053 5.922C9.33967 5.65667 9.55467 5.31633 9.64533 4.943C9.80367 4.383 9.62 3.897 9.24133 3.628C9.042 3.48633 8.78933 3.40267 8.50267 3.40267H6.84L6.78667 3.628L6.11233 6.48367H7.70567C8.05833 6.48367 8.41067 6.36833 8.71933 6.17633L8.71967 6.17667ZM7.73133 4.51233H8.503C8.543 4.51233 8.56633 4.519 8.57833 4.52333C8.58236 4.5639 8.57747 4.60486 8.564 4.64333L8.55833 4.66367L8.55367 4.68433C8.467 5.03867 8.05533 5.37433 7.70533 5.37433H7.52733L7.73133 4.51233ZM15.1527 4.07067C14.829 3.67267 14.4207 3.34233 13.9573 3.08867C13.8307 2.52597 13.5761 2.00003 13.2133 1.55167C12.4283 0.586667 11.1463 0.00833333 9.77933 0H3.066L2.86933 0.864667L0.306 12.13L0 13.475V13.4827H2.51067L2.246 14.648L1.938 16H7.63867L7.832 15.1307L8.46967 12.2707H9.99167C12.9427 12.2707 15.2493 10.4767 15.8687 7.70133C15.9607 7.289 15.999 6.91067 16 6.562V6.448C15.976 5.349 15.5583 4.57033 15.1527 4.07033V4.07067ZM1.40167 12.3723L3.965 1.107H9.75C10.8207 1.107 12.0013 1.58633 12.579 2.60067C12.7777 2.95 12.9057 3.36333 12.932 3.843C12.951 4.17633 12.9213 4.543 12.832 4.94233C12.6293 5.85233 12.2077 6.612 11.6333 7.20434C10.7557 8.11067 9.51733 8.61767 8.13867 8.63767C8.10933 8.63834 8.08133 8.641 8.05233 8.641H5.62767L4.79667 12.3727H1.401L1.40167 12.3723ZM14.7717 7.46167C14.2527 9.79067 12.3127 11.1607 9.99167 11.1607H7.567L6.73567 14.8923H3.34167L3.66233 13.4823H5.699L5.89333 12.6113L6.53 9.75134H8.05267C11.003 9.75134 13.309 7.957 13.9287 5.18233C13.981 4.94733 14.0157 4.72333 14.0373 4.50833C14.7007 5.13633 15.074 6.10967 14.7717 7.46167Z" fill="#6D7175"/>
</svg>
