<svg width="16" height="16" viewBox="0 0 16 16" fill="none" xmlns="http://www.w3.org/2000/svg">
<g clip-path="url(#clip0_16565_43441)">
<path d="M4.16166 6.23911C3.97306 6.23911 3.79219 6.16419 3.65883 6.03083C3.52547 5.89747 3.45055 5.71659 3.45055 5.52799C3.45055 5.3394 3.52547 5.15852 3.65883 5.02516C3.79219 4.8918 3.97306 4.81688 4.16166 4.81688C4.35026 4.81688 4.53113 4.8918 4.66449 5.02516C4.79785 5.15852 4.87277 5.3394 4.87277 5.52799C4.87277 5.71659 4.79785 5.89747 4.66449 6.03083C4.53113 6.16419 4.35026 6.23911 4.16166 6.23911ZM4.16166 7.30577C4.3984 7.31113 4.63383 7.26913 4.85412 7.18224C5.07442 7.09536 5.27513 6.96534 5.44448 6.79981C5.61383 6.63429 5.7484 6.4366 5.8403 6.21836C5.9322 6.00011 5.97957 5.7657 5.97963 5.52889C5.97969 5.29209 5.93244 5.05766 5.84065 4.83936C5.74886 4.62107 5.61438 4.42331 5.44511 4.25771C5.27585 4.0921 5.0752 3.96198 4.85495 3.87498C4.6347 3.78799 4.3993 3.74587 4.16255 3.75111C3.69805 3.76138 3.25603 3.95308 2.93111 4.28518C2.60619 4.61729 2.42419 5.06339 2.42407 5.528C2.42396 5.99262 2.60573 6.43881 2.93049 6.77108C3.25524 7.10334 3.69716 7.29527 4.16166 7.30577Z" fill="#6D7175"/>
<path d="M1.77778 1.77778H14.2222C14.6937 1.77778 15.1459 1.96508 15.4793 2.29848C15.8127 2.63188 16 3.08406 16 3.55556V12.4444C16 12.9159 15.8127 13.3681 15.4793 13.7015C15.1459 14.0349 14.6937 14.2222 14.2222 14.2222H1.77778C1.30628 14.2222 0.854097 14.0349 0.520699 13.7015C0.187301 13.3681 0 12.9159 0 12.4444L0 3.55556C0 3.08406 0.187301 2.63188 0.520699 2.29848C0.854097 1.96508 1.30628 1.77778 1.77778 1.77778ZM14.2222 2.84445H1.77778C1.68439 2.84445 1.59192 2.86284 1.50565 2.89858C1.41937 2.93431 1.34098 2.98669 1.27495 3.05272C1.20891 3.11876 1.15653 3.19715 1.1208 3.28343C1.08506 3.3697 1.06667 3.46217 1.06667 3.55556V11.0631L4.36267 8.72356C4.60431 8.55223 4.89339 8.46058 5.1896 8.46137C5.48581 8.46217 5.77439 8.55538 6.01511 8.728L7.55733 9.83467L10.8436 7.32178C11.1035 7.12299 11.424 7.01993 11.7511 7.02996C12.0782 7.04 12.3918 7.16253 12.6391 7.37689L14.9333 9.36533V3.55556C14.9333 3.46217 14.9149 3.3697 14.8792 3.28343C14.8435 3.19715 14.7911 3.11876 14.7251 3.05272C14.659 2.98669 14.5806 2.93431 14.4944 2.89858C14.4081 2.86284 14.3156 2.84445 14.2222 2.84445ZM14.9333 10.7556C14.8942 10.7355 14.8575 10.7111 14.824 10.6827L11.9396 8.18311C11.8777 8.12959 11.7993 8.09904 11.7175 8.09661C11.6357 8.09418 11.5556 8.12002 11.4907 8.16978L8.46222 10.4853L9.81422 11.4551C9.92553 11.5389 9.99964 11.6629 10.0207 11.8006C10.0418 11.9383 10.0081 12.0788 9.92696 12.192C9.84579 12.3052 9.72354 12.3822 9.58636 12.4064C9.44918 12.4307 9.30796 12.4003 9.19289 12.3218L5.39289 9.59556C5.33263 9.55248 5.26044 9.52924 5.18636 9.52908C5.11229 9.52892 5.04 9.55185 4.97956 9.59467L1.13422 12.3236C1.11254 12.339 1.08965 12.3527 1.06578 12.3644V12.4453C1.06578 12.6339 1.1407 12.8148 1.27406 12.9482C1.40742 13.0815 1.58829 13.1564 1.77689 13.1564H14.2213C14.4099 13.1564 14.5908 13.0815 14.7242 12.9482C14.8575 12.8148 14.9324 12.6339 14.9324 12.4453V10.7564L14.9333 10.7556Z" fill="#6D7175"/>
</g>
<defs>
<clipPath id="clip0_16565_43441">
<rect width="16" height="16" fill="white"/>
</clipPath>
</defs>
</svg>
