<svg width="16" height="16" viewBox="0 0 16 16" fill="none" xmlns="http://www.w3.org/2000/svg">
<path d="M14.6554 5.91814L10.0678 1.33059C9.94682 1.20957 9.78856 1.14999 9.63031 1.14999C9.47205 1.14999 9.3138 1.20957 9.19278 1.33059L6.19337 4.33186C5.96623 4.3058 5.73722 4.29462 5.50822 4.29462C4.14536 4.29462 2.7825 4.74333 1.66354 5.64073C1.37682 5.86973 1.35261 6.29982 1.61327 6.56047L4.99621 9.94342L1.30021 13.6357C1.30021 13.6357 1.22016 13.7493 1.21457 13.8181L1.15127 14.5108C1.13451 14.6858 1.27415 14.8347 1.4473 14.8347C1.45661 14.8347 1.46592 14.8347 1.47523 14.8328L2.16783 14.7695C2.23672 14.764 2.30188 14.7323 2.35029 14.6839L6.04629 10.9879L9.42923 14.3708C9.55025 14.4919 9.7085 14.5514 9.86676 14.5514C10.0474 14.5514 10.2261 14.4732 10.349 14.3206C11.3972 13.0117 11.8329 11.3733 11.656 9.78888L14.6554 6.78948C14.8956 6.55116 14.8956 6.16018 14.6554 5.91814ZM10.2503 9.30109L10.321 9.94156C10.3899 10.569 10.3397 11.1927 10.1684 11.7978C10.0678 12.1515 9.93006 12.4885 9.75505 12.8069L3.18093 6.22907C3.4211 6.09688 3.67059 5.98517 3.93125 5.8958C4.43766 5.72079 4.96829 5.63328 5.50822 5.63328C5.68695 5.63328 5.86755 5.64259 6.04629 5.66307L6.68675 5.73382L9.63217 2.7884L13.1976 6.35381L10.2503 9.30109Z" fill="#6D7175"/>
</svg>
