<svg width="16" height="16" viewBox="0 0 16 16" fill="none" xmlns="http://www.w3.org/2000/svg">
<g clip-path="url(#clip0_16565_43585)">
<path d="M14.1523 2.4048C14.1523 2.07986 13.8895 1.81661 13.5654 1.81661H10.768V0.403015H14.2738C15.0033 0.403015 15.5946 0.993497 15.5946 1.722V5.47878H14.1523V2.4048ZM1.82161 2.4048V5.47878H0.405273V1.722C0.405273 0.993497 0.99667 0.403015 1.72609 0.403015H5.31971V1.81661H2.40889C2.08486 1.81661 1.82161 2.07986 1.82161 2.4048ZM1.82161 13.5737C1.82161 13.8982 2.08486 14.1614 2.40889 14.1614H5.31971V15.5796L1.72609 15.5723C0.99667 15.5723 0.405273 14.9818 0.405273 14.2533V10.9609H1.82161V13.5737ZM14.1523 13.5737V10.9609H15.5946V14.2533C15.5946 14.9818 15.0407 15.597 14.3113 15.597L10.768 15.5901V14.1614H13.5654C13.8895 14.1614 14.1523 13.8982 14.1523 13.5737Z" fill="#6D7175"/>
<path d="M7.8492 4.50003C8.00188 4.50021 8.15228 4.53699 8.28782 4.60728C8.42335 4.67757 8.54006 4.77932 8.62817 4.90401C8.71628 5.0287 8.77322 5.1727 8.79422 5.32393C8.81522 5.47516 8.79967 5.62922 8.74886 5.7732H10.0755C10.159 5.7732 10.2417 5.78965 10.3188 5.8216C10.3959 5.85355 10.466 5.90038 10.525 5.95941C10.5841 6.01845 10.6309 6.08854 10.6628 6.16567C10.6948 6.2428 10.7112 6.32548 10.7112 6.40897V7.73608C10.8554 7.68463 11.0098 7.66857 11.1615 7.68926C11.3131 7.70995 11.4576 7.76679 11.5827 7.85497C11.7078 7.94316 11.8099 8.06012 11.8803 8.19601C11.9508 8.33189 11.9876 8.48272 11.9876 8.63579C11.9876 8.78886 11.9508 8.93969 11.8803 9.07557C11.8099 9.21146 11.7078 9.32842 11.5827 9.41661C11.4576 9.50479 11.3131 9.56163 11.1615 9.58232C11.0098 9.60301 10.8554 9.58695 10.7112 9.5355V10.8626C10.7114 10.9462 10.6952 11.0291 10.6633 11.1064C10.6315 11.1837 10.5847 11.254 10.5256 11.3132C10.4666 11.3724 10.3964 11.4194 10.3192 11.4515C10.2419 11.4835 10.1591 11.5 10.0755 11.5H8.75092C8.80204 11.3559 8.81782 11.2016 8.79693 11.0501C8.77605 10.8987 8.7191 10.7544 8.63089 10.6295C8.54267 10.5046 8.42577 10.4027 8.28999 10.3324C8.15422 10.262 8.00355 10.2253 7.85064 10.2253C7.69774 10.2253 7.54706 10.262 7.41129 10.3324C7.27552 10.4027 7.15861 10.5046 7.0704 10.6295C6.98218 10.7544 6.92524 10.8987 6.90435 11.0501C6.88346 11.2016 6.89924 11.3559 6.95036 11.5H5.62331C5.53969 11.5 5.45689 11.4835 5.37965 11.4515C5.30241 11.4194 5.23225 11.3724 5.1732 11.3132C5.11415 11.254 5.06735 11.1837 5.0355 11.1064C5.00365 11.0291 4.98736 10.9462 4.98758 10.8626V9.54167C5.13127 9.59197 5.28492 9.60712 5.43567 9.58585C5.58642 9.56458 5.72987 9.50751 5.85404 9.41942C5.97821 9.33133 6.07947 9.21477 6.14935 9.07951C6.21923 8.94425 6.25569 8.79422 6.25569 8.64197C6.25569 8.48972 6.21923 8.33969 6.14935 8.20442C6.07947 8.06916 5.97821 7.95261 5.85404 7.86451C5.72987 7.77642 5.58642 7.71935 5.43567 7.69808C5.28492 7.67681 5.13127 7.69196 4.98758 7.74226V6.41514C4.98758 6.24653 5.05456 6.08482 5.17378 5.96559C5.29301 5.84636 5.45471 5.77938 5.62331 5.77938H6.94995C6.89915 5.63539 6.88364 5.48131 6.90474 5.33009C6.92583 5.17887 6.98291 5.03492 7.07118 4.91033C7.15945 4.78575 7.27633 4.68417 7.412 4.61413C7.54767 4.5441 7.69817 4.50765 7.85085 4.50785L7.8492 4.50003Z" fill="#6D7175"/>
</g>
<defs>
<clipPath id="clip0_16565_43585">
<rect width="16" height="16" fill="white"/>
</clipPath>
</defs>
</svg>
