<svg width="16" height="16" viewBox="0 0 16 16" fill="none" xmlns="http://www.w3.org/2000/svg">
<path fill-rule="evenodd" clip-rule="evenodd" d="M1 0.299988C0.447715 0.299988 0 0.747703 0 1.29999V11.3C0 11.8523 0.447715 12.3 1 12.3H5.79999V14.3H3.7C3.3134 14.3 3 14.6134 3 15C3 15.3866 3.3134 15.7 3.7 15.7H12.3C12.6866 15.7 13 15.3866 13 15C13 14.6134 12.6866 14.3 12.3 14.3H10.2V12.3H15C15.5523 12.3 16 11.8523 16 11.3V1.29999C16 0.747703 15.5523 0.299988 15 0.299988H1ZM1.5 9.19999H14.5V7.79999H1.5V9.19999Z" fill="#6D7175"/>
</svg>
