<svg width="16" height="16" viewBox="0 0 16 16" fill="none" xmlns="http://www.w3.org/2000/svg">
<path d="M12.7147 1.8C12.6389 1.70612 12.543 1.63046 12.4341 1.57861C12.3252 1.52676 12.206 1.50005 12.0853 1.50044H3.91467C3.79403 1.50005 3.67485 1.52676 3.56592 1.57861C3.45699 1.63046 3.3611 1.70612 3.28534 1.8L1.49956 5.11022H14.5004L12.7147 1.8ZM1.49956 13.7502C1.49956 13.9492 1.5786 14.14 1.71929 14.2807C1.85999 14.4214 2.05081 14.5004 2.24978 14.5004H13.7511C13.9501 14.5004 14.1409 14.4214 14.2816 14.2807C14.4223 14.14 14.5013 13.9492 14.5013 13.7502V6H1.50045V13.7502H1.49956ZM4.50045 8.24889H8.50045V9.24889H4.50045V8.24978V8.24889ZM4.50045 10.2489H10.5004V11.2489H4.50045V10.2489Z" fill="#6D7175"/>
</svg>
