<svg width="16" height="16" viewBox="0 0 16 16" fill="none" xmlns="http://www.w3.org/2000/svg">
<path d="M11.9959 4.82043L10.5516 5.66983C10.4104 5.75288 10.4104 5.96051 10.5516 6.04356L14.6823 8.47279C14.8235 8.55584 15 8.45202 15 8.28592V3.42747C15 3.26136 14.8235 3.15755 14.6823 3.2406L13.3747 4.00955C12.1972 2.17855 10.1634 1 7.89953 1C5.47954 1 3.29235 2.34758 2.15646 4.46658C1.94621 4.8588 2.08792 5.35037 2.47297 5.56453C2.85803 5.77869 3.34061 5.63435 3.55086 5.24213C4.41069 3.63811 6.06592 2.61829 7.89953 2.61829C9.58315 2.61829 11.0982 3.47865 11.9959 4.82043Z" fill="#6D7175"/>
<path d="M2.62527 11.9905C3.80284 13.8214 5.8366 15 8.10047 15C10.5205 15 12.7076 13.6524 13.8435 11.5334C14.0538 11.1412 13.9121 10.6496 13.527 10.4355C13.142 10.2213 12.6594 10.3657 12.4491 10.7579C11.5893 12.3619 9.93408 13.3817 8.10047 13.3817C6.41684 13.3817 4.90175 12.5213 4.0041 11.1796L5.44843 10.3302C5.58965 10.2471 5.58965 10.0395 5.44843 9.95644L1.31775 7.52721C1.17653 7.44416 1 7.54798 1 7.71408V12.5725C1 12.7386 1.17653 12.8424 1.31775 12.7594L2.62527 11.9905Z" fill="#6D7175"/>
</svg>
