<svg width="16" height="16" viewBox="0 0 16 16" fill="none" xmlns="http://www.w3.org/2000/svg">
<g clip-path="url(#clip0_16565_43440)">
<path fill-rule="evenodd" clip-rule="evenodd" d="M9.70412 2.932L8.27212 1.5C8.19782 1.42562 8.11039 1.36661 8.01327 1.32635C7.91615 1.28609 7.81205 1.26537 7.70692 1.26537C7.60179 1.26537 7.49768 1.28609 7.40057 1.32635C7.30345 1.36661 7.21522 1.42562 7.14092 1.5L4.32652 4.3144C2.55852 6.0824 2.55772 8.9896 4.24812 11.0192C3.92836 11.3828 3.53374 11.6729 3.09132 11.8696C1.05612 12.7736 0.691318 15.036 0.676918 15.1312C0.638518 15.3872 0.860918 15.616 1.17452 15.6432C1.20456 15.646 1.23477 15.6468 1.26492 15.6456C1.54172 15.6352 1.77852 15.4616 1.81452 15.2312C1.82185 15.1882 2.13516 13.349 3.62892 12.6848C4.19932 12.432 4.64332 12.1 4.98732 11.756C7.01612 13.4376 9.91612 13.4328 11.6801 11.668L14.4945 8.8536C14.6445 8.70358 14.7287 8.50013 14.7287 8.288C14.7287 8.07587 14.6445 7.87242 14.4945 7.7224L13.2065 6.4344L15.2561 4.3848C15.3762 4.26471 15.4437 4.10183 15.4437 3.932C15.4437 3.76217 15.3762 3.59929 15.2561 3.4792C15.136 3.35911 14.9732 3.29164 14.8033 3.29164C14.6335 3.29164 14.4706 3.35911 14.3505 3.4792L12.3009 5.5296L10.6081 3.8368L12.5489 1.8976C12.669 1.77751 12.7365 1.61463 12.7365 1.4448C12.7365 1.27497 12.669 1.11209 12.5489 0.991999C12.4288 0.871909 12.266 0.804443 12.0961 0.804443C11.9263 0.804443 11.7634 0.871909 11.6433 0.991999L9.70412 2.932ZM6.34731 5.57437C6.38592 5.59988 6.43127 5.61326 6.47754 5.6128C6.50814 5.61289 6.53845 5.60693 6.56673 5.59526C6.59502 5.58359 6.62071 5.56644 6.64234 5.5448L6.80634 5.38C6.84634 5.33569 6.86779 5.27772 6.86627 5.21805C6.86474 5.15839 6.84036 5.10159 6.79816 5.05938C6.75595 5.01718 6.69915 4.99279 6.63948 4.99127C6.57982 4.98975 6.52184 5.0112 6.47754 5.0512L6.31274 5.2152C6.27971 5.2476 6.25712 5.28914 6.24788 5.33448C6.23864 5.37983 6.24318 5.42689 6.26089 5.46964C6.27861 5.51239 6.30871 5.54886 6.34731 5.57437ZM5.59318 8.51155C5.63405 8.54314 5.68429 8.56019 5.73594 8.56C5.77141 8.56004 5.80641 8.55195 5.83826 8.53635C5.87011 8.52075 5.89796 8.49805 5.91967 8.47001C5.94138 8.44197 5.95637 8.40932 5.96349 8.37457C5.97061 8.33983 5.96967 8.30392 5.96074 8.2696C5.76766 7.51533 5.87886 6.7154 6.27034 6.0424C6.28579 6.01603 6.29588 5.98687 6.30006 5.9566C6.30424 5.92633 6.30241 5.89553 6.29468 5.86596C6.28696 5.8364 6.27348 5.80864 6.25503 5.78428C6.23658 5.75993 6.21351 5.73944 6.18714 5.724C6.16077 5.70855 6.13162 5.69845 6.10135 5.69428C6.07107 5.6901 6.04028 5.69193 6.01071 5.69965C5.98114 5.70738 5.95339 5.72085 5.92903 5.7393C5.90467 5.75776 5.88419 5.78083 5.86874 5.8072C5.41539 6.58628 5.28666 7.51241 5.51034 8.3856C5.52317 8.43563 5.55232 8.47996 5.59318 8.51155Z" fill="#6D7175"/>
</g>
<defs>
<clipPath id="clip0_16565_43440">
<rect width="16" height="16" fill="white"/>
</clipPath>
</defs>
</svg>
