<svg width="16" height="16" viewBox="0 0 16 16" fill="none" xmlns="http://www.w3.org/2000/svg">
<path d="M6.4272 4.2768H12.908L10.9624 2.3296C10.9052 2.2727 10.8599 2.20499 10.8291 2.13041C10.7984 2.05583 10.7828 1.97587 10.7832 1.8952C10.7841 1.73243 10.8487 1.57649 10.9632 1.4608C11.0201 1.4036 11.0878 1.3583 11.1624 1.32754C11.237 1.29677 11.3169 1.28115 11.3976 1.2816C11.4783 1.28126 11.5583 1.297 11.6329 1.32791C11.7075 1.35881 11.7752 1.40426 11.832 1.4616L14.4448 4.0744C14.6736 4.3024 14.8 4.6088 14.8008 4.9344C14.803 5.09572 14.7726 5.25583 14.7114 5.40512C14.6503 5.5544 14.5596 5.6898 14.4448 5.8032L11.832 8.4168C11.7464 8.50326 11.6369 8.56218 11.5176 8.58598C11.3983 8.60979 11.2746 8.5974 11.1624 8.5504C11.0122 8.48723 10.8928 8.36777 10.8296 8.2176C10.7823 8.10544 10.7697 7.98166 10.7935 7.86227C10.8173 7.74289 10.8765 7.63341 10.9632 7.548L13.0128 5.504H6.4288C5.36932 5.50421 4.3532 5.92474 3.60343 6.67331C2.85367 7.42187 2.43151 8.43732 2.4296 9.4968C2.43151 10.5563 2.85367 11.5717 3.60343 12.3203C4.3532 13.0689 5.36932 13.4894 6.4288 13.4896H10.716C10.8789 13.4896 11.0352 13.5543 11.1504 13.6696C11.2657 13.7848 11.3304 13.9411 11.3304 14.104C11.3304 14.2669 11.2657 14.4232 11.1504 14.5384C11.0352 14.6537 10.8789 14.7184 10.716 14.7184H6.4288C3.5464 14.7184 1.2016 12.376 1.2016 9.4968C1.2016 6.6176 3.5472 4.2752 6.4288 4.2752L6.4272 4.2768Z" fill="#6D7175"/>
</svg>
