<svg width="16" height="16" viewBox="0 0 16 16" fill="none" xmlns="http://www.w3.org/2000/svg">
<path fill-rule="evenodd" clip-rule="evenodd" d="M12.8 1.6C13.2244 1.6 13.6313 1.76857 13.9314 2.06863C14.2314 2.36869 14.4 2.77565 14.4 3.2V12.8C14.4 13.2243 14.2314 13.6313 13.9314 13.9314C13.6313 14.2314 13.2244 14.4 12.8 14.4H3.20001C2.77566 14.4 2.36869 14.2314 2.06864 13.9314C1.76858 13.6313 1.60001 13.2243 1.60001 12.8V3.2C1.60001 2.77565 1.76858 2.36869 2.06864 2.06863C2.36869 1.76857 2.77566 1.6 3.20001 1.6H12.8ZM10.6664 4.2H12.8V12.8H10.6664V4.2ZM9.06641 4.2H3.20001V12.8H9.06641V4.2Z" fill="#6D7175"/>
</svg>
