<svg width="16" height="16" viewBox="0 0 16 16" fill="none" xmlns="http://www.w3.org/2000/svg">
<path d="M1.1062 5.53912C1.1062 4.47551 1.11911 3.41091 1.10025 2.3473C1.09231 1.88322 1.27891 1.63923 1.72558 1.52868C3.73458 1.03273 5.7396 0.517856 7.7486 0.0238958C7.93124 -0.0209192 8.14663 0.0029821 8.33423 0.0487929C10.2698 0.522835 12.2033 1.00584 14.1369 1.48885C14.8119 1.65815 14.8982 1.77267 14.8982 2.47577C14.8992 4.38787 14.9022 6.29898 14.8972 8.21109C14.8913 10.3493 14.0446 12.0731 12.3979 13.4345C11.171 14.4493 9.91046 15.3984 8.39577 15.9342C8.16152 16.0169 7.84488 16.0258 7.61758 15.9372C5.57285 15.1454 3.84475 13.8847 2.43131 12.2165C1.56974 11.1997 1.1737 9.96285 1.12109 8.63733C1.0804 7.60559 1.11315 6.57186 1.11315 5.53912H1.1062ZM8.01561 2.37917C7.97789 2.3722 7.94116 2.36423 7.90345 2.35726C6.94163 4.12695 5.96988 5.89166 5.02395 7.66932C4.74404 8.19615 5.02494 8.61143 5.6324 8.62537C6.12374 8.63633 6.61507 8.62836 7.1064 8.62836H8.01561V12.5412C9.02805 10.8343 9.96207 9.11934 10.8921 7.40342C11.2892 6.66945 11.041 6.25915 10.2033 6.25715C9.48762 6.25516 8.77196 6.25715 8.01561 6.25715V2.37917Z" fill="#6D7175"/>
</svg>
