<svg width="16" height="16" viewBox="0 0 16 16" fill="none" xmlns="http://www.w3.org/2000/svg">
<g clip-path="url(#clip0_16565_43558)">
<path fill-rule="evenodd" clip-rule="evenodd" d="M1.87999 0.800003C1.28352 0.800003 0.799988 1.28354 0.799988 1.88V14.12C0.799988 14.7165 1.28352 15.2 1.87999 15.2H14.12C14.7165 15.2 15.2 14.7165 15.2 14.12V1.88C15.2 1.28354 14.7165 0.800003 14.12 0.800003H1.87999ZM2.64966 5.21H5.34966V3.95H2.64966V5.21ZM9.0332 9.71576C9.64528 9.71576 10.2127 9.52512 10.6794 9.19984L12.6369 11.1573L13.3503 10.4438L11.3942 8.48768C11.7231 8.01928 11.9162 7.44864 11.9162 6.83289C11.9162 5.24072 10.6254 3.95 9.0332 3.95C7.44106 3.95 6.15035 5.24072 6.15035 6.83289C6.15035 8.42504 7.44106 9.71576 9.0332 9.71576ZM9.0332 8.7068C10.0682 8.7068 10.9071 7.86781 10.9071 6.83289C10.9071 5.79798 10.0682 4.95901 9.0332 4.95901C7.99832 4.95901 7.15935 5.79798 7.15935 6.83289C7.15935 7.86781 7.99832 8.7068 9.0332 8.7068ZM5.34966 8.63H2.64966V7.37H5.34966V8.63ZM2.64966 12.05H8.94968V10.79H2.64966V12.05Z" fill="#6D7175"/>
</g>
<defs>
<clipPath id="clip0_16565_43558">
<rect width="16" height="16" fill="white"/>
</clipPath>
</defs>
</svg>
