<svg width="16" height="16" viewBox="0 0 16 16" fill="none" xmlns="http://www.w3.org/2000/svg">
<g clip-path="url(#clip0_16565_43487)">
<path fill-rule="evenodd" clip-rule="evenodd" d="M2.5 0.82782C2.5 0.413606 2.16421 0.0778198 1.75 0.0778198C1.33579 0.0778198 1 0.413606 1 0.82782V3.11682V10.6717V15.1722C1 15.5864 1.33579 15.9222 1.75 15.9222C2.16421 15.9222 2.5 15.5864 2.5 15.1722V11.2825C3.3321 11.1389 4.35714 11.0652 5.34234 11.0667C6.5967 11.0686 7.63864 11.1929 8.10287 11.3716C9.06364 11.7416 10.3419 11.8612 11.5808 11.8411C12.8351 11.8207 14.133 11.6552 15.1733 11.4002C15.5088 11.3179 15.7447 11.0172 15.7447 10.6717V3.11681C15.7447 2.87649 15.6296 2.65073 15.435 2.50965C15.2405 2.36857 14.9901 2.32926 14.7617 2.40392C14.0817 2.62622 12.8935 2.9016 11.6005 2.98157C10.295 3.0623 8.97495 2.93775 7.96672 2.44341C5.97169 1.46523 3.87838 1.65783 2.5 2.04386V0.82782ZM2.5 3.61541V9.76312C3.39006 9.62796 4.40107 9.56529 5.34464 9.56673C6.60858 9.56866 7.89673 9.68493 8.64185 9.97182C9.33667 10.2393 10.3885 10.3602 11.5564 10.3413C12.4824 10.3262 13.4299 10.2243 14.2447 10.0676V4.10095C13.5209 4.27049 12.632 4.42064 11.693 4.47871C10.2759 4.56634 8.65276 4.45038 7.30637 3.79023C5.51164 2.91026 3.55141 3.23824 2.5 3.61541Z" fill="#6D7175"/>
</g>
<defs>
<clipPath id="clip0_16565_43487">
<rect width="16" height="16" fill="white"/>
</clipPath>
</defs>
</svg>
