<svg width="16" height="16" viewBox="0 0 16 16" fill="none" xmlns="http://www.w3.org/2000/svg">
<path fill-rule="evenodd" clip-rule="evenodd" d="M1.2 1.2C0.537259 1.2 0 1.73725 0 2.4V11.2C0 11.8627 0.537258 12.4 1.2 12.4H1.6C1.6 13.7255 2.67452 14.8 4 14.8C5.32548 14.8 6.4 13.7255 6.4 12.4H9.6C9.6 13.7255 10.6745 14.8 12 14.8C13.3255 14.8 14.4 13.7255 14.4 12.4H14.8C15.4627 12.4 16 11.8627 16 11.2V8.51079C16 8.2933 15.9409 8.07989 15.829 7.8934L13.6025 4.1826C13.3856 3.82116 12.995 3.6 12.5735 3.6H10.4V2.4C10.4 1.73726 9.86274 1.2 9.2 1.2H1.2ZM12 13.2C11.5582 13.2 11.2 12.8418 11.2 12.4C11.2 11.9582 11.5582 11.6 12 11.6C12.4418 11.6 12.8 11.9582 12.8 12.4C12.8 12.8418 12.4418 13.2 12 13.2ZM3.2 12.4C3.2 12.8418 3.55817 13.2 4 13.2C4.44183 13.2 4.8 12.8418 4.8 12.4C4.8 11.9582 4.44183 11.6 4 11.6C3.55817 11.6 3.2 11.9582 3.2 12.4ZM13.787 7.6H10.4V5.2H12.347L13.787 7.6Z" fill="#6D7175"/>
</svg>
