<svg width="16" height="16" viewBox="0 0 16 16" fill="none" xmlns="http://www.w3.org/2000/svg">
<path fill-rule="evenodd" clip-rule="evenodd" d="M14.5 0.5C15.0523 0.5 15.5 0.947715 15.5 1.5V14.5C15.5 15.0523 15.0523 15.5 14.5 15.5H1.5C0.947715 15.5 0.5 15.0523 0.5 14.5V1.5C0.5 0.947715 0.947715 0.5 1.5 0.5H14.5ZM14 2H2V14H14V2Z" fill="#6D7175"/>
<path d="M10.9848 12.2588C10.308 12.7439 9.34687 13 8.11506 13C6.92386 13 5.98985 12.7709 5.32656 12.3127C4.51438 11.7466 4.06768 10.8571 4 9.63073H5.57022C5.67851 10.3585 5.9357 10.8841 6.35533 11.1941C6.73435 11.4636 7.31641 11.6119 8.11506 11.6119C8.81895 11.6119 9.38748 11.4906 9.79357 11.2615C10.1997 11.0189 10.4162 10.7089 10.4162 10.3046C10.4162 9.79245 10.1049 9.38814 9.50931 9.09164C9.3198 8.9973 8.69712 8.78167 7.62775 8.45822C6.43655 8.08086 5.69205 7.81132 5.40778 7.6496C4.66328 7.20485 4.2978 6.55795 4.2978 5.70889C4.2978 4.85984 4.64975 4.18598 5.38071 3.70081C6.05753 3.22911 6.91032 3 7.95262 3C9.08968 3 9.98308 3.22911 10.6193 3.70081C11.2961 4.19946 11.6887 4.98113 11.7834 6.03235H10.2132C10.0778 5.43935 9.82064 5.00809 9.4687 4.75202C9.11675 4.48248 8.5753 4.36119 7.8714 4.36119C7.26227 4.36119 6.80203 4.44205 6.47716 4.61725C6.07107 4.81941 5.88156 5.15633 5.88156 5.61456C5.88156 6.01887 6.09814 6.35579 6.55838 6.59838C6.76142 6.7062 7.31641 6.90836 8.20981 7.19137C9.52284 7.59569 10.3621 7.91914 10.7411 8.13477C11.5804 8.63342 12 9.32076 12 10.2102C12 11.0728 11.6616 11.7601 10.9848 12.2588Z" fill="#6D7175"/>
</svg>
