<svg width="16" height="16" viewBox="0 0 16 16" fill="none" xmlns="http://www.w3.org/2000/svg">
<path d="M15.9308 7.72335C14.4861 4.80308 11.4736 2.77426 8 2.77426C4.52642 2.77426 1.51393 4.80308 0.0691643 7.72335C-0.0230548 7.90779 -0.0230548 8.12297 0.0691643 8.27667C1.51393 11.1969 4.52642 13.2258 8 13.2258C11.4736 13.2258 14.4861 11.1969 15.9308 8.27667C16.0231 8.09223 16.0231 7.90779 15.9308 7.72335ZM8 11.3814C6.12488 11.3814 4.61864 9.87513 4.61864 8.00001C4.61864 6.12489 6.12488 4.61864 8 4.61864C9.87512 4.61864 11.3814 6.12489 11.3814 8.00001C11.3814 9.87513 9.87512 11.3814 8 11.3814ZM8 5.84823C6.80115 5.84823 5.84822 6.80116 5.84822 8.00001C5.84822 9.19886 6.80115 10.1518 8 10.1518C9.19885 10.1518 10.1518 9.19886 10.1518 8.00001C10.1518 6.80116 9.19885 5.84823 8 5.84823Z" fill="#6D7175"/>
</svg>
