<svg width="16" height="16" viewBox="0 0 16 16" fill="none" xmlns="http://www.w3.org/2000/svg">
<path d="M14.0631 0.799999H1.936C1.29245 0.799999 0.800003 1.24178 0.800003 1.81955V11.3004C0.800003 11.8444 1.29245 12.32 1.93689 12.32H14.064C14.6702 12.32 15.2009 11.8444 15.2009 11.3004V1.81955C15.2 1.27555 14.7076 0.799999 14.0622 0.799999H14.0631ZM4.83111 2.57244C5.416 2.57244 5.93334 3.05955 5.93334 3.68444C5.93583 3.83034 5.9091 3.97525 5.85472 4.11065C5.80033 4.24605 5.71939 4.3692 5.61667 4.47283C5.51395 4.57646 5.39153 4.65848 5.25661 4.71406C5.1217 4.76964 4.97702 4.79765 4.83111 4.79644C4.53818 4.79318 4.25829 4.67481 4.05189 4.46692C3.84549 4.25902 3.72915 3.97828 3.728 3.68533C3.728 3.05955 4.24445 2.57244 4.83022 2.57244H4.83111ZM4.03823 11.0169C3.92678 11.0146 3.81863 10.9787 3.728 10.9138C3.52178 10.7396 3.52178 10.496 3.69334 10.288L5.82934 7.264C5.90659 7.17885 6.01232 7.12488 6.1266 7.11228C6.24088 7.09967 6.35582 7.12929 6.44978 7.19555L8.31023 8.51555L11.6524 4.90044C11.824 4.72711 12.6507 3.824 13.1324 4.83111V10.9831C13.1324 11.0178 4.03911 11.0178 4.03911 11.0178L4.03823 11.0169ZM1.77778 14.1333C1.77778 14.3455 1.86207 14.549 2.0121 14.699C2.16212 14.849 2.36561 14.9333 2.57778 14.9333C2.78995 14.9333 2.99344 14.849 3.14347 14.699C3.2935 14.549 3.37778 14.3455 3.37778 14.1333C3.37778 13.9212 3.2935 13.7177 3.14347 13.5676C2.99344 13.4176 2.78995 13.3333 2.57778 13.3333C2.36561 13.3333 2.16212 13.4176 2.0121 13.5676C1.86207 13.7177 1.77778 13.9212 1.77778 14.1333ZM5.37778 14.1333C5.37778 14.2384 5.39847 14.3424 5.43868 14.4395C5.47888 14.5365 5.53781 14.6247 5.6121 14.699C5.68638 14.7733 5.77457 14.8322 5.87163 14.8724C5.96869 14.9126 6.07272 14.9333 6.17778 14.9333C6.28284 14.9333 6.38687 14.9126 6.48393 14.8724C6.58099 14.8322 6.66918 14.7733 6.74347 14.699C6.81775 14.6247 6.87668 14.5365 6.91688 14.4395C6.95709 14.3424 6.97778 14.2384 6.97778 14.1333C6.97778 13.9212 6.8935 13.7177 6.74347 13.5676C6.59344 13.4176 6.38995 13.3333 6.17778 13.3333C5.96561 13.3333 5.76212 13.4176 5.6121 13.5676C5.46207 13.7177 5.37778 13.9212 5.37778 14.1333ZM8.97778 14.1333C8.97778 14.3455 9.06207 14.549 9.2121 14.699C9.36212 14.849 9.56561 14.9333 9.77778 14.9333C9.98995 14.9333 10.1934 14.849 10.3435 14.699C10.4935 14.549 10.5778 14.3455 10.5778 14.1333C10.5778 13.9212 10.4935 13.7177 10.3435 13.5676C10.1934 13.4176 9.98995 13.3333 9.77778 13.3333C9.56561 13.3333 9.36212 13.4176 9.2121 13.5676C9.06207 13.7177 8.97778 13.9212 8.97778 14.1333ZM12.5778 14.1333C12.5778 14.2384 12.5985 14.3424 12.6387 14.4395C12.6789 14.5365 12.7378 14.6247 12.8121 14.699C12.8864 14.7733 12.9746 14.8322 13.0716 14.8724C13.1687 14.9126 13.2727 14.9333 13.3778 14.9333C13.4828 14.9333 13.5869 14.9126 13.6839 14.8724C13.781 14.8322 13.8692 14.7733 13.9435 14.699C14.0178 14.6247 14.0767 14.5365 14.1169 14.4395C14.1571 14.3424 14.1778 14.2384 14.1778 14.1333C14.1778 13.9212 14.0935 13.7177 13.9435 13.5676C13.7934 13.4176 13.59 13.3333 13.3778 13.3333C13.1656 13.3333 12.9621 13.4176 12.8121 13.5676C12.6621 13.7177 12.5778 13.9212 12.5778 14.1333Z" fill="#6D7175"/>
</svg>
