<svg width="16" height="16" viewBox="0 0 16 16" fill="none" xmlns="http://www.w3.org/2000/svg">
<path d="M4.23437 1.8344C4.30849 1.75985 4.39662 1.70069 4.49369 1.66033C4.59076 1.61996 4.69485 1.59917 4.79997 1.59917C4.9051 1.59917 5.00919 1.61996 5.10625 1.66033C5.20332 1.70069 5.29145 1.75985 5.36557 1.8344L7.76557 4.2344C7.9113 4.38528 7.99193 4.58737 7.99011 4.79712C7.98829 5.00688 7.90415 5.20753 7.75583 5.35586C7.6075 5.50418 7.40685 5.58832 7.19709 5.59014C6.98733 5.59196 6.78525 5.51133 6.63437 5.3656L5.59997 4.3312V10.4C5.59997 10.6122 5.51569 10.8157 5.36566 10.9657C5.21563 11.1157 5.01214 11.2 4.79997 11.2C4.5878 11.2 4.38432 11.1157 4.23429 10.9657C4.08426 10.8157 3.99997 10.6122 3.99997 10.4V4.3312L2.96557 5.3656C2.81469 5.51133 2.61261 5.59196 2.40285 5.59014C2.19309 5.58832 1.99244 5.50418 1.84412 5.35586C1.69579 5.20753 1.61166 5.00688 1.60983 4.79712C1.60801 4.58737 1.68865 4.38528 1.83437 4.2344L4.23437 1.8344ZM10.4 5.6C10.4 5.38783 10.4843 5.18435 10.6343 5.03432C10.7843 4.88429 10.9878 4.8 11.2 4.8C11.4121 4.8 11.6156 4.88429 11.7657 5.03432C11.9157 5.18435 12 5.38783 12 5.6V11.668L13.0344 10.6344C13.1086 10.5601 13.1968 10.5012 13.2939 10.461C13.3909 10.4208 13.4949 10.4001 13.6 10.4001C13.705 10.4001 13.809 10.4208 13.9061 10.461C14.0031 10.5012 14.0913 10.5601 14.1656 10.6344C14.2398 10.7087 14.2988 10.7969 14.339 10.8939C14.3792 10.9909 14.3999 11.095 14.3999 11.2C14.3999 11.305 14.3792 11.4091 14.339 11.5061C14.2988 11.6031 14.2398 11.6913 14.1656 11.7656L11.7656 14.1656C11.6914 14.2402 11.6033 14.2993 11.5063 14.3397C11.4092 14.38 11.3051 14.4008 11.2 14.4008C11.0948 14.4008 10.9908 14.38 10.8937 14.3397C10.7966 14.2993 10.7085 14.2402 10.6344 14.1656L8.23437 11.7656C8.15982 11.6915 8.10066 11.6034 8.06029 11.5063C8.01993 11.4092 7.99914 11.3051 7.99914 11.2C7.99914 11.0949 8.01993 10.9908 8.06029 10.8937C8.10066 10.7967 8.15982 10.7085 8.23437 10.6344C8.3086 10.56 8.39676 10.5011 8.49382 10.4608C8.59087 10.4206 8.6949 10.3998 8.79997 10.3998C8.90504 10.3998 9.00907 10.4206 9.10613 10.4608C9.20318 10.5011 9.29134 10.56 9.36557 10.6344L10.4 11.668V5.6Z" fill="#6D7175"/>
</svg>
