<svg width="16" height="16" viewBox="0 0 16 16" fill="none" xmlns="http://www.w3.org/2000/svg">
<g clip-path="url(#clip0_16565_43495)">
<path d="M5.65164 0.540725C4.06514 1.04075 2.6794 2.0336 1.69575 3.37503C0.712092 4.71645 0.181766 6.33657 0.18182 8C0.18182 12.3178 3.68218 15.8182 8 15.8182C11.5807 15.8182 14.6778 13.3909 15.5669 9.97382C15.6034 9.83378 15.5827 9.685 15.5095 9.5602C15.4362 9.43541 15.3164 9.34482 15.1764 9.30836C15.0363 9.27191 14.8876 9.29257 14.7628 9.36581C14.638 9.43906 14.5474 9.55887 14.5109 9.69891C13.7465 12.6382 11.0811 14.7273 8 14.7273C4.28473 14.7273 1.27273 11.7153 1.27273 8C1.27273 5.04109 3.2 2.45563 5.97891 1.58182C6.11697 1.53842 6.23213 1.44195 6.29906 1.31364C6.366 1.18533 6.37922 1.03569 6.33582 0.897634C6.29242 0.759576 6.19596 0.644414 6.06765 0.57748C5.93934 0.510547 5.7897 0.497326 5.65164 0.540725Z" fill="#6D7175"/>
</g>
<defs>
<clipPath id="clip0_16565_43495">
<rect width="16" height="16" fill="white"/>
</clipPath>
</defs>
</svg>
