<svg width="16" height="16" viewBox="0 0 16 16" fill="none" xmlns="http://www.w3.org/2000/svg">
<path d="M2.37685 1.23599C2.44388 1.1048 2.54583 0.994674 2.67146 0.917741C2.7971 0.840809 2.94153 0.80006 3.08885 0.799988H12.9104C13.0578 0.80006 13.2022 0.840809 13.3278 0.917741C13.4535 0.994674 13.5554 1.1048 13.6224 1.23599L14.9576 3.73839C14.9816 3.78799 15.008 3.84879 15.0328 3.91759C15.1048 4.09999 15.1552 4.29359 15.1808 4.49519C15.1928 4.57359 15.2 4.64639 15.2 4.70559V4.79999C15.2005 5.15408 15.1224 5.50387 14.9713 5.82412C14.8202 6.14438 14.6 6.42713 14.3264 6.65199C13.8971 7.00695 13.3572 7.20078 12.8 7.19999C12.3064 7.19999 11.848 7.05119 11.4672 6.79599C11.1388 6.57689 10.8695 6.28005 10.6833 5.93185C10.4971 5.58364 10.3998 5.19484 10.4 4.79999V4.81599C10.3965 5.44993 10.1419 6.05664 9.69217 6.50341C9.2424 6.95018 8.634 7.20063 8.00005 7.19999C7.52194 7.20079 7.05458 7.0581 6.65845 6.79039C6.3345 6.57225 6.06875 6.27829 5.88429 5.93405C5.69983 5.58981 5.60226 5.20572 5.60005 4.81519C5.59666 5.44927 5.34224 6.05618 4.89245 6.50312C4.44266 6.95007 3.83414 7.20063 3.20005 7.19999C2.58565 7.19999 2.02405 6.96879 1.60005 6.58879C1.10885 6.14879 0.800049 5.51039 0.800049 4.79999V4.70559C0.800049 4.65519 0.805649 4.59599 0.815249 4.53119C0.854449 4.17679 0.970449 3.84639 1.14725 3.55599L2.37685 1.23599ZM14.4 14V8.46719C13.8954 8.68742 13.3506 8.80074 12.8 8.79999C11.9344 8.80126 11.0918 8.52042 10.4 7.99999C9.73125 8.50239 8.90085 8.79999 8.00005 8.79999C7.13436 8.80126 6.29183 8.52042 5.60005 7.99999C4.93125 8.50239 4.10085 8.79999 3.20005 8.79999C2.64946 8.80074 2.10468 8.68742 1.60005 8.46719V14C1.60005 14.3182 1.72648 14.6235 1.95152 14.8485C2.17656 15.0736 2.48179 15.2 2.80005 15.2H4.40005C4.71831 15.2 5.02353 15.0736 5.24858 14.8485C5.47362 14.6235 5.60005 14.3182 5.60005 14V11.6C5.60005 11.2817 5.72648 10.9765 5.95152 10.7515C6.17656 10.5264 6.48179 10.4 6.80005 10.4H9.20005C9.51831 10.4 9.82353 10.5264 10.0486 10.7515C10.2736 10.9765 10.4 11.2817 10.4 11.6V14C10.4 14.3182 10.5265 14.6235 10.7515 14.8485C10.9766 15.0736 11.2818 15.2 11.6 15.2H13.2C13.5183 15.2 13.8235 15.0736 14.0486 14.8485C14.2736 14.6235 14.4 14.3182 14.4 14Z" fill="#6D7175"/>
</svg>
