<svg width="16" height="16" viewBox="0 0 16 16" fill="none" xmlns="http://www.w3.org/2000/svg">
<g clip-path="url(#clip0_16565_43508)">
<path d="M14 0.800003H9.59999V5.6H15.2V2C15.2 1.68174 15.0736 1.37652 14.8485 1.15147C14.6235 0.926431 14.3182 0.800003 14 0.800003ZM15.2 7.2H11.2V15.2H14C14.3182 15.2 14.6235 15.0736 14.8485 14.8485C15.0736 14.6235 15.2 14.3183 15.2 14V7.2ZM0.799988 7.2H9.59999V15.2H1.99999C1.68173 15.2 1.3765 15.0736 1.15146 14.8485C0.926416 14.6235 0.799988 14.3183 0.799988 14V7.2ZM1.99999 0.800003C1.68173 0.800003 1.3765 0.926431 1.15146 1.15147C0.926416 1.37652 0.799988 1.68174 0.799988 2V5.6H9.59999V0.800003H1.99999Z" fill="#6D7175"/>
</g>
<defs>
<clipPath id="clip0_16565_43508">
<rect width="16" height="16" fill="white"/>
</clipPath>
</defs>
</svg>
