<svg width="16" height="16" viewBox="0 0 16 16" fill="none" xmlns="http://www.w3.org/2000/svg">
<path d="M4.048 5.288C4.368 5.288 4.64267 5.40266 4.872 5.632C5.10134 5.86133 5.216 6.14133 5.216 6.472C5.216 6.792 5.10134 7.06666 4.872 7.296C4.64267 7.52533 4.368 7.64 4.048 7.64C3.71734 7.64 3.44 7.52533 3.216 7.296C2.992 7.06666 2.88 6.792 2.88 6.472C2.88 6.14133 2.992 5.86133 3.216 5.632C3.44 5.40266 3.71734 5.288 4.048 5.288ZM13.504 1.448C13.952 1.448 14.312 1.59733 14.584 1.896C14.856 2.19466 14.992 2.536 14.992 2.92V11.528C14.992 11.7733 14.904 11.9813 14.728 12.152C14.552 12.3227 14.3413 12.408 14.096 12.408H12.992V10.472H13.68C13.7973 10.472 13.8987 10.4293 13.984 10.344C14.0693 10.2587 14.112 10.152 14.112 10.024C14.112 9.90666 14.0693 9.80533 13.984 9.72C13.8987 9.63467 13.7973 9.592 13.68 9.592H12.992V8.344H13.68C13.7973 8.344 13.8987 8.30133 13.984 8.216C14.0693 8.13066 14.112 8.02933 14.112 7.912C14.112 7.79466 14.0693 7.69066 13.984 7.6C13.8987 7.50933 13.7973 7.464 13.68 7.464H12.992V6.328H13.68C13.7973 6.328 13.8987 6.28533 13.984 6.2C14.0693 6.11466 14.112 6.008 14.112 5.88C14.112 5.76266 14.0693 5.66133 13.984 5.576C13.8987 5.49066 13.7973 5.448 13.68 5.448H12.992V4.104C12.992 3.50666 12.8533 3.08533 12.576 2.84C12.2987 2.59466 11.8293 2.472 11.168 2.472H5.008V2.328C5.008 2.08266 5.096 1.87466 5.272 1.704C5.448 1.53333 5.65867 1.448 5.904 1.448H13.504ZM10.816 3.432C11.232 3.432 11.5333 3.552 11.72 3.792C11.9067 4.032 12 4.344 12 4.728V13.56C12 13.8053 11.8987 14.032 11.696 14.24C11.4933 14.448 11.2427 14.552 10.944 14.552H2C1.744 14.552 1.51467 14.4453 1.312 14.232C1.10934 14.0187 1.008 13.768 1.008 13.48V4.488C1.008 4.17866 1.09334 3.92533 1.264 3.728C1.43467 3.53066 1.65867 3.432 1.936 3.432H10.816ZM10.992 5.112C10.992 4.93066 10.936 4.77333 10.824 4.64C10.712 4.50666 10.5333 4.44 10.288 4.44H2.656C2.61334 4.44 2.55467 4.448 2.48 4.464C2.40534 4.48 2.33067 4.50666 2.256 4.544C2.18134 4.58133 2.11734 4.632 2.064 4.696C2.01067 4.76 1.984 4.84 1.984 4.936V9.224C2.06934 9.32 2.18934 9.43466 2.344 9.568C2.49867 9.70133 2.68 9.824 2.888 9.936C3.096 10.048 3.328 10.144 3.584 10.224C3.84 10.304 4.11734 10.344 4.416 10.344C4.864 10.344 5.256 10.272 5.592 10.128C5.928 9.984 6.24 9.80266 6.528 9.584C6.816 9.36533 7.09867 9.13066 7.376 8.88C7.65334 8.62933 7.96 8.392 8.296 8.168C8.632 7.944 9.016 7.75466 9.448 7.6C9.88 7.44533 10.3947 7.35733 10.992 7.336V5.112Z" fill="#6D7175"/>
</svg>
