<svg width="16" height="16" viewBox="0 0 16 16" fill="none" xmlns="http://www.w3.org/2000/svg">
<g clip-path="url(#clip0_16565_43529)">
<path fill-rule="evenodd" clip-rule="evenodd" d="M1.99999 0.800003C1.68173 0.800003 1.3765 0.926431 1.15146 1.15147C0.926416 1.37652 0.799988 1.68174 0.799988 2V14C0.799988 14.3183 0.926416 14.6235 1.15146 14.8485C1.3765 15.0736 1.68173 15.2 1.99999 15.2H14C14.3182 15.2 14.6235 15.0736 14.8485 14.8485C15.0736 14.6235 15.2 14.3183 15.2 14V2C15.2 1.68174 15.0736 1.37652 14.8485 1.15147C14.6235 0.926431 14.3182 0.800003 14 0.800003H1.99999ZM12.8 4H3.19999V5.6H12.8V4ZM3.19999 7.2H12.8V8.8H3.19999V7.2ZM7.99999 10.4H3.19999V12H7.99999V10.4Z" fill="#6D7175"/>
</g>
<defs>
<clipPath id="clip0_16565_43529">
<rect width="16" height="16" fill="white"/>
</clipPath>
</defs>
</svg>
