<svg width="16" height="16" viewBox="0 0 16 16" fill="none" xmlns="http://www.w3.org/2000/svg">
<path fill-rule="evenodd" clip-rule="evenodd" d="M6.68001 7.25L7.29201 8.9975C7.35765 9.18527 7.4952 9.33928 7.67439 9.42564C7.85358 9.512 8.05974 9.52364 8.24751 9.458C8.43529 9.39235 8.58929 9.25481 8.67565 9.07562C8.76201 8.89643 8.77365 8.69027 8.70801 8.5025L6.20676 1.3565C6.11909 1.1064 5.95588 0.889717 5.73969 0.736419C5.52351 0.583121 5.26503 0.500778 5.00001 0.500778C4.73499 0.500778 4.47652 0.583121 4.26033 0.736419C4.04415 0.889717 3.88094 1.1064 3.79326 1.3565L1.29201 8.5025C1.22637 8.69027 1.23801 8.89643 1.32437 9.07562C1.41073 9.25481 1.56474 9.39235 1.75251 9.458C1.94029 9.52364 2.14645 9.512 2.32564 9.42564C2.50483 9.33928 2.64237 9.18527 2.70801 8.9975L3.31926 7.25H6.68076H6.68001ZM6.15501 5.75L5.00001 2.44925L3.84501 5.75H6.15501ZM12.125 4.25C12.581 4.25 13.01 4.36625 13.385 4.571C13.4761 4.43965 13.6067 4.34086 13.7579 4.28906C13.9091 4.23727 14.0729 4.23517 14.2254 4.28309C14.3779 4.33101 14.511 4.42643 14.6054 4.55541C14.6998 4.68439 14.7505 4.84017 14.75 5V8.75C14.75 8.90957 14.699 9.06497 14.6046 9.19359C14.5101 9.32222 14.3771 9.41737 14.2249 9.46522C14.0727 9.51306 13.9091 9.51111 13.7581 9.45963C13.607 9.40816 13.4763 9.30985 13.385 9.179C13.034 9.37062 12.6439 9.47952 12.2444 9.49738C11.8448 9.51523 11.4465 9.44157 11.0798 9.28202C10.7131 9.12246 10.3877 8.88124 10.1285 8.57675C9.86924 8.27226 9.68298 7.91257 9.58394 7.52512C9.48489 7.13767 9.47568 6.73272 9.55701 6.34117C9.63834 5.94962 9.80805 5.58182 10.0532 5.26586C10.2983 4.94991 10.6124 4.69413 10.9715 4.51807C11.3306 4.34202 11.7251 4.25032 12.125 4.25ZM12.125 8C12.4234 8 12.7095 7.88147 12.9205 7.67049C13.1315 7.45951 13.25 7.17336 13.25 6.875C13.25 6.57663 13.1315 6.29048 12.9205 6.0795C12.7095 5.86852 12.4234 5.75 12.125 5.75C11.8266 5.75 11.5405 5.86852 11.3295 6.0795C11.1185 6.29048 11 6.57663 11 6.875C11 7.17336 11.1185 7.45951 11.3295 7.67049C11.5405 7.88147 11.8266 8 12.125 8Z" fill="#6D7175"/>
<path d="M2 11C1.80109 11 1.61032 11.079 1.46967 11.2197C1.32902 11.3603 1.25 11.5511 1.25 11.75C1.25 11.9489 1.32902 12.1397 1.46967 12.2803C1.61032 12.421 1.80109 12.5 2 12.5H14C14.1989 12.5 14.3897 12.421 14.5303 12.2803C14.671 12.1397 14.75 11.9489 14.75 11.75C14.75 11.5511 14.671 11.3603 14.5303 11.2197C14.3897 11.079 14.1989 11 14 11H2ZM2 14C1.80109 14 1.61032 14.079 1.46967 14.2197C1.32902 14.3603 1.25 14.5511 1.25 14.75C1.25 14.9489 1.32902 15.1397 1.46967 15.2803C1.61032 15.421 1.80109 15.5 2 15.5H11C11.1989 15.5 11.3897 15.421 11.5303 15.2803C11.671 15.1397 11.75 14.9489 11.75 14.75C11.75 14.5511 11.671 14.3603 11.5303 14.2197C11.3897 14.079 11.1989 14 11 14H2Z" fill="#6D7175"/>
</svg>
