<svg width="16" height="16" viewBox="0 0 16 16" fill="none" xmlns="http://www.w3.org/2000/svg">
<path d="M2.40001 2.39999H13.6C13.8122 2.39999 14.0157 2.48428 14.1657 2.63431C14.3157 2.78434 14.4 2.98782 14.4 3.19999C14.4 3.41217 14.3157 3.61565 14.1657 3.76568C14.0157 3.91571 13.8122 3.99999 13.6 3.99999H2.40001C2.18783 3.99999 1.98435 3.91571 1.83432 3.76568C1.68429 3.61565 1.60001 3.41217 1.60001 3.19999C1.60001 2.98782 1.68429 2.78434 1.83432 2.63431C1.98435 2.48428 2.18783 2.39999 2.40001 2.39999ZM2.40001 5.59999H10.4C10.6122 5.59999 10.8157 5.68428 10.9657 5.83431C11.1157 5.98434 11.2 6.18782 11.2 6.39999C11.2 6.61217 11.1157 6.81565 10.9657 6.96568C10.8157 7.11571 10.6122 7.19999 10.4 7.19999H2.40001C2.18783 7.19999 1.98435 7.11571 1.83432 6.96568C1.68429 6.81565 1.60001 6.61217 1.60001 6.39999C1.60001 6.18782 1.68429 5.98434 1.83432 5.83431C1.98435 5.68428 2.18783 5.59999 2.40001 5.59999ZM2.40001 8.79999H13.6C13.8122 8.79999 14.0157 8.88428 14.1657 9.03431C14.3157 9.18434 14.4 9.38782 14.4 9.59999C14.4 9.81217 14.3157 10.0157 14.1657 10.1657C14.0157 10.3157 13.8122 10.4 13.6 10.4H2.40001C2.18783 10.4 1.98435 10.3157 1.83432 10.1657C1.68429 10.0157 1.60001 9.81217 1.60001 9.59999C1.60001 9.38782 1.68429 9.18434 1.83432 9.03431C1.98435 8.88428 2.18783 8.79999 2.40001 8.79999ZM2.40001 12H10.4C10.6122 12 10.8157 12.0843 10.9657 12.2343C11.1157 12.3843 11.2 12.5878 11.2 12.8C11.2 13.0122 11.1157 13.2157 10.9657 13.3657C10.8157 13.5157 10.6122 13.6 10.4 13.6H2.40001C2.18783 13.6 1.98435 13.5157 1.83432 13.3657C1.68429 13.2157 1.60001 13.0122 1.60001 12.8C1.60001 12.5878 1.68429 12.3843 1.83432 12.2343C1.98435 12.0843 2.18783 12 2.40001 12Z" fill="#6D7175"/>
</svg>
