<svg width="16" height="16" viewBox="0 0 16 16" fill="none" xmlns="http://www.w3.org/2000/svg">
<g clip-path="url(#clip0_16565_43556)">
<path d="M14 0.800003H11.2V5.6H15.2V2C15.2 1.68174 15.0736 1.37652 14.8485 1.15147C14.6235 0.926431 14.3183 0.800003 14 0.800003ZM15.2 7.2H11.2V15.2H14C14.3183 15.2 14.6235 15.0736 14.8485 14.8485C15.0736 14.6235 15.2 14.3183 15.2 14V7.2ZM0.800003 11.2H9.6V15.2H2C1.68174 15.2 1.37652 15.0736 1.15147 14.8485C0.926431 14.6235 0.800003 14.3183 0.800003 14V11.2ZM2 0.800003C1.68174 0.800003 1.37652 0.926431 1.15147 1.15147C0.926431 1.37652 0.800003 1.68174 0.800003 2V9.6H9.6V0.800003H2Z" fill="#6D7175"/>
</g>
<defs>
<clipPath id="clip0_16565_43556">
<rect width="16" height="16" fill="white"/>
</clipPath>
</defs>
</svg>
