<svg width="16" height="16" viewBox="0 0 16 16" fill="none" xmlns="http://www.w3.org/2000/svg">
<path d="M7.91506 1.67492C6.2148 1.67492 4.58419 2.35034 3.38192 3.5526C2.17966 4.75487 1.50423 6.38548 1.50423 8.08574C1.50423 9.786 2.17966 11.4166 3.38192 12.6189C4.58419 13.8211 6.2148 14.4966 7.91506 14.4966C9.61532 14.4966 11.2459 13.8211 12.4482 12.6189C13.6505 11.4166 14.3259 9.786 14.3259 8.08574C14.3259 6.38548 13.6505 4.75487 12.4482 3.5526C11.2459 2.35034 9.61532 1.67492 7.91506 1.67492ZM2.24869 2.41937C2.98929 1.65976 3.87335 1.05476 4.84959 0.639475C5.82583 0.22419 6.87481 0.00688319 7.93569 0.000160889C8.99657 -0.00656142 10.0482 0.197434 11.0296 0.600315C12.0111 1.0032 12.9027 1.59694 13.6529 2.34711C14.4031 3.09728 14.9968 3.98893 15.3997 4.97036C15.8026 5.95178 16.0066 7.00343 15.9998 8.06431C15.9931 9.12519 15.7758 10.1742 15.3605 11.1504C14.9452 12.1266 14.3402 13.0107 13.5806 13.7513C12.0693 15.211 10.045 16.0188 7.9439 16.0005C5.84278 15.9822 3.83288 15.1395 2.34711 13.6537C0.861336 12.1679 0.0185611 10.158 0.000302933 8.0569C-0.0179553 5.95578 0.789764 3.93154 2.24949 2.42017L2.24869 2.41937Z" fill="#6D7175"/>
<path d="M8.5784 10.1594H7.08156V9.35912C7.08857 7.98141 7.42634 7.77959 8.04442 7.40959C8.10959 7.37034 8.17756 7.3297 8.24974 7.28485C8.7613 6.9632 9.15514 6.55745 9.15514 5.9653C9.15514 5.30097 8.63447 4.8693 7.98766 4.8693C7.3906 4.8693 6.82648 5.14821 6.78794 5.94358H5.2C5.24205 4.33602 6.51534 3.5 7.99607 3.5C9.61204 3.5 10.7249 4.51401 10.7249 5.94428C10.7249 6.91274 10.2378 7.54764 9.45927 8.01295L9.29319 8.11386C8.73958 8.44672 8.58611 8.53922 8.5784 9.35912V10.1594ZM8.69753 11.5693C8.69463 11.8151 8.59574 12.0501 8.422 12.2239C8.24825 12.3978 8.0134 12.4969 7.76761 12.5C7.61426 12.5013 7.463 12.4644 7.32742 12.3927C7.19185 12.3211 7.07622 12.2168 6.99094 12.0893C6.90567 11.9619 6.85342 11.8152 6.8389 11.6626C6.82438 11.5099 6.84805 11.356 6.90777 11.2148C6.97849 11.0454 7.09805 10.901 7.25119 10.7999C7.40433 10.6988 7.58412 10.6456 7.76761 10.6471C8.26656 10.6471 8.69333 11.062 8.69753 11.5693Z" fill="#6D7175"/>
</svg>
