<svg width="16" height="16" viewBox="0 0 16 16" fill="none" xmlns="http://www.w3.org/2000/svg">
<g clip-path="url(#clip0_16565_43575)">
<path d="M14.7312 1.26881C15.0311 1.56885 15.1997 1.97574 15.1997 2.40001C15.1997 2.82427 15.0311 3.23116 14.7312 3.53121L12.3312 5.93121L11.4392 6.82321L9.17679 4.56081L10.1624 3.57441L10.1744 3.56241L12.4688 1.26881C12.7688 0.968852 13.1757 0.800348 13.6 0.800348C14.0243 0.800348 14.4311 0.968852 14.7312 1.26881ZM7.95519 10.308L5.72479 8.07841C5.06654 8.29965 4.35965 8.33305 3.68347 8.17486C3.00729 8.01667 2.38859 7.67315 1.8968 7.18286C1.40501 6.69256 1.05961 6.0749 0.899356 5.39921C0.739107 4.72351 0.770355 4.01653 0.989594 3.35761L3.00799 5.37521C3.23303 5.60017 3.5382 5.72655 3.85639 5.72655C4.17459 5.72655 4.47976 5.60017 4.70479 5.37521L5.37679 4.70321C5.60151 4.47821 5.72774 4.17321 5.72774 3.85521C5.72774 3.5372 5.60151 3.23221 5.37679 3.00721L3.35759 0.988806C4.01647 0.769769 4.72335 0.738675 5.39891 0.899014C6.07448 1.05935 6.69199 1.40478 7.18217 1.89653C7.67234 2.38829 8.01578 3.00691 8.17395 3.68299C8.33211 4.35906 8.29875 5.06584 8.07759 5.72401L10.3072 7.95361L14.712 12.3584C15.0241 12.6705 15.1994 13.0938 15.1994 13.5352C15.1994 13.9766 15.0241 14.3999 14.712 14.712C14.3999 15.0241 13.9766 15.1995 13.5352 15.1995C13.0938 15.1995 12.6705 15.0241 12.3584 14.712L7.95359 10.3072L7.95519 10.308ZM6.82319 11.4392L4.19359 14.0688L0.799994 15.2L1.93119 11.8056L4.56079 9.17681L6.82319 11.4392Z" fill="#6D7175"/>
</g>
<defs>
<clipPath id="clip0_16565_43575">
<rect width="16" height="16" fill="white"/>
</clipPath>
</defs>
</svg>
