<svg width="16" height="16" viewBox="0 0 16 16" fill="none" xmlns="http://www.w3.org/2000/svg">
<path d="M2.75 0.399994C2.33579 0.399994 2 0.73578 2 1.14999C2 1.56421 2.33579 1.89999 2.75 1.89999H13.25C13.6642 1.89999 14 1.56421 14 1.14999C14 0.73578 13.6642 0.399994 13.25 0.399994H2.75Z" fill="#6D7175"/>
<path d="M7.23216 14.9092V10.5136V6.11806L3.32841 10.3043C3.03941 10.6142 2.55389 10.6312 2.24397 10.3422C1.93405 10.0532 1.9171 9.56768 2.2061 9.25776L7.40175 3.68611C7.5424 3.51162 7.75789 3.39999 7.99945 3.39999C8.23669 3.39999 8.44879 3.50767 8.58954 3.67682L11.1917 6.46729L13.7938 9.25776C14.0828 9.56768 14.0659 10.0532 13.756 10.3422C13.4461 10.6312 12.9605 10.6142 12.6715 10.3043L8.76673 6.11693V14.9092C8.76673 15.333 8.4232 15.6765 7.99945 15.6765C7.57569 15.6765 7.23216 15.333 7.23216 14.9092Z" fill="#6D7175"/>
</svg>
