<svg width="16" height="16" viewBox="0 0 16 16" fill="none" xmlns="http://www.w3.org/2000/svg">
<path fill-rule="evenodd" clip-rule="evenodd" d="M2.2 0.5C1.53726 0.5 1 1.03726 1 1.7V14.3C1 14.9627 1.53726 15.5 2.2 15.5H13.8C14.4627 15.5 15 14.9627 15 14.3V1.7C15 1.03726 14.4627 0.5 13.8 0.5H2.2ZM9.61717 4.1L11.3314 6.09997C11.5093 6.30753 11.5501 6.59966 11.4359 6.84802C11.3217 7.09637 11.0733 7.25551 10.8 7.25551H4.50005V5.85553H9.27803L8.55423 5.0111L9.61717 4.1ZM6.38279 11.7555L4.66853 9.75554C4.49062 9.54798 4.44982 9.25585 4.56405 9.00749C4.67828 8.75914 4.92663 8.6 5.2 8.6H11.4999V9.99998H6.72193L7.44573 10.8444L6.38279 11.7555Z" fill="#6D7175"/>
</svg>
