<svg width="16" height="16" viewBox="0 0 16 16" fill="none" xmlns="http://www.w3.org/2000/svg">
<g clip-path="url(#clip0_16565_43582)">
<path fill-rule="evenodd" clip-rule="evenodd" d="M7.19999 0C6.71999 0 6.31999 0.32 6.07999 0.8L1.59999 13.84C1.55132 13.9956 1.45629 14.1326 1.32762 14.2327C1.19894 14.3327 1.04276 14.3911 0.879987 14.4C0.667813 14.4 0.46433 14.4843 0.314301 14.6343C0.164272 14.7843 0.0799866 14.9878 0.0799866 15.2C0.0799866 15.4122 0.164272 15.6157 0.314301 15.7657C0.46433 15.9157 0.667813 16 0.879987 16H4.07999C4.29216 16 4.49564 15.9157 4.64567 15.7657C4.7957 15.6157 4.87999 15.4122 4.87999 15.2C4.87999 14.9878 4.7957 14.7843 4.64567 14.6343C4.49564 14.4843 4.29216 14.4 4.07999 14.4C3.96684 14.391 3.8569 14.3581 3.75748 14.3033C3.65805 14.2486 3.57141 14.1733 3.50331 14.0825C3.43521 13.9917 3.38721 13.8875 3.3625 13.7767C3.33779 13.6659 3.33693 13.5511 3.35999 13.44L3.99999 11.2H9.59999L10.32 13.44C10.343 13.5511 10.3422 13.6659 10.3175 13.7767C10.2928 13.8875 10.2448 13.9917 10.1767 14.0825C10.1086 14.1733 10.0219 14.2486 9.9225 14.3033C9.82307 14.3581 9.71313 14.391 9.59999 14.4C9.38781 14.4 9.18433 14.4843 9.0343 14.6343C8.88427 14.7843 8.79999 14.9878 8.79999 15.2C8.79999 15.4122 8.88427 15.6157 9.0343 15.7657C9.18433 15.9157 9.38781 16 9.59999 16H15.2C15.4122 16 15.6156 15.9157 15.7657 15.7657C15.9157 15.6157 16 15.4122 16 15.2C16 14.9878 15.9157 14.7843 15.7657 14.6343C15.6156 14.4843 15.4122 14.4 15.2 14.4C15.0235 14.4081 14.8493 14.3575 14.7046 14.2562C14.5599 14.1549 14.4528 14.0086 14.4 13.84L9.99999 0.8C9.75999 0.32 9.35999 0 8.79999 0H7.19999ZM6.79999 3.44L4.63999 9.6H8.95999L6.79999 3.44Z" fill="#6D7175"/>
</g>
<defs>
<clipPath id="clip0_16565_43582">
<rect width="16" height="16" fill="white"/>
</clipPath>
</defs>
</svg>
