<svg width="16" height="16" viewBox="0 0 16 16" fill="none" xmlns="http://www.w3.org/2000/svg">
<g clip-path="url(#clip0_16565_43530)">
<path d="M2.7904 4C4.5096 2.4528 5.9824 1.6 8 1.6C9.69739 1.6 11.3253 2.27428 12.5255 3.47452C13.7257 4.67475 14.4 6.30261 14.4 8C14.4 9.69739 13.7257 11.3253 12.5255 12.5255C11.3253 13.7257 9.69739 14.4 8 14.4C7.78783 14.4 7.58435 14.4843 7.43432 14.6343C7.28429 14.7843 7.2 14.9878 7.2 15.2C7.2 15.4122 7.28429 15.6157 7.43432 15.7657C7.58435 15.9157 7.78783 16 8 16C12.4184 16 16 12.4184 16 8C16 3.5816 12.4184 0 8 0C5.3624 0 3.4848 1.1968 1.6 2.9176V0.8C1.6 0.587827 1.51572 0.384344 1.36569 0.234315C1.21566 0.0842855 1.01217 0 0.800002 0C0.587828 0 0.384345 0.0842855 0.234316 0.234315C0.0842871 0.384344 1.60657e-06 0.587827 1.60657e-06 0.8V4.8C-0.00020926 4.90512 0.0203394 5.00924 0.0604685 5.1064C0.100598 5.20355 0.159517 5.29183 0.233846 5.36616C0.308175 5.44048 0.39645 5.4994 0.493606 5.53953C0.590761 5.57966 0.694885 5.60021 0.800002 5.6H4.8C5.01217 5.6 5.21566 5.51571 5.36569 5.36569C5.51572 5.21566 5.6 5.01217 5.6 4.8C5.6 4.58783 5.51572 4.38434 5.36569 4.23431C5.21566 4.08429 5.01217 4 4.8 4H2.7904Z" fill="#6D7175"/>
</g>
<defs>
<clipPath id="clip0_16565_43530">
<rect width="16" height="16" fill="white"/>
</clipPath>
</defs>
</svg>
