<svg width="16" height="16" viewBox="0 0 16 16" fill="none" xmlns="http://www.w3.org/2000/svg">
<path fill-rule="evenodd" clip-rule="evenodd" d="M8 11C10.2091 11 12 9.20914 12 7C12 4.79086 10.2091 3 8 3C5.79086 3 4 4.79086 4 7C4 9.20914 5.79086 11 8 11ZM8 9.6C9.43594 9.6 10.6 8.43594 10.6 7C10.6 5.56406 9.43594 4.4 8 4.4C6.56406 4.4 5.4 5.56406 5.4 7C5.4 8.43594 6.56406 9.6 8 9.6Z" fill="#6D7175"/>
<path fill-rule="evenodd" clip-rule="evenodd" d="M13.5622 13.75C15.0654 12.2955 16 10.2569 16 8C16 3.58172 12.4183 0 8 0C3.58172 0 0 3.58172 0 8C0 12.4183 3.58172 16 8 16C9.65332 16 11.1895 15.4985 12.4647 14.6392C12.4647 14.6392 12.4647 14.6392 12.4647 14.6392C12.8566 14.3752 13.2238 14.0774 13.5622 13.75C13.5622 13.75 13.5622 13.75 13.5622 13.75ZM12.4647 12.8607C13.7773 11.6544 14.6 9.92329 14.6 8C14.6 4.35492 11.6451 1.4 8 1.4C4.35492 1.4 1.4 4.35492 1.4 8C1.4 9.9233 2.22267 11.6545 3.53531 12.8608C4.81052 12.0015 6.3467 11.5 8.00002 11.5C9.65334 11.5 11.1895 12.0015 12.4647 12.8607ZM11.2424 13.75C10.2847 13.2088 9.17844 12.9 8.00002 12.9C6.82159 12.9 5.7153 13.2088 4.75766 13.75C5.71529 14.2912 6.82158 14.6 8 14.6C9.17843 14.6 10.2847 14.2912 11.2424 13.75Z" fill="#6D7175"/>
</svg>
