<svg width="16" height="16" viewBox="0 0 16 16" fill="none" xmlns="http://www.w3.org/2000/svg">
<g clip-path="url(#clip0_16565_43496)">
<path fill-rule="evenodd" clip-rule="evenodd" d="M15.9427 7.70288C14.2331 3.42876 10.9451 1.48107 7.65861 1.65107C4.40995 1.8191 1.34481 4.05247 0.0455414 7.73374L-0.0484314 8L0.0455414 8.26625C1.34481 11.9475 4.40995 14.1809 7.65861 14.3489C10.9451 14.5189 14.2331 12.5712 15.9427 8.29711L16.0616 8L15.9427 7.70288ZM8.00001 12C10.2091 12 12 10.2091 12 8C12 5.79086 10.2091 4 8.00001 4C5.79087 4 4.00001 5.79086 4.00001 8C4.00001 10.2091 5.79087 12 8.00001 12Z" fill="#6D7175"/>
<path d="M10.4 8C10.4 9.32548 9.32549 10.4 8.00001 10.4C6.67452 10.4 5.60001 9.32548 5.60001 8C5.60001 6.67452 6.67452 5.6 8.00001 5.6C9.32549 5.6 10.4 6.67452 10.4 8Z" fill="#6D7175"/>
</g>
<defs>
<clipPath id="clip0_16565_43496">
<rect width="16" height="16" fill="white"/>
</clipPath>
</defs>
</svg>
