<svg width="16" height="16" viewBox="0 0 16 16" fill="none" xmlns="http://www.w3.org/2000/svg">
<path fill-rule="evenodd" clip-rule="evenodd" d="M2.74939 14.0002H13.2506C14.4898 14.0002 15.5006 12.9912 15.5006 11.752V9.71819C15.5006 9.41936 15.3248 9.15041 15.0523 9.03088C14.641 8.84983 14.3756 8.44729 14.3756 8.00081C14.3756 7.55432 14.641 7.15002 15.0523 6.97073C15.3248 6.8512 15.5006 6.58049 15.5006 6.28342V4.24963C15.5006 3.00862 14.4898 1.99963 13.2506 1.99963H2.74939C1.50837 1.99963 0.49939 3.00862 0.49939 4.24963V6.65784C0.49939 6.95667 0.676929 7.22561 0.94939 7.34514C1.35896 7.52444 1.62439 7.92873 1.62439 8.37522C1.62439 8.8217 1.35896 9.226 0.947632 9.4053C0.675171 9.52483 0.49939 9.79377 0.49939 10.0926V11.7502C0.49939 12.9912 1.50837 14.0002 2.74939 14.0002ZM4.99939 10.2508C4.99939 10.6657 5.33513 11.0014 5.74998 11.0014C6.16482 11.0014 6.50056 10.6657 6.50056 10.2508V5.75083C6.50056 5.33599 6.16482 5.00024 5.74998 5.00024C5.33513 5.00024 4.99939 5.33599 4.99939 5.75083V10.2508Z" fill="#6D7175"/>
</svg>
