<svg width="16" height="16" viewBox="0 0 16 16" fill="none" xmlns="http://www.w3.org/2000/svg">
<path d="M4.99939 10.251C4.99939 10.6658 5.33513 11.0015 5.74998 11.0015C6.16482 11.0015 6.50056 10.6658 6.50056 10.251V5.75095C6.50056 5.33611 6.16482 5.00037 5.74998 5.00037C5.33513 5.00037 4.99939 5.33611 4.99939 5.75095V10.251Z" fill="#6D7175"/>
<path fill-rule="evenodd" clip-rule="evenodd" d="M2.74939 14.0003H13.2506C14.4898 14.0003 15.5006 12.9914 15.5006 11.7521V9.71831C15.5006 9.41948 15.3248 9.15054 15.0523 9.03101C14.641 8.84995 14.3756 8.44741 14.3756 8.00093C14.3756 7.55444 14.641 7.15015 15.0523 6.97085C15.3248 6.85132 15.5006 6.58062 15.5006 6.28354V4.24976C15.5006 3.00874 14.4898 1.99976 13.2506 1.99976H2.74939C1.50837 1.99976 0.49939 3.00874 0.49939 4.24976V6.65796C0.49939 6.95679 0.676929 7.22573 0.94939 7.34526C1.35896 7.52456 1.62439 7.92886 1.62439 8.37534C1.62439 8.82183 1.35896 9.22612 0.947632 9.40542C0.675171 9.52495 0.49939 9.7939 0.49939 10.0927V11.7503C0.49939 12.9914 1.50837 14.0003 2.74939 14.0003ZM2.00056 11.7521V10.5287C2.69665 10.0435 3.12556 9.2437 3.12556 8.3771C3.12556 7.5105 2.69665 6.71069 2.00056 6.22554V4.25151C2.00056 3.83843 2.3363 3.50269 2.74939 3.50269H13.2506C13.6636 3.50269 13.9994 3.83843 13.9994 4.25151V5.84937C13.3033 6.33276 12.8744 7.13257 12.8744 8.00093C12.8744 8.86753 13.3033 9.66733 13.9994 10.1525V11.7521C13.9994 12.1652 13.6636 12.5009 13.2506 12.5009H2.74939C2.3363 12.5009 2.00056 12.1652 2.00056 11.7521Z" fill="#6D7175"/>
</svg>
