<svg width="16" height="16" viewBox="0 0 16 16" fill="none" xmlns="http://www.w3.org/2000/svg">
<path d="M8.80733 4.1237L5.72724 12.8073H3.08009L0 4.1237H2.25131L4.40366 10.6797L6.56839 4.1237H8.80733Z" fill="#6D7175"/>
<path d="M12.8333 12.8939C12.1983 12.8939 11.6293 12.7908 11.1263 12.5847C10.6232 12.3785 10.2192 12.0734 9.91404 11.6693C9.61716 11.2652 9.46048 10.7787 9.44398 10.2097H11.6953C11.7283 10.5313 11.8396 10.7787 12.0293 10.9518C12.219 11.1168 12.4663 11.1992 12.7715 11.1992C13.0848 11.1992 13.3322 11.1292 13.5137 10.989C13.6951 10.8405 13.7858 10.6385 13.7858 10.3828C13.7858 10.1684 13.7116 9.99113 13.5631 9.85093C13.4229 9.71074 13.2456 9.59529 13.0312 9.50458C12.8251 9.41387 12.5282 9.31078 12.1406 9.19533C11.5798 9.02215 11.1222 8.84898 10.7676 8.6758C10.413 8.50262 10.1078 8.24698 9.85219 7.90887C9.59655 7.57076 9.46873 7.12957 9.46873 6.5853C9.46873 5.77713 9.76148 5.14627 10.347 4.69271C10.9325 4.2309 11.6953 4 12.6354 4C13.592 4 14.3631 4.2309 14.9486 4.69271C15.5341 5.14627 15.8474 5.78126 15.8887 6.59767H13.6003C13.5838 6.31728 13.4807 6.09875 13.291 5.94207C13.1013 5.77713 12.8581 5.69467 12.5612 5.69467C12.3055 5.69467 12.0994 5.76476 11.9427 5.90496C11.786 6.0369 11.7077 6.23069 11.7077 6.48634C11.7077 6.76672 11.8396 6.98525 12.1035 7.14194C12.3674 7.29862 12.7797 7.46768 13.3405 7.6491C13.9013 7.83877 14.3548 8.0202 14.7012 8.19338C15.0558 8.36655 15.3609 8.61807 15.6165 8.94794C15.8722 9.2778 16 9.7025 16 10.222C16 10.7168 15.8722 11.1663 15.6165 11.5703C15.3691 11.9744 15.0063 12.296 14.528 12.5352C14.0497 12.7743 13.4848 12.8939 12.8333 12.8939Z" fill="#6D7175"/>
</svg>
