<svg width="16" height="16" viewBox="0 0 16 16" fill="none" xmlns="http://www.w3.org/2000/svg">
<path fill-rule="evenodd" clip-rule="evenodd" d="M4.28638 1.48404C5.41806 0.839045 6.69822 0.499901 8.0008 0.5C9.14417 0.500158 10.2724 0.761718 11.2992 1.26469C12.3259 1.76766 13.2241 2.49872 13.9251 3.40201C14.6261 4.30529 15.1113 5.35687 15.3436 6.47639C15.5759 7.59591 15.5491 8.75371 15.2654 9.86132C14.9817 10.9689 14.4485 11.997 13.7066 12.867C12.9647 13.737 12.0337 14.4258 10.9848 14.8808C9.93594 15.3359 8.79688 15.5451 7.65472 15.4925C6.51257 15.4399 5.39756 15.1269 4.39492 14.5774L2.23139 15.1904C2.03425 15.2475 1.82536 15.2508 1.62655 15.1997C1.42774 15.1486 1.24628 15.0451 1.10113 14.8999C0.955984 14.7548 0.852459 14.5733 0.801368 14.3745C0.750276 14.1757 0.75349 13.9668 0.810675 13.7696L1.42368 11.6061C0.797432 10.4639 0.479448 9.17837 0.50103 7.87597C0.522612 6.57356 0.883016 5.29923 1.54676 4.17844C2.2105 3.05764 3.15469 2.12904 4.28638 1.48404ZM7.2407 5.06042L7.47176 6.21571C7.52931 6.50259 7.38739 6.7925 7.12518 6.92317L6.7033 7.13433C6.7033 7.99972 8.00138 9.29781 8.86676 9.29781L9.07791 8.87593C9.14159 8.74857 9.24539 8.64568 9.37331 8.58313C9.50123 8.52058 9.64617 8.50183 9.7858 8.52977L10.9411 8.76083C11.0882 8.79024 11.2206 8.86974 11.3158 8.98579C11.4109 9.10183 11.4629 9.24726 11.4629 9.39733V10.7971C11.4629 11.1688 11.1492 11.4773 10.7775 11.4613C6.91965 11.2934 4.73975 9.62146 4.54028 5.22484C4.5234 4.85316 4.83321 4.53859 5.20532 4.53859H6.60421C6.75428 4.53858 6.89971 4.59057 7.01575 4.68571C7.1318 4.78085 7.21129 4.91327 7.2407 5.06042Z" fill="#6D7175"/>
</svg>
