<svg width="16" height="16" viewBox="0 0 16 16" fill="none" xmlns="http://www.w3.org/2000/svg">
<path fill-rule="evenodd" clip-rule="evenodd" d="M9.33055 1.05113C8.59571 0.316288 7.40429 0.316289 6.66944 1.05113L1.05113 6.66945C0.316288 7.40429 0.31629 8.59571 1.05113 9.33055L6.66945 14.9489C7.40429 15.6837 8.59571 15.6837 9.33055 14.9489L14.9489 9.33055C15.6837 8.59571 15.6837 7.40429 14.9489 6.66945L9.33055 1.05113ZM7.24728 4.9893C7.24728 4.57361 7.58426 4.23663 7.99995 4.23663C8.41564 4.23663 8.75263 4.57361 8.75263 4.9893V8C8.75263 8.41569 8.41564 8.75267 7.99995 8.75267C7.58426 8.75267 7.24728 8.41569 7.24728 8V4.9893ZM8.75263 11.0107C8.75263 11.4264 8.41564 11.7634 7.99995 11.7634C7.58426 11.7634 7.24728 11.4264 7.24728 11.0107C7.24728 10.595 7.58426 10.258 7.99995 10.258C8.41564 10.258 8.75263 10.595 8.75263 11.0107Z" fill="#6D7175"/>
</svg>
