<svg width="16" height="16" viewBox="0 0 16 16" fill="none" xmlns="http://www.w3.org/2000/svg">
<path d="M7.99551 13.9904C7.68508 13.9791 7.39115 13.8478 7.17554 13.6241C6.95994 13.4005 6.83946 13.102 6.83946 12.7914C6.83946 12.4807 6.95994 12.1822 7.17554 11.9586C7.39115 11.7349 7.68508 11.6037 7.99551 11.5923C8.30594 11.6037 8.59987 11.7349 8.81548 11.9586C9.03109 12.1822 9.15156 12.4807 9.15156 12.7914C9.15156 13.102 9.03109 13.4005 8.81548 13.6241C8.59987 13.8478 8.30594 13.9791 7.99551 13.9904ZM0.80447 5.9968C0.636517 5.99838 0.472358 5.94686 0.335429 5.84959C0.1985 5.75233 0.0958027 5.61428 0.0419981 5.45517C-0.0118064 5.29606 -0.013967 5.12402 0.035825 4.96361C0.0856169 4.8032 0.184816 4.66263 0.319259 4.56195C2.48472 2.90967 5.21054 2 7.99551 2C10.7797 2 13.5047 2.90887 15.6678 4.55955C15.7544 4.62196 15.8277 4.70111 15.8833 4.79232C15.9389 4.88353 15.9756 4.98495 15.9913 5.09059C16.007 5.19623 16.0014 5.30395 15.9748 5.40738C15.9482 5.51081 15.9011 5.60787 15.8364 5.69281C15.7716 5.77775 15.6905 5.84885 15.5978 5.90192C15.5051 5.95498 15.4028 5.98894 15.2967 6.00178C15.1907 6.01462 15.0832 6.00608 14.9805 5.97667C14.8778 5.94725 14.7821 5.89756 14.6989 5.83053C12.8125 4.39089 10.432 3.59872 7.99551 3.59872C5.55747 3.59872 3.17617 4.39169 1.28808 5.83293C1.14947 5.9396 0.979372 5.99723 0.80447 5.9968ZM3.19935 8.39488C3.07398 8.3958 2.95016 8.3671 2.83798 8.31112C2.7258 8.25513 2.62843 8.17345 2.55379 8.07271C2.47915 7.97197 2.42936 7.85503 2.40847 7.73141C2.38758 7.60779 2.39618 7.48098 2.43357 7.36131C2.48293 7.20134 2.58137 7.06095 2.71494 6.96003C4.20255 5.82334 6.07865 5.19744 7.99551 5.19744C9.91158 5.19744 11.7861 5.82254 13.2721 6.95843C13.4379 7.08797 13.5459 7.27766 13.5728 7.48635C13.5996 7.69504 13.5431 7.90589 13.4155 8.07318C13.2879 8.24047 13.0994 8.35069 12.8911 8.37993C12.6827 8.40918 12.4712 8.3551 12.3025 8.22941C11.093 7.30535 9.56306 6.79616 7.99551 6.79616C6.42717 6.79616 4.89639 7.30615 3.68536 8.23101C3.54672 8.33762 3.37664 8.39525 3.20175 8.39488H3.20015H3.19935ZM10.3888 10.793C10.2177 10.793 10.0512 10.7377 9.91398 10.6355C9.35757 10.2259 8.68479 10.005 7.99391 10.005C7.30303 10.005 6.63025 10.2259 6.07385 10.6355C5.98956 10.6981 5.89377 10.7434 5.79195 10.7689C5.69013 10.7945 5.58427 10.7997 5.48043 10.7844C5.37659 10.769 5.27678 10.7333 5.18673 10.6794C5.09667 10.6255 5.01811 10.5543 4.95555 10.47C4.82919 10.2998 4.77564 10.0863 4.80667 9.8766C4.8377 9.66687 4.95078 9.47807 5.12101 9.35171C6.80607 8.10072 9.18096 8.09992 10.866 9.35171C11.001 9.45187 11.1009 9.592 11.1517 9.7522C11.2024 9.9124 11.2014 10.0845 11.1487 10.2441C11.096 10.4037 10.9944 10.5426 10.8583 10.6411C10.7222 10.7397 10.5584 10.7928 10.3904 10.793H10.3888Z" fill="#6D7175"/>
</svg>
