<svg width="16" height="16" viewBox="0 0 16 16" fill="none" xmlns="http://www.w3.org/2000/svg">
<path d="M4.13333 10.3167L2.81667 9.01667C3.59444 8.23889 4.40833 7.65278 5.25833 7.25834C6.10833 6.86389 7.02222 6.66667 8 6.66667C8.97778 6.66667 9.89167 6.86112 10.7417 7.25001C11.5917 7.63889 12.4056 8.22223 13.1833 9.00001L11.8667 10.3167C11.1889 9.66112 10.5389 9.20278 9.91667 8.94167C9.29445 8.68056 8.65556 8.55 8 8.55C7.34444 8.55 6.70556 8.68056 6.08333 8.94167C5.46111 9.20278 4.81111 9.66112 4.13333 10.3167ZM1.31667 7.50001L0 6.18334C1.03333 5.12778 2.23611 4.27778 3.60833 3.63334C4.98056 2.98889 6.44444 2.66667 8 2.66667C9.55556 2.66667 11.0194 2.98889 12.3917 3.63334C13.7639 4.27778 14.9667 5.12778 16 6.18334L14.6833 7.50001C13.7056 6.60001 12.6722 5.88334 11.5833 5.35C10.4944 4.81667 9.3 4.55 8 4.55C6.7 4.55 5.50556 4.81667 4.41667 5.35C3.32778 5.88334 2.29444 6.60001 1.31667 7.50001ZM8 14.1833L10.4667 11.7C10.1444 11.3778 9.775 11.125 9.35833 10.9417C8.94167 10.7583 8.48889 10.6667 8 10.6667C7.51111 10.6667 7.05833 10.7583 6.64167 10.9417C6.225 11.125 5.85556 11.3778 5.53333 11.7L8 14.1833Z" fill="#6D7175"/>
</svg>
